<svg width="135" height="28" viewBox="0 0 135 28" fill="none" xmlns="http://www.w3.org/2000/svg">
<path d="M60.8459 13.9359C60.8459 18.9374 57.7962 21.31 53.9786 21.31H51.654V18.2962H53.808C56.1113 18.2962 57.6469 17.0565 57.6469 13.9145C57.6469 10.8153 56.1966 9.27636 53.744 9.27636C51.3767 9.27636 49.6919 10.7298 49.6919 13.8504V26.4184H46.4929V6.66873H49.6706V8.37865H50.1184C51.1848 6.94659 52.7417 6.30537 54.3838 6.30537C57.9028 6.30537 60.8459 8.87026 60.8459 13.9359ZM39.9455 12.6321L37.8341 12.4183C36.1706 12.2687 35.2962 11.8199 35.2962 10.8367C35.2962 9.68247 36.4265 9.01988 38.026 9.01988C39.6895 9.01988 40.7559 9.81071 40.8412 10.9222H43.891C43.763 8.05804 41.5663 6.30537 38.0474 6.30537C34.5071 6.30537 32.1184 8.18629 32.1184 10.9435C32.1184 13.2519 33.5687 14.7481 36.8744 15.0687L39.0284 15.2825C40.3293 15.4107 41.2038 15.6672 41.2038 16.9283C41.2038 18.0611 40.3933 18.8733 38.2393 18.8733C36.2559 18.8733 35.2748 17.9756 34.9336 16.7573H31.6279C31.9478 19.5145 34.2725 21.6519 38.2393 21.6519C41.9715 21.6519 44.3815 19.6855 44.3815 16.7573C44.3602 14.2138 42.6753 12.8886 39.9455 12.6321ZM73.1516 16.7787C72.6611 17.9329 71.4668 18.7878 69.7606 18.7878C67.436 18.7878 65.7085 17.2703 65.7085 14C65.7085 10.8794 67.308 9.14812 69.8033 9.14812C72.0213 9.14812 73.2796 10.4733 73.4076 12.4825H67.6919V14.7909H76.5426V13.2733C76.5426 9.06262 73.7488 6.32675 69.782 6.32675C66.0924 6.32675 62.5521 8.84888 62.5521 14C62.5521 19.1512 66.0924 21.6733 69.782 21.6733C73.1516 21.6733 75.5829 19.5787 76.3293 16.7787H73.1516ZM23.0118 6.30537C19.5355 6.30537 16.9336 8.12217 16.6137 10.9222H20.026C20.2606 9.89621 21.199 9.12675 22.9905 9.12675C25.2938 9.12675 26.0402 10.3451 26.0402 11.8199V16.8214C24.7393 18.3176 23.2251 19.0016 21.7109 19.0016C20.1327 19.0016 19.045 18.2321 19.045 16.8855C19.045 15.5817 19.8981 14.7695 21.5189 14.7695H24.0568V12.4825H21.4123C17.7867 12.4825 15.7393 14.2993 15.7393 17.0993C15.7393 19.7069 17.7014 21.6733 20.9431 21.6733C22.7559 21.6733 24.3554 20.9466 25.5497 20.0703H25.9976V21.31H29.1753V11.542C29.2606 7.9298 26.808 6.30537 23.0118 6.30537ZM1.4502 21.31H4.62792V1.28247H1.4502V21.31ZM14.8009 6.66873H10.9194L6.29143 12.7817V14.684L11.0474 21.31H14.9929L9.40517 13.7222L14.8009 6.66873ZM129.775 6.66873L127.173 12.4611C126.533 13.8504 125.936 15.2183 125.744 16.1374H125.296C125.104 15.2183 124.486 13.8932 123.846 12.5038L121.244 6.66873H117.725L123.846 19.8138L120.818 26.4397H124.209L133.294 6.66873H129.775ZM117.021 6.66873H113.14L108.512 12.7603V14.6626L113.268 21.2886H117.213L111.647 13.7008L117.021 6.66873ZM97.1019 12.6321L94.9905 12.4183C93.327 12.2687 92.4526 11.8199 92.4526 10.8367C92.4526 9.68247 93.5829 9.01988 95.1824 9.01988C96.8459 9.01988 97.9123 9.81071 97.9976 10.9222H101.047C100.919 8.05804 98.7227 6.30537 95.2038 6.30537C91.6635 6.30537 89.2748 8.18629 89.2748 10.9435C89.2748 13.2519 90.7251 14.7481 94.0308 15.0687L96.1848 15.2825C97.4857 15.4107 98.3602 15.6672 98.3602 16.9283C98.3602 18.0611 97.5497 18.8733 95.3957 18.8733C93.4123 18.8733 92.4312 17.9756 92.09 16.7573H88.7843C89.1042 19.5145 91.4289 21.6519 95.3957 21.6519C99.1279 21.6519 101.538 19.6855 101.538 16.7573C101.538 14.2138 99.8317 12.8886 97.1019 12.6321ZM103.671 21.31H106.848V1.28247H103.671V21.31ZM82.6848 8.37865H82.2369V6.66873H79.0592V21.31H82.2369V13.658C82.2369 11.0504 83.4312 9.53285 85.8199 9.53285H87.8246V6.30537H86.6516C84.4549 6.30537 83.5166 7.13896 82.6848 8.37865Z" fill="#009982"/>
</svg>
