<svg width="400" height="38" viewBox="0 0 400 38" fill="none" xmlns="http://www.w3.org/2000/svg">
<path fill-rule="evenodd" clip-rule="evenodd" d="M278.787 5.03237C275.506 5.36624 272.487 6.7928 270.17 9.1035C267.356 11.9112 265.873 15.6545 266.009 19.6058C266.053 20.8874 266.189 21.7868 266.521 22.9777C266.818 24.0456 267.382 25.3713 267.92 26.2699C268.006 26.4136 268.115 26.5994 268.162 26.6829C268.299 26.9251 268.902 27.7487 269.276 28.2034C269.599 28.5968 270.539 29.5612 270.879 29.8495C272.289 31.0433 273.635 31.8269 275.471 32.5231C275.956 32.7071 277.029 32.9834 277.743 33.1082C279.232 33.3685 281.292 33.3592 282.705 33.0858C284.236 32.7896 285.883 32.1923 287.014 31.5229C287.157 31.4379 287.345 31.3292 287.431 31.2814C287.593 31.1916 288.456 30.6274 288.502 30.5811C288.517 30.5667 288.634 30.473 288.763 30.3728C288.893 30.2725 289.043 30.155 289.098 30.1115C289.965 29.4261 291.061 28.2372 291.754 27.2322C292.054 26.7978 292.733 25.6925 292.733 25.6393C292.733 25.6284 292.817 25.4483 292.92 25.2392C293.023 25.03 293.152 24.7414 293.208 24.5977C293.264 24.454 293.333 24.2893 293.36 24.2319C293.485 23.9703 293.848 22.7889 293.938 22.3506C294.183 21.1634 294.243 20.6691 294.283 19.5026C294.351 17.5297 293.975 15.4941 293.208 13.676C293.097 13.4129 292.448 12.1054 292.417 12.0821C292.398 12.0678 292.344 11.982 292.298 11.8916C292.251 11.8011 292.056 11.4955 291.865 11.2124C290.113 8.62744 287.516 6.65782 284.585 5.69091C283.151 5.21788 282.061 5.03781 280.433 5.00504C279.801 4.99229 279.06 5.00457 278.787 5.03237ZM281.366 5.76329C281.764 5.79365 282.148 5.84042 282.218 5.86718C282.288 5.89393 282.414 5.91583 282.497 5.91583C282.692 5.91583 283.567 6.13598 284.298 6.36926C286.281 7.00235 288.095 8.11527 289.601 9.62356C291.291 11.317 292.432 13.2521 293.067 15.505C293.233 16.0915 293.255 16.1842 293.328 16.6024C293.369 16.8323 293.432 17.185 293.469 17.3862C293.574 17.9597 293.558 20.382 293.444 21.0442C293.315 21.7981 293.22 22.245 293.097 22.6903C291.968 26.7556 289.051 30.0253 285.133 31.6165C284.684 31.7989 284.24 31.9486 283.566 32.1446C283.408 32.1906 282.868 32.3054 282.339 32.4056C281.474 32.5692 279.839 32.6209 278.813 32.5172C276.819 32.3155 274.748 31.6162 273.133 30.5999C272.668 30.307 272.492 30.1867 272.476 30.15C272.467 30.1284 272.431 30.1108 272.397 30.1108C272.363 30.1108 272.277 30.0579 272.206 29.9932C272.134 29.9285 271.936 29.7698 271.766 29.6404C271.063 29.1057 269.799 27.7875 269.333 27.1026C269.237 26.9608 269.143 26.8329 269.125 26.8186C269.106 26.8042 268.937 26.5455 268.749 26.2438C267.821 24.7559 267.254 23.249 266.882 21.2793C266.593 19.7525 266.706 17.3551 267.142 15.7662C267.259 15.3395 267.627 14.2448 267.668 14.2012C267.693 14.1739 267.714 14.1204 267.714 14.0823C267.714 13.9653 268.365 12.657 268.657 12.1867C269.309 11.1361 269.861 10.4448 270.741 9.57381C271.43 8.89191 271.946 8.47317 272.824 7.88502C273.406 7.49524 274.924 6.69968 275.086 6.69968C275.128 6.69968 275.185 6.67862 275.212 6.65291C275.261 6.60661 276.374 6.23386 276.776 6.12893C277.57 5.92194 278.243 5.8144 279.225 5.73763C280.055 5.67273 280.201 5.67445 281.366 5.76329ZM279.623 8.78927C278.944 8.83772 277.921 9.0006 277.299 9.15915C276.497 9.36337 275.367 9.7936 274.975 10.0435C274.931 10.071 274.826 10.1295 274.739 10.1735C274.653 10.2175 274.512 10.3112 274.426 10.3817C274.278 10.5029 274.295 10.5002 274.739 10.3327C275.486 10.0514 276.715 9.70764 277.186 9.64859C277.277 9.6372 277.586 9.59116 277.873 9.54622C278.925 9.38182 281.192 9.39472 281.99 9.56963C282.11 9.59602 282.349 9.64482 282.522 9.67806C283.267 9.82171 284.356 10.2379 284.931 10.5983C285.194 10.7631 285.438 10.9844 285.4 11.0228C285.389 11.0335 285.102 10.9709 284.761 10.8837C284.112 10.7177 283.384 10.5675 282.678 10.4541C282.111 10.3629 279.401 10.3616 278.735 10.4522C276.652 10.7355 274.285 11.3799 272.864 12.0505C272.522 12.2119 272.21 12.3898 272.171 12.4457C272.132 12.5016 272.071 12.5784 272.035 12.6165C272 12.6546 271.893 12.7864 271.797 12.9095L271.622 13.1334L272.032 12.9286C272.896 12.4969 273.141 12.4004 274.269 12.0481C276.167 11.4558 278.404 11.0898 280.128 11.0894C282.005 11.089 283.653 11.3073 285.029 11.7386C285.428 11.8637 285.437 11.874 285.338 12.1121C285.239 12.3534 285.084 12.5337 284.888 12.6357C284.744 12.7106 284.298 12.6794 283.697 12.5523C283.568 12.525 283.333 12.4914 283.175 12.4777C283.017 12.4639 282.617 12.4255 282.287 12.3923C281.368 12.2999 278.958 12.3134 278.086 12.4158C277.342 12.5031 276.272 12.7016 275.758 12.8476C275.261 12.989 274.328 13.2891 274.165 13.3604C274.079 13.3981 273.844 13.4953 273.643 13.5764C273.182 13.762 271.975 14.3699 271.527 14.6414C271.341 14.7546 271.106 14.896 271.005 14.9555C270.904 15.015 270.752 15.1059 270.666 15.1576C270.557 15.2226 270.466 15.3543 270.369 15.5872C270.292 15.7719 270.228 15.9507 270.226 15.9844C270.223 16.0182 270.462 15.8943 270.757 15.709C271.319 15.3552 272.414 14.7744 272.99 14.5249C273.552 14.281 274.706 13.8784 275.262 13.7323C275.549 13.6567 275.855 13.5729 275.941 13.5459C276.249 13.4493 277.679 13.2269 278.474 13.1519C279.515 13.0535 281.043 13.0564 282.104 13.1587C282.564 13.203 282.975 13.2457 283.018 13.2537C283.061 13.2617 283.214 13.2852 283.357 13.3062C283.746 13.3626 283.801 13.3932 283.619 13.4508C283.225 13.5749 282.921 13.6575 282.705 13.6992C282.575 13.7241 282.282 13.785 282.052 13.8345C281.822 13.8841 281.516 13.9417 281.373 13.9625C278.904 14.321 275.965 14.987 274.231 15.581C273.086 15.9732 273.061 15.9832 272.323 16.3494C271.64 16.6882 271.121 17.0308 270.724 17.4047C270.474 17.6402 269.96 18.3221 269.96 18.4181C269.96 18.457 269.937 18.5127 269.907 18.5419C269.878 18.571 269.823 18.7581 269.785 18.9575C269.672 19.554 269.763 19.8662 270.241 20.5185C270.27 20.5569 270.256 20.6509 270.205 20.7605C269.845 21.5469 270.068 22.2038 270.881 22.7524C271.051 22.8668 271.058 22.8842 271.02 23.0822C270.998 23.1972 270.98 23.4696 270.979 23.6877C270.979 24.0563 270.992 24.1041 271.167 24.3671C271.457 24.8018 271.823 25.1554 272.317 25.4776C272.686 25.7178 272.773 25.8007 272.8 25.9333C272.887 26.3711 273.198 26.8233 273.721 27.2744C275.116 28.4771 276.983 29.2551 279.022 29.4826C279.842 29.5741 281.346 29.5367 281.947 29.4098C282.005 29.3978 282.236 29.3492 282.461 29.302C282.83 29.2248 283.462 29.0324 283.958 28.8467C284.213 28.7511 285.233 28.2295 285.165 28.2295C285.134 28.2295 285.021 28.2614 284.912 28.3004C284.517 28.4428 284.159 28.5321 283.331 28.6953C282.27 28.9046 280.098 28.9762 279.153 28.8331C278.515 28.7366 277.751 28.5351 277.247 28.3303C276.02 27.832 274.929 27.2002 274.327 26.6388C274.037 26.368 274.072 26.3418 274.466 26.5348C275.622 27.1014 277.268 27.6265 278.526 27.8302C279.606 28.0049 279.85 28.0244 280.956 28.0244C282.734 28.0245 284.354 27.7442 286.143 27.1271C286.564 26.9817 286.956 26.8496 287.014 26.8335C287.179 26.7872 287.706 26.3707 287.659 26.3237C287.646 26.3106 287.519 26.3355 287.377 26.3791C286.325 26.7013 284.762 27.0352 283.723 27.1596C282.065 27.358 279.787 27.2917 278.552 27.0091C278.495 26.9959 278.389 26.9724 278.317 26.9567C277.939 26.8744 277.437 26.7535 277.299 26.7113C276.2 26.3758 275.211 25.9935 274.4 25.5898C274.127 25.454 273.897 25.3366 273.888 25.3287C273.859 25.3032 274.021 24.9665 274.116 24.8537L274.208 24.7439L274.892 25.0279C276.455 25.6773 277.789 26.0189 279.466 26.1989C280.294 26.2877 282.854 26.3186 283.384 26.2463C284.332 26.1167 285.147 25.956 286.081 25.7143C286.643 25.569 287.687 25.2457 287.902 25.1505C287.959 25.1251 288.171 25.0384 288.372 24.9579C288.847 24.7677 288.949 24.7006 289.076 24.4946C289.214 24.2713 289.209 24.2496 289.038 24.3171C288.811 24.4063 287.75 24.719 287.096 24.8893C284.888 25.4642 282.204 25.7437 280.647 25.5608C278.532 25.3122 278.226 25.2551 276.881 24.8558C276.59 24.7694 275.187 24.2267 275.144 24.184C275.134 24.1736 275.297 24.1009 275.507 24.0224C275.717 23.944 275.936 23.8605 275.993 23.8368C276.143 23.7751 276.454 23.7126 276.515 23.7319C276.76 23.8089 277.497 24.0097 277.664 24.0449C279.053 24.3372 279.879 24.4495 281.399 24.5528C281.822 24.5816 283.137 24.4761 283.801 24.3602C285.48 24.0673 286.882 23.7229 287.771 23.3851C288.395 23.1479 289.361 22.7236 289.614 22.5755C289.752 22.4949 289.884 22.429 289.908 22.429C290.004 22.429 290.266 21.9296 290.204 21.8672C290.195 21.8578 290.037 21.9189 289.854 22.0031C289.218 22.2954 289.023 22.3775 288.49 22.5798C287.936 22.7899 287.279 23.007 286.779 23.1449C286.621 23.1884 286.409 23.2469 286.309 23.2747C286.106 23.3306 285.962 23.3611 285.159 23.5173C284.127 23.7182 283.878 23.7434 282.652 23.7704C281.258 23.8012 280.137 23.7154 279.127 23.5004C278.897 23.4515 278.627 23.394 278.526 23.3727C278.354 23.3362 278.351 23.3321 278.474 23.3017C278.649 23.2586 279.441 23.1186 279.701 23.0847C279.816 23.0698 280.122 23.0208 280.38 22.9758C280.639 22.9307 280.98 22.8728 281.138 22.8471C281.296 22.8213 281.636 22.7618 281.895 22.7148C282.154 22.6678 282.483 22.6091 282.626 22.5845C283.876 22.3701 285.624 21.9512 286.459 21.6657C287.138 21.4337 288.078 21.0082 288.618 20.6887C288.902 20.521 289.608 19.9948 289.734 19.8567C290.491 19.0307 290.736 18.2019 290.408 17.5688C290.363 17.4816 290.223 17.3018 290.096 17.1693L289.865 16.9284L289.98 16.7131C290.138 16.4176 290.137 15.7203 289.979 15.3743C289.815 15.0137 289.576 14.7172 289.238 14.455L288.931 14.2165L288.91 13.8417C288.898 13.6218 288.849 13.3806 288.79 13.2579C288.618 12.8937 287.912 12.2429 287.29 11.8751C286.845 11.6118 286.72 11.5112 286.675 11.3824C286.469 10.7903 285.706 10.1562 284.501 9.5748C284.267 9.46234 284.009 9.35407 283.926 9.33421C283.843 9.31435 283.752 9.28101 283.723 9.26006C283.694 9.23915 283.612 9.20905 283.54 9.19322C283.468 9.17733 283.28 9.12722 283.122 9.08181C282.237 8.82732 280.787 8.70613 279.623 8.78927ZM286.981 12.6687C287.29 12.9099 287.518 13.1944 287.586 13.4248C287.618 13.534 287.586 13.5281 286.899 13.2986C286.502 13.1662 286.169 13.0506 286.158 13.0417C286.146 13.0328 286.22 12.9335 286.322 12.8209C286.424 12.7083 286.523 12.5654 286.543 12.5031C286.587 12.3634 286.592 12.3655 286.981 12.6687ZM319.475 13.0035C319.194 13.0291 318.44 13.1624 318.13 13.2412L317.908 13.2976V14.629C317.908 15.8762 317.914 15.958 317.999 15.9232C318.627 15.6679 319.599 15.5643 320.028 15.7069C320.449 15.8469 320.679 16.1187 320.753 16.5647C320.838 17.0743 320.58 17.5562 320.091 17.7996C319.836 17.9269 319.774 17.9349 319.047 17.9349H318.274V19.2675V20.6H319.055C319.779 20.6 319.86 20.6099 320.137 20.7327C320.625 20.9484 320.781 21.1882 320.781 21.723C320.781 22.2886 320.479 22.7048 319.964 22.849C319.563 22.9615 318.644 22.8904 318.109 22.7054L317.656 22.5493L317.622 23.1816C317.603 23.5293 317.595 24.1065 317.604 24.4642L317.621 25.1146L317.786 25.2113C318.144 25.4202 318.831 25.6134 319.536 25.7034C320.208 25.7892 320.281 25.7893 320.841 25.7055C322.23 25.4978 323.073 24.9345 323.624 23.8454C323.957 23.1882 324.078 21.9608 323.884 21.2085C323.669 20.378 323.122 19.6846 322.413 19.3445C322.205 19.2446 322.034 19.1486 322.034 19.1312C322.034 19.1137 322.169 19.0158 322.334 18.9137C322.962 18.5258 323.416 17.9576 323.636 17.2849C323.752 16.9316 323.774 16.7667 323.776 16.2627C323.779 15.5868 323.697 15.1963 323.446 14.6895C323.055 13.9018 322.409 13.3847 321.46 13.0996C321.173 13.0136 319.991 12.9563 319.475 13.0035ZM346.817 13.0471C346.789 13.056 346.624 13.0929 346.452 13.1292C346.279 13.1655 345.95 13.2822 345.721 13.3885C344.329 14.0322 343.553 15.2556 343.103 17.5169C342.975 18.1606 342.977 20.4791 343.106 21.1487C343.287 22.092 343.472 22.6892 343.763 23.2754C344.382 24.5252 345.294 25.2703 346.558 25.5603C346.943 25.6486 348.111 25.6361 348.529 25.5392C349.736 25.259 350.659 24.4824 351.255 23.2438C351.51 22.716 351.762 21.9158 351.85 21.3577C351.882 21.1565 351.932 20.8391 351.961 20.6523C352.025 20.2472 351.997 18.2308 351.92 17.6725C351.748 16.4265 351.247 15.1662 350.62 14.3973C350.228 13.9169 349.57 13.4594 348.959 13.242C348.564 13.1016 348.017 13.023 347.46 13.0269C347.135 13.0291 346.846 13.0383 346.817 13.0471ZM302.761 19.3458V25.5122H304.224H305.686V20.8874V16.2627H307.148H308.611V14.7211V13.1795H305.686H302.761V19.3458ZM310.647 13.48C310.614 13.6452 310.567 13.8745 310.541 13.9895C310.516 14.1045 310.458 14.3984 310.411 14.6427C310.365 14.887 310.306 15.181 310.281 15.2959C310.255 15.4109 310.197 15.6931 310.152 15.923C309.821 17.6088 309.224 20.6115 309.186 20.7829C309.16 20.8979 309.077 21.3212 309.001 21.7235C308.925 22.1259 308.814 22.6903 308.756 22.9777C308.697 23.2651 308.632 23.5943 308.611 23.7093C308.509 24.2633 308.341 25.0866 308.298 25.2464C308.271 25.3446 308.262 25.4445 308.277 25.4685C308.292 25.4925 308.946 25.5122 309.73 25.5122H311.156L311.195 25.3162C311.216 25.2084 311.251 24.9909 311.273 24.8328C311.295 24.6747 311.354 24.3102 311.404 24.0228C311.455 23.7354 311.497 23.4709 311.498 23.4349C311.5 23.385 311.737 23.3696 312.501 23.3696H313.501L313.567 23.853C313.604 24.1188 313.665 24.501 313.704 24.7022C313.743 24.9034 313.79 25.1679 313.809 25.2901L313.843 25.5122H315.275H316.707L316.706 25.3684C316.705 25.2894 316.623 24.825 316.522 24.3364C316.421 23.8478 316.303 23.2599 316.258 23.03C316.214 22.8 316.145 22.459 316.105 22.2722C316.065 22.0854 316.006 21.7915 315.975 21.619C315.944 21.4466 315.885 21.1526 315.844 20.9658C315.772 20.6391 315.335 18.4195 315.247 17.9349C315.224 17.8056 315.105 17.2177 314.983 16.6285C314.861 16.0393 314.744 15.4514 314.722 15.3221C314.673 15.0329 314.436 13.8276 314.355 13.4539L314.295 13.1795H312.501H310.708L310.647 13.48ZM325.325 19.3458V25.5122H326.761H328.197V20.8352V16.1582H329.216H330.234V20.8352V25.5122H331.671H333.107V19.3458V13.1795H329.216H325.325V19.3458ZM334.726 19.3443V25.5122H336.162H337.599V23.4808V21.4495L338.474 21.4243C339.196 21.4035 339.408 21.3789 339.688 21.283C341.21 20.7626 342.166 19.3011 342.221 17.4123C342.269 15.7731 341.419 14.2065 340.139 13.5754C339.396 13.2088 339.237 13.1899 336.828 13.1827L334.726 13.1764V19.3443ZM353.372 19.3458V25.5122H354.808H356.244L356.258 21.7756L356.271 18.0392L356.663 18.5395C357.04 19.0208 357.139 19.1442 357.333 19.372C357.381 19.4295 357.534 19.6235 357.672 19.8031C357.81 19.9828 357.932 20.1297 357.944 20.1297C357.956 20.1297 358.167 19.8769 358.413 19.5679C358.659 19.2589 358.891 18.9688 358.929 18.9231C358.967 18.8775 359.142 18.6568 359.319 18.4327L359.64 18.0252V21.7687V25.5122H361.076H362.513V19.3458V13.1795H361.316H360.119L359.983 13.3494C359.785 13.5974 359.819 13.5521 359.115 14.5048C358.758 14.9893 358.359 15.5353 358.23 15.718C358.1 15.9007 357.979 16.0509 357.959 16.0519C357.94 16.0529 357.798 15.8837 357.646 15.6759C357.493 15.4682 357.18 15.0464 356.95 14.7387C356.72 14.4309 356.368 13.9542 356.168 13.6793L355.803 13.1795H354.588H353.372V19.3458ZM364.445 19.3497V25.5197L366.469 25.5002C368.493 25.4806 368.493 25.4806 368.95 25.3398C369.534 25.16 369.834 25.0201 370.183 24.7644C371.19 24.0284 371.653 22.996 371.653 21.4896C371.653 19.4673 370.784 18.3345 368.885 17.8803C368.727 17.8425 368.292 17.7982 367.918 17.7818L367.239 17.752V16.9682V16.1843L369.107 16.1706L370.974 16.1569V14.6682V13.1795H367.71H364.445V19.3497ZM374.685 13.2318C374.663 13.2462 374.594 13.5283 374.532 13.8589C374.469 14.1894 374.384 14.6244 374.341 14.8256C374.217 15.4116 374.046 16.2692 374.003 16.524C373.98 16.6533 373.922 16.9473 373.872 17.1772C373.822 17.4071 373.764 17.7011 373.742 17.8304C373.721 17.9597 373.597 18.5947 373.467 19.2413C373.337 19.888 373.22 20.4759 373.206 20.5478C373.192 20.6196 373.133 20.9135 373.075 21.201C372.957 21.7826 372.958 21.7752 372.779 22.6945C372.709 23.056 372.627 23.4558 372.598 23.5828C372.569 23.7099 372.485 24.1313 372.412 24.5193C372.338 24.9073 372.265 25.2894 372.249 25.3684L372.219 25.5122H373.674H375.129L375.251 24.7414C375.319 24.3174 375.399 23.8354 375.429 23.6701L375.484 23.3696H376.461H377.437L377.472 23.5656C377.562 24.0657 377.672 24.7286 377.709 24.9917C377.79 25.5698 377.619 25.5122 379.258 25.5122H380.694L380.658 25.3162C380.63 25.1571 380.474 24.3648 380.13 22.638C380.116 22.5662 380.056 22.2722 379.998 21.9848C379.94 21.6974 379.881 21.4035 379.867 21.3316C379.666 20.2874 379.321 18.5287 379.278 18.3268C379.2 17.9566 378.435 14.121 378.408 13.9634C378.396 13.8915 378.361 13.6981 378.329 13.5336L378.273 13.2345L376.498 13.22C375.523 13.2121 374.706 13.2174 374.685 13.2318ZM381.914 13.2449C381.901 13.2808 381.895 16.0497 381.903 19.3981L381.916 25.486L383.313 25.4999L384.711 25.5139V23.0569V20.6H385.703H386.695V23.0561V25.5122H388.106H389.516V19.3458V13.1795H388.106H386.695V15.4004V17.6214H385.703H384.711V15.4004V13.1795H383.325C382.264 13.1795 381.933 13.1948 381.914 13.2449ZM391.344 19.3458V25.5122H392.754H394.164V23.0561V20.6H394.5H394.836L394.952 20.9789C395.016 21.1873 395.179 21.6987 395.315 22.1155C395.451 22.5322 395.755 23.4669 395.99 24.1927L396.417 25.5122H398.064C399.613 25.5122 399.71 25.5066 399.675 25.4207C399.655 25.3704 399.526 25.0353 399.389 24.676C399.252 24.3168 398.911 23.4232 398.631 22.6903C398.351 21.9574 397.998 21.0403 397.847 20.6523C397.695 20.2643 397.535 19.841 397.491 19.7116C397.447 19.5823 397.364 19.3675 397.307 19.2343C397.25 19.1011 397.221 18.9717 397.244 18.9469C397.267 18.922 397.334 18.7606 397.393 18.5881C397.453 18.4157 397.667 17.8354 397.87 17.2987C398.072 16.7619 398.238 16.3069 398.238 16.2876C398.238 16.2682 398.271 16.1782 398.311 16.0877C398.352 15.9971 398.506 15.5938 398.655 15.1914C398.804 14.789 398.957 14.3775 398.996 14.2769C399.166 13.8392 399.387 13.2329 399.387 13.2073C399.387 13.1921 398.708 13.1795 397.878 13.1795H396.369L396.178 13.689C396.072 13.9693 395.931 14.3514 395.864 14.5382C395.796 14.725 395.682 15.0425 395.609 15.2437C395.537 15.4449 395.316 16.0563 395.118 16.6024L394.758 17.5952L394.461 17.6109L394.164 17.6266V15.4031V13.1795H392.754H391.344V19.3458ZM285.865 13.8569C286.313 13.9762 287.353 14.3851 287.353 14.4423C287.353 14.5188 286.755 15.0053 286.627 15.0329C286.553 15.049 286.327 15.0121 286.126 14.9511C285.38 14.7245 284.503 14.4904 284.392 14.4882C284.165 14.4837 284.231 14.3972 284.593 14.2243C284.796 14.1274 285.059 13.9735 285.178 13.8824C285.365 13.7384 285.414 13.7231 285.551 13.766C285.637 13.7931 285.778 13.834 285.865 13.8569ZM288.747 15.2857C288.964 15.5326 289.046 15.7545 288.986 15.9334C288.959 16.0139 288.916 16.0791 288.89 16.0781C288.863 16.0772 288.654 15.9833 288.424 15.8694C288.194 15.7556 287.999 15.6592 287.99 15.6551C287.966 15.6438 288.524 15.1154 288.562 15.1142C288.581 15.1136 288.664 15.1907 288.747 15.2857ZM284.036 15.3677C285.185 15.6125 285.283 15.6489 284.937 15.7029C284.844 15.7175 284.58 15.7777 284.35 15.8368C284.12 15.8959 283.826 15.9679 283.697 15.9968C283.568 16.0258 283.309 16.0839 283.122 16.1261C282.662 16.23 281.459 16.4604 279.257 16.866C278.554 16.9957 277.696 17.1611 277.351 17.2335C277.006 17.3059 276.618 17.3862 276.489 17.412C276.36 17.4377 276.113 17.4975 275.941 17.5449C275.768 17.5923 275.439 17.6768 275.21 17.7326C274.719 17.8517 274.672 17.8663 273.852 18.1505C272.727 18.5401 271.763 19.0475 271.245 19.5218C271.134 19.6244 271.022 19.6963 270.999 19.6816C270.975 19.6669 270.921 19.5383 270.879 19.3959C270.613 18.5002 271.625 17.7054 274.139 16.8358C274.211 16.811 274.363 16.7641 274.478 16.7317C274.879 16.6188 275.002 16.5829 275.288 16.4973C275.446 16.4499 275.657 16.3918 275.758 16.3682C275.859 16.3446 276.129 16.2775 276.359 16.2192C276.588 16.1609 276.941 16.0755 277.142 16.0295C277.343 15.9835 277.566 15.9312 277.638 15.9132C277.71 15.8953 277.816 15.8727 277.873 15.863C277.971 15.8464 278.625 15.7245 279.519 15.5564C279.734 15.5158 280.286 15.4355 280.746 15.3779C281.206 15.3203 281.664 15.2628 281.764 15.2501C282.181 15.1974 283.577 15.2696 284.036 15.3677ZM338.524 15.9509C338.988 16.0503 339.227 16.4132 339.307 17.1375C339.345 17.4825 339.242 17.9989 339.078 18.2877C338.891 18.6175 338.654 18.7188 338.071 18.7188H337.599V17.3078V15.8969H337.936C338.121 15.8969 338.386 15.9212 338.524 15.9509ZM347.961 16.1088C348.396 16.3132 348.653 16.7388 348.852 17.5803C348.964 18.0542 348.978 18.2405 348.983 19.2776C348.989 20.6724 348.921 21.1475 348.613 21.8414C348.485 22.1287 348.169 22.4781 347.955 22.5676C347.759 22.6496 347.361 22.6595 347.114 22.5884C346.94 22.5385 346.623 22.2537 346.471 22.0109C346.085 21.3936 345.88 19.7408 346.026 18.4308C346.151 17.3145 346.28 16.8946 346.646 16.4124C346.938 16.028 347.509 15.8963 347.961 16.1088ZM287.419 16.459C287.877 16.6681 288.189 16.8422 288.188 16.888C288.186 16.9378 287.701 17.2331 287.353 17.3965C286.699 17.7033 285.028 18.2123 283.775 18.4864C283.603 18.5241 283.18 18.6166 282.835 18.6921C282.283 18.8129 281.532 18.9666 281.059 19.0555C280.973 19.0717 280.597 19.1315 280.224 19.1884C279.85 19.2453 279.41 19.3157 279.244 19.345C279.079 19.3742 278.797 19.4235 278.618 19.4545C276.101 19.8896 274.47 20.33 273.43 20.8553L272.918 21.1141L272.627 20.9643C272.468 20.8819 272.246 20.7579 272.134 20.6887L271.931 20.5629L272.265 20.3259C272.448 20.1956 272.763 20.0067 272.964 19.9062C273.301 19.7374 273.418 19.6846 273.852 19.5044C274.122 19.3922 275.194 19.0446 275.549 18.9543C275.736 18.9068 276.006 18.836 276.15 18.7971C276.293 18.7582 276.528 18.7014 276.672 18.6708C276.816 18.6403 277.086 18.5815 277.273 18.5402C277.459 18.4989 277.741 18.4395 277.899 18.4083C278.057 18.3771 278.433 18.3021 278.735 18.2415C279.037 18.1809 279.354 18.1213 279.44 18.109C279.526 18.0967 279.902 18.03 280.276 17.9607C280.649 17.8914 281.155 17.7991 281.399 17.7557C282.921 17.4848 283.444 17.3788 284.167 17.1954C285.003 16.9833 286.405 16.5293 286.726 16.3666C286.827 16.3157 286.927 16.2715 286.949 16.2684C286.971 16.2652 287.182 16.3511 287.419 16.459ZM312.658 18.0394C312.704 18.3699 312.767 18.8167 312.797 19.0323C312.826 19.2479 312.884 19.6241 312.925 19.8684C312.965 20.1127 312.998 20.389 312.998 20.4824L312.998 20.6523H312.502H312.006L312.007 20.5086C312.007 20.4295 312.042 20.1297 312.085 19.8423C312.329 18.1791 312.441 17.415 312.467 17.2294L312.495 17.0204L312.535 17.2294C312.556 17.3444 312.612 17.7089 312.658 18.0394ZM376.526 17.4239C376.543 17.5756 376.605 18.029 376.665 18.4313C376.843 19.6346 376.922 20.1949 376.949 20.4432L376.975 20.6784L376.455 20.6619L375.936 20.6453L375.963 20.4529C375.979 20.347 376.015 20.0957 376.044 19.8945C376.074 19.6934 376.118 19.3759 376.143 19.1891C376.168 19.0023 376.227 18.6025 376.274 18.3007C376.321 17.9989 376.373 17.6056 376.389 17.4267C376.426 17.0412 376.483 17.04 376.526 17.4239ZM289.158 17.9071C289.462 18.6351 288.782 19.3353 287.066 20.0602C285.954 20.5301 284.171 20.998 282.026 21.383C281.896 21.4062 281.591 21.4642 281.347 21.5119C281.102 21.5596 280.773 21.6199 280.615 21.646C280.457 21.6721 280.117 21.7322 279.858 21.7795C279.6 21.8268 279.27 21.8839 279.127 21.9063C278.867 21.9468 278.241 22.0689 277.795 22.1663C277.51 22.2285 277.117 22.3293 276.594 22.4746C276.378 22.5344 276.148 22.5839 276.081 22.5845C275.895 22.5865 274.4 21.9422 274.4 21.8601C274.4 21.831 275.569 21.443 275.993 21.3313C276.682 21.1499 278.543 20.7919 279.806 20.5978C279.978 20.5714 280.319 20.5127 280.563 20.4675C280.807 20.4223 281.136 20.3646 281.294 20.3394C281.671 20.2791 282.849 20.0462 283.279 19.9468C283.466 19.9036 283.724 19.846 283.854 19.8188C283.983 19.7916 284.324 19.707 284.611 19.6309C284.898 19.5547 285.251 19.4614 285.394 19.4236C286.23 19.2037 286.966 18.9398 287.771 18.5719C288.058 18.4406 288.667 18.0594 288.868 17.8848C288.968 17.7976 289.058 17.7261 289.066 17.726C289.075 17.7259 289.116 17.8075 289.158 17.9071ZM368.075 20.2919C368.612 20.4386 368.83 20.7925 368.831 21.521C368.833 22.0804 368.745 22.3768 368.504 22.6313C368.228 22.9217 367.919 23.0258 367.383 23.0091L367.213 23.0038V21.6539C367.213 20.9114 367.229 20.2882 367.248 20.2691C367.303 20.214 367.845 20.229 368.075 20.2919ZM271.842 21.9718C271.754 22.0508 271.662 22.1155 271.638 22.1155C271.534 22.1155 271.321 21.8905 271.265 21.7206C271.154 21.3832 271.223 21.3617 271.632 21.6066L272.002 21.828L271.842 21.9718ZM273.701 22.6681C274.091 22.845 274.253 22.9155 274.557 23.0395C274.679 23.0896 274.659 23.1062 274.228 23.3094L273.768 23.526L273.444 23.3501C273.132 23.1807 272.724 22.9492 272.682 22.9172C272.619 22.8701 273.099 22.4913 273.23 22.4843C273.262 22.4826 273.474 22.5653 273.701 22.6681ZM272.768 24.0513C272.89 24.118 272.99 24.1906 272.99 24.2124C272.99 24.2342 272.94 24.3372 272.878 24.4413L272.767 24.6305L272.586 24.4573C272.395 24.2737 272.206 23.9527 272.206 23.8116C272.206 23.7369 272.226 23.7389 272.376 23.8283C272.469 23.8841 272.646 23.9844 272.768 24.0513Z" fill="white"/>
<path fill-rule="evenodd" clip-rule="evenodd" d="M0 13.445V26.89H63H126V13.445V0H63H0V13.445ZM19.3898 7.46943C21.0121 7.64315 21.9142 8.07136 22.373 8.88521C22.6172 9.31844 22.6275 9.41693 22.6275 11.3109C22.6275 12.3966 22.5914 13.4161 22.5473 13.5764C22.3459 14.3076 21.4564 14.9644 20.3596 15.1918L19.7484 15.3184L20.8729 17.131C22.4142 19.6153 22.6341 19.9081 23.4044 20.5026L24.0763 21.0211H20.9321H17.7877L16.0077 18.1453L14.2275 15.2694L11.7862 15.2642L9.345 15.259L9.34962 17.5798C9.35403 19.8262 9.37755 20.0388 9.70956 20.8344C9.78274 21.0098 9.60162 21.0211 6.73123 21.0211C5.05029 21.0211 3.675 21.0011 3.675 20.9766C3.675 20.9522 3.7695 20.708 3.885 20.4342C4.08639 19.9567 4.095 19.6992 4.095 14.1254C4.095 8.52519 4.08744 8.2994 3.885 7.89626C3.7695 7.6662 3.675 7.45204 3.675 7.42035C3.675 7.31727 18.3987 7.36337 19.3898 7.46943ZM40.1389 7.47178C41.7679 7.6614 42.6786 8.16335 43.1128 9.1109L43.3629 9.65691L43.3616 14.2453C43.3605 18.4889 43.3458 18.8658 43.1655 19.2605C42.7766 20.1124 41.9413 20.6691 40.6875 20.9122C40.2442 20.9981 38.1126 21.0244 33.495 21.0011L26.9325 20.9678L26.3123 20.7137C25.5569 20.4044 24.84 19.7108 24.6835 19.1379C24.6116 18.8749 24.5718 17.0741 24.5729 14.1386C24.5745 9.92944 24.5904 9.51489 24.7659 9.12338C25.179 8.20155 26.1278 7.64753 27.5898 7.47456C28.647 7.34939 39.0682 7.34704 40.1389 7.47178ZM61.2011 8.5684C61.338 9.20213 61.4209 9.74996 61.3856 9.78592C61.3502 9.82177 61.1265 9.79189 60.8884 9.71933C60.3254 9.54796 58.3635 9.39591 56.6737 9.39271L55.335 9.39015V14.8074V20.2247L55.6013 20.6229L55.8676 21.0211H52.7138C50.9792 21.0211 49.56 20.9986 49.56 20.9711C49.56 20.9435 49.6663 20.7154 49.7962 20.4642C50.0308 20.0106 50.0327 19.9703 50.0616 14.6817L50.0907 9.356L47.7973 9.42376C46.3902 9.46527 45.2061 9.55511 44.7337 9.65616C44.3102 9.74665 43.9398 9.79648 43.9106 9.76682C43.8598 9.71507 44.2447 8.10263 44.4274 7.60218L44.5153 7.36145L52.7339 7.38876L60.9525 7.41608L61.2011 8.5684ZM78.4875 7.59535C79.7954 7.99806 80.5464 8.68514 80.7458 9.66097C80.8216 10.0323 80.8501 11.7111 80.8292 14.5825C80.7981 18.8497 80.7927 18.9495 80.5643 19.3835C80.2449 19.9904 79.6739 20.4401 78.8586 20.7266C78.1734 20.9675 78.1635 20.9678 71.295 20.9678H64.4175L63.7875 20.7137C63.3741 20.547 62.9893 20.2845 62.6683 19.9505C61.9518 19.2049 61.9334 19.0451 61.9708 13.9081C61.9997 9.9416 62.0199 9.50955 62.1971 9.09809C62.5754 8.21926 63.5573 7.65798 65.0368 7.47509C65.4469 7.4244 68.523 7.39431 71.8725 7.40829C76.9597 7.42953 78.0489 7.46026 78.4875 7.59535ZM98.0911 7.46421C99.296 7.59311 100.088 7.85753 100.598 8.30174C101.334 8.94145 101.377 9.10247 101.377 11.1697C101.377 13.2009 101.335 13.3484 100.612 13.8185C100.431 13.9358 100.283 14.0559 100.283 14.0852C100.283 14.1146 100.432 14.2346 100.615 14.352C101.295 14.7889 101.377 15.0951 101.377 17.1797C101.377 18.9757 101.367 19.0654 101.114 19.5272C100.765 20.1618 100.049 20.639 99.1266 20.8522C98.4946 20.9983 97.3118 21.0211 90.361 21.0211H82.3259L82.5974 20.5143L82.8689 20.0074L82.8054 14.0995C82.7445 8.42872 82.7335 8.17754 82.531 7.84451C82.4149 7.65372 82.32 7.4673 82.32 7.43017C82.32 7.32357 97.0743 7.35547 98.0911 7.46421ZM118.887 7.47157C120.372 7.64443 121.296 8.11831 121.78 8.955L122.062 9.4435L122.093 14.0044C122.113 17.0376 122.085 18.7091 122.01 18.9943C121.778 19.8676 120.895 20.5709 119.665 20.8607C119.049 21.0061 118.065 21.0243 112.37 20.9964C106.42 20.967 105.735 20.9459 105.241 20.7763C104.488 20.5181 103.838 19.9924 103.554 19.4121C103.317 18.9279 103.316 18.8976 103.315 14.2134C103.315 8.9916 103.304 9.08699 104.003 8.3965C104.481 7.92528 105.302 7.59737 106.302 7.47882C107.384 7.35046 117.796 7.34448 118.887 7.47157ZM9.345 11.3109V13.2316H13.275C16.7077 13.2316 17.2259 13.2103 17.37 13.0639C17.5057 12.926 17.535 12.6046 17.535 11.2537C17.535 9.73886 17.5191 9.60249 17.3319 9.50059C17.2024 9.43016 15.7189 9.39015 13.2369 9.39015H9.345V11.3109ZM29.88 9.55778C29.7352 9.70493 29.715 10.2774 29.715 14.2315C29.715 17.594 29.747 18.7702 29.841 18.8657C29.9346 18.9607 30.9982 18.9937 33.9773 18.9937C37.5373 18.9937 37.9947 18.9747 38.0513 18.8249C38.0863 18.7321 38.115 16.621 38.115 14.1336C38.115 9.77151 38.1078 9.60719 37.9119 9.50059C37.7826 9.43027 36.3175 9.39015 33.8769 9.39015C30.5334 9.39015 30.024 9.41149 29.88 9.55778ZM67.326 9.51819C67.175 9.67164 67.1416 18.8377 67.2918 18.932C67.4212 19.0133 75.4017 19.0174 75.4818 18.9362C75.5179 18.8995 75.5612 16.814 75.5779 14.3017C75.6052 10.2169 75.5905 9.71592 75.4392 9.56216C75.2896 9.4101 74.816 9.39015 71.361 9.39015C68.4606 9.39015 67.4194 9.42322 67.326 9.51819ZM88.095 11.2308V13.0715L92.0025 13.0475C94.1516 13.0343 95.9707 12.9997 96.045 12.9708C96.1469 12.9311 96.18 12.5134 96.18 11.2647C96.18 9.73897 96.1642 9.60249 95.9769 9.50059C95.8476 9.43027 94.3802 9.39015 91.9344 9.39015H88.095V11.2308ZM108.573 9.59865C108.5 9.73694 108.472 11.3471 108.49 14.3738L108.517 18.9404L112.606 18.9683C115.806 18.9902 116.712 18.967 116.778 18.8616C116.824 18.7875 116.862 16.7017 116.863 14.2262C116.865 10.2755 116.845 9.70504 116.7 9.55778C116.556 9.41138 116.038 9.39015 112.609 9.39015C108.82 9.39015 108.679 9.39751 108.573 9.59865ZM88.095 17.0196V18.9937H92.0738C95.605 18.9937 96.0597 18.9747 96.1163 18.8249C96.1513 18.7321 96.18 17.8729 96.18 16.9156C96.18 15.4269 96.156 15.1657 96.0139 15.1103C95.9225 15.0747 94.1034 15.0456 91.9714 15.0456H88.095V17.0196ZM4.30668 31.1608C4.1055 31.2089 3.83376 31.3747 3.70293 31.5292C3.47487 31.7987 3.465 31.8896 3.465 33.7182C3.465 34.7674 3.51193 35.7515 3.56937 35.9048C3.76519 36.4285 4.14624 36.4935 7.01935 36.4935H9.63553L9.69885 36.2534C9.85278 35.6694 9.93373 35.6903 7.6651 35.7295L5.565 35.7659V33.8275V31.8892L7.67182 31.9238L9.77875 31.9585L9.70987 31.5859C9.67197 31.3809 9.61884 31.1768 9.59175 31.1324C9.52591 31.0241 4.77162 31.0497 4.30668 31.1608ZM73.0621 33.5501C73.0857 35.2476 73.0592 36.1203 72.9796 36.2713C72.866 36.487 72.885 36.4935 73.6276 36.4936L74.3925 36.4937L74.3661 34.5462L74.3398 32.5987L74.6832 33.1418C74.8721 33.4403 75.4037 34.3154 75.8646 35.0864L76.7025 36.4881L77.5425 36.4877L78.3825 36.4873L79.59 34.4931L80.7975 32.499L80.8263 34.285C80.8442 35.3958 80.813 36.1509 80.7438 36.2822C80.636 36.4871 80.6693 36.4935 81.8475 36.4935C83.0368 36.4935 83.0599 36.4889 82.948 36.2764C82.8132 36.0204 82.8496 31.532 82.9889 31.2382C83.0707 31.0656 82.9791 31.0515 81.7721 31.0515H80.4669L79.2693 33.0256C78.6107 34.1113 78.0472 34.9979 78.0172 34.9958C77.9871 34.9938 77.427 34.1054 76.7726 33.0217L75.5827 31.0515L74.3051 31.0514L73.0275 31.0513L73.0621 33.5501ZM95.8125 33.7724V36.4934L96.8205 36.4935H97.8285L97.7784 35.7004L97.7283 34.9071L98.1238 34.7393C98.5928 34.5401 98.5329 34.5051 99.7034 35.6637L100.549 36.5009L101.751 36.4706C102.946 36.4403 102.951 36.4392 102.637 36.2561C102.236 36.0218 99.9949 33.8615 100.072 33.7834C100.104 33.7512 100.717 33.4368 101.436 33.0849L102.742 32.445L101.746 32.4419L100.749 32.4387L99.3156 33.1856C98.5275 33.5965 97.8539 33.9326 97.8188 33.9326C97.7837 33.9326 97.755 33.2843 97.755 32.492V31.0515H96.7837L95.8125 31.0514V33.7724ZM51.94 31.3361C51.9015 31.3751 51.87 31.5912 51.87 31.8163V32.2253H52.815H53.76V31.7451V31.2649H52.885C52.4037 31.2649 51.9785 31.2969 51.94 31.3361ZM48.2475 31.5588C46.8163 31.6817 46.83 31.6767 46.83 32.0729V32.4387H46.305H45.78V32.8122V33.1856H46.305H46.83V34.5135C46.83 35.763 46.8449 35.859 47.0832 36.1408L47.3364 36.4402L49.3407 36.4734C51.2167 36.5043 51.3451 36.4941 51.3465 36.3133C51.3472 36.207 51.3732 36.024 51.4043 35.9066C51.4591 35.6998 51.4183 35.6944 50.0951 35.7305C48.4908 35.7743 48.6068 35.8924 48.6443 34.2527L48.6675 33.239L49.8487 33.2088L51.03 33.1786V32.8086V32.4387H49.8283H48.6265L48.5945 31.9852C48.564 31.5526 48.548 31.533 48.2475 31.5588ZM112.35 31.5499C112.263 31.5622 111.874 31.603 111.484 31.6404L110.775 31.7087V32.0737V32.4387H110.25H109.725V32.8122V33.1856H110.25H110.775V34.5135C110.775 35.763 110.79 35.859 111.028 36.1408L111.281 36.4402L113.286 36.4734C115.162 36.5043 115.29 36.4941 115.291 36.3133C115.292 36.207 115.318 36.024 115.349 35.9066C115.404 35.701 115.355 35.6932 114.009 35.6932H112.612L112.583 34.4394L112.553 33.1856H113.764H114.975V32.8122V32.4387H113.773H112.572L112.54 31.9832C112.516 31.6511 112.465 31.5336 112.35 31.5499ZM10.859 32.5534C10.2471 32.7339 10.1365 32.9772 10.0961 34.2321C10.0519 35.6068 10.1748 36.1073 10.6135 36.3379C10.8796 36.4777 11.3465 36.4988 13.5937 36.472C16.2497 36.4403 16.2594 36.4393 16.5292 36.1815C16.7935 35.9289 16.8 35.8894 16.8 34.5246C16.8 32.9341 16.7265 32.7303 16.0882 32.5501C15.6137 32.4162 11.3147 32.4189 10.859 32.5534ZM17.4464 32.7607C17.5084 32.9415 17.5386 33.7939 17.518 34.7835L17.4825 36.4937H18.48L19.4775 36.4938L19.4439 34.8397L19.4102 33.1856H20.9016H22.3931L22.3437 34.8396L22.2942 36.4935L23.3009 36.4937L24.3075 36.4939L24.255 34.7973C24.1961 32.8927 24.1407 32.744 23.4158 32.5456C23.2036 32.4876 21.7496 32.4419 20.1846 32.4442L17.3393 32.4484L17.4464 32.7607ZM24.9375 34.4694V36.4935L25.935 36.4936L26.9325 36.4937L26.8968 34.8397L26.8612 33.1856H28.3518H29.8425L29.805 34.8396L29.7674 36.4935L30.765 36.4936L31.7625 36.4937L31.7304 34.8664C31.7037 33.5087 31.6673 33.1948 31.5106 32.9722C31.1802 32.5028 30.8126 32.4513 27.7725 32.4482L24.9375 32.4453V34.4694ZM32.9804 32.6009C32.3901 32.8673 32.347 32.9947 32.3434 34.4868C32.3402 35.7671 32.3539 35.8578 32.5933 36.1408L32.8465 36.4402L35.9008 36.4714C38.344 36.4965 38.9553 36.4752 38.9565 36.3647C38.9572 36.2889 38.9864 36.1188 39.0211 35.9867L39.0845 35.7466H36.6573H34.23V35.3198V34.8929H36.645H39.06V34.0976C39.06 33.1835 38.9403 32.8413 38.5497 32.6383C38.1175 32.4139 33.4642 32.3826 32.9804 32.6009ZM40.351 32.5568C39.7712 32.7272 39.69 32.9639 39.69 34.4839C39.69 35.7647 39.7043 35.8583 39.9433 36.1408L40.1965 36.4402L42.8465 36.4722C44.304 36.4898 45.5306 36.4658 45.5722 36.4188C45.6138 36.3719 45.6785 36.2014 45.716 36.04L45.784 35.7466H43.682H41.58V34.4598V33.1729L43.6276 33.206C45.8388 33.2417 45.7626 33.2619 45.6088 32.6788L45.5455 32.4387L43.1165 32.4483C41.7805 32.4536 40.5361 32.5024 40.351 32.5568ZM51.8175 34.466V36.4934H52.8692L53.9207 36.4935L53.8487 35.6132C53.8091 35.129 53.7729 34.2167 53.7684 33.5858L53.76 32.4387H52.7887L51.8175 32.4386V34.466ZM54.6525 34.4708V36.4934H55.6522L56.652 36.4935L56.6497 34.8663L56.6475 33.239L58.0912 33.2093L59.535 33.1797L59.5509 34.2764C59.5685 35.4978 59.5536 35.9001 59.4777 36.2534C59.4268 36.4898 59.4423 36.4935 60.4627 36.4935H61.4994L61.4566 34.9196C61.401 32.8728 61.4061 32.8922 60.8559 32.6448C60.4412 32.4584 60.138 32.4402 57.5261 32.444L54.6525 32.4483V34.4708ZM62.834 32.5537C62.2235 32.7332 62.1115 32.9782 62.0714 34.2203C62.0232 35.7147 62.0888 36.0257 62.5069 36.2848C62.8089 36.4719 63.0456 36.4928 64.8704 36.4931L66.8983 36.4935L66.8654 36.8403L66.8325 37.1871H64.495C62.5915 37.1871 62.1674 37.2135 62.2112 37.3292C62.2408 37.4074 62.265 37.5902 62.265 37.7357V38L65.1312 37.967C67.6818 37.9377 68.0291 37.9129 68.2858 37.7418C68.4446 37.6359 68.6161 37.4379 68.6671 37.3016C68.7181 37.1653 68.775 36.0184 68.7937 34.7528L68.8275 32.4518L65.9925 32.4552C64.4332 32.457 63.0119 32.5014 62.834 32.5537ZM83.8661 32.5037C83.8242 32.5461 83.79 32.729 83.7899 32.91L83.7898 33.239L86.0999 33.2048C88.3768 33.1712 88.41 33.1739 88.41 33.3916C88.41 33.5268 88.3387 33.6166 88.2262 33.6231C88.1252 33.6289 87.2368 33.6506 86.252 33.671C85.2673 33.6915 84.3318 33.7585 84.1732 33.8198C83.5264 34.0697 83.3842 35.5925 83.9533 36.1734L84.2146 36.4402L87.2835 36.4658L90.3525 36.4914L90.3183 34.9308C90.2995 34.0726 90.2425 33.2593 90.1917 33.1235C90.1409 32.9877 89.9696 32.7902 89.8108 32.6843C89.5547 32.5136 89.2097 32.4883 86.7323 32.4592C85.1977 32.441 83.9079 32.4611 83.8661 32.5037ZM90.9825 34.4719V36.4935L91.98 36.4936L92.9775 36.4937V34.9197V33.3457H94.1389C95.0831 33.3457 95.3332 33.3124 95.4766 33.1676C95.6417 33.0009 95.6326 32.9721 95.336 32.7185C95.0205 32.4486 95.0099 32.4473 93.0008 32.4488L90.9825 32.4503V34.4719ZM103.565 32.5128C103.44 32.5376 103.215 32.6729 103.066 32.8133C102.801 33.0627 102.795 33.1015 102.795 34.455C102.795 35.7664 102.809 35.8576 103.048 36.1408L103.302 36.4402L106.356 36.4714C108.799 36.4965 109.41 36.4752 109.411 36.3647C109.412 36.2889 109.441 36.1196 109.476 35.9887L109.538 35.7505L107.086 35.7219L104.632 35.6932V35.3198V34.9463L107.074 34.9177L109.515 34.889V34.0517C109.515 33.0704 109.328 32.7281 108.697 32.5497C108.328 32.4457 104.058 32.4151 103.565 32.5128ZM116.118 32.6098C115.664 32.8016 115.5 33.1235 115.5 33.8249C115.5 34.2233 115.56 34.4186 115.753 34.6469L116.006 34.9463L117.958 34.9796C119.736 35.0099 119.919 35.0305 120.014 35.2119C120.072 35.3215 120.09 35.4882 120.054 35.5828C119.997 35.7346 119.728 35.751 117.737 35.7239L115.484 35.6932L115.545 36C115.578 36.1687 115.605 36.3488 115.605 36.4002C115.605 36.5404 120.966 36.5175 121.367 36.3756C121.804 36.2208 121.905 36.0018 121.905 35.213C121.905 33.9662 121.772 33.8947 119.332 33.8259L117.442 33.7725L117.409 33.4714L117.375 33.1703L119.648 33.2046L121.921 33.239L121.86 32.9322C121.827 32.7635 121.8 32.5834 121.8 32.5321C121.8 32.4807 120.607 32.4411 119.149 32.4442C117.039 32.4486 116.42 32.4824 116.118 32.6098ZM14.9625 34.4661V35.6932L13.4662 35.7228L11.97 35.7524V34.4661V33.1798L13.4662 33.2094L14.9625 33.239V34.4661ZM37.17 33.6658V34.146H35.7H34.23V33.6658V33.1856H35.7H37.17V33.6658ZM66.885 34.4661V35.7466H65.415H63.945V34.4661V33.1856H65.415H66.885V34.4661ZM107.625 33.6658V34.146H106.102H104.58V33.737C104.58 33.5119 104.611 33.2959 104.65 33.2568C104.688 33.2176 105.374 33.1856 106.173 33.1856H107.625V33.6658ZM88.41 35.053V35.7466H86.94H85.47V35.1242C85.47 34.7817 85.5015 34.4696 85.54 34.4306C85.5785 34.3914 86.24 34.3594 87.01 34.3594H88.41V35.053Z" fill="white"/>
<path fill-rule="evenodd" clip-rule="evenodd" d="M158.957 3.03797C158.87 3.05073 158.585 3.0925 158.325 3.1308C156.166 3.44765 154.434 4.82919 153.65 6.85854C153.304 7.75412 153.137 8.56432 153.044 9.80671L153 10.3913H157.673L157.715 9.65846C157.803 8.12785 158.127 7.31492 158.791 6.96053C159.002 6.84767 159.153 6.82188 159.588 6.82403C160.38 6.82782 160.753 7.0521 161.055 7.70628C161.187 7.99356 161.2 8.11116 161.2 9.03259C161.2 9.90131 161.179 10.1148 161.054 10.5484C160.734 11.6529 160.717 11.675 158.455 13.9617C156.314 16.1253 155.832 16.673 155.098 17.776C153.843 19.6645 153.202 21.5481 153.047 23.8041L153.004 24.4203H166.35V20.5664L158.653 20.5339L158.749 20.2521C159.009 19.483 159.729 18.6475 161.764 16.7542C162.631 15.9483 163.553 15.0328 163.814 14.72C165.184 13.0758 165.81 11.6023 165.97 9.64671C166.153 7.40864 165.475 5.5448 164.058 4.3852C163.562 3.97981 162.429 3.4213 161.769 3.25662C160.893 3.03854 159.625 2.93989 158.957 3.03797ZM172.828 3.06659C170.135 3.39375 168.579 4.66432 167.976 7.02827C167.835 7.57907 167.835 7.58008 167.835 13.7405V19.9019L168.006 20.5215C168.532 22.4245 169.649 23.5688 171.532 24.132C172.148 24.3162 173.056 24.4195 174.06 24.4195C176.332 24.4195 177.871 23.9111 178.97 22.7977C179.343 22.4202 179.491 22.2079 179.744 21.6853C180.39 20.3496 180.39 20.3521 180.362 13.3614C180.337 7.07017 180.35 7.31852 180.006 6.32948C179.406 4.60043 178.023 3.53454 175.892 3.15917C175.168 3.03158 173.525 2.98198 172.828 3.06659ZM196.028 3.06931C193.73 3.36436 192.016 4.641 191.315 6.57928C191.026 7.37635 190.926 7.91065 190.886 8.85881L190.851 9.69613H195.293V9.08517C195.293 8.7491 195.323 8.30081 195.36 8.08892C195.497 7.30152 195.975 6.74561 196.642 6.59615C197.92 6.31014 198.732 7.3529 198.618 9.13604C198.562 10.0164 198.389 10.5245 198.017 10.8957C197.562 11.3509 196.877 11.5226 195.498 11.5268L194.851 11.5287V14.7976L195.941 14.8333C197.115 14.8717 197.51 14.9474 197.984 15.2256C198.291 15.4055 198.599 15.8219 198.707 16.2029C198.925 16.9753 198.895 18.7569 198.651 19.5427C198.405 20.3316 197.959 20.6565 197.119 20.6578C196.695 20.6585 196.603 20.6365 196.329 20.4676C195.98 20.2518 195.67 19.7957 195.518 19.2731C195.4 18.8698 195.294 17.9617 195.293 17.3584L195.293 16.9002H190.869L190.871 17.7375C190.874 19.9608 191.385 21.5429 192.471 22.6932C193.21 23.4755 194.042 23.9494 195.183 24.2385C195.996 24.4443 197.791 24.4767 198.806 24.3038C200.223 24.0623 201.187 23.6009 201.997 22.7753C203.029 21.7235 203.507 20.2555 203.508 18.1308C203.508 16.6197 203.356 15.7518 202.944 14.9096C202.543 14.0908 201.916 13.525 200.804 12.9776L200.216 12.6885L200.658 12.5149C201.863 12.0424 202.544 11.2813 202.891 10.0212C203.075 9.35317 203.091 7.47834 202.918 6.85241C202.761 6.28429 202.369 5.50012 202.027 5.06895C200.817 3.54554 198.454 2.75777 196.028 3.06931ZM206.072 3.26616C206.059 3.30964 205.973 4.88076 205.881 6.75762C205.601 12.4583 205.538 13.6895 205.503 14.1679L205.469 14.6269L209.71 14.5936L209.821 14.2659C210.074 13.517 210.476 13.181 211.184 13.1248C212.173 13.0463 212.643 13.4871 212.908 14.7412C213.059 15.4554 213.056 18.3386 212.903 19.1703C212.67 20.4403 212.279 20.8831 211.394 20.88C210.292 20.8762 209.88 20.2065 209.731 18.1799L209.688 17.5953H207.486C206.276 17.5953 205.272 17.6167 205.257 17.6427C205.241 17.6688 205.254 18.0986 205.285 18.5978C205.474 21.6431 206.518 23.3209 208.671 24.0391C209.603 24.3497 210.354 24.4364 211.818 24.4018C212.915 24.3759 213.164 24.3503 213.706 24.2083C216.517 23.4703 217.727 21.2116 217.727 16.7005C217.727 13.6789 217.16 11.7899 215.905 10.6318C215.125 9.91206 214.235 9.60639 212.924 9.60841C211.518 9.61056 210.703 9.91395 209.806 10.7687L209.31 11.241L209.348 10.9583C209.388 10.66 209.701 7.00091 209.701 6.82738C209.701 6.73556 210.042 6.72602 213.335 6.72602H216.968V3.18717H211.532C207.237 3.18717 206.09 3.20379 206.072 3.26616ZM174.861 6.71559C175.177 6.87661 175.473 7.20857 175.586 7.5263C175.655 7.72378 175.671 8.87574 175.671 13.7405V19.7123L175.505 20.0667C175.225 20.6647 174.814 20.8823 173.971 20.88C173.145 20.8778 172.786 20.6469 172.562 19.9722C172.465 19.6805 172.452 19.1269 172.432 14.2777C172.407 8.60237 172.438 7.68593 172.664 7.24212C172.813 6.94947 173.118 6.67755 173.354 6.62567C173.447 6.60525 173.551 6.5772 173.586 6.56336C173.763 6.49271 174.626 6.59584 174.861 6.71559ZM183.855 23.9779H187.646V20.2495H183.855V23.9779Z" fill="white"/>
<path fill-rule="evenodd" clip-rule="evenodd" d="M165.796 29.7006L165.655 29.7989V32.3195C165.655 34.8141 165.656 34.8411 165.789 34.9337C166.05 35.117 166.287 34.9034 166.287 34.4839C166.287 34.2173 166.328 34.1595 167.503 32.7748L168.72 31.3417L168.737 33.0734C168.748 34.222 168.777 34.8336 168.824 34.8894C168.911 34.9943 169.206 34.9994 169.308 34.8978C169.364 34.8414 169.383 34.1791 169.383 32.3083V29.7947L169.226 29.6912C169.08 29.596 169.055 29.5959 168.913 29.689C168.789 29.7703 168.754 29.8527 168.739 30.1062C168.72 30.4154 168.695 30.452 167.519 31.8472L166.319 33.2724L166.287 31.5269C166.257 29.892 166.248 29.7757 166.133 29.6918C165.98 29.5799 165.967 29.5803 165.796 29.7006ZM196.002 29.7006L195.862 29.7989V32.3105C195.862 34.1796 195.881 34.8414 195.938 34.8978C195.979 34.9395 196.087 34.9737 196.178 34.9737C196.414 34.9737 196.494 34.8617 196.494 34.5297C196.494 34.2419 196.513 34.2143 197.71 32.7976L198.927 31.358L198.958 33.0868C198.976 34.0377 199.011 34.8478 199.036 34.887C199.114 35.0063 199.322 35.0281 199.46 34.9315C199.588 34.8418 199.59 34.7948 199.59 32.3195V29.7989L199.45 29.7006C199.269 29.5739 199.237 29.5764 199.085 29.7286C198.997 29.8165 198.958 29.9392 198.958 30.1318C198.958 30.3994 198.917 30.4573 197.742 31.8495L196.525 33.2904L196.51 31.5569C196.494 29.8791 196.49 29.8198 196.36 29.7128C196.197 29.5777 196.178 29.5771 196.002 29.7006ZM153.237 29.7693C153.177 29.83 153.147 29.9284 153.167 30.0062C153.185 30.0794 153.557 30.9476 153.994 31.9356L154.787 33.7318L154.644 33.9429C154.48 34.1854 154.076 34.4049 153.794 34.4049C153.566 34.4049 153.441 34.5309 153.47 34.7326C153.502 34.9594 153.759 35.0486 154.16 34.9724C154.872 34.8375 155.191 34.4596 155.786 33.0462C156.311 31.7973 156.881 30.1206 156.858 29.8892C156.841 29.7102 156.822 29.697 156.587 29.697H156.334L156.065 30.4869C155.648 31.7104 155.149 32.9618 155.101 32.9065C155.077 32.8791 154.768 32.172 154.414 31.3353C154.061 30.4985 153.738 29.7805 153.697 29.7396C153.591 29.6332 153.359 29.6481 153.237 29.7693ZM159.216 29.7517C159.165 29.8136 159.149 30.5486 159.161 32.3508C159.177 34.7878 159.182 34.866 159.305 34.9478C159.407 35.0157 159.462 35.0169 159.589 34.9537C159.746 34.8756 159.747 34.871 159.778 33.7712L159.81 32.6671H162.148L162.164 33.7414C162.179 34.7357 162.19 34.8236 162.309 34.9231C162.448 35.0389 162.606 35.0146 162.732 34.8579C162.835 34.7311 162.847 29.977 162.746 29.7876C162.67 29.6452 162.358 29.6208 162.252 29.749C162.209 29.8007 162.176 30.2524 162.165 30.9339L162.148 32.0351L159.778 32.0695V30.9433C159.778 30.1516 159.756 29.7945 159.702 29.7412C159.6 29.6387 159.305 29.6451 159.216 29.7517ZM173.147 29.7149C172.724 29.7249 172.357 29.7629 172.31 29.8016C172.244 29.8562 172.227 30.3754 172.227 32.3195C172.227 34.5259 172.238 34.7772 172.332 34.8554C172.478 34.9753 174.487 34.9717 174.85 34.8508C175.211 34.7304 175.436 34.5551 175.57 34.289C175.932 33.5687 175.707 32.6423 175.099 32.3539L174.868 32.2441L175.062 32.1263C175.341 31.9564 175.513 31.5791 175.513 31.1367C175.513 30.6572 175.429 30.3801 175.214 30.1542C174.85 29.771 174.441 29.6841 173.147 29.7149ZM178.582 29.762C178.454 29.8258 178.451 29.8733 178.435 32.2898C178.417 34.7374 178.418 34.7532 178.552 34.8631C178.671 34.9601 178.839 34.9735 179.928 34.9727C181.259 34.9717 181.468 34.9314 181.506 34.6684C181.549 34.3639 181.462 34.3417 180.214 34.3417H179.052V32.6355H180.004C180.54 32.6355 181.01 32.6069 181.079 32.5701C181.157 32.5282 181.201 32.4379 181.201 32.3195C181.201 32.2012 181.157 32.1108 181.079 32.069C181.01 32.0322 180.539 32.0035 180.002 32.0035H179.048L179.084 30.3289L180.153 30.3115C180.811 30.3009 181.255 30.2675 181.307 30.2248C181.416 30.1338 181.414 29.8898 181.302 29.7971C181.186 29.7008 178.768 29.6696 178.582 29.762ZM184.444 29.7166C184.368 29.7274 184.276 29.7733 184.238 29.8187C184.191 29.8757 184.174 30.6712 184.186 32.3882L184.202 34.8751L184.36 34.9536C184.487 35.0169 184.542 35.0158 184.644 34.9479C184.761 34.8705 184.773 34.7846 184.789 33.8843L184.806 32.9049L185.625 32.8754C186.375 32.8483 186.475 32.8301 186.805 32.6611C187.108 32.5063 187.196 32.4205 187.349 32.1294C187.52 31.8051 187.53 31.7443 187.507 31.1992C187.485 30.674 187.464 30.5892 187.293 30.3461C187.189 30.1976 186.977 30.005 186.822 29.9182C186.565 29.7737 186.457 29.7575 185.561 29.7286C185.022 29.7112 184.52 29.7058 184.444 29.7166ZM190.929 29.8392C190.515 30.0488 190.219 30.4188 190.064 30.9176C189.903 31.4385 189.911 33.3466 190.076 33.8046C190.377 34.639 190.869 34.9836 191.759 34.9836C192.206 34.9836 192.329 34.9584 192.631 34.8037C193.028 34.6005 193.218 34.3469 193.106 34.1685C192.998 33.9951 192.797 34.0027 192.513 34.1908C192.209 34.3922 191.701 34.4598 191.354 34.3451C191.024 34.2362 190.767 33.9098 190.68 33.4877C190.635 33.2725 190.614 32.7386 190.627 32.139C190.646 31.2253 190.661 31.1216 190.808 30.8325C190.998 30.4585 191.37 30.2341 191.801 30.2341C192.092 30.2341 192.469 30.3647 192.65 30.5284C192.81 30.6736 193.068 30.5917 193.122 30.3788C193.157 30.2368 193.127 30.1776 192.935 30.0111C192.639 29.7558 192.327 29.6654 191.742 29.6654C191.354 29.6654 191.211 29.6958 190.929 29.8392ZM208.45 29.7176C208.364 29.7298 208.279 29.8031 208.244 29.8955C208.211 29.984 208.184 31.0678 208.184 32.3747C208.184 34.2789 208.201 34.7188 208.274 34.8194C208.356 34.9322 208.462 34.9436 209.585 34.9619C210.257 34.9728 210.901 34.9642 211.015 34.9427C211.27 34.895 211.394 34.6799 211.285 34.4761C211.216 34.3465 211.172 34.3417 210.046 34.3417H208.88V32.6355H209.855C210.887 32.6355 211.028 32.5976 211.028 32.3195C211.028 32.0415 210.887 32.0035 209.855 32.0035H208.88V30.2973H209.973C211.124 30.2973 211.218 30.2755 211.218 30.008C211.218 29.7494 211.1 29.7244 209.818 29.7104C209.146 29.703 208.53 29.7063 208.45 29.7176ZM202.004 29.8044C201.962 29.8461 201.928 29.94 201.928 30.0129C201.928 30.2611 202.043 30.2973 202.826 30.2973H203.571V32.5286C203.571 34.2192 203.59 34.7837 203.65 34.8579C203.795 35.0371 203.948 35.0448 204.112 34.8811L204.266 34.7266V30.2973H205.012C205.508 30.2973 205.783 30.2719 205.834 30.2215C205.931 30.124 205.931 29.9019 205.834 29.8044C205.725 29.6962 202.112 29.6962 202.004 29.8044ZM213.379 29.8044C213.278 29.9049 213.282 30.1382 213.386 30.2243C213.433 30.2629 213.8 30.301 214.223 30.311L214.978 30.3289L214.993 32.5723C215.008 34.7486 215.013 34.8189 215.139 34.9231C215.21 34.9822 215.317 35.0137 215.376 34.9932C215.635 34.9034 215.641 34.8456 215.641 32.5286V30.2973H216.387C216.883 30.2973 217.158 30.2719 217.209 30.2215C217.306 30.124 217.306 29.9019 217.209 29.8044C217.1 29.6962 213.487 29.6962 213.379 29.8044ZM174.317 30.3608C174.442 30.3953 174.612 30.4969 174.696 30.5867C174.826 30.7249 174.85 30.8128 174.85 31.161C174.85 31.5312 174.832 31.587 174.676 31.7217C174.432 31.9314 174.12 32.0028 173.444 32.0032L172.859 32.0035V31.1926C172.859 30.7465 172.878 30.3626 172.901 30.3395C172.967 30.274 174.065 30.2906 174.317 30.3608ZM186.412 30.4281C187.034 30.7284 187.056 31.8409 186.446 32.1456C186.275 32.2312 186.064 32.2561 185.514 32.2562L184.803 32.2563V31.319C184.803 30.8034 184.824 30.3596 184.85 30.3327C184.929 30.2512 186.207 30.3292 186.412 30.4281ZM174.672 32.7178C174.97 32.8754 175.071 33.0585 175.071 33.4426C175.071 34.1684 174.79 34.3417 173.616 34.3417H172.859V32.5574L173.665 32.5843C174.258 32.6041 174.524 32.6394 174.672 32.7178Z" fill="white"/>
</svg>
