<svg width="120" height="22" viewBox="0 0 120 22" fill="none" xmlns="http://www.w3.org/2000/svg">
<path d="M39.1181 7.716C38.5104 7.39299 37.9995 6.91122 37.6389 6.32094C37.2831 5.70748 37.1014 5.00705 37.1132 4.29625C37.0982 3.58505 37.2802 2.88376 37.6389 2.27156C37.9927 1.67562 38.5053 1.1922 39.1181 0.876501C39.7832 0.543584 40.5154 0.370364 41.2575 0.370364C41.9999 0.370364 42.732 0.543584 43.3969 0.876501C44.0054 1.19408 44.5136 1.67734 44.864 2.27156C45.2264 2.88275 45.4127 3.58396 45.4019 4.29625C45.4094 5.00815 45.2235 5.70848 44.864 6.32094C44.5081 6.91074 44.0014 7.39269 43.3969 7.716C42.7304 8.04351 41.9989 8.21369 41.2575 8.21369C40.5163 8.21369 39.7848 8.04351 39.1181 7.716ZM42.639 5.82711C42.8249 5.62084 42.9682 5.37921 43.0606 5.11636C43.1529 4.85352 43.1925 4.57472 43.1769 4.29625C43.1928 4.01588 43.1534 3.73513 43.0611 3.47023C42.9687 3.20534 42.8253 2.96157 42.639 2.75304C42.2693 2.38955 41.7736 2.18615 41.2575 2.18615C40.7415 2.18615 40.2459 2.38955 39.8761 2.75304C39.6883 2.96097 39.543 3.20435 39.4486 3.46919C39.3541 3.73403 39.3125 4.0151 39.326 4.29625C39.312 4.57556 39.3536 4.85487 39.4481 5.11777C39.5425 5.38066 39.6881 5.62183 39.8761 5.82711C40.2459 6.19061 40.7415 6.394 41.2575 6.394C41.7736 6.394 42.2693 6.19061 42.639 5.82711Z" fill="white"/>
<path d="M52.7494 2.29622H50.2067V8.09869H48.0305V2.29622H45.4755V0.481414H52.8106L52.7494 2.29622Z" fill="white"/>
<path d="M57.1019 5.2098H55.9649V8.09869H53.7889V0.481414H55.9772V3.44437H57.1997L59.2535 0.481414H61.5763L58.9357 4.18511L61.7597 8.14807H59.1802L57.1019 5.2098Z" fill="white"/>
<path d="M68.9967 0.851795C69.5664 1.1778 70.0359 1.65626 70.3537 2.23451C70.6881 2.86837 70.8565 3.57812 70.8427 4.29623C70.8549 5.01025 70.6867 5.71562 70.3537 6.34562C70.0359 6.92386 69.5664 7.40233 68.9967 7.72833C68.4086 8.05323 67.7475 8.21908 67.0773 8.20981C66.6535 8.23359 66.2296 8.16423 65.8349 8.0065C65.4403 7.84877 65.0841 7.60644 64.7912 7.29623V10.8518H62.6029V0.481425H64.6934V1.35797C64.9865 1.02296 65.3513 0.759864 65.7601 0.588715C66.169 0.417566 66.6111 0.342869 67.0529 0.370314C67.7312 0.356742 68.4014 0.522736 68.9967 0.851795ZM68.0798 5.79006C68.2678 5.58478 68.4134 5.3436 68.5079 5.08072C68.6023 4.81783 68.6438 4.53852 68.6299 4.2592C68.6435 3.97805 68.6018 3.69698 68.5074 3.43214C68.4129 3.1673 68.2677 2.92391 68.0798 2.71599C67.9028 2.52762 67.6878 2.37953 67.4497 2.28161C67.2114 2.18367 66.9553 2.13816 66.6983 2.14809C66.4416 2.1405 66.1861 2.18709 65.9483 2.28487C65.7104 2.38266 65.4954 2.5295 65.3169 2.71599C65.1306 2.93148 64.9882 3.182 64.8979 3.45317C64.8079 3.72436 64.7715 4.01085 64.7912 4.29623C64.7652 4.85795 64.9583 5.40758 65.3291 5.8271C65.5076 6.01359 65.7227 6.16043 65.9606 6.25822C66.1983 6.35601 66.4538 6.40259 66.7106 6.395C66.9656 6.40317 67.2194 6.35679 67.4553 6.25891C67.6913 6.16105 67.9041 6.01389 68.0798 5.8271V5.79006Z" fill="white"/>
<path d="M78.422 3.58017C78.6821 3.81355 78.8857 4.1041 79.0171 4.42943C79.1485 4.75476 79.2043 5.10622 79.1801 5.45671C79.2012 5.82894 79.1347 6.20091 78.9859 6.54213C78.8372 6.88337 78.6104 7.18411 78.3243 7.41967C77.6167 7.93677 76.7497 8.18192 75.8793 8.11103H72.2117V0.481414H74.3878V2.95054H76.1849C76.9805 2.89073 77.7717 3.11343 78.422 3.58017ZM76.6739 6.27153C76.789 6.16391 76.8784 6.03137 76.9357 5.88384C76.9929 5.73631 77.0162 5.57763 77.004 5.41968C77.0176 5.27007 76.9958 5.11934 76.9406 4.97986C76.8853 4.84037 76.7981 4.71608 76.686 4.61721C76.396 4.42601 76.0541 4.33106 75.708 4.3456H74.4V6.54313H75.708C76.052 6.57437 76.3954 6.4778 76.6739 6.27153ZM79.9992 0.481414H82.1752V8.09869H79.9992V0.481414Z" fill="white"/>
<path d="M90.4643 2.29622H87.9092V8.09869H85.7332V2.29622H83.1781V0.481414H90.5132L90.4643 2.29622Z" fill="white"/>
<path d="M97.6888 3.58017C97.9489 3.81356 98.1525 4.1041 98.2839 4.42943C98.4153 4.75476 98.4711 5.10622 98.4467 5.45671C98.4679 5.82894 98.4014 6.20091 98.2527 6.54213C98.104 6.88337 97.8772 7.18411 97.591 7.41967C96.8812 7.9319 96.016 8.17654 95.146 8.11103H91.4784V0.481414H93.6545V2.95054H95.4516C96.2472 2.89073 97.0385 3.11343 97.6888 3.58017ZM95.9406 6.27153C96.0558 6.16391 96.1452 6.03137 96.2025 5.88384C96.2596 5.73631 96.2829 5.57763 96.2707 5.41968C96.2818 5.26916 96.2577 5.11811 96.2004 4.97871C96.1431 4.83932 96.0541 4.71549 95.9406 4.61721C95.6561 4.42383 95.3174 4.32854 94.9748 4.3456H93.6667V6.54313H94.9748C95.3188 6.57437 95.6622 6.4778 95.9406 6.27153ZM99.2658 0.481414H101.466V8.09869H99.2658V0.481414Z" fill="white"/>
<path d="M110.696 4.93826H104.987C105.078 5.39142 105.336 5.79287 105.709 6.06171C106.132 6.34409 106.632 6.48648 107.139 6.46912C107.497 6.47309 107.852 6.41461 108.19 6.29628C108.508 6.16858 108.795 5.97511 109.034 5.72838L110.195 6.96295C109.801 7.38862 109.318 7.72027 108.78 7.93382C108.243 8.14736 107.666 8.23744 107.09 8.19751C106.308 8.21514 105.533 8.04593 104.828 7.70369C104.205 7.38873 103.681 6.90592 103.313 6.30863C102.957 5.69517 102.775 4.99474 102.787 4.28394C102.775 3.57312 102.957 2.87269 103.313 2.25925C103.658 1.67295 104.157 1.19445 104.755 0.87653C105.384 0.530274 106.092 0.355806 106.809 0.370358C107.502 0.363002 108.187 0.528375 108.802 0.851839C109.393 1.16547 109.881 1.64584 110.207 2.23456C110.56 2.87128 110.737 3.59168 110.721 4.32097C110.721 4.32097 110.721 4.54319 110.696 4.93826ZM105.574 2.46912C105.226 2.76079 105.003 3.1763 104.951 3.62962H108.618C108.56 3.18101 108.343 2.76888 108.007 2.46912C107.656 2.19879 107.226 2.05238 106.784 2.05238C106.343 2.05238 105.913 2.19879 105.562 2.46912H105.574Z" fill="white"/>
<path d="M37.6634 12.7655H39.8394V17.284L43.507 12.7531H45.5119V20.3704H43.3481V15.8519L39.6805 20.3827H37.6634V12.7655Z" fill="white"/>
<path d="M47.4807 12.7655H49.6568V15.7408H52.9331V12.7655H55.1214V20.3828H52.9331V17.5309H49.6568V20.3828H47.4807V12.7655Z" fill="white"/>
<path d="M57.0774 12.7655H59.2413V15.7408H62.5299V12.7655H64.7182V20.3828H62.5299V17.5309H59.2413V20.3828H57.0774V12.7655Z" fill="white"/>
<path d="M68.0554 19.9877C67.4451 19.6683 66.9334 19.1857 66.5761 18.5926C66.2313 17.9747 66.05 17.2773 66.05 16.5679C66.05 15.8586 66.2313 15.1613 66.5761 14.5432C66.9334 13.9503 67.4451 13.4677 68.0554 13.1482C68.7181 12.8102 69.4525 12.6407 70.1948 12.6544C70.9333 12.6392 71.6641 12.8088 72.322 13.1482C72.9348 13.4639 73.4474 13.9473 73.8012 14.5432C74.1461 15.1613 74.3274 15.8586 74.3274 16.5679C74.3274 17.2773 74.1461 17.9747 73.8012 18.5926C73.4474 19.1885 72.9348 19.672 72.322 19.9877C71.6652 20.3314 70.9344 20.5053 70.1948 20.4939C69.4515 20.5039 68.717 20.33 68.0554 19.9877ZM71.5762 18.1111C71.9477 17.6872 72.1408 17.1335 72.1141 16.5679C72.1402 16.0062 71.947 15.4566 71.5762 15.0371C71.3955 14.8528 71.1804 14.7063 70.9432 14.6065C70.706 14.5066 70.4518 14.4551 70.1948 14.4551C69.9378 14.4551 69.6835 14.5066 69.4464 14.6065C69.2092 14.7063 68.994 14.8528 68.8133 15.0371C68.6253 15.2424 68.4797 15.4836 68.3852 15.7465C68.2907 16.0093 68.2493 16.2887 68.2632 16.5679C68.2496 16.8492 68.2913 17.1302 68.3857 17.395C68.4802 17.6599 68.6254 17.9032 68.8133 18.1111C69.1832 18.4747 69.6788 18.6781 70.1948 18.6781C70.7108 18.6781 71.2064 18.4747 71.5762 18.1111Z" fill="white"/>
<path d="M82.7866 18.21C82.8001 18.521 82.7367 18.8306 82.6024 19.1107C82.4679 19.391 82.2666 19.633 82.0164 19.8149C81.3279 20.2423 80.5241 20.441 79.7181 20.3828H75.6961V12.7655H79.547C80.3184 12.7222 81.086 12.9021 81.7597 13.2841C82.0098 13.4299 82.2167 13.6409 82.3586 13.8949C82.5005 14.149 82.5723 14.4369 82.5666 14.7285C82.5746 15.0846 82.4721 15.4343 82.2732 15.7285C82.0672 16.0267 81.7838 16.2616 81.4541 16.4075C81.8502 16.5025 82.2007 16.7349 82.4443 17.0644C82.6878 17.3939 82.809 17.7994 82.7866 18.21ZM77.701 15.889H79.3514C80.1216 15.889 80.5005 15.6174 80.5005 15.0742C80.5005 14.531 80.1216 14.2594 79.3514 14.2594H77.701V15.889ZM80.745 18.0495C80.7532 17.9257 80.732 17.8017 80.6831 17.6879C80.6342 17.5741 80.559 17.4737 80.4639 17.3952C80.1918 17.2426 79.8816 17.1738 79.5714 17.1976H77.701V18.8767H79.5348C80.3416 18.8767 80.745 18.605 80.745 18.0495Z" fill="white"/>
<path d="M89.9017 13.4938C90.2318 13.8255 90.4861 14.2261 90.6466 14.6676C90.8071 15.1091 90.8699 15.5807 90.8308 16.0493V20.395H88.7892V19.4444C88.5382 19.816 88.1914 20.1113 87.7864 20.2984C87.3814 20.4855 86.9333 20.5573 86.4909 20.5061C85.9741 20.5204 85.4607 20.4192 84.9872 20.2098C84.5867 20.0389 84.246 19.7509 84.0092 19.3826C83.768 19.0183 83.6482 18.5858 83.6669 18.1481C83.6556 17.8261 83.722 17.5061 83.8605 17.2157C83.9989 16.9254 84.2052 16.6734 84.4615 16.4814C85.1899 16.0165 86.047 15.8 86.9065 15.8641H88.6425C88.6568 15.6586 88.626 15.4523 88.5519 15.26C88.478 15.0679 88.3628 14.8949 88.2146 14.753C87.8396 14.4683 87.3742 14.3321 86.9065 14.3703C86.4919 14.3666 86.0793 14.4292 85.684 14.5555C85.3304 14.6779 84.9966 14.8526 84.6938 15.074L83.9481 13.5802C84.3984 13.2689 84.8989 13.0392 85.4273 12.9012C86.0051 12.7429 86.6013 12.664 87.2 12.6666C88.1709 12.5944 89.1338 12.8892 89.9017 13.4938ZM88.019 18.7407C88.3066 18.5672 88.5233 18.2957 88.6303 17.9752V17.1975H87.1388C86.2342 17.1975 85.7941 17.4937 85.7941 18.0863C85.7894 18.2165 85.8172 18.3457 85.8749 18.4623C85.9324 18.5787 86.0182 18.6787 86.1241 18.753C86.3877 18.9408 86.7068 19.0323 87.0288 19.0123C87.3778 19.0194 87.7215 18.9252 88.019 18.7407Z" fill="white"/>
<path d="M101.1 18.5185V22H99.0217V20.3827H92.5546V12.7654H94.7307V18.5185H97.7992V12.7161H99.9752V18.5185H101.1Z" fill="white"/>
<path d="M102.335 12.7655H104.511V17.284L108.178 12.7531H110.183V20.3704H108.007V15.8519L104.339 20.3827H102.322L102.335 12.7655Z" fill="white"/>
<path d="M112.151 12.7655H114.328V17.284L117.995 12.7531H120V20.3704H117.824V15.8519L114.156 20.3827H112.139L112.151 12.7655Z" fill="white"/>
<path d="M16.0006 8.82726C15.6461 7.97541 14.5947 7.53097 12.9688 7.53097C10.817 7.62594 8.70202 8.12848 6.73402 9.01245C4.84455 9.76971 3.09911 10.8515 1.57501 12.21C0.266924 13.4445 -0.258761 14.6791 0.120219 15.5433C0.499198 16.4075 1.51389 16.8396 3.15206 16.8396C5.30373 16.7434 7.41849 16.241 9.38686 15.3581C11.2727 14.601 13.0141 13.519 14.5336 12.1606C15.8906 10.9137 16.3796 9.71615 16.0006 8.82726ZM9.14236 14.8149C7.25277 15.6691 5.22034 16.155 3.15206 16.247C1.81952 16.247 0.927082 15.9137 0.70703 15.3334C0.486977 14.7532 0.91486 13.7285 2.02734 12.6791C3.49392 11.3731 5.17314 10.3331 6.99075 9.60504C8.32145 9.0364 9.71181 8.62223 11.1351 8.37047C10.9696 9.4345 11.0619 10.5232 11.404 11.5433C11.5989 12.1447 11.8788 12.7143 12.2353 13.2347C11.2542 13.8555 10.2189 14.3844 9.14236 14.8149Z" fill="white"/>
<path d="M15.8051 8.01234C16.1597 8.86419 17.1988 9.2469 18.837 9.2469C20.9887 9.15193 23.1038 8.64939 25.0718 7.76542C26.959 7.01118 28.7009 5.92898 30.2186 4.5679C31.5389 3.33333 32.0645 2.09876 31.6856 1.23457C31.3066 0.37037 30.2797 0 28.6537 0C26.5019 0.0949726 24.3869 0.597523 22.4189 1.48148C17.969 3.35802 15.0594 6.23456 15.8051 8.01234ZM22.6512 2.03703C24.5479 1.19305 26.5832 0.711657 28.6537 0.617283C29.9863 0.617283 30.8787 0.950616 31.0988 1.53086C31.3188 2.11111 30.8787 3.1358 29.7785 4.18518C28.3092 5.49383 26.6255 6.53407 24.8028 7.25925L24.3138 7.45678C24.295 7.36883 24.2705 7.28223 24.2405 7.19752C23.9397 6.28438 23.4508 5.44592 22.8061 4.73733C22.1612 4.02875 21.3751 3.46609 20.4996 3.08642C21.197 2.69674 21.9152 2.3464 22.6512 2.03703Z" fill="white"/>
<path d="M32.3579 10.0494C31.9178 8.97537 30.5241 8.39512 28.4336 8.39512C25.5867 8.52112 22.7881 9.18265 20.1817 10.3457C17.6851 11.3462 15.3806 12.7793 13.3723 14.5802C11.6485 16.2099 10.9272 17.7531 11.4529 18.9012C11.9786 20.0494 13.2867 20.5555 15.3772 20.5555C18.2241 20.4296 21.0227 19.768 23.6292 18.6049C26.1257 17.5969 28.4328 16.1647 30.4508 14.3704C32.1623 12.7407 32.8469 11.1976 32.3579 10.0494ZM30.0229 13.9259C28.0655 15.672 25.8238 17.063 23.3969 18.037C20.8645 19.1705 18.1445 19.8153 15.3772 19.9383C13.5557 19.9383 12.3576 19.4815 12.0153 18.7037C11.673 17.9259 12.2843 16.4815 13.788 15.0617L13.898 14.963C14.9008 15.6817 16.0782 16.1116 17.3043 16.2069C18.5303 16.3021 19.7589 16.059 20.8588 15.5037C21.9587 14.9483 22.8885 14.1015 23.5487 13.0538C24.2089 12.0062 24.5748 10.797 24.6072 9.55561C25.8592 9.239 27.143 9.06915 28.4336 9.04944C30.2674 9.04944 31.4533 9.49389 31.7956 10.284C32.1379 11.0741 31.5266 12.4938 30.0229 13.9259Z" fill="white"/>
<path d="M8.80006 7.40745C10.4027 7.33529 11.978 6.9627 13.4456 6.30868C14.8509 5.74244 16.1494 4.93646 17.2843 3.92597C18.2868 2.97535 18.678 2.06178 18.3846 1.37042C18.0911 0.67906 17.3087 0.358073 16.074 0.358073C14.4712 0.428796 12.8957 0.80145 11.4285 1.45684C10.0232 2.02308 8.72469 2.82906 7.58977 3.83955C6.58731 4.79017 6.19611 5.70375 6.48951 6.3951C6.78291 7.08646 7.56532 7.40745 8.80006 7.40745ZM8.00544 4.284C9.09304 3.32743 10.333 2.56357 11.673 2.02474C13.0664 1.40011 14.5632 1.0442 16.0862 0.975356C17.0276 0.975356 17.6633 1.20992 17.8344 1.60499C17.8762 1.75839 17.8826 1.91948 17.8529 2.07576C17.8233 2.23203 17.7584 2.37933 17.6633 2.50622C16.4355 2.52936 15.2377 2.89281 14.2007 3.55687C13.1637 4.22093 12.3272 5.16007 11.783 6.27165C10.8223 6.58655 9.82195 6.76115 8.8123 6.79016C7.87096 6.79016 7.22302 6.56794 7.06409 6.16054C6.90516 5.75313 7.22303 5.02473 8.00544 4.284Z" fill="white"/>
</svg>
