<svg width="64" height="21" viewBox="0 0 64 21" fill="none" xmlns="http://www.w3.org/2000/svg">
<path fill-rule="evenodd" clip-rule="evenodd" d="M6.58542 0.0933815C5.69352 0.160527 4.61467 0.392211 3.88446 0.673319C1.44697 1.6118 0.0933077 3.79808 0.308592 6.44866C0.455684 8.25984 1.19888 9.47982 2.66718 10.3205C3.33309 10.7017 3.87692 10.8706 6.60567 11.5437C8.05352 11.9008 9.46813 12.2606 9.74922 12.3432C10.7385 12.6339 11.4515 13.0787 11.6967 13.558C11.8551 13.8678 11.9146 14.3251 11.8485 14.7247C11.6872 15.6985 11.0078 16.3299 9.79161 16.636C8.96664 16.8437 7.82908 16.9139 6.98932 16.8088C5.14283 16.5779 4.06441 15.693 3.82133 14.2095L3.74623 13.7512H1.87311H0L0.0284741 14.2974C0.0755417 15.2006 0.372063 16.165 0.854371 16.9836C1.16165 17.5051 1.99777 18.3736 2.52179 18.7155C3.56813 19.3983 4.84567 19.8209 6.46374 20.0194C7.10793 20.0984 8.87489 20.1008 9.45718 20.0234C10.8664 19.836 12.116 19.4211 13.1077 18.8113L13.4241 18.6169L13.4379 19.1213L13.4517 19.6258H15.2997H17.1476L17.1497 17.3804L17.1518 15.1349L17.9287 14.3338C18.6511 13.5888 18.7097 13.5395 18.7659 13.6298C18.7991 13.6832 19.5621 15.0487 20.4615 16.6642L22.0967 19.6016L24.2948 19.6142C25.5039 19.6211 26.493 19.6158 26.493 19.6024C26.493 19.589 25.3526 17.6431 23.9589 15.2781C22.5651 12.9131 21.4316 10.9582 21.44 10.9339C21.4484 10.9095 22.4847 9.76059 23.7429 8.38068C25.0012 7.00073 26.1035 5.7875 26.1926 5.68467L26.3546 5.4976L24.0996 5.50017L21.8447 5.50275L19.5083 8.1822L17.172 10.8617L17.1596 5.70355L17.1472 0.545436H15.2978H13.4484V1.34652C13.4484 1.78712 13.431 2.14761 13.4096 2.14761C13.3883 2.14761 13.2843 2.0574 13.1784 1.94714C12.4429 1.18087 11.0694 0.509849 9.72128 0.258163C8.77613 0.0816814 7.57744 0.0187106 6.58542 0.0933815ZM8.41069 3.38448C8.99628 3.47969 9.31777 3.57888 9.71899 3.78804C10.5343 4.2131 11.0661 4.97524 11.2002 5.91086L11.2349 6.15303L12.3417 6.16609L13.4484 6.17915V7.9746C13.4484 8.96207 13.4403 9.77005 13.4304 9.77005C13.4204 9.77005 13.1834 9.66101 12.9038 9.52779C12.1991 9.19201 11.4649 8.96159 9.82223 8.56066C9.04588 8.37117 7.73261 8.05049 6.90384 7.84803C5.33592 7.46506 4.91902 7.31854 4.55806 7.0235C4.17874 6.71345 3.9582 6.19707 3.9582 5.61898C3.9582 4.46114 4.80561 3.66447 6.3294 3.38968C6.83283 3.29889 7.86851 3.29627 8.41069 3.38448ZM29.5351 13.4113C28.644 13.5123 27.8998 14.0108 27.5202 14.7608C26.9622 15.8633 27.0149 17.5725 27.6365 18.5334C28.1072 19.2612 28.7523 19.6122 29.7055 19.6593C31.0829 19.7274 32.0279 19.0564 32.402 17.7445L32.4746 17.4896H31.8445C31.2773 17.4896 31.2143 17.4981 31.2133 17.5746C31.2114 17.7215 31.0205 18.0899 30.8587 18.2585C30.3896 18.7476 29.5111 18.7854 28.9883 18.339C28.4661 17.8932 28.2199 16.8161 28.4195 15.8518C28.5562 15.1919 28.8389 14.7712 29.2955 14.5483C29.5356 14.4312 29.6005 14.421 29.9892 14.4395C30.6378 14.4705 30.9538 14.6875 31.167 15.2483L31.2531 15.4748L31.8605 15.4883L32.4679 15.5018L32.4246 15.2709C32.3123 14.671 31.8169 14.0006 31.2733 13.7125C30.7947 13.4588 30.1307 13.3438 29.5351 13.4113ZM38.6371 15.0161C37.7729 15.1279 37.1111 15.6665 36.8535 16.4678C36.7108 16.9117 36.7114 17.7221 36.8547 18.1723C37.1482 19.0943 37.9337 19.6238 39.01 19.6252C39.7077 19.6262 40.2405 19.4113 40.6664 18.9571C41.0734 18.5231 41.2412 18.0452 41.2412 17.3197C41.2412 16.4148 40.9268 15.7508 40.3105 15.3534C39.8648 15.0661 39.234 14.9389 38.6371 15.0161ZM52.0706 15.016C51.1435 15.1353 50.4873 15.72 50.2482 16.64C50.1695 16.9426 50.1853 17.7721 50.2756 18.0755C50.509 18.86 51.0098 19.3545 51.7791 19.5598C52.0941 19.6438 52.781 19.643 53.1005 19.5581C53.8592 19.3566 54.373 18.8412 54.6034 18.0506C54.721 17.6471 54.6846 16.7026 54.5368 16.3244C54.1743 15.3966 53.1863 14.8725 52.0706 15.016ZM61.0082 15.018C60.5977 15.0703 60.045 15.3351 59.7667 15.6127C59.3571 16.0212 59.1531 16.5888 59.1531 17.3197C59.1531 18.0538 59.3224 18.5283 59.7421 18.971C60.2038 19.4579 60.7396 19.6503 61.5344 19.6143C62.2874 19.5803 62.8163 19.3282 63.2011 18.8197C63.7302 18.1208 63.8086 16.9044 63.3787 16.0641C62.9936 15.3109 62.0335 14.8873 61.0082 15.018ZM32.8693 17.3197V19.5287H33.429H33.9888V18.8352V18.1417L34.2623 17.8764C34.4128 17.7304 34.5449 17.6328 34.5559 17.6595C34.5669 17.6862 34.8008 18.1123 35.0756 18.6063L35.5753 19.5045L36.267 19.518L36.9586 19.5314L36.8179 19.2995C36.7406 19.1719 36.3776 18.5587 36.0114 17.9368L35.3455 16.8062L35.9935 16.0989C36.3499 15.7099 36.6924 15.3284 36.7545 15.2511L36.8676 15.1106H36.1846H35.5016L34.7834 15.936C34.3883 16.3899 34.048 16.7613 34.027 16.7613C34.006 16.7613 33.9888 16.3899 33.9888 15.936V15.1106H33.429H32.8693V17.3197ZM42.1173 16.3378C42.1173 17.9895 42.0365 18.5822 41.7987 18.6732C41.7554 18.6898 41.6122 18.7034 41.4806 18.7034H41.2412V19.1132C41.2412 19.3428 41.2633 19.5366 41.2915 19.554C41.3191 19.5711 41.5044 19.5973 41.7032 19.6123C42.565 19.6773 42.9922 19.2995 43.168 18.3166C43.208 18.0926 43.2341 17.5692 43.2351 16.9663L43.2368 15.9817L43.8817 15.9953L44.5267 16.0088L44.5394 17.7688L44.5522 19.5287H45.1113H45.6705V17.3197V15.1106H43.8939H42.1173V16.3378ZM46.3032 17.3197V19.5287H46.863H47.4227V18.8352V18.1417L47.6963 17.8764C47.8467 17.7304 47.9791 17.6328 47.9903 17.6595C48.0016 17.6862 48.2379 18.1123 48.5154 18.6063L49.02 19.5045L49.7108 19.518L50.4015 19.5314L50.3033 19.3723C50.2493 19.2848 49.8853 18.6706 49.4943 18.0076L48.7834 16.802L49.4781 16.0413C49.8602 15.6229 50.2029 15.2423 50.2396 15.1956C50.3025 15.1155 50.2669 15.1106 49.6233 15.1106H48.9402L48.223 15.936C47.8286 16.3899 47.4871 16.7613 47.4643 16.7613C47.4414 16.7613 47.4227 16.3899 47.4227 15.936V15.1106H46.863H46.3032V17.3197ZM55.1132 17.3201V19.5364L56.5369 19.5173C58.156 19.4955 58.2777 19.4726 58.6431 19.1215C58.8733 18.9004 58.9583 18.6752 58.9571 18.2907C58.9557 17.8488 58.654 17.4275 58.2418 17.2918C58.1541 17.263 58.0823 17.2235 58.0823 17.2042C58.0823 17.1849 58.1788 17.1224 58.2966 17.0652C58.6213 16.9079 58.7801 16.6689 58.8035 16.3024C58.8359 15.7943 58.6016 15.4752 58.0243 15.2417C57.786 15.1452 57.6628 15.1358 56.4396 15.1204L55.1132 15.1037V17.3201ZM57.504 15.9714C57.6988 16.0862 57.7712 16.3539 57.6717 16.5914C57.5673 16.8406 57.3725 16.907 56.7453 16.907H56.2327V16.3972V15.8874H56.7971C57.2447 15.8874 57.391 15.9048 57.504 15.9714ZM39.3661 15.9901C39.8204 16.1159 40.073 16.5911 40.073 17.3197C40.073 17.8454 39.9709 18.1741 39.7341 18.4103C39.3885 18.7549 38.7388 18.7877 38.3354 18.4808C37.8196 18.0884 37.737 16.8451 38.1903 16.2966C38.4555 15.9757 38.8978 15.8604 39.3661 15.9901ZM52.8629 16.0111C53.2344 16.1659 53.4249 16.4552 53.5083 16.9912C53.5698 17.3864 53.5072 17.8834 53.3596 18.172C53.0894 18.7002 52.2704 18.862 51.7748 18.4849C51.2316 18.0717 51.1989 16.6728 51.721 16.1867C51.977 15.9485 52.5143 15.8658 52.8629 16.0111ZM61.8196 16.0113C62.2883 16.2063 62.4879 16.6077 62.4821 17.344C62.4778 17.8852 62.3589 18.2255 62.0924 18.4589C61.7864 18.7269 61.2734 18.7698 60.8642 18.5615C60.4886 18.3704 60.3213 17.9783 60.3213 17.2895C60.3213 16.5887 60.5405 16.1652 60.9851 16.0071C61.2373 15.9174 61.5984 15.9192 61.8196 16.0113ZM57.6002 17.6974C57.8786 17.8843 57.9262 18.3131 57.6971 18.5691L57.5551 18.7276L56.9183 18.7436L56.2814 18.7596V18.1682V17.5767L56.8776 17.5947C57.3428 17.6086 57.5017 17.6313 57.6002 17.6974Z" fill="white"/>
</svg>
