<svg width="340" height="33" viewBox="0 0 340 33" fill="none" xmlns="http://www.w3.org/2000/svg">
<path d="M21.9006 3.61886H3.89867L5.19552 0H23.1975L21.9006 3.61886ZM21.2522 5.42829H3.24214L1.94528 9.04715H19.9472L21.2522 5.42829ZM19.3069 10.8401H1.29685L0 14.459H17.9857L19.3069 10.8401Z" fill="white"/>
<path d="M64.7938 23.5144H68.036C68.4968 23.5702 68.9641 23.5101 69.3966 23.3395C69.8291 23.1688 70.2136 22.8927 70.5162 22.5357C70.961 21.9451 71.185 21.2136 71.1484 20.4713C71.1789 19.9989 71.0934 19.5262 70.8996 19.0956C70.7058 18.665 70.4097 18.2899 70.038 18.0039C69.4362 17.6043 68.7205 17.4191 68.0036 17.4775H64.7938V23.5144ZM60.5385 27.1579V5.42832H74.4716L73.2477 9.07186H64.7938V13.8833H68.2386C71.0187 13.8833 72.4615 14.5577 73.4584 15.4213C74.1712 16.0618 74.7318 16.8577 75.0982 17.7494C75.4646 18.6411 75.6272 19.6054 75.5739 20.57C75.6287 21.6087 75.4268 22.6448 74.9865 23.5842C74.5463 24.5235 73.8817 25.3364 73.0532 25.9489C71.7158 26.8865 70.3136 27.1497 67.4605 27.1497L60.5385 27.1579ZM48.2022 27.1579V9.06363H42.0097V5.42832H59.2012L57.9773 9.07186H52.498V27.1662L48.2022 27.1579ZM31.0432 14.13H33.4748C33.9721 14.1645 34.4717 14.1257 34.9581 14.0149C35.4639 13.8509 35.8998 13.5175 36.1943 13.0692C36.4889 12.6209 36.6246 12.0843 36.5792 11.5475C36.6466 11.0141 36.5189 10.4741 36.2201 10.0299C35.9213 9.58571 35.4722 9.26823 34.9581 9.13765C34.4271 9.01256 33.8815 8.96273 33.337 8.98961H31.0432V14.13ZM31.0432 17.8887V23.5884H34.0098C34.8273 23.6832 35.6493 23.4533 36.3036 22.9469C36.6051 22.6634 36.8413 22.316 36.9954 21.9293C37.1495 21.5426 37.2177 21.1262 37.1952 20.7098C37.2081 20.0444 37.0091 19.3925 36.6278 18.851C35.9956 18.0285 35.2175 17.8723 33.8882 17.8723L31.0432 17.8887ZM37.9003 15.594V15.668C38.623 15.9503 39.2983 16.3443 39.9023 16.836C40.5129 17.3501 40.9955 18.0031 41.3109 18.7419C41.6264 19.4806 41.7658 20.2844 41.7179 21.0881C41.7179 24.0572 40.1617 26.2039 37.6085 26.8454C36.5908 27.0978 35.5426 27.2003 34.4961 27.1497H26.7879V5.42832H33.645C34.7341 5.38792 35.8238 5.4902 36.8872 5.73264C39.3674 6.40706 40.9966 8.14247 40.9966 10.8813C41.0168 11.5343 40.9058 12.1846 40.6703 12.7926C40.4348 13.4007 40.0797 13.9537 39.6268 14.4179C39.1457 14.9135 38.5727 15.3077 37.9409 15.5776L37.9003 15.594Z" fill="white"/>
<path fill-rule="evenodd" clip-rule="evenodd" d="M127.787 0.0323715C124.506 0.366241 121.487 1.7928 119.17 4.1035C116.356 6.91121 114.873 10.6545 115.009 14.6058C115.053 15.8874 115.189 16.7868 115.521 17.9777C115.818 19.0456 116.382 20.3713 116.92 21.2699C117.006 21.4136 117.115 21.5994 117.162 21.6829C117.299 21.9251 117.902 22.7487 118.276 23.2034C118.599 23.5968 119.539 24.5612 119.879 24.8495C121.289 26.0433 122.635 26.8269 124.471 27.5231C124.956 27.7071 126.029 27.9834 126.743 28.1082C128.232 28.3685 130.292 28.3592 131.705 28.0858C133.236 27.7896 134.883 27.1923 136.014 26.5229C136.157 26.4379 136.345 26.3292 136.431 26.2814C136.593 26.1916 137.456 25.6274 137.502 25.5811C137.517 25.5667 137.634 25.473 137.763 25.3728C137.893 25.2725 138.043 25.155 138.098 25.1115C138.965 24.4261 140.061 23.2372 140.754 22.2322C141.054 21.7978 141.733 20.6925 141.733 20.6393C141.733 20.6284 141.817 20.4483 141.92 20.2392C142.023 20.03 142.152 19.7414 142.208 19.5977C142.264 19.454 142.333 19.2893 142.36 19.2319C142.485 18.9703 142.848 17.7889 142.938 17.3506C143.183 16.1634 143.243 15.6691 143.283 14.5026C143.351 12.5297 142.975 10.4941 142.208 8.67597C142.097 8.41286 141.448 7.10544 141.417 7.08214C141.398 7.06777 141.344 6.98201 141.298 6.89156C141.251 6.8011 141.056 6.4955 140.865 6.21243C139.113 3.62744 136.516 1.65782 133.585 0.690913C132.151 0.217883 131.061 0.0378062 129.433 0.00504114C128.801 -0.00770954 128.06 0.00457082 127.787 0.0323715ZM130.366 0.763288C130.764 0.79365 131.148 0.84042 131.218 0.867175C131.288 0.893931 131.414 0.915826 131.497 0.915826C131.692 0.915826 132.567 1.13598 133.298 1.36926C135.281 2.00235 137.095 3.11527 138.601 4.62356C140.291 6.31699 141.432 8.25212 142.067 10.505C142.233 11.0915 142.255 11.1842 142.328 11.6024C142.369 11.8323 142.432 12.185 142.469 12.3862C142.574 12.9597 142.558 15.382 142.444 16.0442C142.315 16.7981 142.22 17.245 142.097 17.6903C140.968 21.7556 138.051 25.0253 134.133 26.6165C133.684 26.7989 133.24 26.9486 132.566 27.1446C132.408 27.1906 131.868 27.3054 131.339 27.4056C130.474 27.5692 128.839 27.6209 127.813 27.5172C125.819 27.3155 123.748 26.6162 122.133 25.5999C121.668 25.307 121.492 25.1867 121.476 25.15C121.467 25.1284 121.431 25.1108 121.397 25.1108C121.363 25.1108 121.277 25.0579 121.206 24.9932C121.134 24.9285 120.936 24.7698 120.766 24.6404C120.063 24.1057 118.799 22.7875 118.333 22.1026C118.237 21.9608 118.143 21.8329 118.125 21.8186C118.106 21.8042 117.937 21.5455 117.749 21.2438C116.821 19.7559 116.254 18.249 115.882 16.2793C115.593 14.7525 115.706 12.3551 116.142 10.7662C116.259 10.3395 116.627 9.24479 116.668 9.20115C116.693 9.17388 116.714 9.12036 116.714 9.08227C116.714 8.96532 117.365 7.65702 117.657 7.18665C118.309 6.13613 118.861 5.44477 119.741 4.57381C120.43 3.89191 120.946 3.47317 121.824 2.88502C122.406 2.49524 123.924 1.69968 124.086 1.69968C124.128 1.69968 124.185 1.67862 124.212 1.65291C124.261 1.60661 125.374 1.23386 125.776 1.12893C126.57 0.92194 127.243 0.814396 128.225 0.73763C129.055 0.672727 129.201 0.674452 130.366 0.763288ZM128.623 3.78927C127.944 3.83772 126.921 4.0006 126.299 4.15915C125.497 4.36337 124.367 4.7936 123.975 5.04354C123.931 5.07103 123.826 5.12945 123.739 5.17345C123.653 5.21746 123.512 5.31115 123.426 5.3817C123.278 5.50288 123.295 5.50017 123.739 5.33273C124.486 5.05144 125.715 4.70764 126.186 4.64859C126.277 4.63719 126.586 4.59116 126.873 4.54622C127.925 4.38182 130.192 4.39472 130.99 4.56963C131.11 4.59602 131.349 4.64482 131.522 4.67806C132.267 4.82171 133.356 5.23789 133.931 5.59825C134.194 5.76312 134.438 5.98438 134.4 6.02279C134.389 6.0335 134.102 5.97095 133.761 5.88368C133.112 5.71771 132.384 5.56747 131.678 5.45413C131.111 5.36289 128.401 5.36158 127.735 5.45219C125.652 5.73553 123.285 6.37991 121.864 7.05047C121.522 7.21194 121.21 7.38983 121.171 7.44569C121.132 7.5016 121.071 7.57842 121.035 7.61652C121 7.65456 120.893 7.7864 120.797 7.90952L120.622 8.13339L121.032 7.92865C121.896 7.4969 122.141 7.40038 123.269 7.04812C125.167 6.45584 127.404 6.08983 129.128 6.08941C131.005 6.089 132.653 6.30732 134.029 6.7386C134.428 6.8637 134.437 6.874 134.338 7.11208C134.239 7.35335 134.084 7.53374 133.888 7.63569C133.744 7.71063 133.298 7.67943 132.697 7.55235C132.568 7.52501 132.333 7.49141 132.175 7.47767C132.017 7.46393 131.617 7.42552 131.287 7.39228C130.368 7.29994 127.958 7.31343 127.086 7.4158C126.342 7.50307 125.272 7.70159 124.758 7.84765C124.261 7.98895 123.328 8.28911 123.165 8.36045C123.079 8.39812 122.844 8.49527 122.643 8.57637C122.182 8.76199 120.975 9.36994 120.527 9.64137C120.341 9.75461 120.106 9.89596 120.005 9.95548C119.904 10.015 119.752 10.1059 119.666 10.1576C119.557 10.2226 119.466 10.3543 119.369 10.5872C119.292 10.7719 119.228 10.9507 119.226 10.9844C119.223 11.0182 119.462 10.8943 119.757 10.709C120.319 10.3552 121.414 9.77441 121.99 9.52494C122.552 9.281 123.706 8.87842 124.262 8.73231C124.549 8.65674 124.855 8.57287 124.941 8.5459C125.249 8.44933 126.679 8.22693 127.474 8.15189C128.515 8.05354 130.043 8.05641 131.104 8.15868C131.564 8.203 131.975 8.24574 132.018 8.25368C132.061 8.26168 132.214 8.28525 132.357 8.30615C132.746 8.36264 132.801 8.39321 132.619 8.45085C132.225 8.57486 131.921 8.65747 131.705 8.69917C131.575 8.7241 131.282 8.78498 131.052 8.83452C130.822 8.88406 130.516 8.9417 130.373 8.96255C127.904 9.32098 124.965 9.98699 123.231 10.581C122.086 10.9732 122.061 10.9832 121.323 11.3494C120.64 11.6882 120.121 12.0308 119.724 12.4047C119.474 12.6402 118.96 13.3221 118.96 13.4181C118.96 13.457 118.937 13.5127 118.907 13.5419C118.878 13.571 118.823 13.7581 118.785 13.9575C118.672 14.554 118.763 14.8662 119.241 15.5185C119.27 15.5569 119.256 15.6509 119.205 15.7605C118.845 16.5469 119.068 17.2038 119.881 17.7524C120.051 17.8668 120.058 17.8842 120.02 18.0822C119.998 18.1972 119.98 18.4696 119.979 18.6877C119.979 19.0563 119.992 19.1041 120.167 19.367C120.457 19.8018 120.823 20.1554 121.317 20.4776C121.686 20.7178 121.773 20.8007 121.8 20.9333C121.887 21.3711 122.198 21.8233 122.721 22.2744C124.116 23.4771 125.983 24.2551 128.022 24.4826C128.842 24.5741 130.346 24.5367 130.947 24.4098C131.005 24.3978 131.236 24.3492 131.461 24.302C131.83 24.2248 132.462 24.0324 132.958 23.8467C133.213 23.7511 134.233 23.2295 134.165 23.2295C134.134 23.2295 134.021 23.2614 133.912 23.3004C133.517 23.4428 133.159 23.5321 132.331 23.6953C131.27 23.9046 129.098 23.9762 128.153 23.8331C127.515 23.7366 126.751 23.5351 126.247 23.3303C125.02 22.832 123.929 22.2002 123.327 21.6388C123.037 21.368 123.072 21.3418 123.466 21.5348C124.622 22.1014 126.268 22.6265 127.526 22.8302C128.606 23.0049 128.85 23.0244 129.956 23.0244C131.734 23.0245 133.354 22.7442 135.143 22.1271C135.564 21.9817 135.956 21.8496 136.014 21.8335C136.179 21.7872 136.706 21.3707 136.659 21.3237C136.646 21.3106 136.519 21.3355 136.377 21.3791C135.325 21.7013 133.762 22.0352 132.723 22.1596C131.065 22.358 128.787 22.2917 127.552 22.0091C127.495 21.9959 127.389 21.9724 127.317 21.9567C126.939 21.8744 126.437 21.7535 126.299 21.7113C125.2 21.3758 124.211 20.9935 123.4 20.5898C123.127 20.454 122.897 20.3366 122.888 20.3287C122.859 20.3032 123.021 19.9665 123.116 19.8537L123.208 19.7439L123.892 20.0279C125.455 20.6773 126.789 21.0189 128.466 21.1989C129.294 21.2877 131.854 21.3186 132.384 21.2463C133.332 21.1167 134.147 20.956 135.081 20.7143C135.643 20.569 136.687 20.2457 136.902 20.1505C136.959 20.1251 137.171 20.0384 137.372 19.9579C137.847 19.7677 137.949 19.7006 138.076 19.4946C138.214 19.2713 138.209 19.2496 138.038 19.3171C137.811 19.4063 136.75 19.719 136.096 19.8893C133.888 20.4642 131.204 20.7437 129.647 20.5608C127.532 20.3122 127.226 20.2551 125.881 19.8558C125.59 19.7694 124.187 19.2267 124.144 19.184C124.134 19.1736 124.297 19.1009 124.507 19.0224C124.717 18.944 124.936 18.8605 124.993 18.8368C125.143 18.7751 125.454 18.7126 125.515 18.7319C125.76 18.8089 126.497 19.0097 126.664 19.0449C128.053 19.3372 128.879 19.4495 130.399 19.5528C130.822 19.5816 132.137 19.4761 132.801 19.3602C134.48 19.0673 135.882 18.7229 136.771 18.3851C137.395 18.1479 138.361 17.7236 138.614 17.5755C138.752 17.4949 138.884 17.429 138.908 17.429C139.004 17.429 139.266 16.9296 139.204 16.8672C139.195 16.8578 139.037 16.9189 138.854 17.0031C138.218 17.2954 138.023 17.3775 137.49 17.5798C136.936 17.7899 136.279 18.007 135.779 18.1449C135.621 18.1884 135.409 18.2469 135.309 18.2747C135.106 18.3306 134.962 18.3611 134.159 18.5172C133.127 18.7182 132.878 18.7434 131.652 18.7704C130.258 18.8012 129.137 18.7154 128.127 18.5004C127.897 18.4515 127.627 18.394 127.526 18.3727C127.354 18.3362 127.351 18.332 127.474 18.3017C127.649 18.2586 128.441 18.1186 128.701 18.0847C128.816 18.0698 129.122 18.0208 129.38 17.9758C129.639 17.9307 129.98 17.8728 130.138 17.8471C130.296 17.8213 130.636 17.7618 130.895 17.7148C131.154 17.6678 131.483 17.6091 131.626 17.5845C132.876 17.3701 134.624 16.9512 135.459 16.6657C136.138 16.4337 137.078 16.0082 137.618 15.6887C137.902 15.521 138.608 14.9948 138.734 14.8567C139.491 14.0307 139.736 13.2019 139.408 12.5688C139.363 12.4816 139.223 12.3018 139.096 12.1693L138.865 11.9284L138.98 11.7131C139.138 11.4176 139.137 10.7203 138.979 10.3743C138.815 10.0137 138.576 9.71719 138.238 9.45502L137.931 9.21646L137.91 8.84168C137.898 8.62178 137.849 8.38056 137.79 8.25792C137.618 7.89374 136.912 7.24288 136.29 6.87515C135.845 6.61177 135.72 6.51123 135.675 6.38242C135.469 5.79035 134.706 5.15616 133.501 4.5748C133.267 4.46234 133.009 4.35407 132.926 4.33421C132.843 4.31435 132.752 4.28101 132.723 4.26006C132.694 4.23915 132.612 4.20905 132.54 4.19322C132.468 4.17733 132.28 4.12722 132.122 4.08181C131.237 3.82732 129.787 3.70613 128.623 3.78927ZM135.981 7.66872C136.29 7.90989 136.518 8.19437 136.586 8.42477C136.618 8.53399 136.586 8.52809 135.899 8.29863C135.502 8.16621 135.169 8.05056 135.158 8.04168C135.146 8.03279 135.22 7.93345 135.322 7.82089C135.424 7.70833 135.523 7.56536 135.543 7.50307C135.587 7.36344 135.592 7.36547 135.981 7.66872ZM168.475 8.00348C168.194 8.02914 167.44 8.16239 167.13 8.24125L166.908 8.29763V9.62898C166.908 10.8762 166.914 10.958 166.999 10.9232C167.627 10.6679 168.599 10.5643 169.028 10.7069C169.449 10.8469 169.679 11.1187 169.753 11.5647C169.838 12.0743 169.58 12.5562 169.091 12.7996C168.836 12.9269 168.774 12.9349 168.047 12.9349H167.274V14.2675V15.6H168.055C168.779 15.6 168.86 15.6099 169.137 15.7327C169.625 15.9484 169.781 16.1882 169.781 16.723C169.781 17.2886 169.479 17.7048 168.964 17.849C168.563 17.9615 167.644 17.8904 167.109 17.7054L166.656 17.5493L166.622 18.1816C166.603 18.5293 166.595 19.1065 166.604 19.4642L166.621 20.1146L166.786 20.2113C167.144 20.4202 167.831 20.6134 168.536 20.7034C169.208 20.7892 169.281 20.7893 169.841 20.7055C171.23 20.4978 172.073 19.9345 172.624 18.8454C172.957 18.1882 173.078 16.9608 172.884 16.2085C172.669 15.378 172.122 14.6846 171.413 14.3445C171.205 14.2446 171.034 14.1486 171.034 14.1312C171.034 14.1137 171.169 14.0158 171.334 13.9137C171.962 13.5258 172.416 12.9576 172.636 12.2849C172.752 11.9316 172.774 11.7667 172.776 11.2627C172.779 10.5868 172.697 10.1963 172.446 9.68949C172.055 8.90177 171.409 8.38469 170.46 8.09958C170.173 8.01356 168.991 7.95634 168.475 8.00348ZM195.817 8.04711C195.789 8.056 195.624 8.09294 195.452 8.12921C195.279 8.16547 194.95 8.28216 194.721 8.38845C193.329 9.03216 192.553 10.2556 192.103 12.5169C191.975 13.1606 191.977 15.4791 192.106 16.1487C192.287 17.092 192.472 17.6892 192.763 18.2754C193.382 19.5252 194.294 20.2703 195.558 20.5603C195.943 20.6486 197.111 20.6361 197.529 20.5392C198.736 20.259 199.659 19.4824 200.255 18.2438C200.51 17.716 200.762 16.9158 200.85 16.3577C200.882 16.1565 200.932 15.8391 200.961 15.6523C201.025 15.2472 200.997 13.2308 200.92 12.6725C200.748 11.4265 200.247 10.1662 199.62 9.39727C199.228 8.91688 198.57 8.45937 197.959 8.24198C197.564 8.10162 197.017 8.02302 196.46 8.02689C196.135 8.02914 195.846 8.03828 195.817 8.04711ZM151.761 14.3458V20.5122H153.224H154.686V15.8874V11.2627H156.148H157.611V9.72111V8.17953H154.686H151.761V14.3458ZM159.647 8.48001C159.614 8.64524 159.567 8.87455 159.541 8.98951C159.516 9.10448 159.458 9.39842 159.411 9.64272C159.365 9.88703 159.306 10.181 159.281 10.2959C159.255 10.4109 159.197 10.6931 159.152 10.923C158.821 12.6088 158.224 15.6115 158.186 15.7829C158.16 15.8979 158.077 16.3212 158.001 16.7235C157.925 17.1259 157.814 17.6903 157.756 17.9777C157.697 18.2651 157.632 18.5943 157.611 18.7093C157.509 19.2633 157.341 20.0866 157.298 20.2464C157.271 20.3446 157.262 20.4445 157.277 20.4685C157.292 20.4925 157.946 20.5122 158.73 20.5122H160.156L160.195 20.3162C160.216 20.2084 160.251 19.9909 160.273 19.8328C160.295 19.6747 160.353 19.3102 160.404 19.0228C160.455 18.7354 160.497 18.4709 160.498 18.4349C160.5 18.385 160.737 18.3696 161.501 18.3696H162.501L162.567 18.853C162.604 19.1188 162.665 19.501 162.704 19.7022C162.743 19.9034 162.79 20.1679 162.809 20.2901L162.843 20.5122H164.275H165.707L165.706 20.3684C165.705 20.2894 165.623 19.825 165.522 19.3364C165.421 18.8478 165.303 18.2599 165.258 18.03C165.214 17.8 165.145 17.459 165.105 17.2722C165.065 17.0854 165.006 16.7915 164.975 16.619C164.944 16.4466 164.885 16.1526 164.844 15.9658C164.772 15.6391 164.335 13.4195 164.247 12.9349C164.224 12.8056 164.105 12.2177 163.983 11.6285C163.861 11.0393 163.744 10.4514 163.722 10.3221C163.673 10.0329 163.436 8.82757 163.355 8.45388L163.295 8.17953H161.501H159.708L159.647 8.48001ZM174.325 14.3458V20.5122H175.761H177.197V15.8352V11.1582H178.216H179.234V15.8352V20.5122H180.671H182.107V14.3458V8.17953H178.216H174.325V14.3458ZM183.726 14.3443V20.5122H185.162H186.599V18.4808V16.4495L187.474 16.4243C188.196 16.4035 188.408 16.3789 188.688 16.283C190.21 15.7626 191.166 14.3011 191.221 12.4123C191.269 10.7731 190.419 9.20654 189.139 8.57538C188.396 8.2088 188.237 8.18988 185.828 8.18267L183.726 8.1764V14.3443ZM202.372 14.3458V20.5122H203.808H205.244L205.258 16.7756L205.271 13.0392L205.663 13.5395C206.04 14.0208 206.139 14.1442 206.333 14.372C206.381 14.4295 206.534 14.6235 206.672 14.8031C206.81 14.9828 206.932 15.1297 206.944 15.1297C206.956 15.1297 207.167 14.8769 207.413 14.5679C207.659 14.2589 207.891 13.9688 207.929 13.9231C207.967 13.8775 208.142 13.6568 208.319 13.4327L208.64 13.0252V16.7687V20.5122H210.076H211.513V14.3458V8.17953H210.316H209.119L208.983 8.34937C208.785 8.59743 208.819 8.55207 208.115 9.50477C207.758 9.98929 207.359 10.5353 207.23 10.718C207.1 10.9007 206.979 11.0509 206.959 11.0519C206.94 11.0529 206.798 10.8837 206.646 10.6759C206.493 10.4682 206.18 10.0464 205.95 9.73867C205.72 9.43093 205.368 8.95424 205.168 8.67932L204.803 8.17953H203.588H202.372V14.3458ZM213.445 14.3497V20.5197L215.469 20.5002C217.493 20.4806 217.493 20.4806 217.95 20.3398C218.534 20.16 218.834 20.0201 219.183 19.7644C220.19 19.0284 220.653 17.996 220.653 16.4896C220.653 14.4673 219.784 13.3345 217.885 12.8803C217.727 12.8425 217.292 12.7982 216.918 12.7818L216.239 12.752V11.9682V11.1843L218.107 11.1706L219.974 11.1569V9.66817V8.17953H216.71H213.445V14.3497ZM223.685 8.23179C223.663 8.24616 223.594 8.52835 223.532 8.85887C223.469 9.1894 223.384 9.62443 223.341 9.82562C223.217 10.4116 223.046 11.2692 223.003 11.524C222.98 11.6533 222.922 11.9473 222.872 12.1772C222.822 12.4071 222.764 12.7011 222.742 12.8304C222.721 12.9597 222.597 13.5947 222.467 14.2413C222.337 14.888 222.22 15.4759 222.206 15.5478C222.192 15.6196 222.133 15.9135 222.075 16.201C221.957 16.7826 221.958 16.7752 221.779 17.6945C221.709 18.056 221.627 18.4558 221.598 18.5828C221.569 18.7099 221.485 19.1313 221.412 19.5193C221.338 19.9073 221.265 20.2894 221.249 20.3684L221.219 20.5122H222.674H224.129L224.251 19.7414C224.319 19.3174 224.399 18.8354 224.429 18.6701L224.484 18.3696H225.461H226.437L226.472 18.5656C226.562 19.0657 226.672 19.7286 226.709 19.9917C226.79 20.5698 226.619 20.5122 228.258 20.5122H229.694L229.658 20.3162C229.63 20.1571 229.474 19.3648 229.13 17.638C229.116 17.5662 229.056 17.2722 228.998 16.9848C228.94 16.6974 228.881 16.4035 228.867 16.3316C228.666 15.2874 228.321 13.5287 228.278 13.3268C228.2 12.9566 227.435 9.12104 227.408 8.96338C227.396 8.89153 227.361 8.69813 227.329 8.53357L227.273 8.23445L225.498 8.22003C224.523 8.21214 223.706 8.21742 223.685 8.23179ZM230.914 8.24485C230.901 8.28081 230.895 11.0497 230.903 14.3981L230.916 20.486L232.313 20.4999L233.711 20.5139V18.0569V15.6H234.703H235.695V18.0561V20.5122H237.106H238.516V14.3458V8.17953H237.106H235.695V10.4004V12.6214H234.703H233.711V10.4004V8.17953H232.325C231.264 8.17953 230.933 8.19484 230.914 8.24485ZM240.344 14.3458V20.5122H241.754H243.164V18.0561V15.6H243.5H243.836L243.952 15.9789C244.016 16.1873 244.179 16.6987 244.315 17.1155C244.451 17.5322 244.755 18.4669 244.99 19.1927L245.417 20.5122H247.064C248.613 20.5122 248.71 20.5066 248.675 20.4207C248.655 20.3704 248.526 20.0353 248.389 19.676C248.252 19.3168 247.911 18.4232 247.631 17.6903C247.351 16.9574 246.998 16.0403 246.847 15.6523C246.695 15.2643 246.535 14.841 246.491 14.7116C246.447 14.5823 246.364 14.3675 246.307 14.2343C246.25 14.1011 246.221 13.9717 246.244 13.9469C246.267 13.922 246.334 13.7606 246.393 13.5881C246.453 13.4157 246.667 12.8354 246.87 12.2987C247.072 11.7619 247.238 11.3069 247.238 11.2876C247.238 11.2682 247.271 11.1782 247.311 11.0877C247.352 10.9971 247.506 10.5938 247.655 10.1914C247.804 9.78904 247.957 9.37752 247.996 9.27693C248.166 8.83922 248.387 8.23289 248.387 8.20733C248.387 8.19207 247.708 8.17953 246.878 8.17953H245.369L245.178 8.68904C245.072 8.96929 244.931 9.35139 244.864 9.53821C244.796 9.72503 244.682 10.0425 244.609 10.2437C244.537 10.4449 244.316 11.0563 244.118 11.6024L243.758 12.5952L243.461 12.6109L243.164 12.6266V10.4031V8.17953H241.754H240.344V14.3458ZM134.865 8.85694C135.313 8.97624 136.353 9.38515 136.353 9.44227C136.353 9.51882 135.755 10.0053 135.627 10.0329C135.553 10.049 135.327 10.0121 135.126 9.95109C134.38 9.72451 133.503 9.4904 133.392 9.4882C133.165 9.48371 133.231 9.39722 133.593 9.22425C133.796 9.12737 134.059 8.97352 134.178 8.88239C134.365 8.73842 134.414 8.72311 134.551 8.76596C134.637 8.79308 134.778 8.83405 134.865 8.85694ZM137.747 10.2857C137.964 10.5326 138.046 10.7545 137.986 10.9334C137.959 11.0139 137.916 11.0791 137.89 11.0781C137.863 11.0772 137.654 10.9833 137.424 10.8694C137.194 10.7556 136.999 10.6592 136.99 10.6551C136.966 10.6438 137.524 10.1154 137.562 10.1142C137.581 10.1136 137.664 10.1907 137.747 10.2857ZM133.036 10.3677C134.185 10.6125 134.283 10.6489 133.937 10.7029C133.844 10.7175 133.58 10.7777 133.35 10.8368C133.12 10.8959 132.826 10.9679 132.697 10.9968C132.568 11.0258 132.309 11.0839 132.122 11.1261C131.662 11.23 130.459 11.4604 128.257 11.866C127.554 11.9957 126.696 12.1611 126.351 12.2335C126.006 12.3059 125.618 12.3862 125.489 12.412C125.36 12.4377 125.113 12.4975 124.941 12.5449C124.768 12.5923 124.439 12.6768 124.21 12.7326C123.719 12.8517 123.672 12.8663 122.852 13.1505C121.727 13.5401 120.763 14.0475 120.245 14.5218C120.134 14.6244 120.022 14.6963 119.999 14.6816C119.975 14.6669 119.921 14.5383 119.879 14.3959C119.613 13.5002 120.625 12.7054 123.139 11.8358C123.211 11.811 123.363 11.7641 123.478 11.7317C123.879 11.6188 124.002 11.5829 124.288 11.4973C124.446 11.4499 124.657 11.3918 124.758 11.3682C124.859 11.3446 125.129 11.2775 125.359 11.2192C125.588 11.1609 125.941 11.0755 126.142 11.0295C126.343 10.9835 126.566 10.9312 126.638 10.9132C126.71 10.8953 126.816 10.8727 126.873 10.863C126.971 10.8464 127.625 10.7245 128.519 10.5564C128.734 10.5158 129.286 10.4355 129.746 10.3779C130.206 10.3203 130.664 10.2628 130.764 10.2501C131.181 10.1974 132.577 10.2696 133.036 10.3677ZM187.524 10.9509C187.988 11.0503 188.227 11.4132 188.307 12.1375C188.345 12.4825 188.242 12.9989 188.078 13.2877C187.891 13.6175 187.654 13.7188 187.071 13.7188H186.599V12.3078V10.8969H186.936C187.121 10.8969 187.386 10.9212 187.524 10.9509ZM196.961 11.1088C197.396 11.3132 197.653 11.7388 197.852 12.5803C197.964 13.0542 197.978 13.2405 197.983 14.2776C197.989 15.6724 197.921 16.1475 197.613 16.8414C197.485 17.1287 197.169 17.4781 196.955 17.5676C196.759 17.6496 196.361 17.6595 196.114 17.5884C195.94 17.5385 195.623 17.2537 195.471 17.0109C195.085 16.3936 194.88 14.7408 195.026 13.4308C195.151 12.3145 195.28 11.8946 195.646 11.4124C195.938 11.028 196.509 10.8963 196.961 11.1088ZM136.419 11.459C136.877 11.6681 137.189 11.8422 137.188 11.888C137.186 11.9378 136.701 12.2331 136.353 12.3965C135.699 12.7033 134.028 13.2123 132.775 13.4864C132.603 13.5241 132.18 13.6166 131.835 13.6921C131.283 13.8129 130.532 13.9666 130.059 14.0555C129.973 14.0717 129.597 14.1315 129.224 14.1884C128.85 14.2453 128.41 14.3157 128.244 14.345C128.079 14.3742 127.797 14.4235 127.618 14.4545C125.101 14.8896 123.47 15.33 122.43 15.8553L121.918 16.1141L121.627 15.9643C121.468 15.8819 121.246 15.7579 121.134 15.6887L120.931 15.5629L121.265 15.3259C121.448 15.1956 121.763 15.0067 121.964 14.9062C122.301 14.7374 122.418 14.6846 122.852 14.5044C123.122 14.3922 124.194 14.0446 124.549 13.9543C124.736 13.9068 125.006 13.836 125.15 13.7971C125.293 13.7582 125.528 13.7014 125.672 13.6708C125.816 13.6403 126.086 13.5815 126.273 13.5402C126.459 13.4989 126.741 13.4395 126.899 13.4083C127.057 13.3771 127.433 13.3021 127.735 13.2415C128.037 13.1809 128.354 13.1213 128.44 13.109C128.526 13.0967 128.902 13.03 129.276 12.9607C129.649 12.8914 130.155 12.7991 130.399 12.7557C131.921 12.4848 132.444 12.3788 133.167 12.1954C134.003 11.9833 135.405 11.5293 135.726 11.3666C135.827 11.3157 135.927 11.2715 135.949 11.2684C135.971 11.2652 136.182 11.3511 136.419 11.459ZM161.658 13.0394C161.704 13.3699 161.767 13.8167 161.797 14.0323C161.827 14.2479 161.884 14.6241 161.925 14.8684C161.965 15.1127 161.998 15.389 161.998 15.4824L161.998 15.6523H161.502H161.006L161.007 15.5086C161.007 15.4295 161.042 15.1297 161.085 14.8423C161.329 13.1791 161.441 12.415 161.467 12.2294L161.495 12.0204L161.535 12.2294C161.556 12.3444 161.612 12.7089 161.658 13.0394ZM225.526 12.4239C225.543 12.5756 225.605 13.029 225.665 13.4313C225.843 14.6346 225.922 15.1949 225.949 15.4432L225.975 15.6784L225.455 15.6619L224.936 15.6453L224.963 15.4529C224.979 15.347 225.015 15.0957 225.044 14.8945C225.074 14.6934 225.118 14.3759 225.143 14.1891C225.168 14.0023 225.227 13.6025 225.274 13.3007C225.321 12.9989 225.373 12.6056 225.389 12.4267C225.426 12.0412 225.483 12.04 225.526 12.4239ZM138.158 12.9071C138.462 13.6351 137.782 14.3353 136.066 15.0602C134.954 15.5301 133.171 15.998 131.026 16.383C130.896 16.4062 130.591 16.4642 130.347 16.5119C130.102 16.5596 129.773 16.6199 129.615 16.646C129.457 16.6721 129.117 16.7322 128.858 16.7795C128.6 16.8268 128.27 16.8839 128.127 16.9063C127.867 16.9468 127.241 17.0689 126.795 17.1663C126.51 17.2285 126.117 17.3293 125.594 17.4746C125.378 17.5344 125.148 17.5839 125.081 17.5845C124.895 17.5864 123.4 16.9422 123.4 16.8601C123.4 16.831 124.569 16.443 124.993 16.3313C125.682 16.1499 127.543 15.7919 128.806 15.5978C128.978 15.5714 129.319 15.5127 129.563 15.4675C129.807 15.4223 130.136 15.3646 130.294 15.3394C130.671 15.2791 131.849 15.0462 132.279 14.9468C132.466 14.9036 132.724 14.846 132.854 14.8188C132.983 14.7916 133.324 14.707 133.611 14.6309C133.898 14.5547 134.251 14.4614 134.394 14.4236C135.23 14.2037 135.966 13.9398 136.771 13.5719C137.058 13.4406 137.667 13.0594 137.868 12.8848C137.968 12.7976 138.058 12.7261 138.066 12.726C138.075 12.7259 138.116 12.8075 138.158 12.9071ZM217.075 15.2919C217.612 15.4386 217.83 15.7925 217.831 16.521C217.833 17.0804 217.745 17.3768 217.504 17.6313C217.228 17.9217 216.919 18.0258 216.383 18.0091L216.213 18.0038V16.6539C216.213 15.9114 216.229 15.2882 216.248 15.2691C216.303 15.214 216.845 15.229 217.075 15.2919ZM120.842 16.9718C120.754 17.0508 120.662 17.1155 120.638 17.1155C120.534 17.1155 120.321 16.8905 120.265 16.7206C120.154 16.3832 120.223 16.3617 120.632 16.6066L121.002 16.828L120.842 16.9718ZM122.701 17.6681C123.091 17.845 123.253 17.9155 123.557 18.0395C123.679 18.0896 123.659 18.1062 123.228 18.3094L122.768 18.526L122.444 18.3501C122.132 18.1807 121.724 17.9492 121.682 17.9172C121.619 17.8701 122.099 17.4913 122.23 17.4843C122.262 17.4826 122.474 17.5653 122.701 17.6681ZM121.768 19.0513C121.89 19.118 121.99 19.1906 121.99 19.2124C121.99 19.2342 121.94 19.3372 121.878 19.4413L121.767 19.6305L121.586 19.4573C121.395 19.2737 121.206 18.9527 121.206 18.8116C121.206 18.7369 121.226 18.7389 121.376 18.8283C121.469 18.8841 121.646 18.9844 121.768 19.0513Z" fill="white"/>
<path fill-rule="evenodd" clip-rule="evenodd" d="M335.624 20.4751C333.654 20.5584 331.935 21.0395 330.62 21.8754C330.193 22.147 330.036 22.3266 330.033 22.5485C330.031 22.666 330.071 22.729 330.185 22.7877C330.295 22.8445 330.403 22.8417 331.052 22.7653C334.197 22.3952 336.054 22.417 336.839 22.8334C337.001 22.9194 337.161 23.0868 337.211 23.2232C337.289 23.4324 337.309 23.5975 337.298 23.9475C337.265 24.9762 336.796 26.6004 335.828 29.0452C335.615 29.5825 335.591 29.6546 335.583 29.7786C335.576 29.9009 335.58 29.9233 335.618 29.9804C335.767 30.2029 336.07 30.1341 336.45 29.7917C337.666 28.6956 338.64 27.0478 339.231 25.0844C339.566 23.9723 339.738 22.8866 339.713 22.0508C339.699 21.5639 339.64 21.3113 339.505 21.162C339.237 20.8656 338.314 20.6128 337.122 20.5096C336.804 20.4821 335.932 20.462 335.624 20.4751ZM288.242 21.5431C287.954 21.6766 287.917 22.045 288.164 22.3182C288.298 22.4668 289.242 23.284 289.859 23.7849C294.137 27.2625 299.082 29.7382 304.427 31.0786C308.803 32.1762 313.428 32.4926 317.844 31.9966C323.251 31.3893 328.541 29.665 332.682 27.1606C333.594 26.6085 334.671 25.8699 334.907 25.6334C335.226 25.3147 335.258 24.9006 334.985 24.6067C334.828 24.4367 334.625 24.3509 334.382 24.3509C334.187 24.3509 334.112 24.3744 333.516 24.6221C327.33 27.1938 320.412 28.5493 313.876 28.4702C312.393 28.4523 311.185 28.3914 309.808 28.2654C303.772 27.7125 297.903 26.1165 292.474 23.5519C291.507 23.0952 290.123 22.3717 289.193 21.8367C288.96 21.7025 288.724 21.574 288.669 21.5511C288.541 21.4978 288.348 21.4942 288.242 21.5431Z" fill="white"/>
<path fill-rule="evenodd" clip-rule="evenodd" d="M331.655 1.00903C330.231 1.07054 329.008 1.49471 328.03 2.26583C327.393 2.76755 326.856 3.51222 326.625 4.21274C326.469 4.68428 326.416 5.07484 326.43 5.6511C326.44 6.05389 326.46 6.21027 326.544 6.55051C326.712 7.22054 327.127 7.96136 327.616 8.46311C328.097 8.95693 328.761 9.36694 329.591 9.68436C329.719 9.73335 330.468 9.97531 331.254 10.222C332.772 10.6982 333.074 10.8035 333.483 11.0017C334.054 11.2781 334.356 11.5452 334.552 11.9462C334.683 12.2172 334.714 12.3663 334.714 12.7439C334.714 13.1063 334.684 13.2712 334.572 13.5323C334.275 14.2259 333.552 14.6922 332.5 14.8698C332.075 14.9416 331.898 14.9536 331.283 14.952C330.663 14.9503 330.361 14.9294 329.832 14.8516C329.088 14.742 328.282 14.522 327.624 14.2484C327.042 14.0069 326.94 13.9682 326.819 13.9421C326.585 13.8922 326.409 13.9439 326.327 14.0871C326.25 14.221 326.24 14.3367 326.247 14.9719C326.254 15.555 326.254 15.5596 326.304 15.7104C326.338 15.8129 326.379 15.8932 326.431 15.958C326.705 16.2968 327.394 16.6206 328.45 16.9056C330.341 17.4162 332.172 17.4611 333.712 17.0347C334.81 16.7309 335.623 16.2859 336.277 15.632C337.148 14.7601 337.576 13.7168 337.576 12.4637C337.576 11.9603 337.519 11.5683 337.386 11.1583C336.975 9.89246 336.054 9.04531 334.452 8.45844C334.357 8.42369 333.687 8.20551 332.963 7.97361C331.275 7.43301 331.142 7.38671 330.729 7.19647C329.903 6.81552 329.515 6.44151 329.336 5.85438C329.291 5.7053 329.287 5.66883 329.287 5.36328C329.287 4.99931 329.314 4.83574 329.419 4.58354C329.625 4.08923 330.107 3.71959 330.795 3.52925C331.274 3.39686 331.705 3.34852 332.4 3.34964C333.648 3.35162 334.65 3.55909 335.706 4.03423C335.994 4.16378 336.182 4.221 336.323 4.22188C336.502 4.22299 336.591 4.16342 336.671 3.98779C336.712 3.89931 336.713 3.87701 336.719 3.30435C336.724 2.75697 336.722 2.70119 336.687 2.56372C336.642 2.38207 336.588 2.28599 336.453 2.14662C336.245 1.9321 335.868 1.72473 335.384 1.55771C334.786 1.35155 334.135 1.19915 333.39 1.09093C332.847 1.01211 332.243 0.983619 331.655 1.00903ZM296.049 1.04457C295.265 1.08251 294.609 1.18201 293.87 1.37537C293 1.60299 292.411 1.8141 291.839 2.10313C291.435 2.30782 291.267 2.45072 291.204 2.64308C291.156 2.79082 291.134 3.18351 291.144 3.69461C291.154 4.21115 291.172 4.30922 291.273 4.41174C291.426 4.56661 291.615 4.5365 292.374 4.2364C293.35 3.84995 294.351 3.5724 295.116 3.47626C296.149 3.34643 297.197 3.41485 297.957 3.66163C298.187 3.73657 298.528 3.90635 298.684 4.02441C299.157 4.38135 299.465 4.94896 299.61 5.73451C299.69 6.16426 299.697 6.27465 299.705 7.27491C299.711 7.88865 299.707 8.25136 299.696 8.25136C299.687 8.25136 299.586 8.23009 299.472 8.20408C297.128 7.66817 295.322 7.59783 293.854 7.98525C292.024 8.46786 290.706 9.7104 290.295 11.3385C290.167 11.845 290.132 12.1963 290.145 12.8258C290.156 13.3444 290.191 13.633 290.294 14.0369C290.65 15.4398 291.636 16.5164 292.981 16.9701C293.955 17.2986 295.186 17.3454 296.33 17.0973C297.622 16.8169 298.741 16.1458 299.733 15.0558L299.907 14.8646L300.062 15.1772C300.365 15.7884 300.58 16.1341 300.892 16.5092C301.06 16.7124 301.17 16.807 301.322 16.8811C301.463 16.9499 301.665 16.953 301.826 16.889C301.989 16.8239 303.153 16.0335 303.256 15.9178C303.385 15.7732 303.424 15.6771 303.424 15.511L303.423 15.3717L303.202 14.9151C302.958 14.4121 302.769 13.9423 302.708 13.6883C302.639 13.4051 302.597 13.0611 302.585 12.6935C302.579 12.4994 302.567 12.3405 302.559 12.3405C302.55 12.3405 302.543 11.0594 302.543 9.49369C302.543 6.6633 302.533 6.10756 302.479 5.62974C302.325 4.28644 301.9 3.26881 301.183 2.52365C300.838 2.16553 300.521 1.9385 300.028 1.69497C299.325 1.34755 298.487 1.14047 297.477 1.06415C297.118 1.03705 296.406 1.0273 296.049 1.04457ZM304.45 1.46988C304.196 1.54282 304.138 1.78168 304.258 2.25808C304.335 2.56665 308.393 16.0399 308.465 16.2284C308.569 16.5003 308.703 16.6769 308.87 16.763C309.027 16.8439 309.126 16.8507 310.14 16.8511C311.178 16.8514 311.278 16.8438 311.462 16.7499C311.623 16.6671 311.754 16.4683 311.846 16.1638C311.87 16.0831 312.485 13.5024 313.213 10.4289C313.941 7.35536 314.541 4.84075 314.547 4.84084C314.552 4.84093 315.128 7.24423 315.827 10.1815C317.384 16.7278 317.272 16.2667 317.341 16.4125C317.446 16.6355 317.559 16.7434 317.762 16.8176C317.88 16.8603 317.885 16.8605 318.876 16.8661C319.965 16.8723 320.034 16.8673 320.244 16.7667C320.423 16.6811 320.554 16.5051 320.658 16.2096C320.719 16.038 324.912 2.47365 324.955 2.31017C325.051 1.94413 325.041 1.70674 324.923 1.57475C324.807 1.44589 324.799 1.44509 323.688 1.45281C322.77 1.45917 322.704 1.46181 322.591 1.49669C322.435 1.54488 322.319 1.61426 322.252 1.70023C322.176 1.79802 322.074 2.00959 322.013 2.19628C321.985 2.28413 321.297 4.95779 320.484 8.13774C319.541 11.8304 319.002 13.9075 318.993 13.8864C318.986 13.8682 318.371 11.2417 317.626 8.04965C316.882 4.85764 316.255 2.18823 316.235 2.11763C316.128 1.75394 315.973 1.57645 315.686 1.48884C315.547 1.44666 313.841 1.43333 313.618 1.47268C313.154 1.55496 313.025 1.71031 312.859 2.38953C312.812 2.5829 312.194 5.22273 311.487 8.25581C310.779 11.2889 310.195 13.7644 310.188 13.7569C310.182 13.7494 309.529 11.166 308.738 8.01598C307.947 4.86596 307.275 2.21718 307.244 2.12981C307.086 1.67861 306.921 1.5168 306.569 1.46801C306.386 1.44265 304.54 1.44428 304.45 1.46988ZM297.331 9.82876C298.085 9.88141 298.645 9.96172 299.399 10.125L299.751 10.2011L299.742 10.8628C299.733 11.5638 299.715 11.771 299.627 12.2121C299.487 12.9165 299.179 13.439 298.615 13.9287C298.188 14.2991 297.758 14.5418 297.233 14.7074C296.087 15.0688 295 15.0699 294.289 14.7104C293.827 14.4764 293.476 14.0688 293.301 13.5634C293.177 13.2039 293.12 12.7036 293.153 12.2625C293.205 11.5573 293.408 11.073 293.825 10.6531C294.31 10.1658 294.974 9.91157 295.997 9.82249C296.168 9.80756 297.09 9.81189 297.331 9.82876Z" fill="white"/>
</svg>
