<svg width="52" height="20" viewBox="0 0 52 20" fill="none" xmlns="http://www.w3.org/2000/svg">
<g clip-path="url(#clip0_2304_366)">
<path d="M4.79231 0.730099C5.18939 1.18195 5.38109 1.6475 5.38109 2.08567C5.38109 2.27736 5.24416 2.42797 5.05247 2.42797H4.68277H4.35415C4.16246 2.42797 4.03922 2.31844 3.98446 2.08567C3.8886 1.72966 3.58737 1.35996 3.1629 1.35996C2.68365 1.35996 2.28657 1.74335 2.28657 2.1952C2.28657 2.42797 2.40981 2.63336 2.60151 2.82506H1.72518C1.91687 3.01675 2.19073 3.19476 2.49196 3.35907H2.99859C3.02597 3.37276 3.03967 3.38646 3.06706 3.40015C3.23136 3.4823 3.40936 3.57815 3.60106 3.67399C4.39522 4.12585 5.18939 4.85157 5.1757 6.09759C5.1757 6.71375 4.94293 7.23406 4.47738 7.68592C4.01183 8.13777 3.46413 8.35685 2.80689 8.35685C2.14965 8.35685 1.60195 8.13777 1.1364 7.68592C0.670853 7.23406 0.438079 6.70005 0.438079 6.0702C0.438079 5.8785 0.588697 5.72788 0.780393 5.72788H0.944704H1.15009H1.45133C1.64302 5.72788 1.79364 5.8785 1.79364 6.0702C1.79364 6.68636 2.27289 7.04237 2.7932 7.04237C3.3409 7.04237 3.7243 6.63159 3.7243 6.17974C3.7243 5.57726 3.23136 5.1391 2.58781 4.82418C2.04011 4.55032 1.38286 4.2217 0.958396 3.68769H0.451772C0.369617 3.59185 0.301153 3.4823 0.246384 3.37276C0.164228 3.20845 0.0957651 3.04414 0.0546875 2.83875H0.944704C0.903626 2.67445 0.889933 2.49644 0.889933 2.30474C0.889933 1.67489 1.10901 1.12718 1.54718 0.702715C1.99903 0.278246 2.53304 0.0591649 3.1629 0.0591649C3.86121 0.0454723 4.40892 0.278245 4.79231 0.730099ZM11.9125 0.168706H11.5427H11.0361H7.72252C7.53082 0.168706 7.38021 0.319324 7.38021 0.51102V1.16827C7.38021 1.35996 7.53082 1.51057 7.72252 1.51057H8.22915H8.73577H9.10546V2.82506H8.22915V3.35907V3.67399H8.73577V7.89131C8.73577 8.083 8.88639 8.23362 9.07808 8.23362H9.28347H9.44778H9.7901C9.98179 8.23362 10.1324 8.083 10.1324 7.89131V3.67399V3.35907H9.62578V2.82506H10.5021V1.51057H11.0224H11.5291H11.8988C12.0904 1.51057 12.241 1.35996 12.241 1.16827V0.51102C12.2547 0.319324 12.1041 0.168706 11.9125 0.168706ZM25.6598 0.730099C26.0432 1.11349 26.2212 1.56535 26.2212 2.11305V2.82506H25.3449V3.35907H25.8514V3.55076C25.8514 3.59185 25.8514 3.63292 25.8378 3.66031C25.7967 4.27647 25.4681 4.85155 24.9477 5.19387L26.0432 7.82284C26.0842 7.905 26.0842 7.94607 26.0842 7.98716C26.0842 8.15146 25.9747 8.23362 25.7693 8.23362H25.4544H25.2764H25.0847C24.8245 8.23362 24.6328 8.12407 24.5506 7.905L23.5784 5.49511H23.1951H23.0719H22.8255V7.89131C22.8255 8.083 22.6748 8.23362 22.4831 8.23362H22.1682H21.9765H21.7984C21.6068 8.23362 21.4562 8.083 21.4562 7.89131V3.67399H20.9495V3.35907V2.82506H21.8259V0.51102C21.8259 0.319324 21.9765 0.168706 22.1682 0.168706H23.3868H23.8935H24.2631C24.8109 0.168706 25.2764 0.346708 25.6598 0.730099ZM24.8109 2.82506V2.05828C24.8109 1.77074 24.5506 1.51057 24.2494 1.51057H23.8797H23.3731H23.2088V2.82506H22.3325V3.35907H22.8391V3.67399V4.13954H23.2088H23.3731H23.8797C24.1673 4.13954 24.4 3.92047 24.4412 3.67399H23.9345C23.9345 3.64662 23.9482 3.63292 23.9482 3.60553V3.35907V2.82506H24.8109ZM32.7388 0.168706H32.3691H31.8625H28.549C28.3572 0.168706 28.2066 0.319324 28.2066 0.51102V1.16827C28.2066 1.35996 28.3572 1.51057 28.549 1.51057H29.0555H29.5622H29.9319V2.82506H29.0555V3.35907V3.67399H29.5622V7.89131C29.5622 8.083 29.7128 8.23362 29.9044 8.23362H30.1099H30.2742H30.6165C30.8082 8.23362 30.9588 8.083 30.9588 7.89131V3.67399V3.35907H30.4521V2.82506H31.3285V1.51057H31.8488H32.3554H32.7251C32.9169 1.51057 33.0675 1.35996 33.0675 1.16827V0.51102C33.0812 0.319324 32.9305 0.168706 32.7388 0.168706ZM39.5166 0.168706H39.1469H38.832C38.6404 0.168706 38.4897 0.319324 38.4897 0.51102V2.82506H37.6134V3.35907V3.67399H38.12V6.16604C38.12 6.64528 37.6545 7.05606 37.1067 7.05606C36.559 7.05606 36.0798 6.63159 36.0798 6.15236V3.67399V3.35907H35.5731V2.82506H36.4495V0.51102C36.4495 0.319324 36.2989 0.168706 36.1071 0.168706H35.7375H35.4225C35.2309 0.168706 35.0803 0.319324 35.0803 0.51102V2.82506H34.2039V3.35907V3.67399H34.7105V6.08389C34.7105 6.70005 34.9433 7.23406 35.4088 7.68592C35.8744 8.13777 36.4358 8.35685 37.1205 8.35685C37.8051 8.35685 38.3665 8.13777 38.8183 7.69961C39.2839 7.24776 39.5166 6.71375 39.5166 6.09759V3.67399V3.35907H39.01V2.82506H39.8864V0.51102C39.8727 0.319324 39.7221 0.168706 39.5166 0.168706ZM46.4451 0.730099C46.8285 1.11349 47.0201 1.56535 47.0201 2.11305V2.82506H46.1439V3.35907H46.6504V3.66031V3.67399C46.6504 4.2217 46.4588 4.67355 46.0891 5.05694C45.7057 5.44033 45.2538 5.61835 44.7061 5.61835H44.1995H44.0352H43.6655V7.89131C43.6655 8.083 43.5148 8.23362 43.3232 8.23362H43.0083H42.8165H42.6386C42.4468 8.23362 42.2962 8.083 42.2962 7.89131V3.67399H41.7896V3.35907V2.82506H42.6659V0.51102C42.6659 0.319324 42.8165 0.168706 43.0083 0.168706H44.1995H44.7061H45.0758C45.6235 0.168706 46.0617 0.346708 46.4451 0.730099ZM45.6235 2.82506V2.05828C45.6235 1.74335 45.3633 1.51057 45.0484 1.51057H44.6788H44.1721H44.0352V2.82506H43.1589V3.35907H43.6655V3.67399V4.29016H44.0352H44.1721H44.6788C45.0074 4.29016 45.2538 4.0437 45.2538 3.75615V3.67399H44.7609V3.35907V2.82506H45.6235ZM13.9252 3.67399H13.4187L13.5145 3.35907L13.6651 2.82506H14.5414L15.226 0.469942C15.2808 0.264553 15.4178 0.155012 15.6231 0.155012H16.3215H16.8281H17.1978C17.3895 0.155012 17.5264 0.264553 17.5948 0.469942L18.2795 2.82506H17.4032L17.5538 3.35907H18.0604L18.1563 3.67399L18.4027 4.49555C18.4438 4.64618 18.4574 4.79679 18.4574 4.94741V7.905C18.4574 8.0967 18.3069 8.24732 18.1152 8.24732H17.8139H17.6085H17.4442C17.2526 8.24732 17.1019 8.0967 17.1019 7.905V5.85111H16.5953H15.3766H15.0069V7.905C15.0069 8.0967 14.8563 8.24732 14.6647 8.24732H14.3634H14.158H13.9937C13.8021 8.24732 13.6514 8.0967 13.6514 7.905V4.94741C13.6514 4.82418 13.6788 4.67355 13.7061 4.49555L13.9252 3.67399ZM15.0617 2.82506L14.9111 3.35907H15.4178L15.3356 3.67399L15.1165 4.49555H15.4862H16.4583H16.965L16.7459 3.67399H16.2392L16.1571 3.35907L16.0065 2.82506H16.8829L16.5268 1.51057H16.294L15.9381 2.82506H15.0617Z" fill="white"/>
<path d="M10.01 11.75H9.64034H9.3391C9.1474 11.75 8.99678 11.9006 8.99678 12.0923V14.4063H8.12047V14.8719C8.12047 14.8856 8.12047 14.9129 8.12047 14.9403C8.10677 15.0088 8.09308 15.1184 8.052 15.2553H8.55862C8.54493 15.2827 8.54493 15.3237 8.53124 15.3648L7.6823 18.4867H7.44953L6.60059 15.3648C6.58689 15.3237 6.58689 15.2963 6.5732 15.2553C6.54582 15.132 6.53213 15.0225 6.51843 14.9403H6.01181C6.01181 14.9129 6.01181 14.8856 6.01181 14.8719V14.4063H6.88814V12.1059C6.88814 11.9143 6.73752 11.7637 6.54582 11.7637H6.17611H5.87488C5.68319 11.7637 5.53257 11.9143 5.53257 12.1059V14.4201H4.65625V14.9541V15.0636C4.65625 15.132 4.65625 15.2005 4.66993 15.269H5.17657C5.19025 15.3511 5.20394 15.4333 5.21764 15.5154L6.3952 19.5273C6.44997 19.7327 6.58689 19.8423 6.79228 19.8423H7.16198H7.86031H8.36693C8.55862 19.8423 8.69555 19.7327 8.76401 19.5273L9.94157 15.5154C9.95527 15.4469 9.96896 15.3648 9.98265 15.269C9.99634 15.2005 9.99634 15.132 9.99634 15.0636V14.9541H9.48972V14.4201H10.366V12.1059C10.3524 11.9006 10.2017 11.75 10.01 11.75Z" fill="white"/>
<path d="M17.1164 11.75H16.7467H16.24H13.0771C12.9265 11.75 12.8032 11.8732 12.8032 12.0238V12.8044C12.8032 12.9549 12.9265 13.0781 13.0771 13.0781H13.529H14.0356H14.4052V14.4063H13.529V14.9403V15.2553H14.0356V18.4867H13.529H13.0771H12.7074C12.5568 18.4867 12.4336 18.6099 12.4336 18.7605V19.5411C12.4336 19.6917 12.5568 19.8149 12.7074 19.8149H13.0771H16.24H16.7467C16.9385 19.8149 17.0479 19.719 17.0479 19.5411V18.7605C17.0479 18.5825 16.9385 18.4867 16.7467 18.4867H16.24H15.802H15.4322V15.2553V14.9403H14.9256V14.4063H15.802V13.0781H16.24H16.7467H17.1164C17.3081 13.0781 17.4177 12.9823 17.4177 12.8044V12.0238C17.4177 11.8458 17.3081 11.75 17.1164 11.75Z" fill="white"/>
<path d="M43.4072 12.0103C43.0375 11.7639 42.613 11.6406 42.1338 11.6406C41.5039 11.6406 40.9426 11.8597 40.477 12.3116C40.0114 12.7635 39.7786 13.2975 39.7786 13.8999V14.4203H38.9023V14.9543V15.2692H39.409V17.679C39.409 18.2952 39.6418 18.8292 40.1073 19.2811C40.5729 19.7329 41.1205 19.952 41.7778 19.952C42.435 19.952 42.9964 19.7329 43.4482 19.2947C43.9138 18.843 44.1465 18.309 44.1465 17.6927V15.8306C44.1465 15.6389 43.996 15.4883 43.8043 15.4883H43.2976H42.435H42.0653C41.9147 15.4883 41.7915 15.6115 41.7915 15.7621V16.5152C41.7915 16.6932 41.9147 16.7891 42.0653 16.7891H42.2844H42.435H42.791L42.7774 17.7612C42.7774 18.0214 42.6678 18.2267 42.4487 18.3911C42.2434 18.5691 42.0243 18.6512 41.7778 18.6512C41.2712 18.6512 40.833 18.2405 40.833 17.7612V15.2829V14.968H40.3264V14.434H41.2027V13.8451C41.2027 13.3659 41.6409 12.9689 42.1474 12.9689C42.6678 12.9689 42.9964 13.3659 43.0648 13.6945C43.106 13.9273 43.2291 14.0369 43.4345 14.0369H43.7631H44.1329C44.3246 14.0369 44.4616 13.8863 44.4616 13.6945C44.4478 13.1332 44.1466 12.4759 43.4072 12.0103Z" fill="white"/>
<path d="M51.0597 11.75H50.9502H50.4435H47.7186C47.527 11.75 47.3764 11.9006 47.3764 12.0923V14.4063H46.5V14.9403V15.2553H47.0067V19.4726C47.0067 19.6642 47.1573 19.8149 47.3489 19.8149H47.7186H50.5257H51.0323C51.224 19.8149 51.3746 19.6642 51.3746 19.4726V18.8153C51.3746 18.6237 51.224 18.4731 51.0323 18.4731H50.5257H48.7457H48.3759V16.2822H48.7457H50.1833H50.6899C50.8817 16.2822 51.0323 16.1316 51.0323 15.9399V15.2963C51.0323 15.2827 51.0323 15.269 51.0323 15.269C51.0185 15.0909 50.8817 14.9541 50.6899 14.9541H50.1833H48.7457H48.3759H47.8693V14.4201H48.7457V13.1055H50.4435H50.9502H51.0597C51.2513 13.1055 51.4019 12.9549 51.4019 12.7632V12.1059C51.4019 11.9006 51.2513 11.75 51.0597 11.75Z" fill="white"/>
<path d="M23.9213 18.475H23.4147H21.3471H20.9775V15.2573V14.9422H20.4708V14.4082H21.3471V12.1079C21.3471 11.9162 21.1965 11.7656 21.0048 11.7656H20.6351H20.3202C20.1285 11.7656 19.9779 11.9162 19.9779 12.1079V14.422H19.1016V14.956V15.2709H19.6082V19.4882C19.6082 19.6799 19.7589 19.8305 19.9505 19.8305H20.3202H23.4147H23.9213C24.1131 19.8305 24.2637 19.6799 24.2637 19.4882V18.8309C24.2637 18.6256 24.1131 18.475 23.9213 18.475Z" fill="white"/>
<path d="M30.0971 18.475H29.5905H27.5229H27.1532V15.2573V14.9422H26.6466V14.4082H27.5229V12.1079C27.5229 11.9162 27.3723 11.7656 27.1806 11.7656H26.8109H26.496C26.3042 11.7656 26.1536 11.9162 26.1536 12.1079V14.422H25.2773V14.956V15.2709H25.7839V19.4882C25.7839 19.6799 25.9345 19.8305 26.1263 19.8305H26.496H29.5905H30.0971C30.2888 19.8305 30.4394 19.6799 30.4394 19.4882V18.8309C30.4394 18.6256 30.3024 18.475 30.0971 18.475Z" fill="white"/>
<path d="M36.4095 15.269L36.3137 14.9541H35.807L35.6564 14.4201H36.5328L35.8481 12.0649C35.7933 11.8595 35.6564 11.75 35.4511 11.75H35.0814H34.5747H33.8764C33.6848 11.75 33.5478 11.8595 33.4793 12.0649L32.7947 14.4201H31.9183L31.7678 14.9541L31.6719 15.269H32.1785L31.9321 16.0906C31.891 16.2685 31.8773 16.4192 31.8773 16.5423V19.4999C31.8773 19.6917 32.0279 19.8423 32.2196 19.8423H32.384H32.5893H32.8905C33.0823 19.8423 33.2329 19.6917 33.2329 19.4999V17.446H33.6025H34.8211H35.3278V19.4999C35.3278 19.6917 35.4784 19.8423 35.6702 19.8423H35.8345H36.0398H36.341C36.5328 19.8423 36.6834 19.6917 36.6834 19.4999V16.5423C36.6834 16.3917 36.6559 16.2411 36.6286 16.0906L36.4095 15.269ZM34.7116 16.0768H33.7394H33.3697L33.5888 15.2553L33.671 14.9403H33.1644L33.3014 14.4063H34.1776L34.5337 13.0918H34.7665L35.1224 14.4063H34.2461L34.3831 14.9403L34.4652 15.2553H34.9718L35.1909 16.0768H34.7116Z" fill="white"/>
</g>
<defs>
<clipPath id="clip0_2304_366">
<rect width="51.4124" height="20" fill="white"/>
</clipPath>
</defs>
</svg>
