<svg width="145" height="39" viewBox="0 0 145 39" fill="none" xmlns="http://www.w3.org/2000/svg">
<g filter="url(#filter0_d_3377_1083)">
<path d="M4.00014 5.45605H7.92173C10.0651 5.45605 12.1423 10.6194 12.9436 11.7721C13.7562 10.6194 15.8311 5.45605 17.9768 5.45605H21.8984L21.8619 15.5476H17.9403L17.9768 9.38449L14.7468 15.3194H11.1494L7.92173 9.38449V15.5476H4.00014V5.45605Z" fill="white" fill-opacity="0.7"/>
<path d="M24.0874 5.45605H28.009C30.1547 5.45605 32.2297 10.6194 33.0309 11.7721C33.8366 10.6194 35.9138 5.45605 38.0573 5.45605H41.9788V15.5476H38.0573V9.38449L34.8296 15.3194H31.2299L28.0022 9.38449V15.5476H24.0874V5.45605Z" fill="white" fill-opacity="0.7"/>
<path d="M6.39464 27.826C5.63485 27.1362 5.02893 26.2941 4.61635 25.3545C4.20378 24.4149 3.99381 23.3989 4.00014 22.3728V18.1476H21.8961V21.6286H8.13858C8.18423 22.496 8.24815 23.6122 8.77087 24.4568C9.37349 25.4292 10.2957 25.9702 11.6698 26.098H21.8961V30.0196H11.6698C9.45795 30.0196 7.19585 28.5108 6.39464 27.826Z" fill="white" fill-opacity="0.7"/>
<path d="M33.0263 30.0196C28.0524 30.0196 24.1559 27.3489 24.1559 23.9409C24.1559 20.5329 28.0524 17.8622 33.0263 17.8622C38.0002 17.8622 41.8921 20.5215 41.8921 23.9455C41.8921 27.3695 38.0116 30.0196 33.0263 30.0196ZM33.0263 21.6195C29.9539 21.6195 27.9132 23.0165 27.9132 23.9409C27.9132 24.8654 29.9539 26.2601 33.0263 26.2601C36.0987 26.2601 38.1394 24.8586 38.1394 23.9455C38.1394 23.0324 36.0987 21.6195 33.0263 21.6195Z" fill="white" fill-opacity="0.7"/>
<path d="M49.7213 5.48145V8.60639H49.3561V6.19135L48.2353 7.87138H48.0071L46.8886 6.19135V8.60639H46.5119V5.48145H46.8338L48.1235 7.41028L49.4086 5.48145H49.7213Z" fill="white" fill-opacity="0.7"/>
<path d="M51.4173 6.41048C51.5676 6.40382 51.7177 6.42824 51.8581 6.48223C51.9985 6.53621 52.1263 6.6186 52.2334 6.72423C52.3406 6.82985 52.4247 6.95645 52.4807 7.0961C52.5367 7.23576 52.5632 7.38545 52.5587 7.53583C52.5587 7.83853 52.4384 8.12883 52.2244 8.34287C52.0103 8.55691 51.72 8.67715 51.4173 8.67715C51.1146 8.67715 50.8243 8.55691 50.6103 8.34287C50.3963 8.12883 50.276 7.83853 50.276 7.53583C50.2718 7.38554 50.2986 7.236 50.3547 7.0965C50.4107 6.95701 50.4949 6.83055 50.602 6.72499C50.709 6.61943 50.8367 6.53703 50.9769 6.48293C51.1172 6.42882 51.2671 6.40416 51.4173 6.41048ZM51.4173 6.7506C51.3129 6.74533 51.2086 6.76206 51.1111 6.79969C51.0135 6.83732 50.925 6.89502 50.8512 6.96904C50.7774 7.04307 50.7199 7.13177 50.6826 7.22941C50.6452 7.32705 50.6288 7.43144 50.6344 7.53583C50.6344 7.74409 50.7171 7.94381 50.8644 8.09107C51.0116 8.23833 51.2114 8.32106 51.4196 8.32106C51.6279 8.32106 51.8276 8.23833 51.9749 8.09107C52.1221 7.94381 52.2048 7.74409 52.2048 7.53583C52.2105 7.43104 52.1939 7.32624 52.1563 7.22827C52.1187 7.1303 52.0608 7.04136 51.9865 6.96726C51.9122 6.89317 51.8231 6.83557 51.725 6.79824C51.627 6.7609 51.5221 6.74467 51.4173 6.7506Z" fill="white" fill-opacity="0.7"/>
<path d="M54.088 6.41048C54.3199 6.4046 54.5487 6.46477 54.7477 6.58396V6.93321C54.5686 6.80399 54.3522 6.73668 54.1314 6.74147C54.0221 6.73142 53.912 6.74466 53.8082 6.7803C53.7044 6.81595 53.6094 6.87319 53.5294 6.94826C53.4494 7.02332 53.3862 7.1145 53.3439 7.21579C53.3017 7.31707 53.2815 7.42615 53.2845 7.53583C53.2813 7.64477 53.301 7.75318 53.3426 7.85394C53.3841 7.95471 53.4465 8.04557 53.5256 8.12056C53.6047 8.19555 53.6987 8.253 53.8015 8.28912C53.9044 8.32525 54.0137 8.33924 54.1223 8.33019C54.3498 8.33026 54.5734 8.27043 54.7705 8.15671V8.5128C54.553 8.61537 54.3148 8.66615 54.0743 8.66118C53.9245 8.66914 53.7746 8.64592 53.6342 8.59298C53.4938 8.54004 53.3659 8.45853 53.2586 8.35361C53.1514 8.24869 53.067 8.12265 53.011 7.98345C52.9549 7.84426 52.9284 7.69494 52.933 7.54496C52.9281 7.39289 52.9548 7.24145 53.0113 7.10022C53.0679 6.95898 53.1532 6.83101 53.2617 6.72439C53.3702 6.61778 53.4997 6.53483 53.642 6.4808C53.7842 6.42677 53.9361 6.40283 54.088 6.41048Z" fill="white" fill-opacity="0.7"/>
<path d="M55.2933 8.60639V6.46527H55.6562V7.35778H56.0899L56.7747 6.46527H57.1902L56.3638 7.53126L57.2769 8.60639H56.8569L56.0717 7.69333H55.6562V8.60639H55.2933Z" fill="white" fill-opacity="0.7"/>
<path d="M58.5141 6.41048C58.6644 6.40382 58.8144 6.42824 58.9549 6.48223C59.0953 6.53621 59.2231 6.6186 59.3302 6.72423C59.4373 6.82985 59.5215 6.95645 59.5775 7.0961C59.6334 7.23576 59.66 7.38545 59.6554 7.53583C59.6554 7.83853 59.5352 8.12883 59.3211 8.34287C59.1071 8.55691 58.8168 8.67715 58.5141 8.67715C58.2114 8.67715 57.9211 8.55691 57.7071 8.34287C57.493 8.12883 57.3728 7.83853 57.3728 7.53583C57.3686 7.38554 57.3953 7.236 57.4514 7.0965C57.5075 6.95701 57.5917 6.83055 57.6987 6.72499C57.8058 6.61943 57.9334 6.53703 58.0737 6.48293C58.214 6.42882 58.3639 6.40416 58.5141 6.41048ZM58.5141 6.7506C58.4095 6.745 58.3049 6.76148 58.2071 6.79897C58.1093 6.83645 58.0205 6.89409 57.9464 6.96816C57.8724 7.04222 57.8147 7.13104 57.7772 7.22884C57.7397 7.32664 57.7233 7.43124 57.7289 7.53583C57.7397 7.73706 57.8273 7.92648 57.9736 8.06509C58.1198 8.2037 58.3137 8.28096 58.5152 8.28096C58.7168 8.28096 58.9106 8.2037 59.0569 8.06509C59.2032 7.92648 59.2908 7.73706 59.3016 7.53583C59.3069 7.43113 59.2901 7.32648 59.2523 7.22868C59.2146 7.13088 59.1567 7.04209 59.0825 6.96807C59.0082 6.89404 58.9193 6.83644 58.8214 6.79898C58.7235 6.76151 58.6188 6.74503 58.5141 6.7506Z" fill="white" fill-opacity="0.7"/>
<path d="M60.1713 8.60639V6.46527H61.3446C61.7189 6.46527 62.0065 6.66614 62.0065 7.04506C62.0082 7.14207 61.982 7.23751 61.931 7.32006C61.88 7.4026 61.8064 7.46878 61.7189 7.51072C61.823 7.54478 61.9135 7.61121 61.9771 7.70032C62.0408 7.78943 62.0743 7.89656 62.0727 8.00606C62.0727 8.35987 61.8445 8.59954 61.3879 8.59954L60.1713 8.60639ZM60.5274 7.3692H61.3103C61.4975 7.3692 61.6436 7.29843 61.6436 7.0793C61.6453 7.03638 61.6376 6.9936 61.621 6.95397C61.6045 6.91434 61.5794 6.87882 61.5477 6.84989C61.5159 6.82096 61.4782 6.79933 61.4372 6.78652C61.3962 6.7737 61.3529 6.77001 61.3103 6.77571H60.5274V7.3692ZM60.5274 8.28226H61.3309C61.5591 8.28226 61.7144 8.21606 61.7144 7.97866C61.7144 7.74127 61.5226 7.66594 61.3446 7.66594H60.5274V8.28226Z" fill="white" fill-opacity="0.7"/>
<path d="M63.6295 6.41048C63.8622 6.4043 64.0918 6.46447 64.2915 6.58396V6.93321C64.1122 6.80429 63.8959 6.73701 63.6752 6.74147C63.2597 6.74147 62.826 6.96973 62.826 7.53583C62.8231 7.64488 62.8432 7.75333 62.885 7.8541C62.9268 7.95487 62.9893 8.04569 63.0686 8.12065C63.1478 8.1956 63.242 8.253 63.345 8.28911C63.4479 8.32522 63.5573 8.33921 63.666 8.33019C63.8936 8.33004 64.1171 8.27023 64.3143 8.15671V8.5128C64.0968 8.61537 63.8585 8.66615 63.6181 8.66118C63.4682 8.66914 63.3184 8.64592 63.178 8.59298C63.0376 8.54004 62.9097 8.45853 62.8024 8.35361C62.6951 8.24869 62.6108 8.12265 62.5547 7.98345C62.4987 7.84426 62.4721 7.69494 62.4768 7.54496C62.4719 7.39309 62.4985 7.24186 62.5549 7.10078C62.6113 6.95971 62.6964 6.83185 62.8047 6.72527C62.913 6.61869 63.0422 6.53569 63.1841 6.48152C63.3261 6.42734 63.4777 6.40315 63.6295 6.41048Z" fill="white" fill-opacity="0.7"/>
<path d="M64.8347 8.60639V6.46527H65.1931V7.35778H65.6245L66.3093 6.46527H66.7248L65.9122 7.53126L66.8252 8.60639H66.4052L65.62 7.69333H65.2V8.60639H64.8347Z" fill="white" fill-opacity="0.7"/>
<path d="M67.1699 8.60639V6.46527H67.526V8.03116L68.8385 6.46527H69.1421V8.60639H68.786V7.04049L67.4735 8.60639H67.1699Z" fill="white" fill-opacity="0.7"/>
<path d="M69.8086 8.60639V6.46527H70.1647V8.03116L71.4772 6.46527H71.7808V8.60639H71.4247V7.04049L70.1122 8.60639H69.8086ZM70.7902 6.14113C70.567 6.14726 70.3478 6.08166 70.1647 5.95395V5.62525C70.3473 5.75504 70.5662 5.82375 70.7902 5.82156C71.011 5.82184 71.2265 5.75321 71.4065 5.62525V5.94711C71.2268 6.07538 71.011 6.14331 70.7902 6.14113Z" fill="white" fill-opacity="0.7"/>
<path d="M46.4275 13.9638V11.8204H46.8155L47.5962 13.0073L48.3791 11.8204H48.7672V13.9638H48.4271V12.3477L47.7309 13.4045H47.4638L46.7676 12.3477V13.9638H46.4275Z" fill="white" fill-opacity="0.7"/>
<path d="M50.3468 11.7679C51.1731 11.7679 51.4767 12.4527 51.342 13.0484H49.6369C49.6825 13.505 50.0934 13.6853 50.5203 13.6853C50.7661 13.6865 51.0084 13.6269 51.2256 13.5118V13.861C50.9881 13.9699 50.7289 14.023 50.4678 14.0163C49.8332 14.0163 49.2808 13.6556 49.2808 12.8909C49.2727 12.7461 49.2943 12.6012 49.3442 12.4651C49.3942 12.3289 49.4715 12.2044 49.5713 12.0993C49.6712 11.9941 49.7915 11.9104 49.9248 11.8534C50.0582 11.7964 50.2018 11.7673 50.3468 11.7679ZM50.3696 12.0966C50.2794 12.09 50.1889 12.1014 50.1032 12.1301C50.0174 12.1588 49.9382 12.2041 49.8701 12.2635C49.802 12.3229 49.7463 12.3953 49.7063 12.4763C49.6662 12.5573 49.6427 12.6455 49.6369 12.7357H51.0247C51.0332 12.6483 51.022 12.56 50.9918 12.4775C50.9617 12.395 50.9134 12.3203 50.8505 12.259C50.7876 12.1976 50.7118 12.1512 50.6285 12.1231C50.5453 12.0949 50.4568 12.0859 50.3696 12.0966Z" fill="white" fill-opacity="0.7"/>
<path d="M54.4259 13.9638L53.7 13.0667H53.3553V13.9638H52.9992V13.0667H52.6545L51.9264 13.9638H51.5246L52.3783 12.8864L51.6228 11.8204H52.02L52.6728 12.7334H52.9992V11.8204H53.3553V12.7334H53.6817L54.3323 11.8204H54.7295L53.9762 12.8864L54.8276 13.9638H54.4259Z" fill="white" fill-opacity="0.7"/>
<path d="M54.9714 14.5436V13.6305H55.2567C55.5238 13.158 55.6311 12.6079 55.622 11.8044H57.2198V13.6305H57.5325V14.5436H57.1856V13.9638H55.3184V14.5436H54.9714ZM55.6448 13.6305H56.8637V12.1422H55.9667C55.9739 12.6588 55.8679 13.1707 55.6562 13.6419L55.6448 13.6305Z" fill="white" fill-opacity="0.7"/>
<path d="M59.5367 11.8204H59.9156L58.8633 14.2856C58.6351 14.8015 58.368 14.9978 58.0553 14.9978C57.9783 14.9974 57.9016 14.9874 57.827 14.9681V14.66C57.8878 14.6777 57.9508 14.6869 58.0142 14.6874C58.2561 14.6874 58.4296 14.5116 58.5689 14.1646L58.6488 13.9683L57.6307 11.8204H58.0096L58.8177 13.5575L59.5367 11.8204Z" fill="white" fill-opacity="0.7"/>
<path d="M60.3219 13.9638V11.8204H60.678V12.7334H61.9175V11.8204H62.2759V13.9638H61.9175V13.0507H60.678V13.9638H60.3219Z" fill="white" fill-opacity="0.7"/>
<path d="M64.8439 13.6739C64.9008 13.6721 64.957 13.6613 65.0105 13.6419V13.9318C64.9242 13.9633 64.833 13.9796 64.7412 13.9797C64.6563 13.9868 64.5715 13.9652 64.5004 13.9184C64.4292 13.8717 64.3758 13.8025 64.3485 13.7218C64.1142 13.914 63.8184 14.0153 63.5154 14.0071C63.1342 14.0071 62.7598 13.8063 62.7598 13.3566C62.7598 12.8019 63.2688 12.633 63.7277 12.633C63.9272 12.6352 64.126 12.6574 64.3211 12.6992V12.6239C64.3211 12.302 64.1043 12.0874 63.7117 12.0874C63.4424 12.0876 63.176 12.1428 62.9287 12.2495V11.9094C63.1918 11.8186 63.4677 11.7708 63.7459 11.7679C64.3189 11.7679 64.6795 12.0806 64.6795 12.6809V13.5187C64.6795 13.6465 64.7503 13.6739 64.8439 13.6739ZM63.5907 13.699C63.7273 13.6991 63.8625 13.6715 63.9881 13.6177C64.1137 13.564 64.227 13.4852 64.3211 13.3863V13.0028C64.1422 12.9663 63.9604 12.9457 63.7779 12.9411C63.4652 12.9411 63.125 13.0347 63.125 13.3475C63.125 13.5963 63.3533 13.7081 63.5907 13.7081V13.699Z" fill="white" fill-opacity="0.7"/>
<path d="M66.581 11.7679C66.726 11.768 66.8695 11.7976 67.0028 11.8547C67.136 11.9119 67.2563 11.9955 67.3564 12.1005C67.4565 12.2054 67.5342 12.3296 67.5849 12.4655C67.6357 12.6013 67.6583 12.7461 67.6515 12.8909C67.6586 13.036 67.6362 13.181 67.5856 13.3171C67.5351 13.4532 67.4574 13.5777 67.3573 13.6829C67.2572 13.7881 67.1368 13.8719 67.0033 13.9292C66.8699 13.9865 66.7262 14.0161 66.581 14.0163C66.4233 14.0196 66.2669 13.9878 66.1232 13.923C65.9795 13.8583 65.852 13.7622 65.7501 13.6419V14.9453H65.394V11.8204H65.7158V12.1787C65.8195 12.0492 65.9513 11.9449 66.1011 11.8738C66.251 11.8026 66.4151 11.7664 66.581 11.7679ZM66.5399 12.0966C66.3713 12.0984 66.2069 12.1493 66.0667 12.2429C65.9264 12.3365 65.8165 12.4689 65.7501 12.6239V13.1603C65.8166 13.315 65.9266 13.447 66.0669 13.5403C66.2071 13.6335 66.3715 13.6839 66.5399 13.6853C66.6431 13.6874 66.7457 13.668 66.841 13.6284C66.9364 13.5887 67.0224 13.5297 67.0937 13.455C67.165 13.3803 67.2199 13.2915 67.2551 13.1944C67.2902 13.0973 67.3047 12.9939 67.2977 12.8909C67.3044 12.788 67.2896 12.6848 67.2543 12.5878C67.2191 12.4909 67.1641 12.4023 67.0929 12.3276C67.0217 12.253 66.9358 12.1939 66.8406 12.1542C66.7454 12.1144 66.643 12.0948 66.5399 12.0966Z" fill="white" fill-opacity="0.7"/>
<path d="M69.1604 11.7679C69.3823 11.771 69.5984 11.8397 69.7814 11.9654C69.9644 12.0911 70.1061 12.268 70.1888 12.474C70.2715 12.6801 70.2913 12.9059 70.2459 13.1232C70.2005 13.3405 70.0919 13.5395 69.9337 13.6952C69.7754 13.8509 69.5747 13.9563 69.3567 13.9982C69.1387 14.0401 68.9132 14.0166 68.7085 13.9306C68.5039 13.8446 68.3292 13.7001 68.2065 13.5151C68.0838 13.3301 68.0186 13.1129 68.019 12.8909C68.0148 12.7407 68.0416 12.5913 68.0977 12.4519C68.1538 12.3125 68.238 12.1862 68.3451 12.0808C68.4522 11.9754 68.5799 11.8933 68.7201 11.8394C68.8604 11.7856 69.0103 11.7612 69.1604 11.7679ZM69.1604 12.1057C69.0558 12.1001 68.9512 12.1166 68.8534 12.1541C68.7556 12.1915 68.6668 12.2492 68.5927 12.3232C68.5186 12.3973 68.461 12.4861 68.4235 12.5839C68.386 12.6817 68.3695 12.7863 68.3751 12.8909C68.3751 13.0992 68.4579 13.2989 68.6051 13.4462C68.7524 13.5934 68.9521 13.6762 69.1604 13.6762C69.3686 13.6762 69.5683 13.5934 69.7156 13.4462C69.8629 13.2989 69.9456 13.0992 69.9456 12.8909C69.9512 12.7863 69.9347 12.6817 69.8972 12.5839C69.8597 12.4861 69.8021 12.3973 69.728 12.3232C69.654 12.2492 69.5652 12.1915 69.4674 12.1541C69.3695 12.1166 69.265 12.1001 69.1604 12.1057Z" fill="white" fill-opacity="0.7"/>
<path d="M70.5436 14.5436V13.6305H70.829C71.0983 13.158 71.2056 12.6079 71.1965 11.8044H72.7943V13.6305H73.1071V14.5436H72.7578V13.9638H70.8929V14.5436H70.5436ZM71.2284 13.6305H72.4451V12.1422H71.548C71.5506 12.6603 71.4383 13.1724 71.2193 13.6419L71.2284 13.6305Z" fill="white" fill-opacity="0.7"/>
<path d="M73.5841 13.9638V11.8204H73.9402V12.7334H75.182V11.8204H75.5381V13.9638H75.182V13.0507H73.9402V13.9638H73.5841Z" fill="white" fill-opacity="0.7"/>
<path d="M76.2001 13.9638V11.8204H76.5561V12.5714H77.2181C77.7408 12.5714 78.0467 12.8704 78.0467 13.2561C78.0467 13.6419 77.7408 13.9524 77.2181 13.9524L76.2001 13.9638ZM76.5561 13.6419H77.1725C77.4852 13.6419 77.6861 13.5209 77.6861 13.2676C77.6861 13.0142 77.4852 12.8909 77.1725 12.8909H76.5561V13.6419ZM78.4622 13.9638V11.8204H78.8205V13.9638H78.4622Z" fill="white" fill-opacity="0.7"/>
<path d="M79.4802 13.9638V11.8204H79.8386V13.3863L81.1488 11.8204H81.4501V13.9638H81.094V12.3956L79.7815 13.9638H79.4802ZM80.4663 11.4894C80.2431 11.4963 80.0236 11.4306 79.8409 11.3022V10.9803C80.0243 11.1083 80.2426 11.1769 80.4663 11.1769C80.69 11.1769 80.9083 11.1083 81.0918 10.9803V11.3022C80.9092 11.4309 80.6896 11.4967 80.4663 11.4894Z" fill="white" fill-opacity="0.7"/>
<path d="M47.9203 16.1528C48.2262 16.151 48.5278 16.2239 48.7991 16.3651V16.7395C48.555 16.5848 48.2708 16.5055 47.9819 16.5112C47.336 16.5112 46.6603 16.8993 46.6557 17.7941C46.6557 18.6272 47.3405 19.0312 47.9956 19.0312C48.2879 19.0409 48.5761 18.9613 48.822 18.803V19.1773C48.539 19.3199 48.2257 19.392 47.9089 19.3873C47.6914 19.3955 47.4745 19.3597 47.2712 19.2821C47.0678 19.2045 46.8822 19.0867 46.7254 18.9358C46.5687 18.7848 46.444 18.6037 46.3588 18.4034C46.2736 18.2031 46.2297 17.9877 46.2297 17.7701C46.2297 17.5524 46.2736 17.337 46.3588 17.1367C46.444 16.9365 46.5687 16.7554 46.7254 16.6044C46.8822 16.4534 47.0678 16.3356 47.2712 16.258C47.4745 16.1804 47.6914 16.1447 47.9089 16.1528H47.9203Z" fill="white" fill-opacity="0.7"/>
<path d="M51.253 19.0518C51.3089 19.0499 51.3643 19.0399 51.4173 19.0221V19.312C51.3319 19.3437 51.2414 19.36 51.1503 19.36C51.0653 19.3674 50.9804 19.346 50.9092 19.2992C50.8379 19.2524 50.7845 19.1829 50.7576 19.102C50.5217 19.2923 50.2251 19.3912 49.9222 19.3805C49.5433 19.3805 49.1666 19.1796 49.1666 18.7277C49.1666 18.1753 49.6757 18.0041 50.1368 18.0041C50.3365 18.006 50.5354 18.029 50.7303 18.0725V18.0109C50.7303 17.6891 50.502 17.4745 50.1185 17.4745C49.8501 17.474 49.5845 17.5284 49.3378 17.6343V17.2805C49.6003 17.1872 49.8765 17.1386 50.155 17.1366C50.7257 17.1366 51.0886 17.4494 51.0886 18.0497V18.8897C51.0909 19.0176 51.1594 19.0518 51.253 19.0518ZM49.9975 19.0792C50.1345 19.0795 50.2701 19.052 50.3961 18.9982C50.522 18.9444 50.6357 18.8656 50.7303 18.7665V18.3738C50.5508 18.3362 50.3681 18.3155 50.1847 18.3122C49.872 18.3122 49.5341 18.4058 49.5341 18.7185C49.5341 18.9673 49.7624 19.0792 49.9975 19.0792Z" fill="white" fill-opacity="0.7"/>
<path d="M51.7757 19.3805C51.6876 19.38 51.6002 19.3638 51.5178 19.3326V19.0381C51.5629 19.0555 51.6109 19.0648 51.6593 19.0655C52.0405 19.0655 52.1638 18.3419 52.2048 17.1892H53.7822V19.3348H53.4238V17.5201H52.5541C52.4902 18.6181 52.3395 19.3805 51.7757 19.3805Z" fill="white" fill-opacity="0.7"/>
<path d="M55.4485 17.1366C55.6704 17.1398 55.8863 17.2085 56.0693 17.334C56.2522 17.4596 56.394 17.6364 56.4767 17.8423C56.5594 18.0482 56.5795 18.2739 56.5343 18.4912C56.489 18.7084 56.3806 18.9074 56.2226 19.0632C56.0646 19.219 55.8641 19.3246 55.6462 19.3667C55.4284 19.4089 55.203 19.3857 54.9983 19.3001C54.7936 19.2144 54.6187 19.0702 54.4958 18.8855C54.3728 18.7008 54.3072 18.4839 54.3072 18.262C54.3026 18.1116 54.3292 17.9619 54.3851 17.8223C54.4411 17.6826 54.5253 17.556 54.6324 17.4504C54.7395 17.3448 54.8673 17.2624 55.0077 17.2084C55.1481 17.1544 55.2982 17.13 55.4485 17.1366ZM55.4485 17.4768C55.2932 17.4768 55.1414 17.5228 55.0122 17.6091C54.8831 17.6954 54.7825 17.818 54.723 17.9615C54.6636 18.105 54.648 18.2629 54.6783 18.4152C54.7086 18.5675 54.7834 18.7074 54.8932 18.8172C55.0031 18.9271 55.143 19.0018 55.2953 19.0321C55.4476 19.0624 55.6055 19.0469 55.749 18.9875C55.8925 18.928 56.0151 18.8274 56.1014 18.6982C56.1877 18.5691 56.2337 18.4173 56.2337 18.262C56.2393 18.1574 56.2228 18.0528 56.1854 17.955C56.1479 17.8572 56.0902 17.7684 56.0162 17.6943C55.9421 17.6203 55.8533 17.5626 55.7555 17.5251C55.6577 17.4876 55.5531 17.4712 55.4485 17.4768Z" fill="white" fill-opacity="0.7"/>
<path d="M57.1057 19.3348V17.1892H57.4641V18.1022H58.7058V17.1892H59.0619V19.3348H58.7058V18.4218H57.4641V19.3348H57.1057Z" fill="white" fill-opacity="0.7"/>
<path d="M61.8331 17.1366C62.0549 17.1398 62.2709 17.2085 62.4539 17.334C62.6368 17.4596 62.7786 17.6364 62.8613 17.8423C62.944 18.0482 62.964 18.2739 62.9188 18.4912C62.8736 18.7084 62.7652 18.9074 62.6072 19.0632C62.4492 19.219 62.2487 19.3246 62.0308 19.3667C61.813 19.4089 61.5875 19.3857 61.3828 19.3001C61.1781 19.2144 61.0033 19.0702 60.8803 18.8855C60.7574 18.7008 60.6918 18.4839 60.6917 18.262C60.6872 18.1116 60.7137 17.9619 60.7697 17.8223C60.8256 17.6826 60.9098 17.556 61.017 17.4504C61.1241 17.3448 61.2519 17.2624 61.3923 17.2084C61.5327 17.1544 61.6828 17.13 61.8331 17.1366ZM61.8331 17.4768C61.6778 17.4768 61.5259 17.5228 61.3968 17.6091C61.2677 17.6954 61.167 17.818 61.1076 17.9615C61.0482 18.105 61.0326 18.2629 61.0629 18.4152C61.0932 18.5675 61.168 18.7074 61.2778 18.8172C61.3876 18.9271 61.5275 19.0018 61.6799 19.0321C61.8322 19.0624 61.9901 19.0469 62.1336 18.9875C62.277 18.928 62.3997 18.8274 62.486 18.6982C62.5722 18.5691 62.6183 18.4173 62.6183 18.262C62.6235 18.1575 62.6068 18.0531 62.5692 17.9554C62.5316 17.8578 62.4739 17.7691 62.3999 17.6951C62.326 17.6211 62.2373 17.5635 62.1396 17.5259C62.042 17.4883 61.9376 17.4715 61.8331 17.4768Z" fill="white" fill-opacity="0.7"/>
<path d="M64.4901 19.3805C63.8441 19.3805 63.3784 18.9377 63.3784 18.125C63.3784 17.406 63.6546 16.9107 64.0404 16.6687C64.6567 16.2898 65.0813 16.4519 65.394 16.146V16.5226C65.0858 16.7509 64.7412 16.6482 64.2527 16.9335C63.9953 17.1075 63.8134 17.3726 63.7436 17.6754C63.8321 17.5486 63.9505 17.4457 64.0883 17.3756C64.226 17.3056 64.3789 17.2705 64.5334 17.2736C64.672 17.2699 64.8098 17.2943 64.9387 17.3452C65.0676 17.3962 65.1848 17.4727 65.2833 17.5702C65.3819 17.6676 65.4596 17.784 65.512 17.9123C65.5644 18.0406 65.5902 18.1782 65.588 18.3168C65.5857 18.9947 65.1383 19.3805 64.4901 19.3805ZM64.4901 19.0404C64.6796 19.0404 64.8613 18.9651 64.9953 18.8311C65.1293 18.6971 65.2045 18.5154 65.2045 18.3259C65.2045 18.1364 65.1293 17.9547 64.9953 17.8207C64.8613 17.6867 64.6796 17.6114 64.4901 17.6114C64.2967 17.6078 64.1098 17.6809 63.9703 17.8149C63.8308 17.9488 63.7501 18.1326 63.7459 18.3259C63.743 18.4226 63.7601 18.5189 63.7961 18.6086C63.8322 18.6984 63.8865 18.7797 63.9555 18.8475C64.0246 18.9152 64.1069 18.968 64.1973 19.0023C64.2877 19.0367 64.3843 19.052 64.4809 19.0472L64.4901 19.0404Z" fill="white" fill-opacity="0.7"/>
<path d="M67.2977 17.1366C67.5758 17.1647 67.8335 17.295 68.0209 17.5023C68.2083 17.7096 68.312 17.9791 68.312 18.2586C68.312 18.538 68.2083 18.8075 68.0209 19.0148C67.8335 19.2221 67.5758 19.3524 67.2977 19.3805C67.1404 19.3842 66.9842 19.3525 66.8408 19.2877C66.6974 19.2229 66.5703 19.1266 66.4691 19.0061V20.3164H66.1107V17.1892H66.4326V17.5544C66.5356 17.4236 66.667 17.318 66.8169 17.2456C66.9668 17.1733 67.1313 17.136 67.2977 17.1366ZM67.2589 17.4676C67.0901 17.4686 66.9253 17.5191 66.785 17.6129C66.6446 17.7066 66.5348 17.8394 66.4691 17.9949V18.5291C66.5348 18.6846 66.6446 18.8174 66.785 18.9111C66.9253 19.0049 67.0901 19.0554 67.2589 19.0564C67.4708 19.0564 67.674 18.9722 67.8238 18.8224C67.9737 18.6725 68.0578 18.4693 68.0578 18.2574C68.0578 18.0455 67.9737 17.8423 67.8238 17.6925C67.674 17.5427 67.4708 17.4585 67.2589 17.4585V17.4676Z" fill="white" fill-opacity="0.7"/>
<path d="M70.7856 19.0518C70.8415 19.0497 70.8968 19.0397 70.95 19.0221V19.312C70.8645 19.3437 70.7741 19.36 70.6829 19.36C70.598 19.3674 70.513 19.346 70.4418 19.2992C70.3705 19.2524 70.3172 19.1829 70.2903 19.102C70.0541 19.2919 69.7577 19.3908 69.4548 19.3805C69.0759 19.3805 68.6993 19.1796 68.6993 18.7277C68.6993 18.1753 69.2083 18.0041 69.6694 18.0041C69.8691 18.006 70.068 18.029 70.2629 18.0725V18.0109C70.2629 17.6891 70.0346 17.4745 69.6511 17.4745C69.3827 17.474 69.1171 17.5284 68.8705 17.6343V17.2805C69.1329 17.1872 69.4091 17.1386 69.6877 17.1366C70.2583 17.1366 70.619 17.4494 70.619 18.0497V18.8897C70.619 19.0176 70.692 19.0518 70.7856 19.0518ZM69.5302 19.0792C69.6675 19.0797 69.8035 19.0522 69.9298 18.9985C70.0562 18.9447 70.1703 18.8658 70.2652 18.7665V18.3738C70.0856 18.3363 69.903 18.3157 69.7196 18.3122C69.4069 18.3122 69.0691 18.4058 69.0691 18.7185C69.0668 18.9673 69.2928 19.0792 69.5302 19.0792Z" fill="white" fill-opacity="0.7"/>
<path d="M71.9749 19.3805C71.702 19.384 71.4317 19.3279 71.1828 19.2161V18.8829C71.4159 18.9948 71.6707 19.054 71.9292 19.0564C72.2693 19.0564 72.5821 18.9947 72.5821 18.7185C72.5821 18.4423 72.3218 18.4104 72.1073 18.4104H71.6348V18.0794H72.1027C72.3447 18.0794 72.5318 18.0086 72.5318 17.8009C72.5318 17.5932 72.2785 17.4631 71.9429 17.4631C71.6908 17.4655 71.4422 17.5232 71.2147 17.632V17.2964C71.4559 17.188 71.7173 17.1319 71.9817 17.1321C72.582 17.1321 72.8948 17.3786 72.8948 17.753C72.9001 17.8687 72.8625 17.9823 72.7892 18.0721C72.7159 18.1618 72.6121 18.2213 72.4976 18.2392C72.6196 18.2631 72.7298 18.3279 72.8099 18.423C72.89 18.518 72.9353 18.6376 72.9381 18.7619C72.9381 19.1636 72.5684 19.3805 71.9749 19.3805Z" fill="white" fill-opacity="0.7"/>
<path d="M74.463 17.1366C74.6848 17.1398 74.9008 17.2085 75.0837 17.334C75.2667 17.4596 75.4084 17.6364 75.4912 17.8423C75.5739 18.0482 75.5939 18.2739 75.5487 18.4912C75.5035 18.7084 75.3951 18.9074 75.2371 19.0632C75.0791 19.219 74.8786 19.3246 74.6607 19.3667C74.4429 19.4089 74.2174 19.3857 74.0127 19.3001C73.808 19.2144 73.6332 19.0702 73.5102 18.8855C73.3873 18.7008 73.3217 18.4839 73.3216 18.262C73.3171 18.1116 73.3436 17.9619 73.3996 17.8223C73.4555 17.6826 73.5397 17.556 73.6468 17.4504C73.754 17.3448 73.8817 17.2624 74.0222 17.2084C74.1626 17.1544 74.3127 17.13 74.463 17.1366ZM74.463 17.4768C74.3077 17.4768 74.1558 17.5228 74.0267 17.6091C73.8976 17.6954 73.7969 17.818 73.7375 17.9615C73.6781 18.105 73.6625 18.2629 73.6928 18.4152C73.7231 18.5675 73.7979 18.7074 73.9077 18.8172C74.0175 18.9271 74.1574 19.0018 74.3098 19.0321C74.4621 19.0624 74.62 19.0469 74.7634 18.9875C74.9069 18.928 75.0296 18.8274 75.1158 18.6982C75.2021 18.5691 75.2482 18.4173 75.2482 18.262C75.2534 18.1575 75.2367 18.0531 75.1991 17.9554C75.1615 17.8578 75.1038 17.7691 75.0298 17.6951C74.9558 17.6211 74.8672 17.5635 74.7695 17.5259C74.6719 17.4883 74.5675 17.4715 74.463 17.4768Z" fill="white" fill-opacity="0.7"/>
<path d="M76.1202 19.3348V17.1892H77.2957C77.6701 17.1892 77.9554 17.39 77.9554 17.7712C77.9574 17.8683 77.9317 17.964 77.8811 18.0469C77.8305 18.1298 77.7573 18.1965 77.6701 18.2392C77.7751 18.2734 77.8664 18.3404 77.9306 18.4304C77.9947 18.5204 78.0282 18.6286 78.0262 18.7391C78.0262 19.0929 77.7979 19.3348 77.3414 19.3348H76.1202ZM76.4785 18.0976H77.2592C77.4464 18.0976 77.5947 18.0246 77.5947 17.8055C77.5961 17.7624 77.5881 17.7196 77.5713 17.68C77.5544 17.6404 77.5292 17.6049 77.4972 17.576C77.4653 17.5471 77.4275 17.5255 77.3864 17.5127C77.3453 17.4999 77.3019 17.4962 77.2592 17.5019H76.4785V18.0976ZM76.4785 19.0107H77.282C77.5103 19.0107 77.6655 18.9422 77.6655 18.7071C77.6655 18.472 77.4738 18.3944 77.2957 18.3944H76.4785V19.0107Z" fill="white" fill-opacity="0.7"/>
<path d="M80.4755 19.0518C80.5314 19.0497 80.5867 19.0397 80.6398 19.0221V19.312C80.5543 19.3437 80.4639 19.36 80.3727 19.36C80.2878 19.3674 80.2029 19.346 80.1316 19.2992C80.0604 19.2524 80.007 19.1829 79.9801 19.102C79.7442 19.2923 79.4476 19.3912 79.1447 19.3805C78.7657 19.3805 78.3891 19.1796 78.3891 18.7277C78.3891 18.1753 78.8981 18.0041 79.3592 18.0041C79.5589 18.006 79.7578 18.029 79.9527 18.0725V18.0109C79.9527 17.6891 79.7245 17.4745 79.341 17.4745C79.0726 17.474 78.8069 17.5284 78.5603 17.6343V17.2805C78.8228 17.1872 79.099 17.1386 79.3775 17.1366C79.9482 17.1366 80.3111 17.4494 80.3111 18.0497V18.8897C80.3088 19.0176 80.3819 19.0518 80.4755 19.0518ZM79.22 19.0792C79.357 19.0795 79.4926 19.052 79.6185 18.9982C79.7445 18.9444 79.8582 18.8656 79.9527 18.7665V18.3738C79.7732 18.3362 79.5906 18.3155 79.4072 18.3122C79.0944 18.3122 78.7566 18.4058 78.7566 18.7185C78.7566 18.9673 78.9826 19.0792 79.22 19.0792Z" fill="white" fill-opacity="0.7"/>
<path d="M81.0256 19.3348V17.1892H81.3839V18.1022H82.6234V17.1892H82.9818V19.3348H82.6234V18.4218H81.3839V19.3348H81.0256Z" fill="white" fill-opacity="0.7"/>
<path d="M83.6438 19.3348V17.1892H83.9999V18.7573L85.3147 17.1892H85.6183V19.3348H85.2599V17.7667L83.9474 19.3348H83.6438Z" fill="white" fill-opacity="0.7"/>
<path d="M86.0748 19.3348L86.7002 18.5473C86.5526 18.5117 86.4214 18.4271 86.3282 18.3072C86.2349 18.1874 86.185 18.0395 86.1866 17.8876C86.1866 17.511 86.4674 17.1892 86.9901 17.1892H88.0447V19.3348H87.6818V18.5838H87.0792L86.4948 19.3348H86.0748ZM87.0152 18.262H87.6818V17.511H87.0152C86.7162 17.511 86.5382 17.6502 86.5382 17.8876C86.5382 18.125 86.7162 18.262 87.0152 18.262Z" fill="white" fill-opacity="0.7"/>
<path d="M49.8103 21.5513V24.6762H49.1415V22.752L48.3152 24.0051H47.9272L47.1008 22.7474V24.6762H46.432V21.5513H47.0529L48.1235 23.1765L49.1917 21.5513H49.8103Z" fill="white" fill-opacity="0.7"/>
<path d="M51.4173 22.4712C52.0428 22.4712 52.602 22.8547 52.602 23.6125C52.602 24.3704 52.0428 24.7538 51.4173 24.7538C50.7919 24.7538 50.2349 24.3704 50.2349 23.6125C50.2349 22.8547 50.7965 22.4712 51.4173 22.4712ZM51.4173 23.0236C51.3011 23.0181 51.1859 23.0476 51.0866 23.1083C50.9873 23.1689 50.9084 23.2579 50.8602 23.3638C50.812 23.4697 50.7966 23.5876 50.8161 23.7024C50.8355 23.8171 50.8889 23.9233 50.9693 24.0074C51.0498 24.0915 51.1536 24.1495 51.2673 24.174C51.3811 24.1986 51.4996 24.1884 51.6075 24.1449C51.7154 24.1014 51.8078 24.0266 51.8728 23.9301C51.9378 23.8335 51.9723 23.7198 51.972 23.6034C51.9776 23.5284 51.9672 23.4531 51.9415 23.3824C51.9158 23.3117 51.8754 23.2473 51.823 23.1933C51.7706 23.1394 51.7073 23.0972 51.6374 23.0695C51.5675 23.0418 51.4925 23.0293 51.4173 23.0327V23.0236Z" fill="white" fill-opacity="0.7"/>
<path d="M53.805 22.4712C54.0795 22.4709 54.3504 22.5334 54.5971 22.6538V23.1628C54.3719 23.0205 54.1124 22.9416 53.8461 22.9346C53.7068 22.9346 53.547 22.9757 53.547 23.1035C53.547 23.4619 54.7568 23.2838 54.7568 24.0691C54.7568 24.5735 54.3003 24.7287 53.7844 24.7287C53.4873 24.7368 53.1931 24.6676 52.9307 24.5279V24.0234C53.1776 24.1717 53.4599 24.2506 53.7479 24.2517C53.9762 24.2517 54.1223 24.2106 54.1223 24.0919C54.1223 23.7472 52.9125 23.9001 52.9125 23.1309C52.917 22.6356 53.3553 22.4712 53.805 22.4712Z" fill="white" fill-opacity="0.7"/>
<path d="M56.2246 22.4666C56.4546 22.4638 56.6818 22.5171 56.8866 22.6219V23.1674C56.714 23.0621 56.5158 23.006 56.3136 23.0053C55.9758 23.0053 55.6494 23.172 55.6494 23.6034C55.6486 23.6871 55.6655 23.77 55.699 23.8467C55.7324 23.9234 55.7816 23.9922 55.8434 24.0486C55.9052 24.1051 55.9782 24.1478 56.0577 24.1742C56.1371 24.2005 56.2212 24.2098 56.3045 24.2014C56.5155 24.2035 56.7233 24.1499 56.9071 24.0462V24.5963C56.6787 24.6919 56.4333 24.7401 56.1858 24.7379C55.6014 24.7379 55.0148 24.4 55.0148 23.6354C55.0148 22.8045 55.6311 22.4666 56.2246 22.4666Z" fill="white" fill-opacity="0.7"/>
<path d="M58.3954 22.4712C59.0186 22.4712 59.5778 22.8547 59.5778 23.6125C59.5778 24.3704 59.0186 24.7538 58.3954 24.7538C57.7722 24.7538 57.2107 24.3704 57.2107 23.6125C57.2107 22.8547 57.7654 22.4712 58.3954 22.4712ZM58.3954 23.0327C58.2791 23.0268 58.1637 23.0559 58.0641 23.1162C57.9645 23.1766 57.8853 23.2654 57.8367 23.3712C57.7881 23.4771 57.7724 23.5951 57.7916 23.7099C57.8108 23.8248 57.864 23.9313 57.9443 24.0156C58.0246 24.0999 58.1284 24.1582 58.2422 24.1829C58.356 24.2076 58.4746 24.1976 58.5827 24.1542C58.6907 24.1108 58.7833 24.036 58.8484 23.9394C58.9135 23.8428 58.9481 23.729 58.9478 23.6125C58.9547 23.537 58.9454 23.4609 58.9204 23.3892C58.8955 23.3176 58.8555 23.2521 58.8032 23.1972C58.7509 23.1423 58.6874 23.0992 58.6171 23.0709C58.5468 23.0425 58.4712 23.0295 58.3954 23.0327Z" fill="white" fill-opacity="0.7"/>
<path d="M63.246 22.5328L62.5612 24.6762H61.9061L61.4815 23.2793L61.057 24.6762H60.3973L59.7125 22.5328H60.3722L60.7602 24.0006L61.1894 22.5328H61.7783L62.2028 24.0006L62.5955 22.5328H63.246Z" fill="white" fill-opacity="0.7"/>
<path d="M64.7685 22.1767C64.6998 22.1741 64.6333 22.1512 64.5773 22.1111C64.5214 22.071 64.4785 22.0153 64.4539 21.951C64.4293 21.8868 64.4242 21.8167 64.439 21.7495C64.4539 21.6822 64.4882 21.6209 64.5377 21.573C64.5871 21.5251 64.6495 21.4928 64.7171 21.48C64.7848 21.4673 64.8547 21.4747 64.9182 21.5013C64.9816 21.5279 65.0359 21.5726 65.0742 21.6297C65.1126 21.6869 65.1333 21.7541 65.1338 21.8229C65.1374 21.8713 65.1303 21.9199 65.1131 21.9652C65.0958 22.0106 65.0688 22.0516 65.034 22.0854C64.9992 22.1191 64.9573 22.1448 64.9114 22.1606C64.8656 22.1764 64.8168 22.1819 64.7685 22.1767ZM64.4604 24.6877V22.5328H65.0813V24.6762L64.4604 24.6877Z" fill="white" fill-opacity="0.7"/>
<path d="M66.88 22.4712C66.9972 22.4634 67.1147 22.4808 67.2247 22.5223C67.3346 22.5637 67.4343 22.6283 67.5172 22.7116C67.6 22.7949 67.6641 22.895 67.705 23.0051C67.7459 23.1152 67.7627 23.2328 67.7543 23.35V24.6762H67.1334V23.4299C67.1396 23.3736 67.1334 23.3166 67.115 23.2631C67.0966 23.2095 67.0666 23.1606 67.0271 23.12C66.9876 23.0794 66.9396 23.0481 66.8865 23.0283C66.8334 23.0084 66.7767 23.0006 66.7202 23.0053C66.6243 23.0095 66.5307 23.0365 66.4473 23.0842C66.3639 23.1318 66.2931 23.1987 66.2409 23.2793V24.6762H65.6223V22.5328H66.1564V22.8045C66.2445 22.6985 66.3553 22.6136 66.4805 22.5559C66.6057 22.4982 66.7422 22.4693 66.88 22.4712Z" fill="white" fill-opacity="0.7"/>
<path d="M69.0097 21.7613V22.5328H69.6945V23.0556H69.0097V23.8956C69.0097 24.1238 69.1216 24.2151 69.3521 24.2151C69.4849 24.2179 69.6169 24.1939 69.7402 24.1444V24.6443C69.5552 24.7082 69.3606 24.7399 69.1649 24.7379C68.7495 24.7379 68.3934 24.5461 68.3934 24.0143V23.0556H68.0304V22.5328H68.3934V21.9074L69.0097 21.7613Z" fill="white" fill-opacity="0.7"/>
<path d="M71.0801 22.4712C71.968 22.4712 72.2534 23.172 72.1118 23.8043H70.603C70.6738 24.117 71.0047 24.2471 71.3563 24.2471C71.5791 24.25 71.8001 24.2057 72.0045 24.117V24.6055C71.7539 24.7004 71.4872 24.7454 71.2193 24.7379C70.5345 24.7379 69.9775 24.3498 69.9775 23.5965C69.9713 23.449 69.9953 23.3018 70.0482 23.1639C70.1011 23.0261 70.1817 22.9005 70.285 22.795C70.3884 22.6896 70.5122 22.6064 70.649 22.5507C70.7857 22.495 70.9325 22.4679 71.0801 22.4712ZM71.1029 22.9437C71.0395 22.9391 70.9757 22.9473 70.9156 22.968C70.8555 22.9887 70.8001 23.0213 70.753 23.064C70.7058 23.1067 70.6678 23.1585 70.6412 23.2163C70.6147 23.2741 70.6001 23.3367 70.5984 23.4002H71.5526C71.5597 23.3392 71.5531 23.2772 71.5331 23.2191C71.5131 23.1609 71.4804 23.108 71.4372 23.0641C71.3941 23.0203 71.3416 22.9868 71.2837 22.9659C71.2259 22.9451 71.1641 22.9375 71.1029 22.9437Z" fill="white" fill-opacity="0.7"/>
<path d="M73.9539 22.4895V23.0921C73.8043 23.0558 73.6469 23.0675 73.5043 23.1257C73.3617 23.1839 73.2411 23.2856 73.1596 23.4162V24.6762H72.5478V22.5328H73.0979V22.8547C73.193 22.7208 73.3233 22.6158 73.4744 22.5513C73.6255 22.4869 73.7914 22.4654 73.9539 22.4895Z" fill="white" fill-opacity="0.7"/>
<path d="M75.5472 22.4712C75.665 22.4624 75.7833 22.479 75.894 22.52C76.0048 22.561 76.1054 22.6254 76.189 22.7088C76.2726 22.7922 76.3373 22.8927 76.3786 23.0033C76.4199 23.114 76.4368 23.2322 76.4283 23.35V24.6762H75.8074V23.4299C75.8138 23.3734 75.8074 23.3162 75.7889 23.2624C75.7704 23.2087 75.7402 23.1597 75.7004 23.1191C75.6607 23.0784 75.6124 23.0472 75.559 23.0275C75.5057 23.0078 75.4486 23.0002 75.392 23.0053C75.2964 23.0095 75.2031 23.0365 75.1201 23.0842C75.0371 23.1319 74.9667 23.1988 74.9149 23.2793V24.6762H74.294V22.5328H74.8305V22.8045C74.9181 22.6996 75.0277 22.6154 75.1516 22.5578C75.2755 22.5002 75.4106 22.4706 75.5472 22.4712Z" fill="white" fill-opacity="0.7"/>
<path d="M78.9849 24.2654C79.0244 24.2657 79.0637 24.2595 79.1013 24.2471V24.6534C78.9908 24.6935 78.8742 24.7143 78.7566 24.715C78.6633 24.7231 78.5697 24.7049 78.4862 24.6626C78.4027 24.6202 78.3327 24.5554 78.2841 24.4754C78.0655 24.6503 77.7925 24.7432 77.5126 24.7379C77.1108 24.7379 76.7616 24.5096 76.7616 24.0828C76.7616 23.5372 77.2752 23.3683 77.7043 23.3683C77.8755 23.3695 78.0461 23.3886 78.2133 23.4253V23.35C78.2133 23.1355 78.0421 22.9894 77.7089 22.9894C77.4477 22.9942 77.1898 23.0485 76.9488 23.1491V22.6127C77.2172 22.5246 77.4972 22.4769 77.7796 22.4712C78.4234 22.4712 78.8342 22.7337 78.8342 23.439V24.1238C78.8327 24.1436 78.8356 24.1635 78.8427 24.182C78.8499 24.2005 78.8611 24.2172 78.8756 24.2308C78.89 24.2444 78.9074 24.2545 78.9263 24.2605C78.9452 24.2665 78.9652 24.2682 78.9849 24.2654ZM77.387 24.0371C77.387 24.1992 77.5331 24.3019 77.7226 24.3019C77.8995 24.3056 78.0713 24.2429 78.2042 24.1261V23.7883C78.084 23.7579 77.9607 23.741 77.8367 23.7381C77.6199 23.7381 77.3962 23.8134 77.3962 24.0325L77.387 24.0371Z" fill="white" fill-opacity="0.7"/>
<path d="M80.149 21.7613V22.5328H80.8338V23.0556H80.149V23.8956C80.149 24.1238 80.2609 24.2151 80.4937 24.2151C80.6265 24.2177 80.7584 24.1936 80.8818 24.1444V24.6443C80.6968 24.7082 80.5022 24.7399 80.3065 24.7379C79.8911 24.7379 79.535 24.5461 79.535 24.0143V23.0556H79.1675V22.5328H79.5304V21.9074L80.149 21.7613Z" fill="white" fill-opacity="0.7"/>
<path d="M81.5506 22.1767C81.4819 22.1736 81.4157 22.1504 81.3601 22.11C81.3044 22.0697 81.2619 22.0139 81.2376 21.9496C81.2134 21.8852 81.2085 21.8152 81.2237 21.7482C81.2388 21.6811 81.2732 21.62 81.3228 21.5723C81.3723 21.5247 81.4347 21.4926 81.5023 21.48C81.5698 21.4674 81.6396 21.4749 81.7029 21.5016C81.7663 21.5282 81.8204 21.5729 81.8587 21.63C81.8969 21.6871 81.9176 21.7542 81.9181 21.8229C81.9218 21.8715 81.9147 21.9203 81.8973 21.9659C81.8799 22.0114 81.8527 22.0525 81.8176 22.0863C81.7825 22.1201 81.7404 22.1458 81.6942 22.1614C81.648 22.177 81.599 22.1823 81.5506 22.1767ZM81.2424 24.6877V22.5328H81.8633V24.6762L81.2424 24.6877Z" fill="white" fill-opacity="0.7"/>
<path d="M83.4612 22.4712C84.0866 22.4712 84.6459 22.8547 84.6459 23.6125C84.6459 24.3704 84.0866 24.7538 83.4612 24.7538C82.8357 24.7538 82.2787 24.3704 82.2787 23.6125C82.2787 22.8547 82.8426 22.4712 83.4612 22.4712ZM83.4612 23.0236C83.3449 23.0181 83.2297 23.0476 83.1304 23.1083C83.0311 23.1689 82.9522 23.2579 82.904 23.3638C82.8558 23.4697 82.8404 23.5876 82.8599 23.7024C82.8793 23.8171 82.9327 23.9233 83.0132 24.0074C83.0936 24.0915 83.1974 24.1495 83.3111 24.174C83.4249 24.1986 83.5434 24.1884 83.6513 24.1449C83.7592 24.1014 83.8517 24.0266 83.9166 23.9301C83.9816 23.8335 84.0162 23.7198 84.0158 23.6034C84.0214 23.5284 84.011 23.4531 83.9853 23.3824C83.9596 23.3117 83.9192 23.2473 83.8668 23.1933C83.8144 23.1394 83.7511 23.0972 83.6812 23.0695C83.6113 23.0418 83.5363 23.0293 83.4612 23.0327V23.0236Z" fill="white" fill-opacity="0.7"/>
<path d="M86.3145 22.4712C86.4313 22.4641 86.5483 22.482 86.6577 22.5238C86.7671 22.5655 86.8662 22.6302 86.9486 22.7134C87.0309 22.7966 87.0945 22.8965 87.1352 23.0063C87.1758 23.116 87.1925 23.2333 87.1842 23.35V24.6762H86.5633V23.4299C86.5695 23.3736 86.5633 23.3166 86.5449 23.2631C86.5265 23.2095 86.4965 23.1606 86.457 23.12C86.4175 23.0794 86.3695 23.0481 86.3164 23.0283C86.2634 23.0084 86.2066 23.0006 86.1501 23.0053C86.0542 23.0095 85.9606 23.0365 85.8772 23.0842C85.7938 23.1318 85.7231 23.1987 85.6708 23.2793V24.6762H85.0499V22.5328H85.6V22.8045C85.6872 22.6997 85.7964 22.6155 85.9199 22.5579C86.0434 22.5002 86.1782 22.4706 86.3145 22.4712Z" fill="white" fill-opacity="0.7"/>
<path d="M89.7521 24.2654C89.7909 24.2657 89.8295 24.2595 89.8663 24.2471V24.6534C89.7565 24.6935 89.6407 24.7143 89.5239 24.715C89.4306 24.7234 89.3368 24.7053 89.2533 24.663C89.1697 24.6206 89.0998 24.5556 89.0514 24.4754C88.8319 24.6503 88.5582 24.7431 88.2775 24.7379C87.8758 24.7379 87.5288 24.5096 87.5288 24.0828C87.5288 23.5372 88.0424 23.3683 88.4693 23.3683C88.6405 23.3692 88.8111 23.3883 88.9783 23.4253V23.35C88.9783 23.1355 88.8094 22.9894 88.4738 22.9894C88.2134 22.9941 87.9562 23.0483 87.716 23.1491V22.6127C87.9844 22.5243 88.2644 22.4766 88.5469 22.4712C89.1883 22.4712 89.5992 22.7337 89.5992 23.439V24.1238C89.5992 24.2334 89.6677 24.2654 89.7521 24.2654ZM88.1543 24.0371C88.1543 24.1992 88.3027 24.3019 88.4898 24.3019C88.6668 24.306 88.8388 24.2432 88.9715 24.1261V23.7883C88.852 23.7579 88.7295 23.741 88.6062 23.7381C88.3848 23.7381 88.1611 23.8134 88.1611 24.0325L88.1543 24.0371Z" fill="white" fill-opacity="0.7"/>
<path d="M90.7907 21.4166V24.6762H90.1699V21.4166H90.7907Z" fill="white" fill-opacity="0.7"/>
<path d="M47.3428 27.8263C48.2308 27.8263 48.5161 28.5271 48.3746 29.1616H46.8657C46.9365 29.4744 47.2675 29.6045 47.619 29.6045C47.8418 29.6062 48.0625 29.562 48.2673 29.4744V29.9606C48.0168 30.0563 47.7501 30.102 47.482 30.0952C46.7973 30.0952 46.2403 29.7072 46.2403 28.9539C46.2337 28.8062 46.2575 28.6587 46.3102 28.5206C46.363 28.3825 46.4435 28.2566 46.5469 28.1509C46.6503 28.0452 46.7742 27.9618 46.9112 27.906C47.0481 27.8501 47.195 27.823 47.3428 27.8263ZM47.3656 28.3011C47.3022 28.2964 47.2385 28.3047 47.1783 28.3254C47.1182 28.3461 47.0629 28.3787 47.0157 28.4214C46.9685 28.4641 46.9305 28.5159 46.904 28.5737C46.8774 28.6315 46.8628 28.694 46.8612 28.7576H47.8153C47.8225 28.6965 47.8158 28.6346 47.7958 28.5765C47.7759 28.5183 47.7431 28.4653 47.6999 28.4215C47.6568 28.3777 47.6043 28.3441 47.5465 28.3233C47.4886 28.3024 47.4268 28.2949 47.3656 28.3011Z" fill="white" fill-opacity="0.7"/>
<path d="M51.0521 26.9132V30.0382H50.5066V29.7255C50.4183 29.8473 50.3012 29.9455 50.1658 30.0112C50.0304 30.0769 49.8808 30.1081 49.7305 30.1021C49.0457 30.1021 48.6827 29.552 48.6827 28.9608C48.6827 28.3696 49.0479 27.8194 49.7305 27.8194C49.8619 27.815 49.9927 27.8385 50.1143 27.8885C50.2359 27.9385 50.3455 28.0138 50.4358 28.1093V26.9132H51.0521ZM49.8788 28.3559C49.7257 28.3691 49.5831 28.4393 49.4792 28.5526C49.3753 28.6658 49.3177 28.8139 49.3177 28.9676C49.3177 29.1213 49.3753 29.2694 49.4792 29.3827C49.5831 29.4959 49.7257 29.5661 49.8788 29.5794C49.9964 29.58 50.1116 29.5464 50.2105 29.4828C50.3093 29.4192 50.3876 29.3282 50.4358 29.221V28.7142C50.3886 28.6057 50.3108 28.5133 50.2119 28.4485C50.1129 28.3836 49.9972 28.349 49.8788 28.349V28.3559Z" fill="white" fill-opacity="0.7"/>
<path d="M53.6863 27.8902V30.0313H53.1453V29.7597C53.0579 29.8644 52.9487 29.9487 52.8253 30.0067C52.7018 30.0647 52.5672 30.0949 52.4308 30.0952C52.3134 30.104 52.1955 30.0871 52.0852 30.0457C51.975 30.0043 51.8751 29.9395 51.7923 29.8557C51.7096 29.7719 51.6461 29.6711 51.6062 29.5604C51.5663 29.4496 51.5509 29.3314 51.5611 29.2141V27.8902H52.182V29.1343C52.1745 29.1906 52.1798 29.2479 52.1976 29.3019C52.2154 29.3559 52.2452 29.4051 52.2847 29.446C52.3242 29.4868 52.3725 29.5182 52.4259 29.5377C52.4792 29.5573 52.5363 29.5645 52.5929 29.5588C52.6888 29.5542 52.7823 29.5272 52.8659 29.4801C52.9495 29.4329 53.021 29.3669 53.0745 29.2872V27.8902H53.6863Z" fill="white" fill-opacity="0.7"/>
<path d="M55.3024 27.8263C55.5318 27.8246 55.7582 27.8786 55.9621 27.9838V28.5271C55.7902 28.4224 55.5927 28.3671 55.3914 28.3673C55.0513 28.3673 54.7249 28.5316 54.7249 28.9653C54.7241 29.0492 54.7411 29.1323 54.7747 29.2092C54.8082 29.2861 54.8577 29.3551 54.9197 29.4115C54.9818 29.468 55.0551 29.5107 55.1348 29.5369C55.2145 29.563 55.2988 29.5721 55.3823 29.5634C55.5932 29.5649 55.8009 29.5114 55.9849 29.4082V29.956C55.7559 30.0522 55.5097 30.1012 55.2613 30.0998C54.677 30.0998 54.0926 29.7597 54.0926 28.9973C54.0926 28.171 54.7066 27.8263 55.3024 27.8263Z" fill="white" fill-opacity="0.7"/>
<path d="M58.4662 29.6205C58.5055 29.6205 58.5447 29.6151 58.5826 29.6045V30.0108C58.4718 30.0498 58.3554 30.0706 58.2379 30.0724C58.1443 30.0808 58.0503 30.0625 57.9667 30.0197C57.8831 29.9769 57.8133 29.9113 57.7654 29.8305C57.5474 30.0067 57.2742 30.1005 56.9938 30.0952C56.5921 30.0952 56.2429 29.867 56.2429 29.4378C56.2429 28.8946 56.7564 28.7234 57.1856 28.7234C57.3569 28.7242 57.5277 28.7441 57.6946 28.7827V28.7074C57.6946 28.4928 57.5234 28.3445 57.1902 28.3445C56.9287 28.3489 56.6706 28.4039 56.43 28.5065V27.9701C56.6957 27.8803 56.9736 27.8318 57.2541 27.8263C57.8978 27.8263 58.3064 28.0911 58.3064 28.7964V29.4812C58.3132 29.5908 58.3954 29.6205 58.4662 29.6205ZM56.8683 29.3922C56.8683 29.552 57.0144 29.6547 57.2016 29.6547C57.3789 29.6596 57.5516 29.5977 57.6855 29.4812V29.1457C57.5651 29.1161 57.4419 29.1 57.318 29.0977C57.1011 29.0954 56.8774 29.1708 56.8774 29.3899L56.8683 29.3922Z" fill="white" fill-opacity="0.7"/>
<path d="M59.6303 27.1164V27.8902H60.3151V28.4107H59.6303V29.2507C59.6303 29.4789 59.7422 29.5725 59.975 29.5725C60.1077 29.5738 60.2393 29.5498 60.363 29.5018V30.0017C60.1778 30.0645 59.9834 30.0961 59.7878 30.0952C59.3724 30.0952 59.014 29.9035 59.014 29.3716V28.4107H58.6533V27.8902H59.014V27.2648L59.6303 27.1164Z" fill="white" fill-opacity="0.7"/>
<path d="M61.0319 27.5318C60.9631 27.5287 60.8968 27.5055 60.8411 27.465C60.7854 27.4245 60.7429 27.3686 60.7187 27.3041C60.6945 27.2397 60.6898 27.1696 60.7051 27.1025C60.7204 27.0353 60.7551 26.9742 60.8048 26.9266C60.8546 26.8791 60.9172 26.8471 60.9849 26.8348C61.0526 26.8225 61.1225 26.8303 61.1858 26.8573C61.2491 26.8844 61.3031 26.9294 61.341 26.9868C61.379 27.0442 61.3993 27.1115 61.3994 27.1803C61.4027 27.2287 61.3953 27.2773 61.3778 27.3225C61.3603 27.3678 61.333 27.4086 61.2979 27.4421C61.2629 27.4757 61.2209 27.5011 61.1749 27.5166C61.1289 27.5321 61.0801 27.5373 61.0319 27.5318ZM60.7237 30.0427V27.8902H61.3446V30.0313L60.7237 30.0427Z" fill="white" fill-opacity="0.7"/>
<path d="M62.9424 27.8263C63.5679 27.8263 64.1248 28.2098 64.1248 28.9676C64.1248 29.7255 63.5679 30.1089 62.9424 30.1089C62.317 30.1089 61.76 29.7255 61.76 28.9676C61.76 28.2098 62.3215 27.8263 62.9424 27.8263ZM62.9424 28.381C62.8268 28.376 62.7124 28.4057 62.6138 28.4663C62.5152 28.5268 62.437 28.6155 62.3892 28.7209C62.3414 28.8263 62.3263 28.9436 62.3458 29.0577C62.3652 29.1718 62.4184 29.2774 62.4984 29.361C62.5784 29.4446 62.6816 29.5024 62.7947 29.5269C62.9078 29.5514 63.0256 29.5415 63.133 29.4984C63.2404 29.4554 63.3325 29.3812 63.3974 29.2853C63.4623 29.1895 63.497 29.0765 63.4971 28.9608C63.5044 28.885 63.4953 28.8085 63.4704 28.7365C63.4455 28.6645 63.4053 28.5988 63.3526 28.5437C63.3 28.4887 63.2361 28.4457 63.1653 28.4176C63.0945 28.3895 63.0185 28.377 62.9424 28.381Z" fill="white" fill-opacity="0.7"/>
<path d="M65.7957 27.8263C65.9128 27.8191 66.03 27.8371 66.1396 27.879C66.2491 27.9209 66.3484 27.9858 66.4308 28.0692C66.5132 28.1527 66.5767 28.2528 66.6172 28.3629C66.6577 28.473 66.6741 28.5904 66.6654 28.7074V30.0313H66.0445V28.7873C66.0509 28.7308 66.0445 28.6736 66.026 28.6198C66.0075 28.5661 65.9773 28.5171 65.9375 28.4765C65.8978 28.4358 65.8495 28.4045 65.7961 28.3849C65.7428 28.3652 65.6857 28.3576 65.6291 28.3627C65.5338 28.3673 65.441 28.3943 65.3581 28.4415C65.2752 28.4887 65.2046 28.5548 65.152 28.6344V30.0313H64.5312V27.8902H65.0813V28.1618C65.1683 28.0568 65.2775 27.9722 65.401 27.9142C65.5245 27.8562 65.6593 27.8262 65.7957 27.8263Z" fill="white" fill-opacity="0.7"/>
<path d="M68.366 30.0313V28.4107H67.9962V27.8902H68.366V27.6802C68.366 27.0319 68.8043 26.8448 69.2106 26.8448C69.3894 26.8436 69.5671 26.8738 69.7356 26.9338V27.4565C69.6214 27.3971 69.4945 27.3666 69.3658 27.3675C69.1649 27.3675 68.9823 27.4382 68.9823 27.7076V27.8902H69.6374V28.4107H68.9823V30.0313H68.366Z" fill="white" fill-opacity="0.7"/>
<path d="M72 29.6205C72.0393 29.6202 72.0784 29.6148 72.1164 29.6045V30.0108C72.0056 30.0498 71.8892 30.0706 71.7717 30.0724C71.6781 30.0808 71.5841 30.0625 71.5005 30.0197C71.4169 29.9769 71.3471 29.9113 71.2992 29.8305C71.0805 30.0071 70.8065 30.1008 70.5254 30.0952C70.1236 30.0952 69.7767 29.867 69.7767 29.4378C69.7767 28.8946 70.2903 28.7234 70.7194 28.7234C70.89 28.724 71.06 28.7439 71.2262 28.7827V28.7074C71.2262 28.4928 71.0572 28.3445 70.724 28.3445C70.4625 28.3486 70.2043 28.4036 69.9639 28.5065V27.9701C70.2317 27.8796 70.512 27.8311 70.7947 27.8263C71.4362 27.8263 71.847 28.0911 71.847 28.7964V29.4812C71.847 29.5908 71.9201 29.6205 72 29.6205ZM70.4021 29.3922C70.4021 29.552 70.5482 29.6547 70.7354 29.6547C70.9121 29.6599 71.0842 29.5979 71.217 29.4812V29.1457C71.0975 29.1161 70.975 29.1 70.8518 29.0977C70.6327 29.0954 70.4113 29.1708 70.4113 29.3899L70.4021 29.3922Z" fill="white" fill-opacity="0.7"/>
<path d="M72.7236 27.5318C72.6547 27.5291 72.5881 27.5063 72.5322 27.466C72.4762 27.4258 72.4333 27.37 72.4087 27.3056C72.3842 27.2412 72.3792 27.171 72.3943 27.1037C72.4093 27.0365 72.4438 26.9751 72.4935 26.9273C72.5432 26.8795 72.6058 26.8474 72.6736 26.8349C72.7414 26.8224 72.8113 26.8301 72.8748 26.8571C72.9382 26.884 72.9923 26.929 73.0304 26.9865C73.0684 27.044 73.0887 27.1114 73.0888 27.1803C73.0921 27.2285 73.0847 27.2768 73.0674 27.3219C73.05 27.367 73.0229 27.4077 72.9881 27.4412C72.9533 27.4747 72.9116 27.5001 72.8659 27.5158C72.8202 27.5315 72.7716 27.5369 72.7236 27.5318ZM72.4154 30.0427V27.8902H73.034V30.0313L72.4154 30.0427Z" fill="white" fill-opacity="0.7"/>
<path d="M74.9857 27.8446V28.4472C74.8358 28.4111 74.6783 28.4232 74.5357 28.4818C74.393 28.5404 74.2725 28.6425 74.1913 28.7736V30.0313H73.5704V27.8902H74.1206V28.2098C74.2171 28.0751 74.349 27.9697 74.5017 27.9053C74.6543 27.8408 74.8218 27.8198 74.9857 27.8446Z" fill="white" fill-opacity="0.7"/>
</g>
<path d="M114.649 13.7766H113.808V16.0679H114.649V13.7766Z" fill="white" fill-opacity="0.7"/>
<path d="M116.099 13.7766H115.258V16.0679H116.099V13.7766Z" fill="white" fill-opacity="0.7"/>
<path d="M117.549 13.7766H116.708V16.0679H117.549V13.7766Z" fill="white" fill-opacity="0.7"/>
<path d="M119.028 13.7766H118.187V16.0679H119.028V13.7766Z" fill="white" fill-opacity="0.7"/>
<path d="M120.478 13.7766H119.579V16.0679H120.478V13.7766Z" fill="white" fill-opacity="0.7"/>
<path d="M121.929 13.7766H121.029V16.0679H121.929V13.7766Z" fill="white" fill-opacity="0.7"/>
<path d="M123.35 13.7766H122.509V16.0679H123.35V13.7766Z" fill="white" fill-opacity="0.7"/>
<path d="M124.8 13.7766H123.959V16.0679H124.8V13.7766Z" fill="white" fill-opacity="0.7"/>
<path d="M126.25 13.7766H125.409V16.0679H126.25V13.7766Z" fill="white" fill-opacity="0.7"/>
<path d="M127.729 13.7766H126.888V16.0679H127.729V13.7766Z" fill="white" fill-opacity="0.7"/>
<path d="M129.179 13.7766H128.28V16.0679H129.179V13.7766Z" fill="white" fill-opacity="0.7"/>
<path d="M130.63 13.7766H129.73V16.0679H130.63V13.7766Z" fill="white" fill-opacity="0.7"/>
<path d="M132.051 13.7766H131.21V16.0679H132.051V13.7766Z" fill="white" fill-opacity="0.7"/>
<path d="M133.501 13.7766H132.66V16.0679H133.501V13.7766Z" fill="white" fill-opacity="0.7"/>
<path d="M134.951 13.7766H134.11V16.0679H134.951V13.7766Z" fill="white" fill-opacity="0.7"/>
<path d="M136.43 13.7766H135.589V16.0679H136.43V13.7766Z" fill="white" fill-opacity="0.7"/>
<path d="M114.649 16.3289H113.808V17.228H114.649V16.3289Z" fill="white" fill-opacity="0.7"/>
<path d="M116.099 16.3289H115.258V17.228H116.099V16.3289Z" fill="white" fill-opacity="0.7"/>
<path d="M117.549 16.3289H116.708V17.228H117.549V16.3289Z" fill="white" fill-opacity="0.7"/>
<path d="M119.028 16.3289H118.187V17.228H119.028V16.3289Z" fill="white" fill-opacity="0.7"/>
<path d="M119.579 16.3289H120.478V17.257H119.579V16.3289Z" fill="white" fill-opacity="0.7"/>
<path d="M121.029 16.3579L121.929 16.3289V17.257H121.029V16.3579Z" fill="white" fill-opacity="0.7"/>
<path d="M123.35 16.3289H122.509V17.228H123.35V16.3289Z" fill="white" fill-opacity="0.7"/>
<path d="M124.8 16.3289H123.959V17.228H124.8V16.3289Z" fill="white" fill-opacity="0.7"/>
<path d="M126.25 16.3289H125.409V17.228H126.25V16.3289Z" fill="white" fill-opacity="0.7"/>
<path d="M127.729 16.3289H126.888V17.228H127.729V16.3289Z" fill="white" fill-opacity="0.7"/>
<path d="M128.28 16.3289L129.179 16.3579V17.257H128.28V16.3289Z" fill="white" fill-opacity="0.7"/>
<path d="M129.73 16.3579L130.63 16.3289V17.257H129.73V16.3579Z" fill="white" fill-opacity="0.7"/>
<path d="M132.051 16.3289H131.21V17.228H132.051V16.3289Z" fill="white" fill-opacity="0.7"/>
<path d="M133.501 16.3289H132.66V17.228H133.501V16.3289Z" fill="white" fill-opacity="0.7"/>
<path d="M134.951 16.3289H134.11V17.228H134.951V16.3289Z" fill="white" fill-opacity="0.7"/>
<path d="M136.43 16.3289H135.589V17.228H136.43V16.3289Z" fill="white" fill-opacity="0.7"/>
<path d="M116.621 11.9784H115.867V12.2974H116.621V11.9784Z" fill="white" fill-opacity="0.7"/>
<path d="M117.81 11.9784H116.969V12.2974H117.81V11.9784Z" fill="white" fill-opacity="0.7"/>
<path d="M118.999 11.9784H118.158V12.2974H118.999V11.9784Z" fill="white" fill-opacity="0.7"/>
<path d="M120.101 11.9784H119.347V12.2974H120.101V11.9784Z" fill="white" fill-opacity="0.7"/>
<path d="M125.96 11.9784H125.119V12.2974H125.96V11.9784Z" fill="white" fill-opacity="0.7"/>
<path d="M124.771 11.9784H123.93V12.2974H124.771V11.9784Z" fill="white" fill-opacity="0.7"/>
<path d="M123.582 11.9784H122.828V12.2974H123.582V11.9784Z" fill="white" fill-opacity="0.7"/>
<path d="M121.29 11.9784H120.449V12.2974H121.29V11.9784Z" fill="white" fill-opacity="0.7"/>
<path d="M122.48 11.9784H121.638V12.2974H122.48V11.9784Z" fill="white" fill-opacity="0.7"/>
<path d="M132.921 11.9784H132.08V12.2974H132.921V11.9784Z" fill="white" fill-opacity="0.7"/>
<path d="M131.732 11.9784H130.891V12.2974H131.732V11.9784Z" fill="white" fill-opacity="0.7"/>
<path d="M130.543 11.9784H129.788V12.2974H130.543V11.9784Z" fill="white" fill-opacity="0.7"/>
<path d="M129.44 11.9784H128.599V12.2974H129.44V11.9784Z" fill="white" fill-opacity="0.7"/>
<path d="M128.251 11.9784H127.41V12.2974H128.251V11.9784Z" fill="white" fill-opacity="0.7"/>
<path d="M127.091 11.9784H126.308V12.2974H127.091V11.9784Z" fill="white" fill-opacity="0.7"/>
<path d="M116.621 10.8763H115.867V11.5143H116.621V10.8763Z" fill="white" fill-opacity="0.7"/>
<path d="M134.023 11.9784H133.269V12.2974H134.023V11.9784Z" fill="white" fill-opacity="0.7"/>
<path d="M117.81 10.8763H116.969V11.5143H117.81V10.8763Z" fill="white" fill-opacity="0.7"/>
<path d="M118.999 10.8763H118.158V11.5143H118.999V10.8763Z" fill="white" fill-opacity="0.7"/>
<path d="M120.13 10.8763H119.347V11.5143H120.13V10.8763Z" fill="white" fill-opacity="0.7"/>
<path d="M121.29 10.8763H120.449V11.5143H121.29V10.8763Z" fill="white" fill-opacity="0.7"/>
<path d="M122.48 10.8763H121.638V11.5143H122.48V10.8763Z" fill="white" fill-opacity="0.7"/>
<path d="M123.582 10.8763H122.828V11.5143H123.582V10.8763Z" fill="white" fill-opacity="0.7"/>
<path d="M124.771 10.8763H123.93V11.5143H124.771V10.8763Z" fill="white" fill-opacity="0.7"/>
<path d="M130.543 10.8763H129.788V11.5143H130.543V10.8763Z" fill="white" fill-opacity="0.7"/>
<path d="M129.44 10.8763H128.599V11.5143H129.44V10.8763Z" fill="white" fill-opacity="0.7"/>
<path d="M128.251 10.8763H127.41V11.5143H128.251V10.8763Z" fill="white" fill-opacity="0.7"/>
<path d="M127.091 10.8763H126.308V11.5143H127.091V10.8763Z" fill="white" fill-opacity="0.7"/>
<path d="M125.96 10.8763H125.119V11.5143H125.96V10.8763Z" fill="white" fill-opacity="0.7"/>
<path d="M134.023 10.8763H133.269V11.5143H134.023V10.8763Z" fill="white" fill-opacity="0.7"/>
<path d="M132.921 10.8763H132.08V11.5143H132.921V10.8763Z" fill="white" fill-opacity="0.7"/>
<path d="M131.732 10.8763H130.891V11.5143H131.732V10.8763Z" fill="white" fill-opacity="0.7"/>
<path d="M116.621 9.68713H115.867V10.3252H116.621V9.68713Z" fill="white" fill-opacity="0.7"/>
<path d="M117.81 9.68713H116.969V10.3252H117.81V9.68713Z" fill="white" fill-opacity="0.7"/>
<path d="M118.999 9.68713H118.158V10.3252H118.999V9.68713Z" fill="white" fill-opacity="0.7"/>
<path d="M120.13 9.68713H119.347V10.3252H120.13V9.68713Z" fill="white" fill-opacity="0.7"/>
<path d="M121.29 9.68713H120.449V10.3252H121.29V9.68713Z" fill="white" fill-opacity="0.7"/>
<path d="M122.48 9.68713H121.638V10.3252H122.48V9.68713Z" fill="white" fill-opacity="0.7"/>
<path d="M123.582 9.68713H122.828V10.3252H123.582V9.68713Z" fill="white" fill-opacity="0.7"/>
<path d="M124.771 9.68713H123.93V10.3252H124.771V9.68713Z" fill="white" fill-opacity="0.7"/>
<path d="M130.543 9.68713H129.788V10.3252H130.543V9.68713Z" fill="white" fill-opacity="0.7"/>
<path d="M129.44 9.68713H128.599V10.3252H129.44V9.68713Z" fill="white" fill-opacity="0.7"/>
<path d="M128.251 9.68713H127.41V10.3252H128.251V9.68713Z" fill="white" fill-opacity="0.7"/>
<path d="M127.091 9.68713H126.308V10.3252H127.091V9.68713Z" fill="white" fill-opacity="0.7"/>
<path d="M125.96 9.68713H125.119V10.3252H125.96V9.68713Z" fill="white" fill-opacity="0.7"/>
<path d="M134.023 9.68713H133.269V10.3252H134.023V9.68713Z" fill="white" fill-opacity="0.7"/>
<path d="M132.921 9.68713H132.08V10.3252H132.921V9.68713Z" fill="white" fill-opacity="0.7"/>
<path d="M131.732 9.68713H130.891V10.3252H131.732V9.68713Z" fill="white" fill-opacity="0.7"/>
<path d="M116.621 8.556H115.867V9.19407H116.621V8.556Z" fill="white" fill-opacity="0.7"/>
<path d="M117.81 8.556H116.969V9.19407H117.81V8.556Z" fill="white" fill-opacity="0.7"/>
<path d="M118.999 8.556H118.158V9.19407H118.999V8.556Z" fill="white" fill-opacity="0.7"/>
<path d="M120.13 8.556H119.347V9.19407H120.13V8.556Z" fill="white" fill-opacity="0.7"/>
<path d="M121.29 8.556H120.449V9.19407H121.29V8.556Z" fill="white" fill-opacity="0.7"/>
<path d="M122.48 8.556H121.638V9.19407H122.48V8.556Z" fill="white" fill-opacity="0.7"/>
<path d="M123.582 8.556H122.828V9.19407H123.582V8.556Z" fill="white" fill-opacity="0.7"/>
<path d="M124.771 8.556H123.93V9.19407H124.771V8.556Z" fill="white" fill-opacity="0.7"/>
<path d="M130.543 8.556H129.788V9.19407H130.543V8.556Z" fill="white" fill-opacity="0.7"/>
<path d="M129.44 8.556H128.599V9.19407H129.44V8.556Z" fill="white" fill-opacity="0.7"/>
<path d="M128.251 8.556H127.41V9.19407H128.251V8.556Z" fill="white" fill-opacity="0.7"/>
<path d="M127.091 8.556H126.308V9.19407H127.091V8.556Z" fill="white" fill-opacity="0.7"/>
<path d="M125.96 8.556H125.119V9.19407H125.96V8.556Z" fill="white" fill-opacity="0.7"/>
<path d="M134.023 8.556H133.269V9.19407H134.023V8.556Z" fill="white" fill-opacity="0.7"/>
<path d="M132.921 8.556H132.08V9.19407H132.921V8.556Z" fill="white" fill-opacity="0.7"/>
<path d="M131.732 8.556H130.891V9.19407H131.732V8.556Z" fill="white" fill-opacity="0.7"/>
<path d="M116.621 7.39586H115.867V8.03394H116.621V7.39586Z" fill="white" fill-opacity="0.7"/>
<path d="M117.81 7.39586H116.969V8.03394H117.81V7.39586Z" fill="white" fill-opacity="0.7"/>
<path d="M118.999 7.39586H118.158V8.03394H118.999V7.39586Z" fill="white" fill-opacity="0.7"/>
<path d="M120.13 7.39586H119.347V8.03394H120.13V7.39586Z" fill="white" fill-opacity="0.7"/>
<path d="M121.29 7.39586H120.449V8.03394H121.29V7.39586Z" fill="white" fill-opacity="0.7"/>
<path d="M122.48 7.39586H121.638V8.03394H122.48V7.39586Z" fill="white" fill-opacity="0.7"/>
<path d="M123.582 7.39586H122.828V8.03394H123.582V7.39586Z" fill="white" fill-opacity="0.7"/>
<path d="M124.771 7.39586H123.93V8.03394H124.771V7.39586Z" fill="white" fill-opacity="0.7"/>
<path d="M130.543 7.39586H129.788V8.03394H130.543V7.39586Z" fill="white" fill-opacity="0.7"/>
<path d="M129.44 7.39586H128.599V8.03394H129.44V7.39586Z" fill="white" fill-opacity="0.7"/>
<path d="M128.251 7.39586H127.41V8.03394H128.251V7.39586Z" fill="white" fill-opacity="0.7"/>
<path d="M127.091 7.39586H126.308V8.03394H127.091V7.39586Z" fill="white" fill-opacity="0.7"/>
<path d="M125.96 7.39586H125.119V8.03394H125.96V7.39586Z" fill="white" fill-opacity="0.7"/>
<path d="M134.023 7.39586H133.269V8.03394H134.023V7.39586Z" fill="white" fill-opacity="0.7"/>
<path d="M132.921 7.39586H132.08V8.03394H132.921V7.39586Z" fill="white" fill-opacity="0.7"/>
<path d="M131.732 7.39586H130.891V8.03394H131.732V7.39586Z" fill="white" fill-opacity="0.7"/>
<path d="M116.621 6.20672H115.867V6.8448H116.621V6.20672Z" fill="white" fill-opacity="0.7"/>
<path d="M117.81 6.20672H116.969V6.8448H117.81V6.20672Z" fill="white" fill-opacity="0.7"/>
<path d="M118.999 6.20672H118.158V6.8448H118.999V6.20672Z" fill="white" fill-opacity="0.7"/>
<path d="M120.13 6.20672H119.347V6.8448H120.13V6.20672Z" fill="white" fill-opacity="0.7"/>
<path d="M121.29 6.20672H120.449V6.8448H121.29V6.20672Z" fill="white" fill-opacity="0.7"/>
<path d="M122.48 6.20672H121.638V6.8448H122.48V6.20672Z" fill="white" fill-opacity="0.7"/>
<path d="M123.582 6.20672H122.828V6.8448H123.582V6.20672Z" fill="white" fill-opacity="0.7"/>
<path d="M124.771 6.20672H123.93V6.8448H124.771V6.20672Z" fill="white" fill-opacity="0.7"/>
<path d="M130.543 6.20672H129.788V6.8448H130.543V6.20672Z" fill="white" fill-opacity="0.7"/>
<path d="M129.44 6.20672H128.599V6.8448H129.44V6.20672Z" fill="white" fill-opacity="0.7"/>
<path d="M128.251 6.20672H127.41V6.8448H128.251V6.20672Z" fill="white" fill-opacity="0.7"/>
<path d="M127.091 6.20672H126.308V6.8448H127.091V6.20672Z" fill="white" fill-opacity="0.7"/>
<path d="M125.96 6.20672H125.119V6.8448H125.96V6.20672Z" fill="white" fill-opacity="0.7"/>
<path d="M134.023 6.20672H133.269V6.8448H134.023V6.20672Z" fill="white" fill-opacity="0.7"/>
<path d="M132.921 6.20672H132.08V6.8448H132.921V6.20672Z" fill="white" fill-opacity="0.7"/>
<path d="M131.732 6.20672H130.891V6.8448H131.732V6.20672Z" fill="white" fill-opacity="0.7"/>
<path d="M142.521 17.518V12.0074H142.173V12.2684H141.071V11.9784H139.331V12.2684H138.141V12.0074H137.88V12.5585L136.981 13.1095H134.951V5.85868H135.241V4.11848H134.951V3.82845H131.181V3.53841H130.281V3.82845H125.409V2.08824H124.771V0.899102H126.221V0H124.481V2.14625H123.93V3.88645H118.999V3.59642H118.1V3.88645H114.968L114.678 4.17649V6.0037H114.968V4.81456H115.229V5.71367H115.519V4.81456H115.809V5.71367H116.157V4.81456H116.36V5.71367H116.708V4.81456H116.911V5.71367H117.259V4.81456H117.549V5.71367H117.897V4.81456H118.1V5.71367H118.448V4.81456H118.651V5.71367H118.999V4.81456H119.289V5.71367H119.637V4.81456H119.84V5.71367H120.188V4.81456H120.391V5.71367H120.739V4.81456H121.029V5.71367H121.377V4.81456H121.58V5.71367H121.929V4.81456H122.132V5.71367H122.48V4.81456H122.77V5.71367H123.118V4.81456H123.321V5.71367H123.669V4.81456H123.872V5.71367H124.22V4.81456H124.51V5.71367H124.858V4.81456H125.061V5.71367H125.409V4.81456H125.612V5.71367H125.96V4.81456H126.221V5.71367H126.569V4.81456H126.772V5.71367H127.12V4.81456H127.323V5.71367H127.671V4.81456H127.961V5.71367H128.309V4.81456H128.512V5.71367H128.86V4.81456H129.092V5.71367H129.44V4.81456H129.73V5.71367H130.078V4.81456H130.281V5.71367H130.63V4.81456H130.833V5.71367H131.181V4.81456H131.442V5.71367H131.79V4.81456H131.993V5.71367H132.312V4.81456H132.544V5.71367H132.892V4.81456H133.182V5.71367H133.53V4.81456H133.733V5.71367H134.081V4.81456H134.284V5.71367H134.632V4.81456H134.922V5.91669H134.661V13.2255H134.023V12.6165H133.269V13.2255H132.921V12.6165H132.08V13.2255H131.732V12.6165H130.891V13.2255H130.543V12.6165H129.788V13.2255H129.44V12.6165H128.599V13.2255H128.251V12.6165H127.41V13.2255H127.062V12.6165H126.308V13.2255H125.96V12.6165H125.119V13.2255H124.771V12.6165H123.93V13.2255H123.582V12.6165H122.828V13.2255H122.48V12.6165H121.638V13.2255H121.29V12.6165H120.449V13.2255H120.101V12.6165H119.347V13.2255H118.999V12.6165H118.158V13.2255H117.81V12.6165H116.969V13.2255H116.621V12.6165H115.867V13.2255H115.229V5.9457H114.968L114.939 13.2255H113.14L112.27 12.3264V12.0364H112.009V12.2974H110.82V12.0364H109.08V12.3264H107.978V12.0654H107.63V17.5761H105.6V18.1271H143.884V17.5761L142.521 17.518ZM115.519 4.55353H115.171V4.17649H115.519V4.55353ZM116.128 4.55353H115.78V4.17649H116.128V4.55353ZM116.708 4.55353H116.36V4.17649H116.708V4.55353ZM117.259 4.55353H116.911V4.17649H117.259V4.55353ZM117.868 4.55353H117.52V4.17649H117.868V4.55353ZM118.448 4.55353H118.1V4.17649H118.448V4.55353ZM118.999 4.55353H118.651V4.17649H118.999V4.55353ZM119.608 4.55353H119.26V4.17649H119.608V4.55353ZM119.84 4.55353V4.17649H120.188V4.55353H119.84ZM120.739 4.55353H120.391V4.17649H120.739V4.55353ZM121.348 4.55353H121V4.17649H121.348V4.55353ZM121.58 4.55353V4.17649H121.929V4.55353H121.58ZM122.132 4.55353V4.17649H122.48V4.55353H122.132ZM123.089 4.55353H122.741V4.17649H123.089V4.55353ZM123.64 4.55353H123.292V4.17649H123.64V4.55353ZM124.22 4.55353H123.872V4.17649H124.22V4.55353ZM124.829 4.55353H124.481V4.17649H124.829V4.55353ZM124.22 3.62542V3.27738H125.061V3.62542H124.22ZM125.38 4.55353H125.032V4.17649H125.38V4.55353ZM125.612 4.55353V4.17649H125.96V4.55353H125.612ZM126.569 4.55353H126.221V4.17649H126.569V4.55353ZM127.12 4.55353H126.772V4.17649H127.12V4.55353ZM127.7 4.55353H127.352V4.17649H127.7V4.55353ZM128.309 4.55353H127.961V4.17649H128.309V4.55353ZM128.86 4.55353H128.512V4.17649H128.86V4.55353ZM129.44 4.55353H129.092V4.17649H129.44V4.55353ZM130.049 4.55353H129.701V4.17649H130.049V4.55353ZM130.601 4.55353H130.252V4.17649H130.601V4.55353ZM131.181 4.55353H130.833V4.17649H131.181V4.55353ZM131.79 4.55353H131.442V4.17649H131.79V4.55353ZM132.341 4.55353H131.993V4.17649H132.341V4.55353ZM132.921 4.55353H132.573V4.17649H132.921V4.55353ZM133.53 4.55353H133.182V4.17649H133.53V4.55353ZM134.081 4.55353H133.733V4.17649H134.081V4.55353ZM134.661 4.55353H134.313V4.17649H134.661V4.55353ZM111.487 17.518V13.4866H111.197V17.518H110.559V13.1385H110.82V12.8775H109.08V13.1675H109.428V17.5471H108.819V13.5156H108.529V17.5471H108.007V12.6165H112.038V17.5471L111.487 17.518ZM136.952 17.518H113.227V13.4866H136.952V17.518ZM141.622 17.518V13.4866H141.274V17.518H140.723V13.1385H141.071V12.8485H139.331V13.1385H139.621V17.518H139.07V13.4866H138.692V17.518H138.141V12.5875H142.173V17.518H141.622Z" fill="white" fill-opacity="0.7"/>
<path d="M105.688 21.0853H108.153V24.1887H107.544V21.6074H106.326V24.1887H105.688V21.0853Z" fill="white" fill-opacity="0.7"/>
<path d="M108.82 21.0853H109.835C110.212 21.0853 110.473 21.1144 110.589 21.1434C110.763 21.2014 110.908 21.2884 111.024 21.4624C111.14 21.6074 111.198 21.8104 111.198 22.0715C111.198 22.2745 111.169 22.4195 111.082 22.5645C110.995 22.7095 110.937 22.7965 110.821 22.8836C110.705 22.9706 110.618 22.9996 110.502 23.0286C110.357 23.0576 110.125 23.0866 109.864 23.0866H109.458V24.2757H108.82V21.0853ZM109.429 22.5065H109.777C110.038 22.5065 110.183 22.4775 110.27 22.4485C110.357 22.4195 110.415 22.3615 110.473 22.3035C110.531 22.2455 110.531 22.1585 110.531 22.0715C110.531 21.9554 110.502 21.8684 110.444 21.7814C110.386 21.6944 110.299 21.6654 110.183 21.6364C110.096 21.6364 109.951 21.6074 109.719 21.6074H109.429V22.5065Z" fill="white" fill-opacity="0.7"/>
<path d="M114.128 24.2177H113.461L113.171 23.4926H111.923L111.662 24.1887H110.995L112.214 21.0853H112.881L114.128 24.2177ZM112.997 22.9706L112.562 21.8104L112.126 22.9706H112.997Z" fill="white" fill-opacity="0.7"/>
<path d="M115.723 21.0853C115.955 21.0853 116.158 21.0853 116.274 21.1144C116.39 21.1434 116.506 21.1724 116.593 21.2304C116.68 21.2884 116.767 21.3754 116.825 21.4914C116.883 21.6074 116.912 21.7234 116.912 21.8684C116.912 22.0135 116.883 22.1585 116.796 22.2745C116.709 22.3905 116.622 22.4775 116.477 22.5355C116.68 22.5935 116.825 22.6805 116.912 22.8256C116.999 22.9706 117.057 23.1156 117.057 23.2896C117.057 23.4346 117.028 23.5796 116.97 23.6957C116.912 23.8407 116.825 23.9277 116.709 24.0147C116.593 24.1017 116.448 24.1307 116.274 24.1597C116.158 24.1597 115.926 24.1887 115.52 24.1887H114.447V21.0853H115.723ZM115.114 21.6074V22.3325H115.984C116.1 22.3325 116.187 22.2745 116.245 22.2165C116.303 22.1585 116.332 22.0715 116.332 21.9845C116.332 21.8974 116.303 21.8104 116.245 21.7524C116.187 21.6944 116.1 21.6654 116.013 21.6364H115.114V21.6074ZM115.114 22.8546V23.6957H115.694C115.926 23.6957 116.071 23.6957 116.129 23.6666C116.216 23.6376 116.303 23.6086 116.361 23.5506C116.419 23.4926 116.448 23.4056 116.448 23.2896C116.448 23.2026 116.419 23.1156 116.39 23.0576C116.361 22.9996 116.274 22.9416 116.187 22.9126C116.1 22.8836 115.926 22.8546 115.636 22.8546H115.114Z" fill="white" fill-opacity="0.7"/>
<path d="M117.637 21.0853H118.217V23.1446L119.493 21.0853H120.131V24.1887H119.551V22.1585L118.304 24.1887H117.666V21.0853H117.637Z" fill="white" fill-opacity="0.7"/>
<path d="M121.437 24.2177V21.6364H120.508V21.1144H122.974V21.6364H122.046V24.2177H121.437Z" fill="white" fill-opacity="0.7"/>
<path d="M123.409 24.2177V21.0853H125.729V21.6074H124.047V22.3035H125.613V22.8256H124.047V23.6666H125.787V24.1887H123.409V24.2177Z" fill="white" fill-opacity="0.7"/>
<path d="M126.512 21.0853H128.687V24.1887H128.049V21.6074H127.121V22.9416C127.121 23.3186 127.121 23.5796 127.092 23.7537C127.063 23.8987 127.005 24.0147 126.918 24.1017C126.831 24.1887 126.657 24.2177 126.454 24.2177C126.367 24.2177 126.251 24.2177 126.048 24.1887V23.6957H126.193C126.338 23.6957 126.425 23.6667 126.454 23.6376C126.483 23.6086 126.512 23.5216 126.512 23.3766V21.0853Z" fill="white" fill-opacity="0.7"/>
<path d="M129.993 21.0853V22.3325H130.834C131.24 22.3325 131.53 22.4195 131.704 22.6225C131.878 22.7966 131.965 23.0286 131.965 23.2896C131.965 23.4926 131.907 23.6957 131.791 23.8407C131.675 23.9857 131.559 24.1017 131.414 24.1307C131.269 24.1887 131.066 24.2177 130.805 24.2177H129.326V21.0853H129.993ZM129.993 23.6957H130.602C130.805 23.6957 130.95 23.6957 131.008 23.6666C131.095 23.6376 131.153 23.6086 131.211 23.5216C131.269 23.4636 131.298 23.3766 131.298 23.2606C131.298 23.1156 131.24 22.9996 131.153 22.9416C131.037 22.8836 130.863 22.8546 130.631 22.8546H129.993V23.6957Z" fill="white" fill-opacity="0.7"/>
<path d="M134.372 23.0576L134.981 23.2606C134.894 23.6086 134.72 23.8407 134.517 24.0147C134.285 24.1887 134.024 24.2757 133.676 24.2757C133.27 24.2757 132.922 24.1307 132.661 23.8407C132.4 23.5506 132.255 23.1736 132.255 22.6805C132.255 22.1585 132.4 21.7524 132.661 21.4624C132.922 21.1724 133.27 21.0273 133.705 21.0273C134.082 21.0273 134.401 21.1434 134.633 21.3754C134.778 21.5204 134.894 21.6944 134.952 21.9555L134.343 22.1005C134.314 21.9264 134.227 21.8104 134.111 21.7234C133.995 21.6364 133.85 21.5784 133.676 21.5784C133.444 21.5784 133.27 21.6654 133.125 21.8394C132.98 22.0135 132.922 22.2745 132.922 22.6515C132.922 23.0576 132.98 23.3186 133.125 23.4926C133.27 23.6667 133.444 23.7537 133.676 23.7537C133.85 23.7537 133.995 23.6957 134.111 23.6086C134.227 23.4636 134.314 23.2896 134.372 23.0576Z" fill="white" fill-opacity="0.7"/>
<path d="M136.112 24.2177V21.6364H135.184V21.1144H137.649V21.6364H136.721V24.2177H136.112Z" fill="white" fill-opacity="0.7"/>
<path d="M139.303 21.0853C139.535 21.0853 139.738 21.0853 139.854 21.1144C139.97 21.1434 140.086 21.1724 140.173 21.2304C140.26 21.2884 140.347 21.3754 140.405 21.4914C140.463 21.6074 140.492 21.7234 140.492 21.8684C140.492 22.0135 140.463 22.1585 140.376 22.2745C140.289 22.3905 140.202 22.4775 140.057 22.5355C140.26 22.5935 140.405 22.6805 140.492 22.8256C140.579 22.9706 140.637 23.1156 140.637 23.2896C140.637 23.4346 140.608 23.5796 140.55 23.6957C140.492 23.8407 140.405 23.9277 140.289 24.0147C140.173 24.1017 140.028 24.1307 139.854 24.1597C139.738 24.1597 139.506 24.1887 139.1 24.1887H138.027V21.0853H139.303ZM138.694 21.6074V22.3325H139.564C139.68 22.3325 139.767 22.2745 139.825 22.2165C139.883 22.1585 139.912 22.0715 139.912 21.9845C139.912 21.8974 139.883 21.8104 139.825 21.7524C139.767 21.6944 139.68 21.6654 139.593 21.6364H138.694V21.6074ZM138.694 22.8546V23.6957H139.274C139.506 23.6957 139.651 23.6957 139.709 23.6666C139.796 23.6376 139.883 23.6086 139.941 23.5506C139.999 23.4926 140.028 23.4056 140.028 23.2896C140.028 23.2026 139.999 23.1156 139.97 23.0576C139.941 22.9996 139.854 22.9416 139.767 22.9126C139.68 22.8836 139.506 22.8546 139.216 22.8546H138.694Z" fill="white" fill-opacity="0.7"/>
<path d="M140.985 22.6805C140.985 22.3615 141.043 22.1005 141.13 21.8684C141.188 21.7234 141.304 21.5784 141.42 21.4334C141.536 21.3174 141.681 21.2014 141.826 21.1434C142.029 21.0563 142.232 21.0273 142.493 21.0273C142.957 21.0273 143.305 21.1724 143.595 21.4624C143.856 21.7524 144.001 22.1295 144.001 22.6515C144.001 23.1446 143.856 23.5506 143.595 23.8407C143.334 24.1307 142.957 24.2757 142.493 24.2757C142.029 24.2757 141.652 24.1307 141.391 23.8407C141.101 23.5506 140.985 23.1736 140.985 22.6805ZM141.623 22.6515C141.623 22.9996 141.71 23.2606 141.855 23.4636C142.029 23.6376 142.232 23.7247 142.464 23.7247C142.725 23.7247 142.928 23.6376 143.073 23.4636C143.247 23.2896 143.305 22.9996 143.305 22.6515C143.305 22.3035 143.218 22.0425 143.073 21.8394C142.928 21.6654 142.696 21.5784 142.464 21.5784C142.203 21.5784 142 21.6654 141.826 21.8394C141.71 22.0135 141.623 22.3035 141.623 22.6515Z" fill="white" fill-opacity="0.7"/>
<path d="M109.255 28.7132V25.5809H110.27C110.647 25.5809 110.908 25.6099 111.024 25.6389C111.198 25.6969 111.343 25.7839 111.459 25.9579C111.575 26.1029 111.633 26.306 111.633 26.567C111.633 26.77 111.604 26.915 111.517 27.06C111.43 27.2051 111.372 27.2921 111.256 27.3791C111.14 27.4661 111.053 27.4951 110.937 27.5241C110.792 27.5531 110.56 27.5821 110.299 27.5821H109.893V28.7132H109.255ZM109.893 27.002H110.241C110.502 27.002 110.647 26.973 110.734 26.944C110.821 26.915 110.879 26.857 110.937 26.799C110.995 26.741 110.995 26.654 110.995 26.567C110.995 26.451 110.966 26.364 110.908 26.277C110.85 26.1899 110.763 26.1609 110.647 26.1319C110.56 26.1319 110.415 26.1029 110.183 26.1029H109.893V27.002Z" fill="white" fill-opacity="0.7"/>
<path d="M112.039 27.1761C112.039 26.857 112.097 26.596 112.185 26.364C112.243 26.2189 112.359 26.0739 112.475 25.9289C112.591 25.8129 112.736 25.6969 112.881 25.6389C113.084 25.5519 113.287 25.5229 113.548 25.5229C114.012 25.5229 114.36 25.6679 114.65 25.9579C114.911 26.248 115.056 26.625 115.056 27.1471C115.056 27.6401 114.911 28.0462 114.65 28.3362C114.389 28.6262 114.012 28.7712 113.548 28.7712C113.084 28.7712 112.707 28.6262 112.446 28.3362C112.185 28.0462 112.039 27.6691 112.039 27.1761ZM112.678 27.1471C112.678 27.4951 112.765 27.7561 112.91 27.9592C113.084 28.1332 113.287 28.2202 113.519 28.2202C113.78 28.2202 113.983 28.1332 114.128 27.9592C114.302 27.7851 114.36 27.4951 114.36 27.1471C114.36 26.799 114.273 26.538 114.128 26.335C113.983 26.1609 113.751 26.0739 113.519 26.0739C113.258 26.0739 113.055 26.1609 112.881 26.335C112.765 26.509 112.678 26.799 112.678 27.1471Z" fill="white" fill-opacity="0.7"/>
<path d="M117.608 27.5531L118.217 27.7561C118.13 28.1042 117.956 28.3362 117.753 28.5102C117.521 28.6842 117.26 28.7712 116.912 28.7712C116.506 28.7712 116.158 28.6262 115.897 28.3362C115.636 28.0462 115.491 27.6691 115.491 27.1761C115.491 26.654 115.636 26.248 115.897 25.9579C116.158 25.6679 116.506 25.5229 116.941 25.5229C117.318 25.5229 117.637 25.6389 117.869 25.8709C118.014 26.0159 118.13 26.1899 118.188 26.451L117.579 26.596C117.55 26.422 117.463 26.306 117.347 26.2189C117.231 26.1319 117.086 26.0739 116.912 26.0739C116.68 26.0739 116.506 26.1609 116.361 26.335C116.216 26.509 116.158 26.77 116.158 27.1471C116.158 27.5531 116.216 27.8141 116.361 27.9882C116.506 28.1622 116.68 28.2492 116.912 28.2492C117.086 28.2492 117.231 28.1912 117.347 28.1042C117.463 27.9592 117.55 27.7851 117.608 27.5531Z" fill="white" fill-opacity="0.7"/>
<path d="M120.799 27.5531L121.408 27.7561C121.321 28.1042 121.147 28.3362 120.944 28.5102C120.712 28.6842 120.45 28.7712 120.102 28.7712C119.696 28.7712 119.348 28.6262 119.087 28.3362C118.826 28.0462 118.681 27.6691 118.681 27.1761C118.681 26.654 118.826 26.248 119.087 25.9579C119.348 25.6679 119.696 25.5229 120.131 25.5229C120.508 25.5229 120.828 25.6389 121.06 25.8709C121.205 26.0159 121.321 26.1899 121.379 26.451L120.77 26.596C120.741 26.422 120.653 26.306 120.537 26.2189C120.421 26.1319 120.276 26.0739 120.102 26.0739C119.87 26.0739 119.696 26.1609 119.551 26.335C119.406 26.509 119.348 26.77 119.348 27.1471C119.348 27.5531 119.406 27.8141 119.551 27.9882C119.696 28.1622 119.87 28.2492 120.102 28.2492C120.276 28.2492 120.421 28.1912 120.537 28.1042C120.682 27.9592 120.77 27.7851 120.799 27.5531Z" fill="white" fill-opacity="0.7"/>
<path d="M122.046 25.5809H122.626V27.6401L123.902 25.5809H124.54V28.7132H123.96V26.683L122.713 28.7132H122.075V25.5809H122.046Z" fill="white" fill-opacity="0.7"/>
<path d="M125.236 25.5809H125.816V27.6401L127.092 25.5809H127.73V28.7132H127.15V26.683L125.903 28.7132H125.265V25.5809H125.236ZM126.831 24.8268H127.121C127.092 25.0298 127.034 25.1748 126.918 25.2908C126.802 25.4069 126.657 25.4649 126.454 25.4649C126.251 25.4649 126.106 25.4069 125.99 25.2908C125.874 25.1748 125.816 25.0298 125.787 24.8268H126.077C126.077 24.9138 126.135 25.0008 126.193 25.0588C126.251 25.1168 126.338 25.1458 126.454 25.1458C126.57 25.1458 126.657 25.1168 126.715 25.0588C126.802 25.0008 126.831 24.9138 126.831 24.8268Z" fill="white" fill-opacity="0.7"/>
<path d="M130.399 27.5531L131.008 27.7561C130.921 28.1042 130.747 28.3362 130.544 28.5102C130.312 28.6842 130.051 28.7712 129.703 28.7712C129.297 28.7712 128.948 28.6262 128.687 28.3362C128.426 28.0462 128.281 27.6691 128.281 27.1761C128.281 26.654 128.426 26.248 128.687 25.9579C128.948 25.6679 129.297 25.5229 129.732 25.5229C130.109 25.5229 130.428 25.6389 130.66 25.8709C130.805 26.0159 130.921 26.1899 130.979 26.451L130.37 26.596C130.341 26.422 130.254 26.306 130.138 26.2189C130.022 26.1319 129.877 26.0739 129.703 26.0739C129.471 26.0739 129.297 26.1609 129.151 26.335C129.006 26.509 128.948 26.77 128.948 27.1471C128.948 27.5531 129.006 27.8141 129.151 27.9882C129.297 28.1622 129.471 28.2492 129.703 28.2492C129.877 28.2492 130.022 28.1912 130.138 28.1042C130.254 27.9592 130.341 27.7851 130.399 27.5531Z" fill="white" fill-opacity="0.7"/>
<path d="M131.617 25.5809H132.255V26.915C132.4 26.915 132.487 26.857 132.545 26.799C132.603 26.741 132.661 26.567 132.777 26.306C132.893 25.9579 133.038 25.7549 133.183 25.6679C133.299 25.5809 133.531 25.5519 133.821 25.5519H133.908V26.0159H133.821C133.705 26.0159 133.589 26.0449 133.531 26.0739C133.473 26.1029 133.415 26.1609 133.386 26.2189C133.357 26.277 133.299 26.422 133.212 26.625C133.183 26.741 133.125 26.828 133.096 26.886C133.038 26.944 132.98 27.031 132.864 27.0891C133.009 27.1181 133.125 27.2051 133.212 27.3211C133.299 27.4371 133.415 27.6111 133.502 27.8431L133.937 28.6842H133.183L132.806 27.8721C132.806 27.8721 132.777 27.8431 132.777 27.8141C132.777 27.8141 132.748 27.7561 132.69 27.6691C132.603 27.5241 132.545 27.4081 132.487 27.3791C132.429 27.3501 132.342 27.3211 132.255 27.3211V28.7132H131.617V25.5809Z" fill="white" fill-opacity="0.7"/>
<path d="M134.198 27.1761C134.198 26.857 134.256 26.596 134.343 26.364C134.401 26.2189 134.517 26.0739 134.633 25.9289C134.749 25.8129 134.894 25.6969 135.039 25.6389C135.242 25.5519 135.445 25.5229 135.706 25.5229C136.17 25.5229 136.518 25.6679 136.808 25.9579C137.069 26.248 137.214 26.625 137.214 27.1471C137.214 27.6401 137.069 28.0462 136.808 28.3362C136.547 28.6262 136.17 28.7712 135.706 28.7712C135.242 28.7712 134.865 28.6262 134.604 28.3362C134.343 28.0462 134.198 27.6691 134.198 27.1761ZM134.865 27.1471C134.865 27.4951 134.952 27.7561 135.097 27.9592C135.271 28.1332 135.474 28.2202 135.706 28.2202C135.967 28.2202 136.17 28.1332 136.315 27.9592C136.489 27.7851 136.547 27.4951 136.547 27.1471C136.547 26.799 136.46 26.538 136.315 26.335C136.17 26.1609 135.938 26.0739 135.706 26.0739C135.445 26.0739 135.242 26.1609 135.068 26.335C134.952 26.509 134.865 26.799 134.865 27.1471Z" fill="white" fill-opacity="0.7"/>
<path d="M137.794 25.5809H138.375V27.6401L139.651 25.5809H140.289V28.7132H139.709V26.683L138.462 28.7132H137.823V25.5809H137.794ZM139.419 24.8268H139.709C139.68 25.0298 139.622 25.1748 139.506 25.2908C139.39 25.4069 139.245 25.4649 139.042 25.4649C138.839 25.4649 138.694 25.4069 138.578 25.2908C138.462 25.1748 138.404 25.0298 138.375 24.8268H138.665C138.665 24.9138 138.723 25.0008 138.781 25.0588C138.839 25.1168 138.926 25.1458 139.042 25.1458C139.158 25.1458 139.245 25.1168 139.303 25.0588C139.361 25.0008 139.39 24.9138 139.419 24.8268Z" fill="white" fill-opacity="0.7"/>
<path d="M112.823 32.8317V33.2088H112.214V32.8317C111.72 32.8027 111.372 32.6867 111.169 32.4547C110.966 32.2226 110.85 31.9326 110.85 31.6136C110.85 31.2655 110.966 30.9755 111.169 30.7435C111.372 30.5114 111.72 30.3954 112.214 30.3954V30.0764H112.823V30.3954C113.316 30.4244 113.664 30.5405 113.867 30.7725C114.07 31.0045 114.186 31.2945 114.186 31.6426C114.186 31.9906 114.07 32.2807 113.867 32.4837C113.664 32.6867 113.316 32.8317 112.823 32.8317ZM112.214 32.3097V30.9175C111.952 30.9175 111.749 30.9755 111.633 31.0915C111.517 31.2075 111.459 31.3816 111.459 31.6136C111.459 32.0776 111.691 32.3097 112.214 32.3097ZM112.823 32.3097C112.997 32.3097 113.142 32.2807 113.258 32.2226C113.374 32.1646 113.461 32.1066 113.519 31.9906C113.577 31.9036 113.606 31.7586 113.606 31.5846C113.606 31.1205 113.345 30.9175 112.852 30.9175V32.3097H112.823Z" fill="white" fill-opacity="0.7"/>
<path d="M114.737 33.2088V30.1054H117.057V30.6275H115.375V31.3235H116.941V31.8456H115.375V32.6867H117.115V33.2088H114.737Z" fill="white" fill-opacity="0.7"/>
<path d="M120.102 30.0764V32.6577H120.363V33.8468H119.841V33.1798H117.869V33.8468H117.347V32.6577H117.608C117.724 32.3967 117.811 32.0776 117.869 31.7296C117.898 31.3816 117.927 30.9465 117.927 30.3954V30.0764H120.102ZM118.565 30.5985C118.565 31.5556 118.478 32.2226 118.304 32.6577H119.493V30.5985H118.565Z" fill="white" fill-opacity="0.7"/>
<path d="M120.886 33.2088V30.1054H123.206V30.6275H121.524V31.3235H123.09V31.8456H121.524V32.6867H123.264V33.2088H120.886Z" fill="white" fill-opacity="0.7"/>
<path d="M123.844 30.1054H124.859C125.236 30.1054 125.497 30.1344 125.613 30.1634C125.787 30.2214 125.932 30.3084 126.048 30.4824C126.164 30.6275 126.222 30.8305 126.222 31.0915C126.222 31.2945 126.193 31.4396 126.106 31.5846C126.019 31.7296 125.961 31.8166 125.845 31.9036C125.729 31.9906 125.642 32.0196 125.526 32.0486C125.381 32.0776 125.149 32.1066 124.888 32.1066H124.482V33.2958H123.844V30.1054ZM124.482 31.4976H124.83C125.091 31.4976 125.236 31.4686 125.323 31.4396C125.41 31.4106 125.468 31.3525 125.526 31.2945C125.584 31.2365 125.584 31.1495 125.584 31.0625C125.584 30.9465 125.555 30.8595 125.497 30.7725C125.439 30.6855 125.352 30.6565 125.236 30.6275C125.149 30.6275 125.004 30.5985 124.772 30.5985H124.482V31.4976Z" fill="white" fill-opacity="0.7"/>
<path d="M129.238 33.2088H128.542L128.281 32.5127H127.034L126.773 33.2088H126.106L127.324 30.1054H127.991L129.238 33.2088ZM128.078 31.9616L127.643 30.8015L127.208 31.9616H128.078Z" fill="white" fill-opacity="0.7"/>
<path d="M129.645 30.0764H130.283V32.6577H131.501V30.0764H132.139V32.6577H132.4V33.8468H131.878V33.1798H129.674V30.0764H129.645Z" fill="white" fill-opacity="0.7"/>
<path d="M132.893 30.0764H133.473V32.1356L134.749 30.0764H135.387V33.1798H134.807V31.1495L133.56 33.1798H132.893V30.0764Z" fill="white" fill-opacity="0.7"/>
<path d="M136.083 30.0764H136.663V32.1356L137.94 30.0764H138.578V33.1798H137.998V31.1495L136.75 33.1798H136.083V30.0764Z" fill="white" fill-opacity="0.7"/>
<defs>
<filter id="filter0_d_3377_1083" x="0" y="5.45605" width="94.7908" height="32.6533" filterUnits="userSpaceOnUse" color-interpolation-filters="sRGB">
<feFlood flood-opacity="0" result="BackgroundImageFix"/>
<feColorMatrix in="SourceAlpha" type="matrix" values="0 0 0 0 0 0 0 0 0 0 0 0 0 0 0 0 0 0 127 0" result="hardAlpha"/>
<feOffset dy="4"/>
<feGaussianBlur stdDeviation="2"/>
<feComposite in2="hardAlpha" operator="out"/>
<feColorMatrix type="matrix" values="0 0 0 0 0 0 0 0 0 0 0 0 0 0 0 0 0 0 0.25 0"/>
<feBlend mode="normal" in2="BackgroundImageFix" result="effect1_dropShadow_3377_1083"/>
<feBlend mode="normal" in="SourceGraphic" in2="effect1_dropShadow_3377_1083" result="shape"/>
</filter>
</defs>
</svg>
