<svg width="416" height="264" viewBox="0 0 416 264" fill="none" xmlns="http://www.w3.org/2000/svg">
<path d="M363.395 159L365.568 204.809L394.253 169.027L369.086 207.365L413.325 195.277L370.43 211.5L413.325 227.723L369.086 215.635L394.253 253.973L365.568 218.191L363.395 264L361.221 218.191L332.536 253.973L357.703 215.635L313.464 227.723L356.36 211.5L313.464 195.277L357.703 207.365L332.536 169.027L361.221 204.809L363.395 159Z" fill="white"/>
<g clip-path="url(#clip0_2978_737)">
<path d="M59.5808 1.68979C60.8346 0.886419 62.2422 0.353595 63.7137 0.125404C65.1853 -0.102787 66.6882 -0.0213221 68.1264 0.364588C69.5646 0.750498 70.9065 1.43236 72.0661 2.36654C73.2257 3.30073 74.1776 4.46667 74.8608 5.78979V5.78979C75.8004 7.60789 77.2422 9.11805 79.0148 10.1409C80.7875 11.1637 82.8165 11.6562 84.8608 11.5598V11.5598C86.3488 11.4899 87.835 11.7316 89.2243 12.2692C90.6135 12.8068 91.8752 13.6286 92.9286 14.682C93.9819 15.7353 94.8037 16.997 95.3414 18.3863C95.879 19.7755 96.1206 21.2618 96.0508 22.7498V22.7498C95.9544 24.7941 96.4469 26.8231 97.4697 28.5957C98.4925 30.3684 100.003 31.8101 101.821 32.7498V32.7498C103.14 33.4331 104.302 34.3838 105.233 35.5414C106.165 36.6989 106.844 38.0379 107.229 39.4728C107.614 40.9077 107.695 42.407 107.468 43.8752C107.241 45.3434 106.711 46.7481 105.911 47.9998V47.9998C104.809 49.7246 104.224 51.7283 104.224 53.7748C104.224 55.8212 104.809 57.825 105.911 59.5498V59.5498C106.716 60.8025 107.251 62.2097 107.48 63.6811C107.71 65.1525 107.63 66.6557 107.245 68.0943C106.86 69.5328 106.178 70.8751 105.244 72.035C104.31 73.1949 103.144 74.1468 101.821 74.8298V74.8298C100.003 75.7694 98.4925 77.2112 97.4697 78.9839C96.4469 80.7565 95.9544 82.7855 96.0508 84.8298V84.8298C96.1249 86.3203 95.8865 87.8098 95.3508 89.2026C94.8151 90.5955 93.994 91.8609 92.9402 92.9175C91.8863 93.9742 90.6231 94.7987 89.2317 95.3381C87.8403 95.8776 86.3514 96.12 84.8608 96.0498V96.0498C82.8165 95.9534 80.7875 96.4459 79.0148 97.4687C77.2422 98.4915 75.8004 100.002 74.8608 101.82V101.82C74.1778 103.143 73.2259 104.309 72.066 105.243C70.9061 106.177 69.5638 106.859 68.1252 107.244C66.6866 107.629 65.1835 107.709 63.7121 107.479C62.2407 107.25 60.8335 106.715 59.5808 105.91V105.91C57.856 104.808 55.8522 104.223 53.8058 104.223C51.7593 104.223 49.7555 104.808 48.0308 105.91V105.91C46.778 106.715 45.3709 107.25 43.8995 107.479C42.428 107.709 40.9249 107.629 39.4863 107.244C38.0477 106.859 36.7054 106.177 35.5455 105.243C34.3857 104.309 33.4337 103.143 32.7508 101.82V101.82C31.8111 100.002 30.3693 98.4915 28.5967 97.4687C26.824 96.4459 24.7951 95.9534 22.7508 96.0498V96.0498C21.2627 96.1196 19.7765 95.878 18.3873 95.3404C16.998 94.8028 15.7363 93.9809 14.683 92.9276C13.6296 91.8742 12.8078 90.6126 12.2702 89.2233C11.7325 87.834 11.4909 86.3478 11.5608 84.8598V84.8598C11.6571 82.8155 11.1647 80.7865 10.1418 79.0139C9.11902 77.2412 7.60886 75.7994 5.79076 74.8598V74.8598C4.46765 74.1766 3.3017 73.2247 2.36752 72.0651C1.43333 70.9055 0.751475 69.5637 0.365565 68.1254C-0.0203455 66.6872 -0.101811 65.1843 0.126381 63.7128C0.354572 62.2413 0.887395 60.8336 1.69076 59.5798V59.5798C2.80304 57.8535 3.39455 55.8434 3.39455 53.7898C3.39455 51.7362 2.80304 49.7261 1.69076 47.9998V47.9998C0.887395 46.746 0.354572 45.3383 0.126381 43.8668C-0.101811 42.3953 -0.0203455 40.8924 0.365565 39.4541C0.751475 38.0159 1.43333 36.6741 2.36752 35.5145C3.3017 34.3549 4.46765 33.403 5.79076 32.7198V32.7198C7.60886 31.7801 9.11902 30.3384 10.1418 28.5657C11.1647 26.7931 11.6571 24.7641 11.5608 22.7198V22.7198C11.4952 21.2342 11.74 19.7513 12.2796 18.3656C12.8191 16.98 13.6416 15.722 14.6945 14.6719C15.7474 13.6218 17.0076 12.8027 18.3947 12.2669C19.7818 11.7311 21.2654 11.4902 22.7508 11.5598V11.5598C24.7951 11.6562 26.824 11.1637 28.5967 10.1409C30.3693 9.11805 31.8111 7.60789 32.7508 5.78979C33.4343 4.47092 34.385 3.30884 35.5423 2.37751C36.6995 1.44619 38.038 0.76604 39.4726 0.380362C40.9071 -0.00531653 42.4062 -0.0880703 43.8745 0.137369C45.3428 0.362809 46.748 0.891502 48.0008 1.68979V1.68979C49.727 2.80207 51.7372 3.39358 53.7908 3.39358C55.8444 3.39358 57.8545 2.80207 59.5808 1.68979V1.68979Z" fill="#505050"/>
<path d="M66.1994 22.0499L65.8794 23.0499L66.7894 23.3399L69.5694 14.5099L68.5694 14.1899L67.3994 17.8799C67.2227 17.45 66.951 17.0656 66.6046 16.7556C66.2582 16.4456 65.8462 16.218 65.3994 16.0899C65.0001 15.9529 64.5763 15.9016 64.1559 15.9395C63.7354 15.9774 63.3277 16.1037 62.9594 16.3099C62.5755 16.5206 62.2379 16.8061 61.9665 17.1497C61.6951 17.4932 61.4954 17.8878 61.3794 18.3099C61.2346 18.7217 61.1724 19.158 61.1964 19.5939C61.2205 20.0297 61.3302 20.4566 61.5194 20.8499C61.7024 21.2329 61.9646 21.5726 62.2887 21.8467C62.6128 22.1208 62.9914 22.323 63.3994 22.4399C63.8658 22.5864 64.359 22.6274 64.8432 22.56C65.3275 22.4925 65.7907 22.3183 66.1994 22.0499V22.0499ZM62.4694 20.4399C62.2116 19.8694 62.1709 19.2243 62.355 18.6259C62.5392 18.0275 62.9354 17.5169 63.4694 17.1899C63.7297 17.051 64.0158 16.967 64.3099 16.9429C64.604 16.9188 64.8999 16.9552 65.1794 17.0499C65.6717 17.1958 66.1034 17.4976 66.4094 17.9099C66.7244 18.2946 66.9284 18.7579 66.9994 19.2499L66.5294 20.7599C66.2041 21.1247 65.7859 21.3942 65.3194 21.5399C64.8356 21.7001 64.3131 21.7001 63.8294 21.5399C63.5385 21.4616 63.2673 21.3232 63.033 21.1338C62.7988 20.9443 62.6068 20.708 62.4694 20.4399V20.4399Z" fill="white"/>
<path d="M71.0641 18.4785L68.2109 24.1514L69.1579 24.6276L72.0111 18.9547L71.0641 18.4785Z" fill="white"/>
<path d="M72.1404 17.5099C72.2181 17.5558 72.3045 17.5847 72.3941 17.5949C72.4837 17.605 72.5745 17.5961 72.6604 17.5687C72.7463 17.5413 72.8255 17.4961 72.8927 17.436C72.9599 17.3759 73.0137 17.3022 73.0504 17.2199C73.0891 17.1351 73.1092 17.0431 73.1092 16.9499C73.1092 16.8567 73.0891 16.7646 73.0504 16.6799C72.9781 16.5154 72.8506 16.3814 72.6899 16.301C72.5292 16.2207 72.3454 16.199 72.1704 16.2399C72.0825 16.269 72.0015 16.316 71.9327 16.378C71.8638 16.4399 71.8086 16.5155 71.7704 16.5999C71.7313 16.6827 71.7109 16.7733 71.7109 16.8649C71.7109 16.9565 71.7313 17.047 71.7704 17.1299C71.803 17.2151 71.8526 17.2927 71.9162 17.3581C71.9798 17.4234 72.0561 17.4751 72.1404 17.5099V17.5099Z" fill="white"/>
<path d="M72.1589 22.46C71.8909 22.8056 71.6945 23.2012 71.5812 23.6236C71.4679 24.0459 71.4399 24.4867 71.4989 24.92C71.5663 25.3603 71.7249 25.7816 71.9644 26.157C72.204 26.5325 72.5193 26.8538 72.8901 27.1004C73.261 27.347 73.6792 27.5135 74.1181 27.5892C74.557 27.6649 75.0069 27.6481 75.4389 27.54L74.8589 28.34C74.7043 28.6021 74.4854 28.8204 74.223 28.9744C73.9605 29.1284 73.6631 29.2129 73.3589 29.22C72.7107 29.1775 72.0904 28.9405 71.5789 28.54C70.879 28.0256 70.3271 27.3358 69.9789 26.54L69.3789 27.38C69.7865 28.179 70.384 28.8658 71.1189 29.38C71.8168 29.9202 72.6765 30.2091 73.5589 30.2C73.9881 30.1847 74.4076 30.068 74.783 29.8594C75.1585 29.6509 75.4792 29.3564 75.7189 29L79.4389 23.85L78.6689 23.3L78.0489 24.15C78.0198 23.6593 77.8817 23.1812 77.6448 22.7505C77.4078 22.3198 77.0778 21.9473 76.6789 21.66C76.3418 21.4052 75.9546 21.2244 75.5427 21.1296C75.1308 21.0349 74.7035 21.0282 74.2889 21.11C73.429 21.2624 72.6637 21.7474 72.1589 22.46V22.46ZM74.5389 22.08C74.8305 22.0304 75.1292 22.0411 75.4165 22.1117C75.7037 22.1822 75.9735 22.311 76.2089 22.49C76.6277 22.7831 76.94 23.2042 77.0989 23.69C77.2576 24.1498 77.2887 24.644 77.1889 25.12L76.1889 26.51C75.7804 26.7264 75.3204 26.8267 74.8589 26.8C74.3518 26.7817 73.8628 26.6071 73.4589 26.3C73.2149 26.1324 73.0081 25.9162 72.8515 25.665C72.6949 25.4138 72.5919 25.1329 72.5489 24.84C72.4993 24.5315 72.5136 24.216 72.591 23.9133C72.6685 23.6105 72.8073 23.3269 72.9989 23.08C73.1736 22.8169 73.4004 22.5924 73.6653 22.4204C73.9302 22.2484 74.2275 22.1326 74.5389 22.08V22.08Z" fill="white"/>
<path d="M83.0989 25.2997C83.2829 25.297 83.4583 25.2221 83.5875 25.0911C83.7166 24.9601 83.789 24.7836 83.7889 24.5997C83.78 24.4173 83.7013 24.2454 83.5689 24.1197C83.442 23.9964 83.2755 23.922 83.0989 23.9097C83.0068 23.906 82.915 23.923 82.8302 23.9593C82.7455 23.9956 82.6699 24.0504 82.6089 24.1197C82.5395 24.1826 82.4847 24.2599 82.4484 24.3463C82.4121 24.4327 82.3952 24.526 82.3989 24.6197C82.4149 24.7973 82.4927 24.9637 82.6189 25.0897C82.7485 25.2151 82.9189 25.2896 83.0989 25.2997V25.2997Z" fill="white"/>
<path d="M81.3024 25.6764L76.8555 30.1953L77.611 30.9388L82.0579 26.4199L81.3024 25.6764Z" fill="white"/>
<path d="M82.5417 28.2598L83.2717 29.1898L80.5517 31.3298C80.3204 31.4889 80.1252 31.6949 79.9787 31.9344C79.8323 32.1738 79.7379 32.4415 79.7017 32.7198C79.6749 33.2808 79.8687 33.8299 80.2417 34.2498C80.5978 34.7078 81.0309 35.1004 81.5217 35.4098L82.2917 34.8098C81.8706 34.5748 81.4975 34.2627 81.1917 33.8898C80.9423 33.6138 80.7942 33.2612 80.7717 32.8898C80.7981 32.7136 80.8628 32.5452 80.9613 32.3966C81.0598 32.248 81.1896 32.1228 81.3417 32.0298L83.9217 30.0298L85.4917 32.0298L86.2617 31.4198L84.6917 29.4198L86.4417 27.9998L85.5917 27.3398L84.0017 28.5898L83.2717 27.6498L82.5417 28.2598Z" fill="white"/>
<path d="M87.8114 35.6096C88.0673 36.0247 88.1567 36.5213 88.0614 36.9996C88.0095 37.2147 87.9109 37.4158 87.7726 37.5886C87.6344 37.7614 87.4599 37.9017 87.2614 37.9996L87.0614 38.1096C86.9065 37.5372 86.6885 36.9838 86.4114 36.4596C86.1007 35.802 85.6123 35.2443 85.0014 34.8496C84.7242 34.6809 84.4059 34.5917 84.0814 34.5917C83.7569 34.5917 83.4386 34.6809 83.1614 34.8496C82.9049 34.9598 82.6795 35.1315 82.505 35.3495C82.3306 35.5676 82.2126 35.8252 82.1614 36.0996C82.0832 36.659 82.1922 37.2286 82.4714 37.7196C82.8639 38.529 83.5401 39.166 84.3714 39.5096C84.1905 39.6895 84.0784 39.9271 84.0547 40.1811C84.0309 40.4351 84.097 40.6893 84.2414 40.8996C84.3694 41.1376 84.5387 41.3509 84.7414 41.5296L85.5014 41.1296C85.3759 41.0189 85.2709 40.8869 85.1914 40.7396C85.1494 40.6865 85.1208 40.6239 85.1082 40.5574C85.0956 40.4908 85.0993 40.4222 85.1189 40.3573C85.1386 40.2925 85.1736 40.2334 85.221 40.185C85.2685 40.1367 85.3269 40.1005 85.3914 40.0796L87.6414 38.9996C87.9763 38.8489 88.2758 38.6295 88.5204 38.3556C88.765 38.0816 88.9493 37.7594 89.0614 37.4096C89.2331 36.6858 89.1109 35.9234 88.7214 35.2896C88.3311 34.5651 87.8243 33.9097 87.2214 33.3496L86.3114 33.8296C86.9248 34.3173 87.4348 34.9224 87.8114 35.6096V35.6096ZM85.2614 38.9996C84.8657 38.9007 84.4967 38.7159 84.1804 38.4584C83.8642 38.2009 83.6084 37.877 83.4314 37.5096C83.2564 37.207 83.1795 36.8577 83.2114 36.5096C83.2257 36.3528 83.2814 36.2026 83.3728 36.0744C83.4641 35.9461 83.5879 35.8444 83.7314 35.7796C83.8971 35.6871 84.0856 35.6436 84.2751 35.6542C84.4646 35.6648 84.6471 35.7291 84.8014 35.8396C85.1892 36.147 85.4949 36.5455 85.6914 36.9996C85.9401 37.4822 86.1411 37.9879 86.2914 38.5096L85.2614 38.9996Z" fill="white"/>
<path d="M93.9302 39.1635L84.8359 42.3911L85.1905 43.3901L94.2847 40.1625L93.9302 39.1635Z" fill="white"/>
<path d="M88.3199 52.9996L90.7899 52.7396C91.157 52.7267 91.5174 52.6373 91.848 52.4772C92.1786 52.317 92.4721 52.0897 92.7099 51.8096C93.1364 51.2021 93.312 50.4534 93.1999 49.7196C93.1051 48.8988 92.8789 48.0985 92.5299 47.3496L91.5299 47.4596C91.9192 48.1526 92.161 48.9186 92.2399 49.7096C92.3139 50.1896 92.2109 50.6801 91.9499 51.0896C91.8201 51.2616 91.6545 51.4035 91.4646 51.5053C91.2747 51.6072 91.065 51.6667 90.8499 51.6796H90.6299C90.6948 51.0914 90.6948 50.4978 90.6299 49.9096C90.5821 49.1902 90.3364 48.4981 89.9199 47.9096C89.7227 47.653 89.4592 47.4551 89.1579 47.337C88.8566 47.219 88.5289 47.1853 88.2099 47.2396C87.9354 47.2531 87.6683 47.3329 87.4314 47.4723C87.1946 47.6116 86.995 47.8063 86.8499 48.0396C86.5658 48.529 86.4499 49.098 86.5199 49.6596C86.5855 50.5581 86.9724 51.403 87.6099 52.0396C87.3764 52.1446 87.1874 52.3284 87.0759 52.5587C86.9643 52.7891 86.9374 53.0514 86.9999 53.2996C87.0249 53.5709 87.0995 53.8352 87.2199 54.0796L87.9999 53.9996C87.9265 53.8486 87.8792 53.6863 87.8599 53.5196C87.843 53.4533 87.8426 53.3838 87.8588 53.3173C87.8749 53.2508 87.907 53.1892 87.9524 53.138C87.9977 53.0867 88.0549 53.0473 88.1189 53.0232C88.183 52.9991 88.252 52.991 88.3199 52.9996V52.9996ZM87.4299 49.8396C87.3841 49.4967 87.4434 49.1481 87.5999 48.8396C87.67 48.6995 87.7768 48.5809 87.9088 48.4964C88.0408 48.4119 88.1932 48.3646 88.3499 48.3596C88.5437 48.3214 88.7447 48.3453 88.9242 48.4279C89.1037 48.5105 89.2527 48.6475 89.3499 48.8196C89.5936 49.224 89.7407 49.6791 89.7799 50.1496C89.8343 50.6916 89.8343 51.2376 89.7799 51.7796L88.6199 51.8996C88.2829 51.6596 88.002 51.3493 87.7965 50.9902C87.5911 50.6311 87.466 50.2317 87.4299 49.8196V49.8396Z" fill="white"/>
<path d="M91.8316 60.4396C92.1972 60.188 92.5071 59.8636 92.7419 59.4869C92.9766 59.1101 93.1312 58.6891 93.1959 58.2499C93.2607 57.8108 93.2342 57.363 93.1182 56.9345C93.0022 56.506 92.7991 56.1061 92.5216 55.7596C92.2413 55.4253 91.8969 55.1504 91.5088 54.9512C91.1207 54.752 90.6966 54.6324 90.2616 54.5996C89.3887 54.4731 88.5012 54.6959 87.7916 55.2196C87.4508 55.4727 87.1677 55.7952 86.9608 56.1658C86.754 56.5365 86.6281 56.9467 86.5916 57.3696C86.5348 57.8567 86.588 58.3503 86.7472 58.8141C86.9065 59.2779 87.1676 59.7001 87.5116 60.0496L86.4616 59.9296L86.3516 60.9296L95.5416 61.9296L95.6616 60.9296L91.8316 60.4396ZM90.4116 60.2796L88.8316 60.0996C88.4168 59.8592 88.072 59.5144 87.8316 59.0996C87.584 58.652 87.4859 58.1369 87.5516 57.6296C87.5777 57.3352 87.6639 57.0493 87.805 56.7896C87.946 56.5298 88.1388 56.3018 88.3716 56.1196C88.8887 55.7649 89.5165 55.609 90.1395 55.6807C90.7625 55.7523 91.3385 56.0467 91.7616 56.5096C91.949 56.7376 92.0874 57.0018 92.1683 57.2857C92.2491 57.5696 92.2707 57.8671 92.2316 58.1596C92.1758 58.6686 91.9625 59.1476 91.6216 59.5296C91.2929 59.8837 90.8749 60.1428 90.4116 60.2796V60.2796Z" fill="white"/>
<path d="M91.2106 67.0799C91.3628 66.6854 91.4299 66.2632 91.4075 65.841C91.3851 65.4188 91.2737 65.006 91.0806 64.6299C90.6627 63.8571 89.9759 63.2643 89.1502 62.9639C88.3246 62.6635 87.4175 62.6763 86.6006 62.9999C86.2119 63.1674 85.863 63.4153 85.5769 63.7272C85.2908 64.0392 85.074 64.4082 84.9406 64.8099C84.7726 65.272 84.7096 65.7658 84.7563 66.2554C84.803 66.7449 84.9582 67.2179 85.2106 67.6399L84.2106 67.2799L83.8906 68.1699L92.5906 71.3099L92.9506 70.3099L89.3306 68.9999C89.768 68.8414 90.164 68.5865 90.4895 68.2542C90.8149 67.9218 91.0614 67.5205 91.2106 67.0799V67.0799ZM86.4906 67.9999C86.1408 67.6593 85.8887 67.2311 85.7606 66.7599C85.6204 66.2663 85.6414 65.7408 85.8206 65.2599C85.9185 64.9792 86.074 64.722 86.2773 64.505C86.4805 64.288 86.7269 64.1159 87.0006 63.9999C87.2879 63.8755 87.5976 63.8113 87.9106 63.8113C88.2237 63.8113 88.5334 63.8755 88.8206 63.9999C89.1197 64.093 89.397 64.2455 89.6358 64.4483C89.8747 64.651 90.0702 64.8999 90.2106 65.1799C90.3384 65.4468 90.4105 65.737 90.4226 66.0327C90.4346 66.3284 90.3863 66.6235 90.2806 66.8999C90.1108 67.3828 89.7922 67.7995 89.3706 68.0899C88.9737 68.3717 88.5064 68.5379 88.0206 68.5699L86.4906 67.9999Z" fill="white"/>
<path d="M90.4127 73.5399C90.3346 73.4907 90.2468 73.459 90.1554 73.4469C90.0639 73.4348 89.9709 73.4427 89.8827 73.4699C89.7123 73.5305 89.57 73.6515 89.4827 73.8099C89.3939 73.9642 89.3654 74.1459 89.4027 74.3199C89.4233 74.4113 89.4647 74.4968 89.5237 74.5696C89.5826 74.6424 89.6576 74.7007 89.7427 74.7399C89.8215 74.7873 89.9092 74.818 90.0004 74.8301C90.0916 74.8421 90.1843 74.8352 90.2727 74.8099C90.4424 74.7524 90.5826 74.6302 90.6627 74.4699C90.757 74.3139 90.7857 74.127 90.7427 73.9499C90.7205 73.8618 90.6795 73.7796 90.6226 73.7088C90.5656 73.638 90.494 73.5804 90.4127 73.5399V73.5399Z" fill="white"/>
<path d="M83.0193 69.6201L82.5039 70.5464L88.0529 73.6336L88.5683 72.7074L83.0193 69.6201Z" fill="white"/>
<path d="M84.4723 73.5396C84.1244 73.2413 83.7127 73.0268 83.269 72.9124C82.8252 72.798 82.3611 72.7867 81.9123 72.8796C81.0579 73.0644 80.3025 73.5597 79.7923 74.2696C79.354 74.8301 79.0496 75.4834 78.9023 76.1796L79.7423 76.8196C79.818 76.1567 80.074 75.5272 80.4823 74.9996C80.8601 74.4934 81.4062 74.1387 82.0223 73.9996C82.3453 73.9502 82.6748 73.966 82.9915 74.0459C83.3083 74.1258 83.6059 74.2682 83.8667 74.4648C84.1276 74.6614 84.3466 74.9082 84.5107 75.1907C84.6748 75.4731 84.7808 75.7856 84.8223 76.1096C84.8371 76.7502 84.6285 77.3759 84.2323 77.8796C83.8613 78.4214 83.3133 78.8174 82.6823 78.9996L83.5123 79.6196C84.1517 79.3646 84.7015 78.9262 85.0923 78.3596C85.3477 78.0254 85.5438 77.65 85.6723 77.2496C85.803 76.8462 85.8638 76.4234 85.8523 75.9996C85.8322 75.5528 85.7053 75.1173 85.4823 74.7296C85.2395 74.2619 84.8943 73.8552 84.4723 73.5396Z" fill="white"/>
<path d="M82.7897 80.8798L82.1097 80.1698L81.2497 80.9898L78.8597 78.4798C78.6804 78.2641 78.4578 78.0885 78.2063 77.9645C77.9547 77.8405 77.6799 77.7707 77.3997 77.7598C76.8415 77.7932 76.3166 78.0361 75.9297 78.4398C75.5161 78.8397 75.1774 79.3105 74.9297 79.8298L75.6097 80.5398C75.7989 80.0967 76.0743 79.6956 76.4197 79.3598C76.6776 79.0708 77.0343 78.8888 77.4197 78.8498C77.5959 78.8581 77.7681 78.9054 77.9237 78.9884C78.0794 79.0715 78.2146 79.188 78.3197 79.3298L80.5797 81.7098L78.7397 83.4598L79.4197 84.1698L81.2597 82.4198L82.6997 83.9998L83.2797 83.0898L81.9197 81.6998L82.7897 80.8798Z" fill="white"/>
<path d="M74.0906 81.1198C73.1805 81.0164 72.2644 81.2552 71.5206 81.7898C70.8529 82.1882 70.2932 82.7445 69.8906 83.4098L70.4606 84.2698C70.803 83.6261 71.3059 83.0818 71.9206 82.6898C72.4344 82.329 73.043 82.1273 73.6706 82.1098C73.9569 82.1026 74.2408 82.1643 74.4983 82.2896C74.7558 82.4149 74.9795 82.6001 75.1506 82.8298L70.9306 85.5998C71.1308 86.1711 71.4752 86.6809 71.9306 87.0798C72.3853 87.4673 72.9542 87.6955 73.5506 87.7298C74.1542 87.7582 74.7535 87.6151 75.2792 87.3171C75.8048 87.0191 76.2354 86.5783 76.521 86.0458C76.8066 85.5133 76.9356 84.9108 76.8931 84.3081C76.8505 83.7053 76.6382 83.1269 76.2806 82.6398C76.0533 82.2381 75.7384 81.8928 75.3592 81.6297C74.9801 81.3665 74.5464 81.1922 74.0906 81.1198ZM75.8506 85.1198C75.6736 85.6353 75.3192 86.0712 74.8506 86.3498C74.5739 86.5462 74.2557 86.6762 73.9206 86.7298C73.6493 86.7799 73.3694 86.7557 73.1106 86.6598C72.9045 86.5716 72.7125 86.4537 72.5406 86.3098C72.3953 86.1766 72.2766 86.0171 72.1906 85.8398L75.6306 83.5798C75.7799 83.8076 75.877 84.0655 75.915 84.3352C75.953 84.6049 75.931 84.8796 75.8506 85.1398V85.1198Z" fill="white"/>
<path d="M68.2825 84.7697C67.9035 84.583 67.4893 84.4785 67.0671 84.463C66.6449 84.4475 66.2242 84.5213 65.8325 84.6797C65.3717 84.8439 64.9533 85.1086 64.6074 85.4545C64.2615 85.8004 63.9968 86.2189 63.8325 86.6797L63.4525 85.6797L62.5625 86.0197L65.8325 94.6797L66.8325 94.2997L65.4725 90.6897C65.8781 90.9215 66.3315 91.0573 66.7978 91.0868C67.2641 91.1163 67.7309 91.0386 68.1625 90.8597C68.5679 90.7322 68.9415 90.5201 69.2587 90.2374C69.5759 89.9546 69.8294 89.6077 70.0025 89.2197C70.3129 88.3995 70.3124 87.4941 70.0011 86.6743C69.6897 85.8545 69.0891 85.177 68.3125 84.7697H68.2825ZM68.9925 88.8697C68.8697 89.1351 68.6936 89.3724 68.4751 89.5668C68.2566 89.7613 68.0004 89.9086 67.7225 89.9997C67.2482 90.1897 66.7244 90.2178 66.2325 90.0797C65.7712 89.9671 65.3473 89.7362 65.0025 89.4097L64.4425 87.9197C64.4723 87.432 64.6348 86.9617 64.9125 86.5597C65.192 86.1338 65.6028 85.8108 66.0825 85.6397C66.3536 85.5207 66.6464 85.4593 66.9425 85.4593C67.2386 85.4593 67.5314 85.5207 67.8025 85.6397C68.0886 85.7797 68.3428 85.9772 68.5493 86.2198C68.7557 86.4623 68.91 86.7448 69.0025 87.0497C69.1241 87.3376 69.1867 87.6471 69.1867 87.9597C69.1867 88.2722 69.1241 88.5817 69.0025 88.8697H68.9925Z" fill="white"/>
<path d="M43.2503 85.2097C42.7859 85.0468 42.291 84.9892 41.8015 85.0411C41.3121 85.093 40.8403 85.2531 40.4203 85.5097L40.7703 84.5097L39.8803 84.1997L36.8203 92.9297L37.8203 93.2797L39.1003 89.6397C39.2567 90.0727 39.5088 90.4648 39.8377 90.7869C40.1667 91.1089 40.5641 91.3526 41.0003 91.4997C41.3976 91.6503 41.8223 91.7148 42.2464 91.689C42.6705 91.6631 43.0843 91.5475 43.4603 91.3497C44.228 90.925 44.8124 90.2324 45.102 89.4043C45.3916 88.5761 45.3661 87.6703 45.0303 86.8597C44.8649 86.4759 44.6212 86.1308 44.3146 85.8467C44.0081 85.5625 43.6456 85.3456 43.2503 85.2097ZM44.1403 89.0597C44.0544 89.3566 43.9091 89.6329 43.7131 89.8718C43.5171 90.1108 43.2746 90.3074 43.0003 90.4497C42.7355 90.583 42.4459 90.6599 42.1498 90.6754C41.8537 90.6909 41.5576 90.6447 41.2803 90.5397C40.7978 90.3744 40.3808 90.059 40.0903 89.6397C39.8027 89.2442 39.6297 88.7771 39.5903 88.2897L40.1203 86.7897C40.451 86.4353 40.8732 86.1792 41.3403 86.0497C41.8268 85.8851 42.3539 85.8851 42.8403 86.0497C43.1211 86.14 43.3804 86.2869 43.6023 86.4812C43.8241 86.6755 44.0038 86.9133 44.1303 87.1797C44.2607 87.4757 44.3289 87.7953 44.3306 88.1187C44.3323 88.4421 44.2675 88.7624 44.1403 89.0597V89.0597Z" fill="white"/>
<path d="M34.3596 89.8698C34.2837 89.8245 34.1994 89.795 34.1117 89.783C34.0241 89.771 33.935 89.7767 33.8496 89.7998C33.6717 89.8532 33.5218 89.9742 33.4321 90.1368C33.3424 90.2994 33.3199 90.4908 33.3696 90.6698C33.4314 90.8402 33.5569 90.98 33.7196 91.0598C33.7956 91.105 33.8799 91.1345 33.9675 91.1465C34.0551 91.1586 34.1443 91.1528 34.2296 91.1298C34.3195 91.1085 34.4033 91.0667 34.4744 91.0077C34.5456 90.9488 34.6021 90.8742 34.6396 90.7898C34.6871 90.711 34.7177 90.6232 34.7298 90.532C34.7418 90.4409 34.735 90.3482 34.7096 90.2598C34.6444 90.0914 34.52 89.9527 34.3596 89.8698V89.8698Z" fill="white"/>
<path d="M37.5661 82.8652L34.5391 88.4473L35.4709 88.9526L38.4979 83.3705L37.5661 82.8652Z" fill="white"/>
<path d="M34.4691 84.9097C35.0287 84.2262 35.2948 83.3489 35.2091 82.4697C35.1699 82.0478 35.0419 81.6389 34.8333 81.2701C34.6248 80.9012 34.3404 80.5807 33.9991 80.3297C33.6357 80.0282 33.2064 79.8167 32.7459 79.7125C32.2854 79.6082 31.8068 79.6141 31.3491 79.7297L31.9991 78.9997C32.1617 78.7419 32.3878 78.5302 32.6557 78.3849C32.9236 78.2396 33.2243 78.1655 33.5291 78.1697C34.1772 78.2249 34.7922 78.4799 35.2891 78.8997C35.965 79.4237 36.4952 80.1123 36.8291 80.8997L37.4591 80.0797C37.0668 79.2884 36.4907 78.6026 35.7791 78.0797C35.0998 77.5171 34.2508 77.2 33.3691 77.1797C32.9314 77.1864 32.5021 77.3002 32.1186 77.5111C31.7351 77.722 31.4091 78.0237 31.1691 78.3897L27.2891 83.3897L28.0391 83.9697L28.6791 83.1297C28.6922 83.6208 28.8148 84.1028 29.038 84.5406C29.2612 84.9783 29.5793 85.3606 29.9691 85.6597C30.2978 85.9288 30.68 86.125 31.0903 86.2354C31.5006 86.3457 31.9297 86.3676 32.3491 86.2997C33.2101 86.1309 33.971 85.6321 34.4691 84.9097V84.9097ZM32.0791 85.2197C31.7872 85.259 31.4904 85.2385 31.2068 85.1594C30.9231 85.0803 30.6585 84.9443 30.4291 84.7597C30.0151 84.4552 29.7129 84.023 29.5691 83.5297C29.4397 83.0584 29.4397 82.561 29.5691 82.0897L30.5691 80.7297C30.9859 80.5302 31.4489 80.4473 31.9091 80.4897C32.4142 80.511 32.9001 80.6892 33.2991 80.9997C33.5383 81.1754 33.7389 81.3982 33.8885 81.6545C34.0382 81.9108 34.1336 82.195 34.1691 82.4897C34.1994 82.8011 34.1673 83.1154 34.0745 83.4141C33.9818 83.7129 33.8304 83.9902 33.6291 84.2297C33.4518 84.4916 33.2229 84.7146 32.9564 84.8848C32.6898 85.0551 32.3913 85.169 32.0791 85.2197V85.2197Z" fill="white"/>
<path d="M23.6108 81.6999C23.5179 81.6942 23.4248 81.7092 23.3384 81.7438C23.2519 81.7784 23.1742 81.8317 23.1108 81.8999C23.04 81.9578 22.9833 82.0312 22.9452 82.1144C22.9071 82.1976 22.8885 82.2884 22.8908 82.3799C22.8923 82.5599 22.9641 82.7321 23.0908 82.8599C23.2127 82.995 23.38 83.0804 23.5608 83.0999C23.6519 83.1022 23.7424 83.0856 23.8268 83.0512C23.9111 83.0168 23.9874 82.9653 24.0508 82.8999C24.1219 82.8415 24.1793 82.7683 24.219 82.6854C24.2587 82.6025 24.2798 82.5119 24.2808 82.4199C24.2756 82.2388 24.2003 82.0667 24.0708 81.9399C23.9526 81.8055 23.7887 81.72 23.6108 81.6999V81.6999Z" fill="white"/>
<path d="M29.3197 76.2796L24.6953 80.6313L25.4217 81.4033L30.0461 77.0516L29.3197 76.2796Z" fill="white"/>
<path d="M26.3802 75.7999C26.6166 75.6471 26.8181 75.446 26.9714 75.21C27.1248 74.9739 27.2266 74.7081 27.2702 74.4299C27.3071 73.8732 27.1321 73.323 26.7802 72.8899C26.4353 72.4213 26.0125 72.0154 25.5302 71.6899L24.7402 72.2699C25.1599 72.5286 25.5237 72.8686 25.8102 73.2699C26.0529 73.5475 26.1908 73.9013 26.2002 74.2699C26.1663 74.4435 26.0962 74.608 25.9946 74.7527C25.8929 74.8975 25.7619 75.0192 25.6102 75.1099L23.0002 76.9999L21.4902 74.9999L20.7002 75.5799L22.2102 77.5799L20.4102 78.9099L21.2502 79.5899L22.8302 78.4299L23.5402 79.4299L24.3302 78.8499L23.6202 77.8499L26.3802 75.7999Z" fill="white"/>
<path d="M19.249 71.2999C19.0092 70.8784 18.9378 70.3819 19.049 69.9099C19.1082 69.7023 19.2136 69.5108 19.3573 69.3497C19.5011 69.1886 19.6794 69.0622 19.879 68.9799L20.079 68.8799C20.2152 69.4529 20.413 70.0095 20.669 70.5399C20.9544 71.1869 21.4151 71.7411 21.999 72.1399C22.2766 72.3075 22.5947 72.3961 22.919 72.3961C23.2433 72.3961 23.5614 72.3075 23.839 72.1399C24.0914 72.0318 24.314 71.8645 24.4881 71.6521C24.6621 71.4397 24.7825 71.1886 24.839 70.9199C24.9385 70.3606 24.8506 69.7841 24.589 69.2799C24.2152 68.4606 23.5583 67.8037 22.739 67.4299C22.9252 67.2569 23.045 67.0244 23.0779 66.7724C23.1108 66.5204 23.0546 66.2648 22.919 66.0499C22.7955 65.8085 22.6333 65.589 22.439 65.3999L21.659 65.7799C21.7816 65.8947 21.8831 66.0301 21.959 66.1799C21.9986 66.2342 22.0246 66.2973 22.0347 66.3638C22.0449 66.4303 22.039 66.4982 22.0174 66.5619C21.9958 66.6256 21.9593 66.6832 21.9109 66.7298C21.8624 66.7765 21.8035 66.8108 21.739 66.8299L19.529 67.9999C19.1877 68.1377 18.8793 68.3462 18.6243 68.6116C18.3692 68.877 18.1731 69.1934 18.049 69.5399C17.8579 70.258 17.9548 71.0222 18.319 71.6699C18.6903 72.411 19.1801 73.0865 19.769 73.6699L20.699 73.2199C20.085 72.6899 19.5907 72.0355 19.249 71.2999V71.2999ZM21.899 67.9999C22.2909 68.112 22.6539 68.3077 22.963 68.5735C23.272 68.8394 23.5197 69.1691 23.689 69.5399C23.8524 69.8462 23.9186 70.195 23.879 70.5399C23.8564 70.6955 23.7951 70.8429 23.7008 70.9687C23.6064 71.0945 23.482 71.1946 23.339 71.2599C23.1684 71.3489 22.9758 71.3868 22.7843 71.369C22.5927 71.3513 22.4103 71.2787 22.259 71.1599C21.8858 70.8456 21.5913 70.4483 21.399 69.9999C21.1644 69.5109 20.9833 68.9979 20.859 68.4699L21.899 67.9999Z" fill="white"/>
<path d="M22.1125 63.6035L12.9219 66.5454L13.245 67.5549L22.4356 64.613L22.1125 63.6035Z" fill="white"/>
<path d="M16.8911 56.9996C16.9199 57.7149 17.1485 58.4078 17.5511 58.9996C17.7376 59.2654 17.9947 59.4736 18.2933 59.6008C18.592 59.7281 18.9203 59.7692 19.2411 59.7197C19.515 59.7174 19.7841 59.6478 20.0248 59.517C20.2654 59.3862 20.4702 59.1982 20.6211 58.9697C20.938 58.4704 21.0723 57.8767 21.0011 57.2896C20.9661 56.3927 20.6114 55.5379 20.0011 54.8797C20.2362 54.7868 20.4322 54.6158 20.556 54.3954C20.6799 54.1751 20.724 53.9188 20.6811 53.6696C20.6596 53.4001 20.5919 53.1363 20.4811 52.8896L19.6011 52.9996C19.6673 53.1526 19.7111 53.3142 19.7311 53.4796C19.7455 53.5457 19.7442 53.6143 19.7272 53.6798C19.7101 53.7452 19.6779 53.8057 19.6331 53.8564C19.5883 53.9071 19.5321 53.9465 19.4692 53.9713C19.4063 53.9962 19.3384 54.0059 19.2711 53.9996L16.7911 54.1796C16.4241 54.1823 16.0618 54.262 15.7276 54.4136C15.3934 54.5652 15.0948 54.7853 14.8511 55.0597C14.4027 55.6505 14.2051 56.3942 14.3011 57.1297C14.3705 57.9503 14.5731 58.7542 14.9011 59.5096L15.9011 59.4396C15.5316 58.736 15.3135 57.9627 15.2611 57.1696C15.2012 56.6881 15.3185 56.2012 15.5911 55.7996C15.7265 55.632 15.8968 55.4958 16.0903 55.4008C16.2837 55.3058 16.4956 55.2542 16.7111 55.2496H16.9311C16.8547 55.8298 16.8413 56.4166 16.8911 56.9996V56.9996ZM17.8311 55.1696L19.0011 54.9996C19.3217 55.2513 19.5842 55.5692 19.7706 55.9316C19.957 56.2941 20.0629 56.6925 20.0811 57.0996C20.1183 57.4456 20.0485 57.7946 19.8811 58.0996C19.8042 58.237 19.6926 58.3517 19.5575 58.4324C19.4224 58.5131 19.2685 58.557 19.1111 58.5597C18.9136 58.5854 18.7129 58.5515 18.5347 58.4625C18.3565 58.3734 18.209 58.2331 18.1111 58.0597C17.8776 57.6499 17.7439 57.1908 17.7211 56.7197C17.7064 56.184 17.7432 55.6482 17.8311 55.1196V55.1696Z" fill="white"/>
<path d="M14.5397 48.6299C14.4705 49.0464 14.4899 49.4727 14.5968 49.8811C14.7036 50.2895 14.8954 50.6708 15.1597 50.9999C15.7238 51.6726 16.516 52.1137 17.3849 52.2392C18.2537 52.3646 19.1383 52.1655 19.8697 51.6799C20.2174 51.4392 20.5104 51.1277 20.7292 50.7657C20.9481 50.4038 21.088 49.9997 21.1397 49.5799C21.2087 49.0927 21.1692 48.5962 21.024 48.126C20.8788 47.6558 20.6314 47.2234 20.2997 46.8599L21.3497 47.0199L21.4897 46.0199L12.3297 44.6899L12.1797 45.6899L15.9997 46.2399C15.5853 46.4952 15.2371 46.8447 14.9834 47.26C14.7297 47.6754 14.5776 48.1447 14.5397 48.6299V48.6299ZM17.4097 46.5599L18.9797 46.7899C19.4042 47.0445 19.7502 47.4113 19.9797 47.8499C20.2105 48.3067 20.2943 48.8237 20.2197 49.3299C20.183 49.6228 20.0869 49.9052 19.9373 50.1596C19.7877 50.4141 19.5877 50.6354 19.3497 50.8099C19.0926 50.9915 18.8017 51.1196 18.4943 51.1866C18.1868 51.2535 17.869 51.2581 17.5597 51.1999C17.2495 51.1662 16.9492 51.0709 16.6762 50.9199C16.4032 50.7688 16.163 50.5648 15.9697 50.3199C15.7917 50.0839 15.6636 49.8142 15.5931 49.5271C15.5226 49.24 15.5112 48.9416 15.5597 48.6499C15.6261 48.1419 15.8539 47.6686 16.2097 47.2999C16.5377 46.9521 16.9516 46.6969 17.4097 46.5599V46.5599Z" fill="white"/>
<path d="M16.8297 39.7199C16.6637 40.1102 16.5823 40.5313 16.5909 40.9553C16.5995 41.3793 16.6979 41.7967 16.8797 42.1799C17.062 42.5779 17.3223 42.9351 17.6453 43.2306C17.9682 43.526 18.3472 43.7537 18.7597 43.8999C19.1619 44.0683 19.5936 44.1549 20.0297 44.1549C20.4657 44.1549 20.8974 44.0683 21.2997 43.8999C21.6869 43.7469 22.038 43.515 22.3307 43.2188C22.6234 42.9227 22.8512 42.5689 22.9997 42.1799C23.1828 41.723 23.2616 41.2309 23.2305 40.7396C23.1993 40.2483 23.059 39.7701 22.8197 39.3399L23.8197 39.7299L24.1697 38.8499L15.5697 35.4399L15.1797 36.4399L18.7697 37.8699C18.3268 38.0102 17.9218 38.2498 17.5855 38.5704C17.2493 38.891 16.9908 39.2842 16.8297 39.7199ZM21.5697 38.9999C21.9114 39.3444 22.1503 39.7772 22.2597 40.2499C22.3864 40.7479 22.3514 41.2732 22.1597 41.7499C22.0608 42.0258 21.907 42.2788 21.7076 42.4937C21.5083 42.7085 21.2674 42.8807 20.9997 42.9999C20.7121 43.1232 20.4025 43.1867 20.0897 43.1867C19.7768 43.1867 19.4672 43.1232 19.1797 42.9999C18.8823 42.8985 18.609 42.7369 18.3768 42.5253C18.1445 42.3137 17.9583 42.0566 17.8297 41.7699C17.7107 41.4988 17.6493 41.206 17.6493 40.9099C17.6493 40.6139 17.7107 40.321 17.8297 40.0499C18.0092 39.5688 18.3434 39.1608 18.7797 38.8899C19.1861 38.6255 19.6554 38.4737 20.1397 38.4499L21.5697 38.9999Z" fill="white"/>
<path d="M20.1774 33.1605L19.6367 34.0723L25.0985 37.3113L25.6392 36.3995L20.1774 33.1605Z" fill="white"/>
<path d="M17.8199 33.2999C17.8967 33.3519 17.9837 33.3868 18.0752 33.4023C18.1666 33.4178 18.2602 33.4136 18.3499 33.3899C18.5243 33.3375 18.6714 33.2191 18.7599 33.0599C18.808 32.9852 18.8407 32.9015 18.8562 32.814C18.8716 32.7264 18.8695 32.6367 18.8499 32.5499C18.8321 32.4589 18.7941 32.373 18.7388 32.2986C18.6834 32.2241 18.612 32.1631 18.5299 32.1199C18.4536 32.0709 18.3679 32.0383 18.2783 32.0243C18.1886 32.0104 18.0971 32.0153 18.0095 32.0389C17.9219 32.0624 17.8402 32.104 17.7697 32.1611C17.6991 32.2181 17.6413 32.2892 17.5999 32.3699C17.5033 32.5212 17.4676 32.7034 17.4999 32.8799C17.5214 32.9682 17.561 33.0511 17.6161 33.1233C17.6711 33.1956 17.7405 33.2557 17.8199 33.2999V33.2999Z" fill="white"/>
<path d="M23.7492 33.4898C24.0879 33.7991 24.4929 34.0266 24.9332 34.1549C25.3736 34.2832 25.8374 34.3088 26.2892 34.2298C27.1504 34.0655 27.922 33.5926 28.4592 32.8998C28.9171 32.3489 29.2391 31.698 29.3992 30.9998L28.5792 30.3398C28.4846 31.0084 28.2078 31.638 27.7792 32.1598C27.3971 32.6707 26.843 33.0259 26.2192 33.1598C25.8973 33.1988 25.5709 33.1739 25.2587 33.0863C24.9465 32.9987 24.6547 32.8503 24.4 32.6496C24.1454 32.4488 23.933 32.1997 23.7749 31.9166C23.6169 31.6335 23.5164 31.3219 23.4792 30.9998C23.4816 30.3596 23.708 29.7404 24.1192 29.2498C24.5121 28.7226 25.0729 28.3452 25.7092 28.1798L24.8992 27.5298C24.2539 27.7686 23.6913 28.1888 23.2792 28.7398C23.0157 29.0677 22.8064 29.4357 22.6592 29.8298C22.5268 30.206 22.4559 30.601 22.4492 30.9998C22.4555 31.4467 22.5686 31.8856 22.7792 32.2798C23.0059 32.7519 23.3377 33.1658 23.7492 33.4898V33.4898Z" fill="white"/>
<path d="M25.6605 26.21L26.3105 26.94L27.1905 26.15L29.5005 28.73C29.6749 28.9518 29.8942 29.1342 30.1441 29.2652C30.3941 29.3961 30.6688 29.4728 30.9505 29.49C31.51 29.4809 32.0442 29.2551 32.4405 28.86C32.8735 28.4723 33.2356 28.0121 33.5105 27.5L32.8605 26.78C32.6517 27.2158 32.3595 27.6065 32.0005 27.93C31.7345 28.2034 31.3801 28.3735 31.0005 28.41C30.8238 28.3954 30.6525 28.3421 30.4988 28.254C30.345 28.1658 30.2124 28.045 30.1105 27.9L28.0005 25.45L29.9005 23.76L29.2105 23L27.3205 24.7L25.8305 23.03L25.2305 23.92L26.5405 25.39L25.6605 26.21Z" fill="white"/>
<path d="M34.3693 26.2197C35.2876 26.3597 36.2251 26.1529 36.9993 25.6397C37.675 25.2558 38.2506 24.7179 38.6793 24.0697L38.1393 23.1897C37.7783 23.8229 37.2577 24.3504 36.6293 24.7197C36.1035 25.065 35.4883 25.2492 34.8593 25.2497C34.5737 25.2464 34.2931 25.1747 34.0408 25.0408C33.7886 24.9068 33.572 24.7144 33.4093 24.4797L37.7093 21.8397C37.511 21.2618 37.1665 20.745 36.7093 20.3397C36.2722 19.9296 35.7072 19.6824 35.1093 19.6397C34.4199 19.5797 33.731 19.7599 33.1593 20.1497C32.4603 20.5758 31.9545 21.2572 31.7493 22.0497C31.6387 22.4894 31.6225 22.9476 31.7018 23.394C31.7811 23.8404 31.9541 24.265 32.2093 24.6397C32.4273 25.0486 32.7347 25.403 33.1087 25.6766C33.4827 25.9501 33.9136 26.1358 34.3693 26.2197V26.2197ZM32.7393 22.1497C32.9212 21.642 33.2749 21.214 33.7393 20.9397C34.028 20.7598 34.352 20.6438 34.6893 20.5997C34.96 20.5527 35.2385 20.5875 35.4893 20.6997C35.6966 20.7885 35.8863 20.9138 36.0493 21.0697C36.1917 21.2031 36.3072 21.3627 36.3893 21.5397L32.8793 23.6897C32.745 23.4588 32.6628 23.2013 32.6386 22.9352C32.6145 22.6692 32.6488 22.4011 32.7393 22.1497V22.1497Z" fill="white"/>
<path d="M42.0008 13.2199L43.2508 16.8699C42.8513 16.6301 42.4031 16.4832 41.9392 16.4399C41.4753 16.3966 41.0077 16.4581 40.5708 16.6199C40.1664 16.7462 39.7933 16.9568 39.4762 17.2378C39.159 17.5187 38.905 17.8636 38.7308 18.2499C38.3891 19.0596 38.3573 19.9667 38.6413 20.7983C38.9253 21.63 39.5053 22.3282 40.2708 22.7599C40.6448 22.9578 41.0564 23.0744 41.4787 23.102C41.9009 23.1296 42.3242 23.0675 42.7208 22.9199C43.1815 22.7556 43.6 22.4909 43.9459 22.145C44.2918 21.7991 44.5565 21.3806 44.7208 20.9199L45.0608 21.9199L45.9608 21.6199L42.9608 12.8599L42.0008 13.2199ZM44.2308 19.7299C44.1892 20.2154 44.0125 20.6796 43.7208 21.0699C43.431 21.4918 43.0087 21.805 42.5208 21.9599C42.2428 22.0633 41.9464 22.1078 41.6503 22.0906C41.3542 22.0734 41.0649 21.9948 40.8008 21.8599C40.2564 21.5495 39.8441 21.051 39.6416 20.458C39.439 19.865 39.46 19.2184 39.7008 18.6399C39.8253 18.3703 40.0055 18.1302 40.2296 17.9354C40.4537 17.7407 40.7165 17.5956 41.0008 17.5099C41.4838 17.3453 42.0077 17.3453 42.4908 17.5099C42.9603 17.6445 43.3829 17.9078 43.7108 18.2699L44.2308 19.7299Z" fill="white"/>
</g>
<defs>
<clipPath id="clip0_2978_737">
<rect width="107.61" height="107.61" fill="white"/>
</clipPath>
</defs>
</svg>
