<svg width="88" height="24" viewBox="0 0 88 24" fill="none" xmlns="http://www.w3.org/2000/svg">
<g opacity="0.7">
<path d="M53.608 6.82472C52.1922 6.82472 51.0801 7.15531 49.9674 7.81521C49.9674 4.29255 49.9674 1.10047 50.069 0L43.2918 1.32044V1.98098L43.9997 2.09097C44.9091 2.31093 45.214 2.86085 45.4144 4.18257C45.6182 6.82472 45.516 20.916 45.4144 23.2282C47.235 23.6688 49.1572 23.9994 51.0795 23.9994C56.4403 23.9994 59.6768 20.3661 59.6768 14.6412C59.6768 10.1281 57.0472 6.82472 53.608 6.82472ZM51.2816 22.7876C50.8768 22.7876 50.3704 22.7876 50.0678 22.6783C49.9662 21.1373 49.8658 14.6412 49.9662 8.91696C50.5731 8.69636 50.9773 8.58637 51.4837 8.58637C53.7103 8.58637 54.924 11.4485 54.924 14.9705C54.9234 19.3756 53.4059 22.7876 51.2816 22.7876ZM17.802 0.439936H0V1.43043L1.01165 1.54041C2.32586 1.76038 2.83227 2.64089 3.03378 4.73249C3.33809 8.69572 3.23646 15.8523 3.03378 19.2637C2.83168 21.3559 2.32644 22.3471 1.01165 22.4558L0 22.677V23.5575H11.4295V22.677L10.2158 22.4558C8.90099 22.3464 8.39517 21.3559 8.19307 19.2637C8.09144 17.832 7.99039 15.5198 7.99039 12.6583L10.4179 12.7683C11.9354 12.7683 12.6427 14.0894 12.9464 15.9604H13.857V8.14644H12.9464C12.6421 10.0181 11.9354 11.3385 10.4179 11.3385L7.99097 11.4491C7.99097 7.70587 8.09202 4.1832 8.19365 2.0916H11.7333C14.4651 2.0916 15.8809 3.9626 16.892 7.26593L17.9036 6.93534L17.802 0.439936Z" fill="white"/>
<path d="M23.5676 6.60474C28.6252 6.60474 31.1538 10.348 31.1538 15.3017C31.1538 20.0355 28.3215 24 23.2638 24C18.2068 24 15.6782 20.2561 15.6782 15.3017C15.6782 10.568 18.5099 6.60474 23.5676 6.60474ZM23.2638 7.70585C21.0384 7.70585 20.4316 11.0085 20.4316 15.3017C20.4316 19.4849 21.4432 22.8976 23.4665 22.8976C25.7912 22.8976 26.3992 19.5949 26.3992 15.3017C26.3992 11.1185 25.3888 7.70585 23.2638 7.70585ZM60.991 15.4124C60.991 10.8986 63.6206 6.60474 68.7793 6.60474C73.0262 6.60474 75.0501 10.0181 75.0501 14.5312H65.6433C65.5416 18.6044 67.3622 21.5772 71.0041 21.5772C72.6226 21.5772 73.4316 21.1379 74.4438 20.3667L74.8474 20.9166C73.8357 22.4577 71.6109 24 68.7793 24C64.2274 23.9994 60.991 20.4767 60.991 15.4124ZM65.6433 13.3208L70.3972 13.2101C70.3972 11.0085 70.0935 7.70585 68.3745 7.70585C66.6555 7.70585 65.7437 10.7879 65.6433 13.3208ZM87.0882 7.48589C85.8745 6.93469 84.2565 6.60474 82.4359 6.60474C78.6942 6.60474 76.3666 9.0263 76.3666 11.8891C76.3666 14.7518 78.0844 15.9623 80.5148 16.8434C83.0428 17.8333 83.7513 18.6044 83.7513 19.9255C83.7513 21.2466 82.8407 22.457 81.2222 22.457C79.3011 22.457 77.8841 21.2466 76.772 17.9433L76.0635 18.1645L76.1651 23.0082C77.3789 23.5582 79.6037 23.9994 81.5259 23.9994C85.4709 23.9994 88 21.7965 88 18.3845C88 16.0723 86.8867 14.7518 84.2571 13.6501C81.4243 12.4396 80.4138 11.6691 80.4138 10.2374C80.4138 8.80633 81.3256 7.8152 82.5393 7.8152C84.3588 7.8152 85.5725 9.0263 86.4843 11.999L87.1916 11.7791L87.0882 7.48589ZM44.3023 7.04531C42.5833 5.94548 39.5483 6.49476 37.9304 10.4586L38.0309 6.60538L31.2548 8.03644V8.69698L31.9627 8.80696C32.8739 8.91758 33.2775 9.4675 33.3792 10.8992C33.5812 13.5414 33.4802 18.1658 33.3792 20.4773C33.2775 21.7971 32.8739 22.4577 31.9627 22.5683L31.2548 22.6789V23.5594H40.661V22.6789L39.4473 22.5683C38.4362 22.4577 38.1325 21.7971 38.0309 20.4773C37.8288 18.3851 37.8288 14.2019 37.9304 11.5597C38.4356 10.7886 40.661 10.1287 42.6837 11.5597L44.3023 7.04531Z" fill="white"/>
</g>
</svg>
