<svg width="113" height="25" viewBox="0 0 113 25" fill="none" xmlns="http://www.w3.org/2000/svg">
<g opacity="0.7">
<path d="M28.3644 19.4034C21.9974 13.704 17.7268 6.02886 12.1362 5.6489C20.3668 -0.582421 32.3244 8.15663 37.1386 12.2602C38.3809 13.476 30.7715 21.5312 28.3644 19.4034Z" fill="white"/>
<path d="M28.8306 24.5707C17.8047 20.8471 11.9812 8.15653 4.52703 8.15653C14.6212 -0.202559 32.0918 14.9958 32.0918 14.9958L28.8306 24.5707Z" fill="url(#paint0_linear_2490_1266)"/>
<path d="M28.8306 24.5707C17.8047 20.8471 11.9812 8.15653 4.52703 8.15653C14.6212 -0.202559 32.0918 14.9958 32.0918 14.9958L28.8306 24.5707Z" fill="#E0E0E0"/>
<path d="M26.734 14.3118C23.0069 14.7678 19.2799 12.792 15.5528 10.8162C23.7834 19.5552 33.7999 23.4308 41.9528 16.1356C46.3787 9.67631 48.6305 1.92515 52.4352 1.54519C43.4281 -5.37005 37.8375 13.0959 26.734 14.3118Z" fill="#C9C9C9"/>
<path d="M29.063 24.8746C35.1195 24.1907 39.0019 20.4671 41.9524 16.2116C33.7219 23.5068 25.9571 17.2755 15.5524 10.8922C12.6795 9.37232 9.80653 7.77649 6.93359 7.32054C5.38065 7.16856 4.13829 7.24455 3.05123 7.54852C2.19711 7.85248 1.26535 8.23244 0.411228 8.91637C-0.287596 9.44831 -0.0546546 10.5122 0.799464 10.6642C8.40889 12.336 15.2418 26.4704 29.063 24.8746Z" fill="#959595"/>
<path d="M63.927 7.92836L61.7529 5.11667V10.0561H59.8117V0.937126H60.6658L64.1599 5.26865L67.654 0.937126H68.5082V10.0561H66.567V5.11667L64.3929 7.92836H63.927ZM74.3317 9.82816C74.2541 9.75216 74.1764 9.60018 74.0988 9.4482C73.9435 9.60018 73.7105 9.75216 73.3999 9.90415C72.9341 10.1321 72.4682 10.2081 72.0023 10.2081C71.3811 10.2081 70.8376 10.0561 70.2941 9.67617C69.8282 9.29621 69.5952 8.76427 69.5952 8.15634C69.5952 7.39642 69.8282 6.86448 70.2941 6.40853C70.7599 6.02857 71.3811 5.8006 72.1576 5.8006C72.7011 5.8006 73.2446 5.87659 73.7105 6.10456V5.87659C73.7105 5.57262 73.6329 5.42064 73.3999 5.26865C73.167 5.11667 72.8564 5.04068 72.4682 5.04068C72.0799 5.04068 71.6917 5.11667 71.3811 5.19266C71.0705 5.26865 70.7599 5.34465 70.6046 5.42064L70.3717 5.57262L70.0611 4.12878L70.2164 4.05279C70.8376 3.74882 71.6917 3.59684 72.5458 3.59684C73.3999 3.59684 74.0988 3.74882 74.6423 4.12878C75.1858 4.50874 75.4964 5.11667 75.4964 5.95258V8.30832C75.4964 8.4603 75.4964 8.61229 75.4964 8.68828C75.4964 8.68828 75.4964 8.76427 75.5741 8.91625C75.5741 8.99225 75.5741 8.99225 75.5741 8.99225C75.5741 8.99225 75.6517 8.99225 75.8846 8.99225H76.1176V10.2081H75.8846C75.3411 10.2081 74.7199 10.2841 74.3317 9.82816ZM72.5458 7.16845C72.1576 7.16845 71.9246 7.24444 71.6917 7.39642C71.5364 7.5484 71.3811 7.77638 71.3811 8.00435C71.3811 8.23233 71.4588 8.38431 71.6141 8.4603C71.7693 8.61229 72.0023 8.61229 72.2352 8.61229C72.6235 8.61229 72.9341 8.5363 73.2446 8.38431C73.4776 8.23233 73.6329 8.00435 73.7105 7.77638V7.47241C73.3999 7.32043 72.9341 7.16845 72.5458 7.16845ZM82.0188 9.90415C81.8635 9.82816 81.7858 9.67617 81.7082 9.4482C81.2423 9.98014 80.6211 10.2081 79.8447 10.2081H79.767C78.8352 10.2081 78.1364 9.90415 77.5929 9.22022C77.0494 8.61229 76.8164 7.77638 76.8164 6.86448C76.8164 5.87659 77.127 5.11667 77.7482 4.50874C78.3694 3.9008 79.0682 3.59684 79.9223 3.59684C80.4658 3.59684 80.9317 3.67283 81.3976 3.9008V0.633159H83.2611V8.00435C83.2611 8.5363 83.2611 8.61229 83.3388 8.61229C83.3388 8.61229 83.4164 8.68828 83.727 8.68828H83.96V10.0561H83.727C82.8729 10.2841 82.3294 10.2081 82.0188 9.90415ZM80.2329 5.26865C80.1552 5.26865 80.1552 5.26865 80.2329 5.26865C79.6894 5.26865 79.3788 5.42064 79.0682 5.7246C78.7576 6.02857 78.6799 6.40853 78.6799 6.94047C78.6799 7.39642 78.8352 7.85237 79.0682 8.15634C79.3011 8.46031 79.6117 8.61229 80.0776 8.61229C80.4658 8.61229 80.7764 8.46031 81.0094 8.23233C81.2423 7.92836 81.3976 7.6244 81.3976 7.24444V5.7246C81.0094 5.42064 80.6211 5.26865 80.2329 5.26865ZM85.5129 9.29621C84.8141 8.68828 84.5035 7.77638 84.5035 6.78849C84.5035 5.8006 84.8917 4.96469 85.5129 4.43274C86.1341 3.9008 86.9882 3.59684 87.8423 3.59684C88.9294 3.59684 89.7835 3.9008 90.327 4.58473C90.8706 5.26865 90.9482 6.10456 90.7929 7.16845V7.32043H86.367C86.4447 7.70039 86.6 7.92836 86.8329 8.15634C87.1435 8.46031 87.6094 8.5363 88.0753 8.5363C88.8517 8.5363 89.5506 8.46031 90.1717 8.15634L90.4047 8.00435L90.6376 9.4482L90.4823 9.52419C89.6282 9.90415 88.8517 10.0561 87.9976 10.0561C86.9882 10.2841 86.1341 9.98014 85.5129 9.29621ZM86.367 6.02857H89.1623C89.1623 5.8006 89.007 5.57262 88.8517 5.42064C88.6188 5.19266 88.2305 5.11667 87.8423 5.11667C87.0658 5.11667 86.6 5.34465 86.367 6.02857ZM59.8117 14.5396C59.5787 14.6916 59.5011 14.9956 59.5011 15.2996C59.5011 15.6035 59.5787 15.9075 59.8117 16.0595C60.0446 16.2115 60.2776 16.2875 60.5105 16.2875C60.5105 16.2875 60.5105 16.2875 60.5882 16.2875C60.8211 16.2875 61.1317 16.2115 61.287 15.9835C61.5199 15.8315 61.5976 15.5275 61.5976 15.2236C61.5976 14.9196 61.5199 14.6916 61.287 14.4636C60.8211 14.2357 60.1999 14.2357 59.8117 14.5396ZM59.5787 23.2787H61.4423V16.9714H59.5787V23.2787ZM66.7223 16.8194C66.2564 16.8194 65.7905 16.8954 65.4023 17.1234C65.1693 17.1994 64.9364 17.3513 64.7811 17.5033C64.7035 17.3513 64.6258 17.1994 64.5482 17.1234C64.3152 16.8954 64.0046 16.8194 63.694 16.8194C63.3834 16.8194 63.0729 16.8954 62.7623 16.8954H62.5293V18.1872H62.7623C62.9952 18.1872 63.0729 18.1872 63.0729 18.1872C63.0729 18.1872 63.1505 18.3392 63.1505 18.7952V23.2027H65.014V19.6311C65.014 19.1751 65.1693 18.8712 65.4023 18.6432C65.6352 18.4152 65.9458 18.2632 66.334 18.2632C66.7223 18.2632 66.9552 18.4152 67.1882 18.6432C67.4211 18.8712 67.4988 19.1751 67.4988 19.5551V23.2787H69.3623V19.5551C69.3623 18.7192 69.1293 18.0353 68.6635 17.5793C68.1976 17.0474 67.5764 16.8194 66.7223 16.8194ZM79.6894 19.9351L81.7858 22.7467V23.2787H79.9223L77.7482 20.239H76.1952V23.2787H74.2541V14.2357H78.1364C79.1458 14.2357 79.9223 14.5396 80.5435 15.0716C81.1646 15.6795 81.4752 16.3634 81.4752 17.1994C81.4752 17.8073 81.3199 18.4152 80.9317 18.9472C80.5435 19.4031 80.1552 19.7071 79.6894 19.9351ZM76.1952 18.6432H78.1364C78.5247 18.6432 78.9129 18.4912 79.1458 18.2632C79.3788 18.0353 79.5341 17.6553 79.5341 17.2753C79.5341 16.8954 79.3788 16.5914 79.1458 16.2875C78.9129 16.0595 78.5247 15.9075 78.1364 15.9075H76.1952V18.6432ZM89.0847 21.9868C88.8517 21.9868 88.7741 21.9868 88.7741 21.9868C88.7741 21.9868 88.6964 21.8348 88.6964 21.3789V16.8954H86.8329V20.543C86.8329 20.9229 86.6776 21.3029 86.4447 21.5309C86.2117 21.7589 85.9011 21.9108 85.5129 21.9108C85.2023 21.9108 84.8917 21.8348 84.7364 21.6069C84.5035 21.3789 84.4258 21.0749 84.4258 20.619V16.9714H82.5623V20.619C82.5623 21.4549 82.7952 22.1388 83.1835 22.6708C83.5717 23.2027 84.1929 23.5067 85.1247 23.5067C85.9788 23.5067 86.6776 23.2787 87.0658 22.8227C87.0658 22.8987 87.1435 22.8987 87.1435 22.9747C87.2211 23.1267 87.3764 23.2787 87.5317 23.4307C87.687 23.5067 87.8423 23.5827 88.0753 23.5827C88.1529 23.5827 88.2305 23.5827 88.3082 23.5827C88.3858 23.5827 88.5411 23.5827 88.6188 23.5827C88.7741 23.5827 88.9294 23.5067 89.1623 23.5067H89.3953V22.2148L89.0847 21.9868ZM95.2188 20.011C95.0635 19.8591 94.8306 19.7831 94.5976 19.7071C94.3647 19.6311 94.1317 19.5551 93.8988 19.5551C93.6659 19.5551 93.4329 19.4791 93.1223 19.4791C92.5011 19.4031 92.1906 19.3271 92.0353 19.2511C91.88 19.1751 91.88 19.0991 91.8023 18.9472C91.8023 18.8712 91.8023 18.7192 92.0353 18.5672C92.2682 18.4152 92.5011 18.3392 92.8117 18.3392C93.1223 18.3392 93.4329 18.4152 93.6659 18.4912C93.8211 18.5672 93.8988 18.7192 93.8988 18.8712V19.0991H95.5294V18.8712C95.5294 18.1872 95.2964 17.7313 94.6753 17.3513C94.1317 17.0474 93.5106 16.8194 92.7341 16.8194C91.9576 16.8194 91.3364 16.9714 90.7929 17.3513C90.2494 17.7313 89.9388 18.2632 89.9388 18.9472C89.9388 19.6311 90.2494 20.087 90.8705 20.391C91.2588 20.543 91.88 20.695 92.8117 20.847C93.2 20.9229 93.5882 20.9989 93.7435 21.0749C93.8988 21.1509 93.9764 21.2269 93.9764 21.3789C93.9764 21.6069 93.9764 22.0628 92.7341 22.0628C92.4235 22.0628 92.1129 21.9868 91.88 21.8348C91.647 21.6829 91.5694 21.5309 91.5694 21.3789V21.1509H89.7835V21.3789C89.8611 22.1388 90.1717 22.6708 90.7153 23.0507C91.2588 23.3547 91.9576 23.5067 92.7341 23.5067C93.5106 23.5067 94.2094 23.3547 94.7529 22.9747C95.2964 22.5948 95.607 22.0628 95.607 21.3789C95.607 21.0749 95.5294 20.771 95.4517 20.543C95.5294 20.315 95.4517 20.163 95.2188 20.011ZM101.819 20.011C101.664 19.8591 101.431 19.7831 101.198 19.7071C100.965 19.6311 100.732 19.5551 100.499 19.5551C100.266 19.5551 100.033 19.4791 99.7223 19.4791C99.1012 19.4031 98.7906 19.3271 98.6353 19.2511C98.48 19.1751 98.48 19.0991 98.4023 18.9472C98.4023 18.8712 98.4023 18.7192 98.6353 18.5672C98.8682 18.4152 99.1012 18.3392 99.4117 18.3392C99.7223 18.3392 100.033 18.4152 100.266 18.4912C100.421 18.5672 100.499 18.7192 100.499 18.8712V19.0991H102.129V18.8712C102.129 18.1872 101.896 17.7313 101.275 17.3513C100.732 17.0474 100.111 16.8194 99.3341 16.8194C98.5576 16.8194 97.9364 16.9714 97.3929 17.3513C96.8494 17.7313 96.5388 18.2632 96.5388 18.9472C96.5388 19.6311 96.8494 20.087 97.4706 20.391C97.8588 20.543 98.48 20.695 99.4117 20.847C99.8 20.9229 100.188 20.9989 100.344 21.0749C100.499 21.1509 100.576 21.2269 100.576 21.3789C100.576 21.6069 100.576 22.0628 99.3341 22.0628C99.0235 22.0628 98.7129 21.9868 98.48 21.8348C98.247 21.6829 98.1694 21.5309 98.1694 21.3789V21.1509H96.3835V21.3789C96.4611 22.1388 96.7717 22.6708 97.3153 23.0507C97.8588 23.3547 98.5576 23.5067 99.3341 23.5067C100.111 23.5067 100.809 23.3547 101.353 22.9747C101.896 22.5948 102.207 22.0628 102.207 21.3789C102.207 21.0749 102.129 20.771 102.052 20.543C102.129 20.315 101.974 20.163 101.819 20.011ZM103.527 23.2787H105.391V16.9714H103.527V23.2787ZM103.76 14.5396C103.527 14.6916 103.449 14.9956 103.449 15.2996C103.449 15.6035 103.527 15.9075 103.76 16.0595C103.993 16.2115 104.226 16.2875 104.459 16.2875C104.459 16.2875 104.459 16.2875 104.536 16.2875C104.769 16.2875 105.08 16.2115 105.235 15.9835C105.468 15.8315 105.546 15.5275 105.546 15.2236C105.546 14.9196 105.468 14.6916 105.235 14.4636C104.769 14.2357 104.148 14.2357 103.76 14.5396ZM113 23.2787H112.767C112.068 23.3547 111.447 23.4307 111.059 23.0507C110.981 22.9747 110.904 22.8227 110.826 22.6708C110.671 22.8227 110.438 22.9747 110.127 23.1267C109.661 23.3547 109.195 23.4307 108.729 23.4307C108.108 23.4307 107.565 23.2787 107.021 22.8987C106.555 22.5188 106.322 21.9868 106.322 21.3789C106.322 20.619 106.555 20.087 107.021 19.6311C107.487 19.2511 108.108 19.0232 108.885 19.0232C109.428 19.0232 109.972 19.0991 110.438 19.3271V19.0991C110.438 18.7952 110.36 18.6432 110.127 18.4912C109.894 18.3392 109.584 18.2632 109.195 18.2632C108.807 18.2632 108.419 18.3392 108.108 18.4152C107.798 18.4912 107.487 18.5672 107.332 18.6432L107.099 18.7952L106.788 17.3513L106.944 17.2753C107.565 16.9714 108.419 16.8194 109.273 16.8194C110.127 16.8194 110.826 16.9714 111.369 17.3513C111.913 17.7313 112.224 18.3392 112.224 19.1751V21.5309C112.224 21.6829 112.224 21.8348 112.224 21.9108C112.224 21.9108 112.224 21.9868 112.301 22.1388C112.301 22.2148 112.301 22.2148 112.301 22.2148C112.301 22.2148 112.379 22.2148 112.612 22.2148H112.845L113 23.2787ZM109.273 20.391H109.195C108.885 20.391 108.652 20.467 108.419 20.619C108.264 20.771 108.108 20.9989 108.108 21.2269C108.108 21.4549 108.186 21.6069 108.341 21.6829C108.496 21.8348 108.729 21.8348 108.962 21.8348C109.351 21.8348 109.661 21.7589 109.972 21.6069C110.205 21.4549 110.36 21.2269 110.438 20.9989V20.695C110.205 20.467 109.739 20.391 109.273 20.391Z" fill="white"/>
</g>
<defs>
<linearGradient id="paint0_linear_2490_1266" x1="68.8587" y1="6.01641" x2="66.88" y2="15.0591" gradientUnits="userSpaceOnUse">
<stop offset="0.00058962" stop-color="#00BFF2"/>
<stop offset="1" stop-color="#0088CF"/>
</linearGradient>
</defs>
</svg>
