<svg width="169" height="22" viewBox="0 0 169 22" fill="none" xmlns="http://www.w3.org/2000/svg">
<g opacity="0.7">
<path d="M88.1181 7.716C87.5104 7.39299 86.9995 6.91122 86.6389 6.32094C86.2831 5.70748 86.1014 5.00705 86.1132 4.29625C86.0982 3.58505 86.2802 2.88376 86.6389 2.27156C86.9927 1.67562 87.5053 1.1922 88.1181 0.876501C88.7832 0.543584 89.5154 0.370364 90.2575 0.370364C90.9999 0.370364 91.732 0.543584 92.3969 0.876501C93.0054 1.19408 93.5136 1.67734 93.864 2.27156C94.2264 2.88275 94.4127 3.58396 94.4019 4.29625C94.4094 5.00815 94.2235 5.70848 93.864 6.32094C93.5081 6.91074 93.0014 7.39269 92.3969 7.716C91.7304 8.04351 90.9989 8.21369 90.2575 8.21369C89.5163 8.21369 88.7848 8.04351 88.1181 7.716ZM91.639 5.82711C91.8249 5.62084 91.9682 5.37921 92.0606 5.11636C92.1529 4.85352 92.1925 4.57472 92.1769 4.29625C92.1928 4.01588 92.1534 3.73513 92.0611 3.47023C91.9687 3.20534 91.8253 2.96157 91.639 2.75304C91.2693 2.38955 90.7736 2.18615 90.2575 2.18615C89.7415 2.18615 89.2459 2.38955 88.8761 2.75304C88.6883 2.96097 88.543 3.20435 88.4486 3.46919C88.3541 3.73403 88.3125 4.0151 88.326 4.29625C88.312 4.57556 88.3536 4.85487 88.4481 5.11777C88.5425 5.38066 88.6881 5.62183 88.8761 5.82711C89.2459 6.19061 89.7415 6.394 90.2575 6.394C90.7736 6.394 91.2693 6.19061 91.639 5.82711Z" fill="white"/>
<path d="M101.749 2.29622H99.2067V8.09869H97.0305V2.29622H94.4755V0.481414H101.811L101.749 2.29622Z" fill="white"/>
<path d="M106.102 5.2098H104.965V8.09869H102.789V0.481414H104.977V3.44437H106.2L108.254 0.481414H110.576L107.936 4.18511L110.76 8.14807H108.18L106.102 5.2098Z" fill="white"/>
<path d="M117.997 0.851795C118.566 1.1778 119.036 1.65626 119.354 2.23451C119.688 2.86837 119.856 3.57812 119.843 4.29623C119.855 5.01025 119.687 5.71562 119.354 6.34562C119.036 6.92386 118.566 7.40233 117.997 7.72833C117.409 8.05323 116.748 8.21908 116.077 8.20981C115.653 8.23359 115.23 8.16423 114.835 8.0065C114.44 7.84877 114.084 7.60644 113.791 7.29623V10.8518H111.603V0.481425H113.693V1.35797C113.986 1.02296 114.351 0.759864 114.76 0.588715C115.169 0.417566 115.611 0.342869 116.053 0.370314C116.731 0.356742 117.401 0.522736 117.997 0.851795ZM117.08 5.79006C117.268 5.58478 117.413 5.3436 117.508 5.08072C117.602 4.81783 117.644 4.53852 117.63 4.2592C117.643 3.97805 117.602 3.69698 117.507 3.43214C117.413 3.1673 117.268 2.92391 117.08 2.71599C116.903 2.52762 116.688 2.37953 116.45 2.28161C116.211 2.18367 115.955 2.13816 115.698 2.14809C115.442 2.1405 115.186 2.18709 114.948 2.28487C114.71 2.38266 114.495 2.5295 114.317 2.71599C114.131 2.93148 113.988 3.182 113.898 3.45317C113.808 3.72436 113.772 4.01085 113.791 4.29623C113.765 4.85795 113.958 5.40758 114.329 5.8271C114.508 6.01359 114.723 6.16043 114.961 6.25822C115.198 6.35601 115.454 6.40259 115.711 6.395C115.966 6.40317 116.219 6.35679 116.455 6.25891C116.691 6.16105 116.904 6.01389 117.08 5.8271V5.79006Z" fill="white"/>
<path d="M127.422 3.58017C127.682 3.81355 127.886 4.1041 128.017 4.42943C128.149 4.75476 128.204 5.10622 128.18 5.45671C128.201 5.82894 128.135 6.20091 127.986 6.54213C127.837 6.88337 127.61 7.18411 127.324 7.41967C126.617 7.93677 125.75 8.18192 124.879 8.11103H121.212V0.481414H123.388V2.95054H125.185C125.981 2.89073 126.772 3.11343 127.422 3.58017ZM125.674 6.27153C125.789 6.16391 125.878 6.03137 125.936 5.88384C125.993 5.73631 126.016 5.57763 126.004 5.41968C126.018 5.27007 125.996 5.11934 125.941 4.97986C125.885 4.84037 125.798 4.71608 125.686 4.61721C125.396 4.42601 125.054 4.33106 124.708 4.3456H123.4V6.54313H124.708C125.052 6.57437 125.395 6.4778 125.674 6.27153ZM128.999 0.481414H131.175V8.09869H128.999V0.481414Z" fill="white"/>
<path d="M139.464 2.29622H136.909V8.09869H134.733V2.29622H132.178V0.481414H139.513L139.464 2.29622Z" fill="white"/>
<path d="M146.689 3.58017C146.949 3.81356 147.152 4.1041 147.284 4.42943C147.415 4.75476 147.471 5.10622 147.447 5.45671C147.468 5.82894 147.401 6.20091 147.253 6.54213C147.104 6.88337 146.877 7.18411 146.591 7.41967C145.881 7.9319 145.016 8.17654 144.146 8.11103H140.478V0.481414H142.655V2.95054H144.452C145.247 2.89073 146.039 3.11343 146.689 3.58017ZM144.941 6.27153C145.056 6.16391 145.145 6.03137 145.202 5.88384C145.26 5.73631 145.283 5.57763 145.271 5.41968C145.282 5.26916 145.258 5.11811 145.2 4.97871C145.143 4.83932 145.054 4.71549 144.941 4.61721C144.656 4.42383 144.317 4.32854 143.975 4.3456H142.667V6.54313H143.975C144.319 6.57437 144.662 6.4778 144.941 6.27153ZM148.266 0.481414H150.466V8.09869H148.266V0.481414Z" fill="white"/>
<path d="M159.696 4.93826H153.987C154.078 5.39142 154.336 5.79287 154.709 6.06171C155.132 6.34409 155.632 6.48648 156.139 6.46912C156.497 6.47309 156.852 6.41461 157.19 6.29628C157.508 6.16858 157.795 5.97511 158.034 5.72838L159.195 6.96295C158.801 7.38862 158.318 7.72027 157.78 7.93382C157.243 8.14736 156.666 8.23744 156.09 8.19751C155.308 8.21514 154.533 8.04593 153.828 7.70369C153.205 7.38873 152.681 6.90592 152.313 6.30863C151.957 5.69517 151.775 4.99474 151.787 4.28394C151.775 3.57312 151.957 2.87269 152.313 2.25925C152.658 1.67295 153.157 1.19445 153.755 0.87653C154.384 0.530274 155.092 0.355806 155.809 0.370358C156.502 0.363002 157.187 0.528375 157.802 0.851839C158.393 1.16547 158.881 1.64584 159.207 2.23456C159.56 2.87128 159.737 3.59168 159.721 4.32097C159.721 4.32097 159.721 4.54319 159.696 4.93826ZM154.574 2.46912C154.226 2.76079 154.003 3.1763 153.951 3.62962H157.618C157.56 3.18101 157.343 2.76888 157.007 2.46912C156.656 2.19879 156.226 2.05238 155.784 2.05238C155.343 2.05238 154.913 2.19879 154.562 2.46912H154.574Z" fill="white"/>
<path d="M86.6634 12.7655H88.8394V17.284L92.507 12.7531H94.5119V20.3704H92.3481V15.8519L88.6805 20.3827H86.6634V12.7655Z" fill="white"/>
<path d="M96.4807 12.7655H98.6568V15.7408H101.933V12.7655H104.121V20.3828H101.933V17.5309H98.6568V20.3828H96.4807V12.7655Z" fill="white"/>
<path d="M106.077 12.7655H108.241V15.7408H111.53V12.7655H113.718V20.3828H111.53V17.5309H108.241V20.3828H106.077V12.7655Z" fill="white"/>
<path d="M117.055 19.9877C116.445 19.6683 115.933 19.1857 115.576 18.5926C115.231 17.9747 115.05 17.2773 115.05 16.5679C115.05 15.8586 115.231 15.1613 115.576 14.5432C115.933 13.9503 116.445 13.4677 117.055 13.1482C117.718 12.8102 118.452 12.6407 119.195 12.6544C119.933 12.6392 120.664 12.8088 121.322 13.1482C121.935 13.4639 122.447 13.9473 122.801 14.5432C123.146 15.1613 123.327 15.8586 123.327 16.5679C123.327 17.2773 123.146 17.9747 122.801 18.5926C122.447 19.1885 121.935 19.672 121.322 19.9877C120.665 20.3314 119.934 20.5053 119.195 20.4939C118.451 20.5039 117.717 20.33 117.055 19.9877ZM120.576 18.1111C120.948 17.6872 121.141 17.1335 121.114 16.5679C121.14 16.0062 120.947 15.4566 120.576 15.0371C120.396 14.8528 120.18 14.7063 119.943 14.6065C119.706 14.5066 119.452 14.4551 119.195 14.4551C118.938 14.4551 118.684 14.5066 118.446 14.6065C118.209 14.7063 117.994 14.8528 117.813 15.0371C117.625 15.2424 117.48 15.4836 117.385 15.7465C117.291 16.0093 117.249 16.2887 117.263 16.5679C117.25 16.8492 117.291 17.1302 117.386 17.395C117.48 17.6599 117.625 17.9032 117.813 18.1111C118.183 18.4747 118.679 18.6781 119.195 18.6781C119.711 18.6781 120.206 18.4747 120.576 18.1111Z" fill="white"/>
<path d="M131.787 18.21C131.8 18.521 131.737 18.8306 131.602 19.1107C131.468 19.391 131.267 19.633 131.016 19.8149C130.328 20.2423 129.524 20.441 128.718 20.3828H124.696V12.7655H128.547C129.318 12.7222 130.086 12.9021 130.76 13.2841C131.01 13.4299 131.217 13.6409 131.359 13.8949C131.501 14.149 131.572 14.4369 131.567 14.7285C131.575 15.0846 131.472 15.4343 131.273 15.7285C131.067 16.0267 130.784 16.2616 130.454 16.4075C130.85 16.5025 131.201 16.7349 131.444 17.0644C131.688 17.3939 131.809 17.7994 131.787 18.21ZM126.701 15.889H128.351C129.122 15.889 129.501 15.6174 129.501 15.0742C129.501 14.531 129.122 14.2594 128.351 14.2594H126.701V15.889ZM129.745 18.0495C129.753 17.9257 129.732 17.8017 129.683 17.6879C129.634 17.5741 129.559 17.4737 129.464 17.3952C129.192 17.2426 128.882 17.1738 128.571 17.1976H126.701V18.8767H128.535C129.342 18.8767 129.745 18.605 129.745 18.0495Z" fill="white"/>
<path d="M138.902 13.4938C139.232 13.8255 139.486 14.2261 139.647 14.6676C139.807 15.1091 139.87 15.5807 139.831 16.0493V20.395H137.789V19.4444C137.538 19.816 137.191 20.1113 136.786 20.2984C136.381 20.4855 135.933 20.5573 135.491 20.5061C134.974 20.5204 134.461 20.4192 133.987 20.2098C133.587 20.0389 133.246 19.7509 133.009 19.3826C132.768 19.0183 132.648 18.5858 132.667 18.1481C132.656 17.8261 132.722 17.5061 132.861 17.2157C132.999 16.9254 133.205 16.6734 133.462 16.4814C134.19 16.0165 135.047 15.8 135.907 15.8641H137.643C137.657 15.6586 137.626 15.4523 137.552 15.26C137.478 15.0679 137.363 14.8949 137.215 14.753C136.84 14.4683 136.374 14.3321 135.907 14.3703C135.492 14.3666 135.079 14.4292 134.684 14.5555C134.33 14.6779 133.997 14.8526 133.694 15.074L132.948 13.5802C133.398 13.2689 133.899 13.0392 134.427 12.9012C135.005 12.7429 135.601 12.664 136.2 12.6666C137.171 12.5944 138.134 12.8892 138.902 13.4938ZM137.019 18.7407C137.307 18.5672 137.523 18.2957 137.63 17.9752V17.1975H136.139C135.234 17.1975 134.794 17.4937 134.794 18.0863C134.789 18.2165 134.817 18.3457 134.875 18.4623C134.932 18.5787 135.018 18.6787 135.124 18.753C135.388 18.9408 135.707 19.0323 136.029 19.0123C136.378 19.0194 136.721 18.9252 137.019 18.7407Z" fill="white"/>
<path d="M150.1 18.5185V22H148.022V20.3827H141.555V12.7654H143.731V18.5185H146.799V12.7161H148.975V18.5185H150.1Z" fill="white"/>
<path d="M151.335 12.7655H153.511V17.284L157.178 12.7531H159.183V20.3704H157.007V15.8519L153.339 20.3827H151.322L151.335 12.7655Z" fill="white"/>
<path d="M161.151 12.7655H163.328V17.284L166.995 12.7531H169V20.3704H166.824V15.8519L163.156 20.3827H161.139L161.151 12.7655Z" fill="white"/>
<path d="M65.0006 8.82726C64.6461 7.97541 63.5947 7.53097 61.9688 7.53097C59.817 7.62594 57.702 8.12848 55.734 9.01245C53.8446 9.76971 52.0991 10.8515 50.575 12.21C49.2669 13.4445 48.7412 14.6791 49.1202 15.5433C49.4992 16.4075 50.5139 16.8396 52.1521 16.8396C54.3037 16.7434 56.4185 16.241 58.3869 15.3581C60.2727 14.601 62.0141 13.519 63.5336 12.1606C64.8906 10.9137 65.3796 9.71615 65.0006 8.82726ZM58.1424 14.8149C56.2528 15.6691 54.2203 16.155 52.1521 16.247C50.8195 16.247 49.9271 15.9137 49.707 15.3334C49.487 14.7532 49.9149 13.7285 51.0273 12.6791C52.4939 11.3731 54.1731 10.3331 55.9907 9.60504C57.3215 9.0364 58.7118 8.62223 60.1351 8.37047C59.9696 9.4345 60.0619 10.5232 60.404 11.5433C60.5989 12.1447 60.8788 12.7143 61.2353 13.2347C60.2542 13.8555 59.2189 14.3844 58.1424 14.8149Z" fill="white"/>
<path d="M64.8051 8.01234C65.1597 8.86419 66.1988 9.2469 67.837 9.2469C69.9887 9.15193 72.1038 8.64939 74.0718 7.76542C75.959 7.01118 77.7009 5.92898 79.2186 4.5679C80.5389 3.33333 81.0645 2.09876 80.6856 1.23457C80.3066 0.37037 79.2797 0 77.6537 0C75.5019 0.0949726 73.3869 0.597523 71.4189 1.48148C66.969 3.35802 64.0594 6.23456 64.8051 8.01234ZM71.6512 2.03703C73.5479 1.19305 75.5832 0.711657 77.6537 0.617283C78.9863 0.617283 79.8787 0.950616 80.0988 1.53086C80.3188 2.11111 79.8787 3.1358 78.7785 4.18518C77.3092 5.49383 75.6255 6.53407 73.8028 7.25925L73.3138 7.45678C73.295 7.36883 73.2705 7.28223 73.2405 7.19752C72.9397 6.28438 72.4508 5.44592 71.8061 4.73733C71.1612 4.02875 70.3751 3.46609 69.4996 3.08642C70.197 2.69674 70.9152 2.3464 71.6512 2.03703Z" fill="white"/>
<path d="M81.3579 10.0494C80.9178 8.97537 79.5241 8.39512 77.4336 8.39512C74.5867 8.52112 71.7881 9.18265 69.1817 10.3457C66.6851 11.3462 64.3806 12.7793 62.3723 14.5802C60.6485 16.2099 59.9272 17.7531 60.4529 18.9012C60.9786 20.0494 62.2867 20.5555 64.3772 20.5555C67.2241 20.4296 70.0227 19.768 72.6292 18.6049C75.1257 17.5969 77.4328 16.1647 79.4508 14.3704C81.1623 12.7407 81.8469 11.1976 81.3579 10.0494ZM79.0229 13.9259C77.0655 15.672 74.8238 17.063 72.3969 18.037C69.8645 19.1705 67.1445 19.8153 64.3772 19.9383C62.5557 19.9383 61.3576 19.4815 61.0153 18.7037C60.673 17.9259 61.2843 16.4815 62.788 15.0617L62.898 14.963C63.9008 15.6817 65.0782 16.1116 66.3043 16.2069C67.5303 16.3021 68.7589 16.059 69.8588 15.5037C70.9587 14.9483 71.8885 14.1015 72.5487 13.0538C73.2089 12.0062 73.5748 10.797 73.6072 9.55561C74.8592 9.239 76.143 9.06915 77.4336 9.04944C79.2674 9.04944 80.4533 9.49389 80.7956 10.284C81.1379 11.0741 80.5266 12.4938 79.0229 13.9259Z" fill="white"/>
<path d="M57.8001 7.40745C59.4027 7.33529 60.978 6.9627 62.4456 6.30868C63.8509 5.74244 65.1494 4.93646 66.2843 3.92597C67.2868 2.97535 67.678 2.06178 67.3846 1.37042C67.0911 0.67906 66.3087 0.358073 65.074 0.358073C63.4712 0.428796 61.8957 0.80145 60.4285 1.45684C59.0232 2.02308 57.7247 2.82906 56.5898 3.83955C55.5873 4.79017 55.1961 5.70375 55.4895 6.3951C55.7829 7.08646 56.5653 7.40745 57.8001 7.40745ZM57.0054 4.284C58.093 3.32743 59.333 2.56357 60.673 2.02474C62.0664 1.40011 63.5632 1.0442 65.0862 0.975356C66.0276 0.975356 66.6633 1.20992 66.8344 1.60499C66.8762 1.75839 66.8826 1.91948 66.8529 2.07576C66.8233 2.23203 66.7584 2.37933 66.6633 2.50622C65.4355 2.52936 64.2377 2.89281 63.2007 3.55687C62.1637 4.22093 61.3272 5.16007 60.783 6.27165C59.8223 6.58655 58.8219 6.76115 57.8123 6.79016C56.871 6.79016 56.223 6.56794 56.0641 6.16054C55.9052 5.75313 56.223 5.02473 57.0054 4.284Z" fill="white"/>
</g>
<path opacity="0.7" fill-rule="evenodd" clip-rule="evenodd" d="M7.45716 0.0339398C6.4472 0.107735 5.22553 0.362364 4.39866 0.671311C1.63852 1.70274 0.105659 4.10554 0.349442 7.01861C0.516005 9.00916 1.35759 10.35 3.02024 11.2739C3.7743 11.6928 4.39012 11.8785 7.48009 12.6182C9.1196 13.0107 10.7215 13.4061 11.0398 13.4969C12.16 13.8164 12.9674 14.3053 13.245 14.832C13.4245 15.1725 13.4918 15.6751 13.4169 16.1143C13.2343 17.1845 12.4649 17.8784 11.0878 18.2149C10.1536 18.4432 8.86545 18.5203 7.91452 18.4048C5.8236 18.151 4.60243 17.1785 4.32718 15.548L4.24213 15.0444H2.12107H0L0.0322434 15.6447C0.0855415 16.6373 0.421314 17.6972 0.967468 18.5969C1.31542 19.17 2.26222 20.1245 2.85561 20.5003C4.04046 21.2507 5.48711 21.7152 7.31937 21.9334C8.04884 22.0202 10.0497 22.0227 10.7091 21.9377C12.3048 21.7318 13.7198 21.2758 14.8428 20.6056L15.2011 20.3919L15.2167 20.9463L15.2324 21.5008H17.325H19.4175L19.4199 19.0329L19.4223 16.5651L20.3019 15.6847C21.1201 14.8659 21.1864 14.8117 21.25 14.911C21.2877 14.9697 22.1517 16.4704 23.1701 18.2459L25.0217 21.4741L27.5109 21.488C28.8799 21.4956 30 21.4898 30 21.4751C30 21.4603 28.7087 19.3217 27.1304 16.7224C25.5521 14.1232 24.2686 11.9747 24.2781 11.948C24.2876 11.9213 25.4611 10.6585 26.8859 9.14197C28.3107 7.62535 29.559 6.29197 29.6598 6.17896L29.8432 5.97336L27.2898 5.97619L24.7363 5.97902L22.0907 8.92384L19.4451 11.8687L19.431 6.19971L19.417 0.530764H17.3228H15.2287V1.41118C15.2287 1.89542 15.2089 2.29161 15.1847 2.29161C15.1606 2.29161 15.0427 2.19246 14.9229 2.07129C14.09 1.22912 12.5348 0.491652 11.0081 0.21504C9.93787 0.021081 8.5805 -0.0481261 7.45716 0.0339398ZM9.52405 3.65098C10.1872 3.75561 10.5512 3.86462 11.0055 4.09449C11.9288 4.56165 12.531 5.39928 12.6829 6.42756L12.7222 6.69371L13.9754 6.70806L15.2287 6.72242V8.69568C15.2287 9.78094 15.2194 10.6689 15.2082 10.6689C15.1969 10.6689 14.9286 10.5491 14.6119 10.4027C13.8139 10.0337 12.9826 9.78041 11.1224 9.33977C10.2433 9.13151 8.75621 8.77908 7.81774 8.55657C6.04225 8.13568 5.57018 7.97464 5.16143 7.65038C4.7319 7.30963 4.48217 6.74211 4.48217 6.10676C4.48217 4.83426 5.44175 3.9587 7.16725 3.65668C7.73732 3.5569 8.9101 3.55402 9.52405 3.65098Z" fill="white"/>
</svg>
