<svg width="200" height="20" viewBox="0 0 200 20" fill="none" xmlns="http://www.w3.org/2000/svg">
<path d="M81.2811 9.78769L80.5384 9.98775C79.8245 7.58709 78.6286 6.5498 76.9401 6.5498C75.7538 6.5498 74.9192 7.32351 74.9192 8.55035C74.9192 9.72468 75.9034 10.3508 78.5467 11.4151C80.987 12.3034 82 13.3917 82 15.2922C82 18.1855 79.7042 20 75.9372 20C74.1184 20 72.0692 19.5989 70.9112 19.1408L70.7667 15.1207L71.4806 14.9776C72.5517 17.7284 73.9208 18.7687 75.7058 18.7687C77.2493 18.7687 78.0602 17.7084 78.0602 16.6201C78.0602 15.5318 77.4337 14.9011 75.0217 14.0419C72.726 13.2917 71.1537 12.3229 71.1537 9.90722C71.1537 7.52957 73.2656 5.51452 76.8643 5.51452C78.5619 5.51452 80.1054 5.8011 81.1184 6.26472L81.2811 9.78769ZM65.7402 11.048C65.827 9.15752 65.441 6.42677 63.8688 6.42677C62.252 6.42677 61.3704 8.97647 61.3416 11.1631L65.7402 11.048ZM64.2548 5.50952C68.2097 5.50952 70.1154 8.3743 70.1488 12.1363H61.2547C61.2259 15.4688 63.0104 17.9899 66.3474 17.9899C67.804 17.9899 68.6432 17.5888 69.5304 16.9587L69.9447 17.4168C68.961 18.7347 66.935 19.995 64.2341 19.995C59.8931 19.995 56.8829 17.0442 56.8829 12.881C56.8728 9.11851 59.3434 5.50902 64.2527 5.50902L64.2548 5.50952ZM51.4249 12.4809C51.338 9.50161 50.2387 7.14296 48.1258 7.14296C47.6241 7.14296 47.2381 7.22899 46.6404 7.42954L46.8142 18.8792C47.0264 18.9652 47.5281 19.0222 47.8853 19.0222C49.9401 19.0222 51.4254 16.1479 51.4254 12.4804L51.4249 12.4809ZM55.8341 12.2514C55.8341 16.9592 52.8244 19.9955 47.7403 19.9955C45.9215 19.9955 44.0455 19.7089 42.4151 19.3368C42.5596 17.4463 42.5596 5.73308 42.4151 3.53247C42.2707 2.38216 41.9423 1.84201 41.051 1.73198L40.4528 1.67446V1.14932L46.7268 0C46.698 0.973768 46.6399 3.53297 46.6399 6.5418C47.7398 5.99765 48.7518 5.68256 50.1224 5.68256C53.3928 5.68256 55.8331 8.43332 55.8331 12.2524L55.8341 12.2514ZM39.8496 9.69267C37.9105 8.43232 35.8269 8.97647 35.4121 9.69267C35.2287 11.8933 35.2676 15.2942 35.4409 17.0362C35.5278 18.1865 35.8552 18.6691 36.753 18.7552L37.9393 18.8702V19.6204H29.074V18.8702L29.7591 18.7552C30.618 18.6691 30.9211 18.182 30.9747 17.0362C31.1869 15.1742 31.245 11.2686 30.9747 9.12001C30.9166 7.88817 30.618 7.42954 29.7591 7.31951L29.074 7.23349V6.71835L35.4116 5.51502L35.3247 8.7234C36.8101 5.40049 39.7622 4.99937 41.3633 5.88762L39.8496 9.69267ZM19.0518 12.7675C19.0518 16.272 20.0117 19.1368 21.9316 19.1368C24.0151 19.1368 24.6133 16.3295 24.6133 12.7675C24.6133 9.20553 23.6918 6.42677 21.733 6.42677C19.6398 6.42677 19.0512 9.14852 19.0512 12.7675H19.0518ZM29.1028 12.71C29.1028 16.7301 26.4211 19.996 21.6365 19.996C16.9293 19.996 14.5562 16.8926 14.5562 12.824C14.5562 8.83293 17.238 5.50952 22.0225 5.50952C26.7297 5.50952 29.1028 8.63187 29.1028 12.7095V12.71ZM16.7848 5.8016L15.8011 6.08817C14.9715 3.2714 13.5053 1.66696 10.9777 1.66696H7.6785C7.4951 3.53847 7.4082 6.43177 7.4951 9.55413L9.69437 9.4391C11.1798 9.4391 11.8062 8.3788 12.1639 6.83238H12.9935V13.3442H12.1639C11.8072 11.7687 11.1803 10.6934 9.69437 10.6134L7.4951 10.5849C7.4951 12.9055 7.5239 14.8861 7.6785 16.0949C7.823 17.8139 8.30499 18.5966 9.57817 18.7592L10.7746 18.8742V19.6244H0V18.8742L0.89729 18.7592C2.14167 18.5871 2.65297 17.8089 2.79696 16.0949C3.03795 13.2877 3.09606 7.2905 2.79696 3.95809C2.65246 2.1826 2.14117 1.4659 0.89729 1.32236L0 1.17932V0.405112H16.7565L16.7848 5.8016Z" fill="white"/>
<path fill-rule="evenodd" clip-rule="evenodd" d="M178.006 14.3001C178.006 21.8001 188 21.6819 188 15.2195V14.8714H183.006V15.6267H187.206C186.687 20.815 178.769 20.2699 178.769 14.4774C178.757 13.5832 178.986 12.7043 179.427 11.9465C179.869 11.1886 180.504 10.584 181.257 10.2052C182.01 9.82651 182.849 9.68981 183.673 9.81157C184.496 9.93332 185.27 10.3083 185.9 10.8916C186.211 11.2177 186.499 11.569 186.761 11.9424L187.371 11.6271C186.962 10.2348 185.063 9.00015 183.031 9.00015C181.713 8.98958 180.446 9.53923 179.503 10.5294C178.561 11.5196 178.021 12.8702 178 14.2869" fill="white"/>
<path fill-rule="evenodd" clip-rule="evenodd" d="M111 19.9925H111.833V10.7066C112.457 11.4125 113.004 12.1834 113.465 13.0061L117.898 19.4988C118.281 20.0399 117.972 19.9993 119 19.9993V9.00224H118.167V18.3423L112.478 10.1046C112.33 9.86793 112.249 9.78001 112.102 9.5433C111.719 8.9346 111.759 9.00224 111 9.00224V19.9925Z" fill="white"/>
<path fill-rule="evenodd" clip-rule="evenodd" d="M195.599 20H196.382V16.3085C196.382 15.1119 196.659 15.051 197.424 13.665L200 9.04733L199.131 9C198.921 9.52059 196.173 14.4087 195.963 14.6116C195.649 14.0234 192.974 9.08789 192.727 9.01352H192C192.21 9.65581 194.083 12.7388 194.57 13.638C196 16.2747 195.618 14.9902 195.618 20" fill="white"/>
<path fill-rule="evenodd" clip-rule="evenodd" d="M124 9.79877H127.549L127.584 20H128.059L128.458 19.9662V9.79877H131.923L132 9H124V9.79877Z" fill="white"/>
<path fill-rule="evenodd" clip-rule="evenodd" d="M152 20H158V19.2215H152.915L152.875 18.8357V9H152V20Z" fill="white"/>
<path d="M102 8H101V14H102V8Z" fill="white"/>
<path d="M99.0299 10.758C98.3533 11.1689 97.7955 11.7416 97.4096 12.4218C97.0153 13.1161 96.8136 13.8988 96.8244 14.6924C96.8353 15.486 97.0583 16.2631 97.4714 16.9469C97.8845 17.6307 98.4734 18.1976 99.18 18.5914C99.8865 18.9853 100.686 19.1925 101.5 19.1926C102.319 19.1907 103.123 18.9793 103.832 18.5797C104.541 18.1802 105.13 17.6062 105.541 16.9153C105.951 16.2243 106.169 15.4404 106.172 14.6419C106.175 13.8433 105.963 13.0579 105.557 12.364C105.145 11.6738 104.558 11.0986 103.851 10.6938L104.266 10C105.1 10.4733 105.792 11.1522 106.272 11.9686C106.752 12.785 107.003 13.7101 107 14.651C106.997 15.592 106.741 16.5157 106.256 17.3295C105.772 18.1432 105.076 18.8183 104.24 19.2871C103.403 19.7558 102.455 20.0017 101.49 20C100.525 19.9983 99.5778 19.7491 98.743 19.2774C97.9081 18.8057 97.2152 18.1281 96.7337 17.3127C96.2522 16.4972 95.9992 15.5726 96 14.6316C96.0018 13.7212 96.2409 12.8261 96.6949 12.0305C97.1489 11.2349 97.8028 10.5649 98.5952 10.0835L99.0299 10.758Z" fill="white"/>
<path d="M170.536 10.6112C171.354 11.5112 171.863 12.6955 171.976 13.9621C172.089 15.2287 171.799 16.4993 171.156 17.5573C170.513 18.6153 169.556 19.3952 168.449 19.764C167.342 20.1328 166.152 20.0678 165.083 19.5799C164.015 19.0921 163.133 18.2116 162.588 17.0887C162.044 15.9657 161.87 14.6698 162.097 13.4218C162.324 12.1737 162.937 11.0508 163.832 10.2445C164.728 9.43822 165.849 8.99838 167.006 9C167.662 9.00022 168.311 9.14263 168.917 9.41909C169.522 9.69555 170.073 10.1006 170.536 10.6112V10.6112ZM171.265 14.4935C171.265 13.4065 170.922 12.3533 170.294 11.5134C169.667 10.6735 168.795 10.0988 167.825 9.88742C166.856 9.676 165.85 9.84089 164.979 10.354C164.108 10.8671 163.425 11.6966 163.048 12.7012C162.67 13.7058 162.621 14.8233 162.909 15.8632C163.197 16.9031 163.803 17.801 164.626 18.404C165.448 19.007 166.435 19.2776 167.418 19.1699C168.401 19.0621 169.32 18.5825 170.018 17.8129C170.822 16.9366 171.277 15.745 171.283 14.5L171.265 14.4935Z" fill="white"/>
<path d="M144.536 10.6112C145.354 11.5112 145.863 12.6955 145.976 13.9621C146.089 15.2287 145.799 16.4993 145.156 17.5573C144.513 18.6153 143.556 19.3952 142.449 19.764C141.342 20.1328 140.152 20.0678 139.083 19.5799C138.015 19.0921 137.133 18.2116 136.588 17.0887C136.044 15.9657 135.87 14.6698 136.097 13.4218C136.324 12.1737 136.937 11.0508 137.832 10.2445C138.728 9.43822 139.849 8.99838 141.006 9C141.662 9.00022 142.311 9.14263 142.917 9.41909C143.522 9.69555 144.073 10.1006 144.536 10.6112V10.6112ZM145.265 14.4935C145.265 13.4065 144.922 12.3533 144.294 11.5134C143.667 10.6735 142.795 10.0988 141.825 9.88742C140.856 9.676 139.85 9.84089 138.979 10.354C138.108 10.8671 137.425 11.6966 137.048 12.7012C136.67 13.7058 136.621 14.8233 136.909 15.8632C137.197 16.9031 137.803 17.801 138.626 18.404C139.448 19.007 140.435 19.2776 141.418 19.1699C142.401 19.0621 143.32 18.5825 144.018 17.8129C144.814 16.9324 145.26 15.7413 145.259 14.5L145.265 14.4935Z" fill="white"/>
</svg>
