<svg width="121" height="38" viewBox="0 0 121 38" fill="none" xmlns="http://www.w3.org/2000/svg">
<path opacity="0.7" fill-rule="evenodd" clip-rule="evenodd" d="M63.475 8.41944H65.1373L64.4946 6.37879H64.1178L63.475 8.41944V8.41944ZM65.4797 9.49095H63.1504L62.6551 11.0797H61.3958L63.3388 5.20136H65.3164L67.2698 11.0797H65.975L65.4797 9.49095V9.49095ZM69.4321 6.2967V11.0797H68.1336V5.20136H72.6261V6.2967H69.4321V6.2967ZM78.3276 9.98346V11.0797H73.6625V5.20136H78.2324V6.2967H74.9517V7.53151H77.5048V8.60126H74.9517V9.98346H78.3276V9.98346ZM84.8919 5.20136V11.0797H83.5925V8.61715H80.835V11.0797H79.5365V5.20136H80.835V7.49091H83.5925V5.20136H84.8919ZM90.766 6.28082H88.8257V11.0797H87.5234V6.28082H85.5832V5.20136H90.766V6.28082ZM96.8126 9.27559C96.6223 10.4345 95.6811 11.243 94.2389 11.243C92.3546 11.243 91.2846 10.002 91.2846 8.22173C91.2846 6.44234 92.3639 5.20136 94.2389 5.20136C95.612 5.20136 96.5365 5.93659 96.752 7.00546H95.4049C95.2576 6.54031 94.8518 6.287 94.2389 6.287C93.1326 6.287 92.6065 7.13609 92.6065 8.22173C92.6065 9.29942 93.1326 10.1573 94.2389 10.1573C94.904 10.1573 95.3527 9.83077 95.474 9.27471H96.8126V9.27559ZM102.514 6.28082H100.574V11.0797H99.2715V6.28082H97.3312V5.20136H102.514V6.28082ZM107.217 9.30913C107.217 8.81486 106.892 8.55978 106.224 8.55978H104.686V10.0338H106.206C106.857 10.0338 107.217 9.80252 107.217 9.31001V9.30913ZM107.041 6.87306C107.041 6.43793 106.742 6.22345 106.153 6.22345H104.686V7.53416H106.161C106.752 7.53239 107.041 7.31879 107.041 6.87395V6.87306ZM108.562 9.37445C108.562 10.3542 107.884 11.0797 106.4 11.0797H103.378V5.20136H106.32C107.709 5.20136 108.385 5.91805 108.385 6.75744C108.385 7.2932 108.131 7.75393 107.727 7.94281V8.10787C108.174 8.28086 108.562 8.79014 108.562 9.37445ZM114.144 8.22261C114.144 7.14491 113.613 6.287 112.449 6.287C111.293 6.287 110.754 7.14491 110.754 8.22173C110.754 9.29942 111.293 10.1573 112.449 10.1573C113.613 10.1573 114.144 9.29942 114.144 8.22173V8.22261ZM115.472 8.22261C115.472 9.93668 114.411 11.243 112.449 11.243C110.484 11.243 109.425 9.93668 109.425 8.22173C109.425 6.50765 110.484 5.20136 112.449 5.20136C114.411 5.20136 115.472 6.50765 115.472 8.22173V8.22261ZM63.1094 15.9774V20.0852H63.2801L65.5935 15.9774H67.2698V21.8558H66.0646V17.658H65.8929L63.5282 21.8558H61.9135V15.9774H63.1094V15.9774ZM74.1802 15.9774V21.8558H72.8808V19.3932H70.1233V21.8558H68.8239V15.9774H70.1233V18.267H72.8808V15.9774H74.1802ZM80.9181 15.9774V21.8558H79.6196V19.3932H76.8621V21.8558H75.5627V15.9774H76.8621V18.267H79.6196V15.9774H80.9181ZM86.6727 18.9978C86.6727 17.921 86.1429 17.0631 84.9787 17.0631C83.822 17.0631 83.2837 17.9201 83.2837 18.9978C83.2837 20.0755 83.8229 20.9325 84.9787 20.9325C86.1429 20.9325 86.6727 20.0764 86.6727 18.9978ZM88.002 18.9978C88.002 20.7127 86.9414 22.019 84.9787 22.019C83.0141 22.019 81.9544 20.7127 81.9544 18.9978C81.9544 17.2837 83.0141 15.9774 84.9787 15.9774C86.9414 15.9774 88.0011 17.2837 88.0011 18.9978H88.002ZM93.0495 20.0852C93.0495 19.5909 92.7249 19.3358 92.0561 19.3358H90.5188V20.8098H92.0393C92.6904 20.8098 93.0495 20.5786 93.0495 20.0861V20.0852ZM92.8732 17.6491C92.8732 17.214 92.5747 16.9995 91.9852 16.9995H90.5188V18.3093H91.9945C92.585 18.3076 92.8732 18.094 92.8732 17.6491V17.6491ZM94.3938 20.1505C94.3938 21.1302 93.7165 21.8558 92.2324 21.8558H89.21V15.9774H92.1531C93.5421 15.9774 94.2175 16.6941 94.2175 17.5335C94.2175 18.0693 93.9637 18.53 93.5598 18.7189V18.8839C94.0066 19.0569 94.3938 19.5662 94.3938 20.1505V20.1505ZM96.9926 19.1955H98.6549L98.0122 17.1549H97.6353L96.9926 19.1955V19.1955ZM98.9964 20.267H96.668L96.1717 21.8558H94.9124L96.8564 15.9774H98.834L100.786 21.8558H99.4926L98.9964 20.267V20.267ZM106.452 21.8787H101.65V15.9774H102.93V20.7789H105.541V15.9774H106.821V20.7789H107.697V23.3253H106.452V21.8778V21.8787ZM109.929 15.9774V20.0852H110.101L112.412 15.9774H114.09V21.8558H112.885V17.658H112.715L110.349 21.8558H108.734V15.9774H109.929V15.9774ZM119.943 14.507C119.874 15.2793 119.29 15.7594 118.317 15.7594C117.346 15.7594 116.76 15.2793 116.693 14.507H117.638C117.673 14.7832 117.896 15.0118 118.317 15.0118C118.73 15.0118 118.952 14.7929 118.996 14.507H119.943ZM116.84 16.0516V20.1073H117.011L119.325 16.0516H121V21.8549H119.796V17.7091H119.623L117.259 21.8549H115.645V16.0516H116.84V16.0516ZM61.9135 26.9194H63.9433L64.9545 29.2655H65.1271L66.1383 26.9194H68.1336V32.7978H66.9218V28.2125H66.7474L65.6159 30.8295H64.4312L63.2997 28.2125H63.1243V32.7969H61.9135V26.9185V26.9194ZM73.8882 29.7765C73.8882 28.6997 73.3584 27.8418 72.1942 27.8418C71.0375 27.8418 70.4993 28.6988 70.4993 29.7765C70.4993 30.8542 71.0384 31.7112 72.1942 31.7112C73.3584 31.7112 73.8882 30.8551 73.8882 29.7765ZM75.2175 29.7765C75.2175 31.4915 74.156 32.7969 72.1942 32.7969C70.2297 32.7969 69.17 31.4906 69.17 29.7765C69.17 28.0624 70.2297 26.7561 72.1942 26.7561C74.156 26.7561 75.2166 28.0624 75.2166 29.7765H75.2175ZM81.6093 30.8304C81.4199 31.9893 80.4778 32.7969 79.0347 32.7969C77.1522 32.7969 76.0813 31.5568 76.0813 29.7765C76.0813 27.9971 77.1606 26.7561 79.0356 26.7561C80.4087 26.7561 81.3332 27.4905 81.5496 28.5602H80.2016C80.0543 28.0951 79.6485 27.8418 79.0356 27.8418C77.9293 27.8418 77.4031 28.6909 77.4031 29.7765C77.4031 30.8542 77.9293 31.7112 79.0356 31.7112C79.7007 31.7112 80.1494 31.3847 80.2707 30.8304H81.6093V30.8304ZM82.8182 26.9194H84.1233V29.216H85.5654L86.7492 26.9194H88.0943L86.6615 29.7765L88.1755 32.7969H86.8276L85.5776 30.3264H84.1242V32.7978H82.8182V26.9194V26.9194ZM92.8779 31.0272C92.8779 30.5329 92.5523 30.277 91.8844 30.277H90.3462V31.7518H91.8667C92.5178 31.7518 92.8779 31.5206 92.8779 31.0272V31.0272ZM92.7007 28.5911C92.7007 28.1551 92.4022 27.9415 91.8135 27.9415H90.3462V29.2505H91.8219C92.4124 29.2487 92.7016 29.0351 92.7016 28.5911H92.7007ZM94.2212 31.0925C94.2212 32.0722 93.5439 32.7969 92.0598 32.7969H89.0384V26.9185H91.9805C93.3695 26.9185 94.0458 27.6361 94.0458 28.4755C94.0458 29.0104 93.7911 29.4711 93.3872 29.6609V29.8251C93.835 29.9989 94.2212 30.5082 94.2212 31.0925V31.0925ZM100.868 32.7969H102.169V26.9185H100.868V32.7969ZM98.8396 30.8542C98.8396 30.3026 98.5253 29.9901 97.6596 29.9901H96.5589V31.7201H97.6596C98.5253 31.7201 98.8396 31.4138 98.8396 30.8542ZM95.2576 32.7969V26.9185H96.5589V28.9115H97.8592C99.3191 28.9115 100.175 29.6441 100.175 30.8463C100.175 32.0643 99.3182 32.7969 97.8592 32.7969H95.2576ZM10.395 33.7722C10.1245 34.0899 9.71031 34.1967 9.46591 34.0123C9.25136 33.849 9.24483 33.5109 9.43139 33.2161C9.27705 33.25 9.14107 33.336 9.04893 33.458C8.81759 33.774 8.95192 34.2444 9.3521 34.5083C9.75322 34.7749 10.2663 34.7316 10.4986 34.4174C10.6599 34.1985 10.6413 33.9037 10.4799 33.6557C10.4556 33.6945 10.4277 33.7351 10.395 33.7722V33.7722ZM24.1058 11.3621C23.6235 10.9252 23.7662 10.062 23.7662 10.062C23.5629 10.2235 23.3035 11.3507 23.7336 11.9217C24.2317 12.5837 24.6776 12.6755 25.0722 13.3966C25.1207 13.2942 25.0591 13.0365 24.9565 12.8432C24.8017 12.5493 24.742 12.3057 25.1058 12.205C26.1394 11.9217 27.0992 13.3304 27.6636 13.3066C28.4528 13.2748 28.6291 12.6049 28.6636 12.5731C28.6972 12.5404 28.2485 12.8626 27.7401 12.8052C26.936 12.7134 26.5629 11.8591 25.6589 11.6843C25.0806 11.5731 24.5909 11.8008 24.1058 11.3621ZM23.5573 27.0562C23.2886 27.4278 23.4938 27.953 24.2047 28.1489C24.8455 28.3255 25.27 28.5099 25.5834 28.8091C26.0442 29.2443 26.2597 29.299 26.3698 29.2964L6.687 3.47669L6.42581 3.65587L22.8371 25.1868C23.0256 25.434 23.7942 26.7261 23.5573 27.0562V27.0562ZM23.4808 28.2328C22.7317 28.2504 21.8735 28.5029 21.0088 27.7456C19.8875 26.7658 18.7196 27.3925 18.7196 27.3925C18.7196 27.3925 19.4575 28.088 19.0461 28.3749C18.3782 28.8427 18.8698 29.3899 18.811 29.6053C18.7504 29.818 18.0778 29.8621 16.951 29.3758C16.4478 29.1543 15.886 29.0806 15.3381 29.164C15.0461 29.2099 15.1441 29.4102 15.2084 29.4676C15.2084 29.4676 15.6832 29.878 15.867 29.9919C16.0163 30.081 16.3931 30.3776 16.534 30.2814C16.6711 30.1887 16.3717 29.6635 16.3717 29.6635C16.3717 29.6635 18.5927 30.3652 19.3698 30.3652C20.2718 30.3652 19.4267 28.9442 20.1366 28.8771C20.4948 28.8418 20.9425 29.3714 21.6785 29.4711C22.1935 29.5417 22.6879 29.3352 23.1935 29.2152C23.7308 29.0889 23.9341 29.7191 24.0088 30.2743C24.0218 30.3652 24.0414 30.5947 24.145 30.7633C24.3222 29.9627 24.5582 28.209 23.4798 28.2328H23.4808ZM29.1011 29.8762C28.8082 29.1304 28.2494 29.4526 27.9994 29.3696C27.7485 29.2875 27.4248 28.9927 27.3203 28.2001C27.2158 27.4075 26.5041 27.8356 26.5041 27.8356C26.5041 27.8356 27.3278 29.3987 27.6589 30.2311C27.992 31.0625 28.2718 30.4182 28.6767 30.8745C29.0843 31.3308 29.0377 33.6751 28.8063 34.4297C28.5412 35.2915 27.9978 36.0532 27.2522 36.6081C27.825 36.5454 28.894 35.4818 29.1934 34.7846C29.5386 33.984 29.3408 33.2453 29.3408 33.2453L29.8222 33.2047L29.5283 32.4782L29.9938 32.4112C29.9966 32.4112 29.3921 30.6194 29.1011 29.8762V29.8762ZM9.96311 31.3591C9.35891 31.2087 8.72901 31.1742 8.1105 31.2576C7.46125 31.3494 6.93793 31.5224 6.39409 31.4959C5.85398 31.4844 5.34745 31.284 5.01723 30.9133C4.86798 30.7509 4.76164 30.5603 4.68328 30.3573C4.94447 29.8471 5.45193 29.329 6.35678 28.8533C9.51908 27.1895 8.47244 25.3139 8.27561 23.1391C8.1758 22.0358 8.41274 21.0296 9.01255 20.5195C9.85863 19.7975 11.2812 19.8866 11.2812 19.8866C11.1198 19.6898 9.21404 19.0446 7.75883 19.4435C6.201 19.8725 5.91182 20.9396 5.64316 21.6987C5.41182 22.3571 5.10865 23.1312 3.73086 23.6784C1.41463 24.5981 1.57042 26.3228 1.57042 26.3228C1.57042 26.3228 0.730867 24.6193 2.98179 23.1797C5.84092 21.3527 4.74018 19.9475 5.69633 19.1099C6.4426 18.4567 7.33625 18.5609 8.70005 18.9131C8.45565 18.6394 4.8316 17.2008 4.41182 20.2547C4.05548 22.8514 1.43609 22.4895 0.979934 24.9326C0.660905 26.6652 2.39317 28.1172 2.39317 28.1172C2.39317 28.1172 1.00792 25.4931 3.73179 24.4322C5.61611 23.6996 6.68887 22.854 6.96872 22.019C6.95286 22.2865 6.95566 22.5698 6.96312 22.8805C6.99297 24.0553 7.58345 24.9723 7.40155 26.6246C7.30174 27.5337 5.54615 28.4411 4.56667 29.3749C4.60026 28.9565 4.71966 28.5496 4.94074 28.2142C5.18794 27.8568 5.59372 27.4728 5.77096 27.0492C5.91727 26.7404 5.98329 26.403 5.96349 26.0652C5.94369 25.7274 5.83864 25.3989 5.65715 25.1074C5.61238 25.125 5.57133 25.1409 5.53029 25.1533C5.72898 25.5937 5.83906 26.2619 5.45566 26.9097C5.2663 27.2822 4.92861 27.5452 4.56947 27.9803C4.22008 28.4387 4.01766 28.9826 3.98645 29.547C3.97712 29.7341 3.99671 29.9266 4.03029 30.1207C3.62918 31.1128 4.08627 32.3944 4.45194 32.9875C4.88943 33.6936 5.30081 34.21 5.08626 35.0291C4.87171 35.8499 5.62451 35.5657 6.15715 35.5736L6.65995 35.5763C7.01069 35.5754 7.15435 35.3344 6.9398 35.0088C6.56667 34.4465 5.97525 33.6142 5.50324 33.2576C5.08253 32.939 4.3941 32.1014 4.45847 31.1305C5.07973 31.8295 5.77936 32.0493 6.35678 32.0996C7.03495 32.1561 7.6758 31.9142 8.19726 31.8366C8.7346 31.7525 9.28415 31.769 9.81479 31.8851C10.3022 31.9951 10.7553 32.2123 11.1375 32.5189C11.4985 32.8101 11.6972 33.1985 11.8017 33.5736C11.9976 34.3115 11.4612 35.0035 11.0284 35.3662C11.0545 35.3945 11.089 35.4209 11.118 35.4457C11.8754 35.0141 12.284 34.2612 12.1357 33.3626C11.9976 32.4782 11.1525 31.6318 9.96311 31.3591V31.3591ZM9.34651 17.5397C10.2756 18.4682 11.2747 18.0949 11.7206 18.1452C12.1665 18.1937 12.6814 19.2767 12.4099 20.3262C12.1394 21.3765 12.0312 21.1947 11.8456 21.8531C11.6124 22.6828 12.6991 23.2768 12.4472 24.042C12.3773 24.2539 12.2215 24.5593 12.4099 24.7967C12.7028 25.17 13.1786 24.6784 13.7784 24.7623C14.1549 24.8101 14.5375 24.7391 14.867 24.5601C14.7961 24.2362 13.4426 24.4348 13.1394 23.9114C13.006 23.681 12.6515 21.2953 13.437 20.2291C14.1581 19.2511 13.4883 18.9457 12.9948 18.1558C13.7453 17.7789 14.5012 17.412 15.2625 17.0551C15.7849 17.6227 16.1524 18.1125 16.4696 18.7974C16.6375 19.1373 16.7523 19.5035 16.7392 19.8707C16.7485 20.2441 16.6021 20.6121 16.353 20.944C16.6832 20.8955 16.9845 20.3376 17.076 19.9069C17.1627 19.4753 17.0965 19.0313 16.9733 18.6209C16.5135 17.2899 15.4435 16.3384 15.4435 16.3384C15.4435 16.3384 13.9976 16.8071 12.6562 17.4964C12.2327 16.7444 11.8073 16.8786 11.2784 16.921C10.7541 16.9651 10.4379 16.4408 10.4379 16.4408C10.8446 16.5644 11.4099 16.5847 12.1683 16.3022C13.8679 15.6667 13.2224 14.3375 13.2224 14.3375C13.2224 14.3375 13.2579 15.3022 12.242 15.439C11.6105 15.5229 9.95191 15.1345 9.95191 15.1345C9.95191 15.1345 11.2803 14.988 11.5517 14.2642C11.9193 13.273 12.9743 13.6632 12.9743 13.6632C12.9743 13.6632 12.4118 13.0365 11.5443 13.5264C11.0153 13.8282 10.1375 13.9244 9.06013 13.4081C7.9855 12.8935 7.59558 13.7479 7.3773 13.7691C7.16088 13.792 6.9911 13.4557 7.11237 13.1045C7.23364 12.7523 8.46964 12.4213 10.3306 12.3542C11.5583 12.3101 12.1609 12.5378 12.4277 12.6993C12.4304 12.604 12.0993 12.1733 11.0872 11.9385C10.075 11.7019 10.1413 11.3101 10.1889 10.6357C10.2355 9.96051 9.19912 10.2297 8.94725 10.145C8.69539 10.0603 8.9286 9.52979 8.9286 9.52979C8.56759 9.62864 8.29054 9.90579 8.3036 10.3189C8.31106 10.5951 8.59091 10.7937 8.8689 10.9235C9.14781 11.0541 9.19352 11.2906 8.69166 11.5669C8.28774 11.7893 7.70659 12.0788 6.92861 12.3948C5.1982 13.0965 7.35957 14.3057 6.59932 14.6764C5.83626 15.0471 5.65062 15.5308 5.60771 15.7956C5.51443 16.3958 5.93794 16.8424 5.93794 16.8424C7.4258 16.078 8.41647 16.6129 9.34651 17.5397V17.5397ZM18.1524 15.3949C18.1524 14.7929 18.3166 14.5034 18.492 14.4964C19.0274 14.4761 19.1422 15.1936 19.1496 15.3887C19.172 15.9607 18.7261 16.2352 18.7261 16.2352C19.1086 16.266 19.4108 15.7647 19.4603 15.4461C19.533 14.9739 19.4444 14.8106 19.2681 14.4981C19.2681 14.4981 20.3884 15.5237 20.269 16.6623C20.1338 17.9528 18.5965 18.6297 18.5965 18.6297C19.0517 18.7842 20.3689 18.6589 21.2121 17.6421C21.6776 17.0816 21.881 16.2281 21.3166 14.8821C20.8054 13.6605 19.8306 12.6261 20.867 10.2844C21.8782 8.00195 24.5517 7.70362 26.1599 8.78838C26.2515 8.84807 26.3212 8.93319 26.3595 9.03198C26.464 9.30207 25.713 9.65512 26.0423 9.81753C26.2681 9.93139 26.5647 9.96051 26.8203 10.1441C27.0554 10.3118 27.102 10.4557 27.2214 10.5598C27.311 10.6393 27.3511 10.6551 27.4379 10.6551C26.7102 9.8493 26.589 8.93048 26.4714 7.95958C25.9005 7.82101 24.9948 7.38234 24.0992 7.28349C23.5377 7.22082 22.1795 7.13697 20.8175 7.7707C19.2821 8.48299 17.659 9.87137 17.659 13.0877C17.658 14.4717 18.1534 15.4734 18.1534 15.3949H18.1524ZM1.07228 22.8831C1.86239 22.6801 1.86239 22.1241 1.87265 22.0102C1.99952 22.1691 2.04336 22.343 2.04616 22.5689C2.39597 22.1382 2.31202 21.3924 1.45568 20.9466C1.45568 20.9466 1.50419 21.9264 0.841874 22.2724C0.151579 22.6316 0.04337 22.8611 0.00512392 23.2159C-0.015518 23.3887 0.02659 23.563 0.124526 23.7102C0.214078 23.8514 0.36613 23.9494 0.508853 23.9829C0.299899 23.7172 0.258854 23.0914 1.07135 22.8831H1.07228ZM17.6151 9.18644C15.6767 9.2906 14.9995 8.63392 13.6748 8.03019C12.3465 7.42383 11.2047 7.86691 11.0051 8.152C11.6217 8.18819 12.3232 8.42032 13.6534 9.21028C16.3372 10.8052 17.6151 9.18644 17.6151 9.18644ZM16.7467 5.2958C16.4649 5.36641 15.783 5.47144 16.1011 6.95956C16.4211 8.44856 17.2709 8.08757 17.4985 7.89692C17.4985 7.89692 16.3437 7.78306 16.3101 6.49353C16.2774 5.19959 17.8539 5.4379 17.8539 5.4379C17.7597 5.33728 17.1916 5.18282 16.7457 5.2958H16.7467ZM34.0171 24.2221C33.6356 22.9379 32.4192 20.3182 31.5871 19.1231C30.7503 17.928 30.3231 18.7851 29.9901 19.0552C29.6561 19.3253 28.6785 20.8822 28.2494 18.876C27.8203 16.8671 25.6291 15.1283 25.6291 15.1283C26.0815 16.6403 25.9602 17.7471 25.8436 18.7171C25.7252 19.6862 25.9854 20.0252 25.9854 20.6104C25.9854 21.1973 24.1291 21.5813 24.0312 22.0323C23.9369 22.4842 26.7961 24.336 29.5181 22.4798C30.3371 21.9211 30.8464 24.0871 31.1067 24.6731C31.3707 25.261 30.8455 25.441 31.4649 26.118C32.0852 26.795 31.6076 27.3652 31.6076 27.7871C31.6076 28.1825 32.8362 29.1763 33.0619 28.9592C33.4574 28.5858 32.561 26.3642 32.2037 25.5972C31.8464 24.8293 31.2746 22.3474 30.8716 21.6704C30.6384 21.2838 29.4425 21.5583 29.4425 21.5583L29.3586 21.2582C29.3586 21.2582 29.5246 21.057 29.6785 20.9034C30.9192 19.6845 30.8231 20.1814 32.1104 21.6713C33.3959 23.1585 31.8464 23.7472 32.9658 24.5142C34.0861 25.2821 34.3977 25.5081 34.0171 24.223V24.2221ZM13.6151 4.25694C13.6151 4.25694 13.853 4.33373 14.3101 4.34344C14.7672 4.35226 14.9929 3.95155 14.9929 3.95155C13.881 3.84651 13.5564 3.47493 13.5564 3.47493C13.5564 3.47493 14.6161 3.42373 15.1525 3.35665C15.6888 3.28869 16.6664 3.04067 16.6664 3.04067C16.6664 3.04067 16.6291 3.87035 16.6226 4.35226C16.6179 4.8333 17.2718 4.72738 17.4901 4.66207C17.7653 4.57998 17.8073 3.62056 17.8539 2.79883C17.8875 2.17746 17.4015 2.17216 17.1235 2.28249C16.7131 2.44401 15.936 2.82266 15.0946 3.06538C14.2541 3.30811 12.937 3.13158 12.937 3.13158L12.8651 3.39019L13.9724 4.03452L13.6151 4.25694V4.25694ZM15.437 8.19701L15.7373 8.07521C15.7373 8.07521 15.5079 7.43971 15.4911 6.87659C15.478 6.31171 15.7224 5.06367 15.7224 5.06367H15.4379C15.4379 5.06367 15.3092 5.98072 15.1413 6.78392C14.9752 7.58711 14.5303 7.43 14.3129 7.41412C14.0946 7.39911 12.3652 7.16345 12.3652 7.16345V7.40441L13.3493 7.53857C14.2243 7.65772 15.4379 8.19613 15.4379 8.19613L15.437 8.19701ZM16.5153 11.732C15.8017 12.1644 14.6301 11.9509 14.6301 11.9509C14.7868 12.1592 15.6375 12.4072 16.0657 12.401C16.437 12.3931 16.7653 12.2545 17.0573 11.9509C17.6935 11.2924 17.4342 10.1953 17.2793 10.0576C17.2812 10.0576 17.2103 11.3109 16.5144 11.732H16.5153ZM14.8651 31.2629C13.2262 29.7147 13.8241 29.8709 14.8651 28.4896C15.6357 27.4667 19.3959 26.5637 21.2905 26.1665L21.2532 26.0024C20.2924 26.043 18.8539 26.0906 17.409 26.0889C14.9332 26.0871 13.9342 25.1956 13.2924 25.3077C10.8306 25.7438 12.5806 28.4146 9.69352 28.036C6.80547 27.6591 6.90155 30.4914 6.90155 30.4914C7.72058 28.9159 8.56759 29.1375 9.21964 29.111C9.97523 29.0801 10.7122 29.6079 11.7719 28.7641C12.0051 28.5805 13.0592 26.9644 12.9081 27.772C12.8194 28.2434 12.3875 28.7827 12.0433 29.1525C11.7971 29.4173 11.6543 29.6194 12.1553 29.886L12.8707 30.2761C14.0405 30.9116 13.8465 31.6344 13.0853 31.5983C12.5424 31.57 11.9015 31.3185 11.3642 31.2655C11.1459 31.2452 10.8987 31.3299 11.243 31.4862C11.4249 31.5674 11.6291 31.6856 11.8092 31.8542C12.6665 32.6662 11.6413 32.3459 14.0965 32.2205C14.6189 32.1923 14.9901 32.1464 15.2541 32.0952C16.2308 31.8931 15.0806 31.465 14.8651 31.2629V31.2629ZM27.4929 32.6133C27.2951 32.322 27.1356 31.9142 26.9519 31.5497C26.5601 30.7739 26.9444 30.923 26.7028 30.4764C26.4323 29.9822 26.2961 30.4667 25.6142 29.4791C25.4808 29.2822 25.2093 29.3687 25.1767 29.8409C25.1422 30.3132 25.9789 30.7589 26.3595 31.9028C26.7438 33.0502 27.0591 33.1826 26.7476 33.8852C26.4397 34.5895 24.9211 34.5471 24.9211 34.5471C26.1058 35.714 28.5181 34.1217 27.4929 32.6133V32.6133ZM40.2624 38L39.768 37.8305L54.3016 0L54.7932 0.169466L40.2624 38Z" fill="white"/>
</svg>
