<svg width="95" height="28" viewBox="0 0 95 28" fill="none" xmlns="http://www.w3.org/2000/svg">
<g opacity="0.7">
<path d="M17.407 21.9321C15.2147 21.9329 13.0715 21.2903 11.2484 20.0856C9.42529 18.881 8.0042 17.1684 7.1649 15.1644C6.32559 13.1605 6.10578 10.9552 6.53326 8.82766C6.96075 6.70008 8.01632 4.74575 9.56647 3.21188C11.1166 1.67801 13.0917 0.633514 15.2418 0.210517C17.392 -0.212481 19.6206 0.0050243 21.6458 0.835518C23.671 1.66601 25.4018 3.07218 26.6193 4.87616C27.8367 6.68013 28.4861 8.80086 28.4853 10.9701C28.4853 12.4096 28.1987 13.8351 27.642 15.165C27.0853 16.495 26.2692 17.7035 25.2405 18.7214C24.2118 19.7393 22.9905 20.5467 21.6465 21.0976C20.3024 21.6485 18.8618 21.9321 17.407 21.9321Z" fill="white"/>
<path d="M6.32461 10.9701C6.32461 13.139 6.97458 15.2591 8.19232 17.0625C9.41007 18.8658 11.1409 20.2714 13.1659 21.1014C15.191 21.9314 17.4193 22.1485 19.569 21.7254C21.7188 21.3023 23.6935 20.2579 25.2434 18.7242C26.7933 17.1906 27.8488 15.2366 28.2764 13.1094C28.704 10.9822 28.4846 8.77734 27.6458 6.77356C26.807 4.76978 25.3865 3.05712 23.564 1.85216C21.7415 0.647198 19.5989 0.0040522 17.407 0.0040522C14.4678 0.0040522 11.6489 1.1594 9.57056 3.21593C7.49221 5.27245 6.32461 8.06171 6.32461 10.9701Z" fill="white"/>
<path d="M29.643 20.1024C29.1989 19.6673 28.6347 19.3719 28.0213 19.2536C27.408 19.1352 26.7729 19.199 26.1962 19.4371C25.6194 19.6751 25.1267 20.0767 24.7802 20.5913C24.4337 21.1059 24.2487 21.7104 24.2487 22.3288C24.2487 22.9471 24.4337 23.5516 24.7802 24.0662C25.1267 24.5808 25.6194 24.9824 26.1962 25.2204C26.7729 25.4585 27.408 25.5223 28.0213 25.4039C28.6347 25.2856 29.1989 24.9902 29.643 24.5552C29.9404 24.2638 30.1764 23.9171 30.3375 23.5349C30.4986 23.1528 30.5815 22.7428 30.5815 22.3288C30.5815 21.9147 30.4986 21.5047 30.3375 21.1226C30.1764 20.7405 29.9404 20.3937 29.643 20.1024Z" fill="white"/>
<path d="M25.1675 20.1024C24.6479 20.6147 24.3238 21.2895 24.2507 22.0118C24.1775 22.734 24.3597 23.459 24.7662 24.0633C25.1727 24.6675 25.7784 25.1135 26.4801 25.3253C27.1817 25.5372 27.9359 25.5017 28.6141 25.2249C29.2923 24.9482 29.8525 24.4473 30.1992 23.8076C30.546 23.168 30.6579 22.4291 30.5158 21.717C30.3737 21.0049 29.9864 20.3635 29.4199 19.9023C28.8535 19.441 28.1429 19.1884 27.4094 19.1875C26.5705 19.1875 25.7658 19.5165 25.1716 20.1024" fill="white"/>
<path d="M4.27504 1.14964H0V4.94666H4.27504V1.14964Z" fill="white"/>
<path d="M4.22186 7.52118H0.0286366V21.2196H4.22186V7.52118Z" fill="white"/>
<path d="M44.8859 7.11233C43.9786 7.08184 43.0786 7.28293 42.2726 7.69626C41.4665 8.10958 40.7816 8.72121 40.2836 9.47232L40.0913 7.52118H36.2253V28H40.3654V19.3737C40.8621 20.0947 41.5353 20.6793 42.3223 21.0729C43.1093 21.4665 43.9842 21.6562 44.8654 21.6244C48.6496 21.6244 51.0346 18.4224 51.0346 14.338C51.055 10.3426 48.8091 7.11233 44.8859 7.11233ZM43.6259 17.9367C41.654 17.9367 40.3531 16.362 40.3531 14.3299C40.3531 12.2978 41.6418 10.8041 43.6259 10.8041C45.7941 10.8041 46.8986 12.3504 46.8986 14.3299C46.8986 16.3094 45.7941 17.9367 43.6259 17.9367Z" fill="white"/>
<path d="M59.2533 7.11234C54.8678 7.11234 53.6896 9.94593 53.6896 9.94593V11.7432H56.8151C56.8151 11.7432 57.3878 10.4965 59.1715 10.4965C60.7342 10.4965 61.446 11.2818 61.446 12.7755V13.3624C60.5989 13.1833 59.7351 13.0924 58.8687 13.0912C54.8392 13.0912 52.9205 14.7469 52.9205 17.3497C52.9205 19.6814 54.4301 21.6082 57.4737 21.6082C59.6665 21.6082 60.8979 20.58 61.5647 19.4668L61.8388 21.2034H65.5656V12.9172C65.5861 9.09181 63.4752 7.11234 59.2533 7.11234ZM61.446 16.2527C61.446 17.2323 60.5951 18.4791 58.8156 18.4791C57.6906 18.4791 57.0074 18.046 57.0074 16.9854C57.0074 16.1191 57.5269 15.4391 59.1428 15.4391C59.9161 15.4341 60.6878 15.5074 61.446 15.6577V16.2527Z" fill="white"/>
<path d="M76.6889 7.11233C75.9256 7.10103 75.1744 7.30128 74.5201 7.69044C73.8658 8.0796 73.3346 8.64214 72.9866 9.31444L72.7943 7.52523H68.9325V21.2196H73.0684V13.5689C73.0684 11.889 73.7271 10.6381 75.208 10.6381C75.6213 10.6055 76.0326 10.7225 76.3652 10.9675C76.6979 11.2125 76.9292 11.5687 77.0162 11.9699H80.1826V10.0147C79.9494 8.30649 78.8244 7.11233 76.6889 7.11233Z" fill="white"/>
<path d="M90.4222 14.0587L94.4518 9.33873V7.52118H90.9172L86.2535 13.0791V0.874372H82.1176V21.2196H86.2535V15.3055L91.1341 21.2196H95V19.3211L90.4222 14.0587Z" fill="white"/>
</g>
</svg>
