<svg width="121" height="36" viewBox="0 0 121 36" fill="none" xmlns="http://www.w3.org/2000/svg">
<g opacity="0.7">
<path fill-rule="evenodd" clip-rule="evenodd" d="M8.21867 0.0227437C5.25857 0.287967 2.6395 1.96356 1.15955 4.53892C0.618725 5.48006 0.235132 6.60535 0.0563519 7.77518C0.00399473 8.11771 0 8.84233 0 18.0082C0 27.3445 0.0031434 27.8927 0.0589059 28.2494C0.37855 30.294 1.21823 31.976 2.6194 33.3783C4.01994 34.7801 5.70192 35.6213 7.74388 35.941C8.10027 35.9969 8.648 36 17.9763 36C27.3046 36 27.8523 35.9969 28.2087 35.941C30.2507 35.6213 31.9326 34.7801 33.3332 33.3783C34.725 31.9853 35.5388 30.3653 35.8929 28.2822C35.9484 27.9561 35.9519 27.2087 35.9606 13.969L35.9697 0L22.1597 0.00550569C14.5642 0.00855348 8.2907 0.0162877 8.21867 0.0227437ZM13.474 8.89638C14.8432 9.04274 15.8833 9.41833 16.853 10.1166C17.1328 10.3181 17.5983 10.7549 17.824 11.0278L17.9595 11.1916L17.9599 9.01229H21.267V13.5048C21.267 16.1148 21.2792 17.9927 21.2962 17.9863C21.3122 17.9803 22.2431 16.9689 23.3649 15.7387L25.4046 13.502H27.5434C28.7197 13.502 29.6822 13.5087 29.6822 13.5169C29.6822 13.5251 28.5849 14.7351 27.2439 16.2059L24.8056 18.8802L25.0793 19.329C25.699 20.3451 29.6822 26.9481 29.6822 26.9592C29.6822 26.9659 28.8158 26.9713 27.7569 26.9713H25.8315L24.1682 24.2348C23.2535 22.7298 22.4926 21.4907 22.4774 21.4813C22.4623 21.472 22.1837 21.7555 21.8584 22.1115L21.267 22.7587V26.9713H17.9599V25.4915L17.788 25.6383C17.5351 25.8541 17.025 26.1872 16.6596 26.3748C15.4515 26.9955 14.0812 27.2608 12.5521 27.1701C11.2 27.0898 10.2239 26.8456 9.25009 26.3438C8.7089 26.0649 8.30914 25.7692 7.84061 25.3009C7.27175 24.7324 6.86979 24.1176 6.56537 23.3507C6.37896 22.881 6.17219 21.9435 6.17219 21.568V21.4323L9.71941 21.4492L9.76564 21.6787C9.94793 22.5833 10.6422 23.3269 11.6041 23.648C12.1116 23.8174 12.4896 23.8713 13.163 23.87C13.5545 23.8694 13.8569 23.8511 14.0638 23.8155C15.3575 23.5934 16.1562 23.0334 16.3671 22.2007C16.4878 21.7242 16.4621 21.3181 16.2876 20.9432C16.159 20.6669 16.0058 20.4839 15.7507 20.3017C15.1892 19.9007 14.4556 19.694 12.7864 19.4667C11.0394 19.2288 10.1398 19.0011 9.23156 18.567C8.11834 18.0349 7.41818 17.3681 6.91046 16.3563C6.73492 16.0065 6.56308 15.5114 6.47709 15.1079C6.38777 14.6886 6.39602 13.7329 6.49275 13.2951C6.74052 12.1736 7.28518 11.1945 8.08782 10.4274C8.98448 9.57063 10.1686 9.03995 11.5258 8.88661C11.9428 8.83948 12.991 8.84476 13.474 8.89638ZM11.8041 12.0107C11.2058 12.1307 10.7498 12.3636 10.3593 12.7483C9.86522 13.2351 9.68444 13.7667 9.81099 14.3607C9.96653 15.0905 10.5557 15.5713 11.6473 15.8593C12.1493 15.9917 12.5602 16.067 13.6295 16.2226C14.8888 16.4058 15.2528 16.4695 15.7909 16.6014C16.6043 16.8006 17.202 17.0454 17.6898 17.3792L17.9599 17.564V14.3541H16.0344L15.9646 14.124C15.8699 13.8118 15.6026 13.3005 15.404 13.0516C14.9568 12.4909 14.2922 12.1406 13.4337 12.013C13.0152 11.9508 12.1087 11.9495 11.8041 12.0107Z" fill="white"/>
<path d="M47.241 9.15303C47.241 8.32503 47.5557 7.69053 48.1852 7.24953C48.8237 6.79953 49.615 6.57453 50.5592 6.57453C51.7012 6.57453 52.6859 6.81303 53.5132 7.29003V8.76153C52.7129 8.22153 51.7687 7.96053 50.6806 7.97853C49.4306 7.97853 48.8057 8.36103 48.8057 9.12603C48.8057 9.49503 48.99 9.80553 49.3587 10.0575C49.7274 10.3005 50.177 10.503 50.7076 10.665C51.2381 10.827 51.7687 11.0115 52.2992 11.2185C52.8298 11.4255 53.2794 11.7405 53.6481 12.1635C54.0168 12.5775 54.2011 13.095 54.2011 13.716C54.2011 14.643 53.8639 15.3225 53.1895 15.7545C52.524 16.1775 51.6698 16.3845 50.6266 16.3755C49.3677 16.3755 48.2526 16.101 47.2815 15.552V14.04C48.2437 14.661 49.3227 14.9715 50.5187 14.9715C51.9305 14.9715 52.6364 14.58 52.6364 13.797C52.6364 13.455 52.5016 13.1625 52.2318 12.9195C51.971 12.6765 51.6383 12.492 51.2336 12.366C50.838 12.24 50.4063 12.0915 49.9387 11.9205C49.4711 11.7405 49.035 11.556 48.6303 11.367C48.2347 11.169 47.9019 10.881 47.6322 10.503C47.3714 10.125 47.241 9.67503 47.241 9.15303Z" fill="white"/>
<path d="M57.2867 16.2H55.749V6.75003H57.2867V10.692H59.1481L61.7784 6.75003H63.5184L60.389 11.3535L63.7612 16.2H62.0212L59.1751 12.1095H57.2867V16.2Z" fill="white"/>
<path d="M64.1592 13.2975C63.9524 12.7215 63.849 12.114 63.849 11.475C63.849 10.836 63.9524 10.2285 64.1592 9.65253C64.375 9.07653 64.6808 8.55903 65.0764 8.10003C65.4721 7.63203 65.9937 7.26303 66.6411 6.99303C67.2886 6.71403 68.0125 6.57453 68.8128 6.57453C69.6131 6.57453 70.3325 6.71403 70.971 6.99303C71.6184 7.26303 72.14 7.63203 72.5357 8.10003C72.9403 8.55903 73.2461 9.07653 73.4529 9.65253C73.6687 10.2285 73.7766 10.836 73.7766 11.475C73.7766 12.114 73.6687 12.7215 73.4529 13.2975C73.2461 13.8735 72.9403 14.3955 72.5357 14.8635C72.14 15.3225 71.6184 15.6915 70.971 15.9705C70.3325 16.2405 69.6131 16.3755 68.8128 16.3755C68.0125 16.3755 67.2886 16.2405 66.6411 15.9705C65.9937 15.6915 65.4721 15.3225 65.0764 14.8635C64.6808 14.3955 64.375 13.8735 64.1592 13.2975ZM71.3217 13.932C71.9152 13.266 72.2119 12.447 72.2119 11.475C72.2119 10.503 71.9152 9.68403 71.3217 9.01803C70.7372 8.35203 69.9009 8.01903 68.8128 8.01903C67.7337 8.01903 66.8974 8.35203 66.3039 9.01803C65.7104 9.68403 65.4137 10.503 65.4137 11.475C65.4137 12.447 65.7104 13.266 66.3039 13.932C66.8974 14.598 67.7337 14.931 68.8128 14.931C69.9009 14.931 70.7372 14.598 71.3217 13.932Z" fill="white"/>
<path d="M75.4682 6.75003H77.0059V14.769H81.9697V16.2H75.4682V6.75003Z" fill="white"/>
<path d="M84.8435 16.2H83.3058V6.75003H84.8435V10.692H86.7049L89.3352 6.75003H91.0753L87.9459 11.3535L91.3181 16.2H89.578L86.7319 12.1095H84.8435V16.2Z" fill="white"/>
<path d="M91.7161 13.2975C91.5093 12.7215 91.4058 12.114 91.4058 11.475C91.4058 10.836 91.5093 10.2285 91.7161 9.65253C91.9319 9.07653 92.2376 8.55903 92.6333 8.10003C93.029 7.63203 93.5505 7.26303 94.198 6.99303C94.8454 6.71403 95.5693 6.57453 96.3697 6.57453C97.17 6.57453 97.8894 6.71403 98.5278 6.99303C99.1753 7.26303 99.6969 7.63203 100.093 8.10003C100.497 8.55903 100.803 9.07653 101.01 9.65253C101.226 10.2285 101.333 10.836 101.333 11.475C101.333 12.114 101.226 12.7215 101.01 13.2975C100.803 13.8735 100.497 14.3955 100.093 14.8635C99.6969 15.3225 99.1753 15.6915 98.5278 15.9705C97.8894 16.2405 97.17 16.3755 96.3697 16.3755C95.5693 16.3755 94.8454 16.2405 94.198 15.9705C93.5505 15.6915 93.029 15.3225 92.6333 14.8635C92.2376 14.3955 91.9319 13.8735 91.7161 13.2975ZM98.8785 13.932C99.472 13.266 99.7688 12.447 99.7688 11.475C99.7688 10.503 99.472 9.68403 98.8785 9.01803C98.294 8.35203 97.4577 8.01903 96.3697 8.01903C95.2906 8.01903 94.4543 8.35203 93.8608 9.01803C93.2673 9.68403 92.9705 10.503 92.9705 11.475C92.9705 12.447 93.2673 13.266 93.8608 13.932C94.4543 14.598 95.2906 14.931 96.3697 14.931C97.4577 14.931 98.294 14.598 98.8785 13.932Z" fill="white"/>
<path d="M107 16.2H105.409L101.605 6.75003H103.264L106.204 14.418L109.145 6.75003H110.804L107 16.2Z" fill="white"/>
<path d="M111.383 13.2975C111.176 12.7215 111.072 12.114 111.072 11.475C111.072 10.836 111.176 10.2285 111.383 9.65253C111.598 9.07653 111.904 8.55903 112.3 8.10003C112.696 7.63203 113.217 7.26303 113.865 6.99303C114.512 6.71403 115.236 6.57453 116.036 6.57453C116.837 6.57453 117.556 6.71403 118.194 6.99303C118.842 7.26303 119.363 7.63203 119.759 8.10003C120.164 8.55903 120.469 9.07653 120.676 9.65253C120.892 10.2285 121 10.836 121 11.475C121 12.114 120.892 12.7215 120.676 13.2975C120.469 13.8735 120.164 14.3955 119.759 14.8635C119.363 15.3225 118.842 15.6915 118.194 15.9705C117.556 16.2405 116.837 16.3755 116.036 16.3755C115.236 16.3755 114.512 16.2405 113.865 15.9705C113.217 15.6915 112.696 15.3225 112.3 14.8635C111.904 14.3955 111.598 13.8735 111.383 13.2975ZM118.545 13.932C119.139 13.266 119.435 12.447 119.435 11.475C119.435 10.503 119.139 9.68403 118.545 9.01803C117.961 8.35203 117.124 8.01903 116.036 8.01903C114.957 8.01903 114.121 8.35203 113.527 9.01803C112.934 9.68403 112.637 10.503 112.637 11.475C112.637 12.447 112.934 13.266 113.527 13.932C114.121 14.598 114.957 14.931 116.036 14.931C117.124 14.931 117.961 14.598 118.545 13.932Z" fill="white"/>
<path d="M49.2778 27.45H47.7401V18H51.5169C51.9845 18 52.4206 18.0495 52.8253 18.1485C53.2389 18.2475 53.6256 18.4095 53.9853 18.6345C54.345 18.8505 54.6283 19.1565 54.8351 19.5525C55.0419 19.9485 55.1453 20.4165 55.1453 20.9565C55.1453 21.7485 54.934 22.374 54.5114 22.833C54.0887 23.283 53.5357 23.589 52.8523 23.751L55.8737 27.45H54.0258L51.1932 23.913H49.2778V27.45ZM49.2778 19.404V22.5495H51.5843C52.1599 22.5495 52.6364 22.428 53.0141 22.185C53.3918 21.942 53.5807 21.5415 53.5807 20.9835C53.5807 20.4255 53.3918 20.025 53.0141 19.782C52.6364 19.53 52.1599 19.404 51.5843 19.404H49.2778Z" fill="white"/>
<path d="M57.1979 18H63.6994V19.404H58.7356V21.9825H63.2948V23.3865H58.7356V26.046H63.7804V27.45H57.1979V18Z" fill="white"/>
<path d="M64.8507 22.725C64.8507 21.924 64.9946 21.204 65.2824 20.565C65.5701 19.926 65.9568 19.413 66.4424 19.026C66.928 18.63 67.4675 18.333 68.061 18.135C68.6545 17.928 69.275 17.8245 69.9224 17.8245C70.9566 17.8245 71.9098 18.0315 72.782 18.4455V19.944C72.0536 19.476 71.1724 19.242 70.1383 19.242C69.1131 19.242 68.2364 19.5345 67.508 20.1195C66.7886 20.7045 66.4289 21.573 66.4289 22.725C66.4289 23.373 66.5368 23.9355 66.7526 24.4125C66.9684 24.8805 67.2607 25.2405 67.6294 25.4925C67.9981 25.7445 68.3847 25.929 68.7894 26.046C69.2031 26.163 69.6392 26.2215 70.0978 26.2215C70.6553 26.2215 71.1274 26.1315 71.5141 25.9515V22.374H73.0113V26.991C72.0671 27.414 71.0645 27.6255 70.0034 27.6255C69.32 27.6255 68.6815 27.5355 68.088 27.3555C67.4945 27.1665 66.9504 26.883 66.4559 26.505C65.9613 26.127 65.5701 25.614 65.2824 24.966C64.9946 24.318 64.8507 23.571 64.8507 22.725Z" fill="white"/>
<path d="M74.9281 18H76.4658V27.45H74.9281V18Z" fill="white"/>
<path d="M78.4645 24.5475C78.2577 23.9715 78.1543 23.364 78.1543 22.725C78.1543 22.086 78.2577 21.4785 78.4645 20.9025C78.6804 20.3265 78.9861 19.809 79.3818 19.35C79.7774 18.882 80.299 18.513 80.9465 18.243C81.5939 17.964 82.3178 17.8245 83.1181 17.8245C83.9184 17.8245 84.6378 17.964 85.2763 18.243C85.9238 18.513 86.4453 18.882 86.841 19.35C87.2457 19.809 87.5514 20.3265 87.7582 20.9025C87.974 21.4785 88.0819 22.086 88.0819 22.725C88.0819 23.364 87.974 23.9715 87.7582 24.5475C87.5514 25.1235 87.2457 25.6455 86.841 26.1135C86.4453 26.5725 85.9238 26.9415 85.2763 27.2205C84.6378 27.4905 83.9184 27.6255 83.1181 27.6255C82.3178 27.6255 81.5939 27.4905 80.9465 27.2205C80.299 26.9415 79.7774 26.5725 79.3818 26.1135C78.9861 25.6455 78.6804 25.1235 78.4645 24.5475ZM85.627 25.182C86.2205 24.516 86.5173 23.697 86.5173 22.725C86.5173 21.753 86.2205 20.934 85.627 20.268C85.0425 19.602 84.2062 19.269 83.1181 19.269C82.039 19.269 81.2027 19.602 80.6092 20.268C80.0157 20.934 79.719 21.753 79.719 22.725C79.719 23.697 80.0157 24.516 80.6092 25.182C81.2027 25.848 82.039 26.181 83.1181 26.181C84.2062 26.181 85.0425 25.848 85.627 25.182Z" fill="white"/>
<path d="M91.3112 27.45H89.7735V18H91.2168L96.302 24.912C96.293 24.696 96.2885 24.3495 96.2885 23.8725V18H97.8262V27.45H96.3829L91.2977 20.538C91.3067 20.754 91.3112 21.096 91.3112 21.564V27.45Z" fill="white"/>
<path d="M99.6148 20.403C99.6148 19.575 99.9296 18.9405 100.559 18.4995C101.198 18.0495 101.989 17.8245 102.933 17.8245C104.075 17.8245 105.06 18.063 105.887 18.54V20.0115C105.087 19.4715 104.143 19.2105 103.054 19.2285C101.804 19.2285 101.18 19.611 101.18 20.376C101.18 20.745 101.364 21.0555 101.733 21.3075C102.101 21.5505 102.551 21.753 103.081 21.915C103.612 22.077 104.143 22.2615 104.673 22.4685C105.204 22.6755 105.653 22.9905 106.022 23.4135C106.391 23.8275 106.575 24.345 106.575 24.966C106.575 25.893 106.238 26.5725 105.563 27.0045C104.898 27.4275 104.044 27.6345 103 27.6255C101.742 27.6255 100.626 27.351 99.6553 26.802V25.29C100.617 25.911 101.697 26.2215 102.893 26.2215C104.304 26.2215 105.01 25.83 105.01 25.047C105.01 24.705 104.875 24.4125 104.606 24.1695C104.345 23.9265 104.012 23.742 103.607 23.616C103.212 23.49 102.78 23.3415 102.313 23.1705C101.845 22.9905 101.409 22.806 101.004 22.617C100.608 22.419 100.276 22.131 100.006 21.753C99.7452 21.375 99.6148 20.925 99.6148 20.403Z" fill="white"/>
</g>
</svg>
