<svg width="182" height="35" viewBox="0 0 182 35" fill="none" xmlns="http://www.w3.org/2000/svg">
<g opacity="0.7">
<path d="M60.7364 2.89453V24.9347C60.7364 29.7915 56.4809 33.4848 50.8604 33.4848C45.24 33.4848 40.9844 29.7915 40.9844 24.9347V8.07342C40.9844 5.22295 43.2739 2.89453 46.123 2.89453H46.4854V24.8944C46.4854 27.5033 48.8124 29.1098 51.0617 29.1098C53.2291 29.1098 55.5575 27.6241 55.5575 24.8944V7.79297C55.5575 5.10217 57.7665 2.89453 60.456 2.89453H60.7364Z" fill="white"/>
<path d="M71.5773 10.6797C79.0832 10.6797 80.2884 14.895 80.2884 17.4247V33.1614H80.0482C77.2782 33.1614 74.9096 30.833 74.9096 28.0616V17.5053C74.9096 16.0196 74.307 14.2522 71.376 14.2522C70.0111 14.2522 69.2086 14.4131 68.3255 14.7339V33.1614H62.9453V12.3263C65.2335 11.3225 68.9281 10.6797 71.5773 10.6797Z" fill="white"/>
<path d="M87.9708 10.6823V28.1059C87.9708 30.8745 85.7215 33.164 82.9127 33.164H82.6711V10.6823H87.9708ZM85.3217 2.89453C86.9267 2.89453 88.211 4.09828 88.211 5.58391C88.211 7.02927 86.9267 8.19281 85.3217 8.19281C83.7152 8.19281 82.3906 7.02927 82.3906 5.58391C82.3906 4.09828 83.7152 2.89453 85.3217 2.89453Z" fill="white"/>
<path d="M103.258 2.45312C105.786 2.45312 108.155 3.01543 110.122 4.21922V9.51894C108.918 7.95274 107.191 6.86836 104.421 6.86836C98.9617 6.86836 95.5892 12.2486 95.5892 17.8288C95.5892 23.0882 99.1228 28.8281 104.421 28.8281C106.75 28.8281 108.878 28.1463 110.122 26.4594V31.6785C108.556 32.8434 106.108 33.4849 103.216 33.4849C94.5465 33.4849 89.9688 25.5374 89.9688 17.869C89.9688 10.3214 94.5465 2.45312 103.258 2.45312Z" fill="white"/>
<path d="M119.623 10.6799C120.506 10.6799 121.63 10.7606 122.634 10.92V15.2158C120.786 13.8912 118.337 14.3327 117.254 14.895V28.1033C117.254 30.8719 114.966 33.1615 112.196 33.1615H111.914V12.4055C114.002 11.4017 116.129 10.6797 119.623 10.6797" fill="white"/>
<path d="M136.612 19.1104C136.451 14.6534 133.681 14.173 132.196 14.173H131.996C128.984 14.2521 127.579 16.3807 127.579 20.3544L136.612 19.1104ZM141.269 22.1608L127.9 24.0074C128.341 27.6604 130.188 29.5876 133.561 29.5876C137.294 29.5876 139.181 28.3838 140.546 27.4202V31.8757C139.181 32.5991 136.651 33.4822 133.039 33.4822C126.495 33.4822 122.602 29.0655 122.602 21.9997C122.602 15.1353 126.214 10.6797 132.155 10.6797C138.017 10.6797 141.269 14.5743 141.269 21.318V22.1608Z" fill="white"/>
<path d="M155.29 15.0185C154.727 14.8575 154.126 14.7784 153.443 14.7784C149.026 14.7784 148.103 19.0326 148.103 22.5662C148.103 27.5035 149.75 29.9527 153.082 29.9527C153.643 29.9527 154.888 29.8319 155.29 29.7512V15.0185ZM160.549 2.89453V32.8822C159.263 33.164 155.048 33.4848 153.282 33.4848H152.921C146.377 33.4041 142.805 29.6304 142.805 22.8465C142.805 15.982 146.538 11.5654 152.318 11.5654C153.443 11.5654 154.407 11.6862 155.249 11.8877V7.99307C155.249 5.18286 157.497 2.89471 160.307 2.89471L160.549 2.89453Z" fill="white"/>
<path d="M168.346 10.6823V28.1059C168.346 30.8745 166.098 33.164 163.288 33.164H163.046V10.6823H168.346ZM165.695 2.89453C167.302 2.89453 168.587 4.09828 168.587 5.58391C168.587 7.02927 167.302 8.19281 165.695 8.19281C164.09 8.19281 162.766 7.02927 162.766 5.58391C162.766 4.09828 164.09 2.89453 165.695 2.89453Z" fill="white"/>
<path d="M177.739 2.89471V10.6825H181.192V14.9783H177.739V26.9024C177.739 28.3464 178.22 28.7878 179.785 28.7878C180.187 28.7878 180.789 28.667 181.192 28.5072V32.9628C180.95 33.0435 179.906 33.4848 178.501 33.4848C174.568 33.4848 172.399 31.559 172.399 28.0657V14.9782H170.07V10.6823H172.399V7.95265C172.399 5.18271 174.647 2.89453 177.418 2.89453L177.739 2.89471Z" fill="white"/>
<path fill-rule="evenodd" clip-rule="evenodd" d="M18.2151 9.03904L18.2469 8.99339C18.5163 8.59907 18.4038 8.3075 18.2233 8.15059L15.3951 6.40653C15.1994 6.27468 15.0702 6.05116 15.0702 5.79565C15.0702 5.39303 15.3104 5.0889 15.8575 4.93753C17.6014 4.45855 23.7355 4.20726 25.8196 4.20726C26.543 4.20726 27.7884 4.20446 28.9061 4.23477L28.8575 4.18756C25.8015 1.57588 21.8347 0 17.4986 0C7.83362 0 0 7.83361 0 17.4986C0 21.7473 1.51341 25.6418 4.03205 28.6728C6.22996 25.5127 11.656 17.7194 12.8459 16.1282C14.2163 14.2941 17.3403 10.2134 17.8693 9.52194L17.8957 9.49047L18.2151 9.03904Z" fill="white"/>
<path fill-rule="evenodd" clip-rule="evenodd" d="M6.81922 31.3709C9.77245 33.6452 13.4727 34.999 17.4894 34.999C27.1544 34.999 34.988 27.1654 34.988 17.5004C34.988 14.5749 34.2716 11.8188 33.0025 9.39596L33.0039 9.39734C33.6065 8.81697 34.3007 7.89783 33.8439 6.74682C33.7023 6.40401 33.022 5.6263 32.847 5.4375L32.8707 5.50404C33.2969 6.78973 32.4541 7.595 31.8488 8.14345C31.5169 8.44454 27.0739 12.6337 21.8631 17.1906C17.2701 21.206 12.1328 25.2922 9.15737 27.5206C4.9712 30.6544 4.15618 31.1098 4.15618 31.1098C4.04649 31.1696 3.86183 31.2208 3.72577 31.2208C3.4703 31.2208 3.24816 31.1055 3.10792 30.9236L3.10357 30.9158L3.09375 31.0504C3.54222 31.7765 4.28642 32.6193 4.71961 32.6193C4.85567 32.6193 5.04033 32.5682 5.15141 32.5095C5.15141 32.5095 5.47908 32.3261 6.81895 31.3696" fill="white"/>
</g>
</svg>
