<svg width="176" height="42" viewBox="0 0 176 42" fill="none" xmlns="http://www.w3.org/2000/svg">
<g opacity="0.7">
<path d="M65.7181 12.4014C66.263 12.4014 66.8097 12.3879 67.3546 12.4014C71.4332 12.5111 73.8428 14.5669 74.0328 18.5612C74.1958 22.026 73.699 25.4755 72.3061 28.6978C70.8692 32.0029 68.1699 33.6468 64.6323 33.9394C62.238 34.1319 59.8726 33.7181 57.5052 33.4178C56.3829 33.2734 56.0491 32.744 56.2332 31.6257C56.9124 27.4813 57.6356 23.3369 58.0942 19.1656C58.334 16.9962 59.9723 17.5583 60.9719 17.5814C62.2918 17.6103 61.4879 18.9 61.4131 19.5236C61.0294 22.7517 60.5613 25.9721 59.9781 29.1695C59.744 30.463 60.0663 30.9019 61.3517 30.8595C62.3685 30.8287 63.4006 31.0809 64.4059 30.9904C67.5349 30.7094 68.851 29.5487 69.7047 26.5265C70.3167 24.361 70.5642 22.1281 70.6793 19.9009C70.8443 16.719 69.3613 15.2387 66.1421 15.31C64.1028 15.3542 62.0577 15.5236 60.0299 15.7585C58.7215 15.9125 58.5201 15.387 58.687 14.2686C59.2625 10.4495 59.838 6.63047 60.2965 2.79794C60.498 1.10593 61.4745 0.873013 62.8443 1.04626C64.5172 1.26377 63.7191 2.39371 63.6117 3.2272C63.3047 5.7835 63.0591 8.35328 62.5891 10.8807C62.3205 12.3244 62.5009 12.8923 64.0855 12.4842C64.5958 12.3514 65.1695 12.463 65.7162 12.463L65.7181 12.4014Z" fill="white"/>
<path d="M9.55548 12.4572C11.4087 12.3321 13.2543 12.3417 14.9118 13.3254C16.4677 14.2474 17.4481 15.6353 17.6361 17.4159C18.0332 21.1714 17.6207 24.8711 16.2164 28.3879C14.7142 32.1435 11.7214 33.9202 7.75212 33.951C5.71855 33.9702 3.68114 33.6642 1.64756 33.4929C0.460031 33.3908 -0.182655 32.9288 0.0456427 31.5487C0.730535 27.412 1.40967 23.2696 1.91807 19.0982C2.15212 17.1733 3.64469 17.5006 4.62886 17.5583C6.06579 17.6411 5.29265 18.9057 5.2044 19.6276C4.78809 22.7787 4.30272 25.924 3.77514 29.0597C3.55644 30.3514 3.89217 30.9288 5.30991 30.8865C6.38809 30.8519 7.45668 31.1002 8.57131 30.9847C11.1267 30.721 12.7075 29.3485 13.379 26.9596C14.0965 24.411 14.5301 21.8047 14.4245 19.1425C14.3171 16.617 12.9857 15.2927 10.3958 15.3235C8.34381 15.3459 6.29478 15.4853 4.25859 15.7412C2.81015 15.9183 2.27682 15.5487 2.51279 14.0415C3.11519 10.1627 3.66387 6.2763 4.16267 2.38409C4.37946 0.717106 5.58042 1.03664 6.62598 1.05782C8.04181 1.08477 7.54685 2.10883 7.4586 2.83645C7.15164 5.38891 6.92143 7.96061 6.42263 10.4784C6.10224 12.0992 6.16939 12.9442 8.13006 12.4726C8.5809 12.361 9.0797 12.4572 9.55548 12.4572Z" fill="white"/>
<path d="M135.603 12.4072C138.839 12.4899 138.835 12.488 139.338 9.41583C139.708 7.14634 140.203 4.89032 140.437 2.60736C140.623 0.846049 141.752 1.00389 142.926 1.05009C144.549 1.11554 143.843 2.29167 143.745 3.00197C143.225 6.75365 142.594 10.4899 142.051 14.2378C141.87 15.489 141.335 15.9298 140.013 15.7585C137.989 15.4893 135.951 15.3459 133.909 15.3292C131.24 15.3138 129.512 16.5419 128.666 19.052C127.783 21.6171 127.347 24.3154 127.376 27.0289C127.415 29.5814 128.481 30.7941 131.033 30.9923C132.376 31.0963 133.744 30.8576 135.104 30.8114C136.368 30.771 136.165 29.718 136.278 29.0251C136.815 25.7527 137.276 22.4803 137.73 19.1868C137.907 17.9067 138.35 17.3292 139.854 17.591C141.149 17.8162 141.356 18.2204 141.143 19.4312C140.453 23.3619 139.8 27.3042 139.328 31.2638C139.156 32.6728 138.64 33.3581 137.262 33.4755C134.423 33.7161 131.601 34.3764 128.735 33.6834C125.963 33.0116 124.336 31.2849 124.094 28.4726C123.786 24.9468 124.307 21.3976 125.615 18.1107C127.263 13.9375 130.319 12.2724 135.603 12.4072Z" fill="white"/>
<path d="M42.2968 41.0039L37.6599 40.9847C36.4858 41.0347 36.3342 40.361 36.4608 39.4004C36.5817 38.4726 37.1841 38.3725 37.9265 38.4053C38.7438 38.4438 39.5611 38.4938 40.3783 38.5015C43.1985 38.5323 44.6815 37.36 45.3357 34.6651C45.4661 34.1281 45.5544 33.7027 44.8369 33.6526C43.2311 33.5256 42.8896 32.3052 42.6978 31.0848C41.8364 25.6006 41.0249 20.1127 40.2191 14.617C40.0829 13.6796 39.8776 12.642 41.3702 12.5516C42.5596 12.4803 43.4805 12.5516 43.6723 14.1088C44.221 18.8153 44.8733 23.5102 45.4834 28.2089C45.5448 28.6786 45.5505 29.1598 45.6484 29.6218C45.7462 30.0838 45.8249 30.6208 46.4311 30.6709C47.0776 30.7248 47.1352 30.1281 47.3059 29.7084C48.755 26.2025 50.1964 22.6927 51.6301 19.1791C52.3234 17.4877 53.0134 15.7938 53.7002 14.0973C53.986 13.3947 54.2661 12.6786 55.1716 12.5939C55.845 12.5304 56.6047 12.334 57.1438 12.8133C57.8114 13.4081 57.2417 14.0703 56.9884 14.6613C54.3269 20.8942 51.6551 27.122 48.9731 33.3446C48.2747 34.9596 47.5803 36.5901 46.6959 38.105C45.7443 39.7469 44.3649 40.9442 42.2968 41.0039Z" fill="white"/>
<path d="M94.5338 14.8884C93.7511 14.9654 92.5348 15.1156 91.3127 15.1887C90.6988 15.2253 89.8336 15.5737 89.7108 14.5131C89.6149 13.6622 89.7703 12.7479 90.7775 12.5881C93.9372 12.0742 97.1429 11.514 100.268 12.6613C102.457 13.464 103.326 15.2561 103.255 17.5005C103.134 21.3677 102.238 25.1444 101.818 28.9789C101.715 29.9202 101.53 30.8538 101.435 31.7951C101.289 33.1983 100.448 33.591 99.1669 33.4601C97.6437 33.3042 98.0158 32.336 98.1712 31.3677C98.5108 29.1618 98.7468 26.9404 99.0883 24.7306C99.2533 23.6411 99.0269 23.0251 97.7453 23.1502C96.2547 23.2946 94.7372 23.258 93.2657 23.4986C90.6604 23.9279 89.07 27.0674 90.106 29.514C90.2495 29.901 90.5107 30.2328 90.8526 30.4626C91.1945 30.6923 91.5998 30.8083 92.011 30.7941C93.0278 30.7941 94.0485 30.7113 95.0672 30.6805C95.5851 30.6632 96.3429 29.8894 96.554 30.873C96.7113 31.618 96.6096 32.5092 95.6274 32.898C93.4614 33.7566 91.2609 34.0068 89.0566 33.1502C87.3472 32.4861 86.6163 31.0694 86.4705 29.3235C86.0811 24.6343 88.6326 21.5756 93.4614 21.0232C94.7449 20.8769 96.0475 20.8807 97.3425 20.8615C98.4935 20.8441 99.6446 21.1156 99.8595 19.3581C100.142 17.0328 99.6676 15.7431 98.0178 15.1521C97.0202 14.8018 95.9938 14.9616 94.5338 14.8884Z" fill="white"/>
<path d="M122.106 19.3773C121.604 23.0347 120.988 27.5891 120.343 32.1415C120.151 33.5544 119.027 33.489 117.989 33.4447C116.756 33.3831 116.905 32.5939 117.03 31.7123C117.606 27.9009 118.16 24.0857 118.636 20.2628C118.857 18.4746 119.292 16.5111 117.23 15.3773C115.77 14.5746 110.951 15.2869 110.049 16.4899C109.638 17.0366 109.537 17.8643 109.435 18.5862C108.823 22.8711 108.224 27.1579 107.687 31.4505C107.516 32.8095 107.012 33.5833 105.506 33.4871C104.366 33.4139 103.99 32.9712 104.163 31.7989C105.011 26.1146 105.759 20.4149 106.621 14.7325C106.739 13.949 106.467 12.694 107.58 12.513C108.466 12.3687 109.753 11.6892 110.281 13.3196C110.473 13.8971 110.981 13.385 111.282 13.258C112.463 12.7301 113.708 12.3593 114.985 12.155C119.829 11.4813 122.246 13.6314 122.106 19.3773Z" fill="white"/>
<path d="M19.282 26.7845C19.8077 23.0058 20.4331 18.4495 21.0854 13.899C21.306 12.359 22.505 12.4514 23.6043 12.5939C24.8513 12.7556 24.5137 13.6584 24.3928 14.4707C23.8 18.4861 23.1995 22.4996 22.6662 26.5227C22.2077 29.9875 23.8537 31.5275 27.3069 30.9211C28.1741 30.7691 29.0201 30.4957 29.8796 30.3013C31.282 29.9875 31.7981 29.0886 31.9707 27.7046C32.4849 23.4062 33.093 19.1194 33.7108 14.8364C33.8585 13.8085 33.8393 12.6054 35.4374 12.54C36.8014 12.4842 37.4729 12.8056 37.2388 14.3648C36.3717 20.1165 35.6062 25.8836 34.7448 31.6372C34.6355 32.3706 34.7755 33.514 33.6916 33.5621C32.8379 33.6064 31.6101 34.3225 31.1228 32.7922C30.9213 32.1589 30.4475 32.6208 30.1367 32.7537C29.0136 33.242 27.8372 33.596 26.6316 33.8085C21.7511 34.6382 19.1842 32.463 19.282 26.7845Z" fill="white"/>
<path d="M165.782 19.8528C165.508 21.7777 165.188 24.0665 164.863 26.3456C164.796 26.8153 164.662 27.283 164.671 27.7527C164.671 29.0559 164.04 30.6093 165.541 31.4601C167.279 32.4495 168.978 31.6141 170.632 30.9808C171.277 30.7344 171.208 30.1261 171.283 29.6045C171.772 26.3225 172.295 23.0443 172.723 19.7546C172.865 18.6574 173.299 18.1415 174.425 18.2917C175.611 18.4515 175.284 19.3234 175.192 20.0241C174.617 24.0491 174.062 28.0722 173.435 32.0876C173.147 33.9298 172.378 34.3456 170.916 33.3061C170.341 32.9 170.095 33.1617 169.715 33.258C168.927 33.4505 168.167 33.8066 167.369 33.9336C163.877 34.49 161.886 32.8403 162.141 29.3465C162.385 26.0434 162.985 22.7671 163.378 19.4717C163.497 18.4784 164.065 18.2474 164.913 18.2878C165.707 18.3283 165.959 18.7729 165.782 19.8528Z" fill="white"/>
<path d="M77.2622 33.4717C76.0517 33.4524 75.292 33.2965 75.4877 31.9721C76.3548 26.1454 77.1433 20.309 78.0239 14.4784C78.4076 11.976 79.5164 11.6141 81.5174 13.3061C82.0047 13.7181 82.2502 13.3754 82.5495 13.2214C83.6363 12.6492 84.8149 12.2732 86.0315 12.1107C86.703 12.026 87.6757 11.7258 87.6622 12.9673C87.6526 13.8374 87.6757 14.6651 86.4306 14.9481C80.9591 16.2108 80.9956 16.2397 80.3203 21.7931C79.9193 25.0848 79.4263 28.3668 79.0042 31.6565C78.8488 32.8441 78.3558 33.5756 77.2622 33.4717Z" fill="white"/>
<path d="M152.746 32.259C153.327 28.0446 153.908 23.831 154.49 19.618C154.624 18.6439 155.4 17.8258 156.09 18.3629C157.445 19.4158 158.454 18.5939 159.636 18.309C160.29 18.1512 161.276 17.6776 161.535 18.7132C161.794 19.7488 161.13 20.1396 160.038 20.3283C156.875 20.873 156.817 21.0443 156.393 24.1396C156.021 26.8826 155.576 29.616 155.225 32.361C155.102 33.3234 154.722 33.8701 153.69 33.8393C152.545 33.8066 152.647 33.0347 152.746 32.259Z" fill="white"/>
<path d="M146.649 29.6853C147.773 29.8278 148.546 30.3725 148.587 31.4563C148.633 32.6401 147.898 33.3677 146.705 33.3465C145.617 33.3273 144.957 32.6747 144.955 31.541C144.953 30.4072 145.678 29.8952 146.649 29.6853Z" fill="white"/>
</g>
</svg>
