<svg width="128" height="40" viewBox="0 0 128 40" fill="none" xmlns="http://www.w3.org/2000/svg">
<path opacity="0.7" fill-rule="evenodd" clip-rule="evenodd" d="M13.2205 0.0617087C11.43 0.195882 9.26416 0.658843 7.79824 1.22057C2.90487 3.09589 0.18732 7.46461 0.619513 12.7611C0.914807 16.3803 2.40682 18.8181 5.35449 20.4979C6.69132 21.2597 7.78309 21.5972 13.2612 22.9422C16.1678 23.6558 19.0077 24.3748 19.572 24.5398C21.558 25.1208 22.9895 26.0096 23.4816 26.9673C23.7997 27.5863 23.9192 28.5001 23.7864 29.2987C23.4626 31.2445 22.0986 32.5062 19.6571 33.118C18.0009 33.533 15.7173 33.6732 14.0314 33.4633C10.3245 33.0018 8.15949 31.2336 7.6715 28.2691L7.52073 27.3534H3.76036H0L0.0571631 28.4448C0.151653 30.2497 0.746933 32.1767 1.71519 33.8125C2.33206 34.8546 4.01061 36.59 5.06261 37.2733C7.16319 38.6377 9.72791 39.4821 12.9763 39.8788C14.2695 40.0367 17.8168 40.0413 18.9857 39.8867C21.8148 39.5123 24.3234 38.6833 26.3143 37.4648L26.9495 37.0761L26.9772 38.0842L27.005 39.0923H30.7148H34.4247L34.4289 34.6053L34.4331 30.1184L35.9926 28.5176C37.443 27.0289 37.5606 26.9304 37.6734 27.1109C37.7401 27.2176 39.2719 29.9461 41.0774 33.1744L44.3601 39.0438L48.773 39.0691C51.2002 39.0829 53.1859 39.0723 53.1859 39.0456C53.1859 39.0188 50.8966 35.1303 48.0985 30.4044C45.3004 25.6786 43.025 21.7723 43.0418 21.7236C43.0587 21.675 45.1391 19.3792 47.6651 16.6218C50.191 13.8643 52.404 11.4399 52.5829 11.2345L52.908 10.8607L48.3811 10.8658L43.8542 10.8709L39.1639 16.2252L34.4735 21.5794L34.4486 11.2722L34.4238 0.965026H30.711H26.9983V2.56579C26.9983 3.44621 26.9633 4.16656 26.9205 4.16656C26.8777 4.16656 26.6688 3.9863 26.4563 3.76597C24.9797 2.23477 22.2224 0.893914 19.5159 0.390982C17.6185 0.0383291 15.2121 -0.087502 13.2205 0.0617087ZM16.8848 6.63814C18.0605 6.82839 18.7059 7.02659 19.5113 7.44454C21.1481 8.29391 22.2158 9.81687 22.485 11.6865L22.5547 12.1704L24.7765 12.1965L26.9983 12.2226V15.8103C26.9983 17.7835 26.982 19.3981 26.9621 19.3981C26.9421 19.3981 26.4664 19.1802 25.905 18.914C24.4902 18.243 23.0164 17.7826 19.7186 16.9814C18.16 16.6028 15.5236 15.962 13.8598 15.5574C10.7121 14.7921 9.87517 14.4993 9.15052 13.9098C8.38902 13.2902 7.94628 12.2584 7.94628 11.1032C7.94628 8.78956 9.64749 7.19763 12.7066 6.64852C13.7172 6.4671 15.7964 6.46186 16.8848 6.63814ZM59.2931 26.6741C57.5043 26.876 56.0101 27.872 55.2481 29.3708C54.1279 31.574 54.2336 34.9892 55.4816 36.9095C56.4266 38.3637 57.7215 39.0651 59.6351 39.1593C62.4005 39.2954 64.2975 37.9544 65.0484 35.333L65.1943 34.8236H63.9293C62.7905 34.8236 62.6641 34.8406 62.6621 34.9934C62.6584 35.2871 62.2751 36.0231 61.9503 36.3602C61.0085 37.3374 59.245 37.413 58.1953 36.5209C57.1471 35.6301 56.6527 33.4778 57.0535 31.551C57.3279 30.2323 57.8955 29.3915 58.8122 28.9462C59.294 28.7122 59.4245 28.6918 60.2047 28.7288C61.5068 28.7907 62.1411 29.2243 62.5692 30.345L62.7421 30.7975L63.9614 30.8245L65.1807 30.8516L65.0939 30.3901C64.8684 29.1915 63.874 27.8518 62.7826 27.2761C61.8217 26.7692 60.4888 26.5392 59.2931 26.6741ZM77.5658 29.8811C75.8308 30.1044 74.5022 31.1807 73.9852 32.7817C73.6987 33.6688 73.6998 35.2881 73.9876 36.1879C74.5768 38.0302 76.1536 39.0883 78.3144 39.0912C79.715 39.0931 80.7848 38.6636 81.6398 37.756C82.4568 36.8888 82.7936 35.9338 82.7936 34.4841C82.7936 32.676 82.1625 31.349 80.9252 30.5549C80.0305 29.9809 78.7641 29.7268 77.5658 29.8811ZM104.534 29.8808C102.673 30.1191 101.356 31.2876 100.876 33.1258C100.718 33.7305 100.749 35.3882 100.931 35.9944C101.399 37.5621 102.404 38.5501 103.949 38.9603C104.581 39.1282 105.96 39.1266 106.602 38.957C108.125 38.5544 109.156 37.5244 109.619 35.9446C109.855 35.1383 109.782 33.2511 109.485 32.4952C108.758 30.6414 106.774 29.594 104.534 29.8808ZM122.477 29.8847C121.653 29.9893 120.543 30.5184 119.984 31.0732C119.162 31.8895 118.753 33.0236 118.753 34.4841C118.753 35.9511 119.092 36.8993 119.935 37.7838C120.862 38.7569 121.937 39.1411 123.533 39.0693C125.045 39.0014 126.107 38.4976 126.879 37.4816C127.941 36.0849 128.099 33.6543 127.236 31.975C126.463 30.4701 124.535 29.6236 122.477 29.8847ZM65.9866 34.4841V38.8983H67.1103H68.234V37.5125V36.1267L68.7832 35.5965C69.0852 35.3048 69.3504 35.1098 69.3725 35.1632C69.3946 35.2165 69.8641 36.0679 70.4158 37.055L71.4191 38.8498L72.8076 38.8768L74.1961 38.9036L73.9137 38.4402C73.7585 38.1852 73.0298 36.9599 72.2946 35.7173L70.9578 33.4579L72.2586 32.0447C72.9741 31.2674 73.6616 30.5051 73.7864 30.3506L74.0134 30.0698H72.6423H71.2711L69.8292 31.7191C69.0362 32.6262 68.3529 33.3684 68.3108 33.3684C68.2685 33.3684 68.234 32.6262 68.234 31.7191V30.0698H67.1103H65.9866V34.4841ZM84.5524 32.522C84.5524 35.8226 84.3901 37.007 83.9129 37.1888C83.8259 37.2219 83.5385 37.249 83.2741 37.249H82.7936V38.0679C82.7936 38.5268 82.8379 38.9141 82.8945 38.9488C82.9501 38.9829 83.3221 39.0353 83.7212 39.0653C85.4513 39.1952 86.3088 38.4402 86.6617 36.4761C86.7421 36.0286 86.7944 34.9827 86.7965 33.7779L86.7999 31.8105L88.0946 31.8376L89.3893 31.8646L89.4149 35.3815L89.4406 38.8983H90.5631H91.6856V34.4841V30.0698H88.119H84.5524V32.522ZM92.9559 34.4841V38.8983H94.0797H95.2034V37.5125V36.1267L95.7525 35.5965C96.0546 35.3048 96.3203 35.1098 96.3428 35.1632C96.3655 35.2165 96.8399 36.0679 97.397 37.055L98.4099 38.8498L99.7967 38.8768L101.183 38.9037L100.986 38.5857C100.878 38.4108 100.147 37.1836 99.3621 35.8587L97.935 33.4497L99.3297 31.9295C100.097 31.0935 100.785 30.3329 100.858 30.2396C100.985 30.0796 100.913 30.0698 99.6211 30.0698H98.2497L96.81 31.7191C96.0181 32.6262 95.3326 33.3684 95.2868 33.3684C95.2409 33.3684 95.2034 32.6262 95.2034 31.7191V30.0698H94.0797H92.9559V34.4841ZM110.642 34.4848V38.9136L113.5 38.8754C116.751 38.8318 116.995 38.7861 117.729 38.0846C118.191 37.6427 118.362 37.1928 118.359 36.4244C118.356 35.5414 117.751 34.6995 116.923 34.4284C116.747 34.3708 116.603 34.2919 116.603 34.2534C116.603 34.2148 116.797 34.0898 117.033 33.9756C117.685 33.6613 118.004 33.1837 118.051 32.4514C118.116 31.4359 117.645 30.7984 116.487 30.3317C116.008 30.139 115.761 30.1202 113.305 30.0893L110.642 30.056V34.4848ZM115.442 31.7898C115.833 32.0193 115.978 32.5541 115.779 33.0287C115.569 33.5267 115.178 33.6594 113.919 33.6594H112.89V32.6408V31.6221H114.023C114.921 31.6221 115.215 31.6568 115.442 31.7898ZM79.0293 31.8273C79.9413 32.0787 80.4484 33.0282 80.4484 34.4841C80.4484 35.5347 80.2434 36.1914 79.768 36.6633C79.0743 37.3521 77.7699 37.4175 76.9601 36.8043C75.9246 36.0202 75.7589 33.5357 76.6689 32.4397C77.2011 31.7986 78.0892 31.5682 79.0293 31.8273ZM106.125 31.8693C106.871 32.1786 107.253 32.7567 107.42 33.8277C107.544 34.6175 107.418 35.6105 107.122 36.1872C106.579 37.2427 104.935 37.566 103.94 36.8126C102.85 35.9868 102.784 33.1914 103.832 32.2202C104.346 31.744 105.425 31.5789 106.125 31.8693ZM124.106 31.8696C125.047 32.2592 125.447 33.0614 125.436 34.5326C125.427 35.6141 125.188 36.2941 124.653 36.7606C124.039 37.2961 123.009 37.3817 122.188 36.9655C121.434 36.5837 121.098 35.8002 121.098 34.4238C121.098 33.0234 121.538 32.1771 122.43 31.8612C122.937 31.6821 123.662 31.6856 124.106 31.8696ZM115.635 35.239C116.194 35.6124 116.289 36.4691 115.83 36.9807L115.545 37.2975L114.266 37.3295L112.987 37.3615V36.1796V34.9977L114.184 35.0336C115.118 35.0615 115.437 35.1067 115.635 35.239Z" fill="white"/>
</svg>
