<svg width="192" height="40" viewBox="0 0 192 40" fill="none" xmlns="http://www.w3.org/2000/svg">
<g opacity="0.7">
<path fill-rule="evenodd" clip-rule="evenodd" d="M18.226 0.0620702C11.3729 0.62433 5.27 4.71147 2.15668 10.8237C1.12776 12.8439 0.524459 14.7266 0.159611 17.0559C0.00665221 18.0324 -0.052756 20.6818 0.05452 21.7392C0.46348 25.7686 1.99839 29.4583 4.54782 32.5406C5.28748 33.4349 6.81577 34.9134 7.69379 35.5843C10.4673 37.7032 13.5261 38.9923 17.0611 39.5321C17.8914 39.6588 18.3379 39.6832 19.8267 39.6832C21.3155 39.6832 21.762 39.6588 22.5922 39.5321C26.8981 38.8747 30.5574 37.0854 33.576 34.1613C36.5641 31.2666 38.425 27.9002 39.2784 23.8456C39.7948 21.3921 39.7991 18.447 39.2899 15.9325C38.6685 12.8631 37.3048 9.93938 35.3507 7.48651C34.8296 6.83227 33.1398 5.03664 33.047 5.03849C33.0243 5.03896 32.8572 5.32658 32.6757 5.6777C31.6344 7.69205 29.8154 9.24963 27.4905 10.1179C25.4728 10.8715 23.4261 11.1301 19.3867 11.1417L16.8298 11.1492L16.2268 13.4977C15.8952 14.7894 15.6362 15.8585 15.6513 15.8736C15.6664 15.8887 15.909 15.7358 16.1904 15.5339C18.4279 13.9286 21.2907 13.4717 23.7272 14.3311C25.0351 14.7923 26.0365 15.4456 27.0134 16.4745C28.3915 17.9259 29.1497 19.6068 29.3518 21.6579C29.5321 23.4882 29.0954 25.7025 28.2039 27.479C25.916 32.0382 20.8504 34.4494 16.0461 33.266C13.2465 32.5765 11.0857 30.7847 9.832 28.1128C9.44865 27.2958 9.17168 26.5614 9.22638 26.5067C9.247 26.4861 10.2116 26.2256 11.37 25.9277C12.5284 25.6299 13.5142 25.3721 13.5607 25.3548C13.611 25.336 13.718 25.4771 13.8248 25.7028C14.2404 26.5815 15.2095 27.623 16.071 28.1171C16.9999 28.6498 18.2031 28.8455 19.2487 28.634C20.3651 28.4081 21.1887 27.9615 22.069 27.1045C22.6307 26.5577 22.9991 26.0354 23.3472 25.2923C23.7722 24.385 23.9201 23.7185 23.9171 22.7235C23.9149 21.9733 23.8918 21.8039 23.7264 21.3244C23.4736 20.5915 23.1321 20.0478 22.5892 19.5141C21.6991 18.6389 20.7022 18.2202 19.3781 18.1652C18.4755 18.1278 17.7828 18.2627 17.0026 18.6278C16.0526 19.0724 14.9848 20.0508 14.3659 21.0436L14.0529 21.5459L12.0574 20.6937C10.9599 20.225 10.0506 19.8308 10.0368 19.8177C9.98721 19.7708 12.5769 9.4958 12.8006 8.85139C13.9489 5.54557 15.9958 3.50747 19.2361 2.44345C20.993 1.86651 23.4577 1.55949 26.3821 1.55328C27.0664 1.55185 27.4352 1.52788 27.3692 1.48923C27.1529 1.36263 25.3983 0.790673 24.6323 0.597153C22.5787 0.0782537 20.3239 -0.110077 18.226 0.0620702ZM28.1233 3.68036C24.9659 3.74196 23.2134 3.83141 22.1825 3.98362C18.7862 4.4851 16.6768 5.79283 15.4355 8.16643C15.2405 8.5394 15.0809 8.8714 15.0809 8.90425C15.0809 8.99315 20.8149 9.0163 22.0801 8.93252C25.117 8.73135 26.9484 8.2341 28.5494 7.17602C29.5118 6.53994 30.4935 5.35615 31.0241 4.19182C31.1563 3.90174 31.2645 3.65073 31.2645 3.63407C31.2645 3.61734 31.18 3.6088 31.0767 3.61508C30.9734 3.6213 29.6444 3.65073 28.1233 3.68036ZM106.993 11.2248C105.792 11.6613 105.269 12.8779 105.774 14.0581C106.424 15.5773 108.725 15.6406 109.482 14.16C110.025 13.0978 109.633 11.8576 108.592 11.3486C108.114 11.1146 107.44 11.0625 106.993 11.2248ZM112.353 11.225C111.136 11.6124 110.584 12.9302 111.155 14.0889C111.815 15.4302 113.625 15.6569 114.598 14.5202C115.458 13.5157 115.109 11.8938 113.908 11.3123C113.507 11.1181 112.812 11.0791 112.353 11.225ZM47.9943 20.7443V29.964L49.8209 29.9458L51.6476 29.9276L51.6649 22.5016L51.6823 15.0756H55.4715H59.2608L59.2782 22.5016L59.2955 29.9276H61.1051H62.9146L62.932 20.7262L62.9492 11.5248H55.4718H47.9943V20.7443ZM86.4199 16.1741C85.1438 16.3453 83.9068 17.0755 83.2563 18.0415L83.0246 18.3856V17.4476V16.5096H81.3175H79.6103V23.2357V29.9618H81.3516H83.0929L83.0943 26.189C83.095 24.0439 83.1251 22.21 83.1639 21.9382C83.2538 21.3094 83.6101 20.5639 84.0133 20.1606C84.1872 19.9869 84.5342 19.7479 84.7863 19.6284C85.2178 19.4241 85.2887 19.4117 86.0291 19.4117C86.7358 19.4117 86.853 19.4298 87.2001 19.5925C87.8232 19.8846 88.2905 20.4475 88.5801 21.2548C88.6283 21.3891 88.6664 22.9268 88.6901 25.6939L88.7264 29.9276H90.4677H92.209L92.2431 25.7964C92.2803 21.2908 92.2677 21.4353 92.6874 20.7068C92.9146 20.3125 93.4812 19.8075 93.9353 19.5947C94.2908 19.4281 94.3991 19.4117 95.1452 19.4117C95.843 19.4117 96.0124 19.4338 96.2867 19.5605C96.7273 19.764 97.2594 20.2788 97.4663 20.7018C97.8225 21.4297 97.84 21.6775 97.8413 25.9944L97.8425 29.9822L98.4676 29.9379C98.8113 29.9134 99.5961 29.8935 100.211 29.8935H101.33L101.309 25.233C101.288 20.6606 101.285 20.5622 101.136 20.0263C101.053 19.7258 100.857 19.2188 100.702 18.8996C100.467 18.4172 100.308 18.2091 99.7622 17.6677C99.2274 17.1369 98.9982 16.9633 98.5253 16.7308C96.7285 15.8474 94.263 15.9725 92.5959 17.0317C92.0637 17.3698 91.5321 17.831 91.3058 18.1508C91.2016 18.2981 91.094 18.4193 91.0665 18.4201C91.0392 18.4209 90.9505 18.2909 90.8696 18.1313C90.6281 17.6549 89.807 16.8996 89.2274 16.6208C88.3904 16.2183 87.3383 16.0508 86.4199 16.1741ZM140.965 16.1448C139.124 16.293 137.717 16.8919 136.5 18.046C135.304 19.1795 134.604 20.5148 134.372 22.1034C134.26 22.8676 134.325 24.2976 134.503 25.0111C134.982 26.9232 136.306 28.5976 138.028 29.4667C139.839 30.3806 142.245 30.5206 144.156 29.8232C146.312 29.0365 147.924 27.2596 148.484 25.0533C149.02 22.9427 148.586 20.6208 147.35 18.9804C146.351 17.6544 145.037 16.7683 143.477 16.3695C142.997 16.2466 141.684 16.0855 141.374 16.1114C141.299 16.1177 141.115 16.1327 140.965 16.1448ZM108.731 16.2637C107.191 16.557 106.09 17.1283 105.065 18.1658C103.52 19.7288 102.842 21.9912 103.202 24.3792C103.623 27.178 105.421 29.2478 108.017 29.9237C110.66 30.6118 113.517 30.1039 115.527 28.5885C116.379 27.9459 116.371 28.1062 115.609 26.9116C115.245 26.342 114.926 25.8542 114.899 25.8276C114.873 25.8011 114.689 25.8868 114.49 26.0183C113.908 26.4031 113.051 26.8065 112.406 26.9993C111.598 27.2412 110.135 27.305 109.358 27.1323C108.244 26.8844 107.465 26.2767 106.997 25.2907C106.853 24.9867 106.719 24.6688 106.7 24.5843L106.664 24.4307H111.704H116.744L116.794 24.0039C116.934 22.8185 116.8 21.362 116.46 20.3615C115.787 18.3835 114.202 16.9561 112.054 16.3934C111.241 16.1804 109.52 16.1132 108.731 16.2637ZM125.318 16.2656C124.341 16.4885 123.548 16.9209 122.757 17.6605L122.22 18.1626V17.3361V16.5096H120.479H118.738V25.9671V35.4246H120.479H122.22V31.8655V28.3064L122.693 28.7523C123.287 29.3124 123.916 29.6869 124.747 29.9745C125.379 30.1932 125.424 30.1988 126.488 30.1939C127.781 30.188 128.311 30.0733 129.303 29.5849C131.283 28.61 132.623 26.7065 132.978 24.3624C133.347 21.9313 132.591 19.5554 130.942 17.9656C130.09 17.1442 129.394 16.7407 128.239 16.3979C127.5 16.1788 125.997 16.1107 125.318 16.2656ZM182.285 16.2702C180.16 16.7113 178.504 18.0101 177.598 19.9462C176.537 22.2125 176.747 25.2841 178.1 27.3185C179.315 29.1436 181.058 30.128 183.233 30.2174C184.925 30.2869 186.115 29.8564 187.303 28.7446L187.838 28.2444L187.857 29.0861L187.876 29.9276L189.532 29.9459L191.188 29.9642V23.2369V16.5096H189.515H187.842V17.3437V18.1779L187.484 17.8297C186.755 17.1222 186.009 16.6706 185.077 16.3727C184.461 16.1759 182.998 16.1221 182.285 16.2702ZM69.8348 16.6149C67.6899 16.9491 66.2341 18.0041 65.7004 19.6112C65.5371 20.1029 65.517 20.2668 65.5156 21.1188C65.5142 21.9869 65.5313 22.124 65.7009 22.6094C65.8036 22.9033 65.9898 23.3035 66.1146 23.4987C66.4147 23.9677 67.0612 24.5445 67.6187 24.8404C67.8664 24.9718 68.0693 25.1052 68.0696 25.1369C68.0699 25.1686 67.348 26.2368 66.4655 27.5107C65.5829 28.7846 64.8607 29.8572 64.8607 29.8943C64.8607 29.9371 65.5444 29.9618 66.7292 29.9618H68.5977L69.9914 27.7937L71.3851 25.6256L72.1688 25.5089C72.5998 25.4448 73.0985 25.3716 73.2769 25.3465L73.6012 25.3007V27.6325V29.9641L75.2913 29.9458L76.9814 29.9276L76.9988 23.2186L77.0162 16.5096L73.7211 16.5162C71.3231 16.521 70.265 16.5479 69.8348 16.6149ZM150.028 19.4629C150.051 22.256 150.061 22.4459 150.203 22.9625C150.72 24.8363 151.898 25.8315 154.007 26.174C155.42 26.4034 156.721 26.2451 157.9 25.7001C158.192 25.5653 158.442 25.4549 158.455 25.4549C158.469 25.4549 158.48 26.469 158.48 27.7083V29.9618H160.221H161.962V23.2357V16.5096H160.221H158.48V19.5769V22.6442L158.155 22.7506C156.792 23.1972 155.312 23.2296 154.529 22.8298C154.151 22.6371 153.909 22.3892 153.69 21.9724C153.53 21.6675 153.529 21.6451 153.509 19.0873L153.489 16.5096H151.747H150.004L150.028 19.4629ZM164.574 23.2186L164.591 29.9276H166.332H168.074L168.108 26.8694L168.142 23.8112L170.797 26.8865L173.452 29.9618H175.566C176.895 29.9618 177.671 29.9373 177.656 29.8958C177.644 29.8595 176.236 28.2416 174.527 26.3004C172.818 24.3593 171.42 22.7485 171.42 22.7208C171.42 22.6931 172.543 21.507 173.916 20.0851C175.288 18.6632 176.621 17.2769 176.877 17.0046L177.343 16.5096L175.132 16.5136L172.922 16.5176L170.532 19.1211L168.142 21.7246L168.124 19.117L168.106 16.5096H166.331H164.556L164.574 23.2186ZM110.714 19.1071C111.996 19.2905 112.984 20.1731 113.367 21.4773L113.472 21.8358H110.067H106.662L106.733 21.5797C106.945 20.8083 107.646 19.899 108.32 19.5202C109.053 19.1076 109.807 18.9775 110.714 19.1071ZM73.6012 21.0084V22.7076L73.4135 22.7527C73.3102 22.7776 72.6726 22.8157 71.9966 22.8375C70.9797 22.8703 70.6907 22.8574 70.3236 22.7635C69.4273 22.5342 69.0262 22.0879 68.9732 21.2611C68.9454 20.8283 68.9645 20.7068 69.1113 20.3862C69.2917 19.9921 69.5039 19.8021 70.0161 19.5754C70.4463 19.3851 70.9725 19.328 72.3892 19.3179L73.6012 19.3093V21.0084ZM126.83 19.5266C128.075 19.7988 129.201 21.0139 129.463 22.3688C129.591 23.0299 129.513 24.085 129.295 24.6613C128.849 25.8364 127.873 26.7113 126.741 26.9494C126.228 27.0573 125.323 27.0437 124.852 26.9209C123.556 26.5832 122.542 25.4915 122.255 24.1234C122.063 23.2105 122.167 22.2093 122.53 21.4854C123.358 19.8314 124.935 19.1127 126.83 19.5266ZM142.646 19.5866C143.729 19.9003 144.649 20.8449 145.036 22.0407C145.237 22.66 145.237 23.7401 145.037 24.3624C144.526 25.9526 143.107 27.0255 141.514 27.0255C140.113 27.0255 138.838 26.2515 138.241 25.0381C137.478 23.4868 137.709 21.7556 138.84 20.5566C139.824 19.5135 141.191 19.1651 142.646 19.5866ZM185.142 19.4821C186.009 19.7078 186.764 20.2706 187.288 21.0802C188.431 22.8497 187.933 25.3137 186.196 26.4735C185.577 26.8866 185.021 27.0413 184.155 27.0413C183.289 27.0413 182.733 26.8866 182.114 26.4735C181.027 25.7476 180.446 24.6075 180.446 23.2015C180.446 22.0349 180.789 21.1732 181.56 20.4018C182.017 19.9445 182.53 19.6392 183.109 19.4801C183.568 19.3539 184.654 19.3549 185.142 19.4821Z" fill="white"/>
</g>
</svg>
