<svg width="288" height="40" viewBox="0 0 288 40" fill="none" xmlns="http://www.w3.org/2000/svg">
<g opacity="0.7">
<path fill-rule="evenodd" clip-rule="evenodd" d="M122.575 9.10739C122.675 10.8782 122.164 12.6296 121.126 14.0679C120.762 14.5631 120.297 14.9757 119.762 15.2783C119.227 15.5809 118.633 15.7667 118.021 15.8236C117.346 15.9131 116.661 15.8791 115.998 15.7232C115.29 15.5538 114.633 15.2161 114.083 14.7387C113.532 14.2614 113.105 13.6584 112.838 12.981C112.293 11.8226 111.998 10.5627 111.971 9.28282C111.944 8.00296 112.186 6.73173 112.682 5.55145C112.944 4.8875 113.345 4.28721 113.858 3.7907C114.371 3.29419 114.984 2.9129 115.657 2.67232C116.329 2.43173 117.044 2.3374 117.756 2.39561C118.468 2.45383 119.158 2.66326 119.783 3.0099C120.781 3.63033 121.54 4.57166 121.934 5.67964C122.406 6.75844 122.625 7.93089 122.575 9.10739ZM111.443 2.62764C111.332 3.09646 111.227 3.54951 111.124 3.99383L111.124 3.99384L111.124 3.99386L111.124 3.99391L111.124 3.99417C110.982 4.60619 110.843 5.20166 110.701 5.799C109.958 8.9425 109.204 12.0823 108.438 15.2184L108.437 15.2261C108.333 15.6588 108.33 15.6698 107.881 15.6698H105.891C105.829 15.6819 105.765 15.6804 105.704 15.6656C105.642 15.6507 105.585 15.6227 105.535 15.5836C105.485 15.5444 105.445 15.495 105.416 15.4387C105.387 15.3824 105.37 15.3206 105.367 15.2574C104.976 13.552 104.571 11.8565 104.164 10.1569L104.08 9.80641C103.879 8.95365 103.673 8.09532 103.383 7.23141C103.32 7.50169 103.255 7.77197 103.191 8.04241L103.191 8.04246C103.047 8.64759 102.903 9.25353 102.765 9.86214C102.687 10.2024 102.609 10.5427 102.531 10.883L102.531 10.883L102.531 10.883L102.531 10.883L102.531 10.883L102.531 10.883L102.531 10.883L102.531 10.8831L102.531 10.8831L102.531 10.8831L102.531 10.8831L102.531 10.8831L102.531 10.8831L102.531 10.8831L102.53 10.8833C102.201 12.321 101.871 13.7595 101.555 15.2016C101.483 15.5249 101.354 15.6865 100.998 15.6698C100.57 15.6512 100.141 15.6574 99.7118 15.6636H99.7118H99.7118H99.7118H99.7117H99.7117H99.7117H99.7117H99.7116H99.7116H99.7116H99.7116H99.7115H99.7115H99.7115H99.7115H99.7114H99.7114H99.7114H99.7114H99.7113H99.7113H99.7113H99.7113H99.7112H99.7112H99.7112H99.7112H99.7111H99.7111H99.711H99.711H99.711H99.711H99.711H99.7109H99.7109H99.7109H99.7109H99.7108H99.7108H99.7108H99.7108H99.7107H99.7107H99.7107H99.7107H99.7107H99.7106H99.7106H99.7106H99.7106H99.7105H99.7105H99.7105H99.7105H99.7105H99.7104H99.7104C99.4964 15.6667 99.2825 15.6698 99.0693 15.6698C98.7237 15.6698 98.5844 15.5639 98.5119 15.2184C98.0728 13.375 97.6197 11.5373 97.1665 9.69921C96.9812 8.94741 96.7958 8.19554 96.6113 7.44321C96.2658 6.03867 95.9221 4.63598 95.5802 3.23516C95.561 3.14709 95.5444 3.06039 95.5272 2.97035L95.5272 2.97035L95.5272 2.97035C95.5096 2.87803 95.4913 2.7822 95.4688 2.6778C95.8248 2.60873 96.1891 2.59184 96.55 2.62764H97.9378C98.2946 2.62764 98.4395 2.74468 98.4952 3.0791C98.7014 4.07677 98.9188 5.08001 99.1362 6.07768L99.2864 6.78154L99.2865 6.78189L99.2865 6.78195L99.2865 6.78202L99.2865 6.78209L99.2865 6.78215L99.2865 6.78222L99.2866 6.78228L99.2866 6.78235L99.2866 6.78241L99.2866 6.78248L99.2867 6.78305L99.2868 6.78348C99.5711 8.11571 99.856 9.45076 100.145 10.7818C100.145 10.857 100.175 10.9299 100.208 11.0108C100.227 11.0559 100.246 11.1034 100.262 11.1552C100.385 11.0224 100.458 10.851 100.468 10.6703C100.976 8.39418 101.517 6.09952 102.052 3.82855L102.207 3.16828C102.33 2.61092 102.341 2.61092 102.87 2.61092H104.442C105 2.61092 105.033 2.61092 105.167 3.16828C105.276 3.63169 105.385 4.0951 105.493 4.55801L105.493 4.55811L105.493 4.5582L105.493 4.55851L105.494 4.55902L105.494 4.55985L105.494 4.55996L105.494 4.56012L105.494 4.56024L105.494 4.5603L105.494 4.56033C105.628 5.13221 105.761 5.70333 105.897 6.27276L106.984 10.8375C106.984 10.9323 106.984 11.0437 107.162 11.1162C107.192 10.9937 107.221 10.8717 107.251 10.75L107.251 10.75L107.251 10.7499L107.251 10.7499L107.251 10.7498L107.251 10.7498L107.251 10.7498L107.251 10.7497L107.251 10.7497L107.251 10.7497L107.251 10.7496L107.251 10.7493C107.323 10.456 107.395 10.1646 107.458 9.87329L108.929 3.185C109.052 2.62764 109.057 2.62764 109.648 2.62764H111.443ZM107.099 24.9451C106.978 25.0268 106.951 25.1481 106.924 25.2658C106.916 25.3008 106.908 25.3355 106.898 25.3687C105.995 28.4268 105.098 31.4904 104.206 34.5596C104.192 34.6077 104.179 34.6516 104.167 34.6919C104.1 34.9177 104.069 35.0255 103.997 35.0761C103.931 35.1224 103.832 35.121 103.642 35.1184L103.642 35.1184H103.641C103.591 35.1177 103.534 35.1169 103.47 35.1169H102.506C102.188 35.1169 102.01 34.9999 101.921 34.6766C101.578 33.442 101.22 32.2074 100.863 30.9728L100.863 30.9727L100.863 30.9727L100.863 30.9726L100.863 30.9726L100.863 30.9726L100.863 30.9725L100.863 30.9725L100.863 30.9724L100.863 30.9724L100.863 30.9724L100.863 30.9723L100.863 30.9723L100.863 30.9722L100.863 30.9722L100.863 30.9722L100.863 30.9721L100.863 30.9721L100.863 30.972L100.863 30.972L100.863 30.972L100.863 30.9719L100.863 30.9719L100.863 30.9718L100.863 30.9718L100.863 30.9718L100.862 30.9717L100.862 30.9717L100.862 30.9716L100.862 30.9716C100.773 30.6627 100.684 30.3538 100.594 30.045L99.2344 25.2907C99.201 25.1792 99.162 25.0678 99.1062 24.9228C98.9941 25.1104 98.9581 25.3338 99.0059 25.5471V34.3533V34.7769C99.0059 35.0054 98.9167 35.1058 98.6827 35.1002H96.8712C96.6483 35.1002 96.5312 35.0166 96.5312 34.7881V34.3645V22.7213V22.359C96.5312 22.1249 96.6427 22.0469 96.8657 22.0469H100.767C101.063 22.0469 101.124 22.2364 101.185 22.4593C101.501 23.6261 101.822 24.7872 102.149 25.9428C102.205 26.1442 102.261 26.3456 102.317 26.547L102.317 26.5471L102.317 26.5473L102.317 26.5475L102.317 26.5477L102.317 26.5478L102.317 26.548C102.555 27.4106 102.794 28.2726 103.047 29.1309C103.057 29.169 103.063 29.2098 103.069 29.2518C103.087 29.388 103.107 29.5358 103.303 29.6381C103.565 28.7686 103.821 27.9159 104.072 27.0575C104.231 26.5183 104.388 25.9784 104.546 25.4382L104.546 25.438L104.546 25.4379L104.546 25.4377L104.546 25.4375L104.546 25.4373L104.546 25.4372L104.546 25.437L104.546 25.4368L104.546 25.4366L104.547 25.4364L104.547 25.4363L104.547 25.4361L104.547 25.4359L104.547 25.4357L104.547 25.4356L104.547 25.4354L104.547 25.4352L104.547 25.435L104.547 25.4348C104.827 24.4743 105.108 23.513 105.393 22.5541C105.538 22.058 105.549 22.0525 106.045 22.0525H109.546C109.824 22.0525 109.964 22.0525 110.033 22.1221C110.103 22.1918 110.103 22.3311 110.103 22.6098V32.3803V34.671C110.103 34.9776 110.019 35.1058 109.696 35.0946H107.584C107.166 35.0946 107.16 35.0946 107.138 34.6432V34.2196V25.614C107.177 25.391 107.163 25.162 107.099 24.9451ZM164.095 23.78L162.523 30.5184C162.465 30.5668 162.466 30.6151 162.467 30.6963V30.697C162.467 30.7091 162.467 30.722 162.467 30.7358C162.467 30.7289 162.466 30.722 162.466 30.715L162.465 30.697C162.463 30.6364 162.461 30.5754 162.406 30.5296C162.12 29.2588 161.838 27.988 161.559 26.7172C161.408 26.0315 161.262 25.3444 161.116 24.6574C160.969 23.9706 160.823 23.2838 160.673 22.5984C160.578 22.041 160.55 22.041 160.021 22.041H158.755C158.382 22.0097 158.007 22.0322 157.641 22.1079L157.653 22.1721C157.66 22.2082 157.666 22.2437 157.673 22.2786L157.673 22.281L157.673 22.281L157.673 22.2812L157.673 22.2813C157.698 22.4145 157.721 22.5398 157.752 22.6652C158.217 24.6309 158.69 26.5872 159.173 28.5342C159.668 30.563 160.165 32.5881 160.667 34.6094C160.784 35.072 160.79 35.072 161.263 35.072H163.131H163.131C163.616 35.0664 163.621 35.0664 163.727 34.5983C163.818 34.2002 163.909 33.8006 163.999 33.4006L164 33.3965C164.153 32.7225 164.305 32.0474 164.463 31.3767C164.762 30.0803 165.066 28.7878 165.37 27.4927L165.544 26.7507C165.565 26.7335 165.581 26.7111 165.591 26.6856C165.599 26.6664 165.602 26.646 165.601 26.6256C165.608 26.6739 165.628 26.7195 165.661 26.7562C165.772 27.2224 165.885 27.6868 165.998 28.1505C166.088 28.524 166.179 28.8969 166.269 29.2699C166.685 31.0498 167.105 32.8277 167.528 34.6038C167.64 35.072 167.651 35.072 168.119 35.072H169.93C170.21 35.072 170.351 35.072 170.438 35.0037C170.526 34.9345 170.56 34.7952 170.627 34.5147C171.385 31.3377 172.147 28.1571 172.912 24.9727C173.042 24.4308 173.17 23.8872 173.302 23.3294L173.302 23.3276L173.303 23.325C173.402 22.9032 173.503 22.4732 173.609 22.0298H171.759C171.493 22.0298 171.358 22.0298 171.275 22.0957C171.19 22.164 171.16 22.3033 171.101 22.5872C170.536 25.1585 169.969 27.726 169.401 30.2899C169.397 30.3084 169.394 30.3281 169.392 30.3479C169.381 30.4351 169.37 30.524 169.211 30.524C169.022 29.7242 168.831 28.9244 168.64 28.1246C168.449 27.3247 168.258 26.5249 168.069 25.7251C167.824 24.6736 167.575 23.6202 167.322 22.5649C167.313 22.5288 167.306 22.4952 167.299 22.4639C167.255 22.2719 167.231 22.1671 167.166 22.1098C167.087 22.041 166.948 22.041 166.642 22.041H164.831C164.782 22.034 164.732 22.0371 164.685 22.0501C164.638 22.0631 164.594 22.0857 164.555 22.1166C164.517 22.1475 164.486 22.1859 164.463 22.2295C164.44 22.2731 164.427 22.3208 164.424 22.3698C164.359 22.6956 164.28 23.0162 164.201 23.3387L164.201 23.339L164.201 23.3393C164.165 23.4855 164.13 23.6322 164.095 23.78ZM134.551 15.668H131.764C131.479 15.668 131.407 15.476 131.332 15.2773L131.324 15.2556C131.023 14.4418 130.727 13.6337 130.432 12.8199C130.376 12.6695 130.319 12.5191 130.263 12.3687L130.263 12.3684C130.073 11.861 129.882 11.3528 129.702 10.8413C129.689 10.7808 129.665 10.7234 129.63 10.6724C129.595 10.6213 129.55 10.5777 129.499 10.5441C129.447 10.5104 129.389 10.4873 129.328 10.4761C129.267 10.465 129.205 10.4659 129.144 10.479H128.03C127.528 10.479 127.523 10.479 127.517 10.9806V14.6592V15.2165C127.517 15.629 127.467 15.6624 127.06 15.668H124.948C124.63 15.668 124.507 15.5454 124.535 15.2388C124.541 15.1386 124.541 15.0381 124.535 14.9379V3.36712V2.9491C124.535 2.71501 124.635 2.61469 124.864 2.62583H130.293C130.735 2.62949 131.177 2.66676 131.614 2.7373C132.403 2.87537 133.122 3.2777 133.653 3.87827C134.183 4.47884 134.494 5.24198 134.534 6.04244C134.62 6.60148 134.573 7.17287 134.396 7.7103C134.22 8.24772 133.92 8.73607 133.52 9.13577C133.309 9.32326 133.084 9.49291 132.845 9.64297L132.814 9.66395C132.432 9.91612 132.421 9.9234 132.606 10.401L133.72 13.1432C133.982 13.7953 134.244 14.4474 134.501 15.1051C134.589 15.2792 134.607 15.4809 134.551 15.668ZM179.284 15.6727H182.216L181.854 14.7364L180.109 10.3723C179.915 9.88267 179.941 9.86907 180.275 9.69094C180.306 9.67441 180.34 9.65645 180.377 9.63656C180.77 9.43241 181.11 9.13835 181.369 8.77823C181.776 8.21166 182.024 7.54617 182.087 6.85113C182.15 6.15609 182.025 5.45694 181.725 4.82656C181.553 4.34089 181.265 3.90444 180.886 3.55488C180.508 3.20532 180.05 2.95313 179.552 2.82008C179.147 2.70238 178.73 2.63683 178.309 2.625H172.574C172.083 2.625 172.083 2.63615 172.083 3.08756V3.08761V3.5112V14.062C172.083 14.1857 172.082 14.3018 172.081 14.4179V14.418V14.4181V14.4182V14.4183V14.4184V14.4186V14.4187V14.4189V14.419V14.4192V14.4194V14.4196V14.4198V14.42V14.4203V14.4205V14.4208V14.4211V14.4214V14.4218V14.4222V14.4226V14.423V14.4235V14.424V14.4245C172.078 14.6617 172.076 14.8996 172.083 15.2046C172.094 15.6616 172.1 15.6616 172.512 15.6616H174.569C174.998 15.656 174.998 15.6449 174.998 15.2046V13.2148V10.9241C174.998 10.4837 175.043 10.4837 175.444 10.4837H176.653C176.721 10.4701 176.791 10.4701 176.859 10.4838C176.927 10.4975 176.991 10.5246 177.048 10.5636C177.105 10.6025 177.154 10.6525 177.191 10.7106C177.229 10.7687 177.254 10.8337 177.267 10.9018C177.383 11.3174 177.537 11.7263 177.692 12.1364L177.692 12.1376L177.692 12.1387L177.693 12.1397L177.693 12.1405C177.737 12.2569 177.781 12.3735 177.824 12.4902L178.877 15.316L178.879 15.3214C178.951 15.5087 179.014 15.6727 179.284 15.6727ZM280.67 2.63615H283.323C283.663 2.65036 284.002 2.68948 284.337 2.75319C286.009 3.01515 286.94 4.56461 287.124 5.77965C287.22 6.37483 287.196 6.98332 287.052 7.56876C286.828 8.43683 286.268 9.18055 285.497 9.63656C285.028 9.92639 285.028 9.93753 285.223 10.4224C285.446 10.9776 285.667 11.532 285.888 12.0858L285.892 12.097L285.9 12.1166L285.906 12.1316L285.909 12.1388L285.914 12.1518C286.273 13.0495 286.63 13.9459 286.99 14.8423L287.007 14.8836L287.026 14.932C287.066 15.0323 287.107 15.1352 287.141 15.238C287.263 15.6282 287.247 15.6616 286.857 15.6672H284.504C284.376 15.6819 284.246 15.6467 284.143 15.569C284.039 15.4913 283.969 15.3768 283.947 15.2492C283.761 14.7309 283.57 14.2146 283.378 13.6979L283.378 13.6977L283.378 13.6974L283.378 13.6972L283.378 13.6969L283.378 13.6967L283.378 13.6964L283.378 13.6962L283.377 13.6959L283.377 13.6957L283.377 13.6954L283.377 13.6952L283.377 13.6949L283.377 13.6947L283.377 13.6944L283.377 13.6942L283.377 13.6939L283.377 13.6937L283.377 13.6934L283.376 13.6932L283.376 13.6929L283.376 13.6927L283.376 13.6924L283.376 13.6922L283.376 13.6919L283.376 13.6914C283.24 13.3267 283.105 12.9619 282.972 12.5961C282.92 12.4555 282.867 12.3149 282.814 12.1738L282.814 12.1737L282.814 12.1729L282.813 12.1708C282.656 11.7537 282.499 11.3327 282.353 10.8962C282.321 10.7613 282.24 10.6431 282.126 10.5648C282.011 10.4865 281.872 10.4536 281.734 10.4726C281.495 10.491 281.255 10.4851 281.008 10.4789C280.881 10.4758 280.752 10.4726 280.62 10.4726C280.062 10.4726 280.062 10.4726 280.062 11.0021V14.9036C280.062 14.9561 280.063 15.0048 280.063 15.0501C280.064 15.3519 280.065 15.4996 279.991 15.5717C279.921 15.6408 279.782 15.6403 279.51 15.6393C279.449 15.639 279.38 15.6388 279.304 15.6393H277.632C277.175 15.6393 277.17 15.6393 277.164 15.16V12.1447V3.4889V3.06531C277.164 2.64172 277.164 2.63057 277.61 2.625H280.631L280.67 2.63615ZM247.647 15.1849V7.11439L247.731 7.09767C248.392 8.29042 249.052 9.48316 249.709 10.6759L252.29 15.3521C252.401 15.5584 252.518 15.7033 252.786 15.7033H254.659C254.887 15.7033 254.982 15.6085 254.982 15.38V15.0177V3.31321V2.92306C254.988 2.88328 254.985 2.84252 254.973 2.80408C254.961 2.76564 254.94 2.73061 254.912 2.70183C254.884 2.67305 254.849 2.65134 254.811 2.63845C254.773 2.62556 254.732 2.62187 254.692 2.62766H253.02C252.825 2.62766 252.73 2.79487 252.73 2.91749V3.27977V9.61136C252.73 9.64483 252.734 9.67906 252.738 9.71355C252.749 9.81117 252.76 9.9109 252.685 10.0015C252.589 9.9796 252.555 9.90602 252.523 9.83764C252.514 9.81904 252.506 9.80083 252.496 9.78414L249.637 4.61743L248.734 2.9788C248.622 2.77815 248.505 2.62766 248.232 2.62766H245.696C245.473 2.62766 245.367 2.71684 245.367 2.95093V3.31321V15.2964C245.362 15.5472 245.479 15.6643 245.735 15.6643C245.895 15.6643 246.056 15.6649 246.218 15.6655C246.542 15.6667 246.866 15.668 247.179 15.6643C247.647 15.6587 247.647 15.6531 247.647 15.1849ZM146.219 9.11196V3.44363V3.02004C146.219 2.74136 146.308 2.61874 146.598 2.62431C146.961 2.62431 147.323 2.62253 147.686 2.62075C148.895 2.61481 150.103 2.60888 151.307 2.6689C153.163 2.76365 154.484 3.78362 155.432 5.32192C155.95 6.16669 156.263 7.12113 156.346 8.10871C156.566 9.79782 156.227 11.5126 155.382 12.9912C154.924 13.8013 154.261 14.4758 153.458 14.9458C152.655 15.4157 151.742 15.6644 150.811 15.6665C149.901 15.6962 148.989 15.6863 148.075 15.6764L148.075 15.6764C147.618 15.6714 147.161 15.6665 146.704 15.6665C146.23 15.6665 146.224 15.6665 146.219 15.1426V9.11196ZM195.68 3.40837V9.13801H195.685V15.0906C195.685 15.3693 195.685 15.5086 195.755 15.5783C195.825 15.6479 195.964 15.6479 196.243 15.6479H198.533C199.376 15.6832 200.22 15.6515 201.058 15.5532C202.386 15.3573 203.586 14.6515 204.402 13.5857C205.19 12.5599 205.668 11.3298 205.779 10.0409C206.014 8.45859 205.722 6.84283 204.949 5.44272C204.207 4.19982 203.265 3.18542 201.783 2.83429C201.317 2.71087 200.838 2.63983 200.356 2.62249H196.192H196.031C195.769 2.60577 195.68 2.73954 195.68 2.99035V3.40837ZM146.462 28.6763C146.387 27.0561 146.795 25.4502 147.632 24.0614C148.797 22.2388 150.514 21.6425 152.57 21.8766C153.274 21.9519 153.948 22.2006 154.531 22.6004C155.115 23.0002 155.59 23.5386 155.915 24.1673C156.835 25.7646 157.225 27.6125 157.029 29.4455C156.946 30.6917 156.574 31.9014 155.942 32.9791C154.878 34.7348 153.289 35.3925 151.294 35.2643C150.476 35.2203 149.685 34.9549 149.006 34.4965C148.326 34.0381 147.784 33.4038 147.437 32.6614C146.777 31.4383 146.441 30.0662 146.462 28.6763ZM121.38 33.0932C122.201 31.7542 122.614 30.2045 122.567 28.6344C122.583 28.0255 122.537 27.4167 122.428 26.8174C122.203 25.587 121.694 24.4264 120.94 23.4287C119.256 21.2327 115.065 21.1825 113.287 23.8467C112.919 24.3751 112.628 24.9531 112.423 25.5633C111.79 27.5303 111.808 29.6489 112.473 31.6051C112.612 32.0031 112.788 32.3874 112.997 32.7533C114.19 34.9325 116.196 35.6069 118.465 35.161C119.07 35.0447 119.644 34.7999 120.147 34.4432C120.649 34.0865 121.07 33.6262 121.38 33.0932ZM234.735 3.43708V9.16671C234.735 11.1565 234.73 13.1462 234.719 15.1137C234.719 15.3924 234.719 15.5317 234.788 15.6014C234.858 15.6711 234.997 15.6711 235.276 15.6711H243.118C243.178 15.6704 243.231 15.6708 243.277 15.6712C243.438 15.6724 243.527 15.673 243.576 15.6292C243.636 15.5751 243.636 15.4531 243.636 15.1806V13.5085C243.642 13.2187 243.519 13.124 243.241 13.124H241.613H238.23C237.717 13.124 237.717 13.0961 237.717 12.6112V10.7385C237.723 10.2536 237.729 10.2536 238.18 10.2536H241.803C242.36 10.2536 242.36 10.2034 242.36 9.6962V8.18576C242.355 7.74545 242.338 7.74545 241.909 7.74545H241.424H238.163C237.862 7.74545 237.74 7.64513 237.74 7.32743V5.46028C237.734 5.17603 237.779 5.07013 238.124 5.07013H239.155H243.057C243.648 5.07013 243.648 5.06456 243.648 4.46819V3.18626C243.648 2.90759 243.648 2.76825 243.578 2.69858C243.508 2.62891 243.369 2.62891 243.09 2.62891H238.074H235.181C234.735 2.62891 234.735 2.64563 234.735 3.07475V3.07479V3.43708ZM128.468 21.8343C129.194 21.825 129.916 21.9497 130.597 22.2021C131.135 22.4059 131.624 22.7214 132.031 23.1278C132.439 23.5341 132.755 24.0222 132.96 24.5597C133.072 24.8273 133.022 24.9443 132.743 25.0391C132.152 25.223 131.561 25.4348 130.982 25.6577C130.714 25.7581 130.581 25.6577 130.469 25.4292C129.912 24.1083 128.418 24.0748 127.482 24.3925C127.285 24.4472 127.112 24.5633 126.987 24.7238C126.861 24.8843 126.791 25.0807 126.785 25.2843C126.756 25.4959 126.792 25.7112 126.886 25.9028C126.98 26.0943 127.129 26.2535 127.314 26.36C127.578 26.5057 127.861 26.6109 128.156 26.6721C129.081 26.8605 129.995 27.1024 130.893 27.3967C131.49 27.5906 132.026 27.9359 132.45 28.3989C132.874 28.8619 133.171 29.4268 133.312 30.0386C133.543 30.9657 133.442 31.9445 133.028 32.8055C132.614 33.6666 131.912 34.3558 131.043 34.7538C130.157 35.1596 129.19 35.3565 128.216 35.3295C127.242 35.3024 126.287 35.0521 125.425 34.5977C124.925 34.3344 124.485 33.9692 124.135 33.5257C123.785 33.0822 123.531 32.5702 123.391 32.0228C123.318 31.7831 123.324 31.6549 123.608 31.5992C124.294 31.4543 124.979 31.287 125.659 31.1143C125.904 31.053 126.016 31.1143 126.099 31.3539C126.245 31.8065 126.534 32.1991 126.924 32.4718C127.313 32.7445 127.781 32.8823 128.256 32.8644C128.719 32.9121 129.187 32.851 129.622 32.686C129.844 32.6044 130.039 32.4617 130.184 32.2744C130.329 32.0871 130.418 31.8627 130.441 31.627C130.482 31.3968 130.445 31.1595 130.336 30.9527C130.227 30.7458 130.052 30.5811 129.839 30.4844C129.4 30.286 128.94 30.1364 128.468 30.0386C127.722 29.8773 126.99 29.6593 126.278 29.3865C125.191 28.935 124.305 28.2717 124.048 27.0567C123.871 26.4034 123.857 25.7166 124.008 25.0566C124.159 24.3967 124.469 23.7839 124.912 23.2722C125.358 22.7792 125.909 22.3936 126.525 22.1445C127.141 21.8955 127.805 21.7894 128.468 21.8343ZM216.137 2.62052H212.236L208.39 2.60938C207.805 2.60938 207.805 2.60938 207.805 3.16673V15.0886C207.805 15.3673 207.805 15.5066 207.874 15.5763C207.944 15.646 208.083 15.646 208.362 15.646H214.075H216.187C216.488 15.6515 216.622 15.5568 216.622 15.2335V13.5615C216.617 13.0988 216.611 13.0988 216.137 13.0988H212.514H211.127C210.814 13.1044 210.709 12.9651 210.709 12.6641C210.709 12.5171 210.707 12.3617 210.705 12.2065L210.705 12.2055V12.2046V12.2037V12.2028V12.2021V12.2013V12.2006V12.2C210.701 11.8867 210.697 11.5751 210.709 11.3376C210.714 11.2306 210.704 11.1137 210.694 10.9966C210.67 10.7232 210.647 10.4492 210.814 10.3009C210.986 10.149 211.25 10.1777 211.511 10.2061C211.614 10.2173 211.716 10.2285 211.812 10.2285H214.95C215.234 10.2285 215.396 10.1783 215.396 9.83273V8.0882C215.396 7.82624 215.262 7.73149 215.022 7.73149H211.16C210.714 7.72592 210.714 7.71477 210.714 7.28561V5.71943L210.714 5.62815C210.713 5.34421 210.713 5.20224 210.784 5.13142C210.855 5.06061 210.997 5.06094 211.28 5.06161L211.372 5.06175H216.12C216.16 5.06175 216.196 5.06205 216.23 5.06232C216.405 5.06375 216.498 5.06451 216.548 5.01827C216.605 4.9653 216.605 4.85066 216.605 4.60472C216.605 4.4395 216.606 4.27067 216.607 4.10158V4.10085V4.10014V4.09943V4.09874V4.09806V4.09739V4.09673V4.09609C216.608 3.75362 216.609 3.41031 216.605 3.09428C216.6 2.62052 216.594 2.62052 216.137 2.62052ZM266.58 9.11098V3.50396V3.14168C266.58 2.64005 266.58 2.62891 267.076 2.62891H268.949H275.08C275.309 2.62891 275.403 2.7348 275.403 2.95775V4.62982C275.403 5.04784 275.403 5.05341 274.946 5.05899H271.346H269.897C269.618 5.05899 269.495 5.14816 269.501 5.43799V7.2494C269.501 7.71201 269.501 7.72316 269.975 7.72873H273.597C273.876 7.72873 274.015 7.72873 274.085 7.7984C274.155 7.86807 274.155 8.00741 274.155 8.28609V9.67391C274.155 9.95834 274.155 10.0976 274.085 10.1658C274.018 10.2313 273.887 10.2313 273.631 10.2313H270.069C269.479 10.2313 269.473 10.2313 269.473 10.8276V12.5777C269.473 13.0738 269.473 13.0961 269.98 13.1017H272.271H274.93C275.37 13.1017 275.381 13.1017 275.387 13.5308V15.2029C275.387 15.6265 275.387 15.6376 274.941 15.6376H270.956H267.216C266.878 15.6376 266.71 15.6376 266.628 15.5541C266.547 15.4723 266.547 15.3107 266.547 14.9911L266.58 9.11098ZM186.853 13.0092H188.358L189.801 12.9981C190.437 12.9981 190.437 12.9981 190.61 13.6279L190.683 13.8896C190.806 14.3312 190.934 14.7889 191.05 15.1885C191.189 15.6678 191.195 15.6678 191.708 15.6678H193.38C193.492 15.6666 193.591 15.667 193.677 15.6673C193.988 15.6685 194.145 15.6691 194.201 15.5942C194.258 15.5176 194.211 15.3619 194.114 15.0471C194.089 14.9674 194.062 14.8775 194.032 14.7761C193.244 12.1193 192.454 9.46631 191.663 6.817C191.449 6.04138 191.218 5.26784 190.987 4.49385L190.986 4.49209C190.839 3.99855 190.691 3.50482 190.548 3.01025C190.533 2.89075 190.471 2.78214 190.376 2.70804C190.281 2.63393 190.161 2.60032 190.041 2.61452H187.388C187.289 2.59818 187.188 2.62108 187.106 2.67833C187.023 2.73559 186.967 2.82268 186.948 2.92107C186.928 2.98795 186.906 3.05484 186.884 3.12172L186.883 3.12226C186.861 3.18896 186.839 3.25567 186.82 3.32237L184.395 11.3539L184.173 12.085L184.173 12.0872C183.857 13.1287 183.542 14.1679 183.23 15.2108C183.102 15.6288 183.135 15.6846 183.553 15.6846H185.226C185.284 15.694 185.345 15.6912 185.402 15.6764C185.46 15.6616 185.514 15.635 185.561 15.5984C185.608 15.5619 185.647 15.516 185.676 15.4637C185.704 15.4114 185.722 15.3538 185.727 15.2944C185.8 15.0154 185.884 14.7386 185.969 14.4615L185.969 14.4612C186.071 14.1241 186.174 13.7865 186.257 13.444C186.264 13.3747 186.285 13.3078 186.32 13.2474C186.355 13.187 186.402 13.1347 186.458 13.0937C186.514 13.0526 186.578 13.0239 186.646 13.0094C186.715 12.9949 186.785 12.9948 186.853 13.0092ZM138 28.6444C137.941 29.5071 138.025 30.3735 138.251 31.2083C138.319 31.4966 138.447 31.7673 138.627 32.0026C138.807 32.2379 139.035 32.4325 139.295 32.5735C139.556 32.7146 139.843 32.799 140.139 32.8211C140.434 32.8432 140.731 32.8027 141.009 32.702C141.259 32.6101 141.487 32.4676 141.679 32.2835C141.871 32.0993 142.022 31.8775 142.124 31.6319C142.283 31.3193 142.396 30.985 142.459 30.6398C142.498 30.428 142.57 30.3221 142.815 30.3444C143.415 30.394 144.015 30.429 144.618 30.4642L144.618 30.4642C144.76 30.4725 144.902 30.4808 145.045 30.4893C145.223 30.4893 145.362 30.5283 145.329 30.768C145 32.964 143.819 34.5803 141.695 35.0986C138.875 35.7898 136.244 34.5413 135.235 31.6709C134.526 29.6888 134.526 27.522 135.235 25.54C135.445 24.8222 135.808 24.1586 136.3 23.5955C136.791 23.0324 137.4 22.5833 138.083 22.2794C138.814 21.9606 139.604 21.8003 140.402 21.8089C141.199 21.8176 141.986 21.995 142.709 22.3296C143.519 22.7096 144.177 23.3518 144.577 24.1521C144.951 24.9096 145.199 25.7228 145.312 26.5599C145.346 26.7884 145.312 26.8999 145.056 26.9111C144.231 26.9557 143.412 27.0058 142.587 27.0727C142.364 27.0727 142.319 26.9779 142.286 26.7996C142.253 26.4405 142.191 26.0845 142.102 25.735C142.013 25.3585 141.804 25.0211 141.506 24.7737C141.209 24.5264 140.839 24.3826 140.452 24.3639C140.039 24.3018 139.618 24.3822 139.257 24.592C138.896 24.8017 138.618 25.1283 138.468 25.5177C138.184 26.162 138.023 26.854 137.994 27.5576C137.987 27.784 137.991 28.0104 137.995 28.2368C137.997 28.3727 138 28.5086 138 28.6444ZM223.37 5.20555C222.721 6.43937 222.422 7.82711 222.506 9.21852C222.458 10.2836 222.627 11.3473 223.002 12.3453C223.239 13.0318 223.615 13.6619 224.107 14.1961C224.599 14.7303 225.196 15.1571 225.861 15.4498C226.776 15.8269 227.774 15.9539 228.754 15.8176C231.134 15.539 232.667 13.8557 233.029 11.5037C233.068 11.2529 233.023 11.108 232.706 11.069C232.27 11.0154 231.834 10.9984 231.396 10.9814C231.152 10.9719 230.906 10.9623 230.66 10.9463C230.601 10.934 230.541 10.9348 230.483 10.9486C230.424 10.9624 230.37 10.9888 230.323 11.0261C230.276 11.0634 230.238 11.1105 230.212 11.1641C230.185 11.2178 230.171 11.2766 230.17 11.3365C230.096 11.7113 229.961 12.0711 229.768 12.401C229.574 12.7464 229.279 13.0237 228.922 13.1952C228.565 13.3667 228.164 13.4241 227.773 13.3597C227.313 13.3039 226.884 13.0977 226.554 12.7732C226.223 12.4486 226.009 12.0238 225.945 11.565C225.623 10.1098 225.598 8.60453 225.872 7.13958C225.958 6.66447 226.126 6.20798 226.368 5.79077C226.549 5.47272 226.82 5.21641 227.149 5.05533C227.477 4.89425 227.846 4.83588 228.208 4.88785C228.531 4.89906 228.845 5.00405 229.11 5.19007C229.375 5.37609 229.581 5.63512 229.701 5.93569C229.899 6.35441 230.005 6.81038 230.014 7.27335C230.019 7.51858 230.103 7.59661 230.381 7.59661C230.7 7.56617 231.02 7.55639 231.341 7.5466C231.784 7.53309 232.227 7.51956 232.667 7.4517L232.689 7.44795C233.031 7.39022 233.078 7.38228 233.029 7.00024C232.976 6.60223 232.892 6.20899 232.778 5.82421C232.493 4.66362 231.762 3.66219 230.744 3.03743C230.197 2.74238 229.599 2.55328 228.982 2.48007C226.552 2.14565 224.574 3.00398 223.37 5.20555ZM259.25 10.404V5.88388L259.25 5.77778V5.77767C259.251 5.47031 259.252 5.32009 259.177 5.24725C259.105 5.17761 258.965 5.17868 258.69 5.18078C258.639 5.18117 258.582 5.18161 258.52 5.18161H256.586C256.313 5.18161 256.185 5.09243 256.196 4.8026V3.0525C256.196 2.64005 256.196 2.62891 256.653 2.62891H261.234H264.796C265.264 2.62891 265.27 2.62891 265.281 3.09151V4.719C265.281 5.17046 265.281 5.17603 264.79 5.18161H262.801C262.522 5.18161 262.383 5.18161 262.313 5.25128C262.243 5.32094 262.243 5.46028 262.243 5.73896V14.7849V15.2029C262.243 15.6432 262.243 15.6544 261.814 15.6599H259.763C259.267 15.6599 259.261 15.6599 259.261 15.1583C259.254 13.5791 259.25 11.9944 259.25 10.404ZM164.798 5.74262V10.3854L164.797 11.0731V11.074C164.797 12.4512 164.796 13.8324 164.82 15.2177C164.82 15.6692 164.831 15.6692 165.249 15.6692H167.361C167.651 15.6747 167.74 15.5577 167.74 15.279V14.8554V5.74262C167.74 5.46394 167.74 5.3246 167.81 5.25493C167.88 5.18526 168.019 5.18526 168.298 5.18526H170.471C170.706 5.18526 170.85 5.12953 170.85 4.85642V2.92239C170.857 2.88281 170.855 2.84216 170.842 2.80387C170.83 2.76558 170.809 2.73077 170.781 2.70237C170.752 2.67396 170.717 2.6528 170.679 2.64065C170.641 2.6285 170.6 2.62573 170.561 2.63256H162.646C162.579 2.63256 162.519 2.6338 162.458 2.63504C162.337 2.63752 162.215 2.63999 162.044 2.63256C161.788 2.62142 161.688 2.73846 161.688 2.98927V4.73938C161.693 5.18526 161.704 5.18526 162.128 5.18526H164.24C164.519 5.18526 164.658 5.18526 164.728 5.25493C164.798 5.3246 164.798 5.46394 164.798 5.74262ZM136.808 9.17253V3.26453C136.808 2.94208 136.808 2.78327 136.888 2.70432C136.965 2.62771 137.117 2.62632 137.416 2.62357C137.821 2.61986 138.258 2.62109 138.695 2.62233C138.915 2.62295 139.134 2.62357 139.35 2.62357C139.634 2.62357 139.734 2.73504 139.729 3.01372V5.0648V12.4777C139.729 13.1075 139.729 13.1075 140.37 13.113H144.165C144.667 13.113 144.673 13.113 144.678 13.6147C144.682 13.9487 144.681 14.3 144.679 14.6522V14.6528C144.679 14.8293 144.678 15.006 144.678 15.1808C144.678 15.4372 144.678 15.5588 144.617 15.6168C144.563 15.669 144.458 15.6696 144.26 15.6706H144.26C144.229 15.6708 144.196 15.6709 144.16 15.6713H137.828H137.104C137.063 15.6781 137.022 15.6752 136.983 15.6627C136.944 15.6503 136.909 15.6287 136.88 15.5998C136.851 15.5709 136.829 15.5355 136.817 15.4965C136.804 15.4576 136.801 15.4162 136.808 15.3759V14.9579V9.17253ZM127.482 5.30223V6.55628C127.482 6.69769 127.48 6.8335 127.479 6.96912V6.96939C127.477 7.23993 127.474 7.5097 127.482 7.82149C127.493 8.28967 127.498 8.28967 127.972 8.28967C128.355 8.29879 128.738 8.27806 129.121 8.25733C129.44 8.24006 129.76 8.22278 130.079 8.22278C130.48 8.16477 130.846 7.9633 131.109 7.65579C131.372 7.34827 131.515 6.95561 131.511 6.55071C131.54 6.15464 131.411 5.76317 131.152 5.46223C130.893 5.16128 130.525 4.97545 130.129 4.94552H127.838C127.582 4.93995 127.482 5.04585 127.482 5.30223ZM174.963 6.57299V5.30779C174.963 5.05697 175.053 4.93993 175.315 4.9455H177.661C177.857 4.95894 178.048 5.01085 178.224 5.09825C178.4 5.18566 178.556 5.30684 178.685 5.45489C178.814 5.60293 178.913 5.77492 178.975 5.96104C179.037 6.14715 179.062 6.34373 179.049 6.53955C179.074 6.94703 178.941 7.3485 178.677 7.66008C178.413 7.97167 178.039 8.16927 177.633 8.21162C176.915 8.28409 176.192 8.31201 175.471 8.29522C174.997 8.29522 174.975 8.26178 174.963 7.77131C174.96 7.5077 174.961 7.24161 174.962 6.9747C174.963 6.84093 174.963 6.70696 174.963 6.57299ZM280.119 5.30779V6.63431C280.119 6.73581 280.118 6.83411 280.118 6.93118V6.93192V6.93264V6.93334V6.93403V6.9347V6.93535C280.117 7.22056 280.116 7.49542 280.124 7.81033C280.135 8.23392 280.158 8.27294 280.57 8.27294C281.292 8.29159 282.014 8.26553 282.733 8.19491C283.138 8.1573 283.514 7.96936 283.787 7.66813C284.061 7.3669 284.211 6.97421 284.21 6.56742C284.231 6.16057 284.091 5.76178 283.819 5.45797C283.548 5.15416 283.167 4.96996 282.76 4.94551H280.47C280.213 4.93994 280.119 5.05141 280.119 5.30779ZM149.006 9.11448V5.68673C149.006 5.04019 149.006 5.04019 149.675 5.04019H150.338C150.874 5.00607 151.407 5.14608 151.857 5.43936C152.307 5.73265 152.65 6.16349 152.835 6.66768C153.172 7.39821 153.352 8.19104 153.365 8.99535C153.377 9.79966 153.222 10.5977 152.908 11.3383C152.715 11.9162 152.338 12.4149 151.834 12.7582C151.331 13.1014 150.729 13.2703 150.121 13.2389C150.007 13.2389 149.905 13.2397 149.813 13.2404H149.813H149.813H149.813C149.357 13.2438 149.149 13.2453 149.058 13.1432C148.983 13.0582 148.988 12.9013 148.998 12.6136V12.6136V12.6135V12.6134V12.6133C149.001 12.4944 149.006 12.3532 149.006 12.1855C148.999 11.5014 149.001 10.8173 149.004 10.1349V10.1336V10.1324V10.1312V10.1299V10.1287C149.005 9.79016 149.006 9.45201 149.006 9.11448ZM200.549 5.10147C200.23 5.05289 199.907 5.02682 199.585 5.02344L199.629 5.04016H199.072C198.802 5.0459 198.671 5.04868 198.608 5.11549C198.548 5.17842 198.548 5.29814 198.548 5.53063V5.89292V12.1688C198.549 12.3576 198.543 12.5133 198.538 12.6416C198.527 12.9068 198.521 13.0548 198.592 13.1368C198.681 13.2403 198.892 13.2386 199.37 13.235C199.47 13.2342 199.582 13.2333 199.707 13.2333C200.203 13.2639 200.698 13.1529 201.133 12.913C201.568 12.6732 201.926 12.3146 202.165 11.8789C202.647 11.0363 202.901 10.0824 202.901 9.11166C202.901 8.14092 202.647 7.18701 202.165 6.34438C202.009 6.02748 201.781 5.75067 201.501 5.53521C201.221 5.31975 200.895 5.17137 200.549 5.10147ZM153.961 28.5933C154.025 29.4141 153.948 30.2398 153.733 31.0345C153.642 31.3644 153.505 31.6797 153.326 31.9709C153.158 32.2285 152.928 32.4401 152.657 32.5865C152.387 32.733 152.084 32.8097 151.776 32.8097C151.469 32.8097 151.166 32.733 150.895 32.5865C150.625 32.4401 150.395 32.2285 150.227 31.9709C149.995 31.6177 149.831 31.2246 149.742 30.8116C149.419 29.3428 149.419 27.8215 149.742 26.3527C149.841 25.8809 150.04 25.4359 150.327 25.0485C150.518 24.8156 150.763 24.6322 151.04 24.5139C151.316 24.3956 151.618 24.3458 151.918 24.3687C152.218 24.3917 152.509 24.4868 152.765 24.6459C153.02 24.8049 153.234 25.0233 153.387 25.2826C153.717 25.9269 153.906 26.6333 153.945 27.3559C153.977 27.637 153.971 27.9354 153.966 28.2387V28.2388V28.2388V28.2388V28.2391C153.963 28.3567 153.961 28.475 153.961 28.5933ZM115.324 26.1054C115.107 26.8997 115.024 27.7249 115.079 28.5467C115.079 28.6547 115.077 28.7631 115.076 28.8718L115.076 28.872C115.071 29.1446 115.066 29.4183 115.09 29.6893C115.115 30.4557 115.323 31.2051 115.698 31.8741C115.861 32.1648 116.101 32.4058 116.39 32.5717C116.68 32.7376 117.008 32.8221 117.342 32.8164C117.675 32.8107 118.001 32.7149 118.285 32.5392C118.568 32.3635 118.799 32.1145 118.953 31.8184C119.12 31.5203 119.242 31.1991 119.315 30.8653C119.564 29.7255 119.628 28.5531 119.505 27.3929C119.453 26.6707 119.264 25.9651 118.947 25.314C118.791 25.0331 118.565 24.7971 118.291 24.6282C118.017 24.4594 117.705 24.3634 117.384 24.3494C117.062 24.3355 116.743 24.404 116.456 24.5484C116.168 24.6929 115.923 24.9085 115.742 25.1747C115.567 25.4675 115.427 25.7799 115.324 26.1054ZM119.54 9.21063C119.578 9.99421 119.501 10.7792 119.311 11.5404C119.238 11.8309 119.125 12.1103 118.977 12.3708C118.825 12.6747 118.593 12.931 118.305 13.1116C118.018 13.2923 117.686 13.3902 117.346 13.3948C117.007 13.3995 116.672 13.3105 116.38 13.1378C116.087 12.965 115.848 12.7151 115.688 12.4154C115.312 11.7019 115.109 10.9092 115.098 10.1024C115.017 9.18216 115.05 8.25541 115.198 7.34348C115.286 6.72477 115.517 6.13508 115.872 5.62124C116.049 5.39558 116.275 5.21392 116.533 5.09058C116.792 4.96723 117.076 4.90556 117.362 4.91042C117.648 4.91529 117.93 4.98655 118.184 5.1186C118.438 5.25065 118.658 5.43988 118.826 5.67141C119.283 6.43277 119.528 7.30273 119.534 8.19066C119.557 8.42352 119.551 8.67529 119.545 8.91211V8.91218V8.91221C119.542 9.01546 119.54 9.11587 119.54 9.21063ZM188.791 7.26315C188.724 6.87222 188.592 6.49532 188.4 6.14844C187.971 7.59757 187.57 8.97424 187.185 10.3565C187.118 10.6073 187.314 10.6073 187.481 10.6073H189.287C189.71 10.6017 189.738 10.5627 189.621 10.1447C189.348 9.18046 189.075 8.22181 188.791 7.26315Z" fill="#FEFEFE"/>
<path d="M12.3022 15.0456C12.252 14.6945 12.0012 14.3601 12.0792 13.9867C12.094 13.9723 12.112 13.9617 12.1317 13.9558C12.1514 13.9498 12.1723 13.9487 12.1925 13.9525C12.2127 13.9564 12.2317 13.965 12.2479 13.9777C12.2641 13.9905 12.277 14.0069 12.2855 14.0257C12.5809 14.583 13.0546 15.0233 13.0379 15.6977C13.0396 15.8006 13.0733 15.9003 13.1342 15.9832C13.1951 16.0661 13.2803 16.128 13.3779 16.1603C14.0579 16.4446 14.6821 16.9016 15.4736 16.8459C15.5739 16.8459 15.6909 16.8459 15.7522 16.9184C16.0043 17.208 16.3568 17.3913 16.7388 17.4311C16.8633 17.4566 16.9795 17.5128 17.0768 17.5945C17.1741 17.6763 17.2495 17.781 17.2961 17.8993C17.448 18.2568 17.7256 18.5463 18.0764 18.713C18.7675 19.0753 18.4944 19.1032 19.0852 18.6517C19.2096 18.7792 19.3041 18.9327 19.362 19.1011C19.4199 19.2696 19.4397 19.4487 19.42 19.6257C19.4002 19.8027 19.3415 19.9732 19.2479 20.1247C19.1544 20.2763 19.0284 20.4052 18.879 20.5022C18.7174 20.6192 18.5669 20.7251 18.6059 20.9146C18.6839 21.2657 18.7843 21.5946 18.4554 21.8844C18.3718 21.9624 18.4554 22.1129 18.5502 22.2077C19.0146 22.7369 19.3504 23.3664 19.5311 24.047C19.5754 24.1818 19.6663 24.2964 19.7875 24.3702C19.899 24.4538 20.0216 24.5207 20.1331 24.6099C20.9189 25.2509 21.036 25.5017 20.6904 26.4157C20.5783 26.9105 20.4254 27.3952 20.2334 27.8649C20.1809 27.9741 20.1579 28.0951 20.1665 28.216C20.1724 28.5623 20.0604 28.9004 19.8488 29.1747C19.499 29.7387 19.2835 30.3756 19.219 31.0362C19.164 31.3084 19.0702 31.5711 18.9403 31.8165C18.6472 32.3221 18.5205 32.907 18.578 33.4886C18.5974 33.6587 18.6584 33.8215 18.7556 33.9624C18.8528 34.1034 18.9833 34.2182 19.1354 34.2968C19.2058 34.3552 19.296 34.3843 19.3873 34.378C19.4786 34.3718 19.564 34.3307 19.6259 34.2633C19.7931 34.0905 19.7429 33.9401 19.5701 33.8119C19.3974 33.6837 19.4531 33.522 19.5311 33.3381C19.6616 33.0619 19.852 32.8182 20.0885 32.6247C20.1888 32.5299 20.3616 32.4073 20.2947 32.2847C20.1052 31.9559 20.3449 31.8444 20.5288 31.666C20.6874 31.5019 20.819 31.3138 20.9189 31.1087C21.0465 30.8675 21.2281 30.659 21.4495 30.4995C21.6709 30.34 21.9261 30.2337 22.1953 30.189C22.7081 30.0776 22.7527 30.0051 22.8084 29.4756C22.8084 29.2806 22.8808 29.1691 23.0982 29.2081C23.2488 29.2229 23.4006 29.1971 23.5378 29.1334C23.675 29.0697 23.7926 28.9704 23.8785 28.8458C24.2357 28.4472 24.6399 28.0935 25.0824 27.7924C25.1269 27.7695 25.1659 27.7372 25.1967 27.6978C25.2275 27.6583 25.2494 27.6126 25.2608 27.5639C25.3499 26.739 26.0132 26.5439 26.6374 26.4492C26.8228 26.4344 27.0021 26.3762 27.1609 26.2794C27.3196 26.1826 27.4534 26.0498 27.5515 25.8918C27.7856 25.5351 28.0197 25.184 28.2649 24.8384C28.3193 24.7797 28.3603 24.71 28.3853 24.634C28.4103 24.5581 28.4187 24.4776 28.4098 24.3981C28.3893 24.2478 28.4158 24.0948 28.4857 23.9601C28.5555 23.8254 28.6653 23.7155 28.8 23.6457C28.9616 23.5286 29.1233 23.406 29.2737 23.2778C29.4152 23.1476 29.5216 22.9839 29.583 22.8017C29.6443 22.6195 29.6588 22.4248 29.6249 22.2355C29.6249 22.1352 29.6249 22.0238 29.48 22.0015C29.1883 21.9168 28.9258 21.7528 28.722 21.5277C28.6727 21.4773 28.6137 21.4375 28.5485 21.4106C28.4834 21.3838 28.4134 21.3705 28.343 21.3716C27.9405 21.3909 27.5447 21.2642 27.2282 21.0149C26.8952 20.809 26.5027 20.7207 26.1135 20.7641C26.1587 20.6303 26.1759 20.4887 26.164 20.3479C26.1522 20.2072 26.1115 20.0704 26.0446 19.9461C25.9777 19.8217 25.886 19.7124 25.7752 19.6249C25.6643 19.5375 25.5366 19.4737 25.4001 19.4376C25.2547 19.3684 25.1011 19.3178 24.9431 19.2871C24.2651 19.1325 23.6551 18.763 23.2041 18.2337C23.0202 18.0665 22.8697 17.9383 22.5799 18.1167C22.4232 18.18 22.2522 18.1994 22.0852 18.1729C21.9183 18.1464 21.7618 18.0749 21.6324 17.9662C21.3932 17.8443 21.127 17.7855 20.8588 17.7952C20.5906 17.805 20.3293 17.883 20.0996 18.0219C19.977 18.0777 19.9547 18.2058 19.8878 18.3062C19.676 18.635 19.6203 18.6629 19.3305 18.4176C19.2965 18.3767 19.2539 18.3438 19.2057 18.3212C19.1576 18.2986 19.105 18.2869 19.0518 18.2869C18.9986 18.2869 18.946 18.2986 18.8979 18.3212C18.8497 18.3438 18.8071 18.3767 18.7731 18.4176C18.4554 18.6517 18.1266 18.4734 18.0987 18.0777C18.0997 17.8373 18.1146 17.5973 18.1433 17.3587C18.1433 16.9797 18.0876 16.9016 17.7141 16.8459C16.9338 16.7344 16.9338 16.7344 17.1902 16.0099C17.2647 15.884 17.2867 15.7338 17.2515 15.5918C17.0676 15.4692 16.867 15.5918 16.6942 15.5918C16.6446 15.5908 16.5958 15.6039 16.5533 15.6296C16.5109 15.6552 16.4766 15.6924 16.4545 15.7368C16.187 16.1771 15.9585 16.2941 15.624 16.2049C15.4222 16.1384 15.2459 16.0111 15.1192 15.8405C14.9925 15.6699 14.9216 15.4643 14.9162 15.2519C14.9511 14.8314 15.0258 14.4153 15.1391 14.0089C15.2295 13.8217 15.3787 13.6692 15.5638 13.5746C15.749 13.48 15.96 13.4485 16.1647 13.485C16.3063 13.5669 16.4686 13.6058 16.632 13.5969C16.7953 13.588 16.9525 13.5317 17.0843 13.4349C17.4355 13.1729 17.9538 13.4627 18.1266 13.8863C18.2457 14.1756 18.4377 14.429 18.6839 14.622C18.7785 14.5043 18.83 14.3578 18.83 14.2068C18.83 14.0558 18.7785 13.9093 18.6839 13.7916C18.3607 13.2844 18.3774 12.9834 18.7843 12.5877C18.8706 12.5022 18.9638 12.4239 19.0629 12.3536C19.1982 12.2923 19.3063 12.1837 19.3669 12.0481C19.4275 11.9126 19.4363 11.7595 19.3918 11.6179C19.3082 11.2723 19.5869 10.9435 19.8432 10.6815C19.9882 10.531 20.1777 10.4586 20.1164 10.1576C20.055 9.85663 20.3839 9.81762 20.5845 9.99597C20.7852 10.1743 20.9747 10.1465 21.1419 9.92909C21.2867 9.72992 21.4781 9.5692 21.6992 9.46091C21.5068 9.40706 21.3114 9.36426 21.114 9.33271C21.0237 9.32741 20.938 9.29133 20.871 9.23048C20.8041 9.16963 20.76 9.08769 20.7462 8.9983C20.6849 8.79208 20.8186 8.73634 20.9747 8.65274C21.1307 8.56913 21.2422 8.34619 21.532 8.39078C21.4986 8.94814 22.0169 9.07633 22.3625 9.34943C22.4016 9.38208 22.4509 9.39997 22.5018 9.39997C22.5528 9.39997 22.6021 9.38208 22.6412 9.34943C22.7471 9.2714 22.7025 9.17108 22.6412 9.07633C22.5799 8.98158 22.4907 8.73634 22.2789 8.71405C21.9556 8.6806 21.8553 8.47438 21.7884 8.1957C21.752 8.0424 21.6835 7.89855 21.5874 7.77366C21.4914 7.64877 21.3699 7.54566 21.2311 7.47114C20.7144 7.10213 20.2624 6.65014 19.8934 6.13348C19.6928 6.10004 19.6928 6.2561 19.6203 6.3397C19.5478 6.42331 19.2915 6.49576 19.297 6.27282C19.3026 6.04988 19.1688 5.96627 19.0072 5.88267C18.8456 5.79907 18.8456 5.7489 18.9013 5.63743C18.957 5.52596 19.0351 5.59284 19.1131 5.59842C19.5423 5.59842 19.5757 5.59842 19.4921 5.20827C19.4921 5.13024 19.4085 5.02434 19.4364 4.9909C19.7764 4.54501 19.3695 4.43354 19.1131 4.29977C18.899 4.19629 18.7304 4.01778 18.6394 3.79815C18.2686 3.32933 17.7828 2.96449 17.2292 2.73917C17.2292 2.56082 17.4968 2.44934 17.3686 2.21525C17.2404 1.98116 17.4745 1.6579 17.441 1.39594C17.441 1.31791 17.5302 1.26775 17.6194 1.28447C17.6386 1.28564 17.6574 1.29096 17.6743 1.30005C17.6913 1.30914 17.7062 1.32179 17.7178 1.33714C17.7294 1.35248 17.7376 1.37017 17.7418 1.38897C17.746 1.40778 17.7461 1.42727 17.742 1.4461C17.6807 1.88084 17.9036 2.08149 18.2994 2.21525C18.9348 2.43262 19.2023 3.04014 19.5924 3.51947C19.5924 3.55291 19.5924 3.60865 19.6259 3.63652C19.8765 3.86386 20.0678 4.14893 20.1832 4.46698C20.3481 4.78837 20.5625 5.0818 20.8186 5.33646C21.1295 5.67672 21.5096 5.94657 21.9333 6.12791C22.1228 6.22266 22.2399 6.09446 22.1786 5.88824C22.13 5.65173 22.0494 5.42296 21.9389 5.20827C21.6825 4.80139 21.9724 4.48927 22.1005 4.17715C22.2287 3.86503 22.4071 3.89847 22.6579 4.13256C23.7225 5.14138 24.7647 6.17249 25.7624 7.25377C27.5198 9.10825 29.0967 11.1257 30.4721 13.2788C31.0297 14.188 31.5251 15.1339 31.9546 16.1102C32.9222 18.3427 33.0915 20.8404 32.434 23.1831C31.7132 25.9137 30.4425 28.4684 28.6997 30.6907C26.4893 33.646 23.7832 36.1956 20.7016 38.2261C19.9448 38.7325 19.1511 39.1815 18.3272 39.5694C17.3013 40.0619 16.1239 40.1359 15.0444 39.7756C13.7954 39.3796 12.6135 38.7971 11.5386 38.0478C7.93658 35.5415 4.92697 32.277 2.72121 28.4835C1.66067 26.729 0.857323 24.8313 0.335715 22.8486C-0.282912 20.5535 -0.0410734 18.1113 1.01569 15.982C1.95704 14.0496 3.12856 12.238 4.50475 10.5868C5.48013 9.38288 6.53354 8.24587 7.60366 7.12558C7.79874 6.92493 7.96595 6.69084 8.31708 6.78559C8.48429 6.83575 8.61805 6.71313 8.71838 6.57937C9.16427 5.98857 9.83309 6.21708 10.3905 6.18922C10.5577 6.18922 10.658 6.37314 10.6524 6.54592C10.6957 6.88496 10.6476 7.2294 10.5131 7.54359C10.3905 7.73867 10.3682 7.88358 10.6859 7.86129C11.0035 7.83899 10.959 8.0062 10.8586 8.17898C10.788 8.26444 10.7537 8.37417 10.7631 8.48462C10.7725 8.59508 10.8248 8.69745 10.9088 8.76978C11.0314 8.88125 10.9367 9.03731 10.9088 9.16551C10.775 9.52222 10.6413 9.87892 10.4796 10.2245C10.3211 10.4943 10.2334 10.7998 10.2246 11.1126C10.2159 11.4254 10.2863 11.7353 10.4295 12.0136C10.4857 12.1416 10.5124 12.2807 10.5075 12.4205C10.5075 12.5208 10.5409 12.6601 10.6691 12.61C11.0258 12.4706 11.0258 12.727 11.0704 12.9388C11.2738 13.6304 11.5641 14.2934 11.9343 14.9119C11.9464 14.9475 11.9663 14.9799 11.9926 15.0067C12.0189 15.0336 12.0508 15.0542 12.0862 15.067C12.1215 15.0799 12.1592 15.0846 12.1966 15.0809C12.234 15.0772 12.2701 15.0652 12.3022 15.0456Z" fill="white"/>
<path d="M67.3802 13.402C67.6087 13.1902 67.787 13.2292 67.9375 13.4912C68.102 13.7923 68.1515 14.1429 68.0769 14.4777C68.7234 14.4164 68.8739 14.199 68.7123 13.6417C68.6621 13.4801 68.4837 13.3128 68.651 13.1401C68.8182 12.9673 68.9185 12.5493 69.2752 12.5325C69.6319 12.5158 69.7657 12.2817 69.9273 12.0644C70.2168 11.7091 70.4089 11.2846 70.4847 10.8326C70.6909 10.8772 70.6965 11.0165 70.7578 11.1169C70.9131 11.3474 70.9767 11.6277 70.9361 11.9027C70.8971 12.4099 70.7968 12.9171 70.7076 13.4187C70.6184 13.9204 70.1112 14.1322 69.6709 14.344C69.4368 14.4554 69.1136 14.4889 69.069 14.9292C69.5929 14.684 70.0722 14.5056 70.5348 14.2938C70.9974 14.082 70.8581 13.6807 70.8804 13.3351C70.9027 12.9896 70.8804 12.722 71.1702 12.4712C71.46 12.2204 71.0197 12.148 70.964 11.9696C70.964 11.6854 70.8469 11.4123 70.964 11.1169C71.081 10.9385 71.1758 10.7713 70.9974 10.5595C70.9072 10.4503 70.8528 10.3161 70.8414 10.1749C70.8414 9.84051 70.7522 9.67888 70.284 9.6956C69.8158 9.71232 69.7266 9.41134 69.9942 8.98218C70.1341 8.7852 70.3342 8.63901 70.5644 8.56563C70.7946 8.49224 71.0424 8.49564 71.2705 8.57531C71.5882 8.62547 71.7554 8.57531 71.9171 8.34122C71.9951 8.21303 72.101 8.02352 72.2905 8.13499C72.48 8.24647 72.4856 8.44154 72.3407 8.64219C72.2618 8.78269 72.2227 8.94204 72.2276 9.1031C72.2325 9.26416 72.2812 9.42083 72.3685 9.55626C72.5445 9.84531 72.6707 10.1618 72.742 10.4926C72.7865 10.5874 72.8367 10.5316 72.8813 10.4926C73.1042 9.9687 73.3885 9.45593 73.0875 8.85956C73.0039 8.69235 73.0875 8.50842 73.0875 8.33007C73.0881 8.30948 73.093 8.28924 73.102 8.27071C73.111 8.25218 73.1238 8.23577 73.1396 8.22258C73.1554 8.2094 73.1739 8.19974 73.1937 8.19425C73.2136 8.18875 73.2344 8.18755 73.2547 8.19073C73.8121 8.35794 73.8121 7.68911 74.1576 7.53305C74.2691 7.48846 74.1019 7.34912 74.0016 7.29338C73.9013 7.23765 73.7954 7.20421 73.8511 7.07601C73.9068 6.94782 74.035 6.96454 74.1521 6.99798C74.2691 7.03143 74.3527 7.13732 74.5255 7.09831C74.5436 7.03217 74.5473 6.96291 74.5363 6.89521C74.5254 6.82752 74.5 6.76296 74.462 6.70591C74.424 6.64885 74.3741 6.60062 74.3158 6.56447C74.2576 6.52832 74.1922 6.50509 74.1242 6.49636C73.6604 6.28015 73.1794 6.10303 72.6862 5.96687C72.3685 5.92228 72.0731 5.74393 71.7443 5.92228C71.735 5.92766 71.7244 5.9305 71.7136 5.9305C71.7029 5.9305 71.6923 5.92766 71.683 5.92228C71.3207 5.48197 70.6742 5.69934 70.2896 5.33706C70.1326 5.20949 69.9343 5.14404 69.7322 5.15313C69.6709 5.08625 69.6263 5.11969 69.5873 5.181C69.1581 5.54885 69.03 5.54885 68.7178 5.13084C68.6846 5.07037 68.6337 5.02145 68.572 4.99059C68.5103 4.95973 68.4406 4.94838 68.3723 4.95805C68.2719 4.95805 68.1716 5.00822 68.0769 5.01379C67.748 5.01379 67.6143 4.89117 67.7034 4.58462C67.7926 4.27808 67.7592 4.15546 67.4582 4.02727C67.1572 3.89907 67.3746 3.72629 67.4248 3.55909C67.4441 3.51521 67.4523 3.46722 67.4486 3.4194C67.4448 3.37159 67.4293 3.32545 67.4033 3.28513C67.3774 3.2448 67.3418 3.21155 67.2998 3.18836C67.2578 3.16516 67.2108 3.15274 67.1628 3.15221C67.1187 3.1432 67.0729 3.14653 67.0305 3.16182C66.9881 3.17712 66.9508 3.20379 66.9226 3.23892C66.8943 3.27404 66.8764 3.31626 66.8706 3.36094C66.8648 3.40563 66.8714 3.45104 66.8897 3.4922C66.9231 3.58138 66.99 3.66498 67.029 3.75416C67.0513 3.7938 67.0648 3.83775 67.0686 3.88305C67.0724 3.92834 67.0664 3.97393 67.0511 4.01672C67.0358 4.05951 67.0114 4.09852 66.9798 4.13111C66.9481 4.1637 66.9098 4.18911 66.8674 4.20562C66.2432 4.51774 65.6245 4.83544 65.0281 5.20329C64.9772 5.23688 64.9158 5.25075 64.8553 5.24231C64.4317 5.08625 64.1363 5.34263 63.8242 5.56C63.696 5.58787 63.6459 5.56 63.6682 5.40951C64.0439 4.99842 64.504 4.67332 65.017 4.45643C65.1111 4.42754 65.1946 4.37128 65.2566 4.2948C65.2812 4.25217 65.2969 4.20499 65.3026 4.15612C65.3084 4.10724 65.3041 4.05771 65.2901 4.01055C65.2511 3.88793 65.134 3.93809 65.0393 3.96596C64.5319 4.15841 64.0607 4.43543 63.6459 4.78527L59.8001 7.77829C59.6719 7.77829 59.6162 7.77829 59.6385 7.61665C61.9789 4.97675 64.6287 2.62823 67.5307 0.62181C68.0369 0.231323 68.6582 0.0195313 69.2975 0.0195312C69.9368 0.0195312 70.5581 0.231323 71.0643 0.62181C72.6063 1.68353 74.0652 2.8611 75.4284 4.14431C78.2643 6.71935 80.7744 9.63184 82.9026 12.8168C83.7801 14.1417 84.5143 15.556 85.093 17.036C85.671 18.6087 85.8304 20.3046 85.5556 21.9575C85.0562 25.1923 83.751 28.2494 81.76 30.8473C79.4307 34.0482 76.4528 36.7222 73.0206 38.6949C72.3728 39.0593 71.6983 39.3741 71.003 39.6369C69.9649 40.0464 68.8174 40.0858 67.7536 39.7483C66.5177 39.3757 65.3479 38.8115 64.2868 38.0763C59.6467 35.0042 56.0505 30.5936 53.9757 25.4298C53.2169 23.6053 52.8486 21.6422 52.8944 19.6667C52.9472 18.7836 53.1197 17.9117 53.4072 17.075C53.4151 17.0259 53.433 16.9789 53.4598 16.937C53.4866 16.8951 53.5218 16.8592 53.5631 16.8315C53.6044 16.8038 53.651 16.7849 53.6999 16.776C53.7488 16.767 53.7991 16.7683 53.8475 16.7796C53.9478 16.7852 54.0482 16.7852 54.1485 16.7796C54.4105 16.7796 54.7059 16.6514 54.9176 16.7796C55.1294 16.9078 55.1462 17.2311 55.2019 17.4819C55.2576 17.7327 55.5698 17.8107 55.7983 17.8999C55.6495 18.9129 55.8312 19.9468 56.3166 20.8483C56.4894 20.8483 56.5619 20.7034 56.6064 20.5808C56.6692 20.3483 56.8038 20.1415 56.991 19.99C57.0355 19.9649 57.0715 19.9271 57.0943 19.8814C57.1171 19.8357 57.1258 19.7843 57.1192 19.7336C57.0691 19.2877 57.3812 19.0982 57.6766 18.8809C58.2339 18.4851 58.7523 18.0727 59.2929 17.6714C59.4078 17.571 59.5477 17.5035 59.6978 17.476C59.8479 17.4485 60.0026 17.4621 60.1457 17.5153C60.2809 17.6015 60.3934 17.7189 60.4739 17.8576C60.5544 17.9963 60.6005 18.1522 60.6083 18.3124C60.6083 18.5687 60.6083 18.8251 60.6083 19.0927C61.3105 18.8697 61.3551 18.9087 61.3496 19.65C61.358 19.711 61.358 19.7729 61.3496 19.8339C61.0486 20.8539 61.6115 21.5896 62.1689 22.3309C62.219 22.3699 62.2748 22.4034 62.2915 22.4702C62.3249 22.5037 62.3361 22.5316 62.3249 22.565C62.3138 22.5984 62.3249 22.6096 62.2915 22.6096C62.0351 22.8994 61.8623 22.6876 61.7341 22.4981C61.4992 22.1889 61.1827 21.9515 60.8201 21.8126C61.3521 22.434 61.8507 23.0833 62.3138 23.7577C62.598 24.1256 62.7987 24.2092 63.0328 23.7577C63.0581 23.7149 63.0939 23.6791 63.1368 23.6538C63.1797 23.6284 63.2282 23.6143 63.278 23.6128C63.3775 23.5949 63.4795 23.5949 63.579 23.6128C63.5065 23.5571 63.3839 23.6128 63.2836 23.5627C63.0371 23.5383 62.8065 23.4297 62.6308 23.255C62.4551 23.0803 62.3451 22.8504 62.3194 22.604C62.4102 22.5473 62.4766 22.4587 62.5055 22.3556C62.5344 22.2525 62.5236 22.1423 62.4754 22.0466C62.4754 21.8181 62.4754 21.5562 62.2636 21.4893C61.7063 21.2719 61.8512 20.7146 61.6505 20.3244C61.5669 20.1516 61.7509 20.0402 61.8735 19.9398C61.9274 19.8924 61.9967 19.8663 62.0686 19.8663C62.1404 19.8663 62.2097 19.8924 62.2636 19.9398C62.4304 20.0459 62.5684 20.1914 62.6656 20.3634C62.7628 20.5355 62.8162 20.7288 62.821 20.9264C63.0132 20.7177 63.2519 20.5574 63.5177 20.4582C63.6415 20.415 63.7533 20.3432 63.8443 20.2488C63.9352 20.1543 64.0027 20.0398 64.0412 19.9145C64.0797 19.7892 64.0882 19.6566 64.066 19.5274C64.0438 19.3981 63.9915 19.276 63.9134 19.1707C63.7685 18.931 63.5734 18.7136 63.4508 18.4628C63.4028 18.3843 63.3763 18.2945 63.3741 18.2025C63.3718 18.1105 63.3938 18.0195 63.4379 17.9387C63.4819 17.8579 63.5465 17.7901 63.6251 17.7422C63.7037 17.6943 63.7935 17.668 63.8855 17.6658C63.9347 17.6527 63.9865 17.653 64.0356 17.6667C64.0846 17.6804 64.129 17.7071 64.1642 17.7438C64.2478 17.833 64.2088 17.9278 64.1642 18.017C64.1196 18.1061 64.0695 18.1451 64.0305 18.212C64.0067 18.2565 63.9987 18.3077 64.0078 18.3573C64.0169 18.4069 64.0426 18.452 64.0806 18.4851C64.0968 18.504 64.1169 18.5191 64.1395 18.5295C64.1621 18.5399 64.1867 18.5452 64.2116 18.5452C64.2365 18.5452 64.261 18.5399 64.2836 18.5295C64.3063 18.5191 64.3264 18.504 64.3426 18.4851C64.4708 18.3625 64.6547 18.251 64.6045 18.0392C64.5265 17.6825 64.7439 17.6379 65.0058 17.6101C65.4141 17.5434 65.8011 17.3821 66.1359 17.1392C66.4708 16.8963 66.7442 16.5785 66.9343 16.2111C67.105 15.9987 67.2071 15.7394 67.227 15.4677C67.2469 15.1959 67.1837 14.9245 67.0458 14.6895C66.8228 14.2938 66.8507 14.2715 67.2074 14.0151C67.3244 13.9315 67.4415 13.8535 67.3969 13.6807C67.374 13.666 67.3549 13.6461 67.3411 13.6226C67.3274 13.5992 67.3193 13.5728 67.3177 13.5456C67.3161 13.5185 67.3209 13.4913 67.3317 13.4663C67.3426 13.4414 67.3592 13.4194 67.3802 13.402Z" fill="white"/>
<path d="M46.3841 3.89835C46.4226 3.94496 46.4562 3.99539 46.4844 4.04884C46.5346 4.17703 46.568 4.3108 46.6182 4.46128C46.3841 4.61734 46.0608 4.42227 45.8546 4.72324C45.8212 4.77898 45.5369 4.56718 45.3586 4.72324C45.0242 4.47243 44.5114 4.55046 44.2439 4.16588C44.0488 3.85934 43.8035 3.91507 43.5695 4.05441C43.3019 4.19687 43.0812 4.41366 42.9341 4.67865C42.7206 5.15565 42.4002 5.57711 41.9977 5.91041C41.5184 6.27827 41.4849 6.55695 41.7971 7.14217C41.8252 7.18111 41.8403 7.22792 41.8403 7.27594C41.8403 7.32397 41.8252 7.37077 41.7971 7.40971C41.8918 7.73297 41.8528 7.96706 41.4794 8.09526C41.3091 8.1512 41.1672 8.2711 41.0836 8.42967C41.0315 8.52522 40.9599 8.60879 40.8735 8.67503C40.7871 8.74126 40.6878 8.78868 40.582 8.81425C40.2643 8.36279 40.4873 7.80543 40.2476 7.23693C39.9385 7.65034 39.5616 8.0084 39.1329 8.29591C39.3837 8.45197 39.7627 8.24017 39.7961 8.68606C39.7961 8.86441 39.9912 8.72507 40.0915 8.74179C40.2755 8.77523 40.4817 8.78638 40.3033 9.05949C40.1863 9.13194 40.0637 9.20997 39.9411 9.27128C39.8184 9.33259 39.5899 9.27128 39.523 9.46636C39.4562 9.66143 39.6735 9.71717 39.7571 9.83979C39.7958 9.9185 39.8153 10.0052 39.8142 10.0929C39.813 10.1806 39.7912 10.2668 39.7505 10.3444C39.7097 10.4221 39.6513 10.489 39.5798 10.5398C39.5083 10.5906 39.4258 10.6239 39.3391 10.6368C39.0973 10.6414 38.8553 10.6321 38.6145 10.6089C38.4808 10.6089 38.3136 10.6089 38.2801 10.7761C38.1751 11.0805 38.0328 11.3707 37.8565 11.6401C37.7172 11.9522 37.7785 12.0692 38.1073 12.2309C38.4362 12.3925 38.4362 12.4872 38.1687 12.6879C37.6676 13.028 37.2425 13.4683 36.9202 13.981C36.874 14.0469 36.8074 14.0958 36.7307 14.1203C36.3308 14.3143 35.9959 14.6203 35.7664 15.0009C35.3876 15.4298 35.1638 15.9735 35.1311 16.5448C35.0658 16.9301 34.9496 17.3049 34.7855 17.6595C34.7068 17.8267 34.6972 18.0182 34.7588 18.1924C34.8203 18.3667 34.9481 18.5096 35.1143 18.5903C35.2911 18.6905 35.4287 18.8477 35.5045 19.0362C35.6926 19.4188 36.0079 19.7242 36.3963 19.9001C36.4855 19.9804 36.5982 20.0297 36.7177 20.0407C36.8372 20.0518 36.9571 20.024 37.0595 19.9614C37.1898 19.9062 37.3311 19.882 37.4723 19.8907C37.6135 19.8994 37.7508 19.9408 37.8733 20.0116C38.0273 20.0856 38.1996 20.1129 38.369 20.0901C38.5384 20.0674 38.6974 19.9955 38.8263 19.8834C39.2053 19.5657 39.5342 19.6214 39.9411 19.9837C40.0869 20.0897 40.2514 20.1672 40.426 20.2122L40.9053 20.4296C40.9053 20.4686 40.9053 20.4909 40.9053 20.5076C40.4761 21.3158 40.9053 21.9233 41.3958 22.4918C41.5906 22.6943 41.7089 22.9584 41.7302 23.2387C41.7433 23.4264 41.7712 23.6127 41.8138 23.796C41.8419 23.8812 41.8474 23.9722 41.8298 24.0601C41.8122 24.148 41.7721 24.2299 41.7135 24.2976C41.5665 24.467 41.4741 24.6768 41.4483 24.8995C41.4224 25.1222 41.4643 25.3476 41.5685 25.5461C42.0646 26.5327 42.1259 27.6864 42.7836 28.6116C42.8889 28.7782 42.9432 28.9719 42.9396 29.169C42.9396 29.4699 43.1013 29.5981 43.3911 29.6093C43.9485 29.6326 44.4985 29.4754 44.9594 29.1611C45.4203 28.8468 45.7675 28.3921 45.9494 27.8647C46.0247 27.5902 46.2022 27.3549 46.4454 27.2071C46.512 27.1822 46.5725 27.1433 46.6227 27.093C46.673 27.0428 46.7118 26.9823 46.7367 26.9157C46.7615 26.8491 46.7718 26.778 46.7667 26.7071C46.7617 26.6362 46.7414 26.5672 46.7074 26.5048C46.6512 26.3863 46.6437 26.2505 46.6864 26.1266C46.7291 26.0026 46.8187 25.9003 46.9359 25.8415C47.1811 25.6632 47.4097 25.4625 47.6605 25.2842C47.7911 25.2081 47.8995 25.0991 47.9748 24.968C48.0501 24.837 48.0897 24.6885 48.0896 24.5373C48.1146 24.1639 48.0883 23.7889 48.0116 23.4226C47.9134 23.1189 47.9016 22.794 47.9774 22.4839C48.0532 22.1739 48.2136 21.8911 48.4408 21.6669C48.8922 21.2099 49.3548 20.764 49.823 20.3237C50.36 19.8168 50.6863 19.1263 50.7371 18.3897C50.2873 18.4334 49.8441 18.5288 49.4161 18.6739C49.2266 18.7296 49.0706 18.7687 48.9312 18.5903C48.7919 18.412 48.7975 18.2447 49.026 18.1834C49.862 17.9493 50.5643 17.4254 51.3725 17.1356C51.5397 17.0743 51.6177 16.8681 51.8629 16.8458C52.0413 17.7007 52.1421 18.57 52.1639 19.4431C52.1783 23.3003 51.3867 27.118 49.8397 30.6515C48.8147 33.259 47.4099 35.7006 45.6707 37.8972C45.2109 38.4833 44.6812 39.0112 44.0934 39.4689C43.2183 40.1266 42.8616 40.1378 41.9921 39.4968C40.9789 38.7295 40.0865 37.8145 39.3447 36.7825C36.5443 33.106 34.6846 28.801 33.9272 24.2419C33.7711 23.3056 33.6764 22.3692 33.6039 21.4551C33.4644 19.3222 33.7603 17.1832 34.4734 15.1681C36.1393 10.1541 38.5703 5.42763 41.68 1.15615C41.9051 0.823324 42.1689 0.518364 42.4659 0.247659C42.5943 0.104881 42.7734 0.0179638 42.965 0.00546713C43.1567 -0.00702954 43.3456 0.0558851 43.4914 0.180776C43.9172 0.515503 44.2926 0.909683 44.6061 1.35123C44.6061 1.61319 44.216 1.48499 44.2048 1.73023C44.2048 1.76367 44.2606 1.80826 44.2885 1.81383C44.5002 1.81383 44.7399 1.60204 44.9183 1.81383C45.2203 2.06916 45.4427 2.40573 45.5592 2.78364C45.6053 2.97915 45.6296 3.17916 45.6317 3.38001C45.6232 3.44782 45.6287 3.51666 45.6481 3.58222C45.6674 3.64777 45.7001 3.70862 45.744 3.76095C45.788 3.81329 45.8423 3.85597 45.9035 3.88633C45.9648 3.91669 46.0316 3.93406 46.0999 3.93737C46.2002 3.95409 46.2782 3.79803 46.3841 3.89835Z" fill="white"/>
<path d="M15.6845 3.63379C15.5284 3.23807 15.1717 3.02627 14.8819 2.7476C14.5921 2.46892 14.436 2.59711 14.1462 2.93152C13.8564 3.26594 14.1462 3.27151 14.3078 3.37741C14.3335 3.39213 14.3538 3.41466 14.3659 3.44172C14.3779 3.46877 14.381 3.49896 14.3747 3.5279C14.2855 3.67281 14.135 3.63937 14.0013 3.63379C13.6855 3.59978 13.3662 3.62434 13.0593 3.70625C12.619 3.83444 12.2233 3.5056 11.7997 3.41642C11.7797 3.41145 11.7614 3.40131 11.7467 3.38702C11.7319 3.37272 11.7211 3.35478 11.7154 3.335C11.7098 3.31522 11.7095 3.2943 11.7145 3.27435C11.7195 3.2544 11.7296 3.23611 11.744 3.22135C11.7909 3.15585 11.8472 3.09763 11.9112 3.04857C12.842 2.25155 13.7672 1.4601 14.7593 0.741107C15.082 0.5004 15.4341 0.301863 15.8071 0.150308C16.7323 -0.195254 17.5405 0.105719 18.3988 0.540458C18.1369 0.780122 17.9083 0.702092 17.6966 0.724386C17.456 0.717044 17.2153 0.731971 16.9776 0.768975C16.4759 0.919462 16.4648 0.925035 16.4536 1.44338C16.3255 1.58272 15.9799 1.15913 15.9799 1.63288C15.9799 1.69976 15.8963 1.71648 15.8461 1.68862C15.796 1.66075 15.6455 1.45453 15.5507 1.55485C15.3166 1.80566 14.8986 1.77779 14.7147 2.11221C14.9711 2.36859 15.194 2.61383 15.5842 2.3463C15.7848 2.21253 15.9687 2.3463 16.1415 2.4299C16.214 2.55809 16.0969 2.58596 16.0301 2.63612C15.7514 2.81448 15.7347 3.0207 15.9409 3.27151C16.0691 3.422 16.1973 3.60035 15.9409 3.75084C15.7904 3.82887 15.7458 3.7174 15.6845 3.63379Z" fill="white"/>
<path d="M44.5422 12.0773C44.6704 12.473 44.9825 12.512 45.3225 12.4451C45.5511 12.4061 45.7127 12.395 45.7573 12.6848C45.7592 12.7097 45.7668 12.7339 45.7797 12.7554C45.7925 12.7769 45.8101 12.7951 45.8312 12.8086C45.8523 12.8222 45.8762 12.8306 45.9011 12.8333C45.926 12.836 45.9512 12.8328 45.9746 12.8241C46.1363 12.7851 46.1419 12.6736 46.0694 12.5454C45.9969 12.4173 46.0694 12.3894 46.1586 12.3671C46.1989 12.3605 46.2404 12.368 46.2759 12.3882C46.3114 12.4085 46.3388 12.4404 46.3536 12.4786C46.3904 12.5783 46.4067 12.6845 46.4015 12.7907C46.3963 12.8969 46.3697 13.001 46.3234 13.0967C46.2771 13.1924 46.212 13.2778 46.132 13.3478C46.052 13.4178 45.9586 13.471 45.8576 13.5041C45.2753 13.6674 44.652 13.5933 44.1242 13.2979C44.0006 13.2324 43.8696 13.1819 43.7341 13.1474C43.5446 13.1084 43.3606 13.1474 43.3439 13.3982C43.3439 13.7661 43.0931 13.6992 42.8813 13.5933C42.743 13.5125 42.6125 13.4192 42.4912 13.3146C42.4203 13.2431 42.3347 13.1879 42.2403 13.153C41.8 13.0749 41.5659 12.9133 41.7443 12.4005C41.8279 12.1664 41.6495 12.055 41.3207 12.094C40.6221 12.1279 39.93 12.2439 39.2585 12.4395C39.1136 12.473 38.9352 12.6123 38.8906 12.3225C39.1656 12.2332 39.4054 12.0597 39.5762 11.8265C39.8882 11.4651 40.2396 11.1398 40.624 10.8566C40.8875 10.677 41.197 10.5764 41.5158 10.5668C41.5761 10.5558 41.6383 10.5659 41.6921 10.5953C41.7459 10.6248 41.7879 10.6718 41.8112 10.7285C41.8662 10.8673 41.9497 10.9931 42.0562 11.0977C42.1628 11.2023 42.29 11.2835 42.4299 11.336C42.4969 11.3598 42.5536 11.4061 42.5902 11.4672C42.6268 11.5282 42.6411 11.6 42.6305 11.6704C42.6305 11.8209 42.4689 11.8265 42.3518 11.8487C42.2929 11.8519 42.2353 11.868 42.1833 11.8959C42.1312 11.9239 42.086 11.963 42.0508 12.0104C42.402 12.4228 42.5135 12.4117 42.781 12.0104C42.8925 11.832 42.8869 11.5756 43.1321 11.4865C43.2715 11.4084 43.3105 11.5255 43.3662 11.6091C43.4981 11.7791 43.5827 11.981 43.6114 12.1943C43.6783 12.4841 43.8121 12.5009 44.035 12.2612C44.1122 12.172 44.2156 12.1095 44.3304 12.0828C44.3592 12.0566 44.3964 12.0415 44.4353 12.0405C44.4742 12.0395 44.5122 12.0525 44.5422 12.0773Z" fill="white"/>
<path d="M18.073 7.92033C17.7275 7.78099 17.9114 7.41314 17.7163 7.2515C17.5213 7.08987 17.1924 7.2515 16.9806 7.05643C16.7627 6.89226 16.5628 6.70543 16.3843 6.49907C16.2896 6.33548 16.2541 6.14436 16.2835 5.95768C16.3129 5.77101 16.4055 5.60009 16.5459 5.47353C16.7354 5.28403 16.897 5.13912 17.1032 5.47353C17.1224 5.52885 17.1567 5.57767 17.2023 5.61442C17.2479 5.65116 17.3029 5.67434 17.361 5.68132C17.4191 5.68829 17.478 5.67878 17.531 5.65386C17.584 5.62895 17.6289 5.58963 17.6606 5.54041C17.8501 5.36206 17.9839 5.54041 17.9727 5.70205C17.917 6.43776 18.2403 7.14003 18.1344 7.87574C18.1232 7.8646 18.1065 7.87574 18.073 7.92033Z" fill="white"/>
<path d="M46.6174 11.1475L46.2663 11.0527C46.1269 10.9989 45.9781 10.9736 45.8287 10.9784C45.6794 10.9831 45.5325 11.0179 45.3968 11.0806C45.3234 11.1345 45.2325 11.1591 45.1419 11.1499C45.0513 11.1406 44.9674 11.098 44.9063 11.0304C44.7559 10.8632 44.8339 10.696 44.9063 10.5288C44.9788 10.3616 44.9955 10.3059 45.0513 10.2C45.1404 10.0105 45.2965 9.9659 45.4247 10.122C45.5101 10.2414 45.6306 10.3313 45.7694 10.3793C45.9082 10.4272 46.0585 10.4308 46.1994 10.3895C46.4446 10.3393 46.6787 10.5455 46.8627 10.7406C46.9463 10.8298 47.0243 10.9357 46.9463 11.0583C46.8682 11.1809 46.7735 11.1475 46.6174 11.1475Z" fill="white"/>
<path d="M48.8563 9.91878C48.5776 10.4093 48.5609 10.426 48.9622 10.7715C49.3634 11.1171 49.4471 11.6187 49.7369 12.0089C49.7579 12.0437 49.7655 12.0849 49.7584 12.1249C49.7512 12.1649 49.7297 12.2009 49.6979 12.2262C49.6658 12.2507 49.6267 12.2639 49.5864 12.2639C49.5461 12.2639 49.507 12.2507 49.4749 12.2262C49.1684 12.0535 48.7894 11.9476 48.8117 11.4794C48.8047 11.3165 48.7347 11.1626 48.6166 11.0502C48.5108 10.9312 48.4139 10.8045 48.3268 10.6712C48.2209 10.4706 47.9366 10.3089 48.0927 10.0414C48.2487 9.77387 48.5441 9.88534 48.8563 9.91878Z" fill="white"/>
<path d="M48.5713 17.6936C48.4392 17.679 48.3125 17.6328 48.202 17.5591C48.0914 17.4854 48.0002 17.3863 47.9359 17.27C47.6485 16.8932 47.4106 16.4811 47.228 16.0438C47.0257 15.6131 46.7771 15.2057 46.4867 14.8288C46.4254 14.734 46.3028 14.6281 46.4589 14.5334C46.6149 14.4386 46.6651 14.5668 46.7041 14.656C46.9549 15.1743 47.5067 15.492 47.6516 16.0828C47.72 16.2502 47.8292 16.3977 47.9693 16.512C48.2852 16.8357 48.4951 17.2478 48.5713 17.6936Z" fill="white"/>
<path d="M43.4799 5.73828C43.5412 6.10614 43.4799 6.49629 43.7975 6.75267C43.8137 6.76517 43.8269 6.78121 43.8359 6.79957C43.8449 6.81793 43.8496 6.83811 43.8496 6.85857C43.8496 6.87903 43.8449 6.89921 43.8359 6.91757C43.8269 6.93593 43.8137 6.95197 43.7975 6.96447C43.5579 7.1484 43.5412 7.44937 43.3963 7.67231C43.1956 7.99558 42.8389 7.88968 42.5156 7.99001C42.5156 7.77264 42.6048 7.7392 42.6773 7.67789L43.2346 7.23757C43.0507 6.99234 43.2736 6.84185 43.3572 6.68022C43.4408 6.51858 43.3238 6.49629 43.2904 6.40154C43.1677 6.08384 43.1733 6.08384 43.4799 5.73828Z" fill="white"/>
<path d="M51.0526 14.92C50.707 15.299 50.4952 15.3547 50.2556 15.0816C50.0159 14.8085 49.7539 14.5744 49.5087 14.3125C49.4251 14.2289 49.3471 14.1118 49.4418 14.0004C49.5366 13.8889 49.6759 13.9669 49.7372 14.0561C50.0382 14.5299 50.6011 14.5967 51.0526 14.92Z" fill="white"/>
<path d="M17.8836 5.22309C17.5827 5.09489 17.4154 4.92211 17.3987 4.71589C17.3947 4.45886 17.4324 4.20287 17.5102 3.95788C17.5102 3.85198 17.6774 3.84641 17.761 3.90215C17.8446 3.95788 18.062 4.17525 17.9449 4.35361C17.8527 4.47752 17.7979 4.62527 17.787 4.77937C17.7762 4.93347 17.8097 5.08745 17.8836 5.22309Z" fill="white"/>
</g>
</svg>
