<svg width="181" height="60" viewBox="0 0 181 60" fill="none" xmlns="http://www.w3.org/2000/svg">
<path opacity="0.7" fill-rule="evenodd" clip-rule="evenodd" d="M94.8303 13.2938H97.3138L96.3536 10.0718H95.7905L94.8303 13.2938ZM97.8252 14.9857H94.3453L93.6053 17.4943H91.7239L94.6269 8.21267H97.5813L100.5 17.4943H98.5652L97.8252 14.9857ZM103.73 9.94216V17.4943H101.79V8.21267H108.502V9.94216H103.73ZM117.02 15.7634V17.4943H110.05V8.21267H116.878V9.94216H111.976V11.8919H115.791V13.5809H111.976V15.7634H117.02ZM126.827 8.21267V17.4943H124.885V13.606H120.766V17.4943H118.826V8.21267H120.766V11.8277H124.885V8.21267H126.827ZM135.602 9.91708H132.704V17.4943H130.758V9.91708H127.859V8.21267H135.602V9.91708ZM144.636 14.6457C144.352 16.4755 142.945 17.7521 140.791 17.7521C137.976 17.7521 136.377 15.7926 136.377 12.9817C136.377 10.1721 137.99 8.21267 140.791 8.21267C142.842 8.21267 144.223 9.37356 144.545 11.0613H142.533C142.313 10.3268 141.706 9.92683 140.791 9.92683C139.138 9.92683 138.352 11.2675 138.352 12.9817C138.352 14.6833 139.138 16.0379 140.791 16.0379C141.785 16.0379 142.455 15.5223 142.636 14.6443H144.636V14.6457ZM153.154 9.91708H150.255V17.4943H148.31V9.91708H145.411V8.21267H153.154V9.91708ZM160.18 14.6986C160.18 13.9182 159.694 13.5154 158.696 13.5154H156.398V15.8428H158.67C159.643 15.8428 160.18 15.4777 160.18 14.7V14.6986ZM159.917 10.8522C159.917 10.1651 159.47 9.82649 158.59 9.82649H156.398V11.896H158.603C159.485 11.8932 159.917 11.556 159.917 10.8536V10.8522ZM162.189 14.8018C162.189 16.3487 161.177 17.4943 158.96 17.4943H154.444V8.21267H158.84C160.915 8.21267 161.925 9.3443 161.925 10.6696C161.925 11.5156 161.545 12.243 160.941 12.5413V12.8019C161.61 13.075 162.189 13.8792 162.189 14.8018ZM170.528 12.9831C170.528 11.2814 169.735 9.92683 167.996 9.92683C166.269 9.92683 165.464 11.2814 165.464 12.9817C165.464 14.6833 166.269 16.0379 167.996 16.0379C169.735 16.0379 170.528 14.6833 170.528 12.9817V12.9831ZM172.513 12.9831C172.513 15.6895 170.928 17.7521 167.996 17.7521C165.061 17.7521 163.479 15.6895 163.479 12.9817C163.479 10.2752 165.061 8.21267 167.996 8.21267C170.928 8.21267 172.513 10.2752 172.513 12.9817V12.9831ZM94.284 25.2275V31.7135H94.539L97.9953 25.2275H100.5V34.5091H98.699V27.881H98.4426L94.9098 34.5091H92.4974V25.2275H94.284ZM110.824 25.2275V34.5091H108.882V30.6209H104.763V34.5091H102.821V25.2275H104.763V28.8426H108.882V25.2275H110.824ZM120.89 25.2275V34.5091H118.95V30.6209H114.83V34.5091H112.889V25.2275H114.83V28.8426H118.95V25.2275H120.89ZM129.487 29.9965C129.487 28.2963 128.696 26.9417 126.956 26.9417C125.228 26.9417 124.424 28.2949 124.424 29.9965C124.424 31.6981 125.23 33.0514 126.956 33.0514C128.696 33.0514 129.487 31.6995 129.487 29.9965ZM131.473 29.9965C131.473 32.7043 129.889 34.7669 126.956 34.7669C124.021 34.7669 122.438 32.7043 122.438 29.9965C122.438 27.2901 124.021 25.2275 126.956 25.2275C129.889 25.2275 131.472 27.2901 131.472 29.9965H131.473ZM139.014 31.7135C139.014 30.933 138.529 30.5303 137.53 30.5303H135.233V32.8576H137.505C138.477 32.8576 139.014 32.4925 139.014 31.7149V31.7135ZM138.751 27.867C138.751 27.18 138.305 26.8413 137.424 26.8413H135.233V28.9095H137.438C138.32 28.9067 138.751 28.5694 138.751 27.867ZM141.022 31.8166C141.022 33.3635 140.01 34.5091 137.793 34.5091H133.278V25.2275H137.675C139.75 25.2275 140.759 26.3591 140.759 27.6845C140.759 28.5304 140.38 29.2579 139.776 29.5561V29.8167C140.444 30.0899 141.022 30.894 141.022 31.8166ZM144.905 30.3087H147.388L146.428 27.0866H145.865L144.905 30.3087ZM147.898 32.0006H144.42L143.678 34.5091H141.797L144.701 25.2275H147.656L150.573 34.5091H148.64L147.898 32.0006ZM159.036 34.5453H151.863V25.2275H153.775V32.8089H157.676V25.2275H159.588V32.8089H160.897V36.8295H159.036V34.5439V34.5453ZM164.232 25.2275V31.7135H164.488L167.942 25.2275H170.447V34.5091H168.648V27.881H168.393L164.859 34.5091H162.447V25.2275H164.232ZM179.192 22.9057C179.089 24.1251 178.217 24.8833 176.763 24.8833C175.313 24.8833 174.437 24.1251 174.337 22.9057H175.749C175.8 23.3419 176.133 23.7029 176.763 23.7029C177.381 23.7029 177.712 23.3573 177.778 22.9057H179.192ZM174.556 25.3446V31.7483H174.812L178.268 25.3446H180.771V34.5077H178.972V27.9618H178.714L175.183 34.5077H172.771V25.3446H174.556ZM92.4974 42.5044H95.5299L97.0406 46.2086H97.2984L98.8091 42.5044H101.79V51.7859H99.9798V44.546H99.7192L98.0287 48.6781H96.2588L94.5683 44.546H94.3063V51.7845H92.4974V42.503V42.5044ZM110.387 47.0155C110.387 45.3153 109.596 43.9607 107.857 43.9607C106.128 43.9607 105.324 45.3139 105.324 47.0155C105.324 48.7172 106.13 50.0704 107.857 50.0704C109.596 50.0704 110.387 48.7186 110.387 47.0155ZM112.373 47.0155C112.373 49.7234 110.787 51.7845 107.857 51.7845C104.922 51.7845 103.338 49.722 103.338 47.0155C103.338 44.3091 104.922 42.2465 107.857 42.2465C110.787 42.2465 112.372 44.3091 112.372 47.0155H112.373ZM121.923 48.6795C121.64 50.5094 120.232 51.7845 118.076 51.7845C115.264 51.7845 113.664 49.8265 113.664 47.0155C113.664 44.206 115.276 42.2465 118.077 42.2465C120.129 42.2465 121.51 43.406 121.833 45.0951H119.82C119.599 44.3607 118.993 43.9607 118.077 43.9607C116.425 43.9607 115.639 45.3014 115.639 47.0155C115.639 48.7172 116.425 50.0704 118.077 50.0704C119.071 50.0704 119.741 49.5547 119.923 48.6795H121.923ZM123.729 42.5044H125.678V46.1306H127.833L129.601 42.5044H131.611L129.47 47.0155L131.732 51.7845H129.718L127.851 47.8838H125.68V51.7859H123.729V42.5044ZM138.758 48.9903C138.758 48.2099 138.271 47.8057 137.273 47.8057H134.975V50.1345H137.247C138.22 50.1345 138.758 49.7694 138.758 48.9903ZM138.493 45.1439C138.493 44.4554 138.047 44.1182 137.167 44.1182H134.975V46.1849H137.18C138.062 46.1821 138.494 45.8449 138.494 45.1439H138.493ZM140.764 49.0934C140.764 50.6404 139.753 51.7845 137.535 51.7845H133.021V42.503H137.417C139.492 42.503 140.502 43.636 140.502 44.9613C140.502 45.8059 140.122 46.5333 139.518 46.833V47.0922C140.187 47.3667 140.764 48.1709 140.764 49.0934ZM150.694 51.7845H152.638V42.503H150.694V51.7845ZM147.664 48.7172C147.664 47.8461 147.195 47.3528 145.901 47.3528H144.257V50.0843H145.901C147.195 50.0843 147.664 49.6007 147.664 48.7172ZM142.313 51.7845V42.503H144.257V45.6498H146.2C148.381 45.6498 149.659 46.8065 149.659 48.7046C149.659 50.6278 148.379 51.7845 146.2 51.7845H142.313ZM15.5299 53.3245C15.1258 53.8262 14.507 53.9948 14.1419 53.7036C13.8213 53.4458 13.8116 52.912 14.0903 52.4465C13.8597 52.5 13.6566 52.6358 13.5189 52.8284C13.1733 53.3273 13.374 54.0701 13.9718 54.4868C14.5711 54.9077 15.3376 54.8394 15.6846 54.3433C15.9257 53.9976 15.8978 53.5322 15.6567 53.1405C15.6205 53.2019 15.5787 53.266 15.5299 53.3245ZM36.0135 17.9402C35.293 17.2504 35.5062 15.8874 35.5062 15.8874C35.2024 16.1424 34.815 17.9221 35.4575 18.8238C36.2016 19.869 36.8678 20.0139 37.4573 21.1525C37.5298 20.9909 37.4378 20.5839 37.2845 20.2787C37.0532 19.8146 36.964 19.43 37.5075 19.2711C39.0516 18.8238 40.4857 21.048 41.3288 21.0104C42.5078 20.9602 42.7712 19.9024 42.8228 19.8523C42.873 19.8007 42.2026 20.3094 41.4431 20.2188C40.2418 20.0739 39.6843 18.7248 38.3339 18.4489C37.4699 18.2733 36.7382 18.6328 36.0135 17.9402ZM35.1941 42.7204C34.7927 43.3071 35.0993 44.1363 36.1612 44.4457C37.1187 44.7244 37.7528 45.0157 38.221 45.4881C38.9095 46.1752 39.2314 46.2616 39.3959 46.2574L9.99023 5.48951L9.60002 5.77242L34.1182 39.7687C34.3997 40.1589 35.548 42.1992 35.1941 42.7204ZM35.0798 44.5781C33.9607 44.6059 32.6786 45.0045 31.3867 43.8088C29.7115 42.2619 27.9667 43.2513 27.9667 43.2513C27.9667 43.2513 29.069 44.3495 28.4545 44.8025C27.4566 45.5411 28.1911 46.4051 28.1033 46.7452C28.0127 47.081 27.0079 47.1507 25.3244 46.3828C24.5726 46.0332 23.7333 45.9167 22.9148 46.0484C22.4786 46.1208 22.6249 46.4372 22.7211 46.5278C22.7211 46.5278 23.4304 47.1758 23.705 47.3556C23.9279 47.4963 24.491 47.9646 24.7014 47.8127C24.9063 47.6664 24.4589 46.8372 24.4589 46.8372C24.4589 46.8372 27.7771 47.9451 28.938 47.9451C30.2857 47.9451 29.0231 45.7013 30.0836 45.5954C30.6188 45.5397 31.2877 46.3759 32.3873 46.5333C33.1566 46.6448 33.8952 46.3187 34.6505 46.1292C35.4533 45.9299 35.7571 46.925 35.8686 47.8015C35.8881 47.9451 35.9173 48.3074 36.072 48.5736C36.3368 47.3096 36.6894 44.5405 35.0784 44.5781H35.0798ZM43.4764 47.173C43.0388 45.9954 42.204 46.5041 41.8305 46.3731C41.4556 46.2435 40.972 45.778 40.816 44.5265C40.6599 43.275 39.5965 43.9509 39.5965 43.9509C39.5965 43.9509 40.8271 46.4191 41.3218 47.7333C41.8194 49.0461 42.2375 48.0287 42.8423 48.7492C43.4513 49.4697 43.3816 53.1712 43.036 54.3628C42.6399 55.7234 41.8281 56.9261 40.7142 57.8022C41.5699 57.7033 43.167 56.024 43.6144 54.923C44.13 53.659 43.8346 52.4925 43.8346 52.4925L44.5537 52.4284L44.1147 51.2814L44.8101 51.1755C44.8143 51.1755 43.9112 48.3465 43.4764 47.173ZM14.8847 49.5143C13.982 49.2768 13.041 49.2223 12.1169 49.3541C11.1469 49.499 10.3651 49.7721 9.55264 49.7303C8.74572 49.7122 7.98898 49.3959 7.49564 48.8105C7.27265 48.5541 7.11378 48.2531 6.99672 47.9325C7.38693 47.127 8.14507 46.309 9.49689 45.5578C14.2213 42.9308 12.6576 39.9693 12.3636 36.5354C12.2145 34.7934 12.5685 33.2047 13.4646 32.3991C14.7286 31.2591 16.8539 31.3999 16.8539 31.3999C16.6128 31.0891 13.7656 30.0704 11.5915 30.7003C9.26415 31.3776 8.83213 33.0625 8.43076 34.261C8.08514 35.3007 7.63221 36.5229 5.57382 37.3869C2.11343 38.8391 2.34617 41.5623 2.34617 41.5623C2.34617 41.5623 1.0919 38.8726 4.45473 36.5995C8.72621 33.7147 7.08173 31.4961 8.5102 30.1735C9.6251 29.1422 10.9602 29.3067 12.9977 29.8627C12.6326 29.4307 7.2183 27.1591 6.59117 31.981C6.0588 36.0811 2.14549 35.5097 1.464 39.3673C0.987378 42.103 3.57535 44.3955 3.57535 44.3955C3.57535 44.3955 1.50581 40.2522 5.57521 38.5771C8.39035 37.4204 9.99302 36.0853 10.4111 34.7669C10.3874 35.1892 10.3916 35.6365 10.4027 36.1271C10.4473 37.982 11.3295 39.43 11.0578 42.0389C10.9086 43.4743 8.28582 44.907 6.82251 46.3814C6.87268 45.7209 7.05107 45.0784 7.38136 44.5488C7.75067 43.9844 8.3569 43.3782 8.62169 42.7092C8.84027 42.2217 8.9389 41.689 8.90932 41.1556C8.87974 40.6221 8.72281 40.1036 8.45167 39.6432C8.38477 39.6711 8.32345 39.6962 8.26213 39.7157C8.55898 40.4111 8.72342 41.4661 8.15064 42.489C7.86773 43.0771 7.36324 43.4924 6.82669 44.1795C6.3047 44.9032 6.0023 45.7621 5.95567 46.6532C5.94174 46.9486 5.971 47.2525 6.02117 47.5591C5.42191 49.1255 6.10479 51.149 6.65109 52.0856C7.30471 53.2005 7.9193 54.0157 7.59876 55.309C7.27823 56.6051 8.40289 56.1564 9.19865 56.1689L9.94982 56.1731C10.4738 56.1717 10.6884 55.7912 10.3679 55.277C9.81046 54.3892 8.92689 53.075 8.22172 52.512C7.59319 52.0089 6.56469 50.6864 6.66085 49.1534C7.58901 50.2571 8.63423 50.6041 9.49689 50.6836C10.5101 50.7728 11.4675 50.3909 12.2465 50.2683C13.0493 50.1356 13.8703 50.1616 14.6631 50.3449C15.3912 50.5186 16.0682 50.8614 16.6392 51.3456C17.1786 51.8055 17.4754 52.4186 17.6315 53.0109C17.9242 54.176 17.1228 55.2686 16.4762 55.8414C16.5152 55.886 16.5668 55.9278 16.61 55.9668C17.7416 55.2853 18.352 54.0966 18.1304 52.6779C17.9242 51.2814 16.6615 49.945 14.8847 49.5143ZM13.9635 27.6942C15.3515 29.1603 16.8441 28.5708 17.5103 28.6503C18.1764 28.7269 18.9457 30.4369 18.5402 32.0939C18.136 33.7523 17.9743 33.4653 17.697 34.5049C17.3486 35.8149 18.9722 36.7528 18.5959 37.9611C18.4914 38.2956 18.2586 38.7778 18.5402 39.1527C18.9778 39.7422 19.6885 38.9659 20.5846 39.0983C21.1471 39.1738 21.7188 39.0617 22.211 38.7792C22.1051 38.2677 20.0829 38.5813 19.63 37.7549C19.4307 37.3911 18.9011 33.6241 20.0745 31.9406C21.1518 30.3965 20.1512 29.9143 19.414 28.667C20.5351 28.0719 21.6645 27.4926 22.8019 26.9291C23.5823 27.8252 24.1314 28.5987 24.6052 29.6802C24.8561 30.2167 25.0275 30.7951 25.008 31.3748C25.0219 31.9643 24.8031 32.5455 24.431 33.0695C24.9244 32.9928 25.3745 32.112 25.5111 31.432C25.6407 30.7505 25.5418 30.0495 25.3578 29.4014C24.6707 27.2998 23.0723 25.7975 23.0723 25.7975C23.0723 25.7975 20.9121 26.5375 18.9081 27.626C18.2754 26.4386 17.6399 26.6504 16.8497 26.7173C16.0665 26.787 15.594 25.9592 15.594 25.9592C16.2016 26.1543 17.0462 26.1863 18.1792 25.7404C20.7184 24.737 19.754 22.6381 19.754 22.6381C19.754 22.6381 19.807 24.1614 18.2893 24.3774C17.3458 24.5098 14.8679 23.8966 14.8679 23.8966C14.8679 23.8966 16.8525 23.6652 17.258 22.5225C17.8071 20.9574 19.3833 21.5734 19.3833 21.5734C19.3833 21.5734 18.5429 20.5839 17.2469 21.3574C16.4567 21.834 15.1453 21.9859 13.5356 21.1707C11.9302 20.3582 11.3476 21.7072 11.0215 21.7406C10.6982 21.7769 10.4446 21.2459 10.6257 20.6912C10.8069 20.1352 12.6535 19.6126 15.4338 19.5067C17.2678 19.437 18.1681 19.7965 18.5666 20.0516C18.5708 19.9011 18.0761 19.221 16.564 18.8503C15.0519 18.4768 15.1508 17.858 15.2219 16.7933C15.2916 15.7271 13.7433 16.1522 13.367 16.0184C12.9907 15.8846 13.3391 15.047 13.3391 15.047C12.7998 15.2031 12.3859 15.6407 12.4054 16.2929C12.4165 16.7291 12.8346 17.0427 13.2499 17.2476C13.6666 17.4538 13.7349 17.8273 12.9851 18.2635C12.3817 18.6147 11.5135 19.0718 10.3512 19.5708C7.766 20.6787 10.995 22.588 9.85923 23.1733C8.71924 23.7586 8.44191 24.5223 8.3778 24.9404C8.23844 25.8881 8.87115 26.5933 8.87115 26.5933C11.094 25.3864 12.574 26.2309 13.9635 27.6942ZM27.1194 24.3077C27.1194 23.3573 27.3646 22.9001 27.6266 22.889C28.4266 22.8569 28.598 23.99 28.6091 24.298C28.6426 25.201 27.9764 25.6345 27.9764 25.6345C28.5478 25.6832 28.9994 24.8916 29.0732 24.3885C29.1819 23.643 29.0495 23.3851 28.7861 22.8918C28.7861 22.8918 30.4599 24.5112 30.2815 26.309C30.0794 28.3465 27.7827 29.4154 27.7827 29.4154C28.4628 29.6593 30.4306 29.4614 31.6905 27.8559C32.3859 26.9709 32.6897 25.6233 31.8466 23.498C31.0828 21.5692 29.6265 19.9359 31.1748 16.2386C32.6855 12.6347 36.6797 12.1636 39.0823 13.8764C39.2191 13.9706 39.3233 14.105 39.3805 14.261C39.5366 14.6875 38.4147 15.2449 38.9067 15.5014C39.2439 15.6811 39.6871 15.7271 40.069 16.017C40.4202 16.2818 40.4899 16.509 40.6682 16.6734C40.802 16.7988 40.862 16.8239 40.9916 16.8239C39.9045 15.5515 39.7234 14.1008 39.5478 12.5678C38.6949 12.349 37.3416 11.6563 36.0038 11.5002C35.1648 11.4013 33.1357 11.2689 31.101 12.2695C28.807 13.3942 26.3821 15.5864 26.3821 20.6648C26.3807 22.85 27.1207 24.4317 27.1207 24.3077H27.1194ZM1.60197 36.1313C2.78237 35.8107 2.78237 34.9328 2.7977 34.753C2.98724 35.0038 3.05274 35.2784 3.05692 35.6351C3.57953 34.9551 3.4541 33.7774 2.17475 33.0737C2.17475 33.0737 2.24722 34.6206 1.25774 35.1669C0.226455 35.7341 0.0647939 36.0964 0.00765503 36.6567C-0.0231835 36.9295 0.0397249 37.2048 0.18604 37.4371C0.319828 37.6601 0.54699 37.8148 0.760216 37.8677C0.448042 37.4483 0.386723 36.4602 1.60058 36.1313H1.60197ZM26.3166 14.5049C23.4207 14.6694 22.4089 13.6325 20.4299 12.6793C18.4454 11.7218 16.7396 12.4214 16.4414 12.8716C17.3625 12.9287 18.4106 13.2952 20.3979 14.5425C24.4073 17.0608 26.3166 14.5049 26.3166 14.5049ZM25.0192 8.36179C24.5983 8.47328 23.5795 8.63912 24.0548 10.9888C24.5328 13.3398 25.8024 12.7698 26.1424 12.4688C26.1424 12.4688 24.4171 12.289 24.3669 10.2529C24.3182 8.20988 26.6734 8.58616 26.6734 8.58616C26.5326 8.42729 25.6839 8.1834 25.0178 8.36179H25.0192ZM50.8208 38.2454C50.2508 36.2177 48.4335 32.0814 47.1904 30.1944C45.9403 28.3074 45.3021 29.6607 44.8045 30.0871C44.3056 30.5136 42.8451 32.9719 42.204 29.8042C41.5629 26.6323 38.2893 23.8868 38.2893 23.8868C38.9652 26.2741 38.784 28.0217 38.6098 29.5533C38.4328 31.0835 38.8217 31.6187 38.8217 32.5427C38.8217 33.4694 36.0484 34.0757 35.902 34.7878C35.7613 35.5014 40.0327 38.4252 44.0994 35.4944C45.323 34.6122 46.0839 38.0322 46.4727 38.9576C46.8671 39.8857 46.0825 40.17 47.0079 41.2389C47.9346 42.3079 47.2211 43.2081 47.2211 43.8743C47.2211 44.4986 49.0565 46.0679 49.3938 45.725C49.9847 45.1355 48.6454 41.6278 48.1116 40.4167C47.5779 39.2042 46.7236 35.2853 46.1215 34.2164C45.7731 33.606 43.9865 34.0394 43.9865 34.0394L43.861 33.5656C43.861 33.5656 44.1091 33.2479 44.3391 33.0054C46.1926 31.0808 46.049 31.8654 47.9723 34.2178C49.8927 36.5661 47.5779 37.4956 49.2502 38.7067C50.924 39.9192 51.3894 40.2759 50.8208 38.2468V38.2454ZM20.3407 6.72148C20.3407 6.72148 20.6961 6.84273 21.379 6.85806C22.0619 6.87199 22.3991 6.23929 22.3991 6.23929C20.7379 6.07344 20.2529 5.48673 20.2529 5.48673C20.2529 5.48673 21.8361 5.4059 22.6374 5.29998C23.4388 5.19267 24.8993 4.80106 24.8993 4.80106C24.8993 4.80106 24.8436 6.11107 24.8338 6.872C24.8268 7.63152 25.8038 7.46429 26.1299 7.36116C26.541 7.23155 26.6037 5.71667 26.6734 4.4192C26.7236 3.43809 25.9975 3.42973 25.5822 3.60393C24.969 3.85896 23.8081 4.45683 22.551 4.84008C21.2954 5.22333 19.3276 4.9446 19.3276 4.9446L19.2203 5.35294L20.8745 6.37029L20.3407 6.72148ZM23.0625 12.9427L23.5112 12.7503C23.5112 12.7503 23.1684 11.7469 23.1433 10.8578C23.1238 9.96586 23.4889 7.99526 23.4889 7.99526H23.0639C23.0639 7.99526 22.8716 9.44324 22.6207 10.7114C22.3726 11.9797 21.7079 11.7316 21.3832 11.7065C21.0571 11.6828 18.4733 11.3107 18.4733 11.3107V11.6912L19.9435 11.903C21.2508 12.0911 23.0639 12.9413 23.0639 12.9413L23.0625 12.9427ZM24.6735 18.5241C23.6074 19.207 21.857 18.8698 21.857 18.8698C22.0911 19.1987 23.3621 19.5903 24.0018 19.5805C24.5565 19.568 25.047 19.3492 25.4832 18.8698C26.4337 17.8301 26.0463 16.0978 25.8149 15.8804C25.8177 15.8804 25.7118 17.8594 24.6721 18.5241H24.6735ZM22.2082 49.3624C19.7596 46.918 20.6529 47.1647 22.2082 44.9836C23.3593 43.3684 28.9771 41.9427 31.8075 41.3156L31.7518 41.0564C30.3163 41.1205 28.1674 41.1957 26.0086 41.1929C22.3099 41.1902 20.8174 39.7826 19.8585 39.9596C16.1807 40.648 18.7952 44.8652 14.4819 44.2673C10.1672 43.6722 10.3108 48.1444 10.3108 48.1444C11.5344 45.6567 12.7998 46.0066 13.7739 45.9647C14.9028 45.916 16.0038 46.7494 17.5869 45.417C17.9353 45.1272 19.5101 42.5754 19.2844 43.8506C19.152 44.5948 18.5067 45.4463 17.9925 46.0302C17.6245 46.4483 17.4113 46.7675 18.1597 47.1884L19.2286 47.8043C20.9762 48.8078 20.6864 49.9491 19.5492 49.892C18.7381 49.8474 17.7806 49.4502 16.9779 49.3666C16.6518 49.3345 16.2825 49.4683 16.7967 49.715C17.0685 49.8432 17.3737 50.03 17.6427 50.2961C18.9234 51.5783 17.3918 51.0724 21.0598 50.8745C21.8403 50.8299 22.3949 50.7574 22.7893 50.6766C24.2485 50.3575 22.5301 49.6816 22.2082 49.3624ZM41.0738 51.4947C40.7783 51.0348 40.54 50.3909 40.2655 49.8153C39.6802 48.5903 40.2543 48.8259 39.8934 48.1207C39.4892 47.3403 39.2858 48.1054 38.267 46.5459C38.0677 46.2351 37.6622 46.3717 37.6134 47.1173C37.5618 47.8629 38.8119 48.5667 39.3805 50.3728C39.9547 52.1845 40.4257 52.3936 39.9603 53.5029C39.5004 54.615 37.2315 54.5481 37.2315 54.5481C39.0015 56.3905 42.6054 53.8764 41.0738 51.4947ZM60.1512 60L59.4126 59.7324L81.1253 0L81.8598 0.267577L60.1512 60Z" fill="white"/>
</svg>
