<svg width="221" height="40" viewBox="0 0 221 40" fill="none" xmlns="http://www.w3.org/2000/svg">
<g opacity="0.7">
<path d="M150.234 29.6819H170.19V25.26H157.037C158.851 18.0035 169.963 16.4162 169.963 8.36604C169.963 4.05752 167.015 0.882812 160.779 0.882812C156.924 0.882812 153.522 2.01664 151.255 3.15046L152.615 7.23222C154.656 6.21178 157.037 5.30472 159.985 5.30472C162.253 5.30472 164.407 6.32516 164.407 8.93295C164.407 14.8288 151.368 15.2824 150.234 29.6819ZM170.757 22.6522H183.569V29.6819H188.671V22.6522H192.979V18.3437H188.671V0.882812H184.929L170.757 19.2507V22.6522ZM176.539 18.5704L183.796 8.81957C183.796 9.61325 183.569 12.1077 183.569 14.3753V18.4571H180.167C179.147 18.4571 177.219 18.5704 176.539 18.5704Z" fill="white"/>
<path d="M5.32897 25.3733V16.4161H7.48323C9.41073 16.4161 10.9981 16.6428 12.1319 17.3231C13.2657 18.0034 13.946 19.1373 13.946 20.9514C13.946 24.0127 12.1319 25.3733 7.82338 25.3733H5.32897ZM0.113382 29.6818H7.70999C16.2137 29.6818 19.275 25.9402 19.275 20.7246C19.275 17.2098 17.801 14.8287 15.1932 13.4681C13.1523 12.3343 10.5445 11.9942 7.36985 11.9942H5.32897V5.19124H16.7806L18.1412 0.996094H0V29.6818H0.113382ZM22.7898 29.6818H27.7787L34.2414 20.3845C35.4886 18.6837 36.3957 16.983 36.9626 16.0759H37.076C36.9626 17.3231 36.8492 18.9105 36.8492 20.4978V29.5684H41.9514V9.15962H36.9626L30.4998 18.457C29.366 20.1577 28.3456 21.8584 27.7787 22.7655H27.6653C27.7787 21.5183 27.892 19.9309 27.892 18.3436V9.273H22.7898V29.6818ZM50.6819 29.6818H55.8974V13.4681H62.0201L63.3807 9.15962H44.4458V13.4681H50.6819V29.6818ZM65.1948 39.9996H70.297V29.6818C71.3174 30.0219 72.3379 30.1353 73.4717 30.1353C79.9345 30.1353 84.1296 25.7134 84.1296 19.364C84.1296 12.7878 80.2746 8.59271 72.9048 8.59271C70.0702 8.59271 67.3491 9.15962 65.0814 9.83991V39.9996H65.1948ZM70.297 25.2599V13.2414C71.0907 13.0146 71.771 12.9012 72.678 12.9012C76.4196 12.9012 78.8007 14.9421 78.8007 19.364C78.8007 23.3324 76.8732 25.8268 73.0182 25.8268C71.9977 25.8268 71.2041 25.6 70.297 25.2599ZM87.191 29.6818H92.1798L98.6426 20.3845C99.8898 18.6837 100.797 16.983 101.364 16.0759H101.477C101.364 17.3231 101.25 18.9105 101.25 20.4978V29.5684H106.353V9.15962H101.364L94.9009 18.457C93.7671 20.1577 92.7467 21.8584 92.1798 22.7655H92.0664C92.1798 21.5183 92.2932 19.9309 92.2932 18.3436V9.273H87.191V29.6818ZM110.434 29.6818H115.65V21.1781H118.711C119.278 21.1781 119.845 21.745 120.525 23.1056L123.133 29.6818H128.689L124.947 21.8584C124.267 20.4978 123.587 19.7042 122.566 19.364V19.2506C124.267 18.2302 124.494 15.2823 125.514 13.8083C125.854 13.3548 126.308 13.128 126.988 13.128C127.328 13.128 127.782 13.128 128.122 13.3548V8.93285C127.555 8.70609 126.535 8.59271 125.968 8.59271C124.154 8.59271 123.02 9.273 122.226 10.4068C120.525 12.9012 120.525 17.2098 118.031 17.2098H115.65V9.15962H110.434V29.6818ZM140.254 30.1353C143.088 30.1353 145.696 29.2283 147.284 28.0945L145.81 24.5796C144.336 25.3733 142.975 25.9402 141.048 25.9402C137.533 25.9402 135.265 23.6725 135.265 19.4774C135.265 15.7358 137.533 12.7878 141.388 12.7878C143.429 12.7878 144.903 13.3548 146.376 14.3752V9.95329C145.243 9.273 143.429 8.59271 140.821 8.59271C134.698 8.59271 129.936 13.128 129.936 19.5908C129.936 25.4867 133.564 30.1353 140.254 30.1353Z" fill="white"/>
<path d="M209.864 22.6508C215.42 22.6508 219.955 18.1155 219.955 12.5598C219.955 7.00404 215.42 2.46875 209.864 2.46875C204.309 2.46875 199.773 7.00404 199.773 12.5598C199.887 18.1155 204.309 22.6508 209.864 22.6508Z" stroke="white" stroke-width="1.769"/>
<path d="M216.217 12.5596H210.661V7.00391H209.188V14.0336H216.217V12.5596Z" fill="white"/>
</g>
</svg>
