<svg width="163" height="40" viewBox="0 0 163 40" fill="none" xmlns="http://www.w3.org/2000/svg">
<g opacity="0.7">
<path fill-rule="evenodd" clip-rule="evenodd" d="M0 20.0332C0 30.9769 8.50982 39.9942 21.2385 40H141.14C153.869 39.9942 162.376 30.9769 162.376 20.0332C162.376 9.09531 153.849 -0.0345019 141.16 9.80513e-05H21.2212C8.52713 -0.0345069 0 9.09531 0 20.0332ZM5.01562 20.0084C5.01562 11.6774 11.1983 4.93527 21.2797 4.91797H141.101C151.182 4.93527 157.368 11.6774 157.368 20.0084C157.368 28.3423 151.222 35.1306 141.101 35.096H21.2797C11.1666 35.1306 5.01562 28.3423 5.01562 20.0084Z" fill="white"/>
<path d="M16.1095 10.5469H21.9807L30.0984 23.6793L30.0954 10.5469H35.9147V29.3804H30.1011L21.9431 16.248V29.3804H16.1094V10.5469H16.1095Z" fill="white"/>
<path d="M67.5585 12.4844H73.2279V15.0192H76.2932V16.882H73.2279L73.2336 29.38H67.5585L67.5613 16.882H64.4844V15.0249L67.5613 15.0192L67.5585 12.4844L67.5585 12.4844Z" fill="white"/>
<path d="M39.1562 16.8594H44.8199V29.3862H39.1562V16.8594Z" fill="white"/>
<path d="M39.1406 10.543H44.8186V14.3956H39.1406V10.543Z" fill="white"/>
<path d="M138.386 16.0078C133.815 16.0078 130.109 19.1511 130.109 23.0354C130.109 26.9169 133.815 30.0659 138.386 30.0659C142.959 30.0659 146.659 26.9169 146.659 23.0354C146.659 19.1511 142.959 16.0078 138.386 16.0078ZM140.661 23.0181C140.661 23.0181 140.655 24.9098 140.655 25.6711C140.655 27.6666 139.479 28.4885 138.339 28.4885C137.203 28.4885 136.018 27.6666 136.018 25.6711C136.018 24.9098 136.021 22.9691 136.021 22.9691C136.021 22.9691 136.024 21.1206 136.024 20.3622C136.024 18.3725 137.215 17.5564 138.34 17.5564C139.47 17.5564 140.655 18.3725 140.655 20.3622C140.655 21.1206 140.653 22.525 140.661 23.0239V23.0181L140.661 23.0181Z" fill="white"/>
<path d="M122.723 23.0564V20.8158C122.723 18.8779 121.385 18.3877 120.505 18.3877C119.603 18.3877 118.285 18.8779 118.285 20.8158V23.0449V25.274C118.285 27.2147 119.603 27.7136 120.505 27.7136C121.385 27.7136 122.723 27.2147 122.723 25.274V23.0564ZM122.686 10.5469H128.271V29.3775H122.674C122.674 29.3775 122.671 28.769 122.671 28.6566C120.506 30.0119 118.06 30.0119 116.151 29.1295C115.641 28.8873 112.281 27.2753 112.281 22.9151C112.281 19.6104 115.396 16 119.479 16.3604C120.823 16.4787 121.777 16.9689 122.686 17.4822V10.5469H122.686Z" fill="white"/>
<path d="M58.0716 16.2831C60.1911 16.2226 64.4821 17.6068 64.4533 22.5638C64.4475 23.4491 64.4504 29.3809 64.4504 29.3809H58.8272V21.1566C58.8272 20.0637 57.7833 18.8525 56.2376 18.8525C54.6949 18.8525 53.55 20.0637 53.55 21.1566C53.55 21.6901 53.5558 29.3809 53.5558 29.3809H47.9354L47.9297 16.8599L53.5558 16.8541C53.5558 16.8541 53.55 17.8605 53.5558 18.172C54.6401 17.1396 56.203 16.3351 58.0717 16.2832" fill="white"/>
<path d="M104.086 16.2831C106.203 16.2226 110.5 17.6068 110.471 22.5638C110.465 23.4491 110.471 29.3809 110.471 29.3809H104.842V21.1566C104.842 20.0637 103.798 18.8525 102.252 18.8525C100.71 18.8525 99.5677 20.0637 99.5677 21.1566C99.5677 21.6901 99.5735 29.3809 99.5735 29.3809H93.9531V16.8599L99.5735 16.8541C99.5735 16.8541 99.5677 17.8605 99.5735 18.172C100.655 17.1396 102.215 16.3351 104.086 16.2832" fill="white"/>
<path d="M86.2744 24.9993C86.2744 24.9993 86.2772 25.057 86.2772 25.7606C86.2772 28.0502 84.7719 28.5607 83.9356 28.5607C83.1022 28.5607 81.5652 28.0502 81.5652 25.7606C81.5652 25.0743 81.5709 23.1768 81.5709 23.1768C81.5709 23.1768 92.2378 23.1825 92.2378 23.171C92.2378 19.2896 88.489 16.0742 83.8837 16.0742C79.2784 16.0742 75.5469 19.2175 75.5469 23.1047C75.5469 26.9919 79.2784 30.1323 83.8837 30.1323C87.7046 30.1323 90.9343 27.9522 91.9177 24.9935L86.2743 24.9993H86.2744ZM81.571 21.2216C81.5595 20.1258 81.5826 19.3934 81.943 18.7676C82.3842 17.9948 83.1974 17.6285 83.9357 17.6228C84.671 17.6285 85.4842 17.9948 85.9226 18.7676C86.283 19.3934 86.3032 20.1258 86.2945 21.2216H81.571Z" fill="white"/>
<path d="M147.828 12.6166C148.379 12.6166 148.872 12.582 148.872 11.9187C148.872 11.3881 148.39 11.293 147.938 11.293H147.055V12.6166H147.828ZM147.055 15.0274H146.406V10.7422H148.033C149.048 10.7422 149.549 11.1142 149.549 11.962C149.549 12.7291 149.068 13.0607 148.439 13.1414L149.656 15.0274H148.929L147.796 13.1674H147.055V15.0274Z" fill="white"/>
<path d="M147.834 15.9861C149.518 15.9861 150.845 14.6682 150.845 12.8774C150.845 11.1155 149.518 9.79188 147.834 9.79188C146.136 9.79188 144.806 11.1155 144.806 12.8774C144.806 14.6682 146.136 15.9861 147.834 15.9861ZM144.062 12.8774C144.062 10.7435 145.79 9.17188 147.834 9.17188C149.862 9.17188 151.592 10.7435 151.592 12.8774C151.592 15.0287 149.862 16.6061 147.834 16.6061C145.79 16.6061 144.062 15.0287 144.062 12.8774Z" fill="white"/>
</g>
</svg>
