<svg width="174" height="40" viewBox="0 0 174 40" fill="none" xmlns="http://www.w3.org/2000/svg">
<g opacity="0.7">
<path fill-rule="evenodd" clip-rule="evenodd" d="M44.4553 26.0176H48.4639C50.0279 26.0176 50.6227 26.5573 50.6227 27.8791C50.6227 29.1519 50.0276 29.691 48.4639 29.691H44.4553V26.0176ZM38.2453 39.3874H44.4557V33.9508H51.1076C55.5118 33.9508 57.0975 31.3564 57.0975 28.0021C57.0975 24.1085 55.467 21.9052 51.0628 21.9052H38.2453V39.3874ZM59.1455 21.9052H75.86V26.1647H65.3559V28.5154H75.1124V32.7766H65.3559V35.127H75.86V39.3874H59.1455V21.9052ZM84.6698 26.0176H88.6781C90.2418 26.0176 90.8369 26.5573 90.8369 27.8791C90.8369 29.1519 90.2418 29.691 88.6781 29.691H84.6698V26.0176ZM78.4595 39.3874H84.6698V33.9508H91.3206C95.726 33.9508 97.312 31.3564 97.312 28.0021C97.312 24.1085 95.6815 21.9052 91.2764 21.9052H78.4595V39.3874ZM103.323 31.9683C100.284 31.4533 99.03 29.4946 99.03 27.0467C99.03 22.5162 103.016 21.293 108.124 21.293C115.127 21.293 118.012 23.3245 118.233 27.0223H111.009C111.009 26.3121 110.635 25.8705 110.063 25.6259C109.512 25.3572 108.808 25.2595 108.124 25.2595C106.275 25.2595 105.637 25.773 105.637 26.5082C105.637 26.9971 105.834 27.3166 106.451 27.414L113.872 28.6378C117 29.1519 118.938 30.768 118.938 33.73C118.938 37.9918 115.811 39.9996 108.829 39.9996C104.05 39.9996 98.8306 39.2653 98.8089 34.1232H106.297C106.318 34.7101 106.517 35.1018 106.958 35.3713C107.419 35.6165 108.102 35.7392 109.071 35.7392C111.008 35.7392 111.538 35.1511 111.538 34.3184C111.538 33.8043 111.251 33.2905 110.416 33.1443L103.323 31.9683ZM120.963 21.9052H127.173V39.3874H120.963V21.9052ZM150.189 32.5805C149.793 34.8822 149.087 36.7431 147.545 38.0159C146.026 39.2893 143.647 39.9996 139.86 39.9996C136.094 39.9996 129.113 39.7051 129.113 30.6468C129.113 21.5866 136.094 21.2927 139.86 21.2927C143.603 21.2927 149.373 21.8309 150.189 28.7611H143.186C143.009 27.5112 142.259 25.6996 139.86 25.6996C137.326 25.6996 135.719 27.0951 135.719 30.6465C135.719 34.1969 137.283 35.5915 139.551 35.5915C141.512 35.5915 142.679 34.6857 143.185 32.5802H150.189V32.5805ZM158.315 30.6471C158.315 27.0954 159.923 25.7002 162.456 25.7002C164.988 25.7002 166.597 27.0957 166.597 30.6471C166.597 34.1975 164.988 35.5921 162.456 35.5921C159.923 35.5918 158.315 34.1972 158.315 30.6471ZM151.707 30.6471C151.707 39.7051 158.689 39.9999 162.456 39.9999C166.222 39.9999 173.203 39.7054 173.203 30.6471C173.203 21.5869 166.222 21.293 162.456 21.293C158.689 21.293 151.707 21.5866 151.707 30.6471ZM28.8612 22.0785C29.2622 13.691 22.029 4.24552 12.1681 3.078L12.1849 2.96338C21.9063 2.96338 29.3587 11.963 29.3587 19.063C29.3494 20.5409 29.2327 21.4567 29.0245 22.1215L28.8612 22.0785ZM28.2721 23.1446C27.6254 23.9349 26.8119 24.7306 25.8589 25.486C24.1056 15.4024 16.6959 6.58508 11.4572 4.01147L11.345 4.08969C16.6134 8.41354 22.8972 16.8112 25.3408 25.8816C24.0944 26.7972 22.748 27.5683 21.3275 28.1799C16.3559 22.5105 11.721 11.5765 10.2274 4.63811L10.0755 4.68383C10.1092 11.4188 14.8909 22.8522 20.7222 28.4311C19.3848 28.9604 17.9944 29.3445 16.5749 29.577C10.9852 27.3626 7.0064 20.2702 7.0064 13.0048C7.0064 8.26192 8.45249 5.32791 8.73227 4.72745L8.61314 4.68022C8.2747 5.19224 6.15625 8.12474 6.15625 13.2452C6.15625 21.4576 10.2063 27.7347 15.5834 29.7115C13.6606 29.923 11.7164 29.8317 9.82188 29.441L9.78187 29.5662C10.3571 29.778 12.3085 30.5971 15.2856 30.5971C22.0191 30.5971 26.5709 26.4135 28.4033 23.2334L28.2721 23.1446Z" fill="white"/>
<path fill-rule="evenodd" clip-rule="evenodd" d="M14.6133 0C9.50877 0 3.52344 3.68398 3.52344 7.05148C3.52344 8.35408 4.71503 9.45452 7.18124 9.45452C12.9064 9.45452 18.2254 5.52115 18.2254 2.4626C18.2254 0.853157 16.6797 0 14.6133 0ZM16.6511 2.36754C16.6511 4.94566 11.7003 8.09717 7.56179 8.09717C5.73334 8.09717 4.74541 7.37758 4.74541 6.1902C4.74541 3.57508 9.75245 0.477118 13.6344 0.477118C16.1653 0.477118 16.6511 1.76498 16.6511 2.36754Z" fill="white"/>
<path fill-rule="evenodd" clip-rule="evenodd" d="M1.48957 8.6108C1.34607 8.85899 0.771484 9.9841 0.771484 11.1369C0.771484 13.2749 2.93175 15.2598 6.90513 15.2598C14.5489 15.2598 23.3801 9.63333 23.3801 4.4106C23.3801 2.06623 21.1609 0.791604 19.6201 0.528076L19.5912 0.619528C20.0704 0.771147 21.826 1.5873 21.826 3.67567C21.826 7.83707 14.0288 13.5071 6.26195 13.5071C3.28854 13.5071 1.41526 12.0394 1.41526 9.90137C1.41526 9.2251 1.55605 8.77957 1.59335 8.65051L1.48957 8.6108Z" fill="white"/>
<path fill-rule="evenodd" clip-rule="evenodd" d="M26.5312 4.80103C26.7408 4.96017 27.9998 6.00946 27.9998 7.99375C27.9998 14.7594 17.3991 21.4123 8.02735 21.4123C2.43851 21.4123 -0.109228 18.6528 0.00358393 16.2025H0.103761C0.322766 17.475 2.13738 19.752 7.02889 19.752C16.4124 19.752 26.8895 12.8681 26.8895 6.83675C26.8895 5.80219 26.6085 5.15751 26.4496 4.87082L26.5312 4.80103Z" fill="white"/>
<path fill-rule="evenodd" clip-rule="evenodd" d="M30.0745 11.1172C30.1185 11.2613 30.3468 11.909 30.3468 12.9234C30.3468 20.4496 19.6189 26.8928 10.2886 26.8928C5.48641 26.8928 2.97868 24.5601 2.44922 23.6128L2.53465 23.5496C3.86343 24.7117 6.48066 25.5947 9.53499 25.5947C17.7754 25.5947 30.0712 19.3254 29.9614 11.1446L30.0745 11.1172Z" fill="white"/>
</g>
</svg>
