<svg width="167" height="40" viewBox="0 0 167 40" fill="none" xmlns="http://www.w3.org/2000/svg">
<g opacity="0.7">
<path d="M61.8795 21.4859C60.8518 22.5728 58.7713 23.3089 56.6442 23.3089C54.1435 23.3089 52.1113 22.5486 50.5469 21.0245C48.9789 19.5039 48.2109 17.4933 48.2109 14.9774C48.2109 12.5565 48.9643 10.571 50.4286 9.00024C51.893 7.43036 53.9459 6.64844 56.5761 6.64844C58.679 6.64844 60.3444 7.2014 61.5525 8.28572L60.2668 10.3852C59.1699 9.66795 57.8861 9.29075 56.5761 9.30091C55.8634 9.27781 55.1537 9.40345 54.4921 9.66984C53.833 9.93529 53.2369 10.3362 52.7421 10.8466C51.7377 11.886 51.2475 13.2485 51.2475 14.9774C51.2475 16.6622 51.7498 18.0247 52.8129 19.0866C53.8751 20.1493 55.242 20.6573 56.9031 20.6573C58.3029 20.6672 59.6665 20.2127 60.7811 19.3648L61.8795 21.4859ZM68.1883 23.0575H65.666V6.90072H68.5395V18.3945L77.1144 6.90159H79.6384V23.0566H76.7649V11.5862L68.1883 23.0566V23.0575ZM97.5594 21.4859C96.5326 22.5728 94.4521 23.3089 92.3241 23.3089C89.8251 23.3089 87.7929 22.5486 86.2276 21.0245C84.6597 19.5039 83.8882 17.4933 83.8882 14.9774C83.8882 12.5565 84.6424 10.571 86.1094 9.00024C87.5764 7.43036 89.6266 6.64844 92.2568 6.64844C94.3589 6.64844 96.0243 7.2014 97.2333 8.28572L95.9467 10.3852C94.8501 9.66802 93.5665 9.29082 92.2568 9.30091C91.5441 9.27776 90.8344 9.4034 90.1729 9.66984C89.5139 9.93549 88.9178 10.3363 88.4229 10.8466C87.4184 11.886 86.9154 13.2485 86.9154 14.9774C86.9154 16.6622 87.4184 18.0247 88.4807 19.0866C89.5429 20.1493 90.9098 20.6573 92.5709 20.6573C93.9707 20.6674 95.3344 20.2128 96.4489 19.3648L97.5594 21.4859ZM99.3112 9.55666V6.90072H112.794V9.55579H107.491V23.0558H104.617V9.55666H99.3112ZM116.228 23.0575V6.90072H125.691V9.55666H119.101V13.5708H124.99V16.2259H119.101V20.4016H125.924V23.0575H116.228ZM130.597 23.0575V6.90072H133.496L139.08 14.4469L144.409 6.90159H147.119V23.0566H144.268V11.378L139.104 18.5561H138.683L133.474 11.4471V23.0575H130.597ZM158.587 10.5243L156.18 16.2699H160.971L158.587 10.5243ZM150.48 23.0566L157.396 6.85407H159.908L166.827 23.0566H163.764L162.058 18.9259H155.072L153.366 23.0566H150.48ZM50.5123 31.7191V33.4816C50.7971 33.5024 51.018 33.5093 51.1768 33.5093C51.9534 33.5093 52.3555 33.1697 52.3555 32.5788C52.3555 31.9878 51.9603 31.6785 51.2173 31.6785C50.9818 31.6796 50.7465 31.6932 50.5123 31.7191ZM49.9281 29.2601H52.6584V29.8045H50.5123V31.1627C50.7579 31.1354 51.0048 31.1218 51.2519 31.1221C52.3219 31.1221 52.9397 31.6551 52.9397 32.5243C52.9397 33.5058 52.2528 34.045 51.087 34.045H49.9281V29.261V29.2601ZM57.3924 34.0286V29.8036H55.6424L55.5604 30.7039C55.2782 33.7262 54.6285 34.1305 53.8717 34.0286V33.4479C54.0443 33.4687 54.1608 33.4479 54.3532 33.2173C54.4705 33.0635 54.5586 32.8915 54.6147 32.7075C54.8476 31.8953 54.9831 31.0581 55.0168 30.2149L55.0858 29.2601H57.974V34.0147L57.3924 34.0286ZM61.3911 30.004L60.5265 32.0431H62.2454L61.3929 30.0049L61.3911 30.004ZM59.0846 34.0286L61.1478 29.2334H61.6535L63.7158 34.0286H63.0902L62.4689 32.5822H60.2711L59.6558 34.0286H59.0846ZM64.8419 34.0286V29.261H67.5308V29.8045H65.4261V34.0294H64.8419V34.0286ZM69.1833 33.0064C69.352 33.1831 69.5556 33.3226 69.7811 33.4162C70.0066 33.5098 70.2491 33.5553 70.4932 33.5499C70.7398 33.5585 70.9855 33.5145 71.2139 33.4208C71.4422 33.3271 71.6481 33.1859 71.8178 33.0064C72.1629 32.6375 72.3476 32.1502 72.3329 31.6482C72.3408 31.3976 72.298 31.148 72.2069 30.9144C72.1159 30.6808 71.9785 30.4681 71.8031 30.2892C71.6308 30.1163 71.4261 29.9794 71.2006 29.8863C70.9752 29.7931 70.7336 29.7457 70.4897 29.7466C69.9976 29.7467 69.5254 29.9418 69.1764 30.2892C69.0031 30.4695 68.8674 30.6825 68.777 30.9158C68.6867 31.1491 68.6435 31.3981 68.65 31.6482C68.6421 32.1536 68.8337 32.6418 69.1833 33.0064ZM68.7294 29.8986C68.9594 29.6662 69.2346 29.4836 69.538 29.362C69.8414 29.2404 70.1665 29.1825 70.4932 29.1919C70.8195 29.1852 71.1437 29.244 71.447 29.3648C71.7502 29.4856 72.0262 29.6659 72.2587 29.8952C72.4891 30.1229 72.6698 30.3959 72.7897 30.697C72.9095 30.9981 72.9658 31.3208 72.9551 31.6448C72.9678 31.9691 72.9132 32.2925 72.7948 32.5947C72.6764 32.8969 72.4969 33.1712 72.2673 33.4004C71.7892 33.8459 71.1601 34.0932 70.507 34.0925C69.8539 34.0932 69.2248 33.8459 68.7466 33.4004C68.2994 32.9262 68.05 32.2988 68.0494 31.6465C68.0494 30.9959 68.2979 30.3687 68.7466 29.8926L68.7294 29.8986ZM73.4176 29.8045V29.2601H77.3819V29.8045H75.6931V34.0294H75.1055V29.8045H73.4176ZM79.0343 31.8556V33.4756C79.2475 33.4955 79.4951 33.5024 79.7808 33.5024C80.5022 33.5024 80.9086 33.2034 80.9086 32.6297C80.9086 32.1338 80.5091 31.8556 79.8144 31.8556H79.0343ZM79.0343 29.8174V31.3597H79.8075C79.9224 31.3727 80.0388 31.3619 80.1494 31.328C80.26 31.2941 80.3624 31.2379 80.4504 31.1627C80.5376 31.0882 80.6081 30.9962 80.6574 30.8925C80.7066 30.7889 80.7334 30.676 80.736 30.5613C80.736 30.0516 80.4133 29.7976 79.7601 29.7976C79.622 29.7976 79.3778 29.7976 79.0343 29.8174ZM78.4501 29.2817C78.8913 29.2675 79.3325 29.2583 79.7739 29.2541C80.8534 29.2541 81.3245 29.7155 81.3245 30.4326C81.3323 30.6814 81.2546 30.9259 81.1045 31.1264C80.953 31.3274 80.7384 31.4716 80.4953 31.5359C80.7774 31.5592 81.0398 31.6897 81.2262 31.9005C81.4125 32.1105 81.5101 32.3844 81.4962 32.6634C81.4962 33.5905 80.8085 34.0493 79.7463 34.0493C79.2544 34.0493 78.8281 34.0493 78.4501 34.0216V29.2809V29.2817ZM83.751 33.0064C83.9199 33.1832 84.1236 33.3229 84.3493 33.4166C84.5749 33.5103 84.8176 33.556 85.0618 33.5508C85.3084 33.5593 85.554 33.5152 85.7822 33.4213C86.0105 33.3275 86.2161 33.1861 86.3855 33.0064C86.7307 32.6375 86.9162 32.1502 86.9016 31.6482C86.9092 31.3978 86.8661 31.1484 86.7751 30.915C86.6841 30.6816 86.5468 30.469 86.3717 30.29C86.2034 30.1126 86 29.9723 85.7744 29.8781C85.5489 29.7839 85.3062 29.7379 85.0618 29.7431C84.8167 29.7351 84.5727 29.779 84.3457 29.8721C84.1188 29.9651 83.914 30.1052 83.745 30.2831C83.5711 30.4628 83.4349 30.6756 83.3445 30.9089C83.2541 31.1422 83.2113 31.3912 83.2186 31.6413C83.2074 32.1459 83.399 32.6349 83.751 32.9995V33.0064ZM83.2946 29.8926C83.7694 29.4414 84.398 29.1882 85.0525 29.1843C85.7071 29.1805 86.3386 29.4263 86.8187 29.8719C87.2692 30.3505 87.5203 30.9795 87.5203 31.6327C87.5203 32.2867 87.2692 32.9157 86.8187 33.3935C86.5855 33.6178 86.3101 33.7933 86.0085 33.9099C85.7068 34.0265 85.385 34.0818 85.0618 34.0726C84.5746 34.0636 84.1004 33.9142 83.6958 33.6423C83.2935 33.3723 82.9787 32.9907 82.7898 32.5442C82.6037 32.0987 82.5523 31.6083 82.642 31.1339C82.7318 30.6594 82.9587 30.2218 83.2946 29.8753V29.8926ZM89.4541 29.8036V31.6439C89.7147 31.6655 89.9485 31.6785 90.1409 31.6785C90.8529 31.6785 91.2791 31.3191 91.2791 30.7177C91.2791 30.1164 90.915 29.7906 90.1686 29.7906H89.4403L89.4541 29.8036ZM89.4403 34.0156H88.8517V29.2463H90.1142C90.3598 29.2226 90.6076 29.2476 90.8435 29.32C91.0794 29.3923 91.2987 29.5106 91.4888 29.668C91.6261 29.8091 91.7342 29.9759 91.8068 30.159C91.8794 30.3421 91.9152 30.5377 91.9121 30.7347C91.909 30.9316 91.867 31.126 91.7886 31.3067C91.7102 31.4873 91.5969 31.6507 91.4552 31.7873C91.2813 31.9422 91.0781 32.0605 90.8577 32.1352C90.6373 32.2098 90.4041 32.2393 90.172 32.2219C89.9045 32.2219 89.6638 32.2219 89.4506 32.1951L89.4403 34.0156ZM93.7764 34.0286H93.2578V29.261H93.8455V33.0747L96.7751 29.261H97.2911V34.0286H96.706V30.2149L93.7764 34.0286ZM98.3594 29.8045V29.2601H102.324V29.8045H100.636V34.0294H100.047V29.8045H98.3594ZM103.394 34.0286V29.261H106.117V29.8045H103.978V31.3424H105.911V31.8893H103.978V33.4825H106.185V34.0294H103.394V34.0286ZM110.604 34.0286V29.8036H108.853L108.771 30.7039C108.489 33.727 107.839 34.1305 107.083 34.0286V33.4479C107.254 33.4687 107.372 33.4479 107.564 33.2173C107.681 33.0643 107.769 32.8915 107.826 32.7075C108.057 31.8953 108.191 31.059 108.224 30.2149L108.293 29.261H111.185V34.0156L110.604 34.0286ZM113.498 31.5834V33.4756L114.114 33.4955C114.919 33.4955 115.376 33.1559 115.376 32.4759C115.376 31.8711 114.926 31.5394 114.134 31.5394C113.922 31.5413 113.709 31.5549 113.498 31.58V31.5834ZM113.498 29.2567V31.0262C113.791 31.0063 114.018 30.9916 114.186 30.9916C115.4 30.9916 116.005 31.5394 116.005 32.463C116.005 33.4652 115.29 34.0389 114.056 34.0389H112.925V29.2463L113.498 29.2567ZM120.579 34.0286V31.8686H117.924V34.0286H117.34V29.261H117.924V31.326H120.579V29.261H121.167V34.0286H120.579ZM126.683 29.2472H127.267V34.0018H126.683V29.2472ZM123.478 31.5705V33.4626L124.055 33.4825C124.878 33.4825 125.283 33.143 125.283 32.463C125.283 31.8582 124.857 31.5264 124.076 31.5264C123.876 31.5291 123.676 31.5426 123.478 31.567V31.5705ZM123.478 29.2437V31.0132C123.767 30.9925 123.98 30.9786 124.117 30.9786C125.304 30.9786 125.902 31.5264 125.902 32.45C125.902 33.4523 125.194 34.026 123.987 34.026H122.89V29.2472L123.478 29.2437ZM130.317 28.1706C130.37 28.3169 130.472 28.4404 130.605 28.5206C130.739 28.6019 130.897 28.6354 131.053 28.6156C131.458 28.6156 131.696 28.4627 131.764 28.1706H132.314C132.252 28.683 131.723 29.0225 131.053 29.0225C130.382 29.0225 129.845 28.683 129.763 28.1706H130.317ZM129.508 34.0286H128.993V29.2472H129.577V33.0609L132.507 29.2472H133.026V34.0018H132.439V30.2149L129.508 34.0286ZM139.01 30.2356V32.9252C140.065 32.9252 140.691 32.4535 140.691 31.567C140.691 30.6806 140.072 30.2088 139.003 30.2088L139.01 30.2356ZM138.414 32.9252V30.2356C137.383 30.2356 136.74 30.7384 136.74 31.5938C136.74 32.4492 137.383 32.9529 138.407 32.9529L138.414 32.9252ZM138.407 34.1106V33.4825C137.811 33.513 137.223 33.338 136.74 32.9866C136.537 32.8201 136.375 32.6086 136.267 32.3686C136.16 32.1287 136.11 31.8669 136.121 31.6042C136.107 31.3421 136.156 31.0805 136.264 30.8413C136.372 30.602 136.535 30.392 136.74 30.2287C137.224 29.8729 137.815 29.6942 138.414 29.7224V29.2334H139.003V29.7224C139.606 29.6944 140.202 29.873 140.691 30.2287C140.896 30.392 141.06 30.6018 141.169 30.8409C141.278 31.0801 141.328 31.3417 141.316 31.6042C141.327 31.8682 141.275 32.1311 141.166 32.3713C141.056 32.6116 140.891 32.8224 140.684 32.9866C140.203 33.3375 139.617 33.5125 139.023 33.4825H139.003V34.1106H138.407ZM143.373 33.0064C143.542 33.1822 143.746 33.3211 143.971 33.4146C144.196 33.5081 144.439 33.5541 144.682 33.5499C144.929 33.5586 145.175 33.5146 145.403 33.4209C145.631 33.3272 145.837 33.1859 146.006 33.0064C146.351 32.64 146.537 32.1515 146.522 31.6482C146.53 31.3978 146.487 31.1484 146.396 30.915C146.305 30.6816 146.168 30.469 145.992 30.29C145.644 29.942 145.171 29.7466 144.679 29.7466C144.187 29.7466 143.714 29.942 143.366 30.29C143.193 30.4705 143.058 30.6835 142.968 30.9166C142.878 31.1498 142.836 31.3985 142.843 31.6482C142.833 32.1534 143.023 32.6418 143.373 33.0064ZM142.919 29.8995C143.393 29.4489 144.021 29.1962 144.675 29.1928C145.331 29.1893 145.963 29.4347 146.439 29.8788C146.747 30.1604 146.977 30.5138 147.11 30.9061C147.242 31.2985 147.274 31.718 147.201 32.1257C147.128 32.5335 146.954 32.9163 146.695 33.2389C146.297 33.728 145.731 34.0511 145.107 34.1454C144.484 34.2396 143.848 34.0982 143.323 33.7486C142.977 33.5176 142.695 33.2033 142.502 32.8345C142.309 32.4682 142.212 32.0588 142.221 31.6448C142.211 31.3229 142.267 31.0025 142.385 30.703C142.504 30.4027 142.682 30.1294 142.908 29.8995H142.919ZM151.728 34.0294V31.8694H149.074V34.0294H148.49V29.2601H149.074V31.3251H151.728V29.2601H152.317V34.0294H151.728ZM155.281 30.6564C155.247 31.2821 155.148 31.9027 154.986 32.5079C154.908 32.8535 154.772 33.1818 154.583 33.4825H157.048V29.8045H155.329L155.281 30.6564ZM153.417 34.9124V33.4825H153.954C154.17 33.141 154.328 32.7658 154.421 32.3723C154.613 31.6681 154.722 30.9441 154.745 30.2157L154.792 29.261H157.633V33.4825H158.29V34.9124H157.736V34.0294H153.985V34.9124H153.417Z" fill="white"/>
<path d="M7.19359 24.9997C8.55792 24.9997 9.58653 24.7169 10.5266 23.7962L18.989 15.2462C19.7547 14.5392 20.7613 14.1509 21.8034 14.1605H39.2876C37.709 9.15122 34.271 4.9548 29.6965 2.45195C25.1308 -0.0499806 19.7672 -0.6658 14.7531 0.736239C9.73796 2.13838 5.45781 5.44908 2.80771 9.97264C0.155701 14.5066 -0.656763 19.8848 0.537632 24.9997H7.19287H7.19359Z" fill="white"/>
<path d="M32.817 15C31.4499 15 30.4212 15.2821 29.4812 16.2036L21.0188 24.7564C20.2529 25.4628 19.2463 25.8504 18.2044 25.84H0.71875C2.29881 30.8492 5.73679 35.0449 10.3105 37.5478C14.8759 40.0495 20.239 40.665 25.2525 39.2628C30.2648 37.8607 34.5457 34.5507 37.1958 30.0271C39.8487 25.4936 40.6631 20.1157 39.4716 15H32.8178H32.817Z" fill="white"/>
</g>
</svg>
