<svg width="201" height="35" viewBox="0 0 201 35" fill="none" xmlns="http://www.w3.org/2000/svg">
<g opacity="0.7">
<path d="M41.7396 8.83774L34.2634 1.32237C33.8861 0.942789 33.438 0.64165 32.9449 0.436218C32.4519 0.230755 31.9231 0.125 31.3894 0.125C30.8555 0.125 30.327 0.230755 29.8337 0.436218C29.3406 0.64165 28.8925 0.942789 28.5152 1.32237L21.4691 8.40549L14.4194 1.32237C14.0418 0.942789 13.594 0.64165 13.1006 0.436218C12.6075 0.230755 12.079 0.125 11.5451 0.125C11.0113 0.125 10.4827 0.230755 9.98948 0.436218C9.49632 0.64165 9.04828 0.942789 8.67092 1.32237L1.19108 8.83774C0.813482 9.21708 0.513932 9.66751 0.309569 10.1633C0.105206 10.659 0 11.1904 0 11.7271C0 12.2637 0.105206 12.7951 0.309569 13.2909C0.513932 13.7866 0.813482 14.2369 1.19108 14.6163L8.23709 21.6997L21.4652 34.9973L34.6895 21.6997L41.7356 14.6163C42.1138 14.2372 42.4134 13.7872 42.6181 13.2915C42.8228 12.7959 42.9282 12.2645 42.9288 11.7278C42.9291 11.1912 42.824 10.6598 42.6199 10.1639C42.4162 9.66796 42.1168 9.21733 41.7396 8.83774Z" fill="white"/>
<path d="M61.576 8.83774L54.1001 1.32237C53.7228 0.942789 53.2747 0.64165 52.7816 0.436218C52.2883 0.230755 51.7595 0.125 51.2259 0.125C50.6922 0.125 50.1634 0.230755 49.6704 0.436218C49.177 0.64165 48.7289 0.942789 48.3516 1.32237L41.3058 8.40549L34.2598 1.32237C33.8825 0.942789 33.4344 0.64165 32.941 0.436218C32.448 0.230755 31.9195 0.125 31.3855 0.125C30.8519 0.125 30.3231 0.230755 29.83 0.436218C29.3367 0.64165 28.8886 0.942789 28.5113 1.32237L21.0314 8.83774C20.2708 9.60485 19.8438 10.6439 19.8438 11.7271C19.8438 12.8102 20.2708 13.8493 21.0314 14.6163L28.0775 21.6997L41.3058 34.9973L54.5339 21.6997L61.58 14.6163C61.9572 14.2369 62.2566 13.786 62.4603 13.2903C62.6644 12.7944 62.7695 12.2629 62.7692 11.7263C62.7686 11.1896 62.6635 10.6583 62.4585 10.1627C62.2538 9.66705 61.9542 9.21681 61.576 8.83774Z" fill="white"/>
<path d="M82.292 17.3189L79.0127 11.2462H76.199V17.3189H72.7031V0.428564H79.9178C80.6372 0.392579 81.356 0.502061 82.0324 0.750474C82.7084 0.998886 83.3276 1.38113 83.853 1.87441C84.3631 2.39699 84.7593 3.02049 85.0159 3.70513C85.2722 4.38976 85.3831 5.12045 85.3419 5.85051C85.3419 8.17704 84.3515 9.84634 82.6396 10.681L86.2207 17.3189H82.292ZM76.166 8.17047H79.4456C80.0614 8.17047 80.6516 7.92533 81.0872 7.48908C81.5225 7.05274 81.7672 6.46097 81.7672 5.84394C81.7672 5.22691 81.5225 4.63514 81.0872 4.19886C80.6516 3.76255 80.0614 3.51744 79.4456 3.51744H76.166V8.17047Z" fill="white"/>
<path d="M101.83 3.16735H94.404V6.92101H100.846V9.98053H94.404V14.1452H101.85V17.3194H90.8672V0H101.83V3.16735Z" fill="white"/>
<path d="M117.482 3.49224H110.335V7.15434H116.163V10.2247H110.335V17.3189H106.922V0.421875H117.482V3.49224Z" fill="white"/>
<path d="M136.946 2.38903C137.784 3.20374 138.439 4.18303 138.868 5.26334C139.297 6.34363 139.49 7.50077 139.436 8.65965C139.489 9.82229 139.294 10.9829 138.866 12.0672C138.437 13.1515 137.783 14.1355 136.946 14.9566C135.182 16.4797 132.917 17.3194 130.571 17.3194C128.226 17.3194 125.961 16.4797 124.196 14.9566C123.36 14.1351 122.708 13.1507 122.28 12.0664C121.853 10.9822 121.659 9.82183 121.712 8.65965C121.657 7.50123 121.849 6.34424 122.277 5.26389C122.705 4.18358 123.359 3.20407 124.196 2.38903C125.952 0.850078 128.221 0 130.571 0C132.921 0 135.19 0.850078 136.946 2.38903ZM126.753 4.58833C126.246 5.13654 125.855 5.77917 125.604 6.4784C125.354 7.17764 125.247 7.9193 125.292 8.65965C125.251 9.3997 125.359 10.1403 125.611 10.8389C125.861 11.5375 126.249 12.1806 126.753 12.731C127.247 13.2341 127.844 13.6284 128.505 13.8877C129.165 14.1471 129.874 14.2662 130.584 14.2366C131.288 14.2683 131.99 14.1504 132.643 13.8905C133.296 13.6308 133.885 13.2352 134.369 12.731C134.873 12.1806 135.261 11.5375 135.512 10.8389C135.763 10.1403 135.871 9.3997 135.83 8.65965C135.875 7.9193 135.768 7.17764 135.518 6.4784C135.267 5.77917 134.876 5.13654 134.369 4.58833C133.884 4.0854 133.296 3.69079 132.642 3.4311C131.989 3.17142 131.287 3.05265 130.584 3.08286C129.874 3.05491 129.166 3.17453 128.506 3.43388C127.846 3.69326 127.249 4.08659 126.753 4.58833Z" fill="white"/>
<path d="M154.104 17.3189L150.825 11.2462H148.011V17.3189H144.516V0.428564H151.73C152.449 0.392579 153.169 0.502061 153.845 0.750474C154.521 0.998886 155.14 1.38113 155.665 1.87441C156.176 2.39699 156.572 3.02049 156.828 3.70513C157.085 4.38976 157.196 5.12045 157.154 5.85051C157.154 8.17704 156.164 9.84634 154.445 10.681L158.033 17.3189H154.104ZM147.972 8.17047H151.284C151.9 8.17047 152.49 7.92533 152.926 7.48908C153.361 7.05274 153.606 6.46097 153.606 5.84394C153.606 5.22691 153.361 4.63514 152.926 4.19886C152.49 3.76255 151.9 3.51744 151.284 3.51744H147.972V8.17047Z" fill="white"/>
<path d="M177.042 0.421875V10.3035C177.042 12.5052 176.385 14.2406 175.123 15.4839C173.635 16.671 171.779 17.3189 169.864 17.3189C167.949 17.3189 166.093 16.671 164.606 15.4839C163.291 14.2602 162.68 12.5246 162.68 10.3035V0.421875H166.164V10.2582C166.164 12.8484 167.445 14.2602 169.884 14.2602C172.323 14.2602 173.591 12.8614 173.591 10.2582V0.421875H177.042Z" fill="white"/>
<path d="M200.695 17.2666H197.225V9.78747L191.636 17.3194L186.028 9.82046V17.2996H182.531V0L191.636 11.9442L200.695 0V17.2666Z" fill="white"/>
<path d="M80.5137 31.49L82.5869 26.4414H84.0068L80.5353 34.7937L78.3576 29.6028L76.1799 34.7937L72.6953 26.4414H74.1155L76.1909 31.49L78.3402 26.332L80.5137 31.49Z" fill="white"/>
<path d="M86.7206 34.6514H85.4141V26.4414H86.7206V34.6514Z" fill="white"/>
<path d="M93.756 31.555V26.4407H95.0625V34.782L90.0646 29.5584V34.6506H88.7578V26.3008L93.756 31.555Z" fill="white"/>
<path d="M102.092 31.555V26.4407H103.398V34.782L98.4006 29.5584V34.6506H97.0938V26.3008L102.092 31.555Z" fill="white"/>
<path d="M106.744 34.6514H105.438V26.4414H106.744V34.6514Z" fill="white"/>
<path d="M113.778 31.555V26.4407H115.085V34.782L110.096 29.5584V34.6506H108.789V26.3008L113.778 31.555Z" fill="white"/>
<path d="M124.671 30.3477V30.7855C124.671 32.0049 124.322 32.9748 123.634 33.6951C122.946 34.4154 122.018 34.7701 120.849 34.7701C120.31 34.7906 119.774 34.7007 119.271 34.5068C118.768 34.3125 118.31 34.0177 117.924 33.6404C117.17 32.8829 116.789 31.8519 116.789 30.5557C116.789 29.2596 117.159 28.2283 117.913 27.4711C118.667 26.7135 119.655 26.3414 120.838 26.3414C121.719 26.3167 122.583 26.587 123.294 27.1097C123.981 27.614 124.449 28.364 124.601 29.2049L123.257 29.424C123.039 28.2262 122.133 27.5016 120.833 27.5016C119.174 27.5016 118.115 28.5787 118.115 30.5536C118.115 32.5282 119.185 33.6053 120.833 33.6053C122.155 33.6053 123.061 32.9134 123.268 31.5079H121.426V30.3566L124.671 30.3477Z" fill="white"/>
<path d="M135.422 27.5952H132.517V34.6514H131.21V27.5952H128.305V26.4414H135.413L135.422 27.5952Z" fill="white"/>
<path d="M143.199 34.6514H141.893V30.9973H138.049V34.6514H136.742V26.4414H138.049V29.8328H141.893V26.4414H143.199V34.6514Z" fill="white"/>
<path d="M150.365 27.5952H146.532V29.8545H149.884V30.9863H146.532V33.4887H150.365V34.6514H145.234V26.4414H150.365V27.5952Z" fill="white"/>
<path d="M162.119 34.6514H160.812V30.9973H156.971V34.6514H155.664V26.4414H156.971V29.8328H160.812V26.4414H162.119V34.6514Z" fill="white"/>
<path d="M169.287 27.5952H165.454V29.8545H168.806V30.9863H165.454V33.4887H169.287V34.6514H164.156V26.4414H169.287V27.5952Z" fill="white"/>
<path d="M178.203 34.6521H176.785L176.042 33.1195H172.34L171.6 34.6521H170.18L174.187 26.2891L178.203 34.6521ZM172.898 31.9526H175.496L174.189 29.2641L172.898 31.9526Z" fill="white"/>
<path d="M184.356 34.6505L182.631 31.5111H180.83V34.6505H179.523V26.4405H182.821C183.159 26.424 183.496 26.4748 183.815 26.5899C184.133 26.7048 184.426 26.8816 184.676 27.1108C185.147 27.5485 185.386 28.1747 185.386 28.976C185.386 30.1295 184.85 30.9286 183.977 31.2921L185.813 34.6505H184.356ZM180.83 30.3485H182.675C183.494 30.3485 184.071 29.8536 184.071 28.976C184.071 28.0981 183.494 27.5943 182.675 27.5943H180.83V30.3485Z" fill="white"/>
<path d="M193.611 27.5952H190.708V34.6514H189.401V27.5952H186.5V26.4414H193.606L193.611 27.5952Z" fill="white"/>
<path d="M199.653 26.9682C199.916 27.1777 200.128 27.4441 200.273 27.7474C200.419 28.0505 200.494 28.3831 200.494 28.7198L199.174 28.7964C199.131 27.9732 198.521 27.4673 197.613 27.4673C196.652 27.4673 196.088 27.9732 196.088 28.7088C196.074 28.8704 196.103 29.0326 196.175 29.178C196.246 29.3234 196.357 29.4459 196.493 29.532C196.938 29.7547 197.412 29.9133 197.9 30.0028C198.85 30.2346 199.397 30.4405 199.921 30.782C200.446 31.1236 200.697 31.638 200.697 32.3409C200.697 33.1421 200.422 33.7574 199.867 34.1621C199.244 34.5886 198.501 34.8006 197.748 34.7667C196.943 34.8006 196.15 34.5699 195.487 34.1096C195.204 33.8964 194.974 33.6196 194.815 33.3019C194.656 32.9839 194.572 32.6332 194.57 32.2773L195.892 32.2007C195.947 33.0765 196.711 33.6391 197.748 33.6391C198.741 33.6391 199.375 33.2319 199.375 32.4087C199.385 32.2413 199.348 32.0745 199.269 31.9273C199.189 31.7797 199.071 31.6575 198.926 31.5744C198.451 31.3328 197.944 31.1596 197.421 31.06C196.882 30.9503 196.358 30.7768 195.86 30.5435C195.139 30.1931 194.801 29.6982 194.758 28.7439C194.748 28.4222 194.809 28.1024 194.934 27.8067C195.06 27.511 195.249 27.2468 195.487 27.0317C195.979 26.5704 196.678 26.3401 197.584 26.3401C198.443 26.3313 199.126 26.5393 199.653 26.9682Z" fill="white"/>
</g>
</svg>
