<svg width="52" height="40" viewBox="0 0 52 40" fill="none" xmlns="http://www.w3.org/2000/svg">
<path opacity="0.7" d="M0 18.8472H51.2382V21.854H0V18.8472ZM0 40H3.13829V36.5987H21.0826V24.8521H0V40ZM3.13829 27.8589H17.9443V33.5919H3.13829V27.8589ZM24.1508 36.5987H36.0289V40H39.2987V36.5987H51.2382V24.8521H24.1508V36.5987ZM39.2987 27.8589H48.0999V33.5919H39.2987V27.8589ZM27.2891 27.8589H36.0289V33.5919H27.2891V27.8589ZM46.9691 2.93666H50.4054V0H35.7133V15.8054H45.4701C49.634 15.8054 51.3522 13.7103 51.3522 10.8963C51.3522 8.1087 49.7567 6.05742 45.5665 6.05742H39.1672V2.93666H46.9691ZM45.5665 8.97655C47.162 8.97655 47.7756 9.88823 47.7756 10.9314C47.7756 11.9746 47.162 12.86 45.5665 12.86H39.1672V8.96778H45.5665V8.97655ZM25.7638 12.8687H18.2687V15.8142H26.0881C30.7166 15.8142 33.8725 12.6057 33.8725 7.90708C33.8725 3.20842 30.7166 0 26.0881 0H18.2687V2.94543H25.7725V2.9542C27.9816 2.9542 29.6121 4.33048 30.103 6.47819H19.9606V9.34473H30.103C29.6033 11.4837 27.9816 12.8687 25.7638 12.8687ZM15.8317 4.33925C15.8317 1.7357 14.096 0 9.93206 0H0.0175323V15.8142H10.5369C14.7009 15.8142 16.419 13.8944 16.419 11.2558C16.419 9.52005 15.6739 8.24019 13.9119 7.58273C15.2356 6.92527 15.8317 5.82073 15.8317 4.33925ZM3.4714 2.93666H10.046C11.6239 2.93666 12.2551 3.88341 12.2551 4.89152C12.2551 5.8821 11.6415 6.67105 10.046 6.67105H3.4714V2.93666ZM10.6421 12.8863H3.4714V9.08175H10.6421C12.2639 9.08175 12.8512 9.94959 12.8512 10.9752C12.8512 12.0009 12.2551 12.8863 10.6421 12.8863Z" fill="white"/>
</svg>
