<svg width="204" height="40" viewBox="0 0 204 40" fill="none" xmlns="http://www.w3.org/2000/svg">
<g opacity="0.7">
<path d="M154.663 4.86719C154.747 5.8685 155.609 6.54537 157.026 6.54537C158.325 6.54537 159.294 5.8685 159.333 4.86719H157.972C157.922 5.37624 157.558 5.54965 157.026 5.54965C156.494 5.54965 156.119 5.32589 156.024 4.86719H154.663ZM154.629 15.1377L158.964 9.26962V15.1321H160.42V6.86982H159.143L154.803 12.749V6.86982H153.352V15.1321L154.629 15.1377ZM145.266 15.1377L149.606 9.26962V15.1321H151.056V6.86982H149.785L145.445 12.749V6.86982H143.995V15.1321L145.266 15.1377ZM136.048 15.1377H137.504V10.8695L140.864 15.1321H142.712L139.095 10.7184L142.499 6.86982H140.747L137.487 10.7856V6.86982H136.031L136.048 15.1377ZM134.055 13.2581C133.49 13.6875 132.799 13.9194 132.089 13.9182C131.706 13.9337 131.323 13.8687 130.966 13.7276C130.609 13.5865 130.286 13.3724 130.017 13.0989C129.748 12.8254 129.539 12.4987 129.404 12.1398C129.269 11.7809 129.211 11.3977 129.233 11.0149C129.233 9.22486 130.392 8.11167 131.927 8.11167C132.592 8.0942 133.246 8.29026 133.791 8.67106L134.447 7.59703C133.734 7.02536 132.84 6.72943 131.927 6.76353C129.199 6.76353 127.693 8.64869 127.693 11.0205C127.661 11.5888 127.749 12.1575 127.952 12.6894C128.155 13.2212 128.468 13.7042 128.871 14.1067C129.274 14.5092 129.757 14.8221 130.29 15.0248C130.822 15.2275 131.391 15.3156 131.96 15.2831C132.93 15.3214 133.878 14.9871 134.609 14.3489L134.055 13.2581ZM120.262 4.86719C120.346 5.8685 121.208 6.54537 122.625 6.54537C123.924 6.54537 124.865 5.8685 124.932 4.86719H123.571C123.527 5.37624 123.157 5.54965 122.625 5.54965C122.093 5.54965 121.718 5.32589 121.623 4.86719H120.262ZM120.228 15.1377L124.563 9.26962V15.1321H126.019V6.86982H124.742L120.407 12.749V6.86982H118.951V15.1321L120.228 15.1377ZM110.871 15.1377L115.205 9.26962V15.1321H116.655V6.86982H115.379L111.055 12.749V6.86982H109.605V15.1321L110.871 15.1377ZM107.594 13.2581C107.032 13.6874 106.343 13.9194 105.634 13.9182C105.251 13.9344 104.868 13.8702 104.511 13.7298C104.154 13.5894 103.83 13.3759 103.561 13.1029C103.291 12.83 103.082 12.5037 102.946 12.145C102.81 11.7864 102.751 11.4033 102.773 11.0205C102.773 9.23046 103.932 8.11726 105.466 8.11726C106.134 8.10095 106.789 8.29684 107.337 8.67666L107.986 7.60262C107.275 7.03006 106.38 6.73401 105.466 6.76913C102.739 6.76913 101.238 8.65428 101.238 11.0261C101.205 11.5946 101.293 12.1637 101.495 12.696C101.698 13.2283 102.011 13.7116 102.414 14.1143C102.817 14.517 103.301 14.8298 103.834 15.0322C104.367 15.2346 104.937 15.322 105.506 15.2887C106.474 15.3273 107.42 14.9929 108.149 14.3545L107.594 13.2581ZM99.8553 13.2581C99.2924 13.6874 98.6035 13.9194 97.8952 13.9182C97.5118 13.9344 97.1291 13.8702 96.772 13.7298C96.4148 13.5894 96.091 13.3759 95.8215 13.1029C95.5519 12.83 95.3426 12.5037 95.2069 12.145C95.0712 11.7864 95.0122 11.4033 95.0336 11.0205C95.0336 9.23046 96.1928 8.11726 97.7272 8.11726C98.3927 8.09979 99.0463 8.29585 99.592 8.67666L100.247 7.60262C99.535 7.03096 98.6403 6.73503 97.7272 6.76913C95 6.76913 93.4992 8.65428 93.4992 11.0261C93.4659 11.5941 93.5532 12.1627 93.7556 12.6946C93.9579 13.2264 94.2705 13.7095 94.673 14.1121C95.0755 14.5147 95.5587 14.8277 96.0909 15.0304C96.6231 15.2332 97.1922 15.3212 97.7608 15.2887C98.7366 15.3208 99.6872 14.9762 100.415 14.3265L99.8553 13.2581ZM85.3568 11.0205C85.2972 10.6227 85.3243 10.2167 85.4361 9.8302C85.5479 9.44375 85.7418 9.08593 86.0047 8.78117C86.2676 8.4764 86.5931 8.23187 86.9592 8.06424C87.3253 7.89661 87.7233 7.80983 88.126 7.80983C88.5287 7.80983 88.9267 7.89661 89.2928 8.06424C89.6588 8.23187 89.9844 8.4764 90.2473 8.78117C90.5101 9.08593 90.7041 9.44375 90.8159 9.8302C90.9277 10.2167 90.9548 10.6227 90.8952 11.0205C90.8952 12.6539 89.8592 13.9238 88.0952 13.9238C87.7236 13.9159 87.3572 13.8341 87.0176 13.6833C86.6779 13.5326 86.3717 13.3157 86.1168 13.0455C85.8619 12.7752 85.6634 12.457 85.5329 12.1093C85.4025 11.7617 85.3426 11.3915 85.3568 11.0205ZM83.8168 11.0205C83.7969 11.5855 83.8943 12.1486 84.1027 12.6742C84.3112 13.1998 84.6262 13.6767 85.028 14.0749C85.4298 14.4731 85.9097 14.784 86.4375 14.9881C86.9653 15.1922 87.5297 15.285 88.0952 15.2607C88.6632 15.2837 89.23 15.1904 89.7606 14.9867C90.2913 14.783 90.7746 14.4731 91.1811 14.076C91.5875 13.6789 91.9084 13.2031 92.124 12.6776C92.3397 12.1522 92.4456 11.5883 92.4352 11.0205C92.4604 10.447 92.365 9.87468 92.155 9.34034C91.9451 8.80601 91.6253 8.32158 91.2163 7.91833C90.8073 7.51509 90.3183 7.20198 89.7807 6.99921C89.2431 6.79645 88.6689 6.70854 88.0952 6.74115C87.5282 6.72407 86.9638 6.82313 86.4366 7.03222C85.9094 7.2413 85.4306 7.55599 85.0298 7.9569C84.629 8.35781 84.3146 8.83645 84.106 9.36334C83.8973 9.89022 83.7989 10.4542 83.8168 11.0205ZM79.6951 8.22355C80.6863 8.22355 81.2183 8.64869 81.2183 9.51015C81.2183 10.3716 80.5463 10.8471 79.6839 10.8471C79.3396 10.8458 78.9956 10.8252 78.6535 10.7856V8.22355C79.0455 8.22355 79.3983 8.19558 79.6951 8.19558V8.22355ZM78.6535 15.1265V12.1393C79.0063 12.1729 79.4823 12.1729 79.7287 12.1729C81.7055 12.1729 82.7528 10.8974 82.7528 9.49337C82.7528 8.08929 81.9856 6.84185 79.5551 6.84185H77.2031V15.1321L78.6535 15.1265Z" fill="white"/>
<path d="M84.0596 26.9804C84.0596 24.4072 82.3348 22.729 79.9043 22.729C78.877 22.6929 77.8692 23.0153 77.0539 23.6408L77.6139 24.726C78.1737 24.3097 78.8536 24.0859 79.5515 24.0883C81.114 24.0883 82.2452 24.8547 82.5308 26.2364H78.8459V27.5957H82.5644C82.467 28.2684 82.1184 28.8794 81.5886 29.3059C81.0588 29.7324 80.3871 29.9428 79.7083 29.8948C78.9389 29.8941 78.1912 29.6405 77.5803 29.1732L76.9531 30.3927C77.7634 30.9852 78.7495 31.2886 79.7531 31.2541C82.402 31.2541 84.0764 29.576 84.0764 26.9804H84.0596ZM92.4316 31.1199L88.7972 26.6839L92.202 22.8353H90.4548L87.19 26.751V22.8353H85.7396V31.0975H87.19V26.8405L90.55 31.0975L92.4316 31.1199ZM94.6212 26.9916C94.6212 25.1959 95.7748 24.0883 97.3149 24.0883C97.9801 24.0728 98.6331 24.2687 99.1797 24.6477L99.8405 23.5681C99.133 22.9912 98.2386 22.6927 97.326 22.729C94.5932 22.729 93.0924 24.6197 93.0924 26.9916C93.059 27.5601 93.1465 28.1292 93.3492 28.6614C93.5518 29.1937 93.865 29.6771 94.2681 30.0798C94.6712 30.4824 95.1551 30.7953 95.688 30.9977C96.2208 31.2001 96.7905 31.2875 97.3597 31.2541C98.3293 31.2896 99.2761 30.9557 100.008 30.32L99.4485 29.2347C98.8835 29.6641 98.1928 29.8961 97.4828 29.8948C97.0991 29.9112 96.7162 29.8469 96.3589 29.7061C96.0016 29.5653 95.6779 29.3511 95.4087 29.0775C95.1395 28.8038 94.9308 28.4767 94.7961 28.1174C94.6614 27.7581 94.6038 27.3746 94.6268 26.9916H94.6212ZM106.561 31.1199H108.017V22.8577H101.42V31.1199H102.876V24.217H106.561V31.1199ZM116.769 26.9916C116.769 28.6194 115.733 29.8948 113.969 29.8948C113.596 29.8899 113.227 29.8103 112.885 29.6608C112.543 29.5113 112.234 29.295 111.976 29.0244C111.719 28.7539 111.519 28.4346 111.387 28.0855C111.255 27.7364 111.194 27.3644 111.209 26.9916C111.149 26.5937 111.176 26.1877 111.288 25.8013C111.4 25.4148 111.594 25.057 111.856 24.7522C112.119 24.4475 112.445 24.2029 112.811 24.0353C113.177 23.8677 113.575 23.7809 113.978 23.7809C114.38 23.7809 114.778 23.8677 115.145 24.0353C115.511 24.2029 115.836 24.4475 116.099 24.7522C116.362 25.057 116.556 25.4148 116.668 25.8013C116.779 26.1877 116.807 26.5937 116.747 26.9916H116.769ZM118.287 26.9916C118.309 26.4217 118.211 25.8535 118.001 25.3232C117.791 24.7929 117.473 24.312 117.067 23.9111C116.661 23.5103 116.176 23.1981 115.643 22.9946C115.109 22.7911 114.54 22.7007 113.969 22.729C113.402 22.7097 112.837 22.8066 112.309 23.0135C111.781 23.2205 111.3 23.5332 110.897 23.9324C110.495 24.3317 110.178 24.809 109.966 25.3351C109.755 25.8612 109.654 26.4249 109.669 26.9916C109.645 27.5604 109.741 28.1278 109.949 28.6577C110.158 29.1876 110.474 29.6684 110.879 30.0694C111.283 30.4703 111.767 30.7828 112.299 30.9868C112.831 31.1907 113.4 31.2818 113.969 31.2541C114.537 31.2741 115.104 31.1779 115.633 30.9714C116.163 30.7649 116.644 30.4525 117.049 30.0533C117.453 29.6542 117.772 29.1767 117.984 28.6502C118.197 28.1237 118.3 27.5593 118.287 26.9916ZM123.982 25.4812C123.982 26.3986 123.305 26.8126 122.442 26.8126C122.112 26.8126 121.759 26.8126 121.417 26.7566V24.217C121.809 24.217 122.162 24.217 122.453 24.217C123.45 24.217 123.982 24.6421 123.982 25.5036V25.4812ZM125.517 25.5036C125.517 24.1443 124.749 22.8465 122.313 22.8465H119.961V31.1087H121.417V28.1383C121.77 28.1719 122.241 28.1719 122.493 28.1719C124.464 28.1719 125.517 26.8965 125.517 25.4924V25.5036ZM130.305 24.217H132.987V22.8577H126.189V24.217H128.871V31.1199H130.327L130.305 24.217ZM139.483 31.1199H140.928V22.8577H139.483V26.214H135.703V22.8577H134.247V31.1199H135.703V27.5957H139.483V31.1199ZM147.082 28.3229C147.082 29.2907 146.522 29.7773 145.453 29.7773C145.167 29.7773 144.932 29.7773 144.674 29.7438V27.0363C145.005 27.0028 145.234 26.9804 145.475 26.9804C146.494 26.9804 147.082 27.4391 147.082 28.3229ZM148.622 28.2894C148.622 26.6727 147.637 25.6211 145.593 25.6211C145.286 25.6206 144.979 25.6411 144.674 25.6826V22.8577H143.218V31.1199C143.706 31.1199 144.495 31.1199 145.274 31.1199C147.39 31.1199 148.634 30.0011 148.634 28.2726L148.622 28.2894ZM149.709 31.0695H151.148V22.8577H149.709V31.0695ZM159.419 20.8047H158.081C158.036 21.3081 157.672 21.4871 157.14 21.4871C156.608 21.4871 156.227 21.2634 156.132 20.8047H154.777C154.855 21.806 155.718 22.4829 157.14 22.4829C158.439 22.4829 159.408 21.8116 159.442 20.8047H159.419ZM159.078 31.0695H160.528V22.8577H159.251L154.917 28.7369V22.8577H153.461V31.1199H154.721L159.061 25.2575L159.078 31.0695Z" fill="white"/>
<path d="M172.732 32.6018H174.087V29.7713H172.967V22.8628H171.517V29.7713H167.888V22.8628H166.438V31.1306H172.738L172.732 32.6018ZM175.532 31.1306H180.432V29.7713H176.982V27.6344H179.962V26.275H176.982V24.2221H180.314V22.8628H175.532V31.1306ZM187.561 31.1306H189V22.8628H187.561V26.2191H183.781V22.8628H182.325V31.1306H183.781V27.6008H187.561V31.1306ZM194.404 24.2221H197.087V22.8628H190.266V24.2221H192.948V31.1306H194.404V24.2221ZM202.367 25.4863C202.367 26.4037 201.695 26.8177 200.833 26.8177C200.497 26.8177 200.144 26.8177 199.803 26.7617V24.2221C200.195 24.2221 200.547 24.2221 200.844 24.2221C201.835 24.2221 202.367 24.6472 202.367 25.5087V25.4863ZM203.902 25.5087C203.902 24.1494 203.135 22.8516 200.699 22.8516H198.347V31.1194H199.803V28.1434C200.155 28.177 200.631 28.177 200.878 28.177C202.849 28.177 203.902 26.9016 203.902 25.4975" fill="white"/>
<path d="M33.0353 0.00559513L29.0984 1.47121L28.3984 0L33.0353 0.00559513Z" fill="white"/>
<path d="M28.4 0L29.1056 1.47121L25.7344 2.71865L28.4 0Z" fill="white"/>
<path d="M44.9766 0.347656L48.2078 4.86755L36.0781 3.77114L44.9766 0.347656Z" fill="white"/>
<path d="M64.8742 0.0078125L60.0582 1.90415L57.4766 0.0078125H64.8742Z" fill="white"/>
<path d="M25.7246 7.64844L21.883 12.2411L17.0781 11.7264L25.7246 7.64844Z" fill="white"/>
<path d="M21.883 12.2356L17.0781 17.8967V11.7266L21.883 12.2356Z" fill="white"/>
<path d="M64.9435 0.0078125L62.9835 4.04663L60.0547 1.90415L64.8707 0.0078125H64.9435Z" fill="white"/>
<path d="M7.59808 21.5742L7.20047 26.1724L0.015625 30.0602L7.59808 21.5742Z" fill="white"/>
<path d="M7.20164 26.1562L6.66404 31.3586L0 30.0608L7.20164 26.1562Z" fill="white"/>
<path d="M50.7436 9.03516L57.542 17.2862L46.2188 16.0891L50.7436 9.03516Z" fill="white"/>
<path d="M57.5636 17.2909L41.0547 24.1658L46.2403 16.0938L57.5636 17.2909Z" fill="white"/>
<path d="M32.9857 27.1315L17.0312 33.8107V23.5234L32.9857 27.1315Z" fill="white"/>
<path d="M52.4972 30.1484L47.8324 39.6805L45.3516 33.102L52.4972 30.1484Z" fill="white"/>
<path d="M45.3639 33.1016L47.8448 39.68L35.8047 37.2355L45.3639 33.1016Z" fill="white"/>
<path d="M28.1172 13.1116L37.4972 9.45312L40.0733 14.331L28.1172 13.1116Z" fill="white"/>
<path d="M28.1172 13.125L40.0733 14.3445L29.6012 18.5623L28.1172 13.125Z" fill="white"/>
</g>
</svg>
