<svg width="92" height="40" viewBox="0 0 92 40" fill="none" xmlns="http://www.w3.org/2000/svg">
<path opacity="0.7" fill-rule="evenodd" clip-rule="evenodd" d="M5.7271 0.317749C3.57052 0.99979 2.03954 2.26368 1.34088 3.93909C0.795196 5.24697 0.8536 7.41797 1.46844 8.68821C2.4078 10.6283 4.25526 11.5997 9.54664 12.9356C13.9747 14.0536 14.9785 14.7032 15.2955 16.6572C15.467 17.7138 14.848 19.1046 13.9089 19.7734C12.094 21.0656 8.5105 21.2751 6.08242 20.2306C4.25648 19.4452 2.92514 17.619 2.9183 15.8906C2.91707 15.6447 2.71205 15.5956 2.15317 15.7073C1.73309 15.7914 1.05936 15.86 0.65566 15.86C-0.0679248 15.86 -0.0757456 15.8742 0.0838291 16.8734C0.490219 19.4137 2.21939 21.7179 4.46224 22.7073C5.96341 23.3698 8.62364 23.7625 10.5943 23.6127C13.7955 23.3696 16.2031 22.0355 17.3868 19.8492C19.2015 16.4971 17.9982 12.898 14.5323 11.3113C13.6 10.8844 6.25861 8.77325 5.70658 8.77325C5.66015 8.77325 5.23323 8.43187 4.75817 8.01472C3.99647 7.34612 3.89432 7.11886 3.89432 6.09274C3.89432 3.80322 5.58855 2.67471 9.02612 2.67471C12.2706 2.67471 13.831 3.63387 14.4695 6.02089C14.663 6.74448 14.8561 7.03455 15.0856 6.94657C15.2693 6.87595 15.9196 6.81828 16.5308 6.81828H17.6417L17.4762 5.7797C17.0774 3.27416 15.0831 1.14788 12.3787 0.34463C10.8728 -0.102571 7.10414 -0.117722 5.7271 0.317749ZM28.7173 0.477079C24.324 2.02688 21.8923 5.59984 21.5736 10.9726C21.4097 13.7386 21.8468 15.9426 22.9817 18.0718C27.0456 25.6962 38.5096 25.4707 42.1698 17.6943C43.8982 14.0221 43.875 9.41375 42.1096 5.67877C41.1994 3.75288 39.2547 1.85631 37.1958 0.8864C35.6956 0.179433 35.2883 0.0997688 32.8524 0.0364765C30.6281 -0.0214396 29.9145 0.0545604 28.7173 0.477079ZM77.328 0.305773C72.5962 1.8678 70.0179 5.47741 69.7087 10.9726C69.5536 13.7335 69.9942 15.9539 71.1136 18.0547C73.9305 23.3395 80.6048 25.2146 86.1061 22.2667C91.1961 19.539 93.1349 11.7802 90.2509 5.67877C89.3406 3.75288 87.3959 1.85631 85.337 0.8864C83.831 0.176745 83.4393 0.100745 80.9936 0.0447843C79.2632 0.00519608 77.9573 0.0980575 77.328 0.305773ZM47.3925 11.7057V23.1912H48.9809H50.5693V17.815V12.4388H56.5564H62.5435V17.815V23.1912H64.0098H65.476V11.7057V0.220244H64.0098H62.5435V4.98549V9.75074H56.5564H50.5693V4.98549V0.220244H48.9809H47.3925V11.7057ZM35.6631 3.17616C37.2445 3.85649 38.8666 5.61939 39.5877 7.44167C40.0794 8.68357 40.1632 9.3226 40.1632 11.8279C40.1632 14.2829 40.075 14.9825 39.6215 16.1237C38.8612 18.0376 37.6352 19.366 35.7904 20.2741C34.3482 20.9843 34.072 21.0366 32.1962 20.9564C28.9612 20.8178 26.8164 19.3951 25.4806 16.5018C24.8389 15.1118 24.7896 14.7863 24.7888 11.9501C24.7881 8.5433 25.1376 7.10102 26.3799 5.38602C28.2704 2.77662 32.4316 1.78593 35.6631 3.17616ZM83.8044 3.17616C85.3857 3.85649 87.0078 5.61939 87.729 7.44167C88.2206 8.68357 88.3045 9.3226 88.3045 11.8279C88.3045 14.2829 88.2162 14.9825 87.7627 16.1237C86.5865 19.0845 84.2696 20.7589 81.0943 20.9427C77.6318 21.1431 75.266 19.7624 73.7326 16.6457C72.9467 15.049 72.9296 14.9444 72.9398 11.8323C72.9489 9.09436 73.0295 8.45142 73.5178 7.21783C75.0825 3.26487 79.7485 1.43159 83.8044 3.17616ZM29.1868 27.0738C27.2213 27.5833 25.3756 29.2958 24.8924 31.0582C23.4951 36.1539 26.6018 40.5127 31.228 39.9475C32.9474 39.7373 32.8467 39.7376 34.3389 39.9414C36.8647 40.2867 39.1432 39.0905 40.3856 36.7668C40.8223 35.9503 40.9152 35.3685 40.9152 33.4548C40.9152 30.8992 40.5305 29.8132 39.1674 28.5192C37.7801 27.2025 36.5768 26.9389 32.9135 27.1478C32.6109 27.1649 31.8138 27.1126 31.1418 27.0312C30.4697 26.9501 29.59 26.9692 29.1868 27.0738ZM80.2688 27.2082C78.1002 27.8032 77.0076 29.723 77.7823 31.577C78.2683 32.7402 79.1882 33.2691 82.1294 34.0757C85.4802 34.9946 86.3241 36.104 84.818 37.6098C83.145 39.2831 79.4306 38.5556 78.8016 36.4317C78.5936 35.7289 78.4741 35.64 77.8241 35.7037C77.1594 35.769 77.0917 35.8513 77.1631 36.5094C77.2833 37.6164 78.0401 38.6592 79.2099 39.329C80.6341 40.1447 83.7161 40.1975 85.025 39.4287C87.5481 37.9463 87.6891 34.5835 85.2803 33.338C84.9067 33.1447 83.6482 32.7476 82.484 32.4556C79.9113 31.8104 79.1036 31.2574 79.2085 30.2127C79.3179 29.124 80.2856 28.5048 81.9146 28.4811C83.4674 28.4586 84.4627 28.9911 84.8659 30.0595C85.0856 30.6416 85.2747 30.7667 85.9345 30.7667C86.8712 30.7667 86.9132 30.5534 86.2476 29.1783C85.3725 27.3709 82.7843 26.5181 80.2688 27.2082ZM2.61137 27.2407C2.51068 27.3433 2.42809 30.2127 2.42809 33.6178V39.8085H3.28339H4.13869V36.9706V34.1327L5.83145 34.2285C7.88686 34.3445 8.07454 34.4914 10.0671 37.548C11.516 39.7708 11.5568 39.8085 12.5089 39.8085C13.2723 39.8085 13.4471 39.7303 13.3354 39.439C12.9879 38.5338 10.3924 34.8668 9.84526 34.5083L9.23921 34.1112L10.1334 33.8038C12.4263 33.0157 13.189 30.8662 11.9781 28.604C11.397 27.5183 10.3751 27.2487 6.46022 27.1485C4.44415 27.0967 2.71205 27.1383 2.61137 27.2407ZM53.013 33.4421V39.8085H53.8683H54.7236L54.7393 34.6156L54.7549 29.4227L56.5107 34.6156L58.2665 39.8085H59.0341H59.8019L61.6003 34.6156L63.3988 29.4227L63.4648 34.6156L63.5308 39.8085H64.259H64.9872V33.4548V27.1011H63.9179H62.8483L61.0465 32.3541C60.0553 35.2436 59.1876 37.6079 59.1182 37.6081C59.0485 37.6086 58.2159 35.2724 57.268 32.4162L55.5447 27.2233L54.2789 27.1495L53.013 27.0755V33.4421ZM30.7752 28.4344C30.7752 28.4955 30.5005 28.9505 30.1648 29.4454C28.5343 31.8478 28.7459 36.007 30.6019 38.0368L31.1049 38.5866H30.3192C29.06 38.5866 27.6951 37.7391 26.9747 36.5097C26.4532 35.6197 26.3279 35.0909 26.3193 33.7439C26.3137 32.828 26.4361 31.6929 26.5918 31.2217C27.0644 29.7892 28.8645 28.4093 30.3476 28.3423C30.5829 28.3318 30.7752 28.3731 30.7752 28.4344ZM36.5781 28.6988C38.4788 29.493 39.3175 30.949 39.3175 33.4548C39.3175 36.4422 37.6298 38.5866 35.2787 38.5866H34.682L35.3933 37.6047C37.1262 35.2128 36.9302 30.9629 34.9855 28.7506C34.6412 28.3592 34.6546 28.323 35.1438 28.323C35.4378 28.323 36.0832 28.4921 36.5781 28.6988ZM10.2907 29.234C10.6483 29.5918 10.8345 30.0751 10.8345 30.6445C10.8345 31.2139 10.6483 31.6973 10.2907 32.055C9.80323 32.543 9.45646 32.608 6.94285 32.6816L4.13869 32.7637V30.6445V28.5253L6.94285 28.6074C9.45646 28.681 9.80323 28.746 10.2907 29.234ZM33.4503 29.5319C35.2005 31.2821 35.3726 35.2426 33.7802 37.1345C33.0535 37.9984 32.7358 38.0289 32.0513 37.3002C30.4008 35.5434 30.326 31.6745 31.9059 29.7968C32.6378 28.9271 32.815 28.8965 33.4503 29.5319Z" fill="white"/>
</svg>
