<svg width="159" height="40" viewBox="0 0 159 40" fill="none" xmlns="http://www.w3.org/2000/svg">
<g opacity="0.7">
<path d="M96.48 11.2847C93.9319 11.2847 91.9304 11.8314 89.9278 12.9225C89.9278 7.09777 89.9278 1.81964 90.1108 0L77.9136 2.18336V3.27557L79.1876 3.45743C80.8244 3.82115 81.3731 4.73044 81.7337 6.91591C82.1005 11.2847 81.9166 34.5848 81.7337 38.4081C85.0103 39.1365 88.4698 39.6832 91.9293 39.6832C101.577 39.6832 107.402 33.6755 107.402 24.2094C107.402 16.7468 102.67 11.2847 96.48 11.2847ZM92.2931 37.6796C91.5646 37.6796 90.6532 37.6796 90.1087 37.4988C89.9257 34.9506 89.7449 24.2094 89.9257 14.7443C91.0179 14.3795 91.7454 14.1976 92.6568 14.1976C96.664 14.1976 98.8484 18.9302 98.8484 24.7539C98.8474 32.0377 96.1163 37.6796 92.2931 37.6796ZM32.0388 0.727437H0V2.36522L1.8207 2.54708C4.18592 2.9108 5.09732 4.36673 5.45998 7.82521C6.00766 14.3784 5.82475 26.2119 5.45998 31.8527C5.09627 35.3122 4.18697 36.9511 1.8207 37.1308L0 37.4966V38.9526H20.5701V37.4966L18.3857 37.1308C16.0194 36.95 15.109 35.3122 14.7453 31.8527C14.5624 29.4854 14.3806 25.6621 14.3806 20.9306L18.7494 21.1125C21.4804 21.1125 22.7534 23.2969 23.3001 26.3906H24.9389V13.4702H23.3001C22.7524 16.565 21.4804 18.7483 18.7494 18.7483L14.3816 18.9312C14.3816 12.7417 14.5635 6.91696 14.7464 3.45848H21.1167C26.0332 3.45848 28.5813 6.55219 30.401 12.0143L32.2217 11.4676L32.0388 0.727437Z" fill="white"/>
<path d="M42.4174 10.9187C51.5199 10.9187 56.0705 17.1083 56.0705 25.2993C56.0705 33.1266 50.9732 39.6819 41.8708 39.6819C32.7694 39.6819 28.2188 33.4914 28.2188 25.2993C28.2188 17.472 33.315 10.9187 42.4174 10.9187ZM41.8708 12.7394C37.8657 12.7394 36.7735 18.2005 36.7735 25.2993C36.7735 32.2163 38.5942 37.8591 42.2356 37.8591C46.4194 37.8591 47.5137 32.3981 47.5137 25.2993C47.5137 18.3823 45.6951 12.7394 41.8708 12.7394ZM109.77 25.4822C109.77 18.0186 114.502 10.9187 123.786 10.9187C131.43 10.9187 135.072 16.5627 135.072 24.0252H118.142C117.959 30.7603 121.236 35.6758 127.79 35.6758C130.703 35.6758 132.159 34.9494 133.981 33.6743L134.707 34.5836C132.887 37.1317 128.883 39.6819 123.786 39.6819C115.594 39.6809 109.77 33.8561 109.77 25.4822ZM118.142 22.0237L126.698 21.8408C126.698 18.2005 126.152 12.7394 123.058 12.7394C119.964 12.7394 118.323 17.8357 118.142 22.0237ZM156.738 12.3757C154.553 11.4643 151.641 10.9187 148.365 10.9187C141.631 10.9187 137.442 14.9228 137.442 19.6564C137.442 24.39 140.533 26.3915 144.907 27.8485C149.457 29.4852 150.732 30.7603 150.732 32.9447C150.732 35.1292 149.093 37.1307 146.18 37.1307C142.723 37.1307 140.173 35.1292 138.171 29.6671L136.896 30.0329L137.079 38.0421C139.263 38.9514 143.267 39.6809 146.727 39.6809C153.827 39.6809 158.378 36.0385 158.378 30.3966C158.378 26.5734 156.375 24.39 151.642 22.5682C146.544 20.5667 144.725 19.2927 144.725 16.9254C144.725 14.5591 146.366 12.9202 148.551 12.9202C151.825 12.9202 154.01 14.9228 155.651 19.8383L156.924 19.4745L156.738 12.3757ZM79.7343 11.6472C76.6406 9.82864 71.1785 10.7369 68.2667 17.2912L68.4475 10.9198L56.2524 13.2861V14.3783L57.5265 14.5601C59.1664 14.743 59.8928 15.6523 60.0757 18.0197C60.4394 22.3885 60.2575 30.035 60.0757 33.8572C59.8928 36.0395 59.1664 37.1317 57.5265 37.3146L56.2524 37.4975V38.9535H73.1811V37.4975L70.9967 37.3146C69.177 37.1317 68.6304 36.0395 68.4475 33.8572C68.0838 30.3977 68.0838 23.4807 68.2667 19.1119C69.176 17.8368 73.1811 16.7456 76.8214 19.1119L79.7343 11.6472Z" fill="white"/>
</g>
</svg>
