<svg width="307" height="35" viewBox="0 0 307 35" fill="none" xmlns="http://www.w3.org/2000/svg">
<g opacity="0.7">
<path d="M4.81773 24.3513L13.5872 0.618652C3.98254 2.88873 -1.65496 12.1754 0.433001 21.4621C2.72976 30.5424 12.3344 36.5272 21.5214 34.4635C26.7414 33.2252 30.9173 29.9233 33.4228 25.3832C22.983 29.3042 11.0816 29.3042 4.81773 24.3513Z" fill="white"/>
<path d="M26.5312 19.8108C29.4544 20.0172 32.3776 19.8108 35.0919 18.5726C35.0919 18.1598 35.0919 17.7471 35.0919 17.3343C35.0919 13.6197 33.8391 10.1114 31.7512 7.22217L26.5312 19.8108Z" fill="white"/>
<path d="M20.48 21.2556L28.2054 3.50776C27.3703 2.88864 26.7439 2.4759 25.9087 2.26953L17.7656 22.2875C21.524 23.9385 28.623 22.7002 34.8869 20.8429C35.0957 20.6365 35.0957 20.2238 35.0957 19.8111C30.5022 21.0493 23.8207 22.2875 20.48 21.2556Z" fill="white"/>
<path d="M12.7491 22.7008L21.5186 0.412742C20.6834 0.206371 19.8482 0.206371 19.013 0L9.61719 23.7326C14.8371 27.2409 24.6505 26.6218 34.0464 23.7326C34.2552 23.3199 34.464 22.9072 34.464 22.288C29.0353 24.5581 15.8811 25.7964 12.7491 22.7008Z" fill="white"/>
<path d="M53.6451 34.7573H49.3691V20.9009H53.8346C55.1787 20.9009 56.3289 21.1783 57.2851 21.7331C58.2414 22.2834 58.9743 23.075 59.484 24.1079C59.9937 25.1363 60.2486 26.3677 60.2486 27.802C60.2486 29.2454 59.9915 30.488 59.4773 31.53C58.9631 32.5674 58.2143 33.3658 57.231 33.9251C56.2477 34.4799 55.0524 34.7573 53.6451 34.7573ZM51.0471 33.2688H53.5369C54.6826 33.2688 55.632 33.0478 56.3853 32.6057C57.1385 32.1637 57.7001 31.5345 58.07 30.7181C58.4398 29.9017 58.6248 28.9296 58.6248 27.802C58.6248 26.6834 58.4421 25.7204 58.0767 24.913C57.7114 24.1011 57.1656 23.4787 56.4394 23.0456C55.7132 22.6081 54.8089 22.3894 53.7263 22.3894H51.0471V33.2688Z" fill="white"/>
<path d="M71.0132 20.9009H72.6912V30.0753C72.6912 31.0225 72.4679 31.8683 72.0214 32.6125C71.5793 33.3522 70.9546 33.9363 70.1472 34.3648C69.3398 34.7888 68.3926 35.0008 67.3056 35.0008C66.2185 35.0008 65.2713 34.7888 64.4639 34.3648C63.6566 33.9363 63.0296 33.3522 62.583 32.6125C62.141 31.8683 61.92 31.0225 61.92 30.0753V20.9009H63.5979V29.94C63.5979 30.6166 63.7468 31.2187 64.0445 31.7465C64.3422 32.2697 64.7661 32.6824 65.3164 32.9846C65.8712 33.2823 66.5343 33.4312 67.3056 33.4312C68.0769 33.4312 68.7399 33.2823 69.2947 32.9846C69.8495 32.6824 70.2735 32.2697 70.5667 31.7465C70.8644 31.2187 71.0132 30.6166 71.0132 29.94V20.9009Z" fill="white"/>
<path d="M74.141 22.3894V20.9009H84.5333V22.3894H80.1761V34.7573H78.4982V22.3894H74.141Z" fill="white"/>
<path d="M84.789 20.9009H86.7105L90.5535 27.369H90.7158L94.5588 20.9009H96.4803L91.4736 29.0469V34.7573H89.7957V29.0469L84.789 20.9009Z" fill="white"/>
<path d="M101.723 34.7573V20.9009H110.031V22.3894H103.401V27.0713H109.409V28.5598H103.401V34.7573H101.723Z" fill="white"/>
<path d="M111.762 34.7573V20.9009H116.444C117.526 20.9009 118.415 21.0858 119.109 21.4557C119.804 21.821 120.318 22.324 120.652 22.9645C120.986 23.6049 121.153 24.3334 121.153 25.1498C121.153 25.9662 120.986 26.6902 120.652 27.3216C120.318 27.9531 119.806 28.4493 119.116 28.8101C118.426 29.1664 117.544 29.3446 116.471 29.3446H112.682V27.8291H116.417C117.156 27.8291 117.752 27.7208 118.203 27.5043C118.658 27.2878 118.988 26.9811 119.191 26.5842C119.398 26.1827 119.502 25.7046 119.502 25.1498C119.502 24.595 119.398 24.1101 119.191 23.6952C118.983 23.2802 118.652 22.9599 118.196 22.7344C117.74 22.5044 117.138 22.3894 116.39 22.3894H113.44V34.7573H111.762ZM118.284 28.5327L121.694 34.7573H119.745L116.39 28.5327H118.284Z" fill="white"/>
<path d="M122.805 34.7573V20.9009H131.168V22.3894H124.483V27.0713H130.735V28.5598H124.483V33.2688H131.276V34.7573H122.805Z" fill="white"/>
<path d="M133.049 34.7573V20.9009H141.412V22.3894H134.727V27.0713H140.979V28.5598H134.727V33.2688H141.52V34.7573H133.049Z" fill="white"/>
<path fill-rule="evenodd" clip-rule="evenodd" d="M296.666 13.9503V10.4807H302.806V3.80827H296.666V0.205165H302.094C302.672 0.205165 303.206 0.338625 303.74 0.561039C304.274 0.827936 304.719 1.13931 305.119 1.53965C305.519 1.93999 305.831 2.38483 306.098 2.96311C306.32 3.4969 306.454 4.03069 306.454 4.60897V9.72449C306.454 10.3028 306.32 10.8366 306.053 11.3703C305.831 11.8597 305.519 12.3045 305.075 12.7048C304.674 13.0607 304.229 13.3721 303.695 13.5945C303.162 13.8169 302.583 13.9503 302.005 13.9503H296.666ZM296.666 0.205165V3.80827H290.527V10.4807H296.666V13.9503H291.328C290.705 13.9503 290.126 13.8169 289.593 13.5945C289.059 13.4165 288.569 13.1052 288.213 12.7048C287.813 12.3045 287.502 11.8152 287.279 11.2814C287.057 10.7476 286.923 10.1693 286.923 9.54656V4.29759C286.923 3.67483 287.057 3.14104 287.324 2.65173C287.635 2.16242 287.991 1.71758 288.436 1.36172C288.925 1.00586 289.459 0.694474 290.037 0.516543C290.616 0.294129 291.239 0.205165 291.861 0.205165H296.666ZM125.475 8.83483V5.36518H131.659V3.67482H125.475V0.205165H130.858C131.392 0.205165 131.926 0.338625 132.46 0.561039C132.949 0.783453 133.394 1.09483 133.794 1.49517C134.195 1.89552 134.506 2.34034 134.728 2.87413C134.951 3.40793 135.084 3.94172 135.084 4.52C135.084 4.96483 134.995 5.36516 134.862 5.76551C134.728 6.21034 134.551 6.5662 134.284 6.92207C134.551 7.27793 134.817 7.67828 134.951 8.07862C135.129 8.47897 135.218 8.87931 135.218 9.27966V13.9948H131.659V8.83483H125.475ZM141.98 0.116211C141.313 0.116211 140.69 0.205175 140.067 0.427589C139.489 0.60552 138.955 0.916887 138.51 1.27275C138.065 1.67309 137.709 2.11793 137.487 2.69621C137.22 3.23 137.086 3.85275 137.086 4.56447V9.59104C137.086 10.2583 137.22 10.8365 137.487 11.4148C137.754 11.9486 138.11 12.3934 138.554 12.7938C138.999 13.1941 139.533 13.5055 140.112 13.7279C140.69 13.9503 141.313 14.0393 141.98 14.0393H156.528V10.3917H140.601V8.87931H156.528V5.2762H140.601V3.67482H156.528V0.116211H141.98ZM161.777 14.0838V3.94172L165.025 11.059C165.203 11.5038 165.425 11.9041 165.692 12.3045C165.915 12.6603 166.182 13.0162 166.493 13.3276C166.76 13.639 167.116 13.8614 167.472 14.0393C167.828 14.2617 168.228 14.3507 168.718 14.3507C169.207 14.3507 169.607 14.2617 169.963 14.0838C170.319 13.9503 170.631 13.7279 170.898 13.4165C171.164 13.1496 171.387 12.7938 171.609 12.3934C171.832 12.0376 172.054 11.5928 172.277 11.1034L175.569 3.80827V13.9948H178.905V4.03069C178.905 3.4969 178.816 3.05207 178.639 2.56276C178.505 2.11793 178.283 1.71759 178.016 1.31725C177.704 0.961383 177.348 0.69448 176.903 0.472066C176.503 0.294135 176.014 0.160688 175.48 0.160688C174.679 0.160688 173.967 0.383112 173.389 0.82794C172.811 1.27277 172.366 1.89551 172.054 2.74068L168.629 10.881L165.514 3.14104C165.336 2.74069 165.159 2.34034 164.892 1.98448C164.669 1.62862 164.402 1.31724 164.091 1.05034C163.779 0.783448 163.423 0.561043 163.023 0.383112C162.667 0.249663 162.222 0.160688 161.777 0.160688C161.333 0.160688 160.888 0.249658 160.443 0.427589C160.042 0.60552 159.686 0.872416 159.375 1.18379C159.064 1.49517 158.841 1.85103 158.663 2.25138C158.485 2.69621 158.396 3.14104 158.396 3.58586V13.9948L161.777 14.0838ZM185.712 0.116211C185 0.116211 184.378 0.205175 183.755 0.427589C183.176 0.60552 182.642 0.916887 182.198 1.27275C181.753 1.67309 181.441 2.11793 181.174 2.69621C180.907 3.23 180.774 3.85275 180.774 4.56447V9.59104C180.774 10.2583 180.907 10.8365 181.174 11.4148C181.441 11.9486 181.797 12.3934 182.242 12.7938C182.731 13.1941 183.221 13.5055 183.844 13.7279C184.422 13.9503 185.045 14.0393 185.668 14.0393H200.215V10.3917H184.289V8.87931H200.215V5.2762H184.289V3.67482H200.215V0.116211H185.712ZM202.128 0.160688V3.67482H210.225V13.9948H213.74V3.67482H221.792V0.160688H202.128ZM231.58 9.90241V13.9948H235.05V9.90241L242.702 0.160688H238.342L233.226 6.47724L228.11 0.160688H223.661L231.58 9.90241ZM249.509 0.116211C248.841 0.116211 248.174 0.205175 247.596 0.427589C246.973 0.60552 246.483 0.916887 246.038 1.27275C245.594 1.67309 245.238 2.11793 244.971 2.69621C244.704 3.23 244.615 3.85275 244.615 4.56447V9.59104C244.615 10.2583 244.748 10.8365 245.015 11.4148C245.282 11.9486 245.638 12.3934 246.083 12.7938C246.528 13.1941 247.062 13.5055 247.64 13.7279C248.218 13.9503 248.841 14.0393 249.464 14.0393H264.056V10.3917H248.129V8.87931H264.056V5.2762H248.129V3.67482H264.056V0.116211H249.509ZM269.973 0.205165H265.925L271.53 10.881C271.753 11.3259 271.975 11.7707 272.242 12.1266C272.509 12.5269 272.82 12.8828 273.132 13.1497C273.443 13.461 273.799 13.6834 274.2 13.8614C274.555 14.0393 275 14.1283 275.534 14.1283C275.979 14.1283 276.38 14.0393 276.735 13.9059C277.091 13.7724 277.403 13.5945 277.67 13.3276C277.981 13.1052 278.204 12.7938 278.47 12.4824C278.693 12.1265 278.915 11.7707 279.138 11.3703L285.055 0.160688H281.051L275.445 10.5252L269.973 0.205165ZM66.0829 5.36518H53.3147V3.67482H69.8644V0.249661H54.7383C54.1155 0.249661 53.4927 0.338625 52.8698 0.561039C52.247 0.73897 51.6686 1.00585 51.1793 1.4062C50.6899 1.76206 50.2895 2.20689 49.9781 2.74068C49.7112 3.27448 49.5332 3.89723 49.5332 4.56447C49.5332 5.18723 49.6667 5.76552 49.9336 6.29931C50.2005 6.8331 50.5564 7.27793 51.0013 7.67827C51.4017 8.03413 51.9356 8.34552 52.5139 8.56793C53.0478 8.79034 53.6706 8.87931 54.249 8.87931H67.2396V10.5252H50.423V13.9948H66.1274C66.7502 13.9948 67.3286 13.9059 67.8624 13.6834C68.4408 13.461 68.9301 13.1941 69.375 12.7938C69.8199 12.4379 70.1313 11.9931 70.3983 11.4593C70.6652 10.9255 70.7987 10.3472 70.7987 9.72449C70.7987 9.14621 70.7097 8.56792 70.4427 8.03413C70.2203 7.50033 69.8644 7.01103 69.464 6.61069C69.0191 6.25483 68.5297 5.94345 67.9514 5.67655C67.373 5.45414 66.7502 5.36518 66.0829 5.36518ZM125.475 0.205165V3.67482H119.335V5.36518H125.475V8.83483H119.335V13.9948H115.687V0.205165H125.475ZM76.1817 0.160688H72.6672V13.9948H76.1817V8.74586H88.9944V13.9948H92.509V0.160688H88.9944V5.23173H76.1817V0.160688ZM99.2712 0.116211C98.6039 0.116211 97.9811 0.205175 97.3582 0.427589C96.7799 0.60552 96.246 0.916887 95.8011 1.27275C95.3562 1.67309 95.0003 2.11793 94.7779 2.69621C94.511 3.23 94.3775 3.85275 94.3775 4.56447V9.59104C94.3775 10.2583 94.511 10.8365 94.7779 11.4148C95.0448 11.9486 95.4007 12.3934 95.8456 12.7938C96.2905 13.1941 96.8244 13.5055 97.4027 13.7279C97.9811 13.9503 98.6039 14.0393 99.2712 14.0393H113.819V10.3917H97.8921V8.87931H113.819V5.2762H97.8921V3.67482H113.819V0.116211H99.2712Z" fill="white"/>
</g>
</svg>
