<svg width="179" height="20" viewBox="0 0 179 20" fill="none" xmlns="http://www.w3.org/2000/svg">
<path opacity="0.7" fill-rule="evenodd" clip-rule="evenodd" d="M0 1.83161V3.66322H3.99624C6.19417 3.66322 7.99247 3.71084 7.99247 3.76912C7.99247 3.8274 7.61033 6.13156 7.14344 8.8893C6.20432 14.4347 6.1627 15.4659 6.82108 16.8568C7.33309 17.9383 8.34131 18.9295 9.46525 19.4565C10.4059 19.8974 10.4119 19.8979 15.194 19.9489L19.9812 20V18.1691V16.3381L15.5805 16.2865C11.4166 16.2375 11.1545 16.2159 10.7101 15.8857C9.87403 15.2646 9.8802 14.8678 10.81 9.40781C11.2779 6.66039 11.6983 4.244 11.7446 4.03786L11.8285 3.66322H15.9049H19.9812V1.83161V0H9.99059H0V1.83161ZM28.3067 9.99059V19.9812H30.2215H32.1364V9.99059V0H30.2215H28.3067V9.99059ZM44.7862 0.325527C44.0171 0.73231 42.6736 2.17778 42.3543 2.94206C42.2156 3.27425 41.5077 7.07534 40.7814 11.3889C40.0551 15.7025 39.4225 19.4006 39.3754 19.6065C39.2907 19.9784 39.3047 19.9812 41.208 19.9812C42.2629 19.9812 43.1261 19.9407 43.1261 19.8913C43.1261 19.2221 45.6991 4.66627 45.879 4.31877C46.1928 3.71184 46.5965 3.49671 47.4218 3.49671C48.2544 3.49671 48.8908 3.98408 49.1184 4.79615C49.2132 5.13467 49.7075 7.88174 50.2169 10.9009C51.2243 16.8718 51.4422 17.5924 52.5683 18.6751C53.7311 19.7932 54.2875 19.9812 56.4334 19.9812C58.0149 19.9812 58.4599 19.9231 59.0449 19.6398C59.9231 19.2147 61.0349 18.0265 61.4655 17.0531C61.6568 16.6208 62.2064 13.8874 62.7907 10.4628C63.3397 7.24434 63.861 4.47662 63.9489 4.31211C64.2217 3.80259 64.817 3.49671 65.5363 3.49671C66.411 3.49671 67.0427 3.97476 67.2532 4.79615C67.3398 5.13467 67.9532 8.68982 68.6162 12.6964L69.8216 19.9812H71.7228H73.6238L73.5294 19.5233C73.4775 19.2714 72.872 15.6774 72.1839 11.5366C71.487 7.34309 70.781 3.60177 70.5899 3.09109C70.1964 2.03941 69.1412 0.863021 68.128 0.346008C67.5569 0.0546152 67.1453 0 65.5216 0C63.3122 0 62.7456 0.19515 61.5847 1.35606C60.4354 2.50531 60.228 3.20998 59.1898 9.49106C58.6676 12.6506 58.1652 15.3855 58.0733 15.5687C57.5653 16.5824 56.1531 16.8125 55.2719 16.0251C54.7608 15.5683 54.7523 15.5324 53.7612 9.65607C52.7248 3.51086 52.4914 2.65733 51.5383 1.53039C51.282 1.22734 50.6894 0.759785 50.2214 0.491371C49.4075 0.024477 49.2824 0.0033302 47.3721 0.00899153C45.7503 0.0136538 45.2632 0.0732644 44.7862 0.325527ZM84.5447 0.18083C82.824 0.586281 81.2635 1.88955 80.4744 3.57996C80.0713 4.44332 80.008 4.784 80.008 6.0881C80.008 7.49028 80.0511 7.68426 80.6163 8.82286L81.2245 10.0482L80.8349 10.6656C78.9055 13.7219 80.1902 17.8762 83.5517 19.4517L84.5038 19.8979L92.2048 19.9474L99.9059 19.9967V18.1654V16.3343L92.6211 16.2845C86.0285 16.2394 85.2852 16.2067 84.798 15.9405C83.7773 15.3827 83.3883 13.8393 83.9808 12.6979C84.4888 11.7193 84.7958 11.6281 88.5518 11.3382C91.4111 11.1175 91.9919 11.0299 91.9679 10.8228C91.9521 10.6856 91.8883 9.83507 91.8262 8.93275L91.7133 7.2923L90.8559 7.38754C90.3844 7.43999 88.8538 7.56871 87.4546 7.67361C86.0555 7.77867 84.788 7.87458 84.6383 7.88691C84.2372 7.91971 83.6988 6.89368 83.6998 6.09792C83.701 5.20377 84.1256 4.40802 84.798 4.0407C85.2852 3.77445 86.0285 3.74181 92.6211 3.69669L99.9059 3.6469V1.82345V0L92.5379 0.016651C88.4855 0.0259755 84.8886 0.0997394 84.5447 0.18083ZM106.566 9.99059V19.9812H108.481H110.396V16.5008V13.0204L111.353 12.9205C111.88 12.8656 114.334 12.6704 116.807 12.4869C119.279 12.3034 121.64 12.0731 122.052 11.9752C123.767 11.5674 125.127 10.4671 125.989 8.78939C126.63 7.54273 126.738 5.33414 126.224 3.97076C125.523 2.11118 124.133 0.82106 122.23 0.264418C121.463 0.0404619 120.197 0 113.946 0H106.566V9.99059ZM138.112 0.38214C135.775 1.65544 135.697 1.8083 132.382 11.6141L129.553 19.9812H131.506H133.458L134.54 16.8591L135.622 13.7371L140.773 13.6929C144.174 13.6638 145.983 13.7078 146.097 13.822C146.193 13.9172 146.722 15.3232 147.274 16.9465L148.277 19.8979L150.254 19.9451C151.941 19.9852 152.216 19.956 152.135 19.7462C152.084 19.611 150.829 15.9182 149.348 11.5401C147.867 7.16209 146.51 3.2919 146.331 2.93973C145.88 2.0504 144.719 0.933454 143.718 0.426432C142.948 0.0359661 142.704 0.00066604 140.831 0.00749294C139.046 0.0141533 138.7 0.0617752 138.112 0.38214ZM158.184 9.99059V19.9812L163.721 19.9784C169.839 19.975 170.731 19.8753 172.646 18.9793C175.456 17.6644 177.267 15.3577 177.901 12.2871C179.083 6.55832 175.884 1.38187 170.471 0.264917C169.45 0.0539492 168.067 0 163.686 0H158.184V9.99059ZM142.617 4.18922C143.018 4.62698 143.353 5.37644 143.949 7.17408C144.388 8.49417 144.781 9.66806 144.823 9.78245C144.883 9.9453 144.029 9.99059 140.897 9.99059H136.895L137.793 7.30962C138.286 5.835 138.786 4.51158 138.905 4.36872C139.434 3.72699 140.098 3.47706 141.1 3.5415C141.971 3.59761 142.141 3.67004 142.617 4.18922ZM121.62 3.99624C123.141 4.78017 123.266 7.01173 121.847 8.05208C121.452 8.34214 120.765 8.43372 116.519 8.76375C113.838 8.97205 111.364 9.14589 111.02 9.15022L110.396 9.15804V6.40214V3.64607L115.766 3.69635C120.14 3.73715 121.226 3.79276 121.62 3.99624ZM170.53 4.14193C173.103 5.13999 174.393 7.12745 174.375 10.0639C174.357 12.9586 172.924 15.0365 170.34 15.9142C169.555 16.1808 168.889 16.2259 165.677 16.2299L161.931 16.2347L161.887 10.1578C161.863 6.81558 161.883 3.97809 161.931 3.85254C162.003 3.66505 162.698 3.63774 165.805 3.70068C169.193 3.76928 169.689 3.81557 170.53 4.14193Z" fill="white"/>
</svg>
