<svg width="176" height="40" viewBox="0 0 176 40" fill="none" xmlns="http://www.w3.org/2000/svg">
<g opacity="0.7">
<path d="M43.9958 31.0463C34.1214 21.9273 27.4983 9.64713 18.8281 9.0392C31.5926 -0.930855 50.1372 13.0515 57.6032 19.6172C59.5299 21.5626 47.7288 34.4507 43.9958 31.0463Z" fill="url(#paint0_linear_2642_940)"/>
<path d="M44.7147 39.3137C27.6152 33.356 18.5837 13.0511 7.02344 13.0511C22.678 -0.323372 49.7723 23.9938 49.7723 23.9938L44.7147 39.3137Z" fill="url(#paint1_linear_2642_940)"/>
<path d="M41.4654 22.8988C35.6853 23.6283 29.9051 20.467 24.125 17.3058C36.8895 31.2882 52.4236 37.4891 65.0676 25.8168C71.9315 15.482 75.4237 3.08023 81.3242 2.4723C67.3556 -8.59204 58.6854 20.9534 41.4654 22.8988Z" fill="url(#paint2_linear_2642_940)"/>
<path d="M45.0725 39.7978C54.4652 38.7035 60.4862 32.7458 65.0621 25.937C52.2977 37.6092 40.2557 27.6392 24.1195 17.426C19.664 14.9943 15.2085 12.4409 10.753 11.7114C8.3446 11.4683 6.41789 11.5898 4.73202 12.0762C3.4074 12.5625 1.96237 13.1705 0.637755 14.2647C-0.44602 15.1158 -0.0847613 16.818 1.23985 17.0612C13.041 19.7361 23.6379 42.3511 45.0725 39.7978Z" fill="url(#paint3_linear_2642_940)"/>
<path d="M99.1374 12.684L95.7656 8.1853V16.0884H92.7551V1.49806H94.0797L99.4986 8.42847L104.917 1.49806H106.242V16.0884H103.232V8.1853L99.8599 12.684H99.1374ZM115.274 15.7236C115.153 15.6021 115.033 15.3589 114.912 15.1157C114.671 15.3589 114.31 15.6021 113.829 15.8452C113.106 16.21 112.383 16.3316 111.661 16.3316C110.698 16.3316 109.855 16.0884 109.012 15.4805C108.289 14.8725 107.928 14.0214 107.928 13.0487C107.928 11.8329 108.289 10.9818 109.012 10.2523C109.734 9.64433 110.698 9.27958 111.902 9.27958C112.745 9.27958 113.588 9.40116 114.31 9.76592V9.40116C114.31 8.91482 114.19 8.67164 113.829 8.42847C113.467 8.1853 112.986 8.06371 112.383 8.06371C111.781 8.06371 111.179 8.1853 110.698 8.30689C110.216 8.42847 109.734 8.55006 109.493 8.67164L109.132 8.91482L108.65 6.60468L108.891 6.48309C109.855 5.99675 111.179 5.75358 112.504 5.75358C113.829 5.75358 114.912 5.99675 115.755 6.60468C116.598 7.21261 117.08 8.1853 117.08 9.52275V13.2919C117.08 13.5351 117.08 13.7783 117.08 13.8998C117.08 13.8998 117.08 14.0214 117.2 14.2646C117.2 14.3862 117.2 14.3862 117.2 14.3862C117.2 14.3862 117.321 14.3862 117.682 14.3862H118.043V16.3316H117.682C116.839 16.3316 115.876 16.4532 115.274 15.7236ZM112.504 11.4681C111.902 11.4681 111.541 11.5897 111.179 11.8329C110.938 12.0761 110.698 12.4408 110.698 12.8056C110.698 13.1703 110.818 13.4135 111.059 13.5351C111.3 13.7783 111.661 13.7783 112.022 13.7783C112.624 13.7783 113.106 13.6567 113.588 13.4135C113.949 13.1703 114.19 12.8056 114.31 12.4408V11.9545C113.829 11.7113 113.106 11.4681 112.504 11.4681ZM127.195 15.8452C126.954 15.7236 126.834 15.4805 126.713 15.1157C125.991 15.9668 125.028 16.3316 123.823 16.3316H123.703C122.258 16.3316 121.174 15.8452 120.331 14.7509C119.488 13.7783 119.127 12.4408 119.127 10.9818C119.127 9.40116 119.609 8.1853 120.572 7.21261C121.535 6.23992 122.619 5.75358 123.944 5.75358C124.787 5.75358 125.509 5.87516 126.232 6.23992V1.01172H129.122V12.8056C129.122 13.6567 129.122 13.7783 129.242 13.7783C129.242 13.7783 129.363 13.8998 129.844 13.8998H130.206V16.0884H129.844C128.52 16.4532 127.677 16.3316 127.195 15.8452ZM124.425 8.42847C124.305 8.42847 124.305 8.42847 124.425 8.42847C123.583 8.42847 123.101 8.67164 122.619 9.15799C122.137 9.64433 122.017 10.2523 122.017 11.1034C122.017 11.8329 122.258 12.5624 122.619 13.0487C122.98 13.5351 123.462 13.7783 124.185 13.7783C124.787 13.7783 125.268 13.5351 125.63 13.1703C125.991 12.684 126.232 12.1976 126.232 11.5897V9.15799C125.63 8.67164 125.028 8.42847 124.425 8.42847ZM132.614 14.8725C131.53 13.8998 131.049 12.4408 131.049 10.8602C131.049 9.27957 131.651 7.94213 132.614 7.09102C133.577 6.23992 134.902 5.75358 136.227 5.75358C137.912 5.75358 139.237 6.23992 140.08 7.3342C140.923 8.42847 141.043 9.76592 140.802 11.4681V11.7113H133.939C134.059 12.3192 134.3 12.684 134.661 13.0487C135.143 13.5351 135.865 13.6567 136.588 13.6567C137.792 13.6567 138.876 13.5351 139.839 13.0487L140.2 12.8056L140.562 15.1157L140.321 15.2373C138.996 15.8452 137.792 16.0884 136.467 16.0884C134.902 16.4532 133.577 15.9668 132.614 14.8725ZM133.939 9.64433H138.274C138.274 9.27957 138.033 8.91482 137.792 8.67164C137.431 8.30689 136.829 8.1853 136.227 8.1853C135.022 8.1853 134.3 8.55006 133.939 9.64433ZM92.7551 23.262C92.3939 23.5052 92.2734 23.9915 92.2734 24.4778C92.2734 24.9642 92.3939 25.4505 92.7551 25.6937C93.1164 25.9369 93.4776 26.0585 93.8389 26.0585C93.8389 26.0585 93.8389 26.0585 93.9593 26.0585C94.3206 26.0585 94.8023 25.9369 95.0431 25.5721C95.4043 25.3289 95.5248 24.8426 95.5248 24.3563C95.5248 23.8699 95.4043 23.5052 95.0431 23.1404C94.3206 22.7756 93.3572 22.7756 92.7551 23.262ZM92.3939 37.2444H95.2839V27.1527H92.3939V37.2444ZM103.472 26.9096C102.75 26.9096 102.027 27.0311 101.425 27.3959C101.064 27.5175 100.703 27.7607 100.462 28.0038C100.342 27.7607 100.221 27.5175 100.101 27.3959C99.7394 27.0311 99.2578 26.9096 98.7761 26.9096C98.2944 26.9096 97.8127 27.0311 97.3311 27.0311H96.9698V29.0981H97.3311C97.6923 29.0981 97.8127 29.0981 97.8127 29.0981C97.8127 29.0981 97.9332 29.3413 97.9332 30.0708V37.1228H100.823V31.4083C100.823 30.6787 101.064 30.1924 101.425 29.8276C101.787 29.4629 102.268 29.2197 102.87 29.2197C103.472 29.2197 103.834 29.4629 104.195 29.8276C104.556 30.1924 104.677 30.6787 104.677 31.2867V37.2444H107.567V31.2867C107.567 29.9492 107.205 28.8549 106.483 28.1254C105.76 27.2743 104.797 26.9096 103.472 26.9096ZM123.583 31.8946L126.834 36.3933V37.2444H123.944L120.572 32.3809H118.164V37.2444H115.153V22.7756H121.174C122.74 22.7756 123.944 23.262 124.907 24.1131C125.87 25.0858 126.352 26.18 126.352 27.5175C126.352 28.4902 126.111 29.4629 125.509 30.314C124.907 31.0435 124.305 31.5298 123.583 31.8946ZM118.164 29.8276H121.174C121.776 29.8276 122.378 29.5845 122.74 29.2197C123.101 28.8549 123.342 28.247 123.342 27.6391C123.342 27.0311 123.101 26.5448 122.74 26.0585C122.378 25.6937 121.776 25.4505 121.174 25.4505H118.164V29.8276ZM138.153 35.1774C137.792 35.1774 137.672 35.1774 137.672 35.1774C137.672 35.1774 137.551 34.9342 137.551 34.2047V27.0311H134.661V32.8673C134.661 33.4752 134.42 34.0831 134.059 34.4479C133.698 34.8127 133.216 35.0558 132.614 35.0558C132.132 35.0558 131.651 34.9342 131.41 34.5695C131.049 34.2047 130.928 33.7184 130.928 32.9889V27.1527H128.038V32.9889C128.038 34.3263 128.399 35.4206 129.001 36.2717C129.603 37.1228 130.567 37.6091 132.012 37.6091C133.336 37.6091 134.42 37.2444 135.022 36.5149C135.022 36.6365 135.143 36.6365 135.143 36.758C135.263 37.0012 135.504 37.2444 135.745 37.4876C135.986 37.6091 136.227 37.7307 136.588 37.7307C136.708 37.7307 136.829 37.7307 136.949 37.7307C137.069 37.7307 137.31 37.7307 137.431 37.7307C137.672 37.7307 137.912 37.6091 138.274 37.6091H138.635V35.5422L138.153 35.1774ZM147.666 32.0162C147.426 31.773 147.064 31.6514 146.703 31.5298C146.342 31.4083 145.981 31.2867 145.619 31.2867C145.258 31.2867 144.897 31.1651 144.415 31.1651C143.452 31.0435 142.97 30.9219 142.729 30.8003C142.488 30.6787 142.488 30.5571 142.368 30.314C142.368 30.1924 142.368 29.9492 142.729 29.706C143.09 29.4629 143.452 29.3413 143.933 29.3413C144.415 29.3413 144.897 29.4629 145.258 29.5845C145.499 29.706 145.619 29.9492 145.619 30.1924V30.5571H148.148V30.1924C148.148 29.0981 147.787 28.3686 146.823 27.7607C145.981 27.2743 145.017 26.9096 143.813 26.9096C142.609 26.9096 141.645 27.1527 140.802 27.7607C139.96 28.3686 139.478 29.2197 139.478 30.314C139.478 31.4083 139.96 32.1378 140.923 32.6241C141.525 32.8673 142.488 33.1105 143.933 33.3536C144.535 33.4752 145.138 33.5968 145.378 33.7184C145.619 33.84 145.74 33.9616 145.74 34.2047C145.74 34.5695 145.74 35.299 143.813 35.299C143.331 35.299 142.85 35.1774 142.488 34.9342C142.127 34.6911 142.007 34.4479 142.007 34.2047V33.84H139.237V34.2047C139.357 35.4206 139.839 36.2717 140.682 36.8796C141.525 37.366 142.609 37.6091 143.813 37.6091C145.017 37.6091 146.101 37.366 146.944 36.758C147.787 36.1501 148.268 35.299 148.268 34.2047C148.268 33.7184 148.148 33.232 148.028 32.8673C148.148 32.5025 148.028 32.2594 147.666 32.0162ZM157.902 32.0162C157.661 31.773 157.3 31.6514 156.939 31.5298C156.577 31.4083 156.216 31.2867 155.855 31.2867C155.494 31.2867 155.132 31.1651 154.651 31.1651C153.687 31.0435 153.206 30.9219 152.965 30.8003C152.724 30.6787 152.724 30.5571 152.604 30.314C152.604 30.1924 152.604 29.9492 152.965 29.706C153.326 29.4629 153.687 29.3413 154.169 29.3413C154.651 29.3413 155.132 29.4629 155.494 29.5845C155.735 29.706 155.855 29.9492 155.855 30.1924V30.5571H158.384V30.1924C158.384 29.0981 158.022 28.3686 157.059 27.7607C156.216 27.2743 155.253 26.9096 154.049 26.9096C152.844 26.9096 151.881 27.1527 151.038 27.7607C150.195 28.3686 149.714 29.2197 149.714 30.314C149.714 31.4083 150.195 32.1378 151.159 32.6241C151.761 32.8673 152.724 33.1105 154.169 33.3536C154.771 33.4752 155.373 33.5968 155.614 33.7184C155.855 33.84 155.975 33.9616 155.975 34.2047C155.975 34.5695 155.975 35.299 154.049 35.299C153.567 35.299 153.085 35.1774 152.724 34.9342C152.363 34.6911 152.242 34.4479 152.242 34.2047V33.84H149.473V34.2047C149.593 35.4206 150.075 36.2717 150.918 36.8796C151.761 37.366 152.844 37.6091 154.049 37.6091C155.253 37.6091 156.337 37.366 157.18 36.758C158.022 36.1501 158.504 35.299 158.504 34.2047C158.504 33.7184 158.384 33.232 158.263 32.8673C158.384 32.5025 158.143 32.2594 157.902 32.0162ZM160.551 37.2444H163.441V27.1527H160.551V37.2444ZM160.913 23.262C160.551 23.5052 160.431 23.9915 160.431 24.4778C160.431 24.9642 160.551 25.4505 160.913 25.6937C161.274 25.9369 161.635 26.0585 161.996 26.0585C161.996 26.0585 161.996 26.0585 162.117 26.0585C162.478 26.0585 162.96 25.9369 163.201 25.5721C163.562 25.3289 163.682 24.8426 163.682 24.3563C163.682 23.8699 163.562 23.5052 163.201 23.1404C162.478 22.7756 161.515 22.7756 160.913 23.262ZM175.242 37.2444H174.881C173.797 37.366 172.834 37.4876 172.232 36.8796C172.112 36.758 171.991 36.5149 171.871 36.2717C171.63 36.5149 171.269 36.758 170.787 37.0012C170.064 37.366 169.342 37.4876 168.619 37.4876C167.656 37.4876 166.813 37.2444 165.97 36.6365C165.248 36.0285 164.886 35.1774 164.886 34.2047C164.886 32.9889 165.248 32.1378 165.97 31.4083C166.693 30.8003 167.656 30.4356 168.86 30.4356C169.703 30.4356 170.546 30.5571 171.269 30.9219V30.5571C171.269 30.0708 171.148 29.8276 170.787 29.5845C170.426 29.3413 169.944 29.2197 169.342 29.2197C168.74 29.2197 168.138 29.3413 167.656 29.4629C167.174 29.5845 166.693 29.706 166.452 29.8276L166.091 30.0708L165.609 27.7607L165.85 27.6391C166.813 27.1527 168.138 26.9096 169.462 26.9096C170.787 26.9096 171.871 27.1527 172.714 27.7607C173.557 28.3686 174.038 29.3413 174.038 30.6787V34.4479C174.038 34.6911 174.038 34.9342 174.038 35.0558C174.038 35.0558 174.038 35.1774 174.159 35.4206C174.159 35.5422 174.159 35.5422 174.159 35.5422C174.159 35.5422 174.279 35.5422 174.64 35.5422H175.002L175.242 37.2444ZM169.462 32.6241H169.342C168.86 32.6241 168.499 32.7457 168.138 32.9889C167.897 33.232 167.656 33.5968 167.656 33.9616C167.656 34.3263 167.776 34.5695 168.017 34.6911C168.258 34.9342 168.619 34.9342 168.981 34.9342C169.583 34.9342 170.064 34.8127 170.546 34.5695C170.907 34.3263 171.148 33.9616 171.269 33.5968V33.1105C170.907 32.7457 170.185 32.6241 169.462 32.6241Z" fill="white"/>
</g>
<defs>
<linearGradient id="paint0_linear_2642_940" x1="41.2089" y1="11.512" x2="35.7408" y2="18.5589" gradientUnits="userSpaceOnUse">
<stop stop-color="#E6E6E6"/>
<stop offset="1" stop-color="#B3B3B3"/>
</linearGradient>
<linearGradient id="paint1_linear_2642_940" x1="33.0733" y1="16.3219" x2="27.6803" y2="24.0203" gradientUnits="userSpaceOnUse">
<stop offset="0.00058962" stop-color="#EBEBEB"/>
<stop offset="1" stop-color="#D3D3D3"/>
</linearGradient>
<linearGradient id="paint2_linear_2642_940" x1="67.8144" y1="-5.06924" x2="39.4272" y2="26.9014" gradientUnits="userSpaceOnUse">
<stop stop-color="#EFEFEF"/>
<stop offset="1" stop-color="#B1B1B1"/>
</linearGradient>
<linearGradient id="paint3_linear_2642_940" x1="42.6558" y1="9.14593" x2="21.9972" y2="32.4123" gradientUnits="userSpaceOnUse">
<stop stop-color="#FEFEFE"/>
<stop offset="1" stop-color="#C5C5C5"/>
</linearGradient>
</defs>
</svg>
