<svg width="112" height="60" viewBox="0 0 112 60" fill="none" xmlns="http://www.w3.org/2000/svg">
<g opacity="0.7">
<path d="M68.2353 1.00223C62.6222 -1.24301 56.421 0.396371 52.6255 4.79775C37.6216 21.1916 37.6216 21.1916 37.6216 21.1916C37.3543 21.3697 37.4434 21.6192 37.7998 21.7083C41.6844 21.9756 41.6844 21.9756 41.6844 21.9756C42.023 21.9756 42.1121 22.2429 41.9517 22.4924C32.2045 33.2731 32.2045 33.2731 32.2045 33.2731C32.0263 33.3622 32.2045 33.7007 32.4718 33.6116C46.3709 29.1212 46.3709 29.1212 46.3709 29.1212C46.7095 29.0321 46.9768 29.2994 46.7986 29.5488C44.8919 32.9167 44.8919 32.9167 44.8919 32.9167C44.8028 33.0949 44.981 33.3443 45.2305 33.3443C65.3307 28.6935 65.3307 28.6935 65.3307 28.6935C70.0707 27.9985 74.3829 24.6307 76.2896 19.7125C79.1051 12.2997 75.5768 3.94242 68.2353 1.00223ZM70.4805 15.8457C65.99 17.7346 65.99 17.7346 65.99 17.7346C65.8118 17.7346 65.8118 17.7346 65.8118 17.7346C64.7783 22.8309 64.7783 22.8309 64.7783 22.8309C64.6892 23.0091 64.511 23.0982 64.3506 22.92C61.0719 18.9463 61.0719 18.9463 61.0719 18.9463C60.9828 18.9463 60.9828 18.9463 60.9828 18.9463C42.611 27.0541 42.611 27.0541 42.611 27.0541H42.5219L42.4328 26.965C42.4328 26.8759 42.4328 26.8759 42.5219 26.8759C58.399 14.6162 58.399 14.6162 58.399 14.6162C56.421 9.87626 56.421 9.87627 56.421 9.87627C56.3319 9.69807 56.5101 9.4486 56.7596 9.5377C61.5887 10.7494 61.5886 10.7494 61.5886 10.7494C65.3842 7.29246 65.3842 7.29246 65.3842 7.29246C65.5624 7.20336 65.8118 7.29246 65.8118 7.47065C66.2395 12.6561 66.2395 12.6561 66.2395 12.6561C70.5518 15.2399 70.5518 15.2399 70.5518 15.2399C70.7478 15.4003 70.7478 15.6676 70.4805 15.8457Z" fill="white"/>
<path d="M25.7126 56.4735H22.2734L24.9463 43.7861L28.6528 42.4141L25.7126 56.4735Z" fill="white"/>
<path d="M15.9626 52.948C15.9626 53.0371 15.9626 53.2153 15.9626 53.2153C15.9626 53.8211 16.3011 53.9993 17.2634 53.9993C18.2256 53.9993 19.5086 53.8211 20.2036 53.5716C20.2036 56.1555 20.2036 56.1555 20.2036 56.1555C19.3482 56.494 17.7801 56.6722 16.5862 56.6722C13.8242 56.6722 12.5234 55.8882 12.5234 53.3044C12.5234 50.8097 13.6461 46.8359 18.0474 46.8359C20.8985 46.8359 21.7539 48.1368 21.7539 49.5088C21.7539 51.2195 20.2749 52.7698 15.9626 52.948ZM17.8692 49.2237C17.0139 49.2237 16.5684 49.9187 16.4081 50.6849C17.9583 50.6849 18.4751 50.1682 18.4751 49.7405C18.4751 49.491 18.1187 49.2237 17.8692 49.2237Z" fill="white"/>
<path d="M31.516 46.3878C30.3934 46.3878 29.6094 45.6037 29.6094 44.5702C29.6094 43.1981 30.5538 42.4141 31.6764 42.4141C32.8881 42.4141 33.5831 43.1981 33.5831 44.2316C33.5831 45.6037 32.7278 46.3878 31.516 46.3878Z" fill="white"/>
<path d="M29.4348 47.1523H32.963L31.1454 56.2937H27.6172L28.918 49.9143" fill="white"/>
<path d="M42.9864 47.1523C41.7747 50.1638 40.4026 53.1931 38.7632 56.2937C34.4509 56.2937 34.4509 56.2937 34.4509 56.2937C33.8451 53.3535 33.6669 50.342 33.756 47.1523C37.2129 47.1523 37.2129 47.1523 37.2129 47.1523C37.2129 48.6135 37.2129 50.1638 37.2129 51.6428C37.302 51.9814 37.302 52.3378 37.3911 52.7654C37.4802 52.3378 37.6584 51.9814 37.8188 51.6428C38.4246 50.0925 39.0305 48.4532 39.3691 47.1523" fill="white"/>
<path d="M45.8329 52.948C45.7438 53.0371 45.7438 53.2153 45.7438 53.2153C45.7438 53.8211 46.1715 53.9993 47.1159 53.9993C48.0603 53.9993 49.2721 53.8211 50.0561 53.5716C50.0561 56.1555 50.0561 56.1555 50.0561 56.1555C49.1117 56.494 47.6327 56.6722 46.4388 56.6722C43.6768 56.6722 42.3047 55.8882 42.3047 53.3044C42.3047 50.8097 43.4273 46.8359 47.9178 46.8359C50.7689 46.8359 51.6242 48.1368 51.6242 49.5088C51.6064 51.2195 50.1452 52.7698 45.8329 52.948ZM47.6327 49.2237C46.8486 49.2237 46.3319 49.9187 46.1715 50.6849C47.8109 50.6849 48.2385 50.1682 48.2385 49.7405C48.2385 49.491 47.9891 49.2237 47.6327 49.2237Z" fill="white"/>
<path d="M58.3373 50.3485C58.1591 50.3485 57.7314 50.2594 57.4819 50.2594C56.6979 50.2594 56.1099 51.0435 55.8426 52.5047C55.0585 56.3002 55.0585 56.3002 55.0585 56.3002C51.6016 56.3002 51.6016 56.3002 51.6016 56.3002C53.33 47.1589 53.33 47.1589 53.33 47.1589C55.9138 47.1589 55.9138 47.1589 55.9138 47.1589C56.092 48.3706 56.092 48.3706 56.092 48.3706C56.8761 47.3371 57.5532 46.8203 58.5155 46.8203C58.9431 46.8203 59.1213 46.9094 59.2995 46.9094" fill="white"/>
<path d="M69.2787 47.1523C67.7284 51.2152 66.4276 54.2266 64.9664 56.2937C62.9885 59.3051 61.26 60.0001 59.4424 60.0001C58.9256 60.0001 58.3198 59.911 58.0703 59.7328C58.5871 57.149 58.5871 57.149 58.5871 57.149C59.8879 57.149 59.8879 57.149 59.8879 57.149C60.4937 57.149 60.6719 56.8104 61.0996 56.2937C60.4046 53.799 60.0661 50.342 60.1552 47.1523C63.7012 47.1523 63.7012 47.1523 63.7012 47.1523C63.6121 48.6135 63.6121 50.1638 63.7012 51.5537C63.7012 51.9814 63.7903 52.3378 63.7903 52.7654C63.9685 52.3378 64.1289 51.9814 64.3071 51.6428C64.8238 50.1816 65.4297 48.4532 65.8574 47.1523" fill="white"/>
<path d="M82.8359 56.2966H79.1117L79.9848 51.6457H76.8843L76.0111 56.2966H72.3047L74.639 44.0547H78.3454L77.4723 48.4561H80.6798L81.446 44.0547H85.1524" fill="white"/>
<path d="M88.2782 52.948C88.2782 53.0371 88.1891 53.2153 88.1891 53.2153C88.1891 53.8211 88.6168 53.9993 89.6503 53.9993C90.5057 53.9993 91.8065 53.8211 92.5905 53.5716C92.5905 56.1555 92.5905 56.1555 92.5905 56.1555C91.557 56.494 90.0958 56.6722 88.9732 56.6722C86.1221 56.6722 84.75 55.8882 84.75 53.3044C84.75 50.8097 85.9617 46.8359 90.3631 46.8359C93.2142 46.8359 94.0695 48.1368 94.0695 49.5088C94.0517 51.2195 92.5905 52.7698 88.2782 52.948ZM90.078 49.2237C89.2939 49.2237 88.8663 49.9187 88.6168 50.6849C90.2562 50.6849 90.7729 50.1682 90.7729 49.7405C90.7729 49.491 90.5235 49.2237 90.078 49.2237Z" fill="white"/>
<path d="M100.785 50.3485C100.607 50.3485 100.268 50.2594 100.001 50.2594C99.1454 50.2594 98.5395 51.0435 98.2723 52.5047C97.4882 56.3002 97.4882 56.3002 97.4882 56.3002C94.0313 56.3002 94.0312 56.3002 94.0312 56.3002C95.7597 47.1589 95.7597 47.1589 95.7597 47.1589C98.4326 47.1589 98.4326 47.1589 98.4326 47.1589C98.5217 48.3706 98.5217 48.3706 98.5217 48.3706C99.3058 47.3371 99.9829 46.8203 100.945 46.8203C101.373 46.8203 101.64 46.9094 101.729 46.9094" fill="white"/>
<path d="M105.283 56.6566C102.521 56.6566 101.148 55.4449 101.148 53.1105C101.148 50.4376 102.449 46.8203 107.011 46.8203C109.684 46.8203 111.145 48.032 111.145 50.3664C111.145 53.1105 109.844 56.6566 105.283 56.6566ZM106.566 49.5823C105.193 49.5823 104.748 51.8275 104.748 52.772C104.748 53.6273 105.087 53.8055 105.781 53.8055C107.082 53.8055 107.51 51.6494 107.51 50.6158C107.51 49.9209 107.171 49.5823 106.566 49.5823Z" fill="white"/>
<path d="M8.1969 47.1533C10.6203 44.819 10.6203 44.819 10.6203 44.819C9.67591 44.3022 8.46419 44.0349 6.82481 44.0349C6.04076 44.0349 6.04076 44.0349 6.04076 44.0349C2.33434 44.0349 2.33434 44.0349 2.33434 44.0349C0 56.2946 0 56.2946 0 56.2946C3.70642 56.2946 3.70643 56.2946 3.70643 56.2946C4.65085 56.2946 4.65085 56.2946 4.65085 56.2946C10.0858 56.2946 12.2419 52.4991 12.2419 48.4363C12.2419 47.4028 12.0637 46.5296 11.636 45.8525L8.1969 47.1533ZM4.93596 53.3723C4.24101 53.3723 4.24101 53.3723 4.24101 53.3723C5.54182 46.9038 5.54182 46.9038 5.54182 46.9038C6.48624 46.9038 6.48624 46.9038 6.48624 46.9038C7.94743 46.9038 8.46419 47.8483 8.46419 49.06C8.46419 51.4656 7.0921 53.3723 4.93596 53.3723Z" fill="white"/>
</g>
</svg>
