<svg width="216" height="40" viewBox="0 0 216 40" fill="none" xmlns="http://www.w3.org/2000/svg">
<g opacity="0.7">
<path d="M37.5034 6.18774C36.1656 6.18774 34.8277 6.36454 33.5762 6.71813V12.5966C34.7846 12.022 36.0793 11.7126 37.5034 11.7126C41.7328 11.7126 45.2717 14.5855 46.4369 18.5192H33.5762V24.0441H51.9178C52.0905 23.1159 52.1768 22.1877 52.1768 21.2595C52.1768 12.906 45.6169 6.18774 37.5034 6.18774Z" fill="white"/>
<path d="M37.5034 30.7623C36.1224 30.7623 34.7846 30.4529 33.5762 29.8783V35.7568C34.8277 36.1104 36.1224 36.2872 37.5034 36.2872C43.6749 36.2872 48.9832 32.3535 51.141 26.8286H45.0127C43.3296 29.2154 40.5676 30.7623 37.5034 30.7623Z" fill="white"/>
<path d="M14.1123 13.6576L7.07773 6.23218H0L14.1123 21.2156L22.7868 11.9338V21.2156V22.0112C22.83 23.1161 23.0026 24.1769 23.3047 25.1935C24.1247 28.2432 25.851 30.8951 28.1814 32.8399V32.5305V32.4863V21.2598V21.1714V9.59129V6.23218H21.1037L14.1123 13.6576Z" fill="white"/>
<path d="M63.1387 19.5802V6.5415H66.0733L70.389 11.978L74.4889 6.5415H77.3373V19.5802H74.1005V11.6244L70.3459 16.4862H70.2596L66.3754 11.6244V19.5802H63.1387Z" fill="white"/>
<path d="M82.5161 17.9446C81.2214 16.6629 80.6172 15.0275 80.6172 13.0386C80.6172 11.0496 81.2645 9.41426 82.5161 8.13249C83.8108 6.85073 85.4508 6.18774 87.5223 6.18774C89.5938 6.18774 91.2769 6.85073 92.5285 8.13249C93.8232 9.41426 94.4274 11.0496 94.4274 13.0386C94.4274 15.0275 93.78 16.6629 92.5285 17.9446C91.2338 19.2264 89.5938 19.8894 87.5223 19.8894C85.4508 19.8894 83.8108 19.2264 82.5161 17.9446ZM84.0697 13.0386C84.0697 14.1435 84.415 15.0275 85.0623 15.7347C85.7097 16.4419 86.5297 16.7955 87.5223 16.7955C88.558 16.7955 89.378 16.4419 90.0254 15.7789C90.6727 15.0717 91.018 14.1877 91.018 13.0828C91.018 12.022 90.6727 11.0938 90.0254 10.4308C89.378 9.72365 88.5149 9.37006 87.5223 9.37006C86.5297 9.37006 85.7097 9.72365 85.0623 10.3866C84.415 11.0496 84.0697 11.9336 84.0697 13.0386Z" fill="white"/>
<path d="M107.374 15.2043L108.884 17.6352C108.366 18.3866 107.633 18.917 106.769 19.3148C105.863 19.7126 104.914 19.8894 103.835 19.8894C101.763 19.8894 100.08 19.2706 98.8286 17.9888C97.577 16.7513 96.9297 15.0717 96.9297 13.0386C96.9297 11.0938 97.5339 9.50266 98.7854 8.17669C100.037 6.85073 101.591 6.18774 103.533 6.18774C105.777 6.18774 107.503 6.76233 108.668 7.9557L107.158 10.6076C106.295 9.76785 105.259 9.32586 104.007 9.32586C103.058 9.32586 102.238 9.67945 101.547 10.3424C100.857 11.0496 100.469 11.9336 100.469 13.0386C100.469 14.1435 100.814 15.0717 101.547 15.7347C102.281 16.4419 103.144 16.7513 104.137 16.7513C105.345 16.7955 106.424 16.2651 107.374 15.2043Z" fill="white"/>
<path d="M111.949 19.5802V6.5415H115.186V19.5802H111.949ZM123.99 6.5415L119.113 12.7293L124.594 19.5802H120.365L115.315 12.9945L119.89 6.5415H123.99Z" fill="white"/>
<path d="M127.27 17.9446C125.975 16.6629 125.371 15.0275 125.371 13.0386C125.371 11.0496 126.018 9.41426 127.27 8.13249C128.565 6.85073 130.205 6.18774 132.276 6.18774C134.348 6.18774 136.031 6.85073 137.282 8.13249C138.577 9.41426 139.181 11.0496 139.181 13.0386C139.181 15.0275 138.534 16.6629 137.282 17.9446C135.988 19.2264 134.348 19.8894 132.276 19.8894C130.248 19.8894 128.565 19.2264 127.27 17.9446ZM128.867 13.0386C128.867 14.1435 129.212 15.0275 129.859 15.7347C130.507 16.4419 131.327 16.7955 132.319 16.7955C133.355 16.7955 134.175 16.4419 134.822 15.7789C135.47 15.0717 135.815 14.1877 135.815 13.0828C135.815 12.022 135.47 11.0938 134.822 10.4308C134.175 9.72365 133.312 9.37006 132.319 9.37006C131.327 9.37006 130.507 9.72365 129.859 10.3866C129.212 11.0496 128.867 11.9336 128.867 13.0386Z" fill="white"/>
<path d="M142.504 19.58V6.5413C142.72 6.5413 143.151 6.5413 143.755 6.4971C144.36 6.4529 145.007 6.4529 145.654 6.4087C146.302 6.4087 146.906 6.3645 147.51 6.3645C151.351 6.3645 153.293 7.51367 153.293 9.76781C153.293 10.5192 153.077 11.1822 152.603 11.7126C152.128 12.2429 151.567 12.5523 150.919 12.6849V12.7291C152.732 13.1711 153.638 14.1877 153.638 15.7347C153.638 18.3424 151.61 19.6683 147.596 19.6683C147.035 19.6683 146.129 19.6242 144.921 19.58C143.669 19.58 142.849 19.58 142.504 19.58ZM147.812 9.06063C146.906 9.06063 146.215 9.06063 145.784 9.10483V11.9778H147.899C148.46 11.9778 148.934 11.8452 149.28 11.58C149.668 11.3148 149.841 10.9612 149.841 10.475C149.841 9.54682 149.15 9.06063 147.812 9.06063ZM147.812 14.0109H145.784V16.928C147.079 17.0164 147.769 17.0606 147.942 17.0606C148.675 17.0606 149.236 16.928 149.625 16.6628C150.013 16.3976 150.229 16.044 150.229 15.5579C150.186 14.5413 149.409 14.0109 147.812 14.0109Z" fill="white"/>
<path d="M166.801 15.2043L168.312 17.6352C167.794 18.3866 167.06 18.917 166.197 19.3148C165.291 19.7126 164.341 19.8894 163.263 19.8894C161.191 19.8894 159.508 19.2706 158.256 17.9888C157.005 16.7513 156.357 15.0717 156.357 13.0386C156.357 11.0938 156.962 9.50266 158.213 8.17669C159.465 6.85073 161.018 6.18774 162.96 6.18774C165.205 6.18774 166.931 6.76233 168.096 7.9557L166.586 10.6076C165.722 9.76785 164.687 9.32586 163.435 9.32586C162.486 9.32586 161.666 9.67945 160.975 10.3424C160.285 11.0496 159.896 11.9336 159.896 13.0386C159.896 14.1435 160.242 15.0717 160.975 15.7347C161.709 16.4419 162.572 16.7513 163.565 16.7513C164.73 16.7955 165.852 16.2651 166.801 15.2043Z" fill="white"/>
<path d="M171.332 19.5802V6.5415H174.569V19.5802H171.332ZM183.416 6.5415L178.539 12.7293L184.02 19.5802H179.791L174.741 12.9945L179.316 6.5415H183.416Z" fill="white"/>
<path d="M189.588 19.5802H186.352V6.5415H189.588V14.8067L195.544 6.5415H198.781V19.5802H195.544V11.315L189.588 19.5802Z" fill="white"/>
<path d="M206.075 19.5801H202.838V6.54143H206.075V14.8066L212.03 6.54143H215.267V19.5801H212.03V11.3149L206.075 19.5801ZM204.737 0H207.715C207.715 0.618784 207.844 1.10497 208.06 1.50276C208.276 1.90055 208.664 2.12154 209.182 2.12154C209.614 2.12154 209.959 1.90055 210.218 1.50276C210.434 1.10497 210.563 0.618784 210.563 0H213.541C213.541 1.32596 213.152 2.38674 212.419 3.22651C211.685 4.06629 210.606 4.50828 209.225 4.50828C207.715 4.50828 206.593 4.11049 205.859 3.27071C205.082 2.43094 204.737 1.37016 204.737 0Z" fill="white"/>
<path d="M65.2965 32.0442V31.2045H69.7848C69.6985 30.2321 69.3533 29.4365 68.7059 28.9061C68.0585 28.3757 67.2817 28.1105 66.3323 28.1105C65.2102 28.1105 64.2607 28.4641 63.5702 29.2155L63.1387 28.4641C63.5271 28.0664 64.0018 27.757 64.5628 27.536C65.167 27.315 65.7281 27.1824 66.3323 27.1824C67.6701 27.1824 68.7491 27.5802 69.6122 28.4199C70.4753 29.2597 70.8637 30.3647 70.8637 31.7349C70.8637 33.0166 70.4753 34.1216 69.6553 34.9614C68.8354 35.8453 67.8428 36.2873 66.6344 36.2873C65.1239 36.2873 64.0018 35.9337 63.2681 35.2266L63.7429 34.4752C64.3902 35.0498 65.3397 35.3592 66.5481 35.3592C67.4544 35.3592 68.2312 35.0498 68.8785 34.4752C69.4827 33.8564 69.828 33.105 69.9143 32.0884H65.2965V32.0442Z" fill="white"/>
<path d="M73.2363 36.1105V27.3591H74.2289V36.1105H73.2363ZM80.2277 27.3591L75.9984 31.558L80.573 36.1105H79.2351L74.79 31.6022L78.933 27.3591H80.2277Z" fill="white"/>
<path d="M88.6879 34.1216L89.1626 34.873C88.8173 35.315 88.3426 35.6686 87.7816 35.9337C87.2205 36.1989 86.5732 36.2873 85.969 36.2873C84.6311 36.2873 83.5522 35.8895 82.6891 35.0498C81.8259 34.21 81.4375 33.105 81.4375 31.7349C81.4375 30.4531 81.8259 29.3481 82.6459 28.5083C83.4659 27.6244 84.4585 27.1824 85.6669 27.1824C87.1342 27.1824 88.2563 27.536 88.99 28.2873L88.5152 29.0829C87.8247 28.4641 86.9184 28.1105 85.7963 28.1105C84.8901 28.1105 84.0701 28.4641 83.4227 29.1271C82.7754 29.8343 82.4301 30.6741 82.4301 31.6907C82.4301 32.7956 82.7754 33.6354 83.4227 34.2984C84.1132 34.9614 84.9332 35.2708 85.969 35.2708C87.1342 35.315 87.9973 34.9172 88.6879 34.1216Z" fill="white"/>
<path d="M97.7937 36.1105V28.2873H92.3559V36.1105H91.3633V27.3591H98.7863V36.1105H97.7937Z" fill="white"/>
<path d="M102.412 35.0056C101.592 34.1658 101.16 33.0608 101.16 31.7349C101.16 30.4089 101.592 29.3039 102.412 28.4641C103.232 27.6244 104.311 27.1824 105.648 27.1824C106.986 27.1824 108.022 27.6244 108.885 28.4641C109.705 29.3039 110.137 30.4089 110.137 31.7349C110.137 33.0608 109.705 34.1658 108.885 35.0056C108.065 35.8453 106.986 36.2873 105.648 36.2873C104.354 36.2873 103.275 35.8453 102.412 35.0056ZM103.189 29.1271C102.541 29.7901 102.196 30.6741 102.196 31.7349C102.196 32.7956 102.498 33.6354 103.145 34.3426C103.793 35.0056 104.613 35.3592 105.605 35.3592C106.598 35.3592 107.461 35.0056 108.065 34.3426C108.713 33.6796 109.015 32.7956 109.015 31.7349C109.015 30.6741 108.713 29.8343 108.065 29.1271C107.418 28.4641 106.598 28.1105 105.605 28.1105C104.656 28.1547 103.836 28.4641 103.189 29.1271Z" fill="white"/>
<path d="M112.553 39.9998V27.3589H113.545V28.5081C113.891 28.1103 114.322 27.8009 114.883 27.5357C115.444 27.2705 116.048 27.1379 116.653 27.1379C117.861 27.1379 118.854 27.5357 119.544 28.3755C120.278 29.1711 120.623 30.2761 120.623 31.5578C120.623 32.928 120.235 34.033 119.415 34.9169C118.595 35.8009 117.559 36.2429 116.221 36.2429C115.056 36.2429 114.15 35.9777 113.502 35.4915V39.9556H112.553V39.9998ZM116.437 28.1545C115.876 28.1545 115.315 28.2871 114.797 28.5523C114.279 28.8175 113.847 29.1269 113.589 29.5247V34.5633C114.365 35.0937 115.272 35.3589 116.264 35.3589C117.3 35.3589 118.12 35.0053 118.724 34.3423C119.372 33.6352 119.674 32.7512 119.674 31.6904C119.674 30.6296 119.372 29.7899 118.81 29.1269C118.206 28.4639 117.429 28.1545 116.437 28.1545Z" fill="white"/>
<path d="M121.486 28.3757V27.3591H129.298V28.3757H125.888V36.1105H124.896V28.3757H121.486Z" fill="white"/>
<path d="M137.583 36.1105V32.1326H132.016V36.1105H131.023V27.3591H132.016V31.2044H137.583V27.3591H138.576V36.1105H137.583Z" fill="white"/>
<path d="M141.555 36.1105V27.3591H142.547V30.3205H144.015C146.259 30.3205 147.381 31.2928 147.381 33.1934C147.381 34.0332 147.122 34.7403 146.561 35.3149C146 35.8453 145.137 36.1547 143.885 36.1547H141.555V36.1105ZM143.885 31.2486H142.59V35.1823H143.885C144.791 35.1823 145.439 35.0055 145.827 34.6961C146.216 34.3867 146.388 33.8564 146.388 33.2376C146.388 31.9116 145.525 31.2486 143.885 31.2486ZM149.366 36.1105V27.3591H150.359V36.1105H149.366Z" fill="white"/>
<path d="M154.372 36.1105H153.379V27.3591H154.372V34.6519L160.068 27.3591H161.061V36.1105H160.068V28.8177L154.372 36.1105ZM154.674 22.8066H155.58C155.58 23.2928 155.753 23.6906 156.055 24.0442C156.4 24.3536 156.788 24.5304 157.349 24.5304C157.824 24.5304 158.256 24.3536 158.558 24.0442C158.86 23.7348 159.032 23.2928 159.032 22.8066H159.939C159.939 23.5138 159.68 24.1326 159.205 24.5746C158.73 25.0608 158.083 25.2818 157.349 25.2818C156.529 25.2818 155.882 25.0608 155.407 24.5746C154.933 24.1326 154.674 23.5138 154.674 22.8066Z" fill="white"/>
<path d="M168.527 36.1105V27.3591H169.52V35.1823H174.915V27.3591H175.907V35.1823H177.331V38.3646H176.382V36.1547H168.527V36.1105Z" fill="white"/>
<path d="M185.919 34.2542L186.221 35.0498C185.444 35.8895 184.408 36.2873 183.071 36.2873C181.733 36.2873 180.611 35.8895 179.791 35.0498C178.971 34.21 178.539 33.105 178.539 31.7349C178.539 30.4089 178.927 29.3039 179.704 28.4641C180.481 27.6244 181.517 27.1824 182.898 27.1824C184.02 27.1824 184.926 27.536 185.66 28.2873C186.394 28.9945 186.782 29.9669 186.782 31.1603C186.782 31.4697 186.782 31.7349 186.739 31.9558H179.704C179.747 33.0166 180.093 33.8564 180.697 34.431C181.344 35.0498 182.164 35.315 183.2 35.315C184.322 35.315 185.228 34.9614 185.919 34.2542ZM182.768 28.1547C181.862 28.1547 181.085 28.4199 180.524 28.9945C179.963 29.5249 179.661 30.2763 179.575 31.1603H185.746C185.746 30.2321 185.444 29.5249 184.926 28.9945C184.408 28.4199 183.675 28.1547 182.768 28.1547Z" fill="white"/>
<path d="M195.673 36.1105V32.1326H190.106V36.1105H189.113V27.3591H190.106V31.2044H195.673V27.3591H196.666V36.1105H195.673Z" fill="white"/>
<path d="M198.393 28.3757V27.3591H206.204V28.3757H202.795V36.1105H201.802V28.3757H198.393Z" fill="white"/>
<path d="M207.93 39.9998V27.3589H208.922V28.5081C209.268 28.1103 209.699 27.8009 210.26 27.5357C210.821 27.2705 211.425 27.1379 212.03 27.1379C213.238 27.1379 214.231 27.5357 214.921 28.3755C215.655 29.1711 216 30.2761 216 31.5578C216 32.928 215.612 34.033 214.792 34.9169C213.972 35.8009 212.936 36.2429 211.598 36.2429C210.433 36.2429 209.526 35.9777 208.879 35.4915V39.9556H207.93V39.9998ZM211.771 28.1545C211.21 28.1545 210.649 28.2871 210.131 28.5523C209.613 28.8175 209.181 29.1269 208.922 29.5247V34.5633C209.699 35.0937 210.605 35.3589 211.598 35.3589C212.634 35.3589 213.454 35.0053 214.058 34.3423C214.705 33.6352 215.007 32.7512 215.007 31.6904C215.007 30.6296 214.705 29.7899 214.144 29.1269C213.583 28.4639 212.806 28.1545 211.771 28.1545Z" fill="white"/>
</g>
</svg>
