<svg width="139" height="40" viewBox="0 0 139 40" fill="none" xmlns="http://www.w3.org/2000/svg">
<path opacity="0.7" fill-rule="evenodd" clip-rule="evenodd" d="M9.32759 0.529524C6.54874 1.14743 4.37733 2.3181 2.9075 3.99162C1.03791 6.12038 0.463617 7.81029 0.444944 11.2381C0.422841 15.3025 1.59924 17.8571 4.78394 20.6594C6.02513 21.752 7.04109 22.7836 7.04109 22.952C7.04109 23.1204 5.52896 25.525 3.68071 28.2956C1.83284 31.0663 0.193429 33.5478 0.037948 33.8095C-0.178888 34.1752 0.499438 34.2857 2.95742 34.2857H6.15927L9.77269 28.8571C11.76 25.8712 13.6807 22.9764 14.0404 22.4236L14.6944 21.419L11.6293 19.272C7.45419 16.3474 6.46947 14.8069 6.46947 11.2C6.46947 9.00876 6.63105 8.22286 7.25336 7.38895C8.45757 5.77448 10.4842 4.92153 13.6921 4.67886L16.5681 4.46133V19.3737V34.2857H19.4263H22.2844V17.1429V0L16.854 0.0319999C13.867 0.0495237 10.4804 0.273524 9.32759 0.529524ZM82.0224 9.68495C77.201 11.4053 75.0059 15.8057 75.3295 23.1036C75.5882 28.9429 77.3629 32.1105 81.3521 33.853C84.8379 35.3752 90.2325 35.2141 93.6214 33.4857C95.0562 32.7539 95.0711 32.723 95.0711 30.4686C95.0711 29.2156 95.0177 28.1905 94.9522 28.1905C94.8866 28.1905 94.1389 28.5257 93.2906 28.9356C89.9169 30.565 84.8794 30.6099 83.1287 29.0263C82.0864 28.0834 81.3521 26.4861 81.3521 25.1619V24H88.4574H95.563L95.3569 20.2583C94.9361 12.6286 91.8319 9.1181 85.544 9.16153C84.3912 9.16991 82.8067 9.40533 82.0224 9.68495ZM127.303 9.88533C123.589 11.384 121.289 14.6842 120.565 19.5535C119.723 25.2084 121.463 30.6293 124.871 32.9707C127.873 35.0339 133.341 35.5349 136.895 34.0724C138.099 33.5768 138.133 33.4998 138.133 31.2575C138.133 29.9897 138.069 28.9524 137.989 28.9524C137.91 28.9524 137.188 29.2267 136.385 29.5623C134.411 30.3867 131.014 30.4095 129.503 29.6088C127.505 28.5505 126.514 25.9935 126.516 21.9048C126.518 17.8914 127.262 15.9531 129.33 14.5764C130.858 13.5585 133.662 13.4415 136.037 14.2968C136.876 14.5985 137.69 14.8484 137.848 14.8514C138.005 14.8545 138.133 13.8347 138.133 12.5848C138.133 9.70705 137.716 9.44724 132.802 9.264C129.851 9.15429 128.83 9.26971 127.303 9.88533ZM27.2384 21.9048V34.2857H30.2871H33.3358V29.1295V23.9733L37.2418 24.0819L41.1479 24.1905L41.2543 29.2381L41.3606 34.2857H44.2076H47.0547V21.9048V9.52381H44.208H41.3613L41.2546 14.381L41.1479 19.2381L37.2418 19.3467L33.3358 19.4552V14.4895V9.52381H30.2871H27.2384V21.9048ZM53.777 15.1429C53.4965 21.3406 53.0526 24.6998 52.1185 27.6952C51.6033 29.3463 51.3369 29.6949 50.5161 29.7905L49.5317 29.9048L49.4254 34.9524L49.3191 40H52.1883H55.0574V37.1429V34.2857H61.5358H68.0142V37.1429V40H70.8723H73.7305V34.8571V29.7143H72.3967H71.0629V19.619V9.52381H62.5472H54.0316L53.777 15.1429ZM99.263 21.9048V34.2857H102.312H105.36V28.3177V22.3497L109.616 28.3177L113.871 34.2857H117.047C118.793 34.2857 120.222 34.1844 120.222 34.061C120.222 33.9371 118.25 31.0419 115.84 27.6271C113.43 24.2122 111.458 21.232 111.458 21.0046C111.458 20.6815 117.296 12.3554 119.174 10C119.471 9.62705 118.901 9.52381 116.55 9.52381H113.546L109.548 15.0907L105.551 20.6575L105.445 15.0907L105.34 9.52381H102.301H99.263V21.9048ZM87.2524 14.093C88.412 14.5333 89.3548 16.4941 89.3548 18.464V19.8095H85.3535H81.3521V18.6545C81.3521 14.9992 84.0829 12.888 87.2524 14.093ZM65.2845 16.1905C65.3554 17.2381 65.2944 20.7093 65.1492 23.9048L64.8852 29.7143H60.8834C57.2262 29.7143 56.9038 29.6568 57.1435 29.0476C57.7639 27.4701 58.5356 22.3474 58.7524 18.3665L58.9864 14.0663L62.0712 14.176L65.1561 14.2857L65.2845 16.1905Z" fill="white"/>
</svg>
