<svg width="262" height="40" viewBox="0 0 262 40" fill="none" xmlns="http://www.w3.org/2000/svg">
<g opacity="0.7">
<path d="M10.3621 18.4945C12.3054 17.7491 14.1367 16.9261 16.0369 16.3401C19.5443 15.2758 23.1077 14.3278 26.809 14.7587C27.9429 14.9011 29.0412 15.2501 30.0493 15.7885C31.4798 16.5469 31.9279 18.0335 31.4496 19.5846C30.924 21.3082 29.7778 22.6008 28.5024 23.7599C24.521 27.4311 19.7511 29.7363 14.6494 31.3134C11.4436 32.313 8.18612 32.9723 4.79074 32.662C4.39868 32.6278 4.00884 32.5717 3.62304 32.494C0.0897759 31.7399 -1.09085 28.909 1.11959 26.0609C2.46827 24.3373 4.21335 22.9025 5.80332 21.3599C6.16096 21.0152 6.79147 20.5883 7.32506 20.2567L10.3621 18.4945ZM20.824 3.42212C23.3404 2.09499 26.111 1.44866 28.9074 1.02208C30.3202 0.797301 31.7575 0.771195 33.1775 0.944525C36.1937 1.37541 37.1072 3.61602 35.3319 6.08499C33.4446 8.70047 30.7387 10.2775 27.9336 11.6865C24.4047 13.4445 20.6818 14.6553 16.6961 14.6208C15.9804 14.6086 15.2705 14.491 14.5891 14.2718C14.5891 14.2718 11.4307 13.1041 13.9514 9.17444C13.9514 9.17444 17.1313 5.36972 20.824 3.42212ZM21.6599 16.2927C19.8933 16.8054 18.3076 17.2062 16.7607 17.7318C12.8476 19.0492 9.14094 20.9148 5.75161 23.273C4.12718 24.4106 2.7785 26.0695 1.61511 27.7112C0.568059 29.1977 1.21008 30.5722 2.98102 31.1582C3.93701 31.4629 4.93356 31.6212 5.9369 31.6279C9.57788 31.6538 13.0508 30.7101 16.3945 29.3744C18.9066 28.3575 21.3109 27.0864 23.8876 25.8583C22.016 23.0427 21.2249 19.6455 21.6599 16.2927ZM31.0618 1.80199C28.9074 2.15949 26.753 2.73701 24.577 3.52553C22.6159 4.30281 20.7197 5.23504 18.9066 6.31336C17.0193 7.36903 15.3259 8.70909 14.2487 10.6567C13.6971 11.6563 13.9083 12.2639 14.9596 12.6991C15.4102 12.9208 15.9053 13.0372 16.4074 13.0395C18.3292 12.8887 20.2552 12.6991 22.1597 12.4061C22.6591 12.2544 23.0844 11.9227 23.3533 11.4754C25.8309 7.71805 29.2435 5.47313 33.7506 5.01209C34.4098 4.94314 34.8407 4.78372 34.9484 4.07276C35.0562 3.36179 34.9017 2.80581 34.2554 2.37493C33.396 1.80199 32.3164 1.80199 31.0618 1.80199Z" fill="white"/>
<path d="M247.916 11.2867C247.804 12.4199 247.653 13.2989 247.644 14.1822C247.597 17.9525 247.558 21.7227 247.588 25.493C247.588 26.4538 247.343 26.7555 246.334 26.8072C245.042 26.8804 244.344 26.4366 243.749 25.2775C242.456 22.6922 240.983 20.1715 239.44 17.3708C239.371 17.6964 239.322 18.0259 239.294 18.3575C239.294 20.8006 239.263 23.2394 239.294 25.6826C239.294 26.484 239.147 26.8416 238.238 26.8029C236.023 26.7081 236.312 27.0312 236.303 24.8165C236.303 20.6541 236.303 16.4874 236.256 12.3208C236.256 11.4892 236.501 11.2737 237.337 11.1617C238.845 10.9635 239.595 11.5926 240.233 12.8852C241.526 15.518 242.973 18.0817 244.503 20.9428C244.554 20.6275 244.589 20.3096 244.606 19.9906C244.572 17.3708 244.512 14.751 244.503 12.1312C244.559 11.7579 244.674 11.3958 244.843 11.0583" fill="white"/>
<path d="M36.8411 18.1023C35.5484 18.1023 33.9521 17.9088 32.612 17.3788C30.8109 16.6808 30.1948 15.0477 30.8368 13.2165C31.5348 11.2129 32.9697 9.76939 34.5553 8.43365C38.946 4.79697 44.009 2.49173 49.4769 1.04395C51.2518 0.499326 53.0811 0.151097 54.9319 0.00551932C56.6413 -0.0407384 58.346 0.204048 59.9733 0.729407C60.4215 0.853149 60.8365 1.0754 61.1879 1.37994C61.5393 1.68448 61.8183 2.06363 62.0045 2.48973C62.1907 2.91583 62.2794 3.37812 62.2642 3.84288C62.249 4.30764 62.1302 4.76314 61.9166 5.17615C61.2869 6.61299 60.3823 7.91281 59.2537 9.00241C52.9326 14.7892 45.5665 17.2017 36.8411 18.1023ZM47.6241 14.4617C51.166 13.3974 57.0605 9.66598 59.258 7.0505C59.8588 6.33996 60.3431 5.53861 60.6929 4.67632C61.1798 3.43968 60.7316 2.4271 59.4734 2.00052C58.4899 1.66951 57.4605 1.49502 56.4228 1.48346C52.0493 1.42744 47.9042 2.50466 43.9271 4.25836C42.7292 4.78835 41.5572 5.37436 40.1439 6.04654C43.9529 7.89935 46.3573 10.6699 47.6241 14.466V14.4617Z" fill="white"/>
<path d="M254.252 11.1402C255.216 11.0578 256.187 11.0809 257.147 11.2091C259.668 11.4289 261.073 13.1352 260.892 15.6516C260.853 16.1945 260.663 16.4401 260.116 16.4315C259.794 16.4354 259.472 16.4671 259.155 16.5263C258.272 16.6771 257.776 16.4142 257.819 15.4146C257.862 14.4149 257.238 14.0013 256.376 13.9022C255.881 13.8132 255.372 13.8338 254.885 13.9625C254.372 14.117 253.931 14.4483 253.64 14.8975C253.568 15.0532 253.528 15.2216 253.522 15.3929C253.516 15.5643 253.544 15.7351 253.604 15.8955C253.665 16.0559 253.757 16.2027 253.874 16.3272C253.992 16.4518 254.134 16.5517 254.29 16.6211C255.113 17.0519 255.988 17.3837 256.824 17.7931C257.785 18.2584 258.75 18.7324 259.681 19.2581C261.603 20.3396 261.633 22.1709 261.31 23.9978C261.012 25.6826 259.702 26.5831 258.112 26.7641C256.474 26.9423 254.82 26.9177 253.187 26.6909C252.3 26.5889 251.485 26.1514 250.91 25.468C250.335 24.7847 250.043 23.9072 250.094 23.0154C250.094 22.3863 250.309 22.0761 250.955 22.1235C251.386 22.1493 251.818 22.1493 252.248 22.1235C252.769 22.1235 253.084 22.27 253.041 22.8517C253.039 22.9229 253.048 22.9941 253.067 23.0628C253.304 24.0107 254.032 24.3038 254.868 24.2477C256.053 24.1659 257.505 24.7777 258.255 23.3299C258.349 23.1639 258.406 22.9789 258.42 22.7883C258.434 22.5978 258.406 22.4064 258.338 22.228C258.27 22.0495 258.163 21.8885 258.024 21.7564C257.886 21.6244 257.721 21.5246 257.539 21.4642C256.484 21.0333 255.385 20.6024 254.364 20.1328C253.717 19.8355 253.114 19.4347 252.481 19.0987C249.96 17.7672 249.689 13.2257 252.192 11.6788C252.394 11.5326 252.588 11.3758 252.774 11.2091" fill="white"/>
<path d="M162.225 20.3819C162.225 17.9991 162.246 15.6163 162.225 13.2335C162.203 11.1954 162.599 10.8205 164.646 11.2816C164.913 11.3376 165.224 11.9322 165.228 12.2812C165.267 15.0777 165.228 17.8828 165.228 20.6792C165.228 22.3683 165.228 24.0573 165.275 25.7421C165.31 26.6039 164.965 26.7935 164.146 26.8366C162.78 26.9141 161.932 26.5263 161.307 25.1906C160.217 22.8552 158.89 20.6275 157.653 18.361C157.485 18.0128 157.228 17.7154 156.907 17.4993V19.7916C156.907 21.765 156.907 23.7385 156.946 25.7119C156.946 26.5048 156.709 26.8409 155.912 26.7892C155.309 26.7547 154.706 26.7892 154.012 26.7892C153.986 26.2678 153.947 25.8843 153.947 25.4965C153.947 21.1532 153.982 16.8055 153.947 12.4622C153.947 11.6004 154.128 11.3161 155.055 11.2514C156.425 11.1566 157.175 11.6004 157.786 12.8586C158.928 15.2113 160.286 17.4605 161.561 19.7528C161.69 19.9855 161.858 20.1837 161.992 20.4293L162.225 20.3819Z" fill="white"/>
<path d="M142.739 17.5597C142.739 20.145 142.739 22.7734 142.739 25.3803C142.739 25.8112 142.631 26.6126 142.489 26.6342C141.675 26.7202 140.855 26.7202 140.041 26.6342C139.951 26.6342 139.834 26.2033 139.83 25.9749C139.83 21.3429 139.83 16.7152 139.83 12.0832C139.83 11.4627 140.089 11.3334 140.666 11.2688C142.092 11.1094 143.01 11.4584 143.682 12.9191C144.837 15.4225 146.268 17.7924 147.599 20.2183C147.681 20.3648 147.784 20.4984 148.008 20.8215C148.06 20.3605 148.116 20.1019 148.116 19.8434C148.116 17.3658 148.15 14.8882 148.094 12.4106C148.069 11.5015 148.37 11.2429 149.254 11.2731C151.27 11.3377 151.033 11.1007 151.037 13.0742C151.037 17.2409 151.016 21.4032 151.068 25.5699C151.068 26.5178 150.792 26.7247 149.861 26.8022C148.499 26.9186 147.797 26.4015 147.211 25.2295C145.888 22.6097 144.436 20.0589 143.04 17.4735L142.739 17.5597Z" fill="white"/>
<path d="M116.242 17.5075C116.242 19.7452 116.242 21.9829 116.242 24.2207C116.242 24.3284 116.242 24.4361 116.273 24.5438C116.419 26.8362 116.359 26.8749 114.075 26.7845C113.476 26.7845 113.248 26.5733 113.252 25.9744C113.284 21.3467 113.301 16.719 113.304 12.0912C113.304 11.5483 113.476 11.3544 114.036 11.3027C115.462 11.1648 116.466 11.4234 117.16 12.953C118.263 15.3961 119.681 17.6928 120.969 20.0583C121.112 20.3404 121.334 20.5753 121.607 20.7348V11.5139C121.744 11.4436 121.889 11.3886 122.038 11.3501C124.477 11.1907 124.464 11.1907 124.477 13.6295C124.498 17.5721 124.511 21.519 124.593 25.4616C124.614 26.4613 124.373 26.7801 123.3 26.8362C121.887 26.9137 121.193 26.3665 120.603 25.1471C119.414 22.6997 118.061 20.3298 116.768 17.9297C116.668 17.7647 116.557 17.6064 116.436 17.4558L116.242 17.5075Z" fill="white"/>
<path d="M233.7 19.0458C233.7 20.3385 233.7 21.6311 233.7 22.9238C233.7 25.117 232.506 26.5906 230.347 26.8017C228.849 26.9482 227.339 26.9482 225.84 26.8017C223.716 26.5992 222.441 25.0782 222.424 22.9238C222.401 20.2695 222.393 17.6153 222.402 14.961C222.402 12.8367 223.876 11.2985 226.133 11.1434C227.425 11.0613 228.72 11.0613 230.011 11.1434C232.368 11.2899 233.726 12.8023 233.721 15.1635C233.721 16.4562 233.721 17.7488 233.721 19.0415L233.7 19.0458ZM230.722 19.1234C230.722 18.477 230.722 17.8307 230.722 17.1844C230.804 13.6942 230.399 13.8019 227.142 13.8493C225.952 13.8493 225.466 14.3965 225.453 15.5729C225.453 17.3309 225.453 19.0889 225.418 20.8426C225.345 24.2337 225.444 24.3371 228.995 24.2466C230.253 24.2164 230.718 23.7295 230.718 22.4412C230.735 21.3424 230.722 20.2566 230.722 19.1234Z" fill="white"/>
<path d="M179.103 19.0716V22.9495C179.103 25.104 177.995 26.556 175.863 26.806C174.266 26.9809 172.654 26.9606 171.062 26.7456C168.934 26.4656 167.848 25.0221 167.844 22.8677V15.2194C167.844 13.0219 168.96 11.5354 171.127 11.2811C172.727 11.0895 174.344 11.0895 175.944 11.2811C178.026 11.5397 179.116 13.0047 179.111 15.0729C179.111 15.7537 179.111 16.4345 179.111 17.1196V19.0543L179.103 19.0716ZM176.121 19.0414H176.147V17.2101C176.147 13.8234 176.039 13.7243 172.622 13.8191C171.33 13.8535 170.856 14.3146 170.843 15.5771C170.843 17.3351 170.864 19.0931 170.843 20.8554C170.787 24.2723 170.843 24.3456 174.553 24.2336C175.604 24.1991 176.125 23.6433 176.13 22.5962C176.125 21.4113 176.121 20.2263 176.121 19.0414Z" fill="white"/>
<path d="M84.7845 19.1283C84.7845 20.4598 84.7845 21.7869 84.7845 23.114C84.7543 25.165 83.6469 26.5611 81.6304 26.8024C80.0624 26.9747 78.4802 26.9747 76.9122 26.8024C74.7319 26.5611 73.659 25.2081 73.6504 23.0106C73.6504 20.3908 73.6504 17.771 73.6504 15.1512C73.6504 13.1304 74.6328 11.7042 76.6407 11.4284C78.3739 11.1872 80.1312 11.1756 81.8674 11.3939C83.7719 11.6266 84.7629 13.0227 84.7845 14.9315C84.7845 15.6511 84.7845 16.3663 84.7845 17.0859V19.1283ZM76.533 19.1283C76.533 20.2745 76.533 21.4249 76.533 22.5754C76.533 23.7259 77.0156 24.2516 78.2264 24.299C78.8684 24.3291 79.5191 24.3334 80.1611 24.299C81.3891 24.2602 81.9148 23.7388 81.932 22.5022C81.9536 20.7485 81.8975 18.9904 81.932 17.2324C82.0268 13.5871 81.6519 13.6819 78.1747 13.7552C77.0199 13.781 76.533 14.3498 76.5158 15.5477C76.4985 16.7455 76.5287 17.9348 76.533 19.1154V19.1283Z" fill="white"/>
<path d="M87.5148 19.0084C87.5148 16.7505 87.5148 14.4927 87.5148 12.2306C87.5148 11.5411 87.7173 11.2697 88.4282 11.2826C90.3629 11.3171 92.3062 11.2481 94.2366 11.3171C96.9598 11.4119 98.2869 12.8295 98.2869 15.5139C98.2869 16.1947 98.2869 16.8755 98.2869 17.5563C98.2869 19.6289 97.1192 21.0551 95.0596 21.3093C93.8122 21.4265 92.5587 21.4639 91.3066 21.4213C90.6559 21.4213 90.4017 21.654 90.4448 22.2831C90.5008 23.4637 90.4965 24.6444 90.5439 25.825C90.5741 26.5101 90.3026 26.76 89.6003 26.7816C87.3941 26.8462 87.42 26.8548 87.4803 24.6832C87.5363 22.7873 87.4803 20.887 87.4803 18.9868L87.5148 19.0084ZM90.4362 16.38C90.4009 16.986 90.411 17.5938 90.4663 18.1983C90.51 18.3445 90.5891 18.4776 90.6966 18.5858C90.8041 18.6941 90.9366 18.7741 91.0825 18.8188C92.0473 18.8799 93.0155 18.8655 93.9781 18.7757C94.3615 18.7412 95.0036 18.4612 95.038 18.2199C95.1975 17.0823 95.4 15.8758 95.1802 14.7728C94.9777 13.7602 93.8531 13.911 92.9956 13.911C90.4362 13.8765 90.4362 13.8765 90.4362 16.38Z" fill="white"/>
<path d="M191.889 26.7886C192.32 25.6079 192.634 24.6729 192.953 23.7336C194.246 19.8987 195.59 16.0724 196.831 12.216C197.137 11.2551 197.693 11.1302 198.507 11.1733C199.321 11.2163 200.14 10.9837 200.524 12.1945C201.993 16.8437 203.587 21.4542 205.13 26.0776C205.186 26.3017 205.227 26.5291 205.255 26.7584C204.427 26.7938 203.599 26.7809 202.773 26.7196C202.532 26.6938 202.264 26.2887 202.139 25.9914C201.769 25.1296 201.709 23.8628 201.071 23.5181C200.274 23.0872 199.059 23.3415 198.02 23.3372C196.086 23.3372 196.085 23.3372 195.469 25.134C194.905 26.7799 194.905 26.7799 193.199 26.7843L191.889 26.7886ZM198.748 15.4261L198.473 15.4649C197.943 17.1884 197.417 18.8904 196.87 20.67H200.403C199.83 18.8516 199.291 17.1367 198.748 15.4261Z" fill="white"/>
<path d="M103.754 24.1785C105.775 24.1785 107.602 24.2345 109.425 24.1527C110.45 24.1096 110.528 24.6266 110.498 25.4065C110.467 26.1864 110.623 26.8328 109.451 26.8026C106.865 26.7337 104.28 26.7595 101.695 26.8026C100.979 26.8026 100.755 26.5699 100.764 25.8762C100.804 21.3117 100.823 16.7515 100.82 12.1956C100.82 11.5708 100.984 11.2821 101.682 11.2907C104.267 11.3252 106.852 11.3252 109.438 11.2907C110.049 11.2907 110.23 11.4975 110.243 12.1051C110.291 13.8631 110.321 13.8631 108.55 13.8631C107.331 13.8631 106.107 13.8631 104.887 13.8631C104.672 13.8631 104.379 13.7769 104.254 13.8846C103.263 14.7249 103.978 15.8581 103.793 16.8491C103.694 17.4007 104.03 17.5946 104.564 17.586C105.891 17.586 107.223 17.6247 108.55 17.586C109.33 17.5515 109.588 17.8531 109.502 18.5856C109.474 18.8362 109.474 19.0891 109.502 19.3397C109.567 19.9903 109.3 20.2273 108.641 20.2014C107.348 20.1583 106.055 20.223 104.763 20.1756C104.039 20.1497 103.707 20.3393 103.754 21.1278C103.797 22.0887 103.754 23.0582 103.754 24.1785Z" fill="white"/>
<path d="M180.41 11.2595C181.401 11.2595 182.207 11.1302 182.939 11.3112C183.31 11.406 183.672 12.0222 183.801 12.4703C184.775 15.4391 185.684 18.4208 186.619 21.3983C186.736 21.7602 186.869 22.1178 187.102 22.7728C187.886 20.3167 188.575 18.1752 189.256 16.0294C189.648 14.7971 190.092 13.582 190.398 12.3281C190.614 11.4663 191.053 11.1475 191.91 11.2423C192.462 11.3026 193.022 11.2423 193.776 11.2423C193.026 13.4958 192.354 15.5253 191.678 17.5504C190.747 20.3383 189.786 23.1175 188.886 25.9182C188.859 26.0657 188.804 26.2065 188.723 26.3324C188.641 26.4584 188.536 26.567 188.413 26.6519C188.289 26.7369 188.15 26.7965 188.004 26.8274C187.857 26.8582 187.706 26.8597 187.559 26.8317C185.456 26.7154 185.736 27.2281 184.973 24.9617C183.616 20.8424 182.203 16.7361 180.815 12.6254C180.729 12.2678 180.613 11.8929 180.41 11.2595Z" fill="white"/>
<path d="M211.35 20.4382C211.35 22.0885 211.35 23.7388 211.35 25.3848C211.35 26.7722 211.35 26.7851 210.01 26.7894C209.795 26.7765 209.579 26.7765 209.364 26.7894C208.549 26.8929 208.321 26.518 208.329 25.7381C208.355 22.2221 208.299 18.7103 208.36 15.1986C208.36 14.1473 208.045 13.7638 207.024 13.906C206.667 13.9319 206.308 13.9319 205.951 13.906C204.494 13.906 204.542 13.906 204.477 12.4323C204.434 11.5145 204.684 11.1397 205.662 11.1828C208.385 11.2474 211.113 11.2431 213.849 11.2086C214.672 11.2086 214.987 11.4973 214.844 12.2686C214.724 12.9278 215.275 14.018 213.862 13.906C213.826 13.9038 213.79 13.9038 213.754 13.906C211.346 13.949 211.346 13.949 211.337 16.3318V20.4166L211.35 20.4382Z" fill="white"/>
<path d="M219.856 19.0288C219.856 21.2564 219.825 23.4798 219.856 25.7032C219.856 26.5348 219.61 26.9097 218.761 26.8364C218.51 26.8309 218.26 26.8467 218.011 26.8838C217.15 26.9614 216.719 26.6813 216.719 25.6859C216.766 21.2392 216.753 16.7925 216.719 12.3285C216.719 11.527 216.917 11.178 217.805 11.1952C220.213 11.2383 219.804 11.0832 219.813 13.2032C219.813 15.1422 219.813 17.0811 219.813 19.0158L219.856 19.0288Z" fill="white"/>
<path d="M133.937 18.9126C133.937 16.728 133.975 14.5434 133.937 12.3588C133.915 11.497 134.221 11.1825 135.048 11.2945C135.225 11.3204 135.405 11.3204 135.583 11.2945C136.604 11.1437 136.931 11.5401 136.918 12.5872C136.867 16.9219 136.867 21.2552 136.918 25.587C136.918 26.5608 136.608 26.8797 135.686 26.7676C135.436 26.7375 135.182 26.7375 134.932 26.7676C134.195 26.8495 133.924 26.5479 133.937 25.7938C133.962 23.5015 133.937 21.2092 133.937 18.9126Z" fill="white"/>
<path fill-rule="evenodd" clip-rule="evenodd" d="M30.33 39.9998L30.3481 40.0005C35.5402 39.8712 40.4997 38.5484 45.3386 36.6309C50.841 34.4205 55.9728 31.6068 60.2989 27.4832C61.8932 25.9493 63.1385 24.2516 63.6167 22.0713C64.0002 20.3133 63.4056 18.9043 61.9621 17.8357C60.1697 16.4957 58.0583 16.3018 55.9297 16.3018C50.5695 16.3018 45.5152 17.7625 40.5902 19.7187C35.1223 21.8947 29.9861 24.6437 25.7333 28.8147C24.3372 30.1849 23.1221 31.6801 22.4585 33.5544C21.6571 35.7907 22.3767 37.7082 24.4492 38.85C26.2751 39.8553 28.2809 39.9268 30.33 39.9998ZM56.8149 28.7755C49.6708 34.1573 43.0567 37.445 34.1891 38.4662C28.9107 39.0737 25.7739 38.1559 25.7696 38.1516C23.4988 37.4493 22.7017 35.7042 23.8047 33.6014C24.4264 32.4207 25.3111 31.3771 26.1905 30.3398C26.4022 30.0901 26.6136 29.8407 26.8209 29.5899C26.9717 29.4089 27.6138 29.4262 27.8981 29.5899C33.7496 32.9077 40.2689 32.0373 44.8104 27.2243C46.7864 25.1042 48.0085 22.3919 48.2877 19.5072C48.3205 19.304 48.4013 19.1116 48.5235 18.946C48.6456 18.7803 48.8056 18.6463 48.99 18.5549C52.2949 17.8095 55.6343 17.37 59.0167 18.0551C59.3686 18.1215 59.7145 18.2166 60.0508 18.3395C62.3001 19.2012 62.9852 20.649 61.9855 22.8336C60.8738 25.3284 58.9392 27.1726 56.8149 28.7755Z" fill="white"/>
</g>
</svg>
