<svg width="132" height="20" viewBox="0 0 132 20" fill="none" xmlns="http://www.w3.org/2000/svg">
<g opacity="0.7">
<path d="M56.3284 18.483L50.5812 2.47742C50.5078 2.25615 50.3984 1.96402 50.3984 1.70776C50.3984 1.01418 50.9844 0.355591 51.8241 0.355591C52.557 0.355591 53.0346 0.831385 53.2532 1.52496L58.0155 15.3178L62.812 1.48997C63.0306 0.834007 63.4705 0.358213 64.1991 0.358213H64.3478C65.1183 0.358213 65.5941 0.834007 65.8128 1.48997L70.5699 15.3178L75.4074 1.45499C75.5902 0.866371 75.9899 0.35734 76.7613 0.35734C77.566 0.35734 78.1528 0.976572 78.1528 1.67365C78.1528 1.92904 78.0418 2.22028 77.97 2.44331L72.1862 18.4839C71.8905 19.3218 71.3072 19.7617 70.6468 19.7617H70.5375C69.8046 19.7617 69.2544 19.3218 68.9964 18.4839L64.2761 4.88351L59.5146 18.4839C59.2584 19.3218 58.7074 19.7617 57.977 19.7617H57.9001C57.2065 19.7617 56.6231 19.3218 56.3284 18.4839" fill="white"/>
<path d="M98.2266 1.77166C98.2266 0.999369 98.8493 0.339905 99.6181 0.339905C100.429 0.339905 101.05 0.963511 101.05 1.77166V5.01914C102.442 1.86525 105.531 0.376638 107.577 0.376638C108.425 0.376638 108.975 0.999371 108.975 1.80577C108.975 2.57719 108.464 3.1247 107.724 3.23491C104.055 3.67484 101.051 6.42728 101.051 11.8937V18.3248C101.051 19.0953 100.465 19.7539 99.6583 19.7539C98.851 19.7539 98.2274 19.1277 98.2274 18.3248L98.2266 1.76816V1.77166Z" fill="white"/>
<path d="M118.084 19.9648C112.978 19.9648 108.812 16.0054 108.812 10.1953V10.1201C108.812 4.7123 112.587 0.359301 117.725 0.359301C123.22 0.359301 126.35 4.89335 126.35 9.86645C126.35 10.6309 125.733 11.1775 125.054 11.1775H111.62C112.012 15.2401 114.849 17.5264 118.16 17.5264C120.461 17.5264 122.144 16.6185 123.512 15.3477C123.728 15.1684 123.979 15.0232 124.305 15.0232C124.985 15.0232 125.527 15.5681 125.527 16.2241C125.527 16.5494 125.383 16.8774 125.092 17.1284C123.333 18.8331 121.246 19.9622 118.086 19.9622L118.084 19.9648ZM123.584 9.10815C123.295 5.69275 121.354 2.71903 117.651 2.71903C114.417 2.71903 111.973 5.43999 111.618 9.10815H123.584Z" fill="white"/>
<path d="M78.2891 14.1064V14.0329C78.2891 10.0481 81.5811 7.92455 86.3697 7.92455C88.7845 7.92455 90.5023 8.25341 92.1877 8.73183V8.07061C92.1877 4.6727 90.0973 2.91471 86.5542 2.91471C84.6519 2.91471 83.5447 3.15698 82.1523 3.77709C81.9721 3.85056 81.7876 3.88817 81.645 3.88817C80.9864 3.88817 80.3987 3.33803 80.3987 2.68119C80.3987 2.09781 80.6532 1.73659 81.1683 1.50832C83.0304 0.700167 84.4342 0.431658 86.8464 0.431658C89.514 0.431658 91.5623 1.12436 92.9495 2.51501C94.2317 3.79458 94.8903 5.62254 94.8903 8.03738V18.4716C94.8903 19.2737 94.3052 19.8605 93.5329 19.8605C92.7317 19.8605 92.1886 19.2745 92.1886 18.5442V16.7407C90.8696 18.4629 88.6735 19.9961 85.3525 19.9961C81.84 19.9935 78.2891 17.9845 78.2891 14.1081V14.1064ZM92.2218 12.6449V10.8161C90.8294 10.4146 88.9621 10.0114 86.6601 10.0114C83.1179 10.0114 81.1403 11.549 81.1403 13.9236V13.9962C81.1403 16.3725 83.3321 17.7623 85.8948 17.7623C89.367 17.7623 92.2218 15.6405 92.2218 12.6449Z" fill="white"/>
<path d="M5.16306 1.60056C4.54383 0.243145 3.01324 -0.371716 1.5841 0.263262C0.15322 0.899113 -0.373303 2.48568 0.273043 3.84397L6.27383 16.8846C7.21755 18.9286 8.21199 20 10.0784 20C12.0726 20 12.942 18.8333 13.8848 16.8846C13.8848 16.8846 19.1185 5.48826 19.171 5.36581C19.2244 5.24511 19.3923 4.8769 19.9249 4.88039C20.3754 4.88302 20.7541 5.24249 20.7541 5.72528V16.868C20.7541 18.5857 21.7065 19.9948 23.5398 19.9948C25.3712 19.9948 26.3613 18.5857 26.3613 16.868V7.74566C26.3613 5.98679 27.6216 4.84541 29.3394 4.84541C31.0571 4.84541 32.2003 6.0279 32.2003 7.74566V16.868C32.2003 18.5857 33.1562 19.9948 34.9859 19.9948C36.8174 19.9948 37.8127 18.5857 37.8127 16.868V7.74566C37.8127 5.98679 39.0678 4.84541 40.7864 4.84541C42.5016 4.84541 43.6491 6.0279 43.6491 7.74566V16.868C43.6491 18.5857 44.6042 19.9948 46.4356 19.9948C48.2662 19.9948 49.2598 18.5857 49.2598 16.868V6.4862C49.2598 2.67197 46.1925 0 42.5016 0C38.815 0 36.506 2.5504 36.506 2.5504C35.2789 0.959461 33.5874 0.00349998 30.7248 0.00349998C27.7038 0.00349998 25.0599 2.5504 25.0599 2.5504C23.8319 0.959461 21.7415 0.00349998 20.0107 0.00349998C17.3334 0.00349998 15.2072 1.18074 13.9102 4.14659L10.0784 13.1814L5.16306 1.60056Z" fill="white"/>
<path d="M126.562 2.7346V2.71886C126.562 1.44278 127.598 0.367873 128.899 0.367873C130.219 0.367873 131.241 1.43141 131.241 2.70924V2.71886C131.241 3.99931 130.208 5.07422 128.899 5.07422C127.58 5.07422 126.562 4.01418 126.562 2.7346ZM130.791 2.71886V2.71274C130.791 1.66319 129.981 0.80256 128.899 0.80256C127.828 0.80256 127.005 1.67806 127.005 2.71886V2.7311C127.005 3.77803 127.818 4.63866 128.899 4.63866C129.967 4.63866 130.791 3.76491 130.791 2.71886Z" fill="white"/>
<path d="M128.055 1.77422C128.055 1.63516 128.166 1.52408 128.307 1.52408H129.087C129.381 1.52408 129.607 1.60717 129.748 1.75585C129.877 1.88093 129.946 2.06197 129.946 2.27188V2.27888C129.946 2.63573 129.766 2.85351 129.494 2.96808L129.839 3.3879C129.887 3.45087 129.919 3.50248 129.919 3.57944C129.919 3.71763 129.802 3.80859 129.683 3.80859C129.572 3.80859 129.497 3.75174 129.438 3.68002L128.953 3.06604H128.555V3.55933C128.555 3.69839 128.447 3.80772 128.307 3.80772C128.167 3.80772 128.056 3.69752 128.056 3.55933V1.77422H128.055ZM129.059 2.62435C129.302 2.62435 129.436 2.49753 129.436 2.30424V2.29637C129.436 2.08559 129.292 1.97189 129.05 1.97189H128.552V2.62348H129.059V2.62435Z" fill="white"/>
</g>
</svg>
