<svg width="215" height="40" viewBox="0 0 215 40" fill="none" xmlns="http://www.w3.org/2000/svg">
<g opacity="0.7">
<path fill-rule="evenodd" clip-rule="evenodd" d="M47.2857 0.593245C47.1785 0.919587 46.764 2.05093 46.3644 3.10748C45.9647 4.16402 45.2392 6.12173 44.7522 7.45794C43.2437 11.5971 43.1785 11.7725 42.6391 13.1425C42.2957 14.0151 41.9738 14.6341 41.7088 14.9317C41.3147 15.3743 41.2782 15.3889 40.3771 15.4657C39.4554 15.5443 39.2515 15.6081 39.3607 15.7841C39.4458 15.9213 45.1953 15.901 45.23 15.7634C45.2558 15.6613 44.9425 15.6007 43.4227 15.4133C42.5702 15.3082 42.5588 15.3846 44.1429 10.5969C45.477 6.56547 46.3203 4.1978 46.8805 2.91142C47.1285 2.34202 47.3854 2.27795 47.5259 2.75062C47.5657 2.88475 47.767 3.4267 47.9731 3.95497C49.4151 7.64902 51.2213 12.5835 51.6421 13.9782C52.0193 15.2282 51.9627 15.2974 50.4645 15.4148C49.7262 15.4726 49.3637 15.6122 49.5272 15.7757C49.5671 15.8156 50.9747 15.8546 52.6554 15.8624C54.9851 15.873 55.711 15.8437 55.711 15.7391C55.711 15.5656 55.4642 15.4413 54.7505 15.2554C54.4397 15.1744 54.0715 15.0056 53.9323 14.8803C53.6904 14.6626 53.2042 13.5409 52.7721 12.2039C52.6616 11.8621 52.4924 11.379 52.3961 11.1304C52.2999 10.8818 51.8313 9.61057 51.3547 8.30543C50.5486 6.09743 49.5078 3.32771 48.6794 1.18649C48.2504 0.0778564 48.1926 0 47.7963 0C47.515 0 47.4588 0.0653135 47.2857 0.593245ZM178.267 6.21789C176.976 6.33835 176.155 6.72876 175.668 7.45376C175.383 7.87931 175.332 8.06531 175.327 8.7033C175.321 9.35938 175.361 9.50582 175.645 9.87782C175.823 10.1115 176.246 10.4801 176.585 10.6969C177.183 11.0798 177.196 11.0983 177.019 11.3367C176.918 11.4719 176.556 12.1672 176.213 12.8819C175.87 13.5966 175.53 14.3001 175.459 14.4454C175.249 14.8708 174.853 15.2411 174.539 15.3069C174.378 15.3404 174.12 15.3943 173.965 15.4265C173.809 15.4588 173.682 15.5551 173.682 15.6404C173.682 15.7645 173.949 15.7918 175.01 15.7763C175.74 15.7654 176.394 15.7211 176.464 15.6776C176.534 15.6342 176.704 15.2797 176.842 14.89C177.771 12.2746 178.392 11.4503 179.568 11.2695C180.276 11.1605 180.292 11.2039 180.292 13.1994C180.292 15.2229 180.271 15.2848 179.499 15.5099C179.234 15.5872 179.012 15.6951 179.005 15.7497C178.989 15.8815 183.166 15.8842 183.202 15.7524C183.218 15.6963 182.988 15.6226 182.692 15.5886C181.772 15.4827 181.811 15.6631 181.774 11.4066C181.741 7.79592 181.784 6.99476 182.02 6.75893C182.078 6.70051 182.37 6.61768 182.669 6.57497C182.967 6.53225 183.233 6.43383 183.259 6.3562C183.295 6.24761 182.931 6.21461 181.686 6.21371C180.795 6.21303 179.889 6.19246 179.671 6.16817C179.453 6.14376 178.822 6.16613 178.267 6.21789ZM58.9315 6.37179C56.4912 6.96594 54.8288 9.4743 55.2381 11.9445C55.6575 14.4753 57.7196 16.1589 60.4004 16.1589C62.2915 16.1589 63.8249 15.3913 64.9235 13.8947C66.8224 11.3079 65.38 7.43692 62.1416 6.42908C61.3459 6.18139 59.8248 6.15427 58.9315 6.37179ZM83.7913 6.28987C81.7501 6.72932 80.3641 8.06881 79.8399 10.1089C79.624 10.9489 79.6243 11.3879 79.8415 12.3092C80.3989 14.6743 82.369 16.1589 84.9501 16.1589C87.7209 16.1589 90.068 14.201 90.2541 11.7346C90.4427 9.2344 88.8841 7.00459 86.5032 6.36852C85.977 6.22795 84.304 6.17947 83.7913 6.28987ZM106.252 6.38919C104.888 6.75622 103.678 7.70631 103.123 8.8441C102.614 9.88844 102.434 10.8669 102.573 11.8341C102.946 14.4213 105.012 16.1589 107.717 16.1589C111.793 16.1589 114.282 12.4305 112.537 8.93789C112.162 8.18678 111.128 7.15047 110.365 6.76051C110.106 6.62796 109.64 6.45157 109.329 6.36852C108.602 6.17427 107.01 6.18489 106.252 6.38919ZM117.72 6.38434C115.532 6.93713 114.12 8.74918 114.115 11.0127C114.113 12.0938 114.268 12.7978 114.725 13.7744C115.805 16.0843 118.642 16.936 121.125 15.6955C121.81 15.3532 122.606 14.5996 122.606 14.294C122.606 14.0373 122.43 14.0869 121.799 14.5213C120.577 15.3614 118.848 15.5053 117.795 14.8545C116.414 14.0009 115.686 12.1346 115.956 10.144C116.146 8.74353 116.822 7.53365 117.65 7.11126C118.53 6.66209 119.419 6.81859 120.193 7.55862C120.704 8.04757 121.26 8.36103 121.618 8.36148C122.317 8.3625 122.651 7.41229 122.125 6.91803C121.628 6.45112 121.04 6.29269 119.668 6.25563C118.799 6.23213 118.155 6.27473 117.72 6.38434ZM126.905 6.46264C124.599 7.17804 123.113 9.58899 123.523 11.9497C123.977 14.5559 125.941 16.1589 128.681 16.1589C131.512 16.1589 133.85 14.1648 133.997 11.6238C134.086 10.0927 133.648 8.89811 132.594 7.79264C131.918 7.08436 131.13 6.6066 130.251 6.37258C129.399 6.14568 127.786 6.18907 126.905 6.46264ZM134.989 6.31495C133.921 6.40987 133.9 6.61847 134.946 6.7404L135.771 6.83645L135.8 10.9176C135.834 15.507 135.895 15.1866 134.945 15.4277C134.653 15.5018 134.415 15.6256 134.415 15.703C134.415 15.8117 135.014 15.8398 137.051 15.8262C140.497 15.8035 141.142 15.6925 142.185 14.9424C142.943 14.3972 143.285 13.7706 143.285 12.9264C143.285 12.0167 142.971 11.5607 142.021 11.0947C141.629 10.9023 141.219 10.7189 141.11 10.687C140.794 10.5943 140.88 10.34 141.295 10.1425C142.764 9.44164 143.104 8.0348 142.036 7.07013C141.307 6.41123 140.723 6.29258 138.087 6.26749C136.813 6.25529 135.419 6.27665 134.989 6.31495ZM147.891 6.38434C146.459 6.74616 145.431 7.58088 144.781 8.91043C144.368 9.75578 144.359 9.80245 144.359 11.0739C144.359 12.4377 144.458 12.8707 145.025 13.987C145.88 15.6697 147.917 16.566 149.974 16.1647C151.454 15.8763 153.183 14.5687 152.71 14.0958C152.674 14.0591 152.423 14.1977 152.153 14.4039C151.371 15.0001 150.721 15.1984 149.548 15.1984C148.604 15.1984 148.477 15.1709 147.966 14.8571C147.292 14.4438 146.532 13.369 146.266 12.4563C146.01 11.5764 146.099 9.7829 146.44 8.93766C147.002 7.54359 147.77 6.89294 148.856 6.89294C149.578 6.89294 149.824 7.01476 150.708 7.81366C151.467 8.49855 152.218 8.5277 152.526 7.88429C152.773 7.36991 152.484 6.87679 151.746 6.5544C150.973 6.21653 148.915 6.12568 147.891 6.38434ZM161.133 6.53372C160.542 6.90843 160.214 7.3854 159.627 8.72161C158.993 10.1642 158.144 10.9037 157.21 10.8263L156.789 10.7914L156.757 9.19643C156.72 7.26449 156.785 7.03634 157.407 6.9369C157.686 6.89215 157.862 6.80311 157.862 6.7065C157.862 6.57677 157.511 6.55282 155.879 6.57135C154.788 6.58367 153.872 6.63316 153.842 6.68118C153.77 6.79803 154.172 7.00594 154.47 7.00594C154.601 7.00594 154.837 7.13488 154.995 7.29251L155.282 7.57908L155.244 11.3549C155.216 14.1907 155.171 15.1661 155.065 15.2725C154.987 15.3504 154.682 15.4419 154.387 15.4758C154.013 15.5187 153.851 15.5887 153.851 15.7069C153.851 15.8517 154.162 15.8756 155.998 15.8711C157.751 15.8667 158.145 15.8369 158.145 15.7089C158.145 15.6159 157.921 15.495 157.593 15.4115C157.29 15.3341 156.985 15.214 156.915 15.1445C156.832 15.0615 156.789 14.3886 156.789 13.1872V11.3564L157.449 11.3702C158.226 11.3864 158.477 11.541 159.226 12.465C159.692 13.04 161.665 16.2469 162.217 17.3271C162.339 17.5655 162.608 17.9599 162.815 18.2032C163.022 18.4468 163.174 18.7 163.152 18.7661C163.129 18.8322 162.778 19.0271 162.37 19.1992C160.089 20.1615 158.395 22.0864 157.438 24.8033C157.058 25.8838 156.957 28.1268 157.229 29.4672C157.798 32.2762 159.653 34.7183 162.1 35.8806C163.504 36.5475 164.736 36.8405 166.461 36.9179C169.317 37.0461 171.581 36.4235 173.513 34.9782C175.508 33.4851 176.587 31.9302 177.032 29.9036C177.303 28.6692 177.272 26.0657 176.974 24.9404C176.209 22.0595 174.014 19.7425 171.14 18.782C169.658 18.2872 169.382 18.2515 167.02 18.2504L164.708 18.2494L164.305 17.7158C164.083 17.4224 163.45 16.4054 162.897 15.4558C161.168 12.4841 160.347 11.3709 159.496 10.8449C159.054 10.5717 159.012 10.4026 159.316 10.1269C159.432 10.0218 159.691 9.56899 159.891 9.12061C160.512 7.72789 160.708 7.36472 160.975 7.11408C161.288 6.81972 161.604 6.88978 161.825 7.30291C162.008 7.64563 162.424 7.834 162.764 7.72812C163.079 7.63004 163.169 7.47749 163.171 7.04244C163.175 6.22207 162.062 5.9442 161.133 6.53372ZM167.806 6.32196C166.856 6.61655 165.999 7.22607 165.416 8.02294C165.092 8.46488 164.529 9.53633 164.529 9.71024C164.529 9.95477 164.98 10.075 165.389 9.93974C165.806 9.80222 165.973 9.5369 166.213 8.63415C166.498 7.55919 167.351 6.86684 168.391 6.86684C169.449 6.86684 169.946 7.50303 170.037 8.97574C170.126 10.3983 170.139 10.377 168.814 10.9536C167.347 11.5919 166.532 12.1224 165.848 12.8839C165.163 13.6462 164.836 14.2773 164.822 14.8644C164.799 15.8415 165.478 16.2476 166.817 16.058C167.608 15.946 168.181 15.6924 169.192 15.0077C169.772 14.6144 169.851 14.5884 169.915 14.7694C170.273 15.7852 170.54 16.038 171.351 16.1294C171.682 16.1667 171.978 16.1203 172.259 15.987C172.725 15.7659 173.343 14.9541 173.343 14.5637C173.343 14.3092 173.342 14.3092 173.032 14.6058C172.577 15.0406 172.219 15.1467 171.847 14.9567C171.677 14.8699 171.513 14.6852 171.481 14.5466C171.45 14.4078 171.411 12.7862 171.395 10.9429L171.366 7.59151L171.02 7.15748C170.495 6.49756 169.843 6.21292 168.884 6.22467C168.446 6.22998 167.961 6.27382 167.806 6.32196ZM66.1069 6.63361C66.1069 6.70842 66.2976 6.79859 66.5306 6.83396C66.7638 6.86921 67.1324 6.93509 67.3499 6.98029L67.7454 7.06244V8.02294C67.7454 9.33226 67.4604 14.5624 67.3632 15.0378C67.2803 15.4432 67.143 15.5228 66.3046 15.6518C65.3567 15.7978 65.9919 15.9042 67.8584 15.9121C69.8393 15.9206 70.4545 15.802 69.1296 15.6672C68.0027 15.5526 68.0252 15.6204 68.0427 12.3891C68.0601 9.17892 68.1387 8.0035 68.3407 7.93694C68.4328 7.90666 68.9274 8.80139 69.7249 10.4413C70.4074 11.8447 70.9659 13.0186 70.9659 13.0499C70.9659 13.2649 72.3833 16.0459 72.4928 16.0459C72.5684 16.0459 72.7208 15.8044 72.8318 15.5091C73.0333 14.9727 73.3201 14.3366 74.2711 12.3169C74.5491 11.7265 75.0684 10.6078 75.4253 9.83092C75.782 9.05405 76.142 8.3469 76.2253 8.25956C76.3541 8.1243 76.385 8.14113 76.4322 8.37256C76.4627 8.52205 76.4758 9.15293 76.4613 9.77442C76.4469 10.3959 76.425 11.9025 76.4124 13.1225L76.3898 15.3404L76.0791 15.4601C75.9082 15.5258 75.6031 15.6124 75.4011 15.6523C74.5787 15.8147 75.1459 15.8886 77.1714 15.8826C79.2827 15.8765 79.8769 15.8055 78.9963 15.6647C78.7477 15.625 78.4153 15.5338 78.258 15.462C77.978 15.3344 77.9718 15.3057 77.9716 14.1349C77.9715 13.4768 77.938 11.6878 77.8974 10.1593C77.8244 7.41545 77.8266 7.37715 78.0672 7.13657C78.2413 6.96244 78.4497 6.89294 78.7977 6.89294C79.0655 6.89294 79.3833 6.81825 79.504 6.72706C79.7007 6.57824 79.5693 6.55903 78.226 6.54061C77.4025 6.52931 76.6708 6.51496 76.5999 6.50875C76.4309 6.49395 76.3966 6.56028 75.599 8.44307C74.6049 10.7899 73.1869 13.7868 73.0563 13.8166C72.9437 13.8423 72.62 13.2498 72.1094 12.0837C71.9615 11.7458 71.3895 10.4934 70.8382 9.30062C70.287 8.10769 69.8359 7.08595 69.8359 7.0299C69.8359 6.97385 69.7371 6.83859 69.6164 6.72944C69.4303 6.56095 69.1475 6.5283 67.7519 6.51417C66.5349 6.50174 66.1068 6.53293 66.1069 6.63361ZM90.2887 6.60016C90.2887 6.69983 90.4229 6.80492 90.5994 6.84345C91.1038 6.95363 91.5744 7.14437 91.7859 7.3246C91.9662 7.47805 91.9837 7.7949 91.9837 10.9051C91.9837 13.112 91.9394 14.4441 91.8584 14.6767C91.718 15.0794 91.3326 15.2873 90.4938 15.4131C90.2047 15.4565 89.907 15.5657 89.8321 15.6559C89.7573 15.7461 89.7404 15.821 89.7947 15.8225C89.8488 15.8239 91.0866 15.8286 92.5453 15.8328C95.3647 15.8409 95.7938 15.7551 94.6282 15.4164C94.272 15.3127 93.8618 15.1093 93.7166 14.9641C93.4663 14.7138 93.4527 14.6219 93.4527 13.1912C93.4527 12.1621 93.4977 11.6207 93.5939 11.4892C93.721 11.3155 93.9895 11.2992 96.2777 11.3264L98.8201 11.3564L98.8143 12.9384C98.8103 13.9997 98.7608 14.6072 98.664 14.7842C98.5081 15.0685 97.9131 15.3669 97.496 15.3696C97.1789 15.3716 96.6825 15.617 96.7423 15.7422C96.7664 15.7928 97.9697 15.8436 99.4162 15.8552C101.648 15.8732 102.042 15.8519 102.015 15.7142C101.998 15.6251 101.741 15.4901 101.444 15.4143C101.147 15.3386 100.776 15.193 100.62 15.0908L100.337 14.9049L100.369 11.2418C100.398 8.01175 100.424 7.55659 100.589 7.39184C100.692 7.28912 101.15 7.12019 101.606 7.01657C102.173 6.88775 102.436 6.77576 102.436 6.66277C102.436 6.52931 102.294 6.50739 101.702 6.54864C100.698 6.6187 99.4691 6.62039 98.2551 6.5535C97.6273 6.51892 97.2231 6.54073 97.1989 6.61045C97.1775 6.6726 97.4745 6.82605 97.8592 6.95136C98.2439 7.07668 98.6302 7.27714 98.7176 7.39669C98.8361 7.55862 98.8766 8.01107 98.8766 9.17055C98.8766 10.5937 98.8579 10.7369 98.6581 10.844C98.5272 10.9139 97.4851 10.9609 96.0631 10.9609C93.852 10.9609 93.6787 10.9461 93.5728 10.7482C93.5035 10.6188 93.4834 9.96731 93.5214 9.08151C93.596 7.3411 93.6632 7.22471 94.7076 7.03047C95.4013 6.90153 95.7977 6.697 95.6327 6.55338C95.5835 6.51044 95.092 6.51315 94.5405 6.55915C93.5223 6.64423 91.958 6.61576 90.8819 6.49259C90.3918 6.43654 90.2887 6.45519 90.2887 6.60016ZM61.4674 6.73192C63.212 7.25002 64.3173 9.64097 63.9683 12.1415C63.7457 13.7366 62.941 14.9949 61.8129 15.5118C61.0553 15.8591 59.6717 15.8523 58.988 15.4981C57.3723 14.661 56.6532 12.8644 56.9458 10.3959C57.0963 9.12603 57.2257 8.71042 57.6734 8.05887C58.532 6.80921 59.9993 6.29597 61.4674 6.73192ZM86.3337 6.82854C87.4129 7.30494 88.0882 8.35685 88.4787 10.1699C88.8694 11.9843 88.1288 14.3678 86.9255 15.168C86.2354 15.6269 85.7601 15.7635 84.8647 15.7605C84.1662 15.7582 83.9142 15.7038 83.431 15.4514C81.9017 14.6525 81.177 12.7464 81.4771 10.3125C81.7274 8.2834 82.6452 7.06369 84.23 6.65429C84.7244 6.5266 85.8633 6.62096 86.3337 6.82854ZM109.35 6.95464C110.139 7.34087 110.65 8.02339 111.026 9.19541C111.724 11.3693 111.378 13.5489 110.137 14.8031C109.451 15.496 108.828 15.7424 107.747 15.748C106.985 15.752 106.753 15.7059 106.268 15.4545C104.819 14.7033 104.06 12.9099 104.248 10.6784C104.437 8.41956 105.445 7.00707 107.121 6.6518C107.79 6.51022 108.692 6.63282 109.35 6.95464ZM130.305 6.9682C131.566 7.65445 132.271 9.23293 132.265 11.3564C132.259 13.4015 131.483 14.879 130.086 15.507C129.271 15.873 127.934 15.8489 127.173 15.4545C126.472 15.091 125.944 14.5095 125.561 13.6781C125.316 13.1442 125.266 12.8507 125.227 11.6954C125.159 9.66696 125.394 8.72997 126.238 7.66462C126.564 7.25217 127.287 6.8282 127.961 6.65429C128.603 6.48841 129.691 6.63406 130.305 6.9682ZM140.064 6.89249C140.727 7.21341 141.032 7.71671 141.041 8.50669C141.058 9.91149 140.144 10.562 138.257 10.4879L137.353 10.4524V8.59302V6.73362L137.635 6.64785C138.144 6.49338 139.527 6.63271 140.064 6.89249ZM180.22 6.70378C180.307 6.80865 180.319 7.44393 180.262 8.82252L180.179 10.7914L179.392 10.8254C178.347 10.8705 177.723 10.6348 177.335 10.0473C176.53 8.8319 177.092 7.14425 178.441 6.72356C179.092 6.52061 180.059 6.50988 180.22 6.70378ZM139.873 11.1232C141.105 11.451 141.642 12.1383 141.569 13.2908C141.532 13.8789 141.463 14.0783 141.178 14.4315C140.732 14.9825 140.302 15.2291 139.541 15.3698C138.698 15.5256 137.888 15.3651 137.553 14.9759C137.31 14.6926 137.296 14.5857 137.296 12.8944C137.296 11.9138 137.33 11.0776 137.372 11.0363C137.508 10.8996 139.262 10.9606 139.873 11.1232ZM169.992 12.4683C169.973 14.1007 169.979 14.0869 169.002 14.7351C168.189 15.2742 167.579 15.4418 167.121 15.2517C166.739 15.0936 166.338 14.5498 166.338 14.1888C166.337 13.8254 166.758 13.073 167.246 12.5645C167.723 12.0684 168.261 11.6924 169.153 11.2311C169.999 10.7941 170.012 10.814 169.992 12.4683ZM184.218 18.046C184.09 18.3443 183.724 19.224 183.404 20.0008C183.083 20.7777 182.778 21.515 182.725 21.6393C182.672 21.7636 182.466 22.2721 182.268 22.7693C182.07 23.2665 181.839 23.8259 181.756 24.0123C181.672 24.1988 181.421 24.809 181.197 25.3683C180.973 25.9276 180.745 26.487 180.691 26.6113C180.637 26.7356 180.332 27.4729 180.012 28.2498C179.693 29.0266 179.387 29.764 179.332 29.8883C179.277 30.0126 179.099 30.4448 178.937 30.8488C177.131 35.3435 176.988 35.6191 176.258 36.0003C176.09 36.088 175.83 36.1597 175.679 36.1597C175.373 36.1597 175.092 36.4248 175.204 36.6067C175.251 36.6818 176.038 36.7247 177.369 36.7247H179.461L179.425 36.4705C179.395 36.2627 179.306 36.2095 178.936 36.18C178.388 36.1362 177.976 35.7853 177.976 35.3632C177.976 35.1954 178.236 34.4542 178.555 33.7161C178.873 32.9781 179.174 32.2471 179.224 32.0917C179.273 31.9364 179.551 31.2499 179.841 30.5663C180.434 29.1644 181.709 26.0728 183.008 22.8823C184.124 20.1433 184.128 20.1377 184.462 20.9331C184.573 21.1973 184.732 21.5659 184.814 21.7523C185.402 23.0848 185.978 24.4017 186.397 25.3683C186.665 25.9898 187.085 26.9559 187.33 27.5153C189.968 33.5458 190.632 35.1228 190.632 35.3537C190.632 35.7685 190.207 36.1446 189.697 36.1816C189.306 36.2099 189.219 36.2573 189.219 36.4422C189.219 36.6648 189.295 36.6682 194.248 36.6682C199.201 36.6682 199.276 36.6648 199.276 36.4422C199.276 36.2599 199.189 36.2092 198.824 36.18C198.283 36.1368 197.864 35.7855 197.865 35.3773C197.865 35.2172 198.263 34.1201 198.749 32.9392L199.633 30.7923H204.132H208.631L209.573 32.9392C210.091 34.1201 210.516 35.1938 210.517 35.3252C210.522 35.7642 210.109 36.1436 209.584 36.1816C209.188 36.2103 209.101 36.2594 209.071 36.4705L209.035 36.7247H211.912C214.253 36.7247 214.801 36.6957 214.849 36.569C214.925 36.3708 214.718 36.1597 214.446 36.1597C214.157 36.1597 213.677 35.8951 213.37 35.567C213.229 35.4157 212.808 34.61 212.435 33.7766C212.061 32.9432 211.708 32.1595 211.65 32.0352C211.592 31.9109 211.031 30.6397 210.404 29.2103C209.777 27.7808 208.982 25.9757 208.637 25.1988C208.292 24.4219 207.389 22.3879 206.632 20.6788L205.254 17.5714H204.758H204.262L203.509 19.4358C203.094 20.4613 202.285 22.4444 201.709 23.8428C200.661 26.3915 199.668 28.819 198.033 32.8262C196.802 35.8433 196.524 36.1589 195.095 36.1589C193.892 36.1589 193.375 35.7476 192.754 34.2952C192.316 33.2733 190.493 29.1278 189.5 26.8938C189.016 25.8062 188.23 24.0264 187.754 22.9388C186.549 20.1876 186.46 19.9863 185.882 18.7065L185.37 17.5714L184.91 17.5375C184.458 17.5041 184.446 17.5132 184.218 18.046ZM155.489 18.1408C154.624 18.4219 153.992 19.007 152.235 21.1517C149.533 24.4497 147.211 26.8938 146.779 26.8938C146.589 26.8938 146.549 26.0846 146.583 22.9751C146.617 19.945 146.63 19.7755 146.856 19.4721C147.087 19.163 147.289 19.0627 147.954 18.9276C148.203 18.8768 148.264 18.8088 148.236 18.6126L148.201 18.3624H145.321C142.592 18.3624 142.439 18.3735 142.4 18.5748C142.349 18.8408 142.56 18.9799 143.019 18.9822C143.284 18.9834 143.465 19.0863 143.726 19.3833L144.076 19.7828V27.4683C144.076 34.1023 144.053 35.1991 143.906 35.484C143.709 35.8643 143.394 36.0611 142.833 36.1543C142.536 36.2037 142.438 36.2759 142.438 36.4441C142.438 36.661 142.532 36.6692 145.356 36.6984L148.274 36.7285L148.237 36.4738C148.21 36.2811 148.105 36.2033 147.805 36.1537C147.297 36.0696 146.956 35.8503 146.768 35.4878C146.577 35.1192 146.485 28.266 146.666 27.9276C146.774 27.7259 146.831 27.7206 147.491 27.849C148.496 28.0441 148.96 28.2712 149.625 28.8927C150.627 29.8294 153.104 33.3043 154.844 36.2162C156.105 38.327 159.292 39.995 162.071 40C162.656 40.001 163.06 39.9556 163.06 39.8887C163.06 39.8265 163.008 39.7757 162.944 39.7757C162.879 39.7757 162.424 39.6202 161.931 39.4302C160.715 38.9613 159.477 38.1288 158.442 37.0843C157.552 36.1851 157.428 36.0136 155.205 32.6002C152.529 28.4901 151.097 27.1086 149.322 26.9254C148.972 26.8893 148.709 26.8064 148.709 26.732C148.709 26.6604 148.943 26.3751 149.228 26.098C149.687 25.6532 151.761 23.116 153.912 20.3683C154.313 19.8557 154.724 19.4362 154.824 19.4361C154.925 19.436 155.179 19.7029 155.389 20.0291C155.89 20.8065 156.453 21.1033 157.074 20.9173C157.888 20.6734 158.232 19.5962 157.747 18.8114C157.342 18.1549 156.351 17.8606 155.489 18.1408ZM113.502 18.4528C113.111 18.6713 113.401 18.9814 114 18.9863C114.339 18.9892 114.721 19.2578 114.909 19.6261C114.999 19.8008 115.035 22.14 115.035 27.6321V35.3913L114.651 35.7755C114.396 36.0309 114.159 36.1603 113.945 36.1614C113.522 36.1637 113.291 36.3192 113.377 36.5438C113.44 36.7083 114.683 36.7247 127.07 36.7247C139.457 36.7247 140.7 36.7083 140.763 36.5438C140.845 36.3301 140.623 36.1639 140.252 36.1614C139.892 36.1591 139.389 35.7827 139.229 35.3973C139.133 35.1655 139.107 33.0241 139.13 27.374L139.161 19.6669L139.466 19.3619C139.664 19.1635 139.94 19.0345 140.255 18.9922C140.609 18.9449 140.751 18.8701 140.781 18.7149C140.803 18.5981 140.771 18.4709 140.708 18.4324C140.646 18.3939 139.332 18.3661 137.787 18.3706L134.98 18.3789V18.6531C134.98 18.8895 135.045 18.9361 135.45 18.9902C135.709 19.0246 136.009 19.1263 136.118 19.2162C136.613 19.6267 136.618 19.7226 136.618 27.5608C136.618 32.276 136.577 35.1246 136.505 35.3133C136.374 35.6571 136.206 35.8442 135.861 36.0289C135.553 36.1936 129.539 36.212 129.111 36.0495C128.952 35.989 128.72 35.7728 128.596 35.5693C128.376 35.2089 128.37 34.9957 128.37 27.4888L128.369 19.7785L128.69 19.4193C128.927 19.1548 129.142 19.0429 129.508 18.9939C129.873 18.945 130.016 18.8711 130.046 18.7149C130.068 18.5981 130.032 18.4687 129.965 18.4274C129.747 18.2924 124.307 18.3677 124.167 18.5077C123.973 18.7018 124.264 18.9838 124.658 18.9838C124.839 18.9838 125.12 19.0705 125.281 19.1764C125.889 19.5743 125.883 19.5029 125.883 27.5793C125.883 35.7711 125.9 35.5618 125.214 35.9669C124.927 36.1365 124.499 36.1597 121.645 36.1597H118.403L118.019 35.7755L117.634 35.3913V27.6083C117.634 20.4602 117.65 19.8023 117.827 19.5458C118.116 19.1259 118.332 18.9914 118.722 18.9875C119.136 18.9833 119.436 18.7058 119.239 18.5091C119.09 18.3607 113.76 18.3083 113.502 18.4528ZM168.322 18.8757C169.479 19.079 170.298 19.4336 171.274 20.1529C172.556 21.0979 173.372 22.3893 173.884 24.286C174.152 25.2754 174.177 25.5573 174.178 27.5718C174.178 29.4713 174.144 29.9133 173.928 30.7763C173.502 32.4841 173.079 33.3443 172.21 34.2755C171.032 35.537 169.646 36.15 167.552 36.336C164.419 36.6144 161.622 34.4208 160.557 30.8488C159.822 28.3856 159.845 26.2284 160.631 23.8867C161.327 21.8131 162.379 20.3932 163.824 19.5771C164.169 19.3823 164.292 19.3965 164.932 19.7044C165.634 20.0427 166.598 20.2584 167.185 20.2086L167.637 20.1703L166.733 19.7119C166.235 19.4597 165.829 19.1806 165.829 19.0915C165.829 18.7852 167.155 18.6705 168.322 18.8757ZM204.159 20.5941C204.218 20.6718 204.383 21.015 204.526 21.3568C204.669 21.6987 204.901 22.2326 205.041 22.5433C205.18 22.8541 205.535 23.6677 205.828 24.3513C206.122 25.035 206.51 25.9157 206.69 26.3085C206.87 26.7012 207.017 27.045 207.017 27.0724C207.017 27.0998 207.115 27.3378 207.235 27.6013C207.942 29.1494 208.138 29.6422 208.082 29.7316C207.988 29.8843 200.124 29.8611 200.124 29.708C200.124 29.5034 203.887 20.4528 203.972 20.4528C204.016 20.4528 204.099 20.5165 204.159 20.5941Z" fill="white"/>
<path fill-rule="evenodd" clip-rule="evenodd" d="M8.90589 8.5333C2.10567 15.3532 0.349447 17.2168 0.159303 17.815C-0.145967 18.7764 0.00599338 21.1732 0.457439 22.5144C0.644882 23.0712 0.85026 23.5268 0.913898 23.5268C0.977536 23.5268 1.24212 23.1147 1.50207 22.6108C1.83087 21.9737 4.32568 19.3298 9.69751 13.9262L17.4205 6.15729L25.1595 13.9262C30.5369 19.324 33.0741 22.0071 33.4743 22.7179L34.0501 23.7409L34.354 22.8116C35.1009 20.5283 35.1395 18.4273 34.4589 17.0903C34.252 16.684 17.713 0 17.5169 0C17.4606 0 13.5858 3.83989 8.90589 8.5333ZM16.7581 10.9207C16.2025 11.9983 15.2583 13.0472 10.896 17.4322C8.01843 20.3249 5.57993 22.9362 5.43568 23.2796C5.03245 24.2396 5.12173 25.9561 5.65321 27.4626C6.29383 29.2784 6.41571 29.3513 6.93137 28.2289C7.25824 27.517 8.66831 25.9698 12.7103 21.8877C18.4881 16.0524 18.4777 16.0665 18.48 13.9734C18.4811 12.9886 18.1178 11.3151 17.6673 10.2305L17.4205 9.63617L16.7581 10.9207ZM22.2867 16.3982C21.8518 17.3026 20.7893 18.474 16.5421 22.7308C11.1591 28.126 10.5877 28.8495 10.5788 30.2841C10.5732 31.1808 11.0493 32.9812 11.5536 33.9695L11.9559 34.7582L12.4347 33.7248C12.8166 32.901 13.9628 31.6347 18.0866 27.4823C20.9318 24.6174 23.4162 21.9696 23.6073 21.5984C24.1023 20.6373 24.0695 18.5881 23.5307 16.8354C23.2962 16.0717 23.0403 15.4114 22.9622 15.3679C22.8839 15.3243 22.58 15.7881 22.2867 16.3982ZM27.7733 21.8682C27.246 22.8909 26.222 24.0242 21.9274 28.3373C18.7874 31.4911 16.6109 33.8297 16.4439 34.2294C16.2916 34.5939 16.167 35.3632 16.167 35.9388C16.167 37.0332 16.7363 39.1828 17.1908 39.8043C17.4371 40.1412 17.4872 40.1006 17.9047 39.2229C18.236 38.527 19.7562 36.8625 23.6991 32.8797C29.4738 27.0462 29.4697 27.0516 29.472 24.9655C29.4732 23.9806 29.1099 22.3071 28.6594 21.2226L28.4125 20.6282L27.7733 21.8682Z" fill="white"/>
</g>
</svg>
