<svg width="209" height="41" viewBox="0 0 209 41" fill="none" xmlns="http://www.w3.org/2000/svg">
<g opacity="0.7">
<path d="M6.96278 31.9799C3.71876 31.9799 1.3307 31.3109 0 30.4478V0H4.73296V11.0556C6.02941 10.4465 7.45167 10.1532 8.88329 10.1996C13.7745 10.1996 17.1768 14.2277 17.1768 20.5287C17.1696 27.6353 13.5299 31.9799 6.96278 31.9799ZM7.58856 13.0049C6.59015 12.9441 5.59439 13.1607 4.71138 13.6306V28.6136C5.48385 28.9129 6.30709 29.0595 7.13541 29.0451C10.8973 29.0451 12.4222 25.8371 12.4222 20.8308C12.4366 16.4503 11.185 13.0049 7.58137 13.0049H7.58856Z" fill="white"/>
<path d="M30.6973 13.6318C29.9809 13.36 29.2173 13.2339 28.4515 13.2611C27.6857 13.2882 26.933 13.4681 26.2377 13.7901V31.5855H21.4688V11.6322C23.6266 10.582 26.324 9.99221 31.6396 10.1505L30.6973 13.6318Z" fill="white"/>
<path d="M41.6159 31.9795C35.8616 31.9795 32.9844 29.6275 32.9844 25.5562C32.9844 20.0033 38.3503 18.3993 44.7592 17.7735V16.6442C44.7592 13.9037 43.0401 13.1556 40.5729 13.1556C38.7401 13.1998 36.9387 13.6415 35.2933 14.4503L34.2216 11.7098C36.4928 10.6385 38.9753 10.0904 41.4864 10.1058C45.8022 10.1058 49.2692 11.9472 49.2692 17.385V30.4762C46.8732 31.5764 44.2501 32.0917 41.6159 31.9795ZM44.7808 20.0464C40.2852 20.5931 37.5087 21.5713 37.5087 25.4052C37.5087 28.1385 39.1487 29.3182 41.9252 29.3182C42.9161 29.3366 43.8987 29.1352 44.8024 28.7283L44.7808 20.0464Z" fill="white"/>
<path d="M66.1899 31.5838V16.644C66.1899 14.9177 65.4059 13.1195 62.392 13.1195C61.2669 13.0815 60.1466 13.2825 59.1049 13.7093V31.5838H54.3359V11.6305C56.9421 10.5272 59.7579 10.0067 62.5863 10.1056C68.8873 10.1056 70.9588 13.1554 70.9588 16.5793V31.5838H66.1899Z" fill="white"/>
<path d="M85.0865 31.9799C78.8934 31.9799 75.2969 27.9878 75.2969 21.2983C75.2969 14.4075 79.0156 10.3363 84.4967 10.3363C85.5674 10.3185 86.6352 10.4517 87.6687 10.7319V0H92.4377V30.4765C90.7545 31.39 88.3737 31.9799 85.0865 31.9799ZM87.6687 13.2782C86.9803 13.0874 86.2683 12.9954 85.554 13.0049C81.4037 13.0049 80.0011 16.5582 80.0011 21.025C80.0011 25.7939 81.526 28.9372 85.2016 28.9372C86.0514 29.0138 86.9058 28.8519 87.6687 28.4697V13.2782Z" fill="white"/>
<path d="M97.9766 31.5842V0H102.753V31.5842H97.9766Z" fill="white"/>
<path d="M116.011 31.9792C110.106 31.9792 107.25 27.2822 107.25 21.0675C107.25 14.8528 110.127 10.1055 116.011 10.1055C121.895 10.1055 124.779 14.7665 124.779 21.0675C124.779 27.3685 121.924 31.9792 116.011 31.9792ZM116.011 13.1193C112.652 13.1193 111.983 16.9891 111.983 21.0316C111.983 25.074 112.702 28.7352 116.011 28.7352C119.42 28.7352 120.046 25.0236 120.046 21.0316C120.046 17.0395 119.42 13.1193 116.011 13.1193Z" fill="white"/>
<path d="M135.451 40.0022H130.416L133.861 31.5864L126.898 10.5039H131.984L135.623 24.1705C135.879 25.1533 136.021 26.1621 136.048 27.1772H136.127C136.234 26.1594 136.431 25.1533 136.717 24.1705L140.63 10.5039H145.068L135.451 40.0022Z" fill="white"/>
<path d="M155.139 31.9794C149.385 31.9794 146.508 29.6273 146.508 25.5561C146.508 20.0031 151.867 18.3991 158.283 17.7733V16.644C158.283 13.9035 156.564 13.1554 154.104 13.1554C152.268 13.1979 150.464 13.6397 148.817 14.4502L147.723 11.7097C149.986 10.6426 152.458 10.0945 154.96 10.1056C159.275 10.1056 162.742 11.947 162.742 17.3849V30.4761C160.361 31.5669 157.757 32.0819 155.139 31.9794ZM158.304 20.0463C153.809 20.593 151.032 21.5712 151.032 25.405C151.032 28.1384 152.672 29.318 155.456 29.318C156.447 29.3377 157.43 29.1362 158.333 28.7282L158.304 20.0463Z" fill="white"/>
<path d="M168.086 31.5842V0H172.855V31.5842H168.086Z" fill="white"/>
<path d="M198.396 40.0022H193.361L196.799 31.5864L189.844 10.5039H194.922L198.562 24.1705C198.821 25.1527 198.966 26.1616 198.993 27.1772H199.072C199.184 26.1601 199.381 25.1543 199.662 24.1705L203.575 10.5039H208.035L198.396 40.0022Z" fill="white"/>
<path d="M184.121 10.5028H187.559V13.5526H184.121V25.8742C184.121 27.5214 184.783 28.6147 186.43 28.6147C186.815 28.611 187.197 28.5429 187.559 28.4133V31.3912C186.788 31.6941 185.964 31.8408 185.135 31.8227C180.985 31.8227 179.345 29.0463 179.345 26.1115V13.5526H177V10.5028H179.345V5.8418C180.845 5.12347 182.459 4.6708 184.114 4.50391L184.121 10.5028Z" fill="white"/>
</g>
</svg>
