<svg width="97" height="45" viewBox="0 0 97 45" fill="none" xmlns="http://www.w3.org/2000/svg">
<path opacity="0.7" d="M76.8717 24.3357H78.0504L81.1157 29.151L78.8992 32.2664C78.4278 32.9745 77.862 33.2107 76.9187 33.3523V33.9658H80.4083V33.3523H80.2199C79.8425 33.3523 79.2766 33.1632 79.748 32.408L81.5401 29.8115L83.6151 33.0691L83.804 33.3523H82.8133V33.9658H87.5291V33.3523H86.5858L86.3974 33.0691L83.2377 28.1593L85.3601 25.1384C85.69 24.7135 86.0674 24.3832 87.0102 24.3832V23.7693H83.6151V24.3832H83.898C84.4168 24.3832 84.6998 24.3832 84.6527 24.6664C84.6527 24.8081 84.5583 24.9967 84.4168 25.1384L82.8133 27.4512L80.8327 24.3357H81.823V23.7222H73.2406V24.3357H73.5235C74.4193 24.3357 74.5138 24.5719 74.5138 24.8081C74.5138 25.0913 74.4193 25.5632 74.2779 25.8935L72.3444 31.0861L69.8924 25.2329L69.515 24.3357H70.6942V23.7222H65.6484V24.3357H66.8742L67.0631 24.7606L67.2986 25.28L67.4401 25.5632L67.8645 26.5545L70.9297 33.541L71.2601 34.2961C70.9771 35.0042 70.3168 36.3732 69.468 36.4207C69.421 35.7126 68.8551 35.1458 68.1948 35.1458C67.4875 35.1458 66.9216 35.7126 66.9216 36.4678C66.9216 37.0342 67.2986 37.5061 67.7704 37.6952C69.468 38.3087 71.2601 36.4207 71.92 34.5793L75.4096 25.6578C75.5511 24.9967 75.9284 24.3357 76.8717 24.3357ZM53.6229 33.2107C54.4722 32.6442 54.8966 31.7941 54.8966 31.0861C54.8966 30.0007 54.3777 28.7732 52.3972 28.4425V28.3484C53.5289 28.0651 54.2833 27.2155 54.2833 26.1767C54.2833 23.8638 51.5954 23.7693 50.3222 23.7693H44.9933V24.3832H46.5967V33.3523H45.2765H45.2293H44.9933V33.9658H49.8034C51.4539 33.9187 52.5857 33.9187 53.6229 33.2107ZM48.9546 24.3832C49.1905 24.3357 49.5674 24.3357 49.8504 24.3357C51.124 24.3357 52.3027 24.9497 52.3027 26.3183C52.3027 28.1593 50.3692 28.1593 49.8978 28.1593H49.0016V24.3832H48.9546ZM48.9546 28.7732H50.0863C51.6899 28.7732 52.7271 29.6229 52.7271 30.9919C52.7271 32.5026 51.6424 33.3523 50.1333 33.3523C49.7089 33.3523 49.332 33.3048 48.9546 33.2107V28.7732ZM44.8049 32.3135C44.5219 32.5967 44.0975 32.8329 43.7201 32.8329C43.3429 32.8329 43.2015 32.6443 43.2015 32.2194V26.2242C43.2015 25.5632 42.9656 23.5806 39.5231 23.5806C37.8726 23.5806 35.9392 24.3832 35.7034 25.7994C35.6563 26.0826 35.6563 26.4129 35.8448 26.6961C36.0807 27.1209 36.5051 27.4041 36.9768 27.4041C37.6841 27.4041 38.25 26.8377 38.25 26.0826C38.25 25.6102 37.967 25.1854 37.6369 24.9497C37.8726 24.5719 38.2972 24.2412 39.146 24.2412C40.8436 24.2412 40.8436 25.8464 40.8436 26.2712V27.7819C37.9198 28.3484 35.2319 29.3397 35.2319 31.7C35.2319 32.7859 35.8448 34.1074 37.4481 34.1074C37.8256 34.1074 39.0987 34.202 40.7963 32.5026C40.7963 33.3048 41.4567 34.1074 42.4941 34.1074C43.4844 34.1074 44.239 33.3994 44.9933 32.5026L44.8049 32.3135ZM40.8436 32.0303C40.3249 32.4551 39.6174 32.9274 38.9101 32.9274C37.7783 32.9274 37.2597 32.1249 37.2597 31.2277C37.2597 29.4813 39.0515 28.9148 40.8436 28.3954V32.0303ZM61.1211 23.7693C58.7162 23.7693 57.3485 25.327 56.8771 26.5545H56.7826C56.7826 24.1941 57.5844 21.3146 61.357 21.3146C63.8564 21.3146 65.6484 21.1257 66.0254 18.9072H65.3651C65.2711 19.2374 64.8467 19.568 63.432 19.568H61.8759C59.7064 19.568 55.9809 20.0874 55.9809 27.3571C55.9809 33.1161 58.4802 34.202 61.1681 34.202C64.8467 34.202 66.0728 31.6525 66.0728 28.8677C66.0254 26.2712 64.4223 23.7693 61.1211 23.7693ZM61.0266 33.4464C59.612 33.4464 58.4802 32.2664 58.4802 28.9148C58.4802 25.5632 59.612 24.3832 61.0266 24.3832C62.4417 24.3832 63.5735 25.5632 63.5735 28.9148C63.526 32.3135 62.3943 33.4464 61.0266 33.4464ZM27.1679 26.3658V25.4215C27.1679 24.9022 27.2152 24.2887 28.1112 24.2887H30.0445V33.2577H28.7243V33.8712H34.0058V33.2577H33.7701H33.7228H32.4024V24.2887H34.0058V23.6747H24.5273V24.2887H24.8572C26.0834 24.2887 26.4134 24.4303 26.4134 26.3658C26.4134 27.1209 26.3664 28.9148 26.2719 29.9061C26.1777 31.0861 25.989 31.7941 25.8005 32.1719C25.659 32.6442 25.4231 32.9274 25.0929 33.0691C25.1402 32.1719 24.2914 31.4639 23.4426 31.7471C22.4993 32.0303 22.2636 33.3048 22.971 33.9658C23.3954 34.3906 24.1971 34.3906 24.7158 34.2961C25.2346 34.202 25.706 33.8712 26.0362 33.4464C26.6021 32.6913 26.8378 31.7 26.9322 30.8028C27.0265 30.2364 27.1679 28.49 27.1679 26.3658ZM18.5853 40.1026L14.9542 43.8321C28.9127 43.4072 58.3388 43.2656 78.6637 43.3597C78.6637 43.3597 78.7578 42.4155 79.3711 42.0852H79.701C79.701 42.0852 80.1729 43.0294 81.5401 42.9349C81.9175 42.8878 83.6621 41.8965 83.6621 41.8965C84.4168 45.1536 88.6608 43.171 90.6413 42.4155C92.6223 41.6603 94.2255 41.141 95.876 40.9993L96.3004 40.1972H79.4181H78.6163H18.5853V40.1026ZM78.3859 42.1291C78.2596 42.328 78.144 42.55 78.0504 42.7933L64.8467 42.6046V41.4717L18.2554 41.7074L19.1041 40.7161H65.2711C68.9833 40.7161 73.873 40.7161 78.6154 40.6936V41.3821L65.2711 41.4717V42.0381L78.3859 42.1291ZM94.9328 40.622C94.2724 40.7161 92.8578 40.9052 91.632 41.2355C90.4058 41.5658 88.3309 42.5571 86.4918 42.8403C84.9827 43.0765 84.3224 41.9436 84.0869 41.3771H83.7095C83.1907 41.6133 81.9645 42.1797 81.3046 42.1797C80.5498 42.1797 80.1729 41.5187 80.0784 41.3771L79.4186 41.3776V40.6891C82.0472 40.6752 84.6067 40.6545 86.8688 40.622C86.7747 40.8107 86.7273 41.0939 87.0577 41.1885C87.4346 41.3301 88.6608 40.8577 89.4156 40.5745C92.6693 40.5275 94.8857 40.4329 95.0742 40.4329C95.0272 40.5275 94.9798 40.622 94.9328 40.622ZM18.9587 11.061C18.5423 11.4572 18.1999 11.7872 18.0194 11.9678C16.7935 13.2425 15.1429 15.5083 15.1429 18.0575L15.1901 35.1932C15.1901 38.0726 14.7657 40.9052 13.681 42.0852C11.1816 44.7288 10.4273 39.8194 11.7947 36.5148C11.7947 36.5148 5.52274 39.2055 7.26758 43.3127C8.44654 46.0979 12.1249 45.2482 15.0957 42.1323C17.3594 39.8194 18.8682 38.3558 19.3871 37.5061C19.9529 36.7039 20.7545 35.9954 20.7545 32.6913V15.9804C20.7545 14.8231 21.0473 13.3722 21.5552 11.9835L29.0542 14.6586C35.7033 16.3107 39.5231 15.7444 43.7201 11.9207C49.5674 6.63354 47.4457 0.732891 43.2015 0.0248135C42.2112 -0.116802 40.4664 0.355115 39.7118 1.25206C38.9573 2.149 36.7881 4.69826 36.7881 4.69826C43.9558 2.24332 46.2195 9.79628 42.0225 11.7318C38.4857 13.3368 23.6313 6.82245 19.7643 5.35904C9.10687 1.29935 4.67395 6.68083 2.6462 9.46602C-1.8337 15.6972 -0.183099 22.778 4.2968 23.2028C8.02214 23.5806 9.95566 20.4176 12.5493 15.0834C4.34383 21.173 1.46724 16.122 2.78768 12.3926C3.58949 10.1741 6.56026 8.28585 10.8987 8.75795C10.8987 8.75795 11.0874 8.75795 11.4175 8.80502C12.2663 8.94663 13.0679 9.1355 13.8697 9.37143H13.9169C15.087 9.71605 16.6591 10.2496 18.9587 11.061Z" fill="white"/>
</svg>
