<svg width="209" height="30" viewBox="0 0 209 30" fill="none" xmlns="http://www.w3.org/2000/svg">
<g opacity="0.7">
<path d="M5.47908 30H0V19.5849C0 18.6363 0.36271 17.982 0.954816 17.3812C1.53972 16.7902 2.29756 16.4156 3.13108 16.4156H8.60895V26.8307C8.60895 27.7781 8.24745 28.4336 7.65414 29.0332C7.07044 29.6254 6.31259 30 5.47908 30ZM0 5.32066V0H5.47908C6.31259 0 7.07044 0.374574 7.65414 0.96684C8.24745 1.5664 8.60895 2.22191 8.60895 3.1705V13.5856H3.13108C2.29756 13.5856 1.53972 13.211 0.954816 12.6188C0.36271 12.0192 0 11.3649 0 10.4163V5.32066ZM17.105 22.9816V26.7176H13.305C12.7657 26.7176 12.2421 26.5388 11.7989 26.0901C11.595 25.8949 11.4324 25.6599 11.3209 25.3993C11.2201 25.1338 11.1723 24.8506 11.1804 24.5662V17.0942H14.9816C15.5197 17.0942 16.0433 17.273 16.4865 17.7217C16.7255 17.9625 16.8732 18.1839 16.9657 18.4125C17.0582 18.6412 17.1062 18.9051 17.1062 19.2456V22.9816H17.105Z" fill="white"/>
<path d="M22.4766 3.84712H28.179V19.0174H28.4024L35.4452 3.84712H43.384V26.8287H37.6816V11.6585H37.5699L30.7504 26.8287H22.4766V3.84712ZM66.8605 3.84712V26.8287H60.8241V17.8851H52.8853V26.8287H46.849V3.84712H52.8865V12.5645H60.8241V3.84712H66.8605ZM86.6486 26.7144H80.6122V24.5642H77.4812C76.0279 24.5642 74.5747 24.4511 73.5682 24.1118C72.4513 23.8844 71.6682 23.3189 70.998 22.6403C70.3267 21.9592 69.8799 20.9413 69.6553 19.6972C69.4319 18.4507 69.2085 17.0922 69.2085 15.2814C69.2085 12.9038 69.4319 11.0929 69.9916 9.7345C70.55 8.37606 71.3331 7.35693 72.5618 6.79142C73.7928 6.22469 75.4682 5.99849 77.4812 5.99849H80.6122V3.84712H86.6486V5.9997H89.668C91.6797 5.9997 93.3575 6.22591 94.5862 6.79263C95.816 7.35814 96.5991 8.26418 97.1576 9.73572C97.7173 11.2073 97.9407 12.905 97.9407 15.2814C97.9407 17.0934 97.829 18.565 97.4939 19.8103C97.2705 20.9425 96.7108 21.8486 96.1523 22.7534C95.4809 23.4344 94.6991 23.9987 93.5809 24.2249C92.4628 24.4524 91.2329 24.6786 89.668 24.6786H86.6486V26.7156V26.7144ZM78.4876 19.2436H80.5005V11.2048H78.4864C77.7046 11.2048 77.1449 11.3191 76.5864 11.6585C76.1384 11.8847 75.8033 12.3383 75.5799 12.9038C75.4277 13.6868 75.3528 14.4833 75.3565 15.2814C75.3565 16.4124 75.4682 17.0934 75.5799 17.772C75.6916 18.3375 76.1384 18.7912 76.5864 19.0174C77.1449 19.1305 77.7034 19.2436 78.4864 19.2436H78.4876ZM86.6486 19.2436H88.6615C89.4434 19.2436 90.0031 19.1305 90.4511 19.0174C90.8978 18.7912 91.2317 18.3375 91.4563 17.772C91.6797 17.2053 91.6797 16.4136 91.6797 15.2814C91.6797 13.8098 91.4563 12.7907 91.0095 12.1109C90.5615 11.5454 89.7797 11.3191 88.5498 11.3191H86.5369L86.6486 19.2436ZM110.015 27.0549C108.338 27.0549 106.885 26.9418 105.655 26.8287C104.507 26.6224 103.407 26.2 102.412 25.5834C101.407 25.0166 100.735 24.2249 100.289 22.9796C99.729 21.8474 99.5056 20.4889 99.5056 18.6781V12.2252C99.5056 10.5262 99.729 9.05467 100.289 7.92244C100.847 6.79142 101.519 5.99849 102.412 5.31988C103.307 4.63883 104.425 4.30074 105.655 3.96022C106.885 3.73402 108.338 3.50781 110.015 3.50781C111.691 3.50781 113.146 3.62091 114.374 3.73402C115.523 3.94031 116.622 4.36271 117.617 4.97935C118.624 5.54608 119.294 6.4509 119.742 7.58313C120.3 8.71537 120.524 10.0738 120.524 11.8847V18.3375C120.524 20.0365 120.3 21.5081 119.742 22.6391C119.182 23.7713 118.512 24.5642 117.617 25.2428C116.611 25.9227 115.604 26.3751 114.374 26.4882C112.951 26.8653 111.486 27.0557 110.015 27.0549ZM110.015 21.6212C111.133 21.6212 112.027 21.5081 112.586 21.3937C113.146 21.2806 113.592 20.8282 113.816 20.2627C114.039 19.696 114.263 18.9043 114.263 17.772V12.5645C114.263 11.7716 114.151 11.0929 114.039 10.5262C113.928 10.0738 113.592 9.7345 113.369 9.3952C113.146 9.16778 112.698 8.94157 112.139 8.82847C111.58 8.82847 110.909 8.71537 110.126 8.71537C109.009 8.71537 108.115 8.82847 107.556 8.94157C106.996 9.05467 106.55 9.5083 106.325 10.0738C106.102 10.6393 105.878 11.4322 105.878 12.5645V17.772C105.878 18.9031 105.99 19.696 106.325 20.2627C106.548 20.8282 106.996 21.0544 107.555 21.2806C107.891 21.5081 108.785 21.6212 110.015 21.6212Z" fill="white"/>
<path d="M132.444 14.0229L136.218 4.41779H141.873L133.661 21.3709V21.3734C133.006 22.6977 132.36 23.6755 131.725 24.4259C131.087 25.1799 130.482 25.6785 129.804 25.9728C129.102 26.2769 128.06 26.4921 127.006 26.4921C126.37 26.4921 125.49 26.4143 124.546 26.3194V22.5396C124.95 22.6005 125.434 22.6442 125.999 22.6442H126.011C126.338 22.6442 126.659 22.6442 126.925 22.6284C127.061 22.6211 127.196 22.609 127.318 22.5883C127.397 22.5749 127.487 22.5555 127.577 22.5238C127.915 22.4874 128.399 22.3049 128.616 21.7905C128.655 21.7317 128.689 21.6694 128.717 21.6044C128.756 21.5193 128.793 21.422 128.828 21.3332C128.832 21.3209 128.836 21.3087 128.841 21.2967C128.909 21.1168 128.98 20.9319 129.072 20.7458L129.192 20.5026L129.079 20.2557L121.844 4.41779H127.409L131.182 14.0229L131.322 14.3793H132.305L132.444 14.0229ZM150.057 26.1528H145.117V4.30469H155.961C157.276 4.30469 158.445 4.41536 159.49 4.73277L159.51 4.73885L159.53 4.74372C160.398 4.9383 161.076 5.42719 161.569 6.02554C162.107 6.67983 162.596 7.38398 162.792 8.37758C163.014 9.50252 163.229 10.7029 163.229 12.116C163.229 13.7736 163.121 15.1029 163.01 16.2193C162.848 17.0788 162.467 17.8806 161.905 18.5458C161.438 19.1125 160.773 19.509 159.865 19.7133C158.885 19.9347 157.585 20.1536 156.073 20.1536H150.28L150.26 20.6984L150.057 26.1528ZM150.037 15.5115V16.0782H154.731C155.573 16.0782 156.18 15.9554 156.657 15.835C156.998 15.7474 157.279 15.5638 157.485 15.2853C157.678 15.0251 157.784 14.7113 157.849 14.3902C157.917 14.1056 157.945 13.7505 157.96 13.382C157.974 13.0038 157.974 12.5696 157.974 12.1233V12.0783C157.974 11.317 157.974 10.7016 157.852 10.0802L157.848 10.068L157.846 10.0534C157.769 9.75519 157.619 9.4815 157.41 9.25807C157.313 9.15173 157.21 9.05026 157.103 8.95403C157.037 8.89079 156.977 8.83363 156.916 8.77161L156.807 8.66216L156.657 8.62324C156.18 8.50162 155.573 8.38001 154.731 8.38001H150.037V15.5127V15.5115ZM167.885 25.1069L167.873 25.0996L167.86 25.0923C166.994 24.6059 166.396 23.819 165.984 22.7731C165.561 21.7029 165.24 20.415 165.24 18.682V12.2291C165.24 10.5691 165.461 9.19848 165.965 8.17934C166.479 7.13953 167.084 6.41957 167.893 5.79934C168.858 5.25937 169.796 4.84344 170.931 4.63548C172.101 4.41901 173.497 4.41657 175.191 4.41657C176.832 4.41657 178.257 4.52724 179.475 4.63913C180.545 4.83416 181.569 5.22881 182.497 5.80299L182.509 5.8115L182.522 5.81758C183.387 6.30404 183.985 7.0921 184.398 8.13678L184.406 8.15867L184.417 8.18056C184.922 9.20091 185.14 10.4584 185.14 12.2291V18.682C185.14 20.3408 184.92 21.7114 184.417 22.7306C183.903 23.7716 183.297 24.4904 182.488 25.1106C181.537 25.6433 180.612 26.0543 179.499 26.2659C178.924 26.2696 178.305 26.3182 177.667 26.3681L177.496 26.3803C176.77 26.4374 176.006 26.4921 175.191 26.4921C173.55 26.4921 172.125 26.3827 170.907 26.2708C169.837 26.076 168.812 25.6813 167.885 25.1069ZM179.763 10.5326L179.761 10.5204L179.757 10.5071C179.681 10.2212 179.554 9.952 179.381 9.71291C179.319 9.62203 179.255 9.53282 179.188 9.44536L179.175 9.42711C179.118 9.3526 179.063 9.27635 179.01 9.19848C178.796 8.87498 178.461 8.70715 178.18 8.61837C177.899 8.53356 177.608 8.49134 177.314 8.49311C177.147 8.49311 176.919 8.47487 176.625 8.45055L176.48 8.43838C175.192 8.31888 173.894 8.37903 172.622 8.61716C171.846 8.77526 171.278 9.37847 171.002 9.9379L170.991 9.95857L170.983 9.98046C170.736 10.6031 170.495 11.4678 170.495 12.6815V17.8891C170.495 19.0116 170.598 19.9286 170.999 20.6327C171.284 21.3077 171.829 21.6312 172.293 21.9072L172.444 21.9972L172.576 22.0775H172.731C172.878 22.0775 173.063 22.0909 173.323 22.1103L173.63 22.1335C174.042 22.1614 174.558 22.1906 175.191 22.1906C176.344 22.1906 177.275 22.0739 177.872 21.9535C178.661 21.7941 179.236 21.1727 179.511 20.4771C179.757 19.8544 179.999 18.9897 179.999 17.776V12.6803C179.999 11.8339 179.879 11.1127 179.763 10.5314V10.5326ZM207.862 4.41779L200.451 14.8414L200.209 15.1807L200.458 15.5139L208.5 26.2659H202.419L196.215 17.5583L196.048 17.3236H193.414V26.2659H188.495V4.41779H193.414V13.1339H196.059L196.224 12.8858L201.872 4.41779H207.862Z" fill="white"/>
</g>
</svg>
