<svg width="201" height="20" viewBox="0 0 201 20" fill="none" xmlns="http://www.w3.org/2000/svg">
<path opacity="0.7" fill-rule="evenodd" clip-rule="evenodd" d="M156.304 0.551727C154.564 0.988186 154.22 1.26189 154.351 2.10695C154.447 2.72375 154.799 3.06002 155.235 2.95151C155.634 2.8523 157.425 2.65973 159.215 2.52385C162.069 2.30636 162.597 2.40362 163.513 3.31515C164.811 4.60693 164.824 5.34984 163.575 6.92998C162.856 7.83858 161.934 8.26233 160.136 8.50817C158.189 8.77454 157.679 9.03309 157.679 9.75401C157.679 10.426 158.16 10.7408 159.522 10.9607C162.8 11.4906 163.574 12.0062 163.574 13.6616C163.574 17.1024 161.117 18.4499 156.42 17.5858C153.456 17.0404 152.767 17.1797 152.767 18.3243C152.767 19.3566 154.849 19.9939 158.218 19.9939C163.445 19.9939 166.03 17.9802 166.03 13.9089C166.03 12.0815 164.667 10.2188 163.328 10.2188C162.923 10.2188 162.592 9.99887 162.592 9.73006C162.592 9.46124 162.94 9.2413 163.366 9.2413C163.792 9.2413 164.8 8.58539 165.605 7.78432C166.84 6.55608 167.046 6.00623 166.918 4.28924C166.712 1.51066 165.062 0.304418 161.247 0.142151C159.691 0.0761691 157.466 0.260429 156.304 0.551727ZM174.135 0.689557C171.613 1.57714 170.182 3.24819 169.24 6.40555C168.397 9.2286 168.237 15.3669 168.956 17.2505C170.386 20.991 178.555 20.8615 181.355 17.0545C181.852 16.3786 182.392 14.7075 182.555 13.3405C182.824 11.0771 182.723 10.7129 181.411 9.25254C180.242 7.9505 179.512 7.60544 177.527 7.4158C176.184 7.28726 174.262 7.40798 173.259 7.68364C171.68 8.11717 171.434 8.07465 171.435 7.36888C171.438 6.15726 173.19 3.5214 174.433 2.85963C175.119 2.49404 176.853 2.3655 179.126 2.51066C182.59 2.73158 182.731 2.69834 182.731 1.65876C182.731 0.741853 182.383 0.529245 180.452 0.265806C177.293 -0.165276 176.391 -0.10467 174.135 0.689557ZM190.464 0.625529C188.049 1.51946 187.276 2.1959 186.14 4.41094C184.867 6.89528 184.109 13.7735 184.863 16.0096C185.627 18.2754 187.547 19.5926 190.497 19.8747C196.676 20.4651 199.854 16.9695 200.606 8.75255C200.946 5.03557 200.257 2.67244 198.443 1.3352C196.789 0.116247 192.798 -0.238589 190.464 0.625529ZM3.52544 5.54045C1.58662 7.80632 0 9.91285 0 10.2213C0 10.5301 1.24277 12.8552 2.76209 15.3884L5.52419 19.9939H8.16544C9.61796 19.9939 10.8067 19.8624 10.8067 19.7011C10.8067 19.5403 9.70146 17.5404 8.35063 15.2564C6.99979 12.9729 5.89456 10.8796 5.89456 10.6049C5.89456 10.3302 7.26505 8.53603 8.93959 6.61864C10.6146 4.70077 12.3064 2.74722 12.6998 2.27654C13.3684 1.47694 13.2082 1.42122 10.233 1.42122H7.05039L3.52544 5.54045ZM19.0345 2.0092C17.1866 2.49746 16.7366 3.37038 17.6188 4.75502C17.9509 5.27603 18.6253 5.29314 21.1232 4.84251C25.4832 4.05561 27.4799 4.68855 27.5006 6.86351C27.5065 7.49303 26.6488 7.78481 23.4554 8.23887C21.2263 8.55607 18.4839 9.25108 17.361 9.78333C13.4833 11.6206 12.6954 16.3757 15.8785 18.7251C17.1099 19.6337 17.944 19.7495 23.2688 19.7495C28.175 19.7495 29.5126 19.5922 30.5923 18.8879C32.115 17.8947 32.2079 17.5902 33.0749 10.7076C33.8353 4.67584 33.5317 3.29169 31.2063 2.19394C29.3367 1.31125 22.0913 1.20128 19.0345 2.0092ZM37.4874 1.76188C36.2324 2.0048 36.1847 2.19394 35.1267 11.1963C34.6998 14.8253 34.244 18.2891 34.1128 18.8942C33.8873 19.9377 34.0239 19.9939 36.7963 19.9939H39.7175L40.0388 17.1836C40.6862 11.5209 41.0718 11.45 43.8983 16.4783L45.8744 19.9939H48.9553H52.0362L49.3114 15.3634L46.5867 10.7325L48.9303 8.03212L51.2733 5.33126H54.6185C58.5001 5.33126 58.2554 4.68904 57.2264 12.1738C56.101 20.3566 56.0116 19.9939 59.1524 19.9939C62.2387 19.9939 61.9926 20.4944 62.8832 12.4182C63.7163 4.86597 63.4323 5.40213 66.6857 5.23351L69.5067 5.08689L69.659 3.25405L69.8117 1.42122H59.062H48.3128L45.1612 5.33126C43.4277 7.48178 41.8258 9.2413 41.6018 9.2413C41.3778 9.2413 41.3489 7.48178 41.537 5.33126L41.8799 1.42122L40.2201 1.48769C39.3074 1.52435 38.0774 1.64752 37.4874 1.76188ZM72.482 2.52092C72.3518 3.126 71.9038 6.47984 71.4868 9.97444C71.0692 13.469 70.5996 17.1533 70.4425 18.1611L70.1571 19.9939H72.1249C73.2075 19.9939 74.4562 19.8551 74.9007 19.6855C75.3448 19.5159 77.3607 17.2065 79.3796 14.5536C81.399 11.9006 83.1138 9.73006 83.1909 9.73006C83.268 9.73006 83.047 11.8747 82.6997 14.4954C82.3524 17.1161 82.0601 19.4255 82.0503 19.6273C82.0405 19.8292 83.324 19.9939 84.9023 19.9939H87.772L88.6164 12.7848C89.081 8.81951 89.588 4.64065 89.7432 3.49843L90.0257 1.42122H87.8422C85.1897 1.42122 85.0104 1.5615 80.8066 6.92118C78.9611 9.27405 77.3528 11.102 77.2335 10.9827C77.1141 10.864 77.2605 8.9588 77.5596 6.74914C78.3308 1.04732 78.4816 1.42122 75.4106 1.42122C73.0159 1.42122 72.6922 1.54292 72.482 2.52092ZM95.288 2.52092C92.4537 3.95004 91.5612 5.61034 90.8003 10.8679C90.1023 15.689 90.4078 16.8107 92.9297 18.6738C94.5674 19.8839 100.467 20.3629 103.542 19.5355C106.956 18.6166 108.461 16.8835 109.296 12.907C111.19 3.8909 109.473 1.42122 101.31 1.42122C98.2997 1.42122 96.9965 1.65925 95.288 2.52092ZM113.965 1.85768C112.795 2.18173 112.706 2.48329 111.924 8.77356C111.474 12.3908 110.968 16.3957 110.798 17.6723L110.489 19.9939H113.407H116.324L116.739 16.4504L117.154 12.907L120.039 12.7584L122.924 12.6103L122.576 16.3019L122.228 19.9939H123.949C126.125 19.9939 127.134 19.6088 127.696 18.5633C128.247 17.5389 130.353 1.92757 129.989 1.56589C129.844 1.42122 128.519 1.45299 127.044 1.63627L124.363 1.96961L123.952 5.48327L123.54 8.99693L120.662 9.14502L117.784 9.29311L118.134 5.35717L118.485 1.42122L116.837 1.4701C115.931 1.49698 114.639 1.67098 113.965 1.85768ZM133.717 2.52092C134.108 3.126 135.372 5.21103 136.525 7.15481L138.623 10.689L134.6 15.3415L130.578 19.9939H133.783H136.989L140.58 15.7804C142.555 13.4627 144.141 11.2643 144.103 10.8948C144.066 10.5258 142.857 8.24278 141.417 5.82246L138.798 1.42122H135.902C133.015 1.42122 133.008 1.42464 133.717 2.52092ZM196.731 3.17048C197.592 3.81906 197.711 4.4691 197.692 8.40895C197.666 13.9128 196.71 16.3248 194.128 17.3981C191.799 18.3664 188.835 17.8331 187.799 16.2593C187.164 15.2955 187.067 14.2569 187.302 10.9436C187.603 6.68805 188.035 5.37721 189.755 3.49843C190.551 2.62845 191.283 2.40215 193.255 2.41437C194.7 2.42317 196.162 2.74135 196.731 3.17048ZM103.19 5.36645C104.094 6.26625 104.171 6.74279 103.88 9.64306C103.7 11.4383 103.187 13.6768 102.74 14.6176C102.032 16.1068 101.669 16.3473 99.9364 16.4739C98.4352 16.5834 97.7244 16.3757 97.0431 15.6264C96.2115 14.7119 96.1884 14.3351 96.7528 10.8381C97.4616 6.44318 97.9023 5.4383 99.3798 4.84593C101.111 4.1519 102.106 4.28777 103.19 5.36645ZM179.012 10.4979C180.214 11.6939 179.997 14.8058 178.599 16.4231C177.614 17.5619 177.024 17.7945 175.117 17.7945C172.04 17.7945 170.942 16.5047 170.942 12.8889C170.942 9.92458 171.012 9.87717 175.451 9.78675C177.392 9.74716 178.475 9.96368 179.012 10.4979ZM26.7225 13.2735C26.3128 16.4793 25.8531 17.0614 23.7315 17.0614C21.1349 17.0614 20.1397 16.3165 20.1397 14.3732C20.1397 12.515 21.0632 11.7599 24.0695 11.1621C27.1602 10.5473 27.0791 10.4827 26.7225 13.2735Z" fill="white"/>
</svg>
