<svg width="211" height="40" viewBox="0 0 211 40" fill="none" xmlns="http://www.w3.org/2000/svg">
<path opacity="0.7" d="M94.6474 20.1189C94.6474 28.0714 89.7876 31.8437 83.7043 31.8437H80V27.0518H83.4324C87.1028 27.0518 89.5497 25.0807 89.5497 20.085C89.5497 15.1572 87.2387 12.7103 83.3305 12.7103C79.5582 12.7103 76.8734 15.0212 76.8734 19.983V39.966H71.7757V8.56415H76.8394V11.2829H77.5531C79.2523 9.00595 81.7332 7.98641 84.35 7.98641C89.9575 7.98641 94.6474 12.0646 94.6474 20.1189ZM61.3424 18.0459L57.9779 17.706C55.3271 17.4681 53.9337 16.7545 53.9337 15.1912C53.9337 13.356 55.7349 12.3025 58.2838 12.3025C60.9346 12.3025 62.6338 13.5599 62.7697 15.3271H67.6296C67.4257 10.7732 63.9252 7.98641 58.3177 7.98641C52.6763 7.98641 48.87 10.9771 48.87 15.3611C48.87 19.0314 51.181 21.4104 56.4486 21.9201L59.881 22.26C61.9541 22.4639 63.3475 22.8717 63.3475 24.8768C63.3475 26.678 62.0561 27.9694 58.6236 27.9694C55.463 27.9694 53.8997 26.5421 53.356 24.6049H48.0884C48.5981 28.989 52.3025 32.3874 58.6236 32.3874C64.5709 32.3874 68.4112 29.2608 68.4112 24.6049C68.3772 20.5607 65.6924 18.4537 61.3424 18.0459ZM114.257 24.6389C113.475 26.4741 111.572 27.8335 108.853 27.8335C105.149 27.8335 102.396 25.4206 102.396 20.2209C102.396 15.2591 104.945 12.5064 108.921 12.5064C112.455 12.5064 114.46 14.6134 114.664 17.808H105.556V21.4783H119.66V19.0654C119.66 12.3704 115.208 8.02039 108.887 8.02039C103.008 8.02039 97.3662 12.0306 97.3662 20.2209C97.3662 28.4112 103.008 32.4214 108.887 32.4214C114.257 32.4214 118.131 29.0909 119.32 24.6389H114.257ZM34.3585 7.98641C28.819 7.98641 24.6729 10.8751 24.1631 15.3271H29.6007C29.9745 13.6958 31.4698 12.4724 34.3246 12.4724C37.9949 12.4724 39.1844 14.4095 39.1844 16.7545V24.7069C37.1113 27.0858 34.6984 28.1733 32.2855 28.1733C29.7706 28.1733 28.0374 26.9499 28.0374 24.8088C28.0374 22.7358 29.3968 21.4444 31.9796 21.4444H36.0238V17.808H31.8097C26.0323 17.808 22.7698 20.6967 22.7698 25.1487C22.7698 29.2948 25.8963 32.4214 31.062 32.4214C33.9507 32.4214 36.4996 31.2659 38.4027 29.8726H39.1164V31.8437H44.1801V16.3127C44.3161 10.5692 40.4078 7.98641 34.3585 7.98641ZM0 31.8437H5.06372V0H0V31.8437ZM21.2744 8.56415H15.0892L7.71453 18.2838V21.3084L15.2931 31.8437H21.5803L12.6763 19.7791L21.2744 8.56415ZM204.486 8.56415L200.34 17.774C199.32 19.983 198.369 22.158 198.063 23.6194H197.349C197.043 22.158 196.058 20.051 195.038 17.842L190.892 8.56415H185.285L195.038 29.4647L190.212 40H195.616L210.093 8.56415H204.486ZM184.163 8.56415H177.978L170.603 18.2498V21.2744L178.182 31.8097H184.469L175.599 19.7451L184.163 8.56415ZM152.421 18.0459L149.057 17.706C146.406 17.4681 145.013 16.7545 145.013 15.1912C145.013 13.356 146.814 12.3025 149.363 12.3025C152.014 12.3025 153.713 13.5599 153.849 15.3271H158.709C158.505 10.7732 155.004 7.98641 149.397 7.98641C143.755 7.98641 139.949 10.9771 139.949 15.3611C139.949 19.0314 142.26 21.4104 147.528 21.9201L150.96 22.26C153.033 22.4639 154.426 22.8717 154.426 24.8768C154.426 26.678 153.135 27.9694 149.703 27.9694C146.542 27.9694 144.979 26.5421 144.435 24.6049H139.167C139.677 28.989 143.381 32.3874 149.703 32.3874C155.65 32.3874 159.49 29.2608 159.49 24.6049C159.49 20.5607 156.771 18.4537 152.421 18.0459ZM162.889 31.8437H167.952V0H162.889V31.8437ZM129.448 11.2829H128.734V8.56415H123.67V31.8437H128.734V19.6771C128.734 15.531 130.637 13.1181 134.443 13.1181H137.638V7.98641H135.769C132.268 7.98641 130.773 9.31181 129.448 11.2829Z" fill="white"/>
</svg>
