<svg width="44" height="60" viewBox="0 0 44 60" fill="none" xmlns="http://www.w3.org/2000/svg">
<g opacity="0.7">
<path d="M0.101308 45.0651C-0.0561621 44.9582 0.0169489 44.7952 0.0169489 44.6611C0.0131996 29.8696 0.0122623 15.0771 0.014137 0.283651C0.014137 0.2246 0.0235102 0.165548 0.0281968 0.106497C0.246593 0.0605685 0.346886 0.23491 0.468738 0.354887C3.96807 3.84797 7.46459 7.34355 10.9583 10.8416C11.0623 10.9457 11.1804 11.0422 11.2207 11.195C11.2195 11.3439 11.1876 11.491 11.127 11.6271C9.98067 15.0062 8.91681 18.4114 7.76297 21.7867C7.68142 22.0248 7.70204 22.142 7.91763 22.2948C12.1793 25.3017 16.4319 28.3227 20.6755 31.3577C21.0251 31.6061 21.4891 31.7486 21.655 32.2154C21.5838 32.4394 21.3738 32.5144 21.2023 32.6194C16.3976 35.4951 11.5769 38.3436 6.76753 41.2108C4.76229 42.405 2.75643 43.5966 0.749934 44.7858C0.551974 44.9166 0.332353 45.0111 0.101308 45.0651Z" fill="#EBEBEB"/>
<path d="M0.0996094 45.0667C1.77929 44.0534 3.45241 43.044 5.13396 42.041C7.26262 40.7719 9.3969 39.5103 11.5274 38.2477C14.7668 36.3218 18.0049 34.394 21.2418 32.4644C21.3693 32.3885 21.4883 32.2994 21.6168 32.217C21.6512 32.191 21.6936 32.1778 21.7367 32.1795C22.2673 32.4607 22.674 32.9031 23.1202 33.2846C25.3379 35.1667 27.5509 37.0529 29.7593 38.9432C31.3746 40.3179 32.9899 41.6926 34.6052 43.0674C34.7715 43.1936 34.9142 43.3482 35.027 43.5239C35.0347 43.5437 35.0371 43.5652 35.0339 43.5862C35.0308 43.6072 35.0223 43.6271 35.0092 43.6438C33.2536 44.2822 31.4286 44.599 29.5821 44.8164C27.4816 45.0648 25.3707 45.0892 23.258 45.0873C15.7332 45.0792 8.20806 45.0792 0.682623 45.0873C0.484848 45.0845 0.29176 45.0733 0.0996094 45.0667Z" fill="#E4E4E4"/>
<path d="M22.4233 0.0226047C25.8445 -0.03176 29.2658 -0.0139509 32.6148 0.812766C34.3413 1.23925 35.9892 1.86444 37.4561 2.88987C39.8519 4.56018 41.0966 6.90254 41.4247 9.76418C41.6204 11.3909 41.5383 13.039 41.1819 14.6383C40.6823 16.8503 39.4638 18.5581 37.5817 19.7973C36.8441 20.2973 36.0464 20.7023 35.2074 21.0027C34.9066 21.0458 34.8484 20.7861 34.7388 20.6099C33.643 18.8571 32.6064 17.0697 31.5322 15.3047C28.5796 10.4541 25.6664 5.57998 22.7148 0.729345C22.5868 0.546767 22.4793 0.350617 22.3943 0.144456C22.3893 0.123282 22.3894 0.101258 22.3945 0.0801156C22.3995 0.0589731 22.4094 0.0392874 22.4233 0.0226047Z" fill="white"/>
<path d="M22.4299 0.100108C23.2735 1.33643 24.0037 2.64025 24.7788 3.91782C26.466 6.70416 28.1513 9.49269 29.8347 12.2834C31.2801 14.6801 32.7132 17.0853 34.1764 19.4708C34.497 19.9947 34.7257 20.589 35.2075 21.0042C35.2087 21.0322 35.2008 21.0599 35.185 21.083C35.1747 21.1148 35.1558 21.1432 35.1303 21.1649C35.1048 21.1866 35.0737 21.2008 35.0406 21.2058C34.9953 21.2036 34.951 21.1921 34.9103 21.172C33.3412 20.454 31.7319 19.8307 30.1375 19.1708C24.7816 16.9513 19.4236 14.7336 14.0634 12.5177C13.126 12.1306 12.1756 11.7951 11.2814 11.3189C11.2503 11.2874 11.2314 11.2459 11.228 11.2017C11.2102 10.9937 11.3648 10.8812 11.4876 10.7584C14.6789 7.56337 17.873 4.37054 21.0698 1.1799C21.3951 0.855589 21.77 0.583766 22.0887 0.249143C22.1759 0.157285 22.2705 0.0448065 22.4299 0.100108Z" fill="#F5F5F5"/>
<path d="M35.0874 21.1613L35.1811 21.0826C36.3668 21.464 37.516 21.9261 38.578 22.5888C40.8416 23.9948 42.3273 25.9763 42.9628 28.5689C43.587 31.0611 43.5365 33.6744 42.8165 36.1406C41.8436 39.515 39.5547 41.7158 36.4118 43.1133C35.9591 43.3309 35.4888 43.5096 35.0058 43.6476C35.0058 43.6223 35.0058 43.597 35.0058 43.5726C34.9659 43.3683 34.9483 43.1603 34.9534 42.9521C34.9534 35.976 34.9534 28.9998 34.9534 22.0236C34.9496 21.7321 34.8877 21.4237 35.0874 21.1613Z" fill="#DADADA"/>
<path d="M22.4256 0.0990121C22.0066 0.473941 21.5689 0.830123 21.1714 1.2238C17.9396 4.44443 14.712 7.66944 11.4889 10.8988C11.4055 10.9822 11.338 11.0797 11.263 11.1706C11.2582 11.1784 11.2516 11.1849 11.2439 11.1897C11.2361 11.1944 11.2273 11.1973 11.2182 11.1981C11.2092 11.199 11.2 11.1977 11.1915 11.1944C11.183 11.1911 11.1754 11.1858 11.1693 11.1791C9.61958 9.64313 8.07206 8.10623 6.52673 6.5684C4.47962 4.52504 2.43376 2.47981 0.38915 0.432698C0.274797 0.318345 0.148258 0.216177 0.0273438 0.108385C0.109828 -0.0547086 0.263549 0.0146532 0.383526 0.0146532C7.68838 0.0109039 14.992 0.00996657 22.2943 0.0118412C22.3384 0.0118412 22.3825 0.0193398 22.4274 0.0230891C22.4231 0.0481654 22.4224 0.0737507 22.4256 0.0990121Z" fill="#DADADA"/>
<path d="M37.8424 55.346C37.8424 54.0225 37.8518 52.698 37.8358 51.3745C37.8358 51.0643 37.9211 50.9696 38.2351 50.9724C39.7677 50.9874 41.2992 50.979 42.828 50.9799C42.9995 50.9799 43.2029 50.9302 43.1889 51.2255C43.1739 51.4964 42.9742 51.4233 42.828 51.4242C41.4595 51.4242 40.091 51.4383 38.7225 51.4186C38.3814 51.4186 38.2961 51.5179 38.3036 51.846C38.3251 52.7683 38.3223 53.6906 38.3036 54.613C38.2979 54.9101 38.3973 54.9879 38.686 54.9879C39.9051 54.9735 41.1236 54.9735 42.3415 54.9879C42.5187 54.9879 42.8439 54.8117 42.8589 55.1969C42.8739 55.5822 42.5393 55.4238 42.3631 55.4266C41.144 55.4422 39.9254 55.4422 38.7075 55.4266C38.401 55.4266 38.2961 55.5044 38.3017 55.823C38.3211 56.8341 38.3211 57.8455 38.3017 58.8572C38.2951 59.1871 38.3814 59.2883 38.7216 59.2836C40.1341 59.2649 41.5476 59.2724 42.9611 59.2836C43.1242 59.2836 43.3857 59.173 43.3754 59.5123C43.3651 59.8517 43.1036 59.7232 42.9433 59.7242C41.3808 59.7336 39.8192 59.7242 38.2567 59.7364C37.9277 59.7364 37.8227 59.6558 37.8283 59.3155C37.8546 57.9939 37.8424 56.6704 37.8424 55.346Z" fill="white"/>
<path d="M28.1947 59.9931C27.1749 59.965 26.3332 59.7213 25.6293 59.1092C25.514 59.0089 25.2403 58.9218 25.4859 58.664C25.6912 58.4465 25.7933 58.5946 25.9489 58.7231C26.875 59.4917 27.9173 59.7279 29.0702 59.3436C29.9522 59.0492 30.3928 58.3819 30.374 57.4877C30.3628 56.9253 30.0722 56.541 29.6392 56.2345C29.2061 55.928 28.6822 55.7658 28.176 55.5971C27.6698 55.4284 27.1243 55.2765 26.6444 54.9972C26.331 54.8233 26.0652 54.575 25.8703 54.2742C25.6755 53.9734 25.5575 53.6293 25.5269 53.2722C25.4962 52.9151 25.5538 52.5559 25.6946 52.2263C25.8354 51.8967 26.055 51.6067 26.3342 51.382C27.4149 50.4793 29.4358 50.5243 30.4584 51.4879C30.5671 51.591 30.8502 51.6697 30.6243 51.9369C30.3984 52.204 30.2887 52.0109 30.1369 51.8675C29.2417 51.0192 27.5977 50.9639 26.6454 51.7447C25.7324 52.4946 25.8449 53.8874 26.8816 54.5501C27.5021 54.9466 28.236 55.0684 28.9043 55.3515C29.0683 55.4209 29.2417 55.4696 29.403 55.539C30.479 56.0245 30.9908 56.8006 30.8867 57.782C30.7743 58.8505 30.0057 59.6707 28.8884 59.89C28.6278 59.9444 28.3663 60.0259 28.1947 59.9931Z" fill="white"/>
<path d="M11.1634 11.1817L11.2571 11.1732L11.2627 11.267C11.4558 11.3766 11.5439 11.5697 11.6377 11.7563C14.9495 18.3881 18.2645 25.0187 21.5827 31.6481C21.67 31.7865 21.7295 31.9406 21.7579 32.1018C21.7578 32.1244 21.7528 32.1468 21.7435 32.1675C21.7341 32.1882 21.7205 32.2066 21.7036 32.2217H21.6098C21.1412 31.7596 20.5788 31.4353 20.0529 31.0585C16.5042 28.5234 12.9521 25.9926 9.39654 23.4662C8.81821 23.0547 8.2277 22.6611 7.64375 22.258C7.57158 22.2083 7.45629 22.2196 7.52096 22.0443C8.72167 18.7477 9.71242 15.3809 10.8569 12.0656C10.9594 11.77 11.0615 11.4754 11.1634 11.1817Z" fill="#F8F5F5"/>
<path d="M21.707 32.2184C21.707 32.1922 21.7136 32.1669 21.7173 32.1416C22.4981 31.3449 23.3951 30.6841 24.2481 29.9726C26.4589 28.1317 28.6723 26.2927 30.8881 24.4556C32.1422 23.4114 33.4114 22.3841 34.6552 21.3277C34.7583 21.2405 34.8614 21.1552 35.0086 21.1646C35.0367 21.1646 35.0639 21.1646 35.092 21.159C35.092 28.5057 35.0935 35.8528 35.0967 43.2001C35.0967 43.3285 35.137 43.4729 35.0029 43.5703C33.2533 42.0706 31.5008 40.5694 29.7455 39.0665C28.0124 37.5893 26.269 36.1224 24.534 34.647C23.5882 33.8419 22.649 33.0283 21.707 32.2184Z" fill="#F1F1F1"/>
<path d="M35.0101 21.1658C33.2751 22.6177 31.542 24.0715 29.8042 25.5178C27.8115 27.1684 25.8065 28.804 23.8119 30.4509C23.1848 30.9693 22.5718 31.5045 21.9541 32.034C21.8914 32.0981 21.8073 32.1368 21.7179 32.1428L12.5256 13.7778C12.1063 12.9418 11.6883 12.105 11.2715 11.2677C12.5712 11.7976 13.8716 12.3287 15.1726 12.8611C18.0202 14.0309 20.8665 15.2029 23.7116 16.377C27.0628 17.7624 30.4113 19.1537 33.7569 20.5509C34.1862 20.7243 34.6689 20.8078 35.0101 21.1658Z" fill="white"/>
<path d="M0.530068 55.3461C0.530068 54.1716 0.538504 52.9972 0.523507 51.8227C0.523507 51.5171 0.603179 51.4028 0.921869 51.4187C1.7214 51.4609 2.52562 51.3653 3.32329 51.5125C4.52868 51.7337 5.13606 52.6532 4.74895 53.7011C4.56711 54.1951 4.18656 54.495 3.70946 54.6712C3.41702 54.779 3.11707 54.8643 2.82182 54.9637C2.72809 54.9937 2.59499 54.9852 2.61561 55.1408C2.63154 55.258 2.73558 55.2458 2.81994 55.2683C3.17894 55.362 3.54356 55.438 3.89318 55.5589C4.81738 55.8794 5.34415 56.6443 5.26635 57.5151C5.18574 58.4224 4.59054 59.0148 3.57917 59.1919C2.64841 59.3578 1.71016 59.2453 0.776584 59.2791C0.488826 59.2903 0.529131 59.0916 0.529131 58.9154C0.529131 57.7256 0.529443 56.5359 0.530068 55.3461ZM4.91954 54.3835C5.92529 53.1078 5.20918 51.384 3.53606 51.0728C2.505 50.8854 1.45802 51.026 0.421339 50.9697C0.0689063 50.9501 0.00704316 51.0822 0.00985512 51.4009C0.0229776 53.3196 0.0164164 55.2383 0.0164164 57.157C0.0164164 57.9012 0.0164164 58.6445 0.0164164 59.3888C0.0164164 59.5444 -0.028575 59.7365 0.236687 59.7281C1.42427 59.6878 2.61748 59.8387 3.79851 59.6278C4.85768 59.4403 5.6291 58.6905 5.73033 57.7906C5.87186 56.5393 5.37039 55.6648 4.23999 55.1924C4.16125 55.1596 4.05252 55.1718 4.0094 55.0452C4.34309 54.8718 4.67771 54.689 4.91954 54.3835Z" fill="white"/>
<path d="M11.4258 59.7084C12.0669 58.2706 12.6818 56.8899 13.3004 55.5102C13.9284 54.1004 14.5561 52.6904 15.1835 51.28C15.2575 51.1151 15.3119 50.9717 15.5509 50.9679C15.7899 50.9642 15.8818 51.1001 15.9624 51.2885C17.1166 53.9905 18.2726 56.6918 19.4305 59.3926C19.4699 59.4863 19.4961 59.5847 19.5383 59.7084H11.4258ZM18.4023 59.2876C18.8362 59.2923 18.7997 59.1573 18.6675 58.848C17.6796 56.545 16.6991 54.2363 15.7196 51.9324C15.6784 51.8387 15.67 51.7046 15.5106 51.6372L12.1653 59.2782C14.3034 59.281 16.3533 59.2698 18.4023 59.2904V59.2876Z" fill="white"/>
</g>
</svg>
