<svg width="137" height="30" viewBox="0 0 137 30" fill="none" xmlns="http://www.w3.org/2000/svg">
<g opacity="0.7">
<path fill-rule="evenodd" clip-rule="evenodd" d="M13.0602 0.0469244C8.14951 0.471986 3.77633 3.56181 1.54541 8.18262C0.808118 9.70983 0.375812 11.1331 0.114373 12.894C0.00476678 13.6323 -0.0378034 15.6352 0.0390675 16.4346C0.332116 19.4807 1.43199 22.2701 3.25884 24.6003C3.78886 25.2764 4.88399 26.3941 5.51314 26.9013C7.50053 28.5032 9.6924 29.4777 12.2255 29.8858C12.8205 29.9816 13.1404 30 14.2072 30C15.2741 30 15.594 29.9816 16.1889 29.8858C19.2744 29.3888 21.8966 28.0361 24.0596 25.8255C26.2008 23.6372 27.5343 21.0922 28.1458 18.027C28.5158 16.1722 28.5189 13.9457 28.154 12.0448C27.7087 9.72433 26.7316 7.51405 25.3313 5.65971C24.9579 5.16511 23.747 3.80764 23.6806 3.80904C23.6643 3.8094 23.5445 4.02683 23.4145 4.29228C22.6683 5.8151 21.3649 6.99261 19.6989 7.64905C18.2531 8.2187 16.7864 8.4142 13.8919 8.42303L12.0597 8.42865L11.6277 10.2041C11.3901 11.1806 11.2045 11.9889 11.2153 12.0003C11.2261 12.0117 11.3999 11.8961 11.6016 11.7435C13.2049 10.5299 15.2563 10.1844 17.0022 10.8341C17.9394 11.1828 18.657 11.6767 19.357 12.4546C20.3445 13.5518 20.8879 14.8225 21.0326 16.3731C21.1618 17.7568 20.8489 19.4308 20.2101 20.7738C18.5707 24.2205 14.9408 26.0433 11.4982 25.1487C9.49203 24.6274 7.9437 23.2728 7.04533 21.2529C6.77063 20.6353 6.57216 20.0801 6.61136 20.0388C6.62613 20.0232 7.31734 19.8262 8.1474 19.6011C8.97747 19.3759 9.68389 19.181 9.71721 19.1679C9.75323 19.1537 9.8299 19.2603 9.90643 19.431C10.2043 20.0953 10.8987 20.8826 11.516 21.2562C12.1816 21.6589 13.0438 21.8068 13.793 21.647C14.5931 21.4762 15.1832 21.1385 15.814 20.4907C16.2165 20.0773 16.4805 19.6824 16.7299 19.1207C17.0345 18.4347 17.1405 17.9309 17.1383 17.1787C17.1367 16.6116 17.1202 16.4835 17.0016 16.121C16.8205 15.5669 16.5758 15.1559 16.1868 14.7524C15.5489 14.0908 14.8346 13.7742 13.8858 13.7327C13.239 13.7044 12.7427 13.8064 12.1835 14.0824C11.5028 14.4185 10.7377 15.1581 10.2942 15.9087L10.0699 16.2884L8.63999 15.6442C7.85352 15.2898 7.202 14.9918 7.19207 14.982C7.15655 14.9465 9.01221 7.17871 9.17256 6.69155C9.99539 4.19239 11.4621 2.6516 13.784 1.84722C15.043 1.41106 16.8091 1.17896 18.9046 1.17426C19.395 1.17318 19.6593 1.15506 19.612 1.12584C19.457 1.03013 18.1997 0.597739 17.6508 0.45144C16.1793 0.0591589 14.5636 -0.0832166 13.0602 0.0469244ZM20.1524 2.78231C17.8898 2.82887 16.634 2.8965 15.8954 3.01157C13.4616 3.39068 11.9501 4.37931 11.0606 6.17372C10.9209 6.45568 10.8065 6.70667 10.8066 6.7315C10.8066 6.79872 14.9154 6.81622 15.822 6.75288C17.9981 6.60079 19.3105 6.22488 20.4577 5.42498C21.1473 4.94412 21.8508 4.04919 22.231 3.16897C22.3257 2.94967 22.4032 2.75991 22.4032 2.74731C22.4032 2.73466 22.3427 2.72821 22.2686 2.73296C22.1946 2.73766 21.2423 2.75991 20.1524 2.78231ZM76.6681 8.4858C75.8077 8.81577 75.4325 9.73554 75.7944 10.6277C76.2603 11.7763 77.9092 11.8241 78.4518 10.7048C78.841 9.90176 78.5598 8.96424 77.8141 8.57939C77.4715 8.40253 76.9882 8.36309 76.6681 8.4858ZM80.509 8.48595C79.6366 8.77886 79.2415 9.77508 79.6502 10.651C80.1234 11.665 81.4207 11.8364 82.1179 10.9771C82.734 10.2177 82.4838 8.99155 81.6231 8.55198C81.3356 8.40511 80.8376 8.37564 80.509 8.48595ZM34.3913 15.6825V22.6524L35.7003 22.6386L37.0092 22.6249L37.0216 17.0109L37.0341 11.397H39.7493H42.4645L42.477 17.0109L42.4895 22.6249H43.7861H45.0828L45.0952 15.6687L45.1076 8.71258H39.7495H34.3913V15.6825ZM61.926 12.2274C61.0116 12.3569 60.1252 12.9089 59.6591 13.6391L59.493 13.8993V13.1902V12.481H58.2698H57.0465V17.5659V22.6507H58.2942H59.542L59.5429 19.7986C59.5435 18.1769 59.565 16.7905 59.5929 16.5851C59.6573 16.1097 59.9126 15.5461 60.2015 15.2412C60.3261 15.1098 60.5748 14.9292 60.7554 14.8389C61.0646 14.6844 61.1154 14.675 61.646 14.675C62.1524 14.675 62.2364 14.6887 62.4851 14.8117C62.9316 15.0325 63.2664 15.4581 63.4739 16.0684C63.5085 16.1699 63.5358 17.3324 63.5528 19.4243L63.5788 22.6249H64.8265H66.0743L66.0987 19.5017C66.1254 16.0956 66.1164 16.2048 66.4171 15.6541C66.5799 15.356 66.986 14.9743 67.3114 14.8134C67.5661 14.6874 67.6437 14.675 68.1783 14.675C68.6783 14.675 68.7997 14.6917 68.9963 14.7875C69.312 14.9414 69.6933 15.3306 69.8415 15.6503C70.0968 16.2006 70.1093 16.388 70.1103 19.6514L70.1111 22.6662L70.559 22.6327C70.8053 22.6142 71.3677 22.5991 71.8087 22.5991H72.6104L72.5951 19.0758C72.5802 15.6192 72.5778 15.5448 72.4712 15.1396C72.4114 14.9125 72.2713 14.5292 72.1598 14.2878C71.9914 13.9232 71.8777 13.7658 71.4867 13.3566C71.1035 12.9553 70.9393 12.8241 70.6004 12.6483C69.3129 11.9805 67.5462 12.075 66.3515 12.8757C65.9702 13.1313 65.5893 13.48 65.4271 13.7218C65.3524 13.8331 65.2753 13.9248 65.2557 13.9254C65.236 13.926 65.1725 13.8277 65.1145 13.7071C64.9415 13.3469 64.3531 12.7759 63.9377 12.5651C63.338 12.2608 62.5841 12.1342 61.926 12.2274ZM101.011 12.2053C99.692 12.3173 98.6843 12.7701 97.812 13.6426C96.9552 14.4995 96.4533 15.5089 96.2869 16.7099C96.2068 17.2876 96.2531 18.3687 96.3811 18.9081C96.7239 20.3536 97.6731 21.6195 98.9071 22.2765C100.205 22.9674 101.929 23.0732 103.298 22.546C104.843 21.9512 105.998 20.6079 106.4 18.94C106.783 17.3444 106.473 15.5891 105.587 14.349C104.871 13.3465 103.929 12.6766 102.812 12.3751C102.467 12.2822 101.527 12.1605 101.305 12.18C101.251 12.1848 101.119 12.1961 101.011 12.2053ZM77.9132 12.2951C76.8099 12.5169 76.0209 12.9488 75.2862 13.7331C74.1794 14.9147 73.6933 16.6251 73.9513 18.4304C74.2536 20.5462 75.5417 22.111 77.4018 22.6219C79.296 23.1422 81.3431 22.7582 82.7833 21.6125C83.394 21.1268 83.3884 21.248 82.842 20.3448C82.5815 19.9142 82.3527 19.5455 82.3337 19.5254C82.3146 19.5053 82.1825 19.5701 82.0401 19.6695C81.6231 19.9604 81.0093 20.2654 80.5472 20.4112C79.9678 20.594 78.9193 20.6422 78.363 20.5117C77.5646 20.3243 77.0063 19.8649 76.6712 19.1195C76.5679 18.8896 76.4719 18.6493 76.4579 18.5854L76.4324 18.4693H80.0439H83.6554L83.6914 18.1466C83.7914 17.2505 83.6955 16.1494 83.4516 15.3931C82.9696 13.8977 81.834 12.8186 80.2946 12.3932C79.7119 12.2322 78.479 12.1814 77.9132 12.2951ZM89.7993 12.2966C89.0995 12.4651 88.5306 12.792 87.9641 13.3511L87.5795 13.7307V13.1059V12.481H86.3318H85.084V19.6308V26.7805H86.3318H87.5795V24.0899V21.3993L87.9183 21.7364C88.3437 22.1598 88.7947 22.4429 89.39 22.6603C89.8429 22.8257 89.8749 22.83 90.6377 22.8262C91.564 22.8218 91.9437 22.735 92.6547 22.3658C94.0739 21.6288 95.0338 20.1898 95.2885 18.4177C95.5527 16.5798 95.0107 14.7837 93.8293 13.5818C93.2189 12.9608 92.7202 12.6557 91.8923 12.3966C91.3631 12.231 90.2857 12.1795 89.7993 12.2966ZM130.62 12.3001C129.097 12.6335 127.911 13.6155 127.261 15.0791C126.501 16.7924 126.652 19.1145 127.621 20.6525C128.492 22.0322 129.741 22.7764 131.3 22.844C132.512 22.8966 133.365 22.5711 134.216 21.7306L134.599 21.3525L134.613 21.9887L134.627 22.6249L135.813 22.6387L137 22.6526V17.5668V12.481H135.801H134.602V13.1117V13.7423L134.345 13.479C133.824 12.9441 133.289 12.6028 132.621 12.3775C132.179 12.2288 131.131 12.1881 130.62 12.3001ZM50.0416 12.5606C48.5047 12.8133 47.4614 13.6109 47.079 14.8259C46.962 15.1975 46.9476 15.3214 46.9466 15.9656C46.9456 16.6218 46.9578 16.7255 47.0793 17.0924C47.1529 17.3146 47.2864 17.6172 47.3758 17.7647C47.5909 18.1193 48.0541 18.5553 48.4536 18.779C48.6311 18.8784 48.7765 18.9793 48.7767 19.0032C48.7769 19.0272 48.2597 19.8347 47.6272 20.7977C46.9948 21.7608 46.4773 22.5717 46.4773 22.5997C46.4773 22.6321 46.9672 22.6507 47.8162 22.6507H49.1551L50.1538 21.0117L51.1525 19.3727L51.7141 19.2845C52.023 19.2359 52.3803 19.1806 52.5081 19.1616L52.7405 19.1271V20.8898V22.6525L53.9516 22.6387L55.1626 22.6249L55.1751 17.553L55.1876 12.481L52.8264 12.486C51.108 12.4897 50.3499 12.51 50.0416 12.5606ZM107.506 14.7137C107.522 16.8253 107.529 16.9688 107.631 17.3594C108.001 18.776 108.846 19.5283 110.357 19.7872C111.369 19.9607 112.301 19.841 113.147 19.429C113.356 19.327 113.535 19.2436 113.544 19.2436C113.554 19.2436 113.562 20.0102 113.562 20.9472V22.6507H114.81H116.057V17.5659V12.481H114.81H113.562V14.7999V17.1188L113.33 17.1992C112.353 17.5368 111.292 17.5613 110.731 17.2591C110.46 17.1134 110.287 16.926 110.13 16.6109C110.015 16.3804 110.014 16.3634 110 14.4298L109.986 12.481H108.737H107.489L107.506 14.7137ZM117.929 17.553L117.941 22.6249H119.189H120.437L120.461 20.3129L120.486 18.001L122.388 20.3258L124.291 22.6507H125.805C126.758 22.6507 127.314 22.6322 127.303 22.6009C127.295 22.5734 126.285 21.3503 125.061 19.8828C123.836 18.4153 122.834 17.1976 122.834 17.1766C122.834 17.1557 123.639 16.2591 124.623 15.1841C125.607 14.1091 126.562 13.0611 126.745 12.8553L127.079 12.481L125.495 12.4841L123.911 12.4871L122.198 14.4553L120.486 16.4235L120.473 14.4523L120.46 12.481H119.188H117.916L117.929 17.553ZM79.3346 14.4448C80.2533 14.5834 80.9612 15.2506 81.2356 16.2366L81.311 16.5076H78.8711H76.4311L76.4817 16.314C76.634 15.7308 77.136 15.0434 77.6187 14.757C78.1444 14.4451 78.6847 14.3467 79.3346 14.4448ZM52.7405 15.8821V17.1667L52.606 17.2008C52.5319 17.2196 52.0751 17.2484 51.5906 17.2649C50.862 17.2897 50.6549 17.2799 50.3918 17.209C49.7496 17.0356 49.4622 16.6982 49.4242 16.0731C49.4043 15.7459 49.418 15.6541 49.5232 15.4117C49.6524 15.1138 49.8045 14.9701 50.1716 14.7988C50.4798 14.6549 50.8569 14.6118 51.872 14.6041L52.7405 14.5976V15.8821ZM90.8824 14.7619C91.775 14.9677 92.5818 15.8863 92.7694 16.9105C92.8609 17.4103 92.8054 18.208 92.6488 18.6436C92.3296 19.532 91.6298 20.1934 90.8188 20.3734C90.4512 20.455 89.8031 20.4447 89.4654 20.3519C88.5364 20.0966 87.81 19.2712 87.6042 18.237C87.4669 17.5469 87.5417 16.79 87.8013 16.2427C88.3946 14.9923 89.5249 14.449 90.8824 14.7619ZM102.216 14.8072C102.992 15.0444 103.651 15.7585 103.929 16.6625C104.072 17.1307 104.073 17.9472 103.929 18.4177C103.563 19.6198 102.546 20.4309 101.405 20.4309C100.401 20.4309 99.4874 19.8458 99.0594 18.9285C98.5124 17.7558 98.6782 16.447 99.4887 15.5406C100.194 14.752 101.173 14.4886 102.216 14.8072ZM132.668 14.7282C133.289 14.8989 133.83 15.3243 134.205 15.9364C135.025 17.2741 134.667 19.1368 133.423 20.0136C132.979 20.3259 132.581 20.4429 131.96 20.4429C131.339 20.4429 130.941 20.3259 130.498 20.0136C129.719 19.4649 129.302 18.603 129.302 17.5401C129.302 16.6581 129.548 16.0067 130.101 15.4235C130.428 15.0778 130.796 14.847 131.211 14.7267C131.54 14.6313 132.318 14.6321 132.668 14.7282Z" fill="white"/>
</g>
</svg>
