<svg width="133" height="30" viewBox="0 0 133 30" fill="none" xmlns="http://www.w3.org/2000/svg">
<g opacity="0.7">
<path d="M101.264 7C101.319 7.57611 101.878 7.96554 102.798 7.96554C103.641 7.96554 104.27 7.57611 104.295 7H103.412C103.379 7.29288 103.143 7.39265 102.798 7.39265C102.453 7.39265 102.209 7.26391 102.147 7H101.264ZM101.243 12.9091L104.055 9.53294V12.9059H105V8.15221H104.171L101.355 11.5348V8.15221H100.414V12.9059L101.243 12.9091ZM95.1666 12.9091L97.9829 9.53294V12.9059H98.9241V8.15221H98.0992L95.2829 11.5348V8.15221H94.3417V12.9059L95.1666 12.9091ZM89.1852 12.9091H90.13V10.4534L92.3104 12.9059H93.5096L91.162 10.3665L93.3715 8.15221H92.234L90.1191 10.4051V8.15221H89.1743L89.1852 12.9091ZM87.8915 11.8277C87.5249 12.0748 87.0767 12.2082 86.616 12.2075C86.3671 12.2164 86.1189 12.1791 85.8873 12.0979C85.6557 12.0167 85.4459 11.8935 85.2713 11.7361C85.0968 11.5788 84.9613 11.3908 84.8737 11.1843C84.7861 10.9778 84.7483 10.7573 84.7627 10.5371C84.7627 9.50719 85.5149 8.86672 86.5106 8.86672C86.9425 8.85666 87.3666 8.96946 87.7207 9.18856L88.1459 8.57061C87.6837 8.24171 87.1031 8.07144 86.5106 8.09106C84.7409 8.09106 83.7634 9.17569 83.7634 10.5403C83.7423 10.8673 83.7995 11.1945 83.9312 11.5005C84.0629 11.8065 84.2661 12.0844 84.5276 12.316C84.789 12.5475 85.1028 12.7275 85.4483 12.8442C85.7938 12.9608 86.1633 13.0115 86.5324 12.9928C87.1619 13.0148 87.777 12.8225 88.2513 12.4553L87.8915 11.8277ZM78.9412 7C78.9957 7.57611 79.5553 7.96554 80.4747 7.96554C81.3178 7.96554 81.9283 7.57611 81.9719 7H81.0888C81.0598 7.29288 80.8199 7.39265 80.4747 7.39265C80.1295 7.39265 79.886 7.26391 79.8242 7H78.9412ZM78.9194 12.9091L81.732 9.53294V12.9059H82.6769V8.15221H81.8483L79.0357 11.5348V8.15221H78.0908V12.9059L78.9194 12.9091ZM72.8471 12.9091L75.6598 9.53294V12.9059H76.6009V8.15221H75.7724L72.967 11.5348V8.15221H72.0258V12.9059L72.8471 12.9091ZM70.7213 11.8277C70.356 12.0747 69.909 12.2082 69.4494 12.2075C69.2006 12.2168 68.9523 12.1799 68.7205 12.0991C68.4887 12.0183 68.2786 11.8955 68.1037 11.7384C67.9288 11.5814 67.7929 11.3937 67.7049 11.1873C67.6168 10.981 67.5785 10.7606 67.5925 10.5403C67.5925 9.51041 68.3447 8.86993 69.3404 8.86993C69.7732 8.86054 70.1983 8.97325 70.5541 9.19178L70.9756 8.57383C70.5138 8.24441 69.933 8.07408 69.3404 8.09428C67.5707 8.09428 66.5968 9.17891 66.5968 10.5435C66.5751 10.8706 66.6319 11.1981 66.7634 11.5043C66.8949 11.8105 67.0981 12.0887 67.3597 12.3203C67.6213 12.552 67.9353 12.732 68.281 12.8485C68.6268 12.9649 68.9965 13.0152 69.3658 12.996C69.9942 13.0182 70.6082 12.8258 71.081 12.4585L70.7213 11.8277ZM65.6992 11.8277C65.3339 12.0747 64.8869 12.2082 64.4273 12.2075C64.1785 12.2168 63.9302 12.1799 63.6984 12.0991C63.4667 12.0183 63.2566 11.8955 63.0816 11.7384C62.9067 11.5814 62.7709 11.3937 62.6828 11.1873C62.5948 10.981 62.5565 10.7606 62.5704 10.5403C62.5704 9.51041 63.3226 8.86993 64.3183 8.86993C64.7501 8.85988 65.1743 8.97268 65.5284 9.19178L65.9536 8.57383C65.4914 8.24493 64.9108 8.07466 64.3183 8.09428C62.5486 8.09428 61.5747 9.17891 61.5747 10.5435C61.5531 10.8703 61.6098 11.1975 61.741 11.5035C61.8723 11.8095 62.0752 12.0874 62.3364 12.3191C62.5976 12.5507 62.9111 12.7308 63.2565 12.8474C63.6018 12.9641 63.9711 13.0147 64.3401 12.996C64.9733 13.0145 65.5901 12.8162 66.0626 12.4424L65.6992 11.8277ZM56.291 10.5403C56.2523 10.3114 56.2699 10.0778 56.3424 9.85547C56.415 9.63313 56.5409 9.42726 56.7114 9.25191C56.882 9.07656 57.0933 8.93587 57.3308 8.83942C57.5684 8.74298 57.8266 8.69305 58.088 8.69305C58.3493 8.69305 58.6075 8.74298 58.8451 8.83942C59.0826 8.93587 59.2939 9.07656 59.4645 9.25191C59.6351 9.42726 59.7609 9.63313 59.8335 9.85547C59.906 10.0778 59.9236 10.3114 59.8849 10.5403C59.8849 11.4801 59.2127 12.2107 58.068 12.2107C57.8268 12.2062 57.5891 12.1591 57.3687 12.0724C57.1483 11.9856 56.9496 11.8609 56.7842 11.7054C56.6188 11.5499 56.49 11.3668 56.4053 11.1668C56.3206 10.9667 56.2818 10.7538 56.291 10.5403V10.5403ZM55.2917 10.5403C55.2788 10.8654 55.342 11.1893 55.4772 11.4918C55.6125 11.7942 55.8169 12.0686 56.0776 12.2977C56.3384 12.5268 56.6498 12.7057 56.9923 12.8231C57.3348 12.9405 57.701 12.9939 58.068 12.9799C58.4366 12.9931 58.8043 12.9395 59.1487 12.8223C59.493 12.7051 59.8067 12.5267 60.0704 12.2983C60.3341 12.0698 60.5424 11.7961 60.6823 11.4937C60.8223 11.1914 60.891 10.867 60.8843 10.5403C60.9006 10.2104 60.8387 9.88106 60.7024 9.57363C60.5662 9.2662 60.3587 8.98749 60.0933 8.75548C59.8279 8.52347 59.5106 8.34332 59.1617 8.22666C58.8129 8.11 58.4403 8.05942 58.068 8.07819C57.7001 8.06836 57.3338 8.12535 56.9917 8.24565C56.6496 8.36595 56.3389 8.54701 56.0788 8.77767C55.8187 9.00833 55.6147 9.28372 55.4793 9.58686C55.3439 9.89001 55.2801 10.2145 55.2917 10.5403V10.5403ZM52.6171 8.93108C53.2603 8.93108 53.6055 9.17569 53.6055 9.67133C53.6055 10.167 53.1694 10.4405 52.6098 10.4405C52.3864 10.4398 52.1631 10.428 51.9412 10.4051V8.93108C52.1956 8.93108 52.4245 8.91499 52.6171 8.91499V8.93108ZM51.9412 12.9027V11.184C52.1701 11.2033 52.479 11.2033 52.6389 11.2033C53.9217 11.2033 54.6012 10.4695 54.6012 9.66168C54.6012 8.85384 54.1034 8.13612 52.5262 8.13612H51V12.9059L51.9412 12.9027Z" fill="white"/>
<path d="M55.5917 20.5437C55.5917 19.0672 54.4772 18.1042 52.9069 18.1042C52.2431 18.0835 51.5919 18.2685 51.0651 18.6274L51.427 19.2501C51.7887 19.0112 52.228 18.8828 52.6789 18.8842C53.6884 18.8842 54.4193 19.3239 54.6039 20.1168H52.223V20.8968H54.6256C54.5627 21.2828 54.3374 21.6334 53.9951 21.8781C53.6528 22.1228 53.2188 22.2436 52.7802 22.216C52.2831 22.2156 51.7999 22.0701 51.4053 21.802L51 22.5017C51.5236 22.8417 52.1607 23.0158 52.8092 22.996C54.5206 22.996 55.6025 22.0331 55.6025 20.5437H55.5917ZM61.0011 22.919L58.6528 20.3736L60.8527 18.1652H59.7238L57.6143 20.4121V18.1652H56.6772V22.9061H57.6143V20.4634L59.7853 22.9061L61.0011 22.919ZM62.4158 20.5501C62.4158 19.5197 63.1612 18.8842 64.1563 18.8842C64.5861 18.8753 65.008 18.9877 65.3612 19.2052L65.7881 18.5857C65.331 18.2546 64.7531 18.0834 64.1635 18.1042C62.3977 18.1042 61.428 19.1891 61.428 20.5501C61.4065 20.8763 61.463 21.2029 61.5939 21.5083C61.7248 21.8137 61.9272 22.0911 62.1877 22.3222C62.4481 22.5532 62.7608 22.7327 63.1051 22.8489C63.4494 22.965 63.8175 23.0152 64.1852 22.996C64.8117 23.0164 65.4235 22.8248 65.8967 22.46L65.5348 21.8373C65.1698 22.0837 64.7235 22.2167 64.2648 22.216C64.0169 22.2254 63.7695 22.1885 63.5386 22.1077C63.3077 22.0269 63.0986 21.904 62.9246 21.747C62.7507 21.59 62.6158 21.4023 62.5288 21.1961C62.4418 20.99 62.4045 20.7699 62.4195 20.5501H62.4158ZM70.1301 22.919H71.0709V18.178H66.8085V22.919H67.7493V18.958H70.1301V22.919ZM76.7263 20.5501C76.7263 21.4842 76.057 22.216 74.9172 22.216C74.6758 22.2132 74.4376 22.1675 74.2164 22.0818C73.9953 21.996 73.7957 21.8718 73.6295 21.7166C73.4633 21.5613 73.3337 21.3782 73.2485 21.1778C73.1633 20.9775 73.1241 20.7641 73.1333 20.5501C73.0949 20.3218 73.1123 20.0888 73.1846 19.8671C73.2568 19.6453 73.3821 19.44 73.552 19.2651C73.7218 19.0903 73.9322 18.9499 74.1687 18.8538C74.4053 18.7576 74.6624 18.7078 74.9226 18.7078C75.1828 18.7078 75.44 18.7576 75.6765 18.8538C75.913 18.9499 76.1234 19.0903 76.2932 19.2651C76.4631 19.44 76.5884 19.6453 76.6606 19.8671C76.7329 20.0888 76.7504 20.3218 76.7119 20.5501H76.7263ZM77.7069 20.5501C77.7209 20.2231 77.6581 19.8971 77.5224 19.5928C77.3867 19.2885 77.1812 19.0126 76.9188 18.7825C76.6565 18.5525 76.343 18.3734 75.9984 18.2566C75.6538 18.1398 75.2856 18.0879 74.9172 18.1042C74.5507 18.0931 74.1856 18.1487 73.8443 18.2675C73.5029 18.3862 73.1926 18.5657 72.9323 18.7947C72.672 19.0238 72.4673 19.2977 72.3307 19.5996C72.1942 19.9015 72.1287 20.225 72.1383 20.5501C72.1233 20.8765 72.1851 21.2021 72.3197 21.5062C72.4543 21.8102 72.6589 22.0861 72.9203 22.3162C73.1817 22.5463 73.4943 22.7256 73.8381 22.8426C74.1819 22.9596 74.5494 23.0119 74.9172 22.996C75.2843 23.0075 75.6501 22.9523 75.9922 22.8338C76.3344 22.7153 76.6457 22.536 76.9069 22.307C77.1681 22.0779 77.3739 21.804 77.5114 21.5018C77.649 21.1997 77.7155 20.8759 77.7069 20.5501V20.5501ZM81.3868 19.6834C81.3868 20.2099 80.9489 20.4474 80.3917 20.4474C80.1782 20.4474 79.9503 20.4474 79.7296 20.4153V18.958C79.9828 18.958 80.2108 18.958 80.399 18.958C81.043 18.958 81.3868 19.202 81.3868 19.6963V19.6834ZM82.3782 19.6963C82.3782 18.9163 81.8825 18.1716 80.3085 18.1716H78.7888V22.9126H79.7296V21.2081C79.9575 21.2274 80.2615 21.2274 80.4243 21.2274C81.6979 21.2274 82.3782 20.4955 82.3782 19.6899V19.6963ZM85.4719 18.958H87.205V18.178H82.8124V18.958H84.5456V22.919H85.4863L85.4719 18.958ZM91.4023 22.919H92.3358V18.178H91.4023V20.1039H88.9599V18.178H88.0192V22.919H88.9599V20.8968H91.4023V22.919ZM96.3124 21.3141C96.3124 21.8694 95.9506 22.1486 95.2595 22.1486C95.0749 22.1486 94.9229 22.1486 94.7565 22.1294V20.5758C94.97 20.5565 95.1183 20.5437 95.2739 20.5437C95.9325 20.5437 96.3124 20.8069 96.3124 21.3141ZM97.3074 21.2948C97.3074 20.3671 96.6706 19.7637 95.3499 19.7637C95.1514 19.7634 94.9532 19.7752 94.7565 19.799V18.178H93.8157V22.919C94.1305 22.919 94.6407 22.919 95.1437 22.919C96.5114 22.919 97.3147 22.277 97.3147 21.2852L97.3074 21.2948ZM98.0094 22.8901H98.9393V18.178H98.0094V22.8901ZM104.284 17H103.419C103.39 17.2889 103.155 17.3916 102.811 17.3916C102.467 17.3916 102.221 17.2632 102.16 17H101.284C101.335 17.5746 101.892 17.963 102.811 17.963C103.65 17.963 104.276 17.5778 104.298 17H104.284ZM104.063 22.8901H105V18.178H104.175L101.374 21.5516V18.178H100.434V22.919H101.248L104.052 19.5551L104.063 22.8901Z" fill="white"/>
<path d="M113.032 24H113.9V22.2582H113.183V18.0069H112.254V22.2582H109.929V18.0069H109V23.0947H113.036L113.032 24ZM114.826 23.0947H117.965V22.2582H115.755V20.9432H117.664V20.1067H115.755V18.8434H117.89V18.0069H114.826V23.0947ZM122.532 23.0947H123.454V18.0069H122.532V20.0723H120.11V18.0069H119.178V23.0947H120.11V20.9225H122.532V23.0947ZM126.916 18.8434H128.634V18.0069H124.265V18.8434H125.983V23.0947H126.916V18.8434ZM132.017 19.6213C132.017 20.1859 131.587 20.4406 131.034 20.4406C130.819 20.4406 130.593 20.4406 130.374 20.4062V18.8434C130.625 18.8434 130.851 18.8434 131.041 18.8434C131.676 18.8434 132.017 19.105 132.017 19.6351V19.6213ZM133 19.6351C133 18.7986 132.509 18 130.948 18H129.441V23.0878H130.374V21.2565C130.6 21.2771 130.905 21.2771 131.063 21.2771C132.326 21.2771 133 20.4923 133 19.6282" fill="white"/>
<path d="M24.9751 0.00422988L21.9989 1.11222L21.4697 0L24.9751 0.00422988Z" fill="white"/>
<path d="M21.4683 0L22.0017 1.11222L19.4531 2.05528L21.4683 0Z" fill="white"/>
<path d="M33.9996 0.262512L36.4424 3.67952L27.2725 2.85064L33.9996 0.262512Z" fill="white"/>
<path d="M49.0457 0.00469971L45.4048 1.43832L43.4531 0.00469971H49.0457Z" fill="white"/>
<path d="M19.4507 5.7821L16.5465 9.25409L12.9141 8.86503L19.4507 5.7821Z" fill="white"/>
<path d="M16.5465 9.24897L12.9141 13.5287V8.86414L16.5465 9.24897Z" fill="white"/>
<path d="M49.1002 0.00469971L47.6185 3.05802L45.4043 1.43832L49.0452 0.00469971H49.1002Z" fill="white"/>
<path d="M5.74205 16.3079L5.44146 19.7841L0.00976562 22.7233L5.74205 16.3079Z" fill="white"/>
<path d="M5.44439 19.7744L5.03797 23.7073L0 22.7262L5.44439 19.7744Z" fill="white"/>
<path d="M38.367 6.83203L43.5066 13.0698L34.9463 12.1648L38.367 6.83203Z" fill="white"/>
<path d="M43.5168 13.0715L31.0361 18.2689L34.9564 12.1665L43.5168 13.0715Z" fill="white"/>
<path d="M24.9336 20.5122L12.8721 25.5616V17.7845L24.9336 20.5122Z" fill="white"/>
<path d="M39.6911 22.7932L36.1645 29.9993L34.2891 25.0261L39.6911 22.7932Z" fill="white"/>
<path d="M34.297 25.0267L36.1725 30L27.0703 28.1519L34.297 25.0267Z" fill="white"/>
<path d="M21.2578 9.91425L28.3491 7.1485L30.2965 10.8362L21.2578 9.91425Z" fill="white"/>
<path d="M21.2578 9.92114L30.2965 10.8431L22.3797 14.0317L21.2578 9.92114Z" fill="white"/>
</g>
</svg>
