<svg width="120" height="30" viewBox="0 0 120 30" fill="none" xmlns="http://www.w3.org/2000/svg">
<g opacity="0.7">
<path d="M72.9366 8.53099C71.0103 8.53099 69.4972 8.94423 67.9833 9.76912C67.9833 5.36574 67.9833 1.37561 68.1216 0L58.9008 1.65057V2.47625L59.864 2.61373C61.1013 2.8887 61.5161 3.5761 61.7887 5.22826C62.066 8.53099 61.927 26.1453 61.7887 29.0356C64.2657 29.5863 66.8811 29.9995 69.4964 29.9995C76.7901 29.9995 81.1934 25.4579 81.1934 18.3017C81.1934 12.6602 77.6157 8.53099 72.9366 8.53099V8.53099ZM69.7714 28.4849C69.2206 28.4849 68.5316 28.4849 68.12 28.3482C67.9817 26.4218 67.845 18.3017 67.9817 11.1463C68.8074 10.8706 69.3573 10.7331 70.0463 10.7331C73.0757 10.7331 74.727 14.3108 74.727 18.7134C74.7262 24.2198 72.6616 28.4849 69.7714 28.4849V28.4849ZM24.2205 0.549926H0V1.78805L1.3764 1.92553C3.16445 2.2005 3.85345 3.30114 4.12762 5.91567C4.54165 10.8698 4.40337 19.8156 4.12762 24.0799C3.85266 26.6952 3.16525 27.9341 1.3764 28.07L0 28.3466V29.4472H15.5505V28.3466L13.8991 28.07C12.1103 27.9333 11.4221 26.6952 11.1471 24.0799C11.0088 22.2902 10.8714 19.4 10.8714 15.8231L14.1741 15.9605C16.2387 15.9605 17.2011 17.6119 17.6143 19.9507H18.8532V10.1832H17.6143C17.2003 12.5227 16.2387 14.1733 14.1741 14.1733L10.8721 14.3116C10.8721 9.63243 11.0096 5.22906 11.1479 2.61453H15.9637C19.6805 2.61453 21.6068 4.9533 22.9824 9.08251L24.3588 8.66927L24.2205 0.549926V0.549926Z" fill="white"/>
<path d="M32.0669 8.25572C38.9481 8.25572 42.3883 12.9349 42.3883 19.1271C42.3883 25.0443 38.5349 30 31.6536 30C24.7732 30 21.333 25.3201 21.333 19.1271C21.333 13.2098 25.1857 8.25572 32.0669 8.25572V8.25572ZM31.6536 9.63213C28.6259 9.63213 27.8002 13.7605 27.8002 19.1271C27.8002 24.3561 29.1766 28.622 31.9294 28.622C35.0923 28.622 35.9195 24.4936 35.9195 19.1271C35.9195 13.898 34.5447 9.63213 31.6536 9.63213ZM82.9834 19.2654C82.9834 13.6231 86.5611 8.25572 93.5798 8.25572C99.358 8.25572 102.112 12.5224 102.112 18.1639H89.3131C89.1749 23.2555 91.6519 26.9715 96.6068 26.9715C98.8089 26.9715 99.9095 26.4223 101.287 25.4584L101.836 26.1458C100.459 28.0721 97.4325 30 93.5798 30C87.3868 29.9992 82.9834 25.5958 82.9834 19.2654V19.2654ZM89.3131 16.6508L95.7811 16.5125C95.7811 13.7605 95.3679 9.63213 93.0291 9.63213C90.6903 9.63213 89.4498 13.4848 89.3131 16.6508V16.6508ZM118.49 9.35716C116.839 8.66817 114.637 8.25572 112.16 8.25572C107.07 8.25572 103.903 11.2827 103.903 14.8612C103.903 18.4397 106.24 19.9528 109.547 21.0542C112.986 22.2915 113.95 23.2555 113.95 24.9069C113.95 26.5582 112.711 28.0713 110.509 28.0713C107.895 28.0713 105.967 26.5582 104.454 22.429L103.49 22.7056L103.629 28.7603C105.28 29.4477 108.307 29.9992 110.922 29.9992C116.29 29.9992 119.731 27.2456 119.731 22.9805C119.731 20.0902 118.216 18.4397 114.638 17.0625C110.784 15.5494 109.409 14.5862 109.409 12.7966C109.409 11.0077 110.65 9.76881 112.301 9.76881C114.777 9.76881 116.428 11.2827 117.668 14.9987L118.631 14.7237L118.49 9.35716V9.35716ZM60.2776 8.80644C57.9388 7.43163 53.8096 8.11824 51.6083 13.0731L51.745 8.25652L42.5258 10.0454V10.871L43.489 11.0085C44.7287 11.1468 45.2778 11.8342 45.4161 13.6239C45.691 16.9266 45.5536 22.7072 45.4161 25.5966C45.2778 27.2464 44.7287 28.0721 43.489 28.2104L42.5258 28.3487V29.4493H55.3235V28.3487L53.6721 28.2104C52.2965 28.0721 51.8833 27.2464 51.745 25.5966C51.47 22.9813 51.47 17.7523 51.6083 14.4495C52.2957 13.4856 55.3235 12.6607 58.0755 14.4495L60.2776 8.80644V8.80644Z" fill="white"/>
</g>
</svg>
