<svg width="141" height="28" viewBox="0 0 141 28" fill="none" xmlns="http://www.w3.org/2000/svg">
<path opacity="0.7" d="M63.5207 14.0833C63.5207 19.65 60.2591 22.2906 56.1765 22.2906H53.6904V18.9363H55.994C58.4573 18.9363 60.0995 17.5565 60.0995 14.0595C60.0995 10.61 58.5485 8.8972 55.9256 8.8972C53.3939 8.8972 51.592 10.5149 51.592 13.9881V27.9762H48.1708V5.9949H51.5692V7.89805H52.0482C53.1886 6.30416 54.8536 5.59048 56.6098 5.59048C60.3732 5.59048 63.5207 8.4452 63.5207 14.0833ZM41.1687 12.6321L38.9107 12.3942C37.1317 12.2277 36.1965 11.7281 36.1965 10.6338C36.1965 9.34919 37.4054 8.61173 39.116 8.61173C40.895 8.61173 42.0354 9.49193 42.1267 10.729H45.3882C45.2514 7.54121 42.9021 5.59048 39.1388 5.59048C35.3526 5.59048 32.7981 7.68394 32.7981 10.7528C32.7981 13.322 34.3491 14.9873 37.8843 15.3441L40.188 15.582C41.5793 15.7247 42.5144 16.0102 42.5144 17.4138C42.5144 18.6746 41.6477 19.5786 39.3441 19.5786C37.2229 19.5786 36.1737 18.5794 35.8088 17.2235H32.2735C32.6157 20.2923 35.1017 22.6712 39.3441 22.6712C43.3355 22.6712 45.9128 20.4826 45.9128 17.2235C45.89 14.3925 44.0882 12.9176 41.1687 12.6321ZM76.681 17.2472C76.1564 18.5319 74.8792 19.4834 73.0545 19.4834C70.5684 19.4834 68.721 17.7944 68.721 14.1546C68.721 10.6814 70.4316 8.75446 73.1001 8.75446C75.4722 8.75446 76.8179 10.2294 76.9547 12.4656H70.8421V15.0348H80.3075V13.3458C80.3075 8.6593 77.3196 5.61427 73.0773 5.61427C69.1315 5.61427 65.3454 8.42141 65.3454 14.1546C65.3454 19.8879 69.1315 22.695 73.0773 22.695C76.681 22.695 79.2811 20.3636 80.0794 17.2472H76.681ZM23.059 5.59048C19.3413 5.59048 16.5587 7.61257 16.2166 10.729H19.8659C20.1168 9.58709 21.1203 8.73067 23.0362 8.73067C25.4995 8.73067 26.2978 10.0867 26.2978 11.7281V17.2948C24.9065 18.9601 23.2871 19.7213 21.6677 19.7213C19.9799 19.7213 18.8167 18.8649 18.8167 17.3662C18.8167 15.915 19.7291 15.011 21.4625 15.011H24.1766V12.4656H21.3484C17.471 12.4656 15.2815 14.4877 15.2815 17.6041C15.2815 20.5064 17.3798 22.695 20.8466 22.695C22.7853 22.695 24.496 21.8862 25.7732 20.9108H26.2522V22.2906H29.6506V11.4189C29.7418 7.39847 27.1189 5.59048 23.059 5.59048ZM0 22.2906H3.39841V0H0V22.2906ZM14.2779 5.9949H10.1268L5.17745 12.7986V14.9159L10.2637 22.2906H14.4832L8.50744 13.8454L14.2779 5.9949ZM137.237 5.9949L134.454 12.4418C133.77 13.9881 133.131 15.5106 132.926 16.5336H132.447C132.242 15.5106 131.58 14.0357 130.896 12.4894L128.113 5.9949H124.35L130.896 20.6253L127.657 28H131.284L141 5.9949H137.237ZM123.597 5.9949H119.446L114.497 12.7749V14.8921L119.583 22.2668H123.803L117.85 13.8216L123.597 5.9949ZM102.295 12.6321L100.037 12.3942C98.2575 12.2277 97.3224 11.7281 97.3224 10.6338C97.3224 9.34919 98.5312 8.61173 100.242 8.61173C102.021 8.61173 103.161 9.49193 103.253 10.729H106.514C106.377 7.54121 104.028 5.59048 100.265 5.59048C96.4785 5.59048 93.924 7.68394 93.924 10.7528C93.924 13.322 95.4749 14.9873 99.0102 15.3441L101.314 15.582C102.705 15.7247 103.64 16.0102 103.64 17.4138C103.64 18.6746 102.774 19.5786 100.47 19.5786C98.3488 19.5786 97.2996 18.5794 96.9346 17.2235H93.3994C93.7415 20.2923 96.2276 22.6712 100.47 22.6712C104.461 22.6712 107.039 20.4826 107.039 17.2235C107.039 14.3925 105.214 12.9176 102.295 12.6321ZM109.319 22.2906H112.718V0H109.319V22.2906ZM86.8763 7.89805H86.3973V5.9949H82.9989V22.2906H86.3973V13.774C86.3973 10.8717 87.6745 9.18267 90.2291 9.18267H92.373V5.59048H91.1186C88.7693 5.59048 87.7658 6.51827 86.8763 7.89805Z" fill="white"/>
</svg>
