<svg width="131" height="30" viewBox="0 0 131 30" fill="none" xmlns="http://www.w3.org/2000/svg">
<g opacity="0.7">
<path d="M0.512205 0.524899H23.7716V23.6743C23.7716 26.1306 22.2021 27.5976 19.5755 27.5976H16.7451C14.8802 27.5976 13.3699 28.1494 12.1485 29.2867C10.9139 28.1562 9.41016 27.5976 7.55176 27.5976H4.72805C2.08822 27.5976 0.512205 26.1306 0.512205 23.6743V0.524899ZM0 23.6743C0 26.42 1.81242 28.1225 4.72805 28.1225H7.55834C9.33793 28.1225 10.7629 28.6609 11.9186 29.7712L12.155 30L12.3914 29.7712C13.5406 28.6609 14.9656 28.1225 16.7517 28.1225H19.582C22.4845 28.1225 24.2903 26.42 24.2903 23.6743V0H0V23.6743Z" fill="white"/>
<path d="M4.79327 16.3256C4.95744 16.0968 5.01654 15.8277 5.0231 15.5585C5.03624 15.074 5.16757 14.623 5.37771 14.1924C5.47621 13.9837 5.59441 13.7819 5.71261 13.5598C5.66664 13.5868 5.63381 13.6002 5.60098 13.6204C5.46308 13.7415 5.32517 13.8761 5.1807 13.9972C5.14787 14.0242 5.1019 14.0444 5.04937 14.078C5.04937 14.0308 5.03624 14.0039 5.04281 13.9837C5.30548 13.4724 5.64695 13.0349 6.15915 12.759C6.29705 12.685 6.44152 12.6514 6.59255 12.658C7.07193 12.6917 7.45937 12.9272 7.79426 13.2704C7.84023 13.3175 7.87309 13.3646 7.83364 13.4319C7.79427 13.506 7.7483 13.5463 7.6629 13.5329C7.46595 13.5127 7.26894 13.4925 7.07193 13.479C6.54659 13.4387 6.19199 13.7146 5.92931 14.1453C5.72575 14.475 5.60755 14.8317 5.54844 15.2153C5.47621 15.6796 5.25951 16.0565 4.91147 16.366C4.87207 16.3997 4.8261 16.4198 4.7867 16.4468C4.77357 16.4333 4.76701 16.4198 4.75387 16.4064C4.76701 16.3795 4.77357 16.3458 4.79327 16.3256ZM8.60194 13.7886C8.88437 13.654 9.19299 13.6137 9.49503 13.5598C9.6264 13.5396 9.65267 13.5732 9.65919 13.7078C9.67236 13.9434 9.69205 14.1722 9.71173 14.4077C9.76428 15.0133 9.54758 15.5316 9.23237 16.0228C9.03535 16.3324 8.81213 16.6083 8.49692 16.7967C8.37214 16.8707 8.26705 16.9784 8.15544 17.0726C8.10948 17.113 8.07662 17.1601 8.01097 17.2341C8.26053 17.3687 8.49692 17.3418 8.72014 17.3822C8.75959 17.4629 8.72673 17.51 8.66108 17.5369C8.52971 17.5908 8.405 17.6379 8.27363 17.6917C8.04383 17.7725 7.81395 17.8398 7.59066 17.934C7.15073 18.1224 6.82896 18.4387 6.59255 18.8626C6.53346 18.9636 6.48092 19.0646 6.42182 19.1655C6.38899 19.2193 6.34958 19.2799 6.28392 19.2395C6.25108 19.2193 6.22482 19.1453 6.22482 19.0982C6.25108 18.6877 6.43496 18.3781 6.76329 18.1426C7.12446 17.8869 7.35427 17.5504 7.39372 17.0928C7.45937 16.3256 7.55787 15.5719 7.74172 14.825C7.85991 14.3404 8.16202 14.0039 8.60194 13.7886ZM8.77269 11.292C8.36555 11.2583 7.98469 11.1305 7.61042 10.9824C7.1967 10.8142 6.78299 10.8344 6.39555 11.0699C6.38242 11.0766 6.36272 11.0834 6.34302 11.0901C6.26422 11.0093 6.29705 10.9353 6.35616 10.8613C6.48749 10.6998 6.65822 10.5988 6.85522 10.545C7.34117 10.397 7.82054 10.2422 8.30649 10.0941C8.405 10.0605 8.49692 10.0268 8.59543 9.98647C8.62822 9.97296 8.66108 9.93936 8.72014 9.899C8.06352 9.7846 7.47247 9.86531 6.88149 10.1009C6.71732 9.8182 6.74359 9.68362 6.98656 9.49518C7.20326 9.33367 7.44619 9.27988 7.70234 9.27988C8.05693 9.27988 8.41151 9.32024 8.753 9.42121C9.06162 9.51536 9.37684 9.61633 9.68546 9.71055C9.69863 9.71055 9.69863 9.73073 9.71832 9.74416C9.63299 9.84513 9.50162 9.85189 9.39652 9.91918C9.2915 9.97971 9.17982 10.0336 9.0748 10.0874C8.96312 10.148 8.84492 10.2018 8.73331 10.2624C8.62822 10.3162 8.51661 10.37 8.405 10.4171C8.28681 10.4642 8.16854 10.4979 8.05693 10.5652C8.15544 10.6123 8.24077 10.5652 8.33928 10.5585C8.43779 10.545 8.54288 10.5315 8.64139 10.5181C8.7399 10.5046 8.84492 10.4912 8.94343 10.471C9.04194 10.4508 9.14045 10.4306 9.24554 10.4037C9.18641 10.5786 9.0879 10.6527 8.64798 10.8411C8.67418 10.8546 8.69394 10.8747 8.71363 10.8747C9.04194 10.8613 9.36374 10.8411 9.65267 10.6594C9.72491 10.6123 9.81024 10.5652 9.88906 10.5315C9.91534 10.5181 9.96788 10.5181 9.98757 10.5383C10.0073 10.5585 10.0073 10.6123 10.0007 10.6392C9.92844 10.8276 9.81024 10.9824 9.64609 11.0968C9.37025 11.2583 9.08131 11.3189 8.77269 11.292ZM8.01097 6.34581C8.14234 6.52751 8.26053 6.70247 8.38524 6.87071C9.20609 8.0349 10.0204 9.19241 10.8412 10.3566C11.4257 11.1843 12.0035 12.012 12.588 12.8331C13.2053 13.7012 13.8225 14.5692 14.4398 15.4373C14.8272 15.9892 15.2147 16.5342 15.6021 17.0861C15.6612 17.1735 15.7203 17.2543 15.8385 17.261C15.9173 17.261 15.9436 17.335 15.9502 17.4023C15.9699 17.5638 15.9895 17.7321 16.0158 17.934C15.7991 17.8263 15.6087 17.7321 15.4117 17.6311C15.4314 17.5773 15.4445 17.5369 15.4642 17.5033C15.5299 17.4091 15.5168 17.3283 15.4511 17.2341C15.0308 16.6352 14.6171 16.0363 14.1969 15.4441C13.6387 14.6433 13.0739 13.8357 12.5092 13.0349C12.0495 12.3821 11.5964 11.7294 11.1367 11.0766C10.1451 9.66344 9.15355 8.24352 8.16202 6.83033C8.0963 6.74285 8.03066 6.65536 7.96501 6.56115C7.91905 6.49385 7.91905 6.42656 8.01097 6.34581ZM9.98757 6.96492C10.1977 7.1197 10.3881 7.29467 10.5851 7.46963C10.769 7.63116 10.9331 7.81285 11.1696 7.89357C11.2878 7.93393 11.4126 7.94068 11.5701 7.96761C11.4257 8.05508 11.2878 8.09544 11.1564 8.08201C11.0185 8.07526 10.8807 8.02147 10.7362 7.98104C10.8544 8.19641 11.3009 8.3445 11.8197 8.32424C11.8197 8.37811 11.8328 8.4454 11.8131 8.49251C11.7606 8.62033 11.7014 8.75499 11.6227 8.86939C11.4913 9.06451 11.3075 9.11837 11.0842 9.06451C10.2371 8.86264 9.66577 8.31082 9.2915 7.53019C9.25205 7.45617 9.23237 7.36869 9.21927 7.28121C9.20609 7.16007 9.17331 7.0524 9.06162 6.98511C9.03535 6.97165 9.02225 6.93127 8.98939 6.88417C9.35715 6.74958 9.68546 6.74285 9.98757 6.96492ZM11.3075 4.13854C11.1105 4.24621 10.9266 4.3808 10.7033 4.42118C10.5392 4.44809 10.3947 4.40099 10.2568 4.3135C10.224 4.29332 10.2108 4.25294 10.178 4.19237C10.3028 4.20583 10.3947 4.20583 10.4932 4.21929C10.6771 4.24621 10.8412 4.21256 10.9989 4.11835C11.1761 4.01068 11.36 3.903 11.5439 3.7886C11.6752 3.70786 11.8197 3.70113 11.9642 3.74823C11.9904 3.75496 12.0167 3.7886 12.0429 3.81553C12.0167 3.83571 12.0101 3.8559 11.9904 3.8559C11.7277 3.86936 11.5176 4.0174 11.3075 4.13854ZM10.526 4.71055C10.5195 4.69709 10.5195 4.68363 10.5129 4.67016C10.7099 4.58269 10.9134 4.48847 11.1301 4.39426C10.9989 4.62306 10.7559 4.74419 10.526 4.71055ZM12.2071 4.66343C12.2662 4.78457 12.3056 4.91243 12.3515 5.04029C12.3844 5.12777 12.3976 5.22199 12.4238 5.33639C12.2662 5.32292 12.1414 5.32292 12.0232 5.30947C11.8919 5.29601 11.8328 5.21526 11.8525 5.08066C11.8722 4.92589 11.9247 4.78457 12.0166 4.65671C12.0955 4.54903 12.148 4.54231 12.2071 4.66343ZM11.8591 5.91512C12.0101 5.91512 12.0298 5.94204 11.997 6.09009C11.9773 6.17757 11.9576 6.25159 12.0889 6.27851C12.1021 6.17084 12.1152 6.0699 12.1283 5.96222C12.4763 5.90166 12.542 5.96222 12.4501 6.27851C12.3976 6.45348 12.3188 6.62171 12.2334 6.78322C12.1677 6.90435 12.1086 6.89762 11.997 6.81687C11.8131 6.68228 11.7409 6.4804 11.6687 6.27851C11.6227 6.14392 11.5964 6.00261 11.5505 5.87475C11.5176 5.7738 11.5439 5.70651 11.6095 5.63921C11.8197 5.41041 12.2465 5.4306 12.4435 5.67286C12.345 5.80072 12.1809 5.82764 12.0298 5.76035C11.9576 5.72669 11.8722 5.70651 11.7934 5.70651C11.7475 5.70651 11.6949 5.75361 11.649 5.78053C11.6949 5.88148 11.7672 5.91512 11.8591 5.91512ZM13.4679 6.70247C13.4745 6.69574 13.4876 6.7092 13.5205 6.7092C13.5073 6.74285 13.4942 6.7765 13.4745 6.79668C13.3366 6.93127 13.2381 7.08605 13.1593 7.26774C13.1264 7.33504 13.0871 7.40234 13.0345 7.44271C12.6733 7.6917 12.4698 8.05508 12.3581 8.46557C12.2596 8.80878 12.2203 9.16548 12.1348 9.50868C12.1021 9.65669 12.0298 9.79802 11.951 9.92593C11.8854 10.0336 11.7672 10.0739 11.603 10.0605C11.6752 10.2354 11.7868 10.3498 11.905 10.4441C12.0167 10.5383 12.1546 10.5988 12.2859 10.6796C12.2071 10.8546 12.1217 11.0295 12.0298 11.2314C11.7606 10.8613 11.511 10.5248 11.2681 10.1951C11.4257 9.95278 11.5767 9.73749 11.7146 9.51536C11.8985 9.21927 11.9904 8.88282 12.0101 8.53286C12.0166 8.35793 12.0626 8.20317 12.1348 8.05508C12.4173 7.43598 12.8769 6.99857 13.4679 6.70247ZM13.8488 8.02147C13.8947 8.08201 13.8554 8.13588 13.8225 8.18966C13.4745 8.75499 13.3497 9.36735 13.3957 10.0268C13.4154 10.296 13.4286 10.5719 13.4351 10.8411C13.4351 11.2381 13.2249 11.5006 12.8835 11.6554C12.785 11.7025 12.6799 11.7227 12.5748 11.7428C12.5026 11.7563 12.4566 11.7092 12.4763 11.6284C12.5355 11.3458 12.6011 11.0699 12.8375 10.8815C12.9294 10.8075 12.9557 10.72 12.9426 10.6056C12.9229 10.4642 12.9097 10.3229 12.89 10.1816C12.8638 9.97296 12.9097 9.77109 12.9689 9.58265C13.0279 9.39428 13.1133 9.21927 13.1856 9.03758C13.1921 9.0174 13.1987 8.99722 13.2118 8.97704C13.0345 9.03758 12.9163 9.19241 12.7127 9.22602C12.7193 9.17891 12.7193 9.15198 12.7325 9.12505C12.8835 8.81553 13.0674 8.52619 13.3104 8.27713C13.4154 8.16948 13.5467 8.08877 13.6715 8.0013C13.7306 7.96761 13.8028 7.95418 13.8488 8.02147ZM13.9276 8.48575C14.0524 7.79267 14.3413 7.20045 14.9783 6.84379C15.0439 6.80341 15.1227 6.78322 15.195 6.74958C15.3132 6.70247 15.4248 6.69574 15.543 6.74958C15.6087 6.7765 15.6875 6.78322 15.7532 6.81014C15.8122 6.83706 15.8713 6.84379 15.9239 6.80341C16.0158 6.74285 16.0881 6.76977 16.1734 6.83033C16.2982 6.92454 16.4361 7.0053 16.5608 7.09951C16.6331 7.15334 16.7053 7.21391 16.7644 7.28794C16.8498 7.38888 16.817 7.46963 16.6988 7.51001C16.6397 7.53019 16.5805 7.53019 16.5215 7.55037C16.4952 7.55712 16.4755 7.5773 16.4295 7.61098C16.4886 7.62441 16.5149 7.63116 16.5411 7.63116C16.574 7.63784 16.6003 7.63784 16.62 7.63784C16.6659 7.70513 16.6922 7.78592 16.7447 7.81953C16.7972 7.85321 16.8826 7.83303 16.9483 7.84646C16.9877 7.85321 17.0271 7.86664 17.06 7.89357C17.0862 7.91375 17.1124 7.94743 17.1256 7.98104C17.2767 8.33775 17.5458 8.59348 17.8217 8.84246C17.8414 8.85589 17.8545 8.87607 17.8742 8.89625C17.8807 8.903 17.8807 8.9165 17.8807 8.93668C17.8611 9.01065 17.8085 9.00397 17.756 9.00397C17.605 8.99047 17.4605 9.00397 17.316 9.06451C17.2635 9.08469 17.1978 9.07126 17.1453 9.05776C16.876 8.97029 16.6068 8.88282 16.3376 8.79535C16.2259 8.76167 16.1143 8.73481 16.0092 8.69438C15.6481 8.55304 15.5364 8.25028 15.7138 7.89357C15.74 7.83303 15.7728 7.77249 15.7991 7.71188C15.7991 7.71188 15.7925 7.70513 15.7794 7.67827C15.6087 7.8061 15.4905 7.96086 15.4708 8.18299C15.4445 8.46557 15.5299 8.72131 15.6546 8.96361C15.7728 9.19241 15.9239 9.40771 16.0158 9.64326C16.1603 9.99989 16.2654 10.3768 16.3836 10.7402C16.4164 10.8344 16.4361 10.9286 16.4623 11.0228C16.5805 11.4804 16.528 11.9313 16.4229 12.3755C16.3704 12.6043 16.2982 12.8263 16.2128 13.0416C16.1472 13.2234 16.1143 13.23 15.9239 13.1763C15.74 13.1224 15.5561 13.0753 15.3657 13.0282C15.2147 12.9946 15.0637 12.9743 14.906 13.0484C15.0111 13.1358 15.1359 13.1695 15.2672 13.1964C15.5168 13.2502 15.7728 13.3041 16.0092 13.4252C16.1012 13.4723 16.1603 13.5396 16.1866 13.6405C16.2194 13.7751 16.2522 13.9164 16.2982 14.051C16.331 14.1453 16.2982 14.1991 16.2128 14.2125C16.0552 14.2462 15.8976 14.2798 15.7335 14.2933C15.5561 14.3068 15.3723 14.2933 15.195 14.2933C15.1884 14.3068 15.1819 14.3203 15.1819 14.3337C15.2147 14.3606 15.2475 14.3942 15.2804 14.4077C15.589 14.5221 15.9042 14.6298 16.2128 14.7442C16.2522 14.7577 16.2851 14.7845 16.3113 14.8182C16.3901 14.9124 16.4886 14.9596 16.6134 14.9662C16.9746 14.973 17.3357 14.9797 17.6969 14.9057C17.9465 14.8586 18.2091 14.8384 18.4718 14.8721C18.6163 14.8923 18.7213 14.9596 18.7935 15.0806C18.8395 15.1547 18.8855 15.2287 18.9183 15.3028C18.9249 15.3229 18.9183 15.3701 18.9052 15.3835C18.892 15.397 18.8461 15.4037 18.8264 15.3902C18.7607 15.3565 18.7016 15.3229 18.6359 15.2826C18.5046 15.2018 18.3799 15.2018 18.2419 15.2758C17.9399 15.4172 17.6378 15.5517 17.3357 15.6863C17.0337 15.8142 16.725 15.8546 16.3967 15.8277C15.9895 15.794 15.5824 15.7469 15.1884 15.6123C14.8732 15.5046 14.5908 15.3431 14.3873 15.0672C14.0983 14.6836 13.8225 14.3001 13.5402 13.9164C13.3694 13.6876 13.3235 13.4319 13.3957 13.1493C13.5008 12.7187 13.5205 12.2677 13.5795 11.8303C13.6387 11.3795 13.7109 10.9286 13.77 10.4777C13.7962 10.2691 13.8028 10.0605 13.8225 9.85189C13.8357 9.38753 13.8488 8.92993 13.9276 8.48575ZM17.6575 14.0107C17.7166 13.8357 17.8217 13.7078 17.9989 13.6339C18.1894 13.5598 18.3667 13.4588 18.5506 13.3714C18.6753 13.3175 18.6753 13.3175 18.833 13.3714C18.7279 13.5127 18.6359 13.6405 18.5308 13.7549C18.393 13.903 18.2551 14.0444 18.0974 14.1722C18.0252 14.2327 17.907 14.253 17.8151 14.2597C17.6706 14.2664 17.6116 14.152 17.6575 14.0107ZM16.1143 18.1897C16.2325 18.2502 16.2719 18.3445 16.2851 18.4925C16.2259 18.4589 16.1931 18.4521 16.1603 18.4252C16.0684 18.3579 15.9764 18.3512 15.8779 18.4118C15.8188 18.4521 15.7991 18.4992 15.8385 18.5665C15.9042 18.6675 15.9567 18.7819 16.0355 18.8761C16.2128 19.1116 16.3901 19.3471 16.4492 19.6432C16.4689 19.7576 16.4821 19.8788 16.4886 19.9932C16.4952 20.1615 16.5608 20.2759 16.7119 20.3431C16.7316 20.3498 16.7513 20.3701 16.7907 20.4037C16.725 20.4912 16.6659 20.5854 16.6003 20.6662C16.5149 20.7671 16.4295 20.8747 16.331 20.9689C16.1472 21.1506 15.9305 21.1574 15.7072 21.0632C15.5036 20.9757 15.3197 20.7738 15.346 20.5181C15.3591 20.3566 15.3723 20.2018 15.392 20.0403C15.4248 19.6634 15.4642 19.2799 15.4971 18.903C15.5036 18.8424 15.4971 18.7819 15.4905 18.7214C15.4576 18.4454 15.3197 18.3041 15.0505 18.3175C14.847 18.3243 14.6499 18.3781 14.4463 18.4252C14.315 18.4521 14.1903 18.506 14.0655 18.5262C14.0064 18.5396 13.9276 18.5262 13.8751 18.4925C13.6715 18.3714 13.481 18.2368 13.2775 18.1157C13.0476 17.9743 12.8047 17.8398 12.5683 17.7052C12.5552 17.6984 12.5355 17.7052 12.5223 17.7052C12.5617 17.8667 12.6274 18.0214 12.634 18.1762C12.634 18.331 12.5748 18.4858 12.5421 18.654C12.5552 18.6675 12.5814 18.6944 12.6011 18.7214C12.6274 18.7617 12.6733 18.829 12.6602 18.8424C12.6208 18.8828 12.5683 18.9232 12.5158 18.9299C12.3844 18.9367 12.2465 18.9434 12.1217 18.9232C11.7934 18.8694 11.4716 18.7953 11.1498 18.728C10.9989 18.7011 10.8478 18.6742 10.6836 18.6607C10.9463 18.9568 11.2352 19.2193 11.406 19.5894C11.3863 19.6096 11.3731 19.6298 11.36 19.6298C11.0908 19.6298 10.8412 19.7375 10.5917 19.8115C10.4932 19.8384 10.4275 19.8249 10.375 19.7375C10.3028 19.6163 10.2305 19.4952 10.1517 19.3808C10.0204 19.1722 10.0992 18.9905 10.2371 18.829C10.3028 18.755 10.3684 18.6809 10.4473 18.6204C10.7099 18.4387 10.8807 18.1762 11.0711 17.934C11.117 17.8734 11.1498 17.8061 11.2024 17.759C11.2352 17.7254 11.2878 17.6917 11.3338 17.685C11.7999 17.611 12.2596 17.5369 12.7259 17.4696C13.4088 17.3687 14.0524 17.1197 14.6827 16.8573C14.7681 16.8236 14.8141 16.8371 14.8667 16.9111C14.9652 17.039 15.0702 17.1735 15.1819 17.2947C15.2606 17.3754 15.2541 17.4494 15.2081 17.5437C15.1227 17.7052 15.1227 17.7052 15.2804 17.7859C15.5561 17.907 15.832 18.0484 16.1143 18.1897ZM16.5346 17.8465C16.7119 18.1089 16.7513 18.4252 16.9286 18.6877C16.9942 18.6406 17.0534 18.6136 17.1059 18.5733C17.1716 18.5194 17.2306 18.5262 17.2832 18.58C17.3357 18.6271 17.3226 18.6742 17.2832 18.728C17.1716 18.8963 17.2438 19.0376 17.4539 19.0511C17.5458 19.0578 17.5984 19.0982 17.6312 19.1856C17.6969 19.3673 17.7691 19.549 17.8348 19.7442C17.7954 19.7644 17.756 19.7846 17.7035 19.8047C17.7101 19.8922 17.7232 19.973 17.7298 20.0605C17.664 20.121 17.6181 20.0739 17.5721 20.0335C17.4145 19.8788 17.2569 19.7307 17.1059 19.5693C17.0139 19.4683 16.9417 19.3539 16.8498 19.2395C16.8826 19.1991 16.8957 19.179 16.9155 19.152C17.0205 19.0039 16.9877 18.903 16.8235 18.8223C16.725 18.7751 16.6528 18.7214 16.6266 18.6002C16.5937 18.4589 16.528 18.3243 16.4886 18.183C16.4689 18.0686 16.4295 17.9609 16.5346 17.8465ZM16.9811 21.016C16.8038 21.3929 16.5018 21.6285 16.134 21.7832C16.0421 21.8236 15.9567 21.8505 15.8582 21.8841C15.786 22.1063 15.7138 22.3351 15.6415 22.5705C15.451 22.5168 15.2935 22.4293 15.1687 22.2947C15.0637 22.187 15.0637 22.0322 15.1819 21.9111C15.3132 21.7697 15.4576 21.6352 15.6218 21.5343C15.9699 21.3391 16.331 21.1709 16.6856 20.9892C16.7841 20.9421 16.8892 20.8882 16.9877 20.8344C17.0468 20.9151 17.0074 20.9623 16.9811 21.016ZM14.7944 19.1991C14.8404 19.0309 14.8732 18.8559 14.9126 18.6809C15.0571 18.6742 15.1622 18.7617 15.1687 18.9165C15.1687 18.9972 15.1556 19.0914 15.1293 19.1722C15.0571 19.3673 14.9783 19.5558 14.8929 19.751C14.8732 19.7913 14.8404 19.8183 14.7878 19.872C14.7419 19.6231 14.7353 19.4144 14.7944 19.1991ZM14.8929 21.366C14.7485 21.6756 14.5186 21.9044 14.2559 22.1063C14.2428 22.1197 14.2231 22.1129 14.1706 22.1264C14.2888 21.864 14.3873 21.6285 14.4923 21.3997C14.4858 21.3929 14.4792 21.3862 14.4726 21.3794C14.3741 21.44 14.2756 21.5006 14.1771 21.5544C14.0721 21.6082 13.9604 21.6487 13.8357 21.6756C13.9998 21.4265 14.0983 21.1641 14.1443 20.8815C13.9867 20.9488 13.8488 21.043 13.6977 21.0699C13.4613 21.1103 13.2249 21.1103 12.982 21.1304C12.9754 21.117 12.9689 21.1036 12.9623 21.0901C12.9951 21.0632 13.0214 21.0295 13.0608 21.0094C13.2315 20.9286 13.4023 20.8545 13.573 20.7738C13.6058 20.7604 13.6321 20.7401 13.6977 20.6998C13.5336 20.6796 13.4154 20.6662 13.2972 20.6527C13.179 20.6392 13.0608 20.6257 12.936 20.5786C13.0937 20.5113 13.2512 20.4508 13.3957 20.3633C13.5402 20.2759 13.6649 20.1615 13.8291 20.0403C13.7634 20.0269 13.7306 20.0134 13.7043 20.0134C13.2249 20.0537 12.7522 19.9999 12.2925 19.8519C12.2268 19.8317 12.1677 19.7913 12.1086 19.7442C12.5683 19.7375 13.0214 19.6837 13.4417 19.4952C13.2053 19.5019 12.9689 19.4885 12.739 19.4212C12.5158 19.3539 12.2991 19.2866 12.0824 19.1924C12.0824 19.179 12.0824 19.1655 12.0824 19.152C12.1217 19.1453 12.1677 19.1318 12.2071 19.1318C12.6143 19.1655 13.0082 19.1049 13.4023 19.0039C13.5927 18.9568 13.7897 18.9097 13.9736 18.8424C14.361 18.7079 14.5252 19.0646 14.4923 19.327C14.4595 19.5759 14.4332 19.8249 14.4004 20.0807C14.3807 20.2422 14.4398 20.3566 14.5711 20.4374C14.7288 20.5315 14.8272 20.6796 14.8929 20.8479C14.9783 21.016 14.9717 21.1911 14.8929 21.366ZM12.9951 21.8304C12.9557 21.8236 12.9163 21.8168 12.8769 21.8102C12.6668 21.7429 12.4566 21.6958 12.2399 21.7092C11.9576 21.7226 11.6752 21.7429 11.3928 21.7294C11.1696 21.716 10.9397 21.7294 10.7164 21.6487C10.5129 21.5679 10.3487 21.44 10.2305 21.2584C10.1058 21.0699 10.1255 20.8613 10.1911 20.6527C10.2436 20.4845 10.2305 20.4239 10.0664 20.3903C9.89565 20.3498 9.72491 20.3162 9.54758 20.3162C9.23237 20.3027 8.92374 20.2893 8.61512 20.3835C8.33277 20.471 8.07662 20.6056 7.90587 20.868C7.64321 21.265 7.63011 21.6958 7.78768 22.1399C7.80085 22.1736 7.80737 22.2139 7.82054 22.2543C7.80737 22.261 7.80085 22.2745 7.78768 22.2812C7.74172 22.2408 7.68917 22.2005 7.65638 22.1534C7.41341 21.837 7.38713 21.4736 7.45937 21.0968C7.49874 20.9218 7.57756 20.7469 7.6629 20.5854C7.83364 20.2691 8.14234 20.1278 8.45748 20.0066C8.80555 19.872 9.16672 19.8249 9.53448 19.9057C9.71173 19.9461 9.88248 19.9864 10.0598 20.0134C10.3553 20.0537 10.6508 20.0471 10.9397 19.9663C10.966 19.9595 10.9989 19.9528 11.0251 19.9393C11.2221 19.8654 11.36 19.9327 11.4979 20.0942C11.649 20.2759 11.8394 20.4239 12.0101 20.5854C12.0429 20.6191 12.0758 20.6527 12.1086 20.6796C12.1021 20.693 12.0955 20.7065 12.0824 20.72C12.0166 20.7133 11.9576 20.7065 11.8722 20.6998C11.8919 20.7469 11.8985 20.7806 11.9181 20.8074C12.1086 21.1103 12.391 21.292 12.6996 21.4468C12.7522 21.4736 12.8112 21.5006 12.8638 21.5275C13.0214 21.6016 13.0279 21.615 12.9951 21.8304ZM11.6227 23.0349C11.4716 23.1425 11.0645 23.0888 10.7822 22.934C10.4997 22.7792 10.2568 22.4495 10.2568 22.2005C10.48 22.2139 10.6836 22.261 10.8675 22.3889C11.0645 22.5302 11.2483 22.6917 11.4323 22.8465C11.4913 22.9071 11.557 22.9744 11.6227 23.0349ZM8.73331 21.7496C8.58884 21.8236 8.32618 21.7429 8.26705 21.5948C8.25395 21.5544 8.26053 21.4938 8.28681 21.4602C8.33928 21.3862 8.39841 21.3121 8.47065 21.2584C8.60194 21.1641 8.74641 21.0833 8.91716 21.0497C9.0748 21.3121 8.96312 21.6217 8.73331 21.7496ZM9.50162 18.2704C9.4228 18.3781 9.31777 18.4656 9.23237 18.5665C9.00908 18.8358 9.04852 19.0914 9.33746 19.2799C9.46224 19.3606 9.57385 19.4481 9.6264 19.5961C9.6395 19.6366 9.6395 19.6769 9.64609 19.724C9.42938 19.7173 9.23895 19.7105 9.04852 19.7038C8.6348 19.6903 8.25395 19.7981 7.89936 20.0201C7.85991 20.0471 7.79426 20.0672 7.7483 20.0605C7.44619 20.0201 7.14416 19.9461 6.86835 19.7981C6.76985 19.7442 6.66479 19.6971 6.56629 19.65C6.58599 19.4615 6.74359 19.1587 6.87493 19.0443C7.11132 18.8424 7.36744 18.7011 7.68266 18.654C7.8665 18.6271 8.04383 18.5598 8.21457 18.4992C8.66108 18.3445 9.0879 18.1493 9.49503 17.907C9.51472 17.8936 9.54099 17.8869 9.56075 17.8869C9.57385 17.8869 9.58044 17.8869 9.61323 17.8936C9.67895 18.0484 9.58044 18.1628 9.50162 18.2704ZM10.0073 17.9003C10.1517 17.7119 10.2502 17.6917 10.4473 17.8263C10.4735 17.8398 10.4932 17.8599 10.5195 17.8801C10.526 17.8869 10.5326 17.9003 10.5392 17.934C10.3093 18.2368 9.93502 18.3579 9.65919 18.6271C9.58044 18.4791 9.58695 18.4185 9.67236 18.3108C9.79056 18.1695 9.90216 18.0349 10.0073 17.9003ZM11.0382 12.113C10.8215 12.2274 10.5982 12.3485 10.375 12.4562C10.2633 12.51 10.1386 12.5504 10.0138 12.5773C9.8431 12.6177 9.70522 12.5436 9.59354 12.4225C9.5213 12.3485 9.5213 12.2812 9.60013 12.2139C9.77745 12.0726 9.98757 11.9649 10.2174 12.0323C10.4341 12.0995 10.618 12.0591 10.8018 11.9447C10.8347 11.9245 10.8609 11.9043 10.8938 11.8842C11.0776 11.7563 11.1039 11.763 11.2156 12.0053C11.1498 12.0457 11.0974 12.086 11.0382 12.113ZM12.1677 13.506C11.7277 13.3714 11.2681 13.2772 10.8544 13.0484C10.7822 13.008 10.6836 12.9743 10.6836 12.8802C10.6902 12.7724 10.8018 12.759 10.8741 12.7455C11.0645 12.7253 11.2549 12.7253 11.4519 12.7253C11.4913 12.7253 11.5308 12.7523 11.5636 12.7724C11.8262 12.9609 12.0364 13.2031 12.2465 13.479C12.2006 13.4925 12.1809 13.506 12.1677 13.506ZM11.3403 15.767C11.0316 15.8209 10.7296 15.8882 10.421 15.9622C10.0795 16.043 10.0269 16.0026 9.98099 15.6526C9.96788 15.5382 9.95471 15.4172 9.94161 15.3028C9.93502 15.3028 9.92844 15.3028 9.92192 15.296C9.98098 14.8855 10.0401 14.4683 10.1058 14.0578C10.1255 13.93 10.1517 13.802 10.1911 13.681C10.224 13.5598 10.2502 13.5463 10.375 13.5598C10.8084 13.6204 11.2418 13.6742 11.6818 13.7415C11.7212 13.7483 11.7606 13.7684 11.7999 13.7819C11.8722 13.8088 11.8985 13.8559 11.8919 13.9366C11.8328 14.475 11.7277 15.0067 11.5964 15.5316C11.557 15.6729 11.4847 15.7402 11.3403 15.767ZM12.785 15.5719C12.8966 15.1884 13.0148 14.8047 13.1396 14.3942C13.1921 14.4347 13.2249 14.4548 13.2512 14.4885C13.376 14.6298 13.5008 14.7711 13.6255 14.9124C13.7372 15.0403 13.7043 15.3297 13.5664 15.4238C13.4548 15.4979 12.9557 15.5989 12.785 15.5719ZM12.1809 16.1103C12.345 16.3189 12.5092 16.5208 12.6668 16.7294C12.7325 16.8169 12.7981 16.9044 12.8507 17.0053C12.8704 17.0457 12.8835 17.1264 12.8638 17.1534C12.8309 17.1937 12.7588 17.2274 12.7127 17.2206C12.4501 17.1668 12.2006 17.0726 12.0626 16.8102C12.0101 16.7025 11.951 16.6419 11.8262 16.6756C11.7999 16.6823 11.754 16.6688 11.7277 16.6486C11.649 16.5813 11.5701 16.5141 11.4979 16.44C11.4454 16.3929 11.4323 16.3391 11.4716 16.2785C11.5242 16.191 11.5832 16.1036 11.6227 16.0093C11.7146 15.7873 11.8197 15.5719 11.8788 15.3431C11.9839 14.9528 12.0561 14.5557 12.148 14.1386C12.3253 14.0915 12.5223 14.0308 12.7587 13.9703C12.7522 14.0578 12.7522 14.1251 12.739 14.1857C12.6077 14.6029 12.4632 15.0133 12.3253 15.4238C12.2728 15.5787 12.2203 15.7402 12.1611 15.8949C12.1217 15.969 12.1283 16.043 12.1809 16.1103ZM7.24266 20.5584C6.95373 20.4845 6.68449 20.3701 6.43496 20.2152C6.33645 20.1547 6.33645 20.121 6.42838 19.9528C6.78299 20.0739 7.14416 20.2018 7.50533 20.3296C7.49223 20.4979 7.38713 20.5921 7.24266 20.5584ZM6.07378 19.3135C5.90961 19.2462 5.80455 19.1453 5.74545 18.9972C5.72575 18.9502 5.75858 18.8828 5.78484 18.829C5.87022 18.6338 5.97528 18.4387 6.04752 18.2435C6.23795 17.7388 6.28392 17.2072 6.21825 16.6756C6.18542 16.3727 6.02781 16.1036 5.82425 15.8814C5.77172 15.8209 5.74544 15.767 5.76514 15.6863C5.87022 15.3297 5.96872 14.9662 6.08035 14.6029C6.21825 14.1386 6.52688 13.8559 6.97999 13.7213C7.17699 13.6607 7.38055 13.6204 7.58415 13.654C7.61694 13.6607 7.6498 13.6742 7.70234 13.6944C7.67607 13.7483 7.6629 13.7886 7.63011 13.829C7.35427 14.2193 7.22296 14.6635 7.15729 15.1345C7.09819 15.5382 7.09163 15.9421 7.09819 16.3525C7.10476 16.5141 7.10476 16.6756 7.13103 16.8303C7.15729 17.039 7.13103 17.2341 7.11132 17.436C7.08506 17.6715 6.96686 17.8532 6.78956 17.9945C6.68449 18.0753 6.57285 18.156 6.46122 18.2301C6.34302 18.3041 6.27078 18.4118 6.23795 18.5531C6.19199 18.7886 6.13288 19.0376 6.07378 19.3135ZM6.32988 21.9178C6.27078 21.938 6.22482 21.9515 6.17885 21.9717C6.13288 22.0659 6.21169 22.1129 6.23795 22.1803C6.25108 22.2139 6.24452 22.261 6.25108 22.3014C6.21169 22.2947 6.15915 22.3014 6.12632 22.2812C5.98185 22.187 5.94902 22.0995 6.01468 21.938C6.05408 21.837 6.06722 21.7496 6.03438 21.6352C5.97528 21.4602 5.98841 21.3391 6.03438 21.2314C6.11975 21.2853 6.30362 21.6958 6.32988 21.9178ZM5.89648 19.7644C5.76514 19.5625 5.62725 19.3943 5.54844 19.1856C5.56158 19.1722 5.57471 19.1655 5.58784 19.152C5.62725 19.1924 5.67321 19.226 5.71261 19.2664C5.77828 19.3337 5.83738 19.4144 5.90961 19.4817C6.00155 19.5895 6.00155 19.5894 5.89648 19.7644ZM7.04566 5.25563C6.80926 4.91243 6.57942 4.56923 6.34302 4.22602C6.30362 4.16546 6.21825 4.07797 6.29705 4.0174C6.39555 3.95011 6.41525 4.07797 6.45466 4.13854C6.68449 4.45482 6.90776 4.77784 7.13103 5.09412C7.17043 5.14796 7.1967 5.21526 7.23609 5.28255C7.13103 5.34312 7.08506 5.31619 7.04566 5.25563ZM3.9396 15.1749C4.05123 15.2691 4.17599 15.3431 4.30077 15.4172C4.41896 15.4845 4.42554 15.4979 4.36643 15.619C4.3533 15.646 4.3336 15.6729 4.32046 15.6998C3.95273 16.4131 3.8608 17.1466 4.13003 17.9138C4.17599 18.0551 4.24166 18.1897 4.3139 18.3646C4.37957 18.0416 4.4321 17.7657 4.4912 17.4898C4.57 17.113 4.73417 16.7967 5.05594 16.5746C5.16101 16.5006 5.25294 16.4131 5.35144 16.3324C5.37114 16.3122 5.40398 16.3054 5.43681 16.292C5.53531 16.4333 5.62068 16.5813 5.62725 16.7496C5.64694 17.0995 5.60755 17.436 5.43681 17.7523C5.31861 17.9743 5.20698 18.1964 5.10848 18.4319C4.9049 18.9165 4.96401 19.3741 5.26607 19.7913C5.37114 19.9393 5.49591 20.0672 5.62067 20.222C5.57471 20.2825 5.52217 20.3431 5.46964 20.4104C5.37771 20.5315 5.37771 20.6392 5.46308 20.7671C5.50248 20.8209 5.55501 20.868 5.59441 20.9218C5.66008 21.0094 5.74545 21.0968 5.77828 21.1977C5.86364 21.467 5.94245 21.7361 5.86364 22.0322C5.84395 22.1399 5.85052 22.261 5.97528 22.3351C6.19855 22.4629 6.44152 22.4966 6.69105 22.4696C6.80269 22.4561 6.81582 22.4225 6.80269 22.3014C6.78299 22.1466 6.73702 22.0053 6.63852 21.8775C6.52032 21.7226 6.40212 21.5679 6.28392 21.4064C6.10005 21.144 6.08035 20.7738 6.23795 20.5315C6.57942 20.7065 6.94716 20.8142 7.328 20.868C7.328 20.9218 7.33458 20.9488 7.328 20.9824C7.3018 21.2247 7.28862 21.4602 7.3149 21.7024C7.34776 22.0457 7.61694 22.4091 7.93215 22.51C8.28681 22.6177 8.62822 22.5639 8.95002 22.4024C9.27833 22.2341 9.48852 21.9044 9.4228 21.4333C9.40311 21.2987 9.36374 21.1641 9.33088 21.0094C9.40311 20.9016 9.53448 20.9286 9.65267 20.9218C9.77087 20.9151 9.86279 20.9623 9.90875 21.0833C9.9613 21.218 10.0138 21.3592 10.0729 21.4938C10.1058 21.5679 10.0926 21.615 10.0598 21.6823C9.9613 21.8707 9.86938 22.0659 9.77087 22.261C9.71173 22.3754 9.74459 22.4629 9.82993 22.5437C9.88906 22.5975 9.95471 22.6379 10.0138 22.6917C10.1124 22.7859 10.1058 22.8734 9.9744 22.9003C9.86279 22.9273 9.73142 22.9273 9.61981 22.9003C9.4097 22.8532 9.27181 22.9205 9.17982 23.1157C9.15355 23.1762 9.12076 23.2301 9.04194 23.2435C8.85151 23.2772 8.75959 23.4185 8.69394 23.5867C8.68076 23.6137 8.69394 23.6473 8.69394 23.7011C8.77269 23.6675 8.83182 23.6338 8.89088 23.6137C9.27833 23.4521 9.67236 23.4791 10.0664 23.5665C10.4735 23.654 10.8544 23.8357 11.209 24.0645C11.2287 24.078 11.2549 24.078 11.2812 24.0847C11.3206 23.8896 11.2878 23.7348 11.1105 23.6406C11.0645 23.6137 11.0185 23.58 10.966 23.5665C10.7164 23.4858 10.4735 23.4118 10.224 23.331C10.1583 23.3108 10.0795 23.3041 10.0664 23.1897C10.2174 23.1493 10.3684 23.1425 10.5129 23.1762C10.8872 23.2569 11.2615 23.3579 11.6358 23.4521C11.7475 23.4791 11.8591 23.5262 11.9839 23.5665C11.997 23.5262 12.0166 23.4858 12.0166 23.4589C11.997 23.2906 11.9707 23.1224 11.8788 22.9676C11.8065 22.8532 11.7475 22.7321 11.6818 22.6177C11.5964 22.4764 11.5832 22.3283 11.649 22.1601C11.9642 22.1466 12.2596 22.2678 12.5551 22.3485C12.8638 22.4293 13.1593 22.5437 13.4876 22.6446C13.5008 22.5033 13.5073 22.3754 13.5205 22.2543C13.573 22.2341 13.619 22.2139 13.6584 22.2005C13.8291 22.1399 13.8225 22.1399 13.9473 22.2812C14.2822 22.6715 14.709 22.9205 15.195 23.0618C15.2935 23.0888 15.3986 23.1089 15.5299 23.0686C15.451 23.008 15.392 22.9676 15.346 22.9137C15.2935 22.86 15.2212 22.8128 15.2278 22.7254C15.2475 22.7186 15.2606 22.7052 15.2672 22.7052C15.451 22.759 15.635 22.8196 15.8188 22.8801C15.9633 22.9205 16.0092 22.9003 16.0684 22.759C16.1274 22.6177 16.1537 22.4629 16.1406 22.3081C16.134 22.261 16.1406 22.2207 16.1406 22.1601C16.2785 22.1736 16.3639 22.2476 16.4558 22.3014C16.7053 22.4495 16.7053 22.4495 16.922 22.2476C16.9417 22.2273 16.968 22.2072 16.9877 22.1803C17.3817 21.7294 17.6378 21.2045 17.7494 20.6123C17.7691 20.5248 17.802 20.444 17.8217 20.3633C17.953 20.3431 18.0778 20.4239 18.1763 20.3296C18.1632 20.2152 18.0055 20.2018 18.045 20.0672C18.2222 20.0403 18.4061 20.0807 18.5834 19.973C18.5506 19.9461 18.5308 19.9259 18.5046 19.9125C18.2617 19.7711 18.0647 19.5894 17.9267 19.3404C17.7757 19.0646 17.6378 18.7886 17.4868 18.5127C17.3686 18.2974 17.2963 18.2772 17.1059 18.4118C17.0993 18.4185 17.0862 18.4118 17.0402 18.4118C16.9614 18.2704 16.8629 18.1089 16.7775 17.9542C16.7185 17.8465 16.6856 17.7321 16.679 17.6042C16.679 17.51 16.6331 17.4158 16.5805 17.335C16.5215 17.2408 16.4623 17.2408 16.3639 17.3014C16.331 17.3216 16.2917 17.3418 16.2456 17.3754C16.2259 17.2408 16.2128 17.1197 16.1931 16.9851C16.1077 16.9851 16.0421 16.9784 15.9699 16.9851C15.8844 16.9918 15.832 16.9582 15.786 16.8909C15.7138 16.7765 15.6415 16.6621 15.5824 16.541C15.5299 16.4468 15.5561 16.3929 15.6677 16.3795C15.694 16.3795 15.7138 16.3795 15.74 16.3795C16.377 16.3727 16.9811 16.2314 17.5458 15.9219C17.7888 15.7873 18.0384 15.6998 18.301 15.6258C18.4061 15.5989 18.5177 15.5854 18.6031 15.6863C18.787 15.8882 18.9708 16.0834 19.1482 16.2853C19.2335 16.3862 19.2795 16.5006 19.2532 16.6419C19.2335 16.7563 19.2795 16.8371 19.3517 16.9246C19.4371 17.0188 19.5028 17.1332 19.5684 17.2408C19.6538 17.3754 19.6603 17.5167 19.6144 17.6648C19.5816 17.759 19.5553 17.8532 19.5159 17.9407C19.4568 18.0753 19.4896 18.1897 19.5947 18.2704C19.7457 18.3848 19.9033 18.4858 20.0675 18.58C20.1857 18.6473 20.258 18.6002 20.2776 18.4589C20.3039 18.2166 20.2907 17.9743 20.1595 17.759C19.9952 17.4831 19.9099 17.187 19.9099 16.864C19.9099 16.5544 19.7785 16.3122 19.575 16.0901C19.4173 15.9219 19.2861 15.7267 19.1613 15.5316C19.0759 15.4037 19.0234 15.2557 18.9512 15.1211C18.833 14.9057 18.6885 14.7374 18.4127 14.7644C18.2879 14.7779 18.1632 14.7779 18.0318 14.7779C17.9989 14.7779 17.9661 14.7577 17.9333 14.7442C17.9333 14.7308 17.9267 14.7173 17.9267 14.7038C18.1632 14.6365 18.301 14.4481 18.4586 14.2732C18.6425 14.0645 18.8264 13.8627 19.0168 13.6675C19.1153 13.5666 19.1416 13.5666 19.2401 13.6607C19.2729 13.6876 19.2992 13.7213 19.3254 13.7549C19.4699 13.9164 19.6079 14.078 19.7588 14.226C19.8508 14.3203 19.9033 14.4145 19.8902 14.5557C19.877 14.6971 19.9362 14.7913 20.074 14.8384C20.12 14.8518 20.1726 14.8923 20.1988 14.9394C20.3499 15.1749 20.3302 15.3028 20.1463 15.5181C20.1332 15.5382 20.1135 15.5585 20.0937 15.5719C19.9821 15.6863 19.9821 15.8141 20.0413 15.9488C20.1266 16.1372 20.2645 16.2718 20.4549 16.3391C20.6125 16.3929 20.6914 16.366 20.7111 16.1978C20.7307 16.0565 20.7242 15.9151 20.6979 15.7738C20.6322 15.4508 20.5534 15.1345 20.5994 14.8048C20.6256 14.6096 20.5403 14.4615 20.4155 14.3269C20.2185 14.1183 20.0281 13.903 19.8442 13.681C19.6603 13.4588 19.4831 13.23 19.4173 12.9407C19.4042 12.8936 19.3846 12.8465 19.3649 12.8061C19.2795 12.6514 19.1482 12.6043 19.0037 12.6984C18.892 12.7724 18.8001 12.8667 18.7148 12.9743C18.5703 13.1493 18.3996 13.2839 18.2025 13.3781C18.0843 13.4387 18.0121 13.4117 17.9596 13.2839C17.9268 13.2166 17.907 13.1426 17.9005 13.0753C17.8414 12.7253 17.7101 12.4023 17.5065 12.113C17.4145 11.9918 17.316 11.8774 17.2241 11.7496C17.0665 11.5342 16.876 11.3458 16.7841 11.0766C16.6068 10.5585 16.4164 10.047 16.2391 9.52886C16.1997 9.42789 16.1734 9.32024 16.134 9.19241C16.2588 9.20584 16.3639 9.20584 16.4623 9.22602C16.6856 9.2597 16.9023 9.30006 17.0862 9.44807C17.1782 9.52211 17.2569 9.60958 17.3554 9.6702C17.4276 9.71731 17.5131 9.75766 17.5984 9.77784C17.6378 9.79127 17.7035 9.75766 17.7363 9.72398C17.7494 9.71055 17.7166 9.64326 17.7035 9.59615C17.6969 9.57597 17.6903 9.55579 17.6838 9.53562C17.7494 9.54904 17.7954 9.57597 17.8348 9.6029C17.9399 9.67687 18.0187 9.68362 18.104 9.58265C18.1434 9.52886 18.1632 9.45482 18.1697 9.38078C18.1763 9.26638 18.1632 9.1453 18.1566 9.0309C18.15 8.90975 18.104 8.82228 17.9924 8.76842C17.9202 8.72806 17.8545 8.66745 17.8085 8.60691C17.5787 8.28388 17.3554 7.94743 17.1322 7.61766C17.0927 7.55712 17.06 7.48982 17.0402 7.42253C17.0008 7.28121 16.9615 7.15334 16.8564 7.04567C16.8433 7.03221 16.8498 7.0053 16.8433 6.97165C16.9089 6.95819 16.9614 6.95146 17.0402 6.938C16.9746 6.80341 16.9352 6.66882 16.8564 6.56115C16.8038 6.4804 16.7119 6.39964 16.6266 6.37272C16.5149 6.33908 16.3836 6.32562 16.2719 6.35254C16.0421 6.40637 15.8779 6.33235 15.7203 6.17757C15.6284 6.09009 15.5168 6.02279 15.4183 5.94877C15.392 5.93531 15.3591 5.94204 15.3132 5.93531C15.3197 6.00933 15.3263 6.0699 15.3394 6.15065C15.0637 6.08336 14.8667 6.05644 14.6565 6.02952C14.6434 6.19103 14.8075 6.24486 14.8404 6.38618C14.7812 6.39964 14.7353 6.41311 14.6827 6.41311C14.4267 6.42656 14.164 6.41311 13.9079 6.49385C13.8816 6.50731 13.8225 6.4804 13.7897 6.45348C13.6649 6.35927 13.5336 6.33908 13.3826 6.37945C13.1593 6.43329 12.9492 6.53424 12.7587 6.66209C12.7127 6.67555 12.6733 6.68901 12.6011 6.72938C12.6011 6.60153 12.5748 6.49385 12.6077 6.40638C12.739 6.00261 12.7193 5.60556 12.5945 5.20852C12.5421 5.04029 12.4698 4.87878 12.4041 4.69709C12.4173 4.68363 12.4304 4.65671 12.4501 4.63652C12.6077 4.50193 12.6733 4.3135 12.6864 4.11162C12.693 4.01068 12.6537 3.89628 12.6011 3.80206C12.5552 3.72131 12.4566 3.78187 12.3844 3.76842C12.3056 3.76169 12.2137 3.74823 12.148 3.70113C11.9379 3.56653 11.7277 3.57326 11.511 3.68093C11.2418 3.82226 10.966 3.93666 10.664 3.98376C10.4407 4.0174 10.224 4.03087 10.0073 3.95011C9.94812 3.92993 9.88906 3.91647 9.81024 3.89627C9.88248 4.18564 10.0664 4.34715 10.2699 4.4952C10.2043 4.61633 10.0861 4.4952 10.0204 4.56923C10.0204 4.58942 10.0204 4.60287 10.0269 4.6096C10.2174 4.77111 10.4275 4.87205 10.6836 4.85859C10.7427 4.85186 10.8018 4.85859 10.8609 4.87205C11.012 4.91916 11.1564 4.93262 11.2943 4.85859C11.3403 4.83167 11.3928 4.81149 11.4388 4.85186C11.4388 4.87205 11.4454 4.87205 11.4388 4.87878C11.4323 4.89224 11.4257 4.91243 11.4125 4.92589C11.1564 5.1345 11.0776 5.41041 11.0776 5.72669C11.0776 5.89493 11.0579 6.05644 10.9857 6.21122C10.9529 6.27178 10.9529 6.33908 10.9331 6.40638C10.92 6.45348 10.9069 6.49385 10.8872 6.54096C10.7559 6.50731 10.6442 6.46694 10.526 6.44675C10.4473 6.43329 10.3553 6.42656 10.283 6.46021C10.178 6.50058 10.1058 6.48712 10.0138 6.42656C9.82342 6.2987 9.61981 6.27851 9.41628 6.40638C9.28491 6.48712 9.16672 6.57461 9.04194 6.66209C8.95002 6.72938 8.85809 6.80341 8.75959 6.86398C8.69394 6.90435 8.61512 6.91108 8.57574 6.8236C8.49692 6.64191 8.4181 6.45348 8.33928 6.26505C8.26705 6.11028 8.21457 5.93531 7.99128 5.94877C7.89936 5.9555 7.8665 5.88821 7.8665 5.80072C7.8665 5.75361 7.8796 5.67959 7.8534 5.6594C7.74172 5.56519 7.70893 5.43733 7.67607 5.30274C7.6629 5.23545 7.62352 5.18834 7.55787 5.22199C7.55129 5.30274 7.55129 5.37003 7.55129 5.39695C7.59066 5.51135 7.62352 5.59211 7.65638 5.69305C7.6498 5.69305 7.66948 5.69978 7.69576 5.70651C7.77458 5.73342 7.78768 5.80072 7.73513 5.84782C7.66948 5.91512 7.59066 5.98242 7.50533 6.02279C7.47247 6.04298 7.38713 6.02279 7.36086 5.98915C7.26235 5.87475 7.10476 5.78053 7.20982 5.58538C7.17043 5.39695 7.25576 5.29601 7.41999 5.2489C7.42651 5.2489 7.43309 5.22872 7.43309 5.22199C7.38055 5.14796 7.32148 5.08066 7.26894 5.00664C7.04566 4.69709 6.83552 4.38753 6.61226 4.07797C6.55972 4.01068 6.50062 3.95684 6.43496 3.91647C6.35616 3.86263 6.25765 3.88282 6.20511 3.95011C6.13945 4.0174 6.15258 4.09816 6.19199 4.17219C6.21825 4.22602 6.25765 4.27986 6.29049 4.32696C6.54002 4.69036 6.78956 5.05375 7.03909 5.41714C7.07849 5.47771 7.12446 5.53154 7.07849 5.59884C7.0194 5.69978 7.05879 5.78053 7.1179 5.85455C7.17699 5.93531 7.24266 6.00261 7.29521 6.08336C7.34776 6.16411 7.41341 6.25159 7.42651 6.33908C7.45937 6.53423 7.55129 6.69574 7.64321 6.86398C7.69576 6.95146 7.7483 7.04567 7.79426 7.13316C7.8796 7.3014 7.85991 7.44271 7.72203 7.57055C7.64321 7.64459 7.55129 7.71188 7.48564 7.79935C7.38713 7.9205 7.3018 8.05508 7.22953 8.19641C7.18356 8.28388 7.16386 8.39828 7.25576 8.49926C7.36745 8.47233 7.48564 8.45215 7.59725 8.41179C7.78116 8.3445 7.93215 8.47908 7.89936 8.69438C7.8796 8.82228 7.81395 8.92318 7.68266 8.97029C7.62352 8.99047 7.55787 9.00397 7.49223 9.0309C7.26894 9.11162 7.04566 9.19241 6.83552 9.28656C6.50062 9.44139 6.48092 9.83838 6.65166 10.0672C6.79612 10.2624 6.76985 10.3633 6.57942 10.5248C6.49405 10.5921 6.40212 10.6527 6.31675 10.72C6.21169 10.794 6.14602 10.8949 6.16572 11.0363C6.17885 11.1237 6.13945 11.1776 6.08035 11.2247C5.96872 11.3323 5.88991 11.4602 5.84395 11.615C5.81768 11.689 5.81768 11.763 5.87678 11.8169C5.93588 11.8774 5.98841 11.8303 6.04095 11.8101C6.17228 11.7563 6.29705 11.689 6.42838 11.6621C6.75016 11.5948 7.07849 11.541 7.41341 11.5544C7.68917 11.5679 7.95842 11.6083 8.18171 11.7765C8.35904 11.9043 8.51661 12.0591 8.68077 12.2004C8.74641 12.2611 8.81865 12.3283 8.89747 12.362C8.98939 12.4023 9.10758 12.3889 9.17982 12.4427C9.25864 12.5033 9.2915 12.6109 9.35056 12.6984C9.35715 12.7052 9.35715 12.7052 9.36374 12.7119C9.44248 12.7792 9.42938 12.8667 9.4097 12.9541C9.39001 13.0416 9.31119 13.0282 9.24554 13.0349C8.89088 13.082 8.54288 13.1291 8.2014 13.2502C8.13575 13.2704 8.08979 13.2637 8.03724 13.2234C7.94532 13.1493 7.85991 13.0753 7.76141 13.0147C7.38713 12.7523 6.99312 12.5571 6.53346 12.5235C6.19855 12.4965 5.90305 12.6109 5.65351 12.8397C5.35144 13.1156 5.14787 13.4656 4.97057 13.8357C4.8852 14.0174 4.8261 14.1991 4.7867 14.3942C4.7473 14.5962 4.69477 14.7913 4.64223 14.9865C4.6094 15.0941 4.56343 15.1211 4.48463 15.0672C4.28107 14.9326 4.06436 14.8182 3.92646 14.6029C3.74916 14.3269 3.74916 14.1857 4.0184 13.9098C4.0578 13.8693 4.1169 13.8559 4.17599 13.829C4.22196 13.9434 4.16943 14.0578 4.26793 14.1453C4.34016 14.2125 4.3927 14.3068 4.45837 14.3876C4.6685 14.1857 4.62254 13.802 4.38613 13.681C4.34016 13.6607 4.28107 13.6405 4.22853 13.6473C3.93303 13.6742 3.72289 13.7819 3.63096 14.1183C3.52589 14.5154 3.59813 14.8989 3.9396 15.1749Z" fill="white"/>
<path d="M12.2016 6.47377C12.1031 6.37282 11.9915 6.39301 11.8602 6.41993C11.9522 6.62855 12.0572 6.64201 12.2016 6.47377Z" fill="white"/>
<path d="M31.4222 1.01607H32.2824V3.52617H30.7655C31.1858 3.01473 31.4025 2.23411 31.4222 1.01607ZM30.3781 4.25968H32.8013V5.11432H33.5958V3.52617H33.077V0.27583H30.6605V0.935321C30.6605 2.39561 30.3847 3.10221 29.8856 3.52617H29.5835V5.11432H30.3781V4.25968Z" fill="white"/>
<path d="M34.4493 0.27583V4.25968H37.135V3.52617H35.2438V2.51674H36.5834V1.82361H35.2438V1.01607H37.0628V0.27583H34.4493Z" fill="white"/>
<path d="M38.0803 0.27583V4.25968H38.8749V1.01607H40.4574V4.25968H41.252V0.27583H38.0803Z" fill="white"/>
<path d="M43.8985 1.72265L44.4173 3.06855H43.3797L43.8985 1.72265ZM43.7672 0.201794L42.0269 4.25967H42.8807L43.0974 3.7415H44.6865L44.9032 4.25967H45.7569L44.0364 0.201794H43.7672Z" fill="white"/>
<path d="M47.3395 0.995882H48.0027C48.3704 0.995882 48.5937 1.23141 48.5937 1.56116C48.5937 1.90437 48.377 2.1399 48.0027 2.1399H47.3395V0.995882ZM48.0027 2.85322C48.8236 2.85322 49.4015 2.32832 49.4015 1.56116C49.4015 0.780539 48.817 0.27583 48.0027 0.27583H46.5384V4.25968H47.3329V2.85322H48.0027Z" fill="white"/>
<path d="M50.0187 0.27583V1.01607H51.2599V4.25968H52.0545V1.01607H53.3021V0.27583H50.0187Z" fill="white"/>
<path d="M55.1408 1.72265L55.6596 3.06855H54.622L55.1408 1.72265ZM55.0094 0.201794L53.2693 4.25967H54.1229L54.3396 3.7415H55.9288L56.1455 4.25967H56.9991L55.2787 0.201794H55.0094Z" fill="white"/>
<path d="M61.3335 0.201794L59.6918 2.36196L58.0502 0.201794H57.7875V4.25967H58.582V2.13315L59.5605 3.39157H59.8232L60.8016 2.13315V4.25967H61.5962V0.201794H61.3335Z" fill="white"/>
<path d="M62.745 0.27583V4.25968H65.4307V3.52617H63.5395V2.51674H64.8726V1.82361H63.5395V1.01607H65.3585V0.27583H62.745Z" fill="white"/>
<path d="M68.8854 0.27583V1.80342H67.1714V0.27583H66.3768V4.25968H67.1714V2.54366H68.8854V4.25968H69.6865V0.27583H68.8854Z" fill="white"/>
<path d="M70.4607 0.27583V1.01607H71.7018V4.25968H72.4963V1.01607H73.7441V0.27583H70.4607Z" fill="white"/>
<path d="M33.0833 11.5075V7.52366H29.905V11.5075H30.6996V8.25718H32.2887V11.5075H33.0833Z" fill="white"/>
<path d="M35.0208 8.24375H35.684C36.0583 8.24375 36.2751 8.47923 36.2751 8.809C36.2751 9.15221 36.0583 9.38776 35.684 9.38776H35.0208V8.24375ZM35.0208 10.101H35.684C36.5049 10.101 37.0893 9.57613 37.0893 8.809C37.0893 8.02838 36.5049 7.52366 35.684 7.52366H34.2262V11.5075H35.0208V10.101Z" fill="white"/>
<path d="M40.602 10.7672H38.7173V9.76457H40.0504V9.06474H38.7173V8.25718H40.5363V7.52366H37.9162V11.5075H40.602V10.7672Z" fill="white"/>
<path d="M43.1375 8.25709H43.9978V10.7672H42.4809C42.9011 10.2558 43.1244 9.47513 43.1375 8.25709ZM42.0935 11.5074H44.5166V12.3553H45.3111V10.7672H44.7924V7.51689H42.3758V8.17637C42.3758 9.63665 42.1 10.3432 41.6009 10.7672H41.2989V12.3553H42.0935V11.5074Z" fill="white"/>
<path d="M46.9592 8.25718H48.5484V11.5075H49.343V7.52366H46.1647V11.5075H46.9592V8.25718Z" fill="white"/>
<path d="M51.9494 9.38776H51.2861V8.24375H51.9494C52.3171 8.24375 52.5404 8.47923 52.5404 8.809C52.5404 9.15221 52.3171 9.38776 51.9494 9.38776ZM51.9494 7.52366H50.485V11.5075H51.2796V10.101H51.9428C52.7636 10.101 53.3415 9.57613 53.3415 8.809C53.3481 8.02838 52.7702 7.52366 51.9494 7.52366Z" fill="white"/>
<path d="M54.9763 7.52355H54.1817V11.5814H54.4378L56.7559 9.05787V11.5074H57.5504V7.44952H57.2812L54.9763 9.94614V7.52355Z" fill="white"/>
<path d="M61.209 9.05123H59.4885V7.52366H58.694V11.5075H59.4885V9.78475H61.209V11.5075H62.0036V7.52366H61.209V9.05123Z" fill="white"/>
<path d="M63.9402 9.94614V7.52355H63.1456V11.5814H63.4017L65.7198 9.06462V11.5074H66.5143V7.44952H66.2516L63.9402 9.94614Z" fill="white"/>
<path d="M69.5614 9.60294L67.9197 7.44952H67.657V11.5074H68.4516V9.38089L69.43 10.6393H69.6927L70.6711 9.38089V11.5074H71.4657V7.44952H71.203L69.5614 9.60294Z" fill="white"/>
<path d="M74.1121 8.9704L74.6311 10.3163H73.5939L74.1121 8.9704ZM73.101 11.5074L73.3181 10.9892H74.9069L75.124 11.5074H75.9774L74.2439 7.44952H73.9811L72.2408 11.5074H73.101Z" fill="white"/>
<path d="M77.1982 11.5075H77.9929V8.25718H79.2407V7.52366H75.9569V8.25718H77.1982V11.5075Z" fill="white"/>
<path d="M82.7023 10.7672H80.8176V9.76457H82.1501V9.06474H80.8176V8.25718H82.6365V7.52366H80.0163V11.5075H82.7023V10.7672Z" fill="white"/>
<path d="M86.7924 11.5075V7.52366H84.2642V8.25718C84.2642 10.0001 83.9623 10.6933 83.3384 10.7672V11.5344C84.3235 11.4604 84.9995 10.8144 85.0191 8.25718H85.9911V11.5075H86.7924Z" fill="white"/>
<path d="M89.5319 10.7874H88.7372V9.60304H89.5319C89.9191 9.60304 90.1355 9.85202 90.1355 10.2019C90.1355 10.5451 89.9191 10.7874 89.5319 10.7874ZM90.9498 10.1952C90.9498 9.42127 90.3657 8.8897 89.5319 8.8897H88.7372V7.51689H87.9425V11.5007H89.5319C90.3657 11.5074 90.9498 10.9893 90.9498 10.1952Z" fill="white"/>
<path d="M93.7331 11.5815C94.4887 11.5815 95.1192 11.2046 95.4536 10.5923L94.8564 10.1548C94.5937 10.5788 94.2325 10.8211 93.7396 10.8211C93.0173 10.8211 92.486 10.2827 92.486 9.51555C92.486 8.74168 93.0173 8.19653 93.7396 8.19653C94.226 8.19653 94.5937 8.44559 94.8564 8.86951L95.4536 8.43208C95.1126 7.81972 94.4887 7.44286 93.7396 7.44286C92.5779 7.44286 91.6652 8.33786 91.6652 9.5088C91.6717 10.6865 92.5844 11.5815 93.7331 11.5815Z" fill="white"/>
<path d="M96.0975 8.25718H97.3381V11.5075H98.1328V8.25718H99.3807V7.52366H96.0975V8.25718Z" fill="white"/>
<path d="M100.924 10.8077V9.80493H101.831C102.178 9.80493 102.383 10.0001 102.383 10.3096C102.383 10.626 102.178 10.8077 101.831 10.8077H100.924ZM100.924 8.2235H101.47C101.798 8.2235 101.975 8.39851 101.975 8.67442C101.975 8.94358 101.798 9.13203 101.47 9.13203H100.924V8.2235ZM103.17 10.3366C103.17 9.84536 102.907 9.50884 102.481 9.35408C102.665 9.17239 102.77 8.93016 102.77 8.63399C102.77 7.97452 102.257 7.52366 101.535 7.52366H100.156V11.5075H101.89C102.645 11.5075 103.17 11.023 103.17 10.3366Z" fill="white"/>
<path d="M105.002 10.3163L105.521 8.9704L106.04 10.3163H105.002ZM105.389 7.44952L103.649 11.5074H104.503L104.72 10.9892H106.309L106.525 11.5074H107.379L105.645 7.44952H105.389Z" fill="white"/>
<path d="M33.2737 18.7483V14.6971H33.0111L30.6996 17.1938V14.7644H29.905V18.8223H30.1677L32.4792 16.3055V18.7483H33.2737Z" fill="white"/>
<path d="M36.439 14.7644V18.8223H36.7017L39.0132 16.3055V18.7483H39.8077V14.6971H39.5451L37.2336 17.1938V14.7644H36.439Z" fill="white"/>
<path d="M41.745 17.0322H43.4655V18.7482H44.2601V14.7644H43.4655V16.292H41.745V14.7644H40.9504V18.7482H41.745V17.0322Z" fill="white"/>
<path d="M48.7184 18.7482V14.7644H47.9238V16.292H46.2034V14.7644H45.4088V18.7482H46.2034V17.0322H47.9238V18.7482H48.7184Z" fill="white"/>
<path d="M50.4524 16.7563C50.4524 15.9891 50.9777 15.4441 51.7001 15.4441C52.4092 15.4441 52.9477 15.9891 52.9477 16.7563C52.9477 17.5302 52.4092 18.0685 51.7001 18.0685C50.9711 18.0685 50.4524 17.5302 50.4524 16.7563ZM53.7686 16.7563C53.7686 15.5854 52.8361 14.6904 51.6935 14.6904C50.5509 14.6904 49.6315 15.5854 49.6315 16.7563C49.6315 17.9272 50.5509 18.8222 51.6935 18.8222C52.8361 18.8222 53.7686 17.9272 53.7686 16.7563Z" fill="white"/>
<path d="M56.3493 18.0484H55.4431V17.0457H56.3493C56.6973 17.0457 56.9009 17.2409 56.9009 17.5437C56.9009 17.86 56.6973 18.0484 56.3493 18.0484ZM55.4365 15.4642H55.9815C56.3098 15.4642 56.4871 15.6392 56.4871 15.9152C56.4871 16.1843 56.3098 16.3728 55.9815 16.3728H55.4365V15.4642ZM56.9928 16.5948C57.1766 16.4131 57.2817 16.1709 57.2817 15.8747C57.2817 15.2152 56.7695 14.7644 56.0472 14.7644H54.6682V18.7482H56.4018C57.1569 18.7482 57.6823 18.2637 57.6823 17.5773C57.6823 17.0928 57.4196 16.7496 56.9928 16.5948Z" fill="white"/>
<path d="M59.5148 17.5639L60.0335 16.218L60.5523 17.5639H59.5148ZM59.9022 14.6971L58.162 18.755H59.0157L59.2324 18.2368H60.8216L61.0383 18.755H61.8919L60.1583 14.6971H59.9022Z" fill="white"/>
<path d="M65.8445 14.7644H65.05V18.0147H63.4739V14.7644H62.6793V18.7482H65.5622V19.6029H66.3568V18.0147H65.8445V14.7644Z" fill="white"/>
<path d="M67.2236 14.7644V18.8223H67.4862L69.7977 16.3055V18.7483H70.5922V14.6971H70.3296L68.0181 17.1938V14.7644H67.2236Z" fill="white"/>
<path d="M73.5669 18.0686C72.8446 18.0686 72.3193 17.5302 72.3193 16.7563C72.3193 15.9892 72.8446 15.4441 73.5669 15.4441C74.2762 15.4441 74.8147 15.9892 74.8147 16.7563C74.8147 17.5302 74.2762 18.0686 73.5669 18.0686ZM73.5604 14.6971C72.4176 14.6971 71.4985 15.5922 71.4985 16.7631C71.4985 17.934 72.4176 18.8291 73.5604 18.8291C74.7033 18.8291 75.6355 17.934 75.6355 16.7631C75.629 15.5854 74.7033 14.6971 73.5604 14.6971Z" fill="white"/>
<path d="M79.8517 18.7482V14.7644H79.057V16.292H77.3366V14.7644H76.5418V18.7482H77.3366V17.0322H79.057V18.7482H79.8517Z" fill="white"/>
<path d="M83.5087 16.292H81.7882V14.7644H80.9935V18.7482H81.7882V17.0322H83.5087V18.7482H84.3034V14.7644H83.5087V16.292Z" fill="white"/>
<path d="M87.2848 18.0686C86.5625 18.0686 86.037 17.5302 86.037 16.7563C86.037 15.9892 86.5625 15.4441 87.2848 15.4441C88.0007 15.4441 88.5327 15.9892 88.5327 16.7563C88.5327 17.5302 88.0007 18.0686 87.2848 18.0686ZM87.2783 14.6971C86.1362 14.6971 85.2162 15.5922 85.2162 16.7631C85.2162 17.934 86.1362 18.8291 87.2783 18.8291C88.4212 18.8291 89.3534 17.934 89.3534 16.7631C89.3534 15.5854 88.4212 14.6971 87.2783 14.6971Z" fill="white"/>
<path d="M90.2596 18.7482H91.0543V15.5047H92.7683V14.7644H90.2596V18.7482Z" fill="white"/>
<path d="M95.3423 18.0686C94.6199 18.0686 94.0945 17.5302 94.0945 16.7563C94.0945 15.9892 94.6199 15.4441 95.3423 15.4441C96.0581 15.4441 96.5901 15.9892 96.5901 16.7563C96.5901 17.5302 96.0516 18.0686 95.3423 18.0686ZM95.3358 14.6971C94.1929 14.6971 93.2737 15.5922 93.2737 16.7631C93.2737 17.934 94.1929 18.8291 95.3358 18.8291C96.4786 18.8291 97.4109 17.934 97.4109 16.7631C97.4109 15.5854 96.4786 14.6971 95.3358 14.6971Z" fill="white"/>
<path d="M101.817 16.6285H101.153V15.4845H101.817C102.185 15.4845 102.408 15.72 102.408 16.0497C102.408 16.3997 102.185 16.6285 101.817 16.6285ZM101.817 14.7644H100.352V18.7482H101.147V17.3418H101.811C102.631 17.3418 103.209 16.8169 103.209 16.0497C103.216 15.2759 102.638 14.7644 101.817 14.7644Z" fill="white"/>
<path d="M104.713 17.5639L105.231 16.218L105.75 17.5639H104.713ZM105.1 14.6971L103.36 18.755H104.214L104.431 18.2368H106.02L106.237 18.755H107.09L105.357 14.6971H105.1Z" fill="white"/>
<path d="M110.059 16.6419C110.281 16.4535 110.413 16.191 110.413 15.868C110.413 15.1883 109.822 14.6904 109.08 14.6904C108.456 14.6904 107.937 15.0402 107.682 15.5585L108.233 15.9622C108.45 15.6392 108.732 15.4441 109.073 15.4441C109.402 15.4441 109.618 15.6392 109.618 15.9151C109.618 16.1708 109.441 16.3727 109.12 16.3727H108.522V17.0457H109.29C109.638 17.0457 109.835 17.2543 109.835 17.5302C109.835 17.8734 109.52 18.0685 109.139 18.0685C108.745 18.0685 108.423 17.8801 108.167 17.4898L107.609 17.9003C107.892 18.4521 108.437 18.8222 109.146 18.8222C109.973 18.8222 110.623 18.3243 110.623 17.5706C110.623 17.1466 110.413 16.8235 110.059 16.6419Z" fill="white"/>
<path d="M113.223 18.0484H112.317V17.0457H113.223C113.572 17.0457 113.776 17.2409 113.776 17.5437C113.776 17.86 113.572 18.0484 113.223 18.0484ZM112.317 15.4642H112.862C113.191 15.4642 113.368 15.6392 113.368 15.9152C113.368 16.1843 113.191 16.3728 112.862 16.3728H112.317V15.4642ZM113.874 16.5948C114.058 16.4131 114.163 16.1709 114.163 15.8747C114.163 15.2152 113.651 14.7644 112.935 14.7644H111.556V18.7482H113.289C114.045 18.7482 114.57 18.2637 114.57 17.5773C114.563 17.0928 114.294 16.7496 113.874 16.5948Z" fill="white"/>
<path d="M116.25 17.1938V14.7644H115.456V18.8223H115.712L118.03 16.3055V18.7483H118.825V14.6971H118.556L116.25 17.1938Z" fill="white"/>
<path d="M119.599 15.5047H120.84V18.7482H121.635V15.5047H122.889V14.7644H119.599V15.5047Z" fill="white"/>
<path d="M124.46 17.1938V14.7644H123.665V18.8223H123.921L126.24 16.3055V18.7483H127.034V14.6971H126.772L124.46 17.1938Z" fill="white"/>
<path d="M130.212 16.8102H129.621C129.201 16.8102 128.944 16.5343 128.944 16.144C128.944 15.7671 129.201 15.4845 129.621 15.4845H130.212V16.8102ZM129.634 14.7644C128.754 14.7644 128.13 15.3162 128.13 16.144C128.13 16.6487 128.373 17.0592 128.761 17.2947L127.835 18.7482H128.722L129.51 17.5168C129.549 17.5235 129.589 17.5235 129.628 17.5235H130.205V18.7482H131V14.7644H129.634Z" fill="white"/>
<path d="M29.905 25.9961H30.6996V22.7457H32.4069V22.0122H29.905V25.9961Z" fill="white"/>
<path d="M34.9876 25.3164C34.2653 25.3164 33.7399 24.778 33.7399 24.0042C33.7399 23.237 34.2653 22.6919 34.9876 22.6919C35.6968 22.6919 36.2353 23.237 36.2353 24.0042C36.2353 24.778 35.6968 25.3164 34.9876 25.3164ZM34.9811 21.9382C33.8384 21.9382 32.9191 22.8332 32.9191 24.0042C32.9191 25.175 33.8384 26.0701 34.9811 26.0701C36.1237 26.0701 37.0561 25.175 37.0561 24.0042C37.0561 22.8332 36.1237 21.9382 34.9811 21.9382Z" fill="white"/>
<path d="M39.4201 23.8763H38.7569V22.7323H39.4201C39.7879 22.7323 40.0111 22.9678 40.0111 23.2976C40.0111 23.6408 39.7944 23.8763 39.4201 23.8763ZM39.4201 22.0122H37.9557V25.9961H38.7503V24.5897H39.4136C40.2344 24.5897 40.8122 24.0648 40.8122 23.2976C40.8254 22.5169 40.2409 22.0122 39.4201 22.0122Z" fill="white"/>
<path d="M43.5896 25.3164C42.8673 25.3164 42.3419 24.778 42.3419 24.0042C42.3419 23.237 42.8673 22.6919 43.5896 22.6919C44.2989 22.6919 44.8373 23.237 44.8373 24.0042C44.8373 24.778 44.3054 25.3164 43.5896 25.3164ZM43.583 21.9382C42.4404 21.9382 41.5211 22.8332 41.5211 24.0042C41.5211 25.175 42.4404 26.0701 43.583 26.0701C44.7257 26.0701 45.6581 25.175 45.6581 24.0042C45.6581 22.8332 44.7257 21.9382 43.583 21.9382Z" fill="white"/>
<path d="M48.8695 25.2559H47.3526C47.7794 24.7444 47.9961 23.9638 48.0093 22.7457H48.8695V25.2559ZM49.6707 22.0122H47.2541V22.6717C47.2541 24.1321 46.9783 24.8386 46.4727 25.2626H46.1705V26.8507H46.9651V26.0028H49.3883V26.8507H50.1829V25.2626H49.6641V22.0122H49.6707Z" fill="white"/>
<path d="M52.166 24.805L52.6848 23.459L53.2036 24.805H52.166ZM52.5535 21.9382L50.8133 25.9961H51.667L51.8837 25.4779H53.4728L53.6895 25.9961H54.5432L52.8096 21.9382H52.5535Z" fill="white"/>
<path d="M59.2575 24.0916L57.6158 21.9382H57.3531V25.9961H58.1477V23.8696L59.1262 25.128H59.3889L60.3673 23.8696V25.9961H61.1619V21.9382H60.8992L59.2575 24.0916Z" fill="white"/>
<path d="M64.1502 25.3164C63.4279 25.3164 62.9026 24.778 62.9026 24.0042C62.9026 23.237 63.4279 22.6919 64.1502 22.6919C64.8595 22.6919 65.3979 23.237 65.3979 24.0042C65.3979 24.778 64.8595 25.3164 64.1502 25.3164ZM64.1437 21.9382C63.0011 21.9382 62.0817 22.8332 62.0817 24.0042C62.0817 25.175 63.0011 26.0701 64.1437 26.0701C65.2863 26.0701 66.2188 25.175 66.2188 24.0042C66.2122 22.8332 65.2863 21.9382 64.1437 21.9382Z" fill="white"/>
<path d="M69.03 22.6919C69.5159 22.6919 69.8837 22.9409 70.1398 23.3649L70.7373 22.9274C70.3958 22.315 69.772 21.9382 69.0235 21.9382C67.8611 21.9382 66.9483 22.8332 66.9483 24.0042C66.9483 25.175 67.8611 26.0701 69.0169 26.0701C69.772 26.0701 70.4024 25.6932 70.7373 25.0809L70.1398 24.6435C69.8837 25.0674 69.5159 25.3164 69.03 25.3164C68.3076 25.3164 67.7758 24.778 67.7758 24.0108C67.7758 23.237 68.3076 22.6919 69.03 22.6919Z" fill="white"/>
<path d="M74.8411 22.0122H73.8958L72.4048 23.8561V22.0122H71.6104V25.9961H72.4048V23.9167L74.0731 25.9961H75.0379L73.3508 23.8898L74.8411 22.0122Z" fill="white"/>
<path d="M77.4878 25.2962H76.5816V24.2936H77.4878C77.836 24.2936 78.0393 24.4887 78.0393 24.7915C78.0393 25.1078 77.8287 25.2962 77.4878 25.2962ZM76.5751 22.7121H77.1201C77.448 22.7121 77.6253 22.8871 77.6253 23.163C77.6253 23.4321 77.448 23.6206 77.1201 23.6206H76.5751V22.7121ZM78.1313 23.8426C78.3151 23.661 78.4201 23.4187 78.4201 23.1226C78.4201 22.4632 77.9076 22.0122 77.1918 22.0122H75.813V25.9961H77.5464C78.3021 25.9961 78.8275 25.5115 78.8275 24.8251C78.8203 24.3339 78.5583 23.9975 78.1313 23.8426Z" fill="white"/>
<path d="M81.2901 25.2761H80.4954V24.0916H81.2901C81.6773 24.0916 81.8945 24.3407 81.8945 24.6906C81.901 25.0338 81.6839 25.2761 81.2901 25.2761ZM81.2901 23.385H80.4954V22.0122H79.7007V25.9961H81.2901C82.1239 25.9961 82.7087 25.4779 82.7087 24.6839C82.7153 23.9099 82.1304 23.385 81.2901 23.385Z" fill="white"/>
<path d="M84.1854 22.0122H83.3906V25.9961H84.1854V22.0122Z" fill="white"/>
</g>
</svg>
