<svg width="133" height="30" viewBox="0 0 133 30" fill="none" xmlns="http://www.w3.org/2000/svg">
<path fill-rule="evenodd" clip-rule="evenodd" d="M34.0507 19.5133H37.1211C38.3191 19.5133 38.7746 19.9181 38.7746 20.9094C38.7746 21.8641 38.3188 22.2684 37.1211 22.2684H34.0507V19.5133ZM29.294 29.5406H34.0509V25.4632H39.1461C42.5195 25.4632 43.734 23.5174 43.734 21.0017C43.734 18.0815 42.4851 16.429 39.1117 16.429H29.294V29.5406ZM45.3028 16.429H58.1054V19.6236H50.0597V21.3866H57.5328V24.5826H50.0597V26.3454H58.1054V29.5406H45.3028V16.429ZM64.8534 19.5133H67.9236C69.1214 19.5133 69.5772 19.9181 69.5772 20.9094C69.5772 21.8641 69.1214 22.2684 67.9236 22.2684H64.8534V19.5133ZM60.0965 29.5406H64.8534V25.4632H69.9477C73.322 25.4632 74.5368 23.5174 74.5368 21.0017C74.5368 18.0815 73.2879 16.429 69.9138 16.429H60.0965V29.5406ZM79.1412 23.9763C76.8137 23.5901 75.8528 22.121 75.8528 20.2851C75.8528 16.8873 78.9062 15.9699 82.8188 15.9699C88.1824 15.9699 90.3926 17.4935 90.5615 20.2669H85.0283C85.0283 19.7342 84.7414 19.403 84.3036 19.2195C83.8817 19.0181 83.3423 18.9447 82.8188 18.9447C81.4019 18.9447 80.9132 19.3299 80.9132 19.8813C80.9132 20.2479 81.0643 20.4875 81.5367 20.5606L87.2213 21.4785C89.617 21.8641 91.1016 23.0761 91.1016 25.2976C91.1016 28.494 88.7061 29.9998 83.3584 29.9998C79.6981 29.9998 75.7 29.449 75.6834 25.5925H81.4187C81.4348 26.0327 81.5874 26.3264 81.9252 26.5286C82.2784 26.7125 82.8017 26.8045 83.5437 26.8045C85.0279 26.8045 85.4334 26.3634 85.4334 25.7389C85.4334 25.3533 85.2136 24.9679 84.5739 24.8583L79.1412 23.9763ZM92.6529 16.429H97.4095V29.5406H92.6529V16.429ZM115.039 24.4355C114.735 26.1617 114.194 27.5574 113.013 28.512C111.85 29.4671 110.028 29.9998 107.127 29.9998C104.243 29.9998 98.8951 29.7789 98.8951 22.9852C98.8951 16.1901 104.243 15.9697 107.127 15.9697C109.994 15.9697 114.414 16.3733 115.039 21.571H109.674C109.539 20.6335 108.965 19.2748 107.127 19.2748C105.186 19.2748 103.955 20.3215 103.955 22.9849C103.955 25.6477 105.153 26.6937 106.89 26.6937C108.392 26.6937 109.286 26.0144 109.674 24.4352L115.039 24.4355ZM121.263 22.9854C121.263 20.3217 122.495 19.2753 124.435 19.2753C126.374 19.2753 127.606 20.3219 127.606 22.9854C127.606 25.6482 126.374 26.6942 124.435 26.6942C122.495 26.694 121.263 25.648 121.263 22.9854ZM116.202 22.9854C116.202 29.7789 121.549 30 124.434 30C127.319 30 132.667 29.7791 132.667 22.9854C132.667 16.1903 127.319 15.9699 124.434 15.9699C121.549 15.9699 116.202 16.1901 116.202 22.9854ZM22.1061 16.559C22.4133 10.2684 16.8729 3.18432 9.31982 2.30868L9.33272 2.22271C16.7789 2.22271 22.4872 8.97244 22.4872 14.2974C22.4801 15.4058 22.3907 16.0926 22.2312 16.5913L22.1061 16.559ZM21.6549 17.3586C21.1595 17.9513 20.5365 18.5481 19.8065 19.1146C18.4636 11.552 12.7879 4.93898 8.77532 3.00878L8.68937 3.06745C12.7248 6.31032 17.5379 12.6086 19.4097 19.4113C18.4549 20.098 17.4236 20.6763 16.3356 21.1351C12.5276 16.883 8.97741 8.68251 7.83334 3.47876L7.71698 3.51305C7.74279 8.56429 11.4054 17.1393 15.872 21.3235C14.8475 21.7204 13.7826 22.0085 12.6953 22.1829C8.41379 20.5221 5.36618 15.2028 5.36618 9.75377C5.36618 6.1966 6.47384 3.99611 6.68813 3.54576L6.59688 3.51034C6.33765 3.89435 4.715 6.09372 4.715 9.93404C4.715 16.0933 7.81721 20.8011 11.9358 22.2837C10.463 22.4423 8.9739 22.3739 7.52273 22.0809L7.49208 22.1747C7.93266 22.3336 9.42743 22.9479 11.7077 22.9479C16.8653 22.9479 20.3519 19.8102 21.7554 17.4252L21.6549 17.3586Z" fill="white" fill-opacity="0.7"/>
<path fill-rule="evenodd" clip-rule="evenodd" d="M11.192 0C7.28218 0 2.69765 2.76297 2.69765 5.28859C2.69765 6.26554 3.61036 7.09086 5.49938 7.09086C9.8846 7.09086 13.9587 4.14085 13.9587 1.84695C13.9587 0.639866 12.7748 0 11.192 0ZM12.7529 1.77565C12.7529 3.70923 8.96082 6.07286 5.79087 6.07286C4.39035 6.07286 3.63363 5.53317 3.63363 4.64263C3.63363 2.6813 7.46882 0.357837 10.4422 0.357837C12.3808 0.357837 12.7529 1.32373 12.7529 1.77565Z" fill="white" fill-opacity="0.7"/>
<path fill-rule="evenodd" clip-rule="evenodd" d="M1.13987 6.45797C1.02996 6.64411 0.589847 7.48794 0.589847 8.35253C0.589847 9.95603 2.24453 11.4447 5.28799 11.4447C11.1429 11.4447 17.9072 7.22487 17.9072 3.30783C17.9072 1.54955 16.2074 0.593586 15.0271 0.39594L15.005 0.464529C15.3721 0.578243 16.7168 1.19036 16.7168 2.75663C16.7168 5.87767 10.7445 10.1302 4.79534 10.1302C2.51781 10.1302 1.08296 9.0294 1.08296 7.4259C1.08296 6.9187 1.1908 6.58455 1.21937 6.48776L1.13987 6.45797Z" fill="white" fill-opacity="0.7"/>
<path fill-rule="evenodd" clip-rule="evenodd" d="M20.3219 3.6007C20.4825 3.72006 21.4468 4.50703 21.4468 5.99524C21.4468 11.0695 13.3271 16.0591 6.14864 16.0591C1.86781 16.0591 -0.0836643 13.9895 0.00274515 12.1518H0.0794768C0.247226 13.1062 1.63715 14.8139 5.38386 14.8139C12.5713 14.8139 20.5963 9.651 20.5963 5.12749C20.5963 4.35158 20.3811 3.86807 20.2594 3.65305L20.3219 3.6007Z" fill="white" fill-opacity="0.7"/>
<path fill-rule="evenodd" clip-rule="evenodd" d="M23.0351 8.33809C23.0687 8.44617 23.2436 8.93193 23.2436 9.69273C23.2436 15.3373 15.0264 20.1697 7.8798 20.1697C4.20153 20.1697 2.2807 18.4202 1.87515 17.7098L1.94059 17.6624C2.95838 18.5339 4.96308 19.1961 7.30259 19.1961C13.6144 19.1961 23.0326 14.4942 22.9485 8.35862L23.0351 8.33809Z" fill="white" fill-opacity="0.7"/>
</svg>
