<svg width="105" height="30" viewBox="0 0 105 30" fill="none" xmlns="http://www.w3.org/2000/svg">
<path opacity="0.7" fill-rule="evenodd" clip-rule="evenodd" d="M10.8626 0.0462815C9.39143 0.146911 7.61186 0.494132 6.40739 0.915425C2.38678 2.32191 0.15391 5.59846 0.50902 9.57083C0.751648 12.2852 1.97755 14.1136 4.39949 15.3735C5.4979 15.9448 6.39495 16.1979 10.896 17.2066C13.2842 17.7419 15.6176 18.2811 16.0813 18.4049C17.713 18.8406 18.8892 19.5072 19.2936 20.2255C19.555 20.6897 19.6531 21.3751 19.544 21.974C19.278 23.4334 18.1573 24.3797 16.1512 24.8385C14.7904 25.1498 12.914 25.2549 11.5288 25.0975C8.48306 24.7513 6.70422 23.4252 6.30326 21.2018L6.17938 20.515H3.08969H0L0.0469679 21.3336C0.124606 22.6873 0.613715 24.1326 1.40928 25.3594C1.91613 26.1409 3.2953 27.4425 4.15968 27.955C5.88561 28.9783 7.9929 29.6116 10.6619 29.9091C11.7245 30.0275 14.6391 30.031 15.5995 29.915C17.924 29.6342 19.9852 29.0125 21.6211 28.0986L22.1429 27.8071L22.1657 28.5632L22.1885 29.3192H25.2367H28.2849L28.2884 25.954L28.2918 22.5888L29.5732 21.3882C30.7649 20.2717 30.8616 20.1978 30.9542 20.3331C31.0091 20.4132 32.2676 22.4596 33.7511 24.8808L36.4483 29.2829L40.0742 29.3018C42.0684 29.3122 43.7 29.3043 43.7 29.2842C43.7 29.2641 41.819 26.3477 39.52 22.8033C37.2209 19.259 35.3513 16.3292 35.3651 16.2927C35.379 16.2563 37.0884 14.5344 39.1638 12.4663C41.2392 10.3982 43.0576 8.57996 43.2045 8.42585L43.4717 8.1455L39.7522 8.14935L36.0326 8.15321L32.1788 12.1689L28.3251 16.1845L28.3046 8.45415L28.2842 0.723769H25.2336H22.1831V1.92434C22.1831 2.58466 22.1543 3.12492 22.1191 3.12492C22.0839 3.12492 21.9123 2.98972 21.7377 2.82448C20.5244 1.67608 18.259 0.670435 16.0352 0.293237C14.4762 0.0287468 12.4989 -0.0656265 10.8626 0.0462815ZM13.8734 4.9786C14.8393 5.12129 15.3696 5.26994 16.0314 5.5834C17.3763 6.22043 18.2535 7.36265 18.4747 8.76485L18.532 9.12778L20.3575 9.14736L22.1831 9.16693V11.8577C22.1831 13.3376 22.1697 14.5486 22.1533 14.5486C22.1368 14.5486 21.746 14.3851 21.2848 14.1855C20.1223 13.6823 18.9113 13.3369 16.2017 12.7361C14.9211 12.4521 12.7549 11.9715 11.3878 11.6681C8.80156 11.0941 8.1139 10.8745 7.51849 10.4323C6.89281 9.96768 6.52903 9.19378 6.52903 8.3274C6.52903 6.59217 7.92683 5.39822 10.4403 4.98639C11.2707 4.85032 12.9791 4.84639 13.8734 4.9786ZM48.718 20.0056C47.2482 20.157 46.0205 20.904 45.3944 22.0281C44.474 23.6805 44.5609 26.2419 45.5862 27.6821C46.3627 28.7728 47.4266 29.2988 48.999 29.3695C51.2711 29.4715 52.8298 28.4658 53.4468 26.4997L53.5667 26.1177H52.5273C51.5916 26.1177 51.4877 26.1305 51.4861 26.2451C51.4831 26.4653 51.1681 27.0174 50.9012 27.2701C50.1274 28.0031 48.6784 28.0597 47.816 27.3907C46.9547 26.7226 46.5485 25.1084 46.8778 23.6632C47.1033 22.6742 47.5696 22.0436 48.3228 21.7097C48.7187 21.5342 48.8259 21.5189 49.467 21.5466C50.5368 21.593 51.058 21.9182 51.4098 22.7587L51.5518 23.0981L52.5536 23.1184L53.5555 23.1387L53.4841 22.7926C53.2988 21.8936 52.4818 20.8888 51.5851 20.4571C50.7956 20.0769 49.7004 19.9044 48.718 20.0056ZM63.7317 22.4108C62.3061 22.5783 61.2144 23.3855 60.7896 24.5863C60.5542 25.2516 60.5552 26.4661 60.7916 27.1409C61.2758 28.5227 62.5714 29.3162 64.3468 29.3184C65.4975 29.3198 66.3765 28.9977 67.079 28.317C67.7504 27.6666 68.027 26.9503 68.027 25.8631C68.027 24.507 67.5085 23.5117 66.4919 22.9162C65.7568 22.4857 64.7162 22.2951 63.7317 22.4108ZM85.89 22.4106C84.3609 22.5893 83.2785 23.4657 82.884 24.8444C82.7543 25.2979 82.7804 26.5411 82.9293 26.9958C83.3142 28.1716 84.1403 28.9126 85.4092 29.2202C85.9289 29.3462 87.0619 29.3449 87.589 29.2177C88.8404 28.9158 89.6879 28.1433 90.068 26.9584C90.262 26.3537 90.2019 24.9383 89.9581 24.3714C89.3602 22.981 87.7304 22.1955 85.89 22.4106ZM100.633 22.4135C99.9555 22.492 99.0438 22.8888 98.5847 23.3049C97.9092 23.9171 97.5727 24.7677 97.5727 25.8631C97.5727 26.9633 97.8519 27.6745 98.5442 28.3378C99.3058 29.0676 100.189 29.3558 101.501 29.302C102.743 29.2511 103.615 28.8732 104.25 28.1112C105.122 27.0637 105.252 25.2407 104.543 23.9813C103.908 22.8526 102.324 22.2177 100.633 22.4135ZM54.2177 25.8631V29.1737H55.141H56.0643V28.1344V27.0951L56.5155 26.6973C56.7636 26.4786 56.9815 26.3324 56.9997 26.3724C57.0178 26.4124 57.4036 27.0509 57.8569 27.7912L58.6812 29.1373L59.8221 29.1576L60.963 29.1777L60.7309 28.8301C60.6034 28.6389 60.0047 27.7199 59.4006 26.788L58.3022 25.0934L59.371 24.0335C59.9589 23.4506 60.5238 22.8788 60.6263 22.763L60.8128 22.5524H59.6862H58.5597L57.3749 23.7893C56.7233 24.4697 56.1619 25.0263 56.1273 25.0263C56.0926 25.0263 56.0643 24.4697 56.0643 23.7893V22.5524H55.141H54.2177V25.8631ZM69.4722 24.3915C69.4722 26.867 69.3388 27.7552 68.9467 27.8916C68.8753 27.9164 68.6391 27.9368 68.4219 27.9368H68.027V28.551C68.027 28.8951 68.0635 29.1856 68.11 29.2116C68.1557 29.2372 68.4613 29.2765 68.7892 29.2989C70.2108 29.3964 70.9153 28.8301 71.2053 27.3571C71.2714 27.0214 71.3143 26.2371 71.316 25.3334L71.3188 23.8579L72.3826 23.8782L73.4464 23.8985L73.4675 26.5361L73.4886 29.1737H74.4108H75.3332V25.8631V22.5524H72.4027H69.4722V24.3915ZM76.3769 25.8631V29.1737H77.3002H78.2235V28.1344V27.0951L78.6747 26.6973C78.9229 26.4786 79.1412 26.3324 79.1597 26.3724C79.1784 26.4124 79.5681 27.0509 80.0259 27.7912L80.8581 29.1373L81.9976 29.1576L83.1369 29.1778L82.975 28.9393C82.8859 28.8081 82.2855 27.8877 81.6405 26.894L80.4679 25.0873L81.6139 23.9472C82.244 23.3201 82.8093 22.7497 82.8699 22.6797C82.9737 22.5597 82.9149 22.5524 81.8533 22.5524H80.7265L79.5436 23.7893C78.8929 24.4697 78.3297 25.0263 78.2921 25.0263C78.2543 25.0263 78.2235 24.4697 78.2235 23.7893V22.5524H77.3002H76.3769V25.8631ZM90.9089 25.8636V29.1852L93.2573 29.1566C95.9279 29.1239 96.1287 29.0896 96.7314 28.5635C97.111 28.232 97.2514 27.8946 97.2493 27.3183C97.247 26.656 96.7494 26.0247 96.0695 25.8213C95.9248 25.7781 95.8064 25.7189 95.8064 25.69C95.8064 25.6611 95.9655 25.5673 96.1599 25.4817C96.6954 25.246 96.9573 24.8877 96.9959 24.3385C97.0495 23.5769 96.663 23.0988 95.7108 22.7488C95.3177 22.6043 95.1145 22.5901 93.0967 22.567L90.9089 22.542V25.8636ZM94.8525 23.8424C95.1738 24.0145 95.2933 24.4156 95.1292 24.7716C94.9569 25.145 94.6355 25.2446 93.6011 25.2446H92.7555V24.4806V23.7166H93.6865C94.4247 23.7166 94.6661 23.7426 94.8525 23.8424ZM64.9341 23.8705C65.6835 24.059 66.1001 24.7711 66.1001 25.8631C66.1001 26.651 65.9317 27.1435 65.5411 27.4975C64.9711 28.014 63.8993 28.0632 63.234 27.6032C62.3832 27.0152 62.247 25.1518 62.9947 24.3297C63.432 23.8489 64.1617 23.6761 64.9341 23.8705ZM87.197 23.902C87.8098 24.1339 88.124 24.5675 88.2616 25.3707C88.363 25.9631 88.2597 26.7079 88.0163 27.1404C87.5706 27.932 86.2196 28.1745 85.4021 27.6094C84.5061 26.9901 84.4522 24.8936 85.3135 24.1651C85.7357 23.808 86.622 23.6842 87.197 23.902ZM101.971 23.9022C102.744 24.1944 103.073 24.7961 103.064 25.8994C103.057 26.7106 102.861 27.2206 102.421 27.5704C101.916 27.9721 101.07 28.0363 100.395 27.7242C99.7756 27.4378 99.4996 26.8501 99.4996 25.8179C99.4996 24.7675 99.8612 24.1328 100.594 23.8959C101.011 23.7615 101.606 23.7642 101.971 23.9022ZM95.0112 26.4292C95.4703 26.7093 95.5488 27.3518 95.1709 27.7355L94.9368 27.9732L93.8863 27.9971L92.8358 28.0211V27.1347V26.2483L93.8193 26.2752C94.5866 26.2961 94.8486 26.33 95.0112 26.4292Z" fill="white"/>
</svg>
