<svg width="110" height="30" viewBox="0 0 110 30" fill="none" xmlns="http://www.w3.org/2000/svg">
<path opacity="0.7" fill-rule="evenodd" clip-rule="evenodd" d="M0.805872 0.0518922C0.461976 0.111961 0.0589075 0.521115 0.00100821 0.868772C-0.0443781 1.14037 1.45549 10.6654 1.89302 12.8848C3.1017 19.0159 6.11363 22.7073 11.0167 24.0668C12.988 24.6134 13.2423 24.1965 11.8571 22.69C10.9875 21.7443 10.1385 20.2304 9.63827 18.7337C9.00827 16.8482 8.70531 15.3462 7.54542 8.35578L7.20459 6.30192L7.40777 5.92827C7.73608 5.32444 7.69833 5.32797 13.8675 5.32206C22.8069 5.3135 24.8257 5.63374 27.6597 7.50987C29.8597 8.96637 30.2995 8.76608 29.2057 6.80589C27.0084 2.86838 22.0005 0.510929 14.9279 0.0844489C13.4242 -0.00617811 1.29791 -0.0341654 0.805872 0.0518922ZM50.4873 11.1193C40.855 12.7056 42.0502 25.3685 51.8308 25.3529C56.3967 25.3457 60.7561 21.2459 59.1544 18.4653C58.6608 17.6084 52.0563 17.5653 51.8181 18.4175C51.5917 19.2273 52.0536 19.4057 54.3758 19.4057C57.1218 19.4057 57.636 19.8229 56.7433 21.3264C54.6492 24.8534 48.5182 24.6038 46.4784 20.9084C43.1977 14.9648 51.017 9.9032 56.3501 14.5182C58.1818 16.1033 59.6108 15.6178 58.1982 13.8903C56.4957 11.8083 53.2929 10.6573 50.4873 11.1193ZM17.4526 11.5959C16.5776 11.9298 16.7016 12.3029 18.4824 14.6959C21.0997 18.2127 21.0946 17.6769 18.5469 21.4887C16.5331 24.5019 16.5169 24.9284 18.4166 24.9265C19.7327 24.9253 20.1007 24.6649 21.241 22.928C22.7548 20.6222 23.0885 20.6127 24.5769 22.8328C25.8455 24.725 26.2596 24.9964 27.7353 24.9026C29.4363 24.7945 29.3785 24.4651 27.0982 21.2745C24.7131 17.9372 24.7109 18.4596 27.1249 15.0246C29.2315 12.0272 29.285 11.6347 27.6023 11.5267C26.1962 11.4363 25.7907 11.6997 24.5321 13.5219C23.1457 15.5289 22.8773 15.5146 21.2699 13.3469C19.9898 11.6205 18.8081 11.0785 17.4526 11.5959ZM32.0227 11.664C31.0361 12.0311 30.047 18.2446 30.8591 18.9737C31.4293 19.4856 32.5578 19.4227 33.9206 18.803C36.501 17.6297 38.8673 18.8746 38.1669 21.0372C37.6244 22.7126 35.4607 22.9688 33.8565 21.5476C31.8421 19.7632 29.6697 20.6641 30.9148 22.7677C33.1325 26.5147 40.11 25.7478 41.2838 21.628C42.2765 18.1431 39.5158 15.5795 35.2351 16.0113C34.2231 16.1133 33.8565 15.924 33.8565 15.2991C33.8565 14.3092 34.2739 14.1748 37.3559 14.1718C39.4149 14.1699 39.7917 14.1468 40.1055 14.0031C41.1629 13.5191 41.2667 12.0141 40.2685 11.6397C39.7118 11.4309 32.5926 11.4519 32.0227 11.664ZM75.1482 14.0746C68.1987 14.9889 67.8289 23.9591 74.6867 25.2706C79.9578 26.2787 84.0229 21.3272 81.4895 16.9841C80.3226 14.9835 77.6301 13.7481 75.1482 14.0746ZM103.527 14.0791C102.723 14.1895 102.173 14.3781 101.338 14.8306C100.42 15.3273 100.049 15.3385 99.5445 14.8852C98.9009 14.3075 98.218 14.3269 97.88 14.9325C97.7085 15.2396 97.6945 15.7881 97.6945 22.214C97.6945 29.8946 97.6784 29.7072 98.357 29.9185C99.3709 30.2341 99.6026 29.7044 99.603 27.069C99.6034 24.1202 99.8524 23.7964 101.446 24.6725C103.661 25.89 106.548 25.5341 108.283 23.8294C112.186 19.9956 108.937 13.3361 103.527 14.0791ZM66.6649 14.21C66.4251 14.2773 65.8704 14.51 65.4323 14.7272C64.46 15.209 64.2257 15.2171 63.6545 14.7887C62.9702 14.2755 62.2944 14.3553 62.0018 14.9836C61.7516 15.5215 61.7835 24.0902 62.0376 24.5453C62.3549 25.1137 63.1471 25.1795 63.5206 24.6684C63.6844 24.4443 63.7154 24.0647 63.7713 21.5998C63.8702 17.2283 64.4294 16.3602 67.5146 15.7888C68.45 15.6157 68.843 15.1397 68.5727 14.5074C68.4033 14.1114 67.5111 13.9722 66.6649 14.21ZM84.8123 14.6828C84.3756 15.0748 84.2664 21.3823 84.6749 22.6091C85.5522 25.2431 88.6986 26.2025 91.4975 24.6894C92.2998 24.2557 92.6625 24.2557 93.2404 24.6891C93.9247 25.2023 94.6005 25.1225 94.8931 24.4942C95.1434 23.9563 95.1114 15.3876 94.8574 14.9325C94.6387 14.5407 94.2259 14.376 93.7972 14.5096C93.1954 14.6969 93.1349 14.9951 93.1327 17.7874C93.1291 22.3639 92.2842 23.7174 89.4229 23.7305C86.8431 23.7422 86.3477 22.8429 86.3477 18.1476C86.3477 15.1288 86.2979 14.7815 85.8334 14.5583C85.485 14.391 85.0828 14.44 84.8123 14.6828ZM77.3687 15.8777C81.7898 17.2433 81.0538 23.2713 76.4085 23.7416C74.1087 23.9745 72.0862 22.5308 71.7004 20.3811C71.1622 17.382 74.2629 14.9185 77.3687 15.8777ZM105.565 15.9968C109.372 17.5921 108.649 23.0982 104.553 23.7075C100.538 24.3048 98.0037 19.7263 100.781 16.8935C101.917 15.735 104.006 15.3436 105.565 15.9968Z" fill="white"/>
</svg>
