<svg width="113" height="30" viewBox="0 0 113 30" fill="none" xmlns="http://www.w3.org/2000/svg">
<path opacity="0.7" fill-rule="evenodd" clip-rule="evenodd" d="M7.63043 0.397143C5.35719 0.860571 3.58088 1.73857 2.37848 2.99371C0.84906 4.59029 0.379262 5.85771 0.363986 8.42857C0.345905 11.4769 1.30826 13.3929 3.91351 15.4946C4.92886 16.314 5.75997 17.0877 5.75997 17.214C5.75997 17.3403 4.52297 19.1437 3.01101 21.2217C1.49936 23.2997 0.158235 25.1609 0.0310434 25.3571C-0.146339 25.6314 0.408566 25.7143 2.41932 25.7143H5.03859L7.99455 21.6429C9.6203 19.4034 11.1915 17.2323 11.4858 16.8177L12.0207 16.0643L9.51337 14.454C6.0979 12.2606 5.29235 11.1051 5.29235 8.4C5.29235 6.75657 5.42453 6.16714 5.93361 5.54171C6.91872 4.33086 8.57658 3.69114 11.2008 3.50914L13.5536 3.346V14.5303V25.7143H15.8917H18.2297V12.8571V0L13.7874 0.0239999C11.3439 0.0371428 8.57346 0.205143 7.63043 0.397143ZM67.0985 7.26371C63.1543 8.554 61.3586 11.8543 61.6233 17.3277C61.835 21.7071 63.2868 24.0829 66.5501 25.3897C69.4016 26.5314 73.8147 26.4106 76.587 25.1143C77.7607 24.5654 77.7729 24.5423 77.7729 22.8514C77.7729 21.9117 77.7292 21.1429 77.6756 21.1429C77.622 21.1429 77.0104 21.3943 76.3164 21.7017C73.5566 22.9237 69.4356 22.9574 68.0034 21.7697C67.1508 21.0626 66.5501 19.8646 66.5501 18.8714V18H72.3626H78.1754L78.0067 15.1937C77.6625 9.47143 75.1231 6.83857 69.9793 6.87114C69.0363 6.87743 67.74 7.054 67.0985 7.26371ZM104.141 7.414C101.102 8.538 99.2206 11.0131 98.628 14.6651C97.9396 18.9063 99.3627 22.972 102.15 24.728C104.607 26.2754 109.08 26.6511 111.987 25.5543C112.972 25.1826 113 25.1249 113 23.4431C113 22.4923 112.947 21.7143 112.882 21.7143C112.817 21.7143 112.227 21.92 111.57 22.1717C109.955 22.79 107.176 22.8071 105.94 22.2066C104.306 21.4129 103.495 19.4951 103.496 16.4286C103.498 13.4186 104.107 11.9649 105.798 10.9323C107.049 10.1689 109.343 10.0811 111.285 10.7226C111.971 10.9489 112.637 11.1363 112.766 11.1386C112.895 11.1409 113 10.376 113 9.43857C113 7.28029 112.659 7.08543 108.639 6.948C106.225 6.86571 105.389 6.95229 104.141 7.414ZM22.2824 16.4286V25.7143H24.7764H27.2703V21.8471V17.98L30.4657 18.0614L33.6611 18.1429L33.7481 21.9286L33.835 25.7143H36.1641H38.4931V16.4286V7.14286H36.1644H33.8357L33.7484 10.7857L33.6611 14.4286L30.4657 14.51L27.2703 14.5914V10.8671V7.14286H24.7764H22.2824V16.4286ZM43.9923 11.3571C43.7628 16.0054 43.3997 18.5249 42.6356 20.7714C42.2141 22.0097 41.9962 22.2711 41.3247 22.3429L40.5195 22.4286L40.4325 26.2143L40.3455 30H42.6926H45.0397V27.8571V25.7143H50.3394H55.6391V27.8571V30H57.9771H60.3152V26.1429V22.2857H59.2241H58.133V14.7143V7.14286H51.1668H44.2005L43.9923 11.3571ZM81.2021 16.4286V25.7143H83.696H86.19V21.2383V16.7623L89.6712 21.2383L93.1525 25.7143H95.7503C97.179 25.7143 98.348 25.6383 98.348 25.5457C98.348 25.4529 96.7347 23.2814 94.763 20.7203C92.7912 18.1591 91.1779 15.924 91.1779 15.7534C91.1779 15.5111 95.9538 9.26657 97.4901 7.5C97.7336 7.22029 97.2672 7.14286 95.3434 7.14286H92.8863L89.6161 11.318L86.3459 15.4931L86.2595 11.318L86.1735 7.14286H83.6876H81.2021V16.4286ZM71.3768 10.5697C72.3255 10.9 73.0967 12.3706 73.0967 13.848V14.8571H69.8234H66.5501V13.9909C66.5501 11.2494 68.7841 9.666 71.3768 10.5697ZM53.406 12.1429C53.464 12.9286 53.4141 15.532 53.2954 17.9286L53.0793 22.2857H49.8057C46.8139 22.2857 46.5501 22.2426 46.7462 21.7857C47.2538 20.6026 47.885 16.7606 48.0624 13.7749L48.2538 10.5497L50.7774 10.632L53.301 10.7143L53.406 12.1429Z" fill="white"/>
</svg>
