<svg width="331" height="128" viewBox="0 0 331 128" fill="none" xmlns="http://www.w3.org/2000/svg">
<path d="M64 0L71.264 51.4184L119.426 32L78.528 64L119.426 96L71.264 76.5816L64 128L56.736 76.5816L8.57438 96L49.472 64L8.57438 32L56.736 51.4184L64 0Z" fill="white"/>
<g clip-path="url(#clip0_2095_190)">
<path d="M160 20V115.308L166.172 110.167L181.305 97.6107L188.97 112.639L190.663 116L194.048 114.22L205.596 108.288L208.881 106.706L207.288 103.345L200.319 89.8002L219.733 87.4274L227.398 86.5376L222.022 81.1988L166.471 26.3275L160 20ZM167.467 38.0927L210.872 81.001L194.048 83.0772L188.771 83.7693L191.16 88.5149L198.926 103.444L194.048 106.014L185.884 89.8991L183.694 85.7467L179.911 89.207L167.467 99.0937V38.0927Z" fill="white"/>
</g>
<g clip-path="url(#clip1_2095_190)">
<path d="M287.975 44.595C287.975 35.4868 287.975 26.3787 287.975 16.9635C289.468 16.8611 290.96 16.8099 292.658 16.7076C292.761 15.1725 292.813 13.6374 292.916 12C295.952 12 298.886 12 301.974 12C302.077 13.5863 302.179 15.0702 302.282 16.7076C303.878 16.8099 305.267 16.8611 307.069 16.9635C307.069 24.4342 307.069 31.905 307.069 39.4781C308.921 39.5804 310.414 39.6827 312.112 39.7851C312.112 41.3713 312.112 42.8041 312.112 44.5439C316.796 44.5439 321.273 44.5439 326.162 44.5439C326.059 46.4371 325.956 47.9722 325.905 49.5585C323.023 49.5585 320.141 49.5585 317.259 49.5585C317.259 57.848 317.259 65.7281 317.259 73.557C320.295 73.557 323.177 73.557 326.162 73.557C326.162 68.0307 326.214 62.6579 326.162 57.3363C326.162 54.7266 325.956 52.117 325.854 49.5073C327.552 49.6097 329.25 49.7632 331.103 49.8655C331.103 62.6067 331.103 75.2456 331.103 88.1404C329.61 88.2427 328.118 88.345 326.265 88.4474C326.265 93.2061 326.265 97.9137 326.265 102.775C324.515 102.877 323.126 102.98 321.273 103.082C321.273 106.766 321.119 110.399 321.325 114.032C321.479 116.437 320.604 117 318.288 117C304.392 116.898 290.497 116.949 276.653 116.949C275.829 116.949 274.954 116.949 273.874 116.949C273.874 112.241 273.874 107.841 273.874 103.235C272.124 103.133 270.683 103.031 268.984 102.877C268.984 99.3977 268.984 95.9693 268.984 92.5921L268.933 92.6433C270.528 92.6433 272.124 92.6433 274.028 92.6433C274.028 96.2763 274.028 99.5512 274.028 102.877C275.778 102.98 277.219 103.031 278.814 103.133C278.814 106.05 278.814 108.762 278.814 111.576C291.372 111.576 303.723 111.576 316.332 111.576C316.332 108.557 316.332 105.794 316.332 102.98C318.031 102.877 319.472 102.826 321.222 102.775C321.222 97.8626 321.222 93.155 321.222 88.3962C323.023 88.2427 324.515 88.1404 326.008 88.038C326.008 84.8655 326.008 81.9488 326.008 78.6228C323.023 78.6228 320.141 78.6228 317.259 78.6228C317.156 76.7807 317.053 75.2968 316.95 73.8129C315.252 73.7105 313.759 73.6594 312.318 73.6082C312.215 72.6871 312.061 71.7661 312.061 70.845C312.061 63.0673 312.061 55.3406 312.061 47.5629C312.061 46.693 312.061 45.7719 312.061 44.9021C308.51 44.9021 305.422 44.9021 302.282 44.9021C302.282 47.9211 302.282 50.6842 302.282 53.5497C303.929 53.652 305.422 53.7544 307.12 53.9079C307.12 60.5599 307.12 67.0073 307.12 73.557C309.024 73.557 310.723 73.557 312.37 73.557C312.215 75.1944 312.061 76.8319 311.855 78.7763C310.157 78.7763 308.561 78.7763 306.966 78.7763C302.334 78.7763 302.334 78.7763 301.922 74.3246C301.922 74.1711 301.716 74.0687 301.356 73.6082C298.577 73.6082 295.54 73.6082 292.453 73.6082L292.504 73.7105C292.555 72.1754 292.658 70.6915 292.761 68.8494C295.849 68.8494 298.783 68.8494 301.768 68.8494C301.768 65.3187 301.768 62.1462 301.768 58.9225C296.981 58.9225 292.453 58.9225 287.924 58.9225L288.027 59.0249C288.027 57.2851 288.027 55.5453 288.027 53.8056L287.975 53.8567C291.011 53.8567 294.048 53.8567 297.187 53.8567C297.187 48.8933 297.187 44.4927 297.187 39.8874C298.834 39.7851 300.327 39.6316 301.871 39.5292C301.871 31.9561 301.871 24.5366 301.871 17.117C298.783 17.117 295.952 17.117 292.864 17.117C292.864 26.3787 292.864 35.4868 292.864 44.9532C291.011 44.7997 289.468 44.6462 287.975 44.595Z" fill="white"/>
<path d="M268.933 68.6447C268.933 62.2997 268.933 55.9546 268.933 49.6608L268.881 49.7119C270.477 49.7119 272.072 49.7119 273.976 49.7119C273.976 54.5219 273.976 58.9736 273.976 63.4766C275.726 63.4766 277.167 63.4766 278.66 63.4766C278.763 61.9415 278.814 60.5087 278.917 58.9736C282.056 58.9736 284.99 58.9736 287.975 58.9736L287.872 58.8713C287.872 60.3552 287.872 61.8391 287.872 63.6812C284.681 63.6812 281.851 63.6812 278.917 63.6812C278.814 65.4722 278.711 66.9561 278.608 68.5935C275.263 68.5935 272.021 68.5935 268.83 68.5935L268.933 68.6447Z" fill="white"/>
<path d="M268.933 22.0804C268.933 20.4941 268.933 18.9079 268.933 17.1169C271.815 17.1169 274.903 17.1169 277.991 17.1169L278.042 21.7734C279.535 21.8757 282.777 21.7222 282.777 21.7222C282.777 29.2441 282.777 37.0731 282.777 44.4927L282.828 44.4415C281.284 44.5438 279.689 44.6974 277.836 44.8509C277.836 37.0219 277.836 29.6023 277.836 21.9269C274.645 21.9269 271.763 21.9269 268.881 21.9269L268.933 22.0804Z" fill="white"/>
<path d="M268.933 49.6609C267.337 49.6609 265.69 49.6609 263.941 49.6609C263.941 40.5015 263.941 31.4445 263.941 22.1316C265.588 22.1316 267.286 22.1316 268.933 22.1316L268.881 22.0293C268.881 31.2398 268.881 40.5015 268.881 49.712L268.933 49.6609Z" fill="white"/>
<path d="M268.933 92.6432C267.337 92.6432 265.742 92.6432 263.786 92.6432C263.786 89.3172 263.786 86.0935 263.786 82.921L263.735 82.9722C265.382 82.9722 267.029 82.9722 268.881 82.9722C268.881 86.5029 268.881 89.6242 268.881 92.6944L268.933 92.6432Z" fill="white"/>
<path d="M263.735 82.9211C262.242 82.9722 260.698 83.0746 259 83.1257C259 79.8509 259 76.8319 259 73.6594C260.595 73.5059 262.191 73.4035 263.735 73.25L263.683 73.1989C263.683 76.4737 263.683 79.7486 263.683 83.0234L263.735 82.9211Z" fill="white"/>
<path d="M282.726 44.595C284.475 44.595 286.225 44.595 287.924 44.595L287.872 44.5438C287.872 47.614 287.872 50.7353 287.872 53.8055L287.924 53.7543C287.1 53.7543 286.225 53.652 285.402 53.8055C283.24 54.1125 282.623 53.1403 282.777 51.0935C282.931 48.9444 282.777 46.7441 282.777 44.5438L282.726 44.595Z" fill="white"/>
<path d="M263.735 73.2499C263.735 71.8684 263.735 70.4356 263.735 68.6447C265.639 68.6447 267.234 68.6447 268.881 68.6447L268.83 68.5935C268.83 70.1798 268.83 71.7149 268.83 73.6081C266.823 73.4546 265.227 73.3011 263.683 73.1476L263.735 73.2499Z" fill="white"/>
<path d="M283.292 82.921C283.292 84.3538 283.292 85.7865 283.292 87.4239C281.593 87.4239 280.101 87.4239 278.454 87.4239C278.454 86.0424 278.454 84.7631 278.454 82.9722C280.152 82.9722 281.748 82.9722 283.343 82.9722L283.292 82.921Z" fill="white"/>
<path d="M292.401 73.6082C292.453 75.0921 292.555 76.576 292.607 78.3669C290.857 78.3669 289.416 78.3669 287.924 78.3669L287.975 78.4181C287.975 76.9853 287.975 75.5526 287.975 73.9152C289.468 73.864 290.96 73.7617 292.453 73.7105C292.504 73.6593 292.401 73.6082 292.401 73.6082Z" fill="white"/>
<path d="M283.343 82.9722C283.343 81.5395 283.343 80.1579 283.343 78.367C284.99 78.367 286.483 78.367 288.027 78.367L287.975 78.3158C287.975 79.7485 287.975 81.1301 287.975 82.9211C286.277 82.9211 284.784 82.9211 283.292 82.9211C283.292 82.9211 283.343 82.9722 283.343 82.9722Z" fill="white"/>
</g>
<defs>
<clipPath id="clip0_2095_190">
<rect width="67" height="96" fill="white" transform="translate(160 20)"/>
</clipPath>
<clipPath id="clip1_2095_190">
<rect width="72" height="105" fill="white" transform="translate(259 12)"/>
</clipPath>
</defs>
</svg>
