<svg width="121" height="23" viewBox="0 0 121 23" fill="none" xmlns="http://www.w3.org/2000/svg">
<path d="M54.5107 11.5684C54.5107 16.141 51.7117 18.3101 48.2082 18.3101H46.0747V15.5548H48.0516C50.1655 15.5548 51.5747 14.4214 51.5747 11.5489C51.5747 8.71538 50.2438 7.30841 47.9929 7.30841C45.8203 7.30841 44.274 8.63721 44.274 11.4902V22.9805H41.3381V4.92438H44.2544V6.48768H44.6655C45.6441 5.17842 47.073 4.59218 48.5801 4.59218C51.8096 4.59218 54.5107 6.93713 54.5107 11.5684ZM35.3292 10.3764L33.3915 10.181C31.8648 10.0442 31.0623 9.63381 31.0623 8.73492C31.0623 7.67969 32.0996 7.07392 33.5676 7.07392C35.0943 7.07392 36.073 7.79694 36.1512 8.81308H38.9502C38.8327 6.19456 36.8167 4.59218 33.5872 4.59218C30.3381 4.59218 28.1459 6.31181 28.1459 8.83263C28.1459 10.9431 29.4769 12.311 32.5107 12.6041L34.4875 12.7995C35.6815 12.9167 36.484 13.1512 36.484 14.3042C36.484 15.3398 35.7402 16.0824 33.7633 16.0824C31.9431 16.0824 31.0427 15.2617 30.7295 14.1478H27.6957C27.9893 16.6686 30.1228 18.6228 33.7633 18.6228C37.1886 18.6228 39.4004 16.825 39.4004 14.1478C39.3808 11.8224 37.8345 10.6109 35.3292 10.3764ZM65.8043 14.1674C65.3541 15.2226 64.258 16.0042 62.6922 16.0042C60.5587 16.0042 58.9733 14.6168 58.9733 11.627C58.9733 8.774 60.4413 7.19116 62.7313 7.19116C64.7669 7.19116 65.9217 8.40272 66.0392 10.2396H60.7936V12.35H68.9164V10.9626C68.9164 7.113 66.3523 4.61172 62.7118 4.61172C59.3256 4.61172 56.0765 6.91759 56.0765 11.627C56.0765 16.3364 59.3256 18.6423 62.7118 18.6423C65.8043 18.6423 68.0356 16.7273 68.7206 14.1674H65.8043ZM19.7883 4.59218C16.5979 4.59218 14.21 6.25319 13.9164 8.81308H17.048C17.2633 7.87511 18.1246 7.17162 19.7687 7.17162C21.8826 7.17162 22.5676 8.28547 22.5676 9.63381V14.2065C21.3737 15.5743 19.984 16.1997 18.5943 16.1997C17.1459 16.1997 16.1477 15.4962 16.1477 14.2651C16.1477 13.0731 16.9306 12.3305 18.4181 12.3305H20.7473V10.2396H18.3203C14.9929 10.2396 13.1139 11.9006 13.1139 14.4605C13.1139 16.8445 14.9146 18.6423 17.8897 18.6423C19.5534 18.6423 21.0214 17.9779 22.1174 17.1767H22.5285V18.3101H25.4448V9.37978C25.5231 6.07732 23.2722 4.59218 19.7883 4.59218ZM0 18.3101H2.91637V0H0V18.3101ZM12.2527 4.92438H8.69039L4.44306 10.5132V12.2523L8.80783 18.3101H12.4288L7.30071 11.373L12.2527 4.92438ZM117.77 4.92438L115.383 10.2201C114.795 11.4902 114.247 12.7409 114.071 13.5811H113.66C113.484 12.7409 112.916 11.5293 112.329 10.2591L109.941 4.92438H106.712L112.329 16.9422L109.55 23H112.662L121 4.92438H117.77ZM106.066 4.92438H102.504L98.2562 10.4936V12.2328L102.621 18.2906H106.242L101.133 11.3534L106.066 4.92438ZM87.7847 10.3764L85.847 10.181C84.3203 10.0442 83.5178 9.63381 83.5178 8.73492C83.5178 7.67969 84.5552 7.07392 86.0231 7.07392C87.5498 7.07392 88.5285 7.79694 88.6068 8.81308H91.4057C91.2883 6.19456 89.2722 4.59218 86.0427 4.59218C82.7936 4.59218 80.6014 6.31181 80.6014 8.83263C80.6014 10.9431 81.9324 12.311 84.9662 12.6041L86.9431 12.7995C88.137 12.9167 88.9395 13.1512 88.9395 14.3042C88.9395 15.3398 88.1957 16.0824 86.2189 16.0824C84.3986 16.0824 83.4982 15.2617 83.1851 14.1478H80.1512C80.4448 16.6686 82.5783 18.6228 86.2189 18.6228C89.6441 18.6228 91.8559 16.825 91.8559 14.1478C91.8559 11.8224 90.29 10.6109 87.7847 10.3764ZM93.8132 18.3101H96.7295V0H93.8132V18.3101ZM74.5534 6.48768H74.1423V4.92438H71.226V18.3101H74.1423V11.3144C74.1423 8.93033 75.2384 7.54291 77.4306 7.54291H79.2705V4.59218H78.194C76.1779 4.59218 75.3167 5.35429 74.5534 6.48768Z" fill="white" fill-opacity="0.7"/>
</svg>
