<svg width="120" height="27" viewBox="0 0 120 27" fill="none" xmlns="http://www.w3.org/2000/svg">
<path fill-rule="evenodd" clip-rule="evenodd" d="M30.7996 17.562H33.5769C34.6605 17.562 35.0725 17.9263 35.0725 18.8185C35.0725 19.6776 34.6602 20.0415 33.5769 20.0415H30.7996V17.562ZM26.4971 26.5866H30.7998V22.9169H35.4085C38.4598 22.9169 39.5584 21.1657 39.5584 18.9016C39.5584 16.2733 38.4288 14.7861 35.3774 14.7861H26.4971V26.5866ZM40.9774 14.7861H52.5577V17.6613H45.2801V19.248H52.0397V22.1243H45.2801V23.7108H52.5577V26.5866H40.9774V14.7861ZM58.6614 17.562H61.4385C62.5218 17.562 62.9341 17.9263 62.9341 18.8185C62.9341 19.6776 62.5218 20.0415 61.4385 20.0415H58.6614V17.562ZM54.3587 26.5866H58.6614V22.9169H63.2693C66.3214 22.9169 67.4202 21.1657 67.4202 18.9016C67.4202 16.2733 66.2906 14.7861 63.2386 14.7861H54.3587V26.5866ZM71.585 21.5787C69.4797 21.2311 68.6106 19.9089 68.6106 18.2566C68.6106 15.1985 71.3724 14.3729 74.9114 14.3729C79.763 14.3729 81.7622 15.7442 81.9149 18.2402H76.91C76.91 17.7608 76.6505 17.4627 76.2545 17.2976C75.8729 17.1162 75.385 17.0503 74.9114 17.0503C73.6298 17.0503 73.1878 17.3969 73.1878 17.8932C73.1878 18.2231 73.3245 18.4388 73.7518 18.5046L78.8936 19.3306C81.0606 19.6776 82.4035 20.7685 82.4035 22.7678C82.4035 25.6446 80.2367 26.9998 75.3996 26.9998C72.0888 26.9998 68.4724 26.5041 68.4574 23.0332H73.6451C73.6597 23.4294 73.7976 23.6938 74.1032 23.8757C74.4227 24.0412 74.896 24.1241 75.5672 24.1241C76.9096 24.1241 77.2764 23.7271 77.2764 23.165C77.2764 22.818 77.0776 22.4711 76.499 22.3725L71.585 21.5787ZM83.8066 14.7861H88.1091V26.5866H83.8066V14.7861ZM104.055 21.9919C103.78 23.5455 103.291 24.8017 102.223 25.6608C101.171 26.5204 99.5227 26.9998 96.8988 26.9998C94.2897 26.9998 89.4528 26.801 89.4528 20.6867C89.4528 14.5711 94.2897 14.3727 96.8988 14.3727C99.492 14.3727 103.49 14.736 104.055 19.4139H99.2029C99.0808 18.5702 98.5612 17.3473 96.8988 17.3473C95.1432 17.3473 94.0296 18.2893 94.0296 20.6865C94.0296 23.083 95.1132 24.0244 96.6848 24.0244C98.0431 24.0244 98.8517 23.4129 99.2027 21.9917L104.055 21.9919ZM109.685 20.6869C109.685 18.2895 110.799 17.3477 112.554 17.3477C114.308 17.3477 115.423 18.2897 115.423 20.6869C115.423 23.0834 114.308 24.0248 112.554 24.0248C110.799 24.0246 109.685 23.0832 109.685 20.6869ZM105.107 20.6869C105.107 26.801 109.944 27 112.554 27C115.163 27 120 26.8012 120 20.6869C120 14.5713 115.163 14.3729 112.554 14.3729C109.944 14.3729 105.107 14.5711 105.107 20.6869ZM19.9955 14.9031C20.2733 9.24157 15.2619 2.86589 8.42999 2.07781L8.44166 2.00044C15.1769 2.00044 20.3402 8.07519 20.3402 12.8676C20.3338 13.8653 20.2529 14.4834 20.1087 14.9321L19.9955 14.9031ZM19.5874 15.6227C19.1393 16.1562 18.5757 16.6933 17.9154 17.2032C16.7007 10.3968 11.567 4.44509 7.93748 2.70791L7.85973 2.7607C11.5099 5.67929 15.8635 11.3477 17.5565 17.4702C16.6929 18.0882 15.7601 18.6087 14.7759 19.0216C11.3315 15.1947 8.12027 7.81426 7.08544 3.13088L6.98018 3.16174C7.00353 7.70786 10.3164 15.4254 14.3565 19.1911C13.4299 19.5484 12.4666 19.8077 11.4832 19.9646C7.61046 18.4698 4.85383 13.6825 4.85383 8.77839C4.85383 5.57694 5.85573 3.5965 6.04957 3.19119L5.96703 3.15931C5.73255 3.50492 4.26482 5.48435 4.26482 8.94064C4.26482 14.484 7.07085 18.721 10.7962 20.0553C9.46403 20.1981 8.11709 20.1365 6.80448 19.8728L6.77676 19.9573C7.17527 20.1002 8.52732 20.6531 10.5899 20.6531C15.2551 20.6531 18.4087 17.8292 19.6783 15.6826L19.5874 15.6227Z" fill="white" fill-opacity="0.7"/>
<path fill-rule="evenodd" clip-rule="evenodd" d="M10.1234 0C6.5869 0 2.44008 2.48668 2.44008 4.75973C2.44008 5.63898 3.26565 6.38178 4.97432 6.38178C8.94084 6.38178 12.626 3.72676 12.626 1.66225C12.626 0.575879 11.5551 0 10.1234 0ZM11.5353 1.59808C11.5353 3.33831 8.10527 5.46557 5.23797 5.46557C3.97117 5.46557 3.2867 4.97985 3.2867 4.17837C3.2867 2.41317 6.75572 0.322054 9.44523 0.322054C11.1987 0.322054 11.5353 1.19135 11.5353 1.59808Z" fill="white" fill-opacity="0.7"/>
<path fill-rule="evenodd" clip-rule="evenodd" d="M1.03104 5.81218C0.931621 5.9797 0.53353 6.73915 0.53353 7.51728C0.53353 8.96043 2.03023 10.3002 4.7831 10.3002C10.079 10.3002 16.1975 6.50238 16.1975 2.97705C16.1975 1.39459 14.6599 0.534227 13.5924 0.356346L13.5724 0.418076C13.9044 0.520419 15.1208 1.07132 15.1208 2.48097C15.1208 5.2899 9.7186 9.11719 4.33749 9.11719C2.27742 9.11719 0.979559 8.12646 0.979559 6.68331C0.979559 6.22683 1.0771 5.92609 1.10295 5.83898L1.03104 5.81218Z" fill="white" fill-opacity="0.7"/>
<path fill-rule="evenodd" clip-rule="evenodd" d="M18.3816 3.24063C18.5269 3.34805 19.3991 4.05633 19.3991 5.39571C19.3991 9.96254 12.0546 14.4532 5.56159 14.4532C1.68947 14.4532 -0.0756762 12.5906 0.00248305 10.9366H0.0718885C0.223622 11.7956 1.48084 13.3325 4.86983 13.3325C11.371 13.3325 18.6298 8.6859 18.6298 4.61474C18.6298 3.91642 18.4352 3.48126 18.3251 3.28774L18.3816 3.24063Z" fill="white" fill-opacity="0.7"/>
<path fill-rule="evenodd" clip-rule="evenodd" d="M20.8358 7.50428C20.8662 7.60155 21.0244 8.03874 21.0244 8.72345C21.0244 13.8036 13.5918 18.1527 7.12746 18.1527C3.80037 18.1527 2.06295 16.5782 1.69612 15.9388L1.75531 15.8961C2.67592 16.6806 4.48922 17.2765 6.60536 17.2765C12.3145 17.2765 20.8335 13.0448 20.7574 7.52276L20.8358 7.50428Z" fill="white" fill-opacity="0.7"/>
</svg>
