<svg width="129" height="29" viewBox="0 0 129 29" fill="none" xmlns="http://www.w3.org/2000/svg">
<path fill-rule="evenodd" clip-rule="evenodd" d="M33.7872 20.9366V9.16049H43.7137V20.9366H41.289V11.4114H36.2113V20.9366H33.7872ZM50.8061 14.1507H49.4301C48.2836 14.1507 47.7101 14.5448 47.7101 15.3158C47.7101 16.0715 48.2676 16.449 49.3815 16.449C49.8732 16.449 50.3477 16.4182 50.8061 16.3394V14.1507ZM53.0505 12.3561V20.936H50.8061V17.959C50.3713 18.0354 49.911 18.1358 49.3547 18.1512L47.4971 20.936H44.9746L47.1934 17.8482C46.0296 17.3758 45.4171 16.5598 45.4171 15.2844C45.4171 13.5367 46.7433 12.3561 49.3649 12.3561H53.0505ZM68.219 13.0803C68.9063 13.7257 69.2504 14.6076 69.2504 15.7568V20.936H66.9414V16.1657C66.9414 14.8595 66.2208 14.1667 65.1555 14.1667C63.9917 14.1667 63.1899 14.9697 63.1899 16.2291V20.9366H60.8803V16.1823C60.8803 14.9069 60.1756 14.1667 59.0784 14.1667C57.9485 14.1667 57.1294 14.9697 57.1294 16.2451V20.9366H54.8198V12.3561H57.0802V13.5841C57.5879 12.6868 58.6359 12.1048 59.799 12.1202C60.9129 12.1202 61.9449 12.64 62.42 13.6315C63.0754 12.6868 64.2871 12.1202 65.6139 12.1202C66.6792 12.1202 67.5469 12.4337 68.219 13.0803ZM87.3352 18.4012C87.7937 17.9289 88.0232 17.3469 88.0232 16.6547C88.0232 15.9612 87.7937 15.3793 87.3352 14.9063C86.8767 14.4346 86.2865 14.1981 85.5499 14.1981C84.8293 14.1981 84.2391 14.4346 83.7813 14.9063C83.3222 15.3793 83.0926 15.9612 83.0926 16.6547C83.0926 17.3469 83.3228 17.9295 83.7813 18.4018C84.2397 18.8742 84.8293 19.11 85.5499 19.11C86.2865 19.11 86.8767 18.8736 87.3352 18.4012ZM89.1045 13.4424C89.9396 14.3083 90.3494 15.3793 90.3494 16.6387C90.3494 17.8981 89.9236 18.9684 89.0878 19.8349C88.2528 20.7001 87.2048 21.1405 85.9425 21.1405C84.8459 21.1405 83.8331 20.6798 83.1418 19.8644V24.4629H80.8322V12.3561H83.1252V13.4819C83.8586 12.6024 84.8293 12.1362 85.9592 12.1362C87.2207 12.1362 88.2687 12.5766 89.1045 13.4424ZM95.9681 19.0946C96.6721 19.0946 97.2456 18.8582 97.7201 18.3858C98.1958 17.8981 98.4414 17.3155 98.4414 16.6387C98.4414 15.9612 98.1958 15.3793 97.7207 14.9069C97.2456 14.4346 96.6721 14.1987 95.9681 14.1987C95.2634 14.1987 94.6739 14.4346 94.1988 14.9069C93.7243 15.3793 93.4948 15.9619 93.4948 16.6387C93.4948 17.3155 93.7243 17.8981 94.1988 18.3858C94.6739 18.8582 95.2634 19.0946 95.9681 19.0946ZM92.528 13.4424C93.4295 12.5606 94.576 12.1202 95.9681 12.1202C97.3601 12.1202 98.5066 12.5606 99.4082 13.4424C100.308 14.3083 100.751 15.3793 100.751 16.6387C100.751 17.9135 100.308 18.9844 99.4082 19.8503C98.5066 20.7155 97.3601 21.1571 95.9681 21.1571C94.576 21.1571 93.4295 20.7155 92.528 19.8503C91.627 18.9844 91.1852 17.9141 91.1852 16.6387C91.1852 15.3793 91.627 14.3083 92.528 13.4424ZM107.254 12.3561H109.564V20.9366H107.254V18.0483C106.578 18.4197 105.846 18.6063 105.272 18.6063C104.208 18.6063 103.421 18.4172 102.717 17.9609C102.013 17.4731 101.62 16.5598 101.62 15.237V12.3561H103.913V15.08C103.913 16.0875 104.453 16.5912 105.534 16.5912C106.141 16.5912 106.657 16.51 107.255 16.2802L107.254 12.3561ZM117.198 20.9366L113.643 16.9743V20.9366H111.333V12.3432H113.643V15.7475L116.886 12.3561H119.802L115.822 16.3301L120.032 20.9366H117.198Z" fill="white" fill-opacity="0.7"/>
<path fill-rule="evenodd" clip-rule="evenodd" d="M126.118 14.891C125.642 14.4026 125.052 14.1667 124.332 14.1667C123.595 14.1667 123.005 14.4026 122.53 14.891C122.071 15.3793 121.842 15.9613 121.842 16.6381C121.842 17.3309 122.071 17.9135 122.546 18.4019C123.021 18.8896 123.611 19.1255 124.332 19.1255C125.052 19.1255 125.642 18.8896 126.118 18.4019C126.592 17.9135 126.838 17.3309 126.838 16.6381C126.838 15.9613 126.592 15.3793 126.118 14.891ZM126.806 12.3562H129V20.9361H126.806V19.8029C126.038 20.6971 125.086 21.1412 123.955 21.1412C122.677 21.1412 121.613 20.7162 120.777 19.8504C119.942 18.9845 119.533 17.8981 119.533 16.6073C119.533 15.3159 119.959 14.2456 120.794 13.4111C121.629 12.5613 122.694 12.1363 123.955 12.1363C125.069 12.1363 126.052 12.6228 126.806 13.4813V12.3562ZM75.6402 10.1995C75.6402 9.45987 76.2463 8.90869 77.0322 8.90869C77.802 8.90869 78.3922 9.49128 78.3922 10.1995C78.3922 10.9711 77.802 11.5377 77.0322 11.5377C76.2463 11.5377 75.6402 10.9711 75.6402 10.1995ZM72.7902 15.7729H77.3276C77.1147 14.6545 76.2789 13.9783 75.0998 13.9783C73.9361 13.9783 73.0684 14.6551 72.7902 15.7729ZM73.4616 8.90869C74.2315 8.90869 74.8377 9.49128 74.8377 10.1995C74.8377 10.9711 74.2481 11.5377 73.4616 11.5377C72.6751 11.5377 72.0856 10.9711 72.0856 10.1995C72.0856 9.49128 72.6918 8.90869 73.4616 8.90869ZM79.4895 17.4258H72.7902C73.1176 18.6378 73.986 19.2518 75.3946 19.2518C76.3608 19.2518 77.4369 18.9038 78.2528 18.2818L79.1826 19.6878C78.0553 20.7021 76.7707 21.1252 75.2962 21.1252C73.7232 21.1252 72.5274 20.6848 71.6924 19.8189C70.8573 18.9531 70.4474 17.8821 70.4474 16.6387C70.4474 15.3319 70.8732 14.2616 71.7416 13.4117C72.6099 12.5613 73.7238 12.1357 75.0998 12.1357C76.394 12.1357 77.4747 12.5292 78.3097 13.3009C79.1455 14.0725 79.5713 15.1115 79.5713 16.4491C79.5713 16.7484 79.5394 17.0797 79.4895 17.4258Z" fill="white" fill-opacity="0.7"/>
<path fill-rule="evenodd" clip-rule="evenodd" d="M15.0552 0C6.7536 0 0 6.50464 0 14.5C0 22.4954 6.7536 29 15.0552 29C23.3562 29 30.1105 22.4954 30.1105 14.5C30.1105 6.50464 23.3562 0 15.0552 0ZM23.8339 5.0105C22.1343 8.57617 18.3463 8.93335 15.0994 8.93335C14.6846 8.93335 14.28 8.92773 13.8897 8.92212C13.609 8.91821 13.3356 8.91455 13.0711 8.91309L12.2532 11.9937C16.4415 8.70508 21.9802 11.9653 21.3881 16.9277C20.9891 20.2698 18.5151 22.4556 15.8979 23.0837C13.0468 23.7686 9.88806 22.7437 8.47174 19.9453C8.32147 19.6497 8.05994 19.0574 7.96014 18.7407L10.9667 17.9968C11.0198 18.1636 11.11 18.325 11.2046 18.4722C13.2175 21.5989 17.2964 20.0352 17.7568 16.7915C18.2255 13.4919 13.4183 11.7344 11.2276 15.5906L8.56122 14.4963L8.5152 14.4766L9.80109 9.50488C9.88037 9.15137 10.1476 8.16431 10.1937 8.0022C11.6471 2.85498 16.3488 2.77368 20.1201 2.76025C18.5605 2.13525 16.8507 1.78906 15.0558 1.78906C7.76642 1.78906 1.85815 7.47949 1.85815 14.5C1.85815 21.5208 7.76642 27.2109 15.0558 27.2109C22.3453 27.2109 28.2535 21.5208 28.2535 14.5C28.2535 10.7261 26.545 7.33838 23.8339 5.0105ZM15.0989 7.52856C18.8882 7.52856 21.504 6.93799 22.6531 4.09961C21.9167 4.1582 21.114 4.16113 20.2756 4.16431H20.2706C18.3421 4.16992 16.1566 4.17725 14.4755 4.89771C13.2695 5.41504 12.4223 6.26807 11.8916 7.52319C12.1992 7.51025 12.5112 7.50635 12.8207 7.50635C13.1155 7.50635 13.4153 7.51025 13.7282 7.51465L13.9007 7.51685C14.2894 7.52246 14.6923 7.52856 15.0989 7.52856Z" fill="white" fill-opacity="0.7"/>
</svg>
