<svg width="75" height="29" viewBox="0 0 75 29" fill="none" xmlns="http://www.w3.org/2000/svg">
<g opacity="0.7">
<path d="M6.99104 1.05864C7.5703 1.71383 7.84994 2.38887 7.84994 3.02422C7.84994 3.30218 7.65019 3.52056 7.37055 3.52056H6.83124H6.35185C6.07221 3.52056 5.89244 3.36173 5.81255 3.02422C5.67272 2.508 5.23328 1.97194 4.61406 1.97194C3.91495 1.97194 3.33568 2.52786 3.33568 3.18305C3.33568 3.52056 3.51547 3.81838 3.79511 4.09633H2.51673C2.79638 4.37429 3.19587 4.63241 3.6353 4.87065H4.37438C4.41432 4.89051 4.43429 4.91036 4.47425 4.93022C4.71394 5.04934 4.9736 5.18832 5.25324 5.32729C6.41177 5.98248 7.5703 7.03477 7.55032 8.8415C7.55032 9.73493 7.21076 10.4894 6.53162 11.1446C5.85249 11.7998 5.0535 12.1174 4.09472 12.1174C3.13595 12.1174 2.33696 11.7998 1.65783 11.1446C0.978691 10.4894 0.639122 9.71508 0.639122 8.80179C0.639122 8.52383 0.858842 8.30543 1.13849 8.30543H1.37818H1.6778H2.11724C2.39688 8.30543 2.61661 8.52383 2.61661 8.80179C2.61661 9.69522 3.31572 10.2114 4.07475 10.2114C4.87373 10.2114 5.43303 9.6158 5.43303 8.96062C5.43303 8.08703 4.71394 7.4517 3.77513 6.99505C2.97615 6.59797 2.01736 6.12147 1.39816 5.34715H0.659097C0.53925 5.20818 0.439376 5.04934 0.359479 4.89051C0.239631 4.65225 0.139758 4.41401 0.079834 4.11619H1.37818C1.31826 3.87795 1.29828 3.61983 1.29828 3.34187C1.29828 2.42859 1.61788 1.63442 2.25707 1.01894C2.91623 0.403457 3.69524 0.0857891 4.61406 0.0857891C5.63276 0.0659349 6.43175 0.403455 6.99104 1.05864ZM17.3778 0.244623H16.8385H16.0994H11.2656C10.9859 0.244623 10.7662 0.46302 10.7662 0.740979V1.69399C10.7662 1.97194 10.9859 2.19033 11.2656 2.19033H12.0047H12.7437H13.283V4.09633H12.0047V4.87065V5.32729H12.7437V11.4424C12.7437 11.7204 12.9634 11.9388 13.2431 11.9388H13.5427H13.7824H14.2818C14.5614 11.9388 14.7811 11.7204 14.7811 11.4424V5.32729V4.87065H14.0421V4.09633H15.3204V2.19033H16.0795H16.8186H17.3579C17.6375 2.19033 17.8572 1.97194 17.8572 1.69399V0.740979C17.8771 0.46302 17.6574 0.244623 17.3778 0.244623ZM37.4324 1.05864C37.9916 1.61456 38.2513 2.26976 38.2513 3.06392V4.09633H36.973V4.87065H37.7119V5.14861C37.7119 5.20818 37.7119 5.26774 37.692 5.30745C37.6321 6.20088 37.1526 7.03475 36.3936 7.53111L37.9916 11.3431C38.0515 11.4623 38.0515 11.5218 38.0515 11.5814C38.0515 11.8196 37.8917 11.9388 37.5921 11.9388H37.1327H36.8731H36.5933C36.2139 11.9388 35.9342 11.7799 35.8143 11.4623L34.3961 7.96792H33.8368H33.6571H33.2976V11.4424C33.2976 11.7204 33.0779 11.9388 32.7982 11.9388H32.3388H32.0592H31.7994C31.5199 11.9388 31.3002 11.7204 31.3002 11.4424V5.32729H30.561V4.87065V4.09633H31.8395V0.740979C31.8395 0.46302 32.0592 0.244623 32.3388 0.244623H34.1165H34.8556H35.3948C36.1939 0.244623 36.8731 0.502727 37.4324 1.05864ZM36.1939 4.09633V2.9845C36.1939 2.56757 35.8143 2.19033 35.3749 2.19033H34.8355H34.0966H33.8569V4.09633H32.5784V4.87065H33.3176V5.32729V6.00234H33.8569H34.0966H34.8355C35.255 6.00234 35.5946 5.68468 35.6546 5.32729H34.9155C34.9155 5.28759 34.9354 5.26774 34.9354 5.22802V4.87065V4.09633H36.1939ZM47.7591 0.244623H47.2198H46.4808H41.647C41.3673 0.244623 41.1476 0.46302 41.1476 0.740979V1.69399C41.1476 1.97194 41.3673 2.19033 41.647 2.19033H42.386H43.1251H43.6644V4.09633H42.386V4.87065V5.32729H43.1251V11.4424C43.1251 11.7204 43.3448 11.9388 43.6244 11.9388H43.9241H44.1637H44.6632C44.9427 11.9388 45.1625 11.7204 45.1625 11.4424V5.32729V4.87065H44.4233V4.09633H45.7018V2.19033H46.4609H47.1998H47.7392C48.0189 2.19033 48.2386 1.97194 48.2386 1.69399V0.740979C48.2586 0.46302 48.0388 0.244623 47.7591 0.244623ZM57.6466 0.244623H57.1072H56.6478C56.3683 0.244623 56.1486 0.46302 56.1486 0.740979V4.09633H54.8701V4.87065V5.32729H55.6092V8.94076C55.6092 9.63566 54.9301 10.2313 54.131 10.2313C53.332 10.2313 52.633 9.6158 52.633 8.92092V5.32729V4.87065H51.8938V4.09633H53.1723V0.740979C53.1723 0.46302 52.9526 0.244623 52.6728 0.244623H52.1337H51.6741C51.3945 0.244623 51.1748 0.46302 51.1748 0.740979V4.09633H49.8964V4.87065V5.32729H50.6355V8.82165C50.6355 9.71508 50.975 10.4894 51.6542 11.1446C52.3333 11.7998 53.1524 12.1174 54.1511 12.1174C55.1498 12.1174 55.9687 11.7998 56.6279 11.1644C57.307 10.5092 57.6466 9.73493 57.6466 8.8415V5.32729V4.87065H56.9075V4.09633H58.1859V0.740979C58.166 0.46302 57.9463 0.244623 57.6466 0.244623ZM67.7538 1.05864C68.3131 1.61456 68.5926 2.26976 68.5926 3.06392V4.09633H67.3143V4.87065H68.0533V5.30745V5.32729C68.0533 6.12147 67.7737 6.77665 67.2344 7.33257C66.6751 7.88848 66.0159 8.1466 65.217 8.1466H64.4778H64.2382H63.6988V11.4424C63.6988 11.7204 63.4791 11.9388 63.1995 11.9388H62.7402H62.4604H62.2008C61.9211 11.9388 61.7014 11.7204 61.7014 11.4424V5.32729H60.9624V4.87065V4.09633H62.2407V0.740979C62.2407 0.46302 62.4604 0.244623 62.7402 0.244623H64.4778H65.217H65.7563C66.5553 0.244623 67.1945 0.502727 67.7538 1.05864ZM66.5553 4.09633V2.9845C66.5553 2.52786 66.1756 2.19033 65.7162 2.19033H65.1771H64.438H64.2382V4.09633H62.9599V4.87065H63.6988V5.32729V6.22074H64.2382H64.438H65.1771C65.6564 6.22074 66.0159 5.86337 66.0159 5.44642V5.32729H65.2969V4.87065V4.09633H66.5553ZM20.3141 5.32729H19.5751L19.7149 4.87065L19.9346 4.09633H21.2129L22.2116 0.681416C22.2916 0.383602 22.4914 0.224767 22.7909 0.224767H23.8097H24.5487H25.088C25.3677 0.224767 25.5673 0.383602 25.6672 0.681416L26.666 4.09633H25.3877L25.6074 4.87065H26.3464L26.4863 5.32729L26.8458 6.51855C26.9056 6.73696 26.9256 6.95534 26.9256 7.17374V11.4623C26.9256 11.7402 26.706 11.9586 26.4263 11.9586H25.9869H25.6872H25.4475C25.168 11.9586 24.9482 11.7402 24.9482 11.4623V8.48412H24.2091H22.4314H21.892V11.4623C21.892 11.7402 21.6723 11.9586 21.3927 11.9586H20.9533H20.6536H20.4139C20.1344 11.9586 19.9147 11.7402 19.9147 11.4623V7.17374C19.9147 6.99506 19.9545 6.77665 19.9944 6.51855L20.3141 5.32729ZM21.972 4.09633L21.7522 4.87065H22.4914L22.3715 5.32729L22.0519 6.51855H22.5913H24.0093H24.7484L24.4288 5.32729H23.6897L23.5699 4.87065L23.3502 4.09633H24.6286L24.1092 2.19033H23.7697L23.2504 4.09633H21.972Z" fill="white"/>
<path d="M14.6025 17.0375H14.0632H13.6238C13.3441 17.0375 13.1244 17.2559 13.1244 17.5338V20.8891H11.846V21.5643C11.846 21.5841 11.846 21.6237 11.846 21.6634C11.8261 21.7627 11.8061 21.9216 11.7462 22.1202H12.4852C12.4653 22.1598 12.4653 22.2193 12.4453 22.2789L11.2068 26.8057H10.8673L9.62887 22.2789C9.60889 22.2193 9.60889 22.1796 9.58891 22.1202C9.54897 21.9414 9.52899 21.7827 9.50901 21.6634H8.76996C8.76996 21.6237 8.76996 21.5841 8.76996 21.5643V20.8891H10.0483V17.5536C10.0483 17.2757 9.82861 17.0573 9.54897 17.0573H9.00964H8.57021C8.29057 17.0573 8.07084 17.2757 8.07084 17.5536V20.9091H6.79248V21.6834V21.8421C6.79248 21.9414 6.79248 22.0407 6.81244 22.14H7.55151C7.57148 22.2591 7.59145 22.3782 7.61143 22.4973L9.32924 28.3145C9.40914 28.6124 9.60889 28.7713 9.90851 28.7713H10.4478H11.4665H12.2056C12.4852 28.7713 12.685 28.6124 12.7848 28.3145L14.5027 22.4973C14.5226 22.3981 14.5426 22.2789 14.5626 22.14C14.5826 22.0407 14.5826 21.9414 14.5826 21.8421V21.6834H13.8435V20.9091H15.1219V17.5536C15.1019 17.2559 14.8822 17.0375 14.6025 17.0375Z" fill="white"/>
<path d="M24.9692 17.0375H24.4299H23.6907H19.0767C18.857 17.0375 18.6771 17.2161 18.6771 17.4345V18.5663C18.6771 18.7845 18.857 18.9633 19.0767 18.9633H19.7359H20.475H21.0141V20.8891H19.7359V21.6634V22.1202H20.475V26.8057H19.7359H19.0767H18.5373C18.3176 26.8057 18.1379 26.9843 18.1379 27.2027V28.3345C18.1379 28.5529 18.3176 28.7315 18.5373 28.7315H19.0767H23.6907H24.4299C24.7096 28.7315 24.8693 28.5926 24.8693 28.3345V27.2027C24.8693 26.9447 24.7096 26.8057 24.4299 26.8057H23.6907H23.0517H22.5123V22.1202V21.6634H21.7732V20.8891H23.0517V18.9633H23.6907H24.4299H24.9692C25.2488 18.9633 25.4087 18.8243 25.4087 18.5663V17.4345C25.4087 17.1764 25.2488 17.0375 24.9692 17.0375Z" fill="white"/>
<path d="M63.3221 17.415C62.7828 17.0577 62.1635 16.8789 61.4644 16.8789C60.5457 16.8789 59.7268 17.1966 59.0476 17.8518C58.3683 18.507 58.0288 19.2813 58.0288 20.1549V20.9094H56.7505V21.6837V22.1404H57.4896V25.6346C57.4896 26.528 57.8292 27.3024 58.5083 27.9576C59.1874 28.6128 59.9864 28.9305 60.9452 28.9305C61.9039 28.9305 62.7228 28.6128 63.382 27.9774C64.0611 27.3223 64.4007 26.548 64.4007 25.6544V22.9543C64.4007 22.6764 64.1811 22.458 63.9014 22.458H63.1622H61.9039H61.3646C61.1448 22.458 60.9652 22.6366 60.9652 22.855V23.947C60.9652 24.2051 61.1448 24.3442 61.3646 24.3442H61.6842H61.9039H62.4233L62.4033 25.7537C62.4033 26.1311 62.2435 26.4288 61.9238 26.6671C61.6243 26.9252 61.3047 27.0443 60.9452 27.0443C60.2061 27.0443 59.5669 26.4487 59.5669 25.7537V22.1602V21.7036H58.8279V20.9292H60.1062V20.0755C60.1062 19.3806 60.7454 18.8049 61.4844 18.8049C62.2435 18.8049 62.7228 19.3806 62.8227 19.8571C62.8827 20.1946 63.0624 20.3535 63.362 20.3535H63.8414H64.3807C64.6604 20.3535 64.8602 20.1351 64.8602 19.8571C64.8401 19.0431 64.4008 18.09 63.3221 17.415Z" fill="white"/>
<path d="M74.4853 17.0375H74.3256H73.5865H69.6115C69.3319 17.0375 69.1122 17.2559 69.1122 17.5338V20.8891H67.8337V21.6634V22.1202H68.5729V28.2352C68.5729 28.5131 68.7926 28.7315 69.0721 28.7315H69.6115H73.7063H74.4454C74.725 28.7315 74.9447 28.5131 74.9447 28.2352V27.2822C74.9447 27.0043 74.725 26.7859 74.4454 26.7859H73.7063H71.1097H70.5703V23.6092H71.1097H73.2069H73.946C74.2257 23.6092 74.4454 23.3908 74.4454 23.1129V22.1797C74.4454 22.1598 74.4454 22.14 74.4454 22.14C74.4253 21.8818 74.2257 21.6834 73.946 21.6834H73.2069H71.1097H70.5703H69.8312V20.9091H71.1097V19.0029H73.5865H74.3256H74.4853C74.7649 19.0029 74.9846 18.7845 74.9846 18.5066V17.5536C74.9846 17.2559 74.7649 17.0375 74.4853 17.0375Z" fill="white"/>
<path d="M34.8963 26.7888H34.1572H31.141H30.6018V22.1231V21.6663H29.8627V20.8919H31.141V17.5565C31.141 17.2786 30.9213 17.0602 30.6417 17.0602H30.1024H29.643C29.3633 17.0602 29.1437 17.2786 29.1437 17.5565V20.9119H27.8652V21.6863V22.1429H28.6044V28.2579C28.6044 28.5358 28.8241 28.7542 29.1036 28.7542H29.643H34.1572H34.8963C35.176 28.7542 35.3957 28.5358 35.3957 28.2579V27.3049C35.3957 27.0072 35.176 26.7888 34.8963 26.7888Z" fill="white"/>
<path d="M43.9053 26.7888H43.1662H40.15H39.6107V22.1231V21.6663H38.8717V20.8919H40.15V17.5565C40.15 17.2786 39.9303 17.0602 39.6508 17.0602H39.1114H38.652C38.3723 17.0602 38.1526 17.2786 38.1526 17.5565V20.9119H36.8743V21.6863V22.1429H37.6132V28.2579C37.6132 28.5358 37.8329 28.7542 38.1127 28.7542H38.652H43.1662H43.9053C44.1849 28.7542 44.4046 28.5358 44.4046 28.2579V27.3049C44.4046 27.0072 44.2048 26.7888 43.9053 26.7888Z" fill="white"/>
<path d="M53.1138 22.14L52.9741 21.6834H52.2349L52.0152 20.9091H53.2937L52.2949 17.4941C52.215 17.1962 52.0152 17.0375 51.7157 17.0375H51.1764H50.4373H49.4186C49.139 17.0375 48.9392 17.1962 48.8393 17.4941L47.8406 20.9091H46.5621L46.3426 21.6834L46.2026 22.14H46.9418L46.5823 23.3313C46.5223 23.5893 46.5023 23.8077 46.5023 23.9863V28.2749C46.5023 28.5529 46.722 28.7713 47.0016 28.7713H47.2414H47.5409H47.9804C48.2601 28.7713 48.4798 28.5529 48.4798 28.2749V25.2967H49.019H50.7968H51.5359V28.2749C51.5359 28.5529 51.7556 28.7713 52.0353 28.7713H52.275H52.5745H53.014C53.2937 28.7713 53.5134 28.5529 53.5134 28.2749V23.9863C53.5134 23.7679 53.4734 23.5495 53.4335 23.3313L53.1138 22.14ZM50.637 23.3113H49.2188H48.6795L48.9991 22.1202L49.1189 21.6634H48.3799L48.5797 20.8891H49.858L50.3774 18.9831H50.717L51.2362 20.8891H49.9579L50.1577 21.6634L50.2775 22.1202H51.0165L51.3361 23.3113H50.637Z" fill="white"/>
</g>
</svg>
