<svg width="290" height="22" viewBox="0 0 290 22" fill="none" xmlns="http://www.w3.org/2000/svg">
<g clip-path="url(#clip0_2583_525)">
<path d="M148.792 1.7301C149.189 2.18195 149.381 2.6475 149.381 3.08567C149.381 3.27736 149.244 3.42797 149.052 3.42797H148.683H148.354C148.162 3.42797 148.039 3.31844 147.984 3.08567C147.889 2.72966 147.587 2.35996 147.163 2.35996C146.684 2.35996 146.287 2.74335 146.287 3.1952C146.287 3.42797 146.41 3.63336 146.602 3.82506H145.725C145.917 4.01675 146.191 4.19476 146.492 4.35907H146.999C147.026 4.37276 147.04 4.38646 147.067 4.40015C147.231 4.4823 147.409 4.57815 147.601 4.67399C148.395 5.12585 149.189 5.85157 149.176 7.09759C149.176 7.71375 148.943 8.23406 148.477 8.68592C148.012 9.13777 147.464 9.35685 146.807 9.35685C146.15 9.35685 145.602 9.13777 145.136 8.68592C144.671 8.23406 144.438 7.70005 144.438 7.0702C144.438 6.8785 144.589 6.72788 144.78 6.72788H144.945H145.15H145.451C145.643 6.72788 145.794 6.8785 145.794 7.0702C145.794 7.68636 146.273 8.04237 146.793 8.04237C147.341 8.04237 147.724 7.63159 147.724 7.17974C147.724 6.57726 147.231 6.1391 146.588 5.82418C146.04 5.55032 145.383 5.2217 144.958 4.68769H144.452C144.37 4.59185 144.301 4.4823 144.246 4.37276C144.164 4.20845 144.096 4.04414 144.055 3.83875H144.945C144.904 3.67445 144.89 3.49644 144.89 3.30474C144.89 2.67489 145.109 2.12718 145.547 1.70271C145.999 1.27825 146.533 1.05916 147.163 1.05916C147.861 1.04547 148.409 1.27824 148.792 1.7301ZM155.912 1.16871H155.543H155.036H151.723C151.531 1.16871 151.38 1.31932 151.38 1.51102V2.16827C151.38 2.35996 151.531 2.51057 151.723 2.51057H152.229H152.736H153.105V3.82506H152.229V4.35907V4.67399H152.736V8.89131C152.736 9.083 152.886 9.23362 153.078 9.23362H153.283H153.448H153.79C153.982 9.23362 154.132 9.083 154.132 8.89131V4.67399V4.35907H153.626V3.82506H154.502V2.51057H155.022H155.529H155.899C156.09 2.51057 156.241 2.35996 156.241 2.16827V1.51102C156.255 1.31932 156.104 1.16871 155.912 1.16871ZM169.66 1.7301C170.043 2.11349 170.221 2.56535 170.221 3.11305V3.82506H169.345V4.35907H169.851V4.55076C169.851 4.59185 169.851 4.63292 169.838 4.66031C169.797 5.27647 169.468 5.85155 168.948 6.19387L170.043 8.82284C170.084 8.905 170.084 8.94607 170.084 8.98716C170.084 9.15146 169.975 9.23362 169.769 9.23362H169.454H169.276H169.085C168.825 9.23362 168.633 9.12407 168.551 8.905L167.578 6.49511H167.195H167.072H166.825V8.89131C166.825 9.083 166.675 9.23362 166.483 9.23362H166.168H165.977H165.798C165.607 9.23362 165.456 9.083 165.456 8.89131V4.67399H164.95V4.35907V3.82506H165.826V1.51102C165.826 1.31932 165.977 1.16871 166.168 1.16871H167.387H167.893H168.263C168.811 1.16871 169.276 1.34671 169.66 1.7301ZM168.811 3.82506V3.05828C168.811 2.77074 168.551 2.51057 168.249 2.51057H167.88H167.373H167.209V3.82506H166.332V4.35907H166.839V4.67399V5.13954H167.209H167.373H167.88C168.167 5.13954 168.4 4.92047 168.441 4.67399H167.934C167.934 4.64662 167.948 4.63292 167.948 4.60553V4.35907V3.82506H168.811ZM176.739 1.16871H176.369H175.863H172.549C172.357 1.16871 172.207 1.31932 172.207 1.51102V2.16827C172.207 2.35996 172.357 2.51057 172.549 2.51057H173.056H173.562H173.932V3.82506H173.056V4.35907V4.67399H173.562V8.89131C173.562 9.083 173.713 9.23362 173.904 9.23362H174.11H174.274H174.617C174.808 9.23362 174.959 9.083 174.959 8.89131V4.67399V4.35907H174.452V3.82506H175.329V2.51057H175.849H176.355H176.725C176.917 2.51057 177.067 2.35996 177.067 2.16827V1.51102C177.081 1.31932 176.931 1.16871 176.739 1.16871ZM183.517 1.16871H183.147H182.832C182.64 1.16871 182.49 1.31932 182.49 1.51102V3.82506H181.613V4.35907V4.67399H182.12V7.16604C182.12 7.64528 181.654 8.05606 181.107 8.05606C180.559 8.05606 180.08 7.63159 180.08 7.15236V4.67399V4.35907H179.573V3.82506H180.45V1.51102C180.45 1.31932 180.299 1.16871 180.107 1.16871H179.738H179.423C179.231 1.16871 179.08 1.31932 179.08 1.51102V3.82506H178.204V4.35907V4.67399H178.711V7.08389C178.711 7.70005 178.943 8.23406 179.409 8.68592C179.874 9.13777 180.436 9.35685 181.12 9.35685C181.805 9.35685 182.366 9.13777 182.818 8.69961C183.284 8.24776 183.517 7.71375 183.517 7.09759V4.67399V4.35907H183.01V3.82506H183.886V1.51102C183.873 1.31932 183.722 1.16871 183.517 1.16871ZM190.445 1.7301C190.829 2.11349 191.02 2.56535 191.02 3.11305V3.82506H190.144V4.35907H190.65V4.66031V4.67399C190.65 5.2217 190.459 5.67355 190.089 6.05694C189.706 6.44033 189.254 6.61835 188.706 6.61835H188.199H188.035H187.665V8.89131C187.665 9.083 187.515 9.23362 187.323 9.23362H187.008H186.817H186.639C186.447 9.23362 186.296 9.083 186.296 8.89131V4.67399H185.79V4.35907V3.82506H186.666V1.51102C186.666 1.31932 186.817 1.16871 187.008 1.16871H188.199H188.706H189.076C189.624 1.16871 190.062 1.34671 190.445 1.7301ZM189.624 3.82506V3.05828C189.624 2.74335 189.363 2.51057 189.048 2.51057H188.679H188.172H188.035V3.82506H187.159V4.35907H187.665V4.67399V5.29016H188.035H188.172H188.679C189.007 5.29016 189.254 5.0437 189.254 4.75615V4.67399H188.761V4.35907V3.82506H189.624ZM157.925 4.67399H157.419L157.514 4.35907L157.665 3.82506H158.541L159.226 1.46994C159.281 1.26455 159.418 1.15501 159.623 1.15501H160.321H160.828H161.198C161.39 1.15501 161.526 1.26455 161.595 1.46994L162.279 3.82506H161.403L161.554 4.35907H162.06L162.156 4.67399L162.403 5.49555C162.444 5.64618 162.457 5.79679 162.457 5.94741V8.905C162.457 9.0967 162.307 9.24732 162.115 9.24732H161.814H161.609H161.444C161.253 9.24732 161.102 9.0967 161.102 8.905V6.85111H160.595H159.377H159.007V8.905C159.007 9.0967 158.856 9.24732 158.665 9.24732H158.363H158.158H157.994C157.802 9.24732 157.651 9.0967 157.651 8.905V5.94741C157.651 5.82418 157.679 5.67355 157.706 5.49555L157.925 4.67399ZM159.062 3.82506L158.911 4.35907H159.418L159.336 4.67399L159.117 5.49555H159.486H160.458H160.965L160.746 4.67399H160.239L160.157 4.35907L160.006 3.82506H160.883L160.527 2.51057H160.294L159.938 3.82506H159.062Z" fill="white"/>
<path d="M154.01 12.75H153.64H153.339C153.147 12.75 152.997 12.9006 152.997 13.0923V15.4063H152.12V15.8719C152.12 15.8856 152.12 15.9129 152.12 15.9403C152.107 16.0088 152.093 16.1184 152.052 16.2553H152.559C152.545 16.2827 152.545 16.3237 152.531 16.3648L151.682 19.4867H151.45L150.601 16.3648C150.587 16.3237 150.587 16.2963 150.573 16.2553C150.546 16.132 150.532 16.0225 150.518 15.9403H150.012C150.012 15.9129 150.012 15.8856 150.012 15.8719V15.4063H150.888V13.1059C150.888 12.9143 150.738 12.7637 150.546 12.7637H150.176H149.875C149.683 12.7637 149.533 12.9143 149.533 13.1059V15.4201H148.656V15.9541V16.0636C148.656 16.132 148.656 16.2005 148.67 16.269H149.177C149.19 16.3511 149.204 16.4333 149.218 16.5154L150.395 20.5273C150.45 20.7327 150.587 20.8423 150.792 20.8423H151.162H151.86H152.367C152.559 20.8423 152.696 20.7327 152.764 20.5273L153.942 16.5154C153.955 16.4469 153.969 16.3648 153.983 16.269C153.996 16.2005 153.996 16.132 153.996 16.0636V15.9541H153.49V15.4201H154.366V13.1059C154.352 12.9006 154.202 12.75 154.01 12.75Z" fill="white"/>
<path d="M161.116 12.75H160.747H160.24H157.077C156.926 12.75 156.803 12.8732 156.803 13.0238V13.8044C156.803 13.9549 156.926 14.0781 157.077 14.0781H157.529H158.036H158.405V15.4063H157.529V15.9403V16.2553H158.036V19.4867H157.529H157.077H156.707C156.557 19.4867 156.434 19.6099 156.434 19.7605V20.5411C156.434 20.6917 156.557 20.8149 156.707 20.8149H157.077H160.24H160.747C160.938 20.8149 161.048 20.719 161.048 20.5411V19.7605C161.048 19.5825 160.938 19.4867 160.747 19.4867H160.24H159.802H159.432V16.2553V15.9403H158.926V15.4063H159.802V14.0781H160.24H160.747H161.116C161.308 14.0781 161.418 13.9823 161.418 13.8044V13.0238C161.418 12.8458 161.308 12.75 161.116 12.75Z" fill="white"/>
<path d="M187.407 13.0103C187.037 12.7639 186.613 12.6406 186.134 12.6406C185.504 12.6406 184.943 12.8597 184.477 13.3116C184.011 13.7635 183.779 14.2975 183.779 14.8999V15.4203H182.902V15.9543V16.2692H183.409V18.679C183.409 19.2952 183.642 19.8292 184.107 20.2811C184.573 20.7329 185.121 20.952 185.778 20.952C186.435 20.952 186.996 20.7329 187.448 20.2947C187.914 19.843 188.147 19.309 188.147 18.6927V16.8306C188.147 16.6389 187.996 16.4883 187.804 16.4883H187.298H186.435H186.065C185.915 16.4883 185.791 16.6115 185.791 16.7621V17.5152C185.791 17.6932 185.915 17.7891 186.065 17.7891H186.284H186.435H186.791L186.777 18.7612C186.777 19.0214 186.668 19.2267 186.449 19.3911C186.243 19.5691 186.024 19.6512 185.778 19.6512C185.271 19.6512 184.833 19.2405 184.833 18.7612V16.2829V15.968H184.326V15.434H185.203V14.8451C185.203 14.3659 185.641 13.9689 186.147 13.9689C186.668 13.9689 186.996 14.3659 187.065 14.6945C187.106 14.9273 187.229 15.0369 187.435 15.0369H187.763H188.133C188.325 15.0369 188.462 14.8863 188.462 14.6945C188.448 14.1332 188.147 13.4759 187.407 13.0103Z" fill="white"/>
<path d="M195.06 12.75H194.95H194.444H191.719C191.527 12.75 191.376 12.9006 191.376 13.0923V15.4063H190.5V15.9403V16.2553H191.007V20.4726C191.007 20.6642 191.157 20.8149 191.349 20.8149H191.719H194.526H195.032C195.224 20.8149 195.375 20.6642 195.375 20.4726V19.8153C195.375 19.6237 195.224 19.4731 195.032 19.4731H194.526H192.746H192.376V17.2822H192.746H194.183H194.69C194.882 17.2822 195.032 17.1316 195.032 16.9399V16.2963C195.032 16.2827 195.032 16.269 195.032 16.269C195.019 16.0909 194.882 15.9541 194.69 15.9541H194.183H192.746H192.376H191.869V15.4201H192.746V14.1055H194.444H194.95H195.06C195.251 14.1055 195.402 13.9549 195.402 13.7632V13.1059C195.402 12.9006 195.251 12.75 195.06 12.75Z" fill="white"/>
<path d="M167.921 19.475H167.415H165.347H164.977V16.2573V15.9422H164.471V15.4082H165.347V13.1079C165.347 12.9162 165.196 12.7656 165.005 12.7656H164.635H164.32C164.128 12.7656 163.978 12.9162 163.978 13.1079V15.422H163.102V15.956V16.2709H163.608V20.4882C163.608 20.6799 163.759 20.8305 163.95 20.8305H164.32H167.415H167.921C168.113 20.8305 168.264 20.6799 168.264 20.4882V19.8309C168.264 19.6256 168.113 19.475 167.921 19.475Z" fill="white"/>
<path d="M174.097 19.475H173.59H171.523H171.153V16.2573V15.9422H170.647V15.4082H171.523V13.1079C171.523 12.9162 171.372 12.7656 171.181 12.7656H170.811H170.496C170.304 12.7656 170.154 12.9162 170.154 13.1079V15.422H169.277V15.956V16.2709H169.784V20.4882C169.784 20.6799 169.935 20.8305 170.126 20.8305H170.496H173.59H174.097C174.289 20.8305 174.439 20.6799 174.439 20.4882V19.8309C174.439 19.6256 174.302 19.475 174.097 19.475Z" fill="white"/>
<path d="M180.41 16.269L180.314 15.9541H179.807L179.656 15.4201H180.533L179.848 13.0649C179.793 12.8595 179.656 12.75 179.451 12.75H179.081H178.575H177.876C177.685 12.75 177.548 12.8595 177.479 13.0649L176.795 15.4201H175.918L175.768 15.9541L175.672 16.269H176.179L175.932 17.0906C175.891 17.2685 175.877 17.4192 175.877 17.5423V20.4999C175.877 20.6917 176.028 20.8423 176.22 20.8423H176.384H176.589H176.891C177.082 20.8423 177.233 20.6917 177.233 20.4999V18.446H177.602H178.821H179.328V20.4999C179.328 20.6917 179.478 20.8423 179.67 20.8423H179.834H180.04H180.341C180.533 20.8423 180.683 20.6917 180.683 20.4999V17.5423C180.683 17.3917 180.656 17.2411 180.629 17.0906L180.41 16.269ZM178.712 17.0768H177.739H177.37L177.589 16.2553L177.671 15.9403H177.164L177.301 15.4063H178.178L178.534 14.0918H178.766L179.122 15.4063H178.246L178.383 15.9403L178.465 16.2553H178.972L179.191 17.0768H178.712Z" fill="white"/>
</g>
<path fill-rule="evenodd" clip-rule="evenodd" d="M232.585 1.03088C231.694 1.09803 230.615 1.32971 229.884 1.61082C227.447 2.5493 226.093 4.73558 226.309 7.38616C226.456 9.19734 227.199 10.4173 228.667 11.258C229.333 11.6392 229.877 11.8081 232.606 12.4812C234.054 12.8383 235.468 13.1981 235.749 13.2807C236.738 13.5714 237.452 14.0162 237.697 14.4955C237.855 14.8053 237.915 15.2626 237.848 15.6622C237.687 16.636 237.008 17.2674 235.792 17.5735C234.967 17.7812 233.829 17.8514 232.989 17.7463C231.143 17.5154 230.064 16.6305 229.821 15.147L229.746 14.6887H227.873H226L226.028 15.2349C226.076 16.1381 226.372 17.1025 226.854 17.9211C227.162 18.4426 227.998 19.3111 228.522 19.653C229.568 20.3358 230.846 20.7584 232.464 20.9569C233.108 21.0359 234.875 21.0383 235.457 20.9609C236.866 20.7735 238.116 20.3586 239.108 19.7488L239.424 19.5544L239.438 20.0588L239.452 20.5633H241.3H243.148L243.15 18.3179L243.152 16.0724L243.929 15.2713C244.651 14.5263 244.71 14.477 244.766 14.5673C244.799 14.6207 245.562 15.9862 246.461 17.6017L248.097 20.5391L250.295 20.5517C251.504 20.5586 252.493 20.5533 252.493 20.5399C252.493 20.5265 251.353 18.5806 249.959 16.2156C248.565 13.8506 247.432 11.8957 247.44 11.8714C247.448 11.847 248.485 10.6981 249.743 9.31818C251.001 7.93823 252.104 6.725 252.193 6.62217L252.355 6.4351L250.1 6.43767L247.845 6.44025L245.508 9.1197L243.172 11.7992L243.16 6.64105L243.147 1.48294H241.298H239.448V2.28402C239.448 2.72462 239.431 3.08511 239.41 3.08511C239.388 3.08511 239.284 2.9949 239.178 2.88464C238.443 2.11837 237.069 1.44735 235.721 1.19566C234.776 1.01918 233.577 0.956211 232.585 1.03088ZM234.411 4.32198C234.996 4.41719 235.318 4.51638 235.719 4.72554C236.534 5.1506 237.066 5.91274 237.2 6.84836L237.235 7.09053L238.342 7.10359L239.448 7.11665V8.9121C239.448 9.89957 239.44 10.7076 239.43 10.7076C239.42 10.7076 239.183 10.5985 238.904 10.4653C238.199 10.1295 237.465 9.89909 235.822 9.49816C235.046 9.30867 233.733 8.98799 232.904 8.78553C231.336 8.40256 230.919 8.25604 230.558 7.961C230.179 7.65095 229.958 7.13457 229.958 6.55648C229.958 5.39864 230.806 4.60197 232.329 4.32718C232.833 4.23639 233.869 4.23377 234.411 4.32198ZM255.535 14.3488C254.644 14.4498 253.9 14.9483 253.52 15.6983C252.962 16.8008 253.015 18.51 253.637 19.4709C254.107 20.1987 254.752 20.5497 255.705 20.5968C257.083 20.6649 258.028 19.9939 258.402 18.682L258.475 18.4271H257.844C257.277 18.4271 257.214 18.4356 257.213 18.5121C257.211 18.659 257.02 19.0274 256.859 19.196C256.39 19.6851 255.511 19.7229 254.988 19.2765C254.466 18.8307 254.22 17.7536 254.42 16.7893C254.556 16.1294 254.839 15.7087 255.296 15.4858C255.536 15.3687 255.601 15.3585 255.989 15.377C256.638 15.408 256.954 15.625 257.167 16.1858L257.253 16.4123L257.86 16.4258L258.468 16.4393L258.425 16.2084C258.312 15.6085 257.817 14.9381 257.273 14.65C256.795 14.3963 256.131 14.2813 255.535 14.3488ZM264.637 15.9536C263.773 16.0654 263.111 16.604 262.854 17.4053C262.711 17.8492 262.711 18.6596 262.855 19.1098C263.148 20.0318 263.934 20.5613 265.01 20.5627C265.708 20.5637 266.241 20.3488 266.666 19.8946C267.073 19.4606 267.241 18.9827 267.241 18.2572C267.241 17.3523 266.927 16.6883 266.31 16.2909C265.865 16.0036 265.234 15.8764 264.637 15.9536ZM278.071 15.9535C277.144 16.0728 276.487 16.6575 276.248 17.5775C276.17 17.8801 276.185 18.7096 276.276 19.013C276.509 19.7975 277.01 20.292 277.779 20.4973C278.094 20.5813 278.781 20.5805 279.101 20.4956C279.859 20.2941 280.373 19.7787 280.603 18.9881C280.721 18.5846 280.685 17.6401 280.537 17.2619C280.174 16.3341 279.186 15.81 278.071 15.9535ZM287.008 15.9555C286.598 16.0078 286.045 16.2726 285.767 16.5502C285.357 16.9587 285.153 17.5263 285.153 18.2572C285.153 18.9913 285.322 19.4658 285.742 19.9085C286.204 20.3954 286.74 20.5878 287.534 20.5518C288.287 20.5178 288.816 20.2657 289.201 19.7572C289.73 19.0583 289.809 17.8419 289.379 17.0016C288.994 16.2484 288.033 15.8248 287.008 15.9555ZM258.869 18.2572V20.4662H259.429H259.989V19.7727V19.0792L260.262 18.8139C260.413 18.6679 260.545 18.5703 260.556 18.597C260.567 18.6237 260.801 19.0498 261.076 19.5438L261.575 20.442L262.267 20.4555L262.959 20.4689L262.818 20.237C262.741 20.1094 262.378 19.4962 262.011 18.8743L261.346 17.7437L261.994 17.0364C262.35 16.6474 262.692 16.2659 262.755 16.1886L262.868 16.0481H262.185H261.502L260.783 16.8735C260.388 17.3274 260.048 17.6988 260.027 17.6988C260.006 17.6988 259.989 17.3274 259.989 16.8735V16.0481H259.429H258.869V18.2572ZM268.117 17.2753C268.117 18.927 268.036 19.5197 267.799 19.6107C267.755 19.6273 267.612 19.6409 267.481 19.6409H267.241V20.0507C267.241 20.2803 267.263 20.4741 267.291 20.4915C267.319 20.5086 267.504 20.5348 267.703 20.5498C268.565 20.6148 268.992 20.237 269.168 19.2541C269.208 19.0301 269.234 18.5067 269.235 17.9038L269.237 16.9192L269.882 16.9328L270.527 16.9463L270.539 18.7063L270.552 20.4662H271.111H271.67V18.2572V16.0481H269.894H268.117V17.2753ZM272.303 18.2572V20.4662H272.863H273.423V19.7727V19.0792L273.696 18.8139C273.847 18.6679 273.979 18.5703 273.99 18.597C274.002 18.6237 274.238 19.0498 274.515 19.5438L275.02 20.442L275.711 20.4555L276.401 20.4689L276.303 20.3098C276.249 20.2223 275.885 19.6081 275.494 18.9451L274.783 17.7395L275.478 16.9788C275.86 16.5604 276.203 16.1798 276.24 16.1331C276.303 16.053 276.267 16.0481 275.623 16.0481H274.94L274.223 16.8735C273.829 17.3274 273.487 17.6988 273.464 17.6988C273.441 17.6988 273.423 17.3274 273.423 16.8735V16.0481H272.863H272.303V18.2572ZM281.113 18.2576V20.4739L282.537 20.4548C284.156 20.433 284.278 20.4101 284.643 20.059C284.873 19.8379 284.958 19.6127 284.957 19.2282C284.956 18.7863 284.654 18.365 284.242 18.2293C284.154 18.2005 284.082 18.161 284.082 18.1417C284.082 18.1224 284.179 18.0599 284.297 18.0027C284.621 17.8454 284.78 17.6064 284.803 17.2399C284.836 16.7318 284.602 16.4127 284.024 16.1792C283.786 16.0827 283.663 16.0733 282.44 16.0579L281.113 16.0412V18.2576ZM283.504 16.9089C283.699 17.0237 283.771 17.2914 283.672 17.5289C283.567 17.7781 283.372 17.8445 282.745 17.8445H282.233V17.3347V16.8249H282.797C283.245 16.8249 283.391 16.8423 283.504 16.9089ZM265.366 16.9276C265.82 17.0534 266.073 17.5286 266.073 18.2572C266.073 18.7829 265.971 19.1116 265.734 19.3478C265.389 19.6924 264.739 19.7252 264.335 19.4183C263.82 19.0259 263.737 17.7826 264.19 17.2341C264.455 16.9132 264.898 16.7979 265.366 16.9276ZM278.863 16.9486C279.234 17.1034 279.425 17.3927 279.508 17.9287C279.57 18.3239 279.507 18.8209 279.36 19.1095C279.089 19.6377 278.27 19.7995 277.775 19.4224C277.232 19.0092 277.199 17.6103 277.721 17.1242C277.977 16.886 278.514 16.8033 278.863 16.9486ZM287.82 16.9488C288.288 17.1438 288.488 17.5452 288.482 18.2815C288.478 18.8227 288.359 19.163 288.092 19.3964C287.786 19.6644 287.273 19.7073 286.864 19.499C286.489 19.3079 286.321 18.9158 286.321 18.227C286.321 17.5262 286.541 17.1027 286.985 16.9446C287.237 16.8549 287.598 16.8567 287.82 16.9488ZM283.6 18.6349C283.879 18.8218 283.926 19.2506 283.697 19.5066L283.555 19.6651L282.918 19.6811L282.281 19.6971V19.1057V18.5142L282.878 18.5322C283.343 18.5461 283.502 18.5688 283.6 18.6349Z" fill="white"/>
<path d="M39.1181 7.716C38.5104 7.39299 37.9995 6.91122 37.6389 6.32094C37.2831 5.70748 37.1014 5.00705 37.1132 4.29625C37.0982 3.58505 37.2802 2.88376 37.6389 2.27156C37.9927 1.67562 38.5053 1.1922 39.1181 0.876501C39.7832 0.543584 40.5154 0.370364 41.2575 0.370364C41.9999 0.370364 42.732 0.543584 43.3969 0.876501C44.0054 1.19408 44.5136 1.67734 44.864 2.27156C45.2264 2.88275 45.4127 3.58396 45.4019 4.29625C45.4094 5.00815 45.2235 5.70848 44.864 6.32094C44.5081 6.91074 44.0014 7.39269 43.3969 7.716C42.7304 8.04351 41.9989 8.21369 41.2575 8.21369C40.5163 8.21369 39.7848 8.04351 39.1181 7.716ZM42.639 5.82711C42.8249 5.62084 42.9682 5.37921 43.0606 5.11636C43.1529 4.85352 43.1925 4.57472 43.1769 4.29625C43.1928 4.01588 43.1534 3.73513 43.0611 3.47023C42.9687 3.20534 42.8253 2.96157 42.639 2.75304C42.2693 2.38955 41.7736 2.18615 41.2575 2.18615C40.7415 2.18615 40.2459 2.38955 39.8761 2.75304C39.6883 2.96097 39.543 3.20435 39.4486 3.46919C39.3541 3.73403 39.3125 4.0151 39.326 4.29625C39.312 4.57556 39.3536 4.85487 39.4481 5.11777C39.5425 5.38066 39.6881 5.62183 39.8761 5.82711C40.2459 6.19061 40.7415 6.394 41.2575 6.394C41.7736 6.394 42.2693 6.19061 42.639 5.82711Z" fill="white"/>
<path d="M52.7494 2.29622H50.2067V8.09869H48.0305V2.29622H45.4755V0.481414H52.8106L52.7494 2.29622Z" fill="white"/>
<path d="M57.1019 5.2098H55.9649V8.09869H53.7889V0.481414H55.9772V3.44437H57.1997L59.2535 0.481414H61.5763L58.9357 4.18511L61.7597 8.14807H59.1802L57.1019 5.2098Z" fill="white"/>
<path d="M68.9967 0.851795C69.5664 1.1778 70.0359 1.65626 70.3537 2.23451C70.6881 2.86837 70.8565 3.57812 70.8427 4.29623C70.8549 5.01025 70.6867 5.71562 70.3537 6.34562C70.0359 6.92386 69.5664 7.40233 68.9967 7.72833C68.4086 8.05323 67.7475 8.21908 67.0773 8.20981C66.6535 8.23359 66.2296 8.16423 65.8349 8.0065C65.4403 7.84877 65.0841 7.60644 64.7912 7.29623V10.8518H62.6029V0.481425H64.6934V1.35797C64.9865 1.02296 65.3513 0.759864 65.7601 0.588715C66.169 0.417566 66.6111 0.342869 67.0529 0.370314C67.7312 0.356742 68.4014 0.522736 68.9967 0.851795ZM68.0798 5.79006C68.2678 5.58478 68.4134 5.3436 68.5079 5.08072C68.6023 4.81783 68.6438 4.53852 68.6299 4.2592C68.6435 3.97805 68.6018 3.69698 68.5074 3.43214C68.4129 3.1673 68.2677 2.92391 68.0798 2.71599C67.9028 2.52762 67.6878 2.37953 67.4497 2.28161C67.2114 2.18367 66.9553 2.13816 66.6983 2.14809C66.4416 2.1405 66.1861 2.18709 65.9483 2.28487C65.7104 2.38266 65.4954 2.5295 65.3169 2.71599C65.1306 2.93148 64.9882 3.182 64.8979 3.45317C64.8079 3.72436 64.7715 4.01085 64.7912 4.29623C64.7652 4.85795 64.9583 5.40758 65.3291 5.8271C65.5076 6.01359 65.7227 6.16043 65.9606 6.25822C66.1983 6.35601 66.4538 6.40259 66.7106 6.395C66.9656 6.40317 67.2194 6.35679 67.4553 6.25891C67.6913 6.16105 67.9041 6.01389 68.0798 5.8271V5.79006Z" fill="white"/>
<path d="M78.422 3.58017C78.6821 3.81355 78.8857 4.1041 79.0171 4.42943C79.1485 4.75476 79.2043 5.10622 79.1801 5.45671C79.2012 5.82894 79.1347 6.20091 78.9859 6.54213C78.8372 6.88337 78.6104 7.18411 78.3243 7.41967C77.6167 7.93677 76.7497 8.18192 75.8793 8.11103H72.2117V0.481414H74.3878V2.95054H76.1849C76.9805 2.89073 77.7717 3.11343 78.422 3.58017ZM76.6739 6.27153C76.789 6.16391 76.8784 6.03137 76.9357 5.88384C76.9929 5.73631 77.0162 5.57763 77.004 5.41968C77.0176 5.27007 76.9958 5.11934 76.9406 4.97986C76.8853 4.84037 76.7981 4.71608 76.686 4.61721C76.396 4.42601 76.0541 4.33106 75.708 4.3456H74.4V6.54313H75.708C76.052 6.57437 76.3954 6.4778 76.6739 6.27153ZM79.9992 0.481414H82.1752V8.09869H79.9992V0.481414Z" fill="white"/>
<path d="M90.4643 2.29622H87.9092V8.09869H85.7332V2.29622H83.1781V0.481414H90.5132L90.4643 2.29622Z" fill="white"/>
<path d="M97.6888 3.58017C97.9489 3.81356 98.1525 4.1041 98.2839 4.42943C98.4153 4.75476 98.4711 5.10622 98.4467 5.45671C98.4679 5.82894 98.4014 6.20091 98.2527 6.54213C98.104 6.88337 97.8772 7.18411 97.591 7.41967C96.8812 7.9319 96.016 8.17654 95.146 8.11103H91.4784V0.481414H93.6545V2.95054H95.4516C96.2472 2.89073 97.0385 3.11343 97.6888 3.58017ZM95.9406 6.27153C96.0558 6.16391 96.1452 6.03137 96.2025 5.88384C96.2596 5.73631 96.2829 5.57763 96.2707 5.41968C96.2818 5.26916 96.2577 5.11811 96.2004 4.97871C96.1431 4.83932 96.0541 4.71549 95.9406 4.61721C95.6561 4.42383 95.3174 4.32854 94.9748 4.3456H93.6667V6.54313H94.9748C95.3188 6.57437 95.6622 6.4778 95.9406 6.27153ZM99.2658 0.481414H101.466V8.09869H99.2658V0.481414Z" fill="white"/>
<path d="M110.696 4.93826H104.987C105.078 5.39142 105.336 5.79287 105.709 6.06171C106.132 6.34409 106.632 6.48648 107.139 6.46912C107.497 6.47309 107.852 6.41461 108.19 6.29628C108.508 6.16858 108.795 5.97511 109.034 5.72838L110.195 6.96295C109.801 7.38862 109.318 7.72027 108.78 7.93382C108.243 8.14736 107.666 8.23744 107.09 8.19751C106.308 8.21514 105.533 8.04593 104.828 7.70369C104.205 7.38873 103.681 6.90592 103.313 6.30863C102.957 5.69517 102.775 4.99474 102.787 4.28394C102.775 3.57312 102.957 2.87269 103.313 2.25925C103.658 1.67295 104.157 1.19445 104.755 0.87653C105.384 0.530274 106.092 0.355806 106.809 0.370358C107.502 0.363002 108.187 0.528375 108.802 0.851839C109.393 1.16547 109.881 1.64584 110.207 2.23456C110.56 2.87128 110.737 3.59168 110.721 4.32097C110.721 4.32097 110.721 4.54319 110.696 4.93826ZM105.574 2.46912C105.226 2.76079 105.003 3.1763 104.951 3.62962H108.618C108.56 3.18101 108.343 2.76888 108.007 2.46912C107.656 2.19879 107.226 2.05238 106.784 2.05238C106.343 2.05238 105.913 2.19879 105.562 2.46912H105.574Z" fill="white"/>
<path d="M37.6634 12.7655H39.8394V17.284L43.507 12.7531H45.5119V20.3704H43.3481V15.8519L39.6805 20.3827H37.6634V12.7655Z" fill="white"/>
<path d="M47.4807 12.7655H49.6568V15.7408H52.9331V12.7655H55.1214V20.3828H52.9331V17.5309H49.6568V20.3828H47.4807V12.7655Z" fill="white"/>
<path d="M57.0774 12.7655H59.2413V15.7408H62.5299V12.7655H64.7182V20.3828H62.5299V17.5309H59.2413V20.3828H57.0774V12.7655Z" fill="white"/>
<path d="M68.0554 19.9877C67.4451 19.6683 66.9334 19.1857 66.5761 18.5926C66.2313 17.9747 66.05 17.2773 66.05 16.5679C66.05 15.8586 66.2313 15.1613 66.5761 14.5432C66.9334 13.9503 67.4451 13.4677 68.0554 13.1482C68.7181 12.8102 69.4525 12.6407 70.1948 12.6544C70.9333 12.6392 71.6641 12.8088 72.322 13.1482C72.9348 13.4639 73.4474 13.9473 73.8012 14.5432C74.1461 15.1613 74.3274 15.8586 74.3274 16.5679C74.3274 17.2773 74.1461 17.9747 73.8012 18.5926C73.4474 19.1885 72.9348 19.672 72.322 19.9877C71.6652 20.3314 70.9344 20.5053 70.1948 20.4939C69.4515 20.5039 68.717 20.33 68.0554 19.9877ZM71.5762 18.1111C71.9477 17.6872 72.1408 17.1335 72.1141 16.5679C72.1402 16.0062 71.947 15.4566 71.5762 15.0371C71.3955 14.8528 71.1804 14.7063 70.9432 14.6065C70.706 14.5066 70.4518 14.4551 70.1948 14.4551C69.9378 14.4551 69.6835 14.5066 69.4464 14.6065C69.2092 14.7063 68.994 14.8528 68.8133 15.0371C68.6253 15.2424 68.4797 15.4836 68.3852 15.7465C68.2907 16.0093 68.2493 16.2887 68.2632 16.5679C68.2496 16.8492 68.2913 17.1302 68.3857 17.395C68.4802 17.6599 68.6254 17.9032 68.8133 18.1111C69.1832 18.4747 69.6788 18.6781 70.1948 18.6781C70.7108 18.6781 71.2064 18.4747 71.5762 18.1111Z" fill="white"/>
<path d="M82.7866 18.21C82.8001 18.521 82.7367 18.8306 82.6024 19.1107C82.4679 19.391 82.2666 19.633 82.0164 19.8149C81.3279 20.2423 80.5241 20.441 79.7181 20.3828H75.6961V12.7655H79.547C80.3184 12.7222 81.086 12.9021 81.7597 13.2841C82.0098 13.4299 82.2167 13.6409 82.3586 13.8949C82.5005 14.149 82.5723 14.4369 82.5666 14.7285C82.5746 15.0846 82.4721 15.4343 82.2732 15.7285C82.0672 16.0267 81.7838 16.2616 81.4541 16.4075C81.8502 16.5025 82.2007 16.7349 82.4443 17.0644C82.6878 17.3939 82.809 17.7994 82.7866 18.21ZM77.701 15.889H79.3514C80.1216 15.889 80.5005 15.6174 80.5005 15.0742C80.5005 14.531 80.1216 14.2594 79.3514 14.2594H77.701V15.889ZM80.745 18.0495C80.7532 17.9257 80.732 17.8017 80.6831 17.6879C80.6342 17.5741 80.559 17.4737 80.4639 17.3952C80.1918 17.2426 79.8816 17.1738 79.5714 17.1976H77.701V18.8767H79.5348C80.3416 18.8767 80.745 18.605 80.745 18.0495Z" fill="white"/>
<path d="M89.9017 13.4938C90.2318 13.8255 90.4861 14.2261 90.6466 14.6676C90.8071 15.1091 90.8699 15.5807 90.8308 16.0493V20.395H88.7892V19.4444C88.5382 19.816 88.1914 20.1113 87.7864 20.2984C87.3814 20.4855 86.9333 20.5573 86.4909 20.5061C85.9741 20.5204 85.4607 20.4192 84.9872 20.2098C84.5867 20.0389 84.246 19.7509 84.0092 19.3826C83.768 19.0183 83.6482 18.5858 83.6669 18.1481C83.6556 17.8261 83.722 17.5061 83.8605 17.2157C83.9989 16.9254 84.2052 16.6734 84.4615 16.4814C85.1899 16.0165 86.047 15.8 86.9065 15.8641H88.6425C88.6568 15.6586 88.626 15.4523 88.5519 15.26C88.478 15.0679 88.3628 14.8949 88.2146 14.753C87.8396 14.4683 87.3742 14.3321 86.9065 14.3703C86.4919 14.3666 86.0793 14.4292 85.684 14.5555C85.3304 14.6779 84.9966 14.8526 84.6938 15.074L83.9481 13.5802C84.3984 13.2689 84.8989 13.0392 85.4273 12.9012C86.0051 12.7429 86.6013 12.664 87.2 12.6666C88.1709 12.5944 89.1338 12.8892 89.9017 13.4938ZM88.019 18.7407C88.3066 18.5672 88.5233 18.2957 88.6303 17.9752V17.1975H87.1388C86.2342 17.1975 85.7941 17.4937 85.7941 18.0863C85.7894 18.2165 85.8172 18.3457 85.8749 18.4623C85.9324 18.5787 86.0182 18.6787 86.1241 18.753C86.3877 18.9408 86.7068 19.0323 87.0288 19.0123C87.3778 19.0194 87.7215 18.9252 88.019 18.7407Z" fill="white"/>
<path d="M101.1 18.5185V22H99.0217V20.3827H92.5546V12.7654H94.7307V18.5185H97.7992V12.7161H99.9752V18.5185H101.1Z" fill="white"/>
<path d="M102.335 12.7655H104.511V17.284L108.178 12.7531H110.183V20.3704H108.007V15.8519L104.339 20.3827H102.322L102.335 12.7655Z" fill="white"/>
<path d="M112.151 12.7655H114.328V17.284L117.995 12.7531H120V20.3704H117.824V15.8519L114.156 20.3827H112.139L112.151 12.7655Z" fill="white"/>
<path d="M16.0006 8.82726C15.6461 7.97541 14.5947 7.53097 12.9688 7.53097C10.817 7.62594 8.70202 8.12848 6.73402 9.01245C4.84455 9.76971 3.09911 10.8515 1.57501 12.21C0.266924 13.4445 -0.258761 14.6791 0.120219 15.5433C0.499198 16.4075 1.51389 16.8396 3.15206 16.8396C5.30373 16.7434 7.41849 16.241 9.38686 15.3581C11.2727 14.601 13.0141 13.519 14.5336 12.1606C15.8906 10.9137 16.3796 9.71615 16.0006 8.82726ZM9.14236 14.8149C7.25277 15.6691 5.22034 16.155 3.15206 16.247C1.81952 16.247 0.927082 15.9137 0.70703 15.3334C0.486977 14.7532 0.91486 13.7285 2.02734 12.6791C3.49392 11.3731 5.17314 10.3331 6.99075 9.60504C8.32145 9.0364 9.71181 8.62223 11.1351 8.37047C10.9696 9.4345 11.0619 10.5232 11.404 11.5433C11.5989 12.1447 11.8788 12.7143 12.2353 13.2347C11.2542 13.8555 10.2189 14.3844 9.14236 14.8149Z" fill="white"/>
<path d="M15.8051 8.01234C16.1597 8.86419 17.1988 9.2469 18.837 9.2469C20.9887 9.15193 23.1038 8.64939 25.0718 7.76542C26.959 7.01118 28.7009 5.92898 30.2186 4.5679C31.5389 3.33333 32.0645 2.09876 31.6856 1.23457C31.3066 0.37037 30.2797 0 28.6537 0C26.5019 0.0949726 24.3869 0.597523 22.4189 1.48148C17.969 3.35802 15.0594 6.23456 15.8051 8.01234ZM22.6512 2.03703C24.5479 1.19305 26.5832 0.711657 28.6537 0.617283C29.9863 0.617283 30.8787 0.950616 31.0988 1.53086C31.3188 2.11111 30.8787 3.1358 29.7785 4.18518C28.3092 5.49383 26.6255 6.53407 24.8028 7.25925L24.3138 7.45678C24.295 7.36883 24.2705 7.28223 24.2405 7.19752C23.9397 6.28438 23.4508 5.44592 22.8061 4.73733C22.1612 4.02875 21.3751 3.46609 20.4996 3.08642C21.197 2.69674 21.9152 2.3464 22.6512 2.03703Z" fill="white"/>
<path d="M32.3579 10.0494C31.9178 8.97537 30.5241 8.39512 28.4336 8.39512C25.5867 8.52112 22.7881 9.18265 20.1817 10.3457C17.6851 11.3462 15.3806 12.7793 13.3723 14.5802C11.6485 16.2099 10.9272 17.7531 11.4529 18.9012C11.9786 20.0494 13.2867 20.5555 15.3772 20.5555C18.2241 20.4296 21.0227 19.768 23.6292 18.6049C26.1257 17.5969 28.4328 16.1647 30.4508 14.3704C32.1623 12.7407 32.8469 11.1976 32.3579 10.0494ZM30.0229 13.9259C28.0655 15.672 25.8238 17.063 23.3969 18.037C20.8645 19.1705 18.1445 19.8153 15.3772 19.9383C13.5557 19.9383 12.3576 19.4815 12.0153 18.7037C11.673 17.9259 12.2843 16.4815 13.788 15.0617L13.898 14.963C14.9008 15.6817 16.0782 16.1116 17.3043 16.2069C18.5303 16.3021 19.7589 16.059 20.8588 15.5037C21.9587 14.9483 22.8885 14.1015 23.5487 13.0538C24.2089 12.0062 24.5748 10.797 24.6072 9.55561C25.8592 9.239 27.143 9.06915 28.4336 9.04944C30.2674 9.04944 31.4533 9.49389 31.7956 10.284C32.1379 11.0741 31.5266 12.4938 30.0229 13.9259Z" fill="white"/>
<path d="M8.80006 7.40745C10.4027 7.33529 11.978 6.9627 13.4456 6.30868C14.8509 5.74244 16.1494 4.93646 17.2843 3.92597C18.2868 2.97535 18.678 2.06178 18.3846 1.37042C18.0911 0.67906 17.3087 0.358073 16.074 0.358073C14.4712 0.428796 12.8957 0.80145 11.4285 1.45684C10.0232 2.02308 8.72469 2.82906 7.58977 3.83955C6.58731 4.79017 6.19611 5.70375 6.48951 6.3951C6.78291 7.08646 7.56532 7.40745 8.80006 7.40745ZM8.00544 4.284C9.09304 3.32743 10.333 2.56357 11.673 2.02474C13.0664 1.40011 14.5632 1.0442 16.0862 0.975356C17.0276 0.975356 17.6633 1.20992 17.8344 1.60499C17.8762 1.75839 17.8826 1.91948 17.8529 2.07576C17.8233 2.23203 17.7584 2.37933 17.6633 2.50622C16.4355 2.52936 15.2377 2.89281 14.2007 3.55687C13.1637 4.22093 12.3272 5.16007 11.783 6.27165C10.8223 6.58655 9.82195 6.76115 8.8123 6.79016C7.87096 6.79016 7.22302 6.56794 7.06409 6.16054C6.90516 5.75313 7.22303 5.02473 8.00544 4.284Z" fill="white"/>
<defs>
<clipPath id="clip0_2583_525">
<rect width="51.4124" height="20" fill="white" transform="translate(144 1)"/>
</clipPath>
</defs>
</svg>
