<svg width="321" height="149" viewBox="0 0 321 149" fill="none" xmlns="http://www.w3.org/2000/svg">
<path d="M29.0802 0H26.6602V148.28H29.0802V0Z" fill="white"/>
<path d="M38.0606 0H35.6406V148.28H38.0606V0Z" fill="white"/>
<path d="M54.0606 0H51.6406V116.72H54.0606V0Z" fill="white"/>
<path d="M278.641 0H276.221V116.72H278.641V0Z" fill="white"/>
<path d="M210.289 0H207.869V116.72H210.289V0Z" fill="white"/>
<path d="M223.32 0H220.9V116.72H223.32V0Z" fill="white"/>
<path d="M236.359 0H233.939V116.72H236.359V0Z" fill="white"/>
<path d="M285.24 0H282.82V116.72H285.24V0Z" fill="white"/>
<path d="M85.3204 0H82.9004V116.72H85.3204V0Z" fill="white"/>
<path d="M258.67 0H256.25V116.72H258.67V0Z" fill="white"/>
<path d="M229.239 0H228.029V116.72H229.239V0Z" fill="white"/>
<path d="M130.95 0H129.74V116.72H130.95V0Z" fill="white"/>
<path d="M215.47 0H214.26V116.72H215.47V0Z" fill="white"/>
<path d="M263.89 0H262.68V116.72H263.89V0Z" fill="white"/>
<path d="M42.9092 0H41.6992V116.72H42.9092V0Z" fill="white"/>
<path d="M147.789 0H145.369V116.72H147.789V0Z" fill="white"/>
<path d="M252.619 0H247.789V116.72H252.619V0Z" fill="white"/>
<path d="M160.84 0H156.01V116.72H160.84V0Z" fill="white"/>
<path d="M271.949 0H267.119V116.72H271.949V0Z" fill="white"/>
<path d="M65.4492 0H58.1992V116.72H65.4492V0Z" fill="white"/>
<path d="M103.34 0H93.6797V116.72H103.34V0Z" fill="white"/>
<path d="M202.791 0H193.131V116.72H202.791V0Z" fill="white"/>
<path d="M112 0H109.58V116.72H112V0Z" fill="white"/>
<path d="M75.4005 0H72.9805V116.72H75.4005V0Z" fill="white"/>
<path d="M125.039 0H122.619V116.72H125.039V0Z" fill="white"/>
<path d="M81.3809 0H78.9609V116.72H81.3809V0Z" fill="white"/>
<path d="M138.07 0H135.65V116.72H138.07V0Z" fill="white"/>
<path d="M302.23 0H292.57V116.72H302.23V0Z" fill="white"/>
<path d="M170.789 0H168.369V148.28H170.789V0Z" fill="white"/>
<path d="M179.76 0H177.34V148.28H179.76V0Z" fill="white"/>
<path d="M52.8301 145.64L54.2501 143.82C54.9331 144.618 55.7792 145.26 56.7314 145.704C57.6836 146.147 58.7198 146.381 59.7701 146.39C62.3801 146.39 64.2401 144.83 64.2401 142.39C64.2401 139.82 62.4801 138.09 57.3401 138.09V135.96C61.9401 135.96 63.4601 134.2 63.4601 131.96C63.4601 129.87 62.0401 128.55 59.7401 128.55C58.8634 128.589 58.0034 128.803 57.2114 129.181C56.4194 129.559 55.7116 130.093 55.1301 130.75L53.6501 128.99C55.2738 127.304 57.4995 126.329 59.8401 126.28C63.5901 126.28 66.3001 128.28 66.3001 131.76C66.3001 134.37 64.7101 136.03 62.3801 136.91V137.04C63.6745 137.262 64.8486 137.935 65.6942 138.94C66.5398 139.945 67.0024 141.217 67.0001 142.53C67.0001 146.35 63.8601 148.69 59.9001 148.69C58.5712 148.723 57.2511 148.467 56.0306 147.94C54.8101 147.414 53.7182 146.629 52.8301 145.64Z" fill="white"/>
<path d="M70.1 146.63C76.6 140.16 80.25 136.27 80.25 132.79C80.25 130.32 78.9 128.56 76.16 128.56C75.2515 128.638 74.3705 128.91 73.5767 129.359C72.783 129.808 72.0951 130.422 71.56 131.16L70 129.57C71.79 127.57 73.72 126.29 76.53 126.29C80.53 126.29 82.99 128.83 82.99 132.65C82.99 136.71 79.3 140.74 74.19 146.09C75.38 145.98 76.69 145.88 77.81 145.88H84V148.33H70.1V146.63Z" fill="white"/>
<path d="M86.4102 145.75L87.7601 143.92C88.4442 144.691 89.283 145.31 90.222 145.736C91.1611 146.161 92.1792 146.384 93.2102 146.39C93.8531 146.402 94.4916 146.281 95.0855 146.035C95.6794 145.788 96.2159 145.421 96.6611 144.957C97.1063 144.493 97.4507 143.942 97.6725 143.338C97.8944 142.735 97.9889 142.092 97.9501 141.45C97.9501 138.45 96.1202 136.71 93.3502 136.71C92.0087 136.734 90.7122 137.197 89.6602 138.03L88.1702 137.08L88.8802 126.7H99.6702V129.1H91.3202L90.7402 135.49C91.751 134.912 92.8956 134.608 94.0602 134.61C97.7502 134.61 100.76 136.71 100.76 141.38C100.795 142.347 100.631 143.31 100.277 144.211C99.9243 145.112 99.3898 145.93 98.7071 146.615C98.0245 147.301 97.2083 147.839 96.3091 148.196C95.41 148.552 94.447 148.721 93.4801 148.69C92.1621 148.718 90.8528 148.471 89.6355 147.965C88.4182 147.458 87.3198 146.704 86.4102 145.75Z" fill="white"/>
<path d="M104 138.33C104 129.67 107.92 126.33 112.22 126.33C113.203 126.314 114.178 126.511 115.077 126.908C115.977 127.305 116.779 127.893 117.43 128.63L115.9 130.33C115.467 129.807 114.925 129.384 114.312 129.092C113.699 128.8 113.029 128.646 112.35 128.64C109.35 128.64 106.8 130.97 106.67 137.8C107.264 137.021 108.017 136.377 108.879 135.911C109.741 135.446 110.693 135.169 111.67 135.1C115.39 135.1 117.83 137.33 117.83 141.76C117.83 145.89 114.92 148.7 111.43 148.7C107.24 148.69 104 145.24 104 138.33ZM115.2 141.78C115.2 138.98 113.88 137.22 111.2 137.22C110.276 137.294 109.384 137.591 108.6 138.086C107.817 138.581 107.164 139.258 106.7 140.06C107.03 144.25 108.7 146.52 111.43 146.52C113.6 146.49 115.23 144.6 115.23 141.75L115.2 141.78Z" fill="white"/>
<path d="M131.42 129.1H120.66V126.7H134.57V128.42C129.46 134.95 128.41 139.86 128.04 148.28H125.16C125.54 140.16 127.16 135.02 131.42 129.1Z" fill="white"/>
<path d="M136.869 145.75L138.219 143.92C138.904 144.69 139.743 145.308 140.682 145.734C141.621 146.159 142.638 146.383 143.669 146.39C144.312 146.402 144.951 146.281 145.545 146.035C146.138 145.788 146.675 145.421 147.12 144.957C147.565 144.493 147.91 143.942 148.132 143.338C148.353 142.735 148.448 142.092 148.409 141.45C148.409 138.45 146.579 136.71 143.809 136.71C142.468 136.734 141.171 137.197 140.119 138.03L138.629 137.08L139.339 126.7H150.129V129.1H141.779L141.199 135.49C142.21 134.912 143.355 134.608 144.519 134.61C148.209 134.61 151.219 136.71 151.219 141.38C151.254 142.347 151.09 143.31 150.736 144.211C150.383 145.112 149.849 145.93 149.166 146.615C148.483 147.301 147.667 147.839 146.768 148.196C145.869 148.552 144.906 148.721 143.939 148.69C142.621 148.718 141.312 148.471 140.094 147.965C138.877 147.458 137.779 146.704 136.869 145.75Z" fill="white"/>
<path d="M311.869 0H309.449V148.28H311.869V0Z" fill="white"/>
<path d="M320.85 0H318.43V148.28H320.85V0Z" fill="white"/>
<path d="M194.529 137.42C194.529 130.18 197.129 126.29 201.459 126.29C205.789 126.29 208.369 130.18 208.369 137.42C208.369 144.66 205.759 148.69 201.459 148.69C197.159 148.69 194.529 144.66 194.529 137.42ZM205.659 137.42C205.659 131.09 203.969 128.52 201.459 128.52C198.949 128.52 197.239 131.09 197.239 137.42C197.239 143.75 198.929 146.42 201.459 146.42C203.989 146.42 205.659 143.75 205.659 137.42Z" fill="white"/>
<path d="M220.12 142.33H210.41V140.5L219.64 126.7H222.76V140.1H225.7V142.33H222.76V148.33H220.12V142.33ZM220.12 140.1V133.84C220.12 132.69 220.22 130.84 220.29 129.67H220.15C219.61 130.72 219 131.67 218.39 132.72L213.39 140.1H220.12Z" fill="white"/>
<path d="M238.901 129.1H228.141V126.7H242.001V128.42C236.891 134.95 235.851 139.86 235.471 148.28H232.601C233.001 140.16 234.631 135.02 238.901 129.1Z" fill="white"/>
<path d="M244.881 142.77C244.881 139.96 246.881 138.03 248.941 136.95V136.81C248.063 136.293 247.329 135.565 246.805 134.692C246.281 133.818 245.984 132.828 245.941 131.81C245.941 128.49 248.571 126.26 252.061 126.26C255.811 126.26 258.151 128.66 258.151 132.01C258.151 134.28 256.491 136.21 255.151 137.22V137.36C257.081 138.48 258.911 140 258.911 142.91C258.911 146.12 256.131 148.66 251.911 148.66C247.691 148.66 244.881 146.19 244.881 142.77ZM256.251 142.84C256.251 140.06 253.501 139.05 250.391 137.79C248.671 138.95 247.391 140.54 247.391 142.5C247.391 144.9 249.391 146.63 252.031 146.63C254.671 146.63 256.251 145.07 256.251 142.84ZM255.741 132.18C255.776 131.675 255.705 131.167 255.531 130.692C255.357 130.216 255.085 129.782 254.732 129.419C254.379 129.055 253.953 128.77 253.483 128.583C253.012 128.395 252.507 128.309 252.001 128.33C251.538 128.309 251.076 128.384 250.644 128.551C250.212 128.719 249.82 128.974 249.493 129.302C249.165 129.629 248.91 130.022 248.742 130.453C248.575 130.885 248.499 131.347 248.521 131.81C248.521 134.38 250.881 135.46 253.521 136.48C254.177 135.964 254.714 135.313 255.097 134.571C255.48 133.829 255.7 133.014 255.741 132.18Z" fill="white"/>
<path d="M261.881 138.33C261.881 129.67 265.811 126.33 270.101 126.33C271.084 126.313 272.059 126.509 272.959 126.907C273.859 127.304 274.661 127.892 275.311 128.63L273.761 130.33C273.326 129.809 272.784 129.388 272.171 129.096C271.558 128.804 270.89 128.649 270.211 128.64C267.211 128.64 264.661 130.97 264.521 137.8C265.115 137.021 265.868 136.377 266.73 135.912C267.592 135.446 268.544 135.169 269.521 135.1C273.241 135.1 275.681 137.33 275.681 141.76C275.681 145.89 272.771 148.7 269.291 148.7C265.101 148.69 261.881 145.24 261.881 138.33ZM273.081 141.78C273.081 138.98 271.761 137.22 269.081 137.22C268.157 137.294 267.265 137.591 266.481 138.086C265.697 138.581 265.045 139.258 264.581 140.06C264.921 144.25 266.581 146.52 269.321 146.52C271.461 146.49 273.081 144.6 273.081 141.75V141.78Z" fill="white"/>
<path d="M278 145.64L279.42 143.82C280.102 144.617 280.946 145.258 281.897 145.702C282.847 146.145 283.881 146.38 284.93 146.39C287.54 146.39 289.4 144.83 289.4 142.39C289.4 139.82 287.64 138.09 282.5 138.09V135.96C287.1 135.96 288.62 134.2 288.62 131.96C288.62 129.87 287.2 128.55 284.9 128.55C284.025 128.59 283.167 128.805 282.377 129.183C281.587 129.561 280.88 130.094 280.3 130.75L278.81 128.99C280.444 127.326 282.668 126.37 285 126.33C288.76 126.33 291.47 128.33 291.47 131.81C291.47 134.42 289.88 136.08 287.54 136.96V137.09C288.842 137.301 290.026 137.968 290.882 138.972C291.737 139.976 292.208 141.251 292.21 142.57C292.21 146.39 289.06 148.73 285.1 148.73C283.763 148.764 282.434 148.505 281.208 147.971C279.981 147.437 278.886 146.642 278 145.64Z" fill="white"/>
<path d="M0.369999 146.42L1.92 144.66C2.35367 145.188 2.89632 145.616 3.51078 145.914C4.12524 146.213 4.79699 146.375 5.48 146.39C8.48 146.39 11.09 144.02 11.2 137.12C10.6086 137.926 9.8468 138.593 8.96882 139.071C8.09084 139.55 7.1182 139.83 6.12 139.89C2.4 139.89 0 137.66 0 133.23C0 129.1 2.9 126.29 6.36 126.29C10.62 126.29 13.8 129.74 13.8 136.68C13.8 145.34 9.87 148.68 5.58 148.68C4.60076 148.696 3.62942 148.502 2.73093 148.113C1.83245 147.723 1.02753 147.146 0.369999 146.42ZM11.13 134.92C10.75 130.72 9.13 128.49 6.36 128.49C4.26 128.49 2.6 130.38 2.6 133.23C2.6 136.08 3.92 137.79 6.6 137.79C7.53099 137.714 8.42962 137.413 9.21867 136.913C10.0077 136.413 10.6636 135.729 11.13 134.92Z" fill="white"/>
</svg>
