<svg width="166" height="20" viewBox="0 0 166 20" fill="none" xmlns="http://www.w3.org/2000/svg">
<path opacity="0.7" fill-rule="evenodd" clip-rule="evenodd" d="M76.2188 20C81.7416 20 86.2188 15.5228 86.2188 10C86.2188 4.47715 81.7416 0 76.2188 0C70.6959 0 66.2188 4.47715 66.2188 10C66.2188 15.5228 70.6959 20 76.2188 20ZM129.255 2.49839C130.141 2.39985 131.03 2.25313 131.229 2.17272C131.429 2.09214 131.612 2.02146 131.635 2.01559C131.658 2.00988 131.677 2.49319 131.677 3.08964V4.17443L131.046 4.33542C130.7 4.42406 129.925 4.54526 129.324 4.60486C126.85 4.85046 125.752 5.4961 125.213 7.02089C124.804 8.17871 124.875 8.35867 125.5 7.75416C127.013 6.29148 129.488 6.35863 130.954 7.90205C131.966 8.96821 132.26 9.90377 132.262 12.0774C132.265 13.8056 132.219 14.1048 131.831 14.9322C130.944 16.8203 129.567 17.6882 127.469 17.6813C126.391 17.6778 126.067 17.6039 125.297 17.1856C124.265 16.6252 123.596 15.798 123.157 14.5414C122.91 13.835 122.853 13.1375 122.853 10.8183C122.853 8.29169 122.898 7.8297 123.24 6.78939C124.144 4.04332 125.765 2.88718 129.255 2.49839ZM73.0465 4.8147C73.268 3.78295 74.1376 2.77773 75.1221 2.41513C75.9665 2.10422 77.383 2.20713 78.1117 2.63218C78.7593 3.01007 79.4078 3.92262 79.4078 4.45612C79.4078 5.53051 78.4714 6.34839 77.6141 6.02288C76.8146 5.71937 76.6584 5.04704 77.1809 4.15882C77.4651 3.67585 77.4636 3.65033 77.1389 3.40742C76.6625 3.05136 75.7161 3.23334 75.2482 3.77137C74.8045 4.28137 74.751 5.14927 75.1193 5.86072C75.4277 6.45616 76.8206 7.16425 77.9793 7.3145C79.248 7.47901 79.4641 7.63681 79.3534 8.31854C79.3021 8.63381 79.0214 9.53932 78.7297 10.3307L78.1991 11.7697L78.5401 12.1333C79.346 12.9928 79.4999 14.8825 78.8562 16.0174C77.6725 18.1052 74.3878 18.3275 73.1789 16.4016C72.447 15.2356 73.248 13.5941 74.4352 13.8268C75.3225 14.0007 75.6705 14.9455 75.1167 15.6768C74.7473 16.1646 74.8144 16.3899 75.3885 16.5898C76.0137 16.8075 76.9253 16.4941 77.2095 15.9636C77.4692 15.479 77.4335 14.661 77.127 14.0687C76.8075 13.4518 75.5902 12.8533 74.0262 12.5444C73.0492 12.3514 72.932 12.2849 72.887 11.8984C72.8594 11.6616 73.1065 10.7235 73.4362 9.81396L74.0356 8.16024L73.6735 7.77548C73.1092 7.17533 72.8263 5.8399 73.0465 4.8147ZM1.28228 4.09973C1.93052 3.36226 2.88816 2.84639 4.11371 2.5741C4.62211 2.46129 6.11573 2.36258 7.43304 2.35486L9.828 2.34076V17.4493H7.30699V4.30672L6.03858 4.40257C4.62379 4.50951 3.73001 4.88538 3.19892 5.59682C2.92447 5.96429 2.85321 6.31062 2.85321 7.27622C2.85321 8.86564 3.28749 9.54452 5.12884 10.8333L6.4806 11.7794L6.1922 12.2221C6.03354 12.4657 5.18648 13.7413 4.31001 15.0571L2.7164 17.4493H1.3043C0.220266 17.4493 -0.0788942 17.4006 0.0167361 17.2395C0.0853075 17.1242 0.808333 16.0306 1.62329 14.8097C2.43842 13.5887 3.10531 12.5291 3.10531 12.4549C3.10531 12.3807 2.65724 11.9261 2.10985 11.4447C0.705307 10.2098 0.186484 9.08405 0.196232 7.29301C0.204467 5.78249 0.457744 5.0378 1.28228 4.09973ZM93.19 8.09494C91.9698 5.16102 90.9319 2.66274 90.8833 2.54355C90.8144 2.37433 91.0996 2.3374 92.1783 2.37567L93.5614 2.42469L95.0693 6.20183C95.8988 8.27926 96.6344 10.0382 96.7041 10.1106C96.7739 10.1829 97.5137 8.48323 98.3483 6.33345L99.8658 2.42469L101.065 2.37534C101.725 2.34831 102.265 2.37886 102.265 2.44333C102.265 2.67885 97.1808 14.8711 96.7551 15.6563C95.9335 17.1718 94.5895 17.9373 93.1704 17.6979L92.5171 17.5877V15.3486L93.2732 15.4085C93.949 15.4622 94.091 15.4071 94.6078 14.8909C94.8564 14.6426 95.0448 14.4608 95.1508 14.2395C95.4744 13.5641 95.0305 12.5209 93.19 8.09494ZM33.2223 12.5217C33.0796 9.30581 34.0477 7.3667 36.174 6.60859C36.5199 6.48537 37.2188 6.38163 37.7272 6.37793C40.5003 6.3588 41.8693 7.90575 42.0549 11.2679L42.1458 12.9168H35.8784V13.4288C35.8784 14.0123 36.2023 14.7162 36.6619 15.1317C37.434 15.8295 39.6557 15.8097 41.1436 15.0917C41.5177 14.9111 41.8475 14.7634 41.8764 14.7634C41.9053 14.7634 41.9288 15.2151 41.9288 15.7672C41.9288 16.7607 41.9223 16.7743 41.2895 17.0968C39.7949 17.8584 37.4157 17.9294 35.8784 17.2586C34.1191 16.4908 33.3364 15.0949 33.2223 12.5217ZM53.1722 10.9573C53.4917 8.81159 54.5061 7.3573 56.1441 6.69689C56.8172 6.42561 57.2678 6.37474 58.5692 6.42309C60.7364 6.50384 60.9204 6.61833 60.9204 7.88644C60.9204 8.43723 60.8638 8.88663 60.7944 8.88528C60.725 8.88394 60.3658 8.77382 59.9961 8.64086C58.9487 8.26399 57.712 8.31552 57.0378 8.76408C56.1258 9.37077 55.7976 10.2249 55.7967 11.9935C55.7961 13.7952 56.2332 14.922 57.114 15.3883C57.7806 15.7412 59.2789 15.7311 60.1495 15.3679C60.5036 15.22 60.822 15.0991 60.8569 15.0991C60.8919 15.0991 60.9204 15.5562 60.9204 16.1149C60.9204 17.103 60.9055 17.1369 60.3742 17.3553C58.807 17.9998 56.3954 17.779 55.0712 16.8698C53.5683 15.8381 52.8011 13.4492 53.1722 10.9573ZM112.989 8.84281C113.581 7.64319 114.267 6.98882 115.332 6.60926C115.679 6.48554 116.458 6.38112 117.064 6.37709C118.451 6.36786 119.737 6.95055 120.336 7.85924C120.888 8.69592 121.257 10.2318 121.257 11.693V12.9168H115.038V13.3418C115.038 13.9043 115.418 14.7778 115.816 15.1313C116.597 15.8252 118.764 15.8095 120.373 15.0983L121.089 14.7822V15.7761C121.089 16.6247 121.033 16.8047 120.71 17.007C119.966 17.4735 118.964 17.6828 117.475 17.6828C115.095 17.6828 113.649 16.8599 112.822 15.035C112.482 14.2834 112.433 13.9124 112.433 12.0735C112.433 10.0332 112.449 9.93818 112.989 8.84281ZM12.0129 17.4493V6.53758H14.7019V10.914L18.1473 10.8183L18.2414 6.53758H20.7524V17.4493H18.2411L18.1473 13.0007L14.7019 12.905V17.4493H12.0129ZM22.9856 14.5451C23.3976 13.2251 23.5934 11.7448 23.7171 9.01371L23.8293 6.53758H31.3406V15.4348H32.5171V19.9674H29.9961V17.4493H24.2818V19.9674H21.751L21.8448 15.5188L22.2789 15.4684C22.6409 15.4263 22.7584 15.2727 22.9856 14.5451ZM43.7776 17.4493V6.53758H46.4577L46.5507 11.4438L50.0767 6.53758H51.4014C52.4386 6.53758 52.69 6.58307 52.5588 6.74742C51.7305 7.78538 49.1557 11.4544 49.1557 11.5968C49.1557 11.697 50.0255 13.0103 51.0885 14.5151C52.1515 16.0199 53.0213 17.2957 53.0213 17.3503C53.0213 17.4047 52.391 17.4493 51.6208 17.4493H50.2203L46.4667 12.1895V17.4493H43.7776ZM102.272 11.6105C102.177 11.2672 102.098 9.98519 102.098 8.7619L102.097 6.53758H104.585L104.643 8.81847C104.701 11.0785 104.706 11.1032 105.174 11.5044C105.721 11.9745 106.519 12.0326 107.396 11.6663L107.979 11.423V6.53758H110.5V17.4493H107.979V15.4348C107.979 14.3269 107.934 13.4204 107.879 13.4204C107.824 13.4204 107.36 13.5421 106.848 13.6908C104.736 14.3039 102.773 13.4115 102.272 11.6105ZM134.198 17.4493V6.53758H136.719V10.9023H140.248V6.53758H142.769V17.4493H140.248V12.9168H136.719V17.4493H134.198ZM144.954 17.4493V6.53758H147.468L147.559 13.2772L151.545 6.53758H153.862V17.4493H151.341V14.1659C151.341 12.3537 151.275 10.9228 151.195 10.9724C151.115 11.022 150.2 12.4996 149.162 14.2559L147.276 17.4493H144.954ZM156.046 17.4493V6.53758H158.567V11.6282L160.353 9.15338C161.336 7.79226 162.232 6.64317 162.345 6.59986C162.458 6.55655 163.054 6.54362 163.67 6.57132L164.79 6.62152L163.023 9.05433C162.052 10.3923 161.257 11.5345 161.257 11.5924C161.257 11.6775 162.919 14.0835 164.985 16.9877L165.313 17.4493L162.349 17.4433L158.652 12.23L158.559 17.4493H156.046ZM39.4078 10.4772C39.4078 9.60915 38.992 8.74511 38.4806 8.55105C37.0828 8.02007 35.8784 8.95042 35.8784 10.5612V11.0701H39.4078V10.4772ZM118.567 10.4772C118.567 9.7035 118.18 8.79396 117.752 8.56549C117.254 8.29924 116.346 8.34456 115.898 8.65798C115.432 8.98416 115.038 9.85525 115.038 10.5612V11.0701H118.567V10.4772ZM28.7325 12.8748C28.7966 11.4667 28.8235 9.93701 28.7922 9.47536L28.7356 8.63599L26.0146 8.5393L25.9114 10.4342C25.8157 12.1885 25.4754 14.4459 25.2018 15.1411C25.0961 15.4095 25.2382 15.4348 26.8512 15.4348H28.6161L28.7325 12.8748ZM129.656 12.2342C129.652 10.5949 129.365 9.57575 128.769 9.08253C128.363 8.74746 127.295 8.68283 126.688 8.9568C125.776 9.36775 125.542 10.0392 125.542 12.2453C125.542 13.852 125.596 14.2651 125.865 14.7083C126.269 15.3749 126.815 15.6737 127.591 15.6517C129.071 15.6098 129.662 14.6321 129.656 12.2342ZM77.703 9.4908C77.67 9.46428 77.2272 9.35768 76.7188 9.25393C76.2104 9.15019 75.6366 9.01975 75.4438 8.96418C75.1502 8.87941 75.0478 8.98181 74.8135 9.59455C74.4485 10.5491 74.452 10.5665 75.0114 10.5665C75.2741 10.5665 75.8601 10.679 76.3139 10.8165C76.7677 10.954 77.1475 11.0673 77.1581 11.0683C77.2191 11.0742 77.7522 9.53042 77.703 9.4908Z" fill="white"/>
</svg>
