<svg width="121" height="23" viewBox="0 0 121 23" fill="none" xmlns="http://www.w3.org/2000/svg">
<path opacity="0.7" fill-rule="evenodd" clip-rule="evenodd" d="M0.0197853 0.0192438C0.00889894 0.0298034 0 4.04158 0 8.9343V17.8301H1.45349H2.90699V8.91506V0H1.47328C0.684714 0 0.030642 0.00865539 0.0197853 0.0192438ZM93.8443 0.0192438C93.8334 0.0298034 93.8245 4.04158 93.8245 8.9343V17.8301H95.278H96.7315V8.91506V0H95.2978C94.5093 0 93.8552 0.00865539 93.8443 0.0192438ZM19.0437 4.51867C17.4732 4.70297 16.3328 5.13655 15.4187 5.89704C14.6378 6.54665 14.1039 7.48966 13.959 8.47508L13.941 8.5977H15.5062H17.0714L17.1408 8.40295C17.2901 7.98455 17.5825 7.64488 17.9938 7.41202C18.4239 7.16852 18.8166 7.05931 19.439 7.01018C20.1863 6.95115 20.9127 7.06315 21.4465 7.3197C21.6794 7.43167 21.7722 7.49791 21.9815 7.70183C22.2634 7.97661 22.4045 8.21441 22.5128 8.59764C22.6229 8.9871 22.6363 9.34795 22.627 11.6773L22.6182 13.9058L22.2597 14.2466C21.2694 15.1884 20.2599 15.6772 19.0256 15.8127C18.554 15.8645 17.9527 15.8012 17.503 15.6524C16.8302 15.4298 16.3772 14.9652 16.2397 14.3565C16.1778 14.0827 16.1927 13.5786 16.2699 13.3293C16.4431 12.7709 16.8524 12.3651 17.4316 12.1779C17.8381 12.0464 18.0513 12.031 19.4629 12.031H20.7939V11.0046V9.97826L19.155 9.99018C17.6522 10.0011 17.4847 10.0072 17.1379 10.0638C15.8905 10.2675 14.9775 10.674 14.311 11.3226C13.9865 11.6383 13.8115 11.8729 13.6185 12.2507C13.3445 12.7873 13.2327 13.2483 13.21 13.9352C13.1957 14.3663 13.2023 14.4907 13.2549 14.7863C13.3339 15.2301 13.4297 15.5162 13.6321 15.9123C14.1033 16.835 14.9538 17.5248 16.0651 17.8857C17.1807 18.2479 18.7926 18.2376 19.9607 17.8608C20.689 17.6259 21.4982 17.2318 22.0224 16.8569C22.195 16.7335 22.2012 16.7316 22.408 16.7398L22.6182 16.7482L22.6262 17.2892L22.6343 17.8301H24.0871H25.54V13.42C25.54 10.6211 25.5287 8.87409 25.5091 8.63794C25.4061 7.39708 24.9497 6.44539 24.1161 5.73336C23.4084 5.12884 22.3901 4.73511 21.0757 4.55779C20.8403 4.52605 19.243 4.49527 19.0437 4.51867ZM32.6944 4.53182C32.0606 4.59134 31.1052 4.845 30.5338 5.10544C29.9291 5.38103 29.2848 5.8825 28.9045 6.37349C28.6873 6.65384 28.4275 7.14382 28.3141 7.48692C28.09 8.16518 28.0892 9.12951 28.3121 9.79364C28.4746 10.278 28.7036 10.6388 29.0832 11.0089C29.6126 11.5249 30.2858 11.8593 31.2798 12.1001C31.8092 12.2283 32.1852 12.2782 33.5787 12.4049C34.8432 12.52 35.0644 12.5459 35.3196 12.6094C36.1577 12.8179 36.5254 13.2807 36.4762 14.065C36.4093 15.1313 35.4983 15.6776 33.7863 15.6779C32.561 15.6781 31.7465 15.3779 31.2088 14.7278C31.0207 14.5004 30.827 14.1618 30.7594 13.9424L30.7216 13.8198H29.2135H27.7054V13.8867C27.7054 13.9994 27.8139 14.4534 27.9115 14.7489C28.1061 15.3384 28.5451 16.0438 28.9942 16.4886C29.8075 17.2943 30.9736 17.8504 32.2587 18.0456C32.7789 18.1246 33.1032 18.1465 33.7567 18.1467C34.4288 18.147 34.6967 18.1266 35.2963 18.0293C36.9342 17.7637 38.2956 16.8925 38.9249 15.7071C39.1042 15.3692 39.1733 15.1945 39.2596 14.8606C39.4009 14.3137 39.4238 13.5942 39.3183 13.0109C39.1 11.8032 38.271 10.9038 36.9705 10.4635C36.3886 10.2665 35.903 10.1729 35.0025 10.0842C34.7496 10.0592 34.2891 10.0138 33.9791 9.98322C33.6692 9.95258 33.3221 9.91955 33.2079 9.90977C32.1414 9.81837 31.409 9.49679 31.1617 9.01134C30.9903 8.67499 31.0336 8.13232 31.259 7.78986C31.612 7.25345 32.3141 6.95181 33.3173 6.90542C34.2522 6.8622 34.9869 7.04763 35.5103 7.45885C35.861 7.73444 36.1283 8.18561 36.1294 8.50393L36.1297 8.5977H37.5387C38.8611 8.5977 38.9477 8.59458 38.9471 8.54721C38.9468 8.51945 38.9278 8.35941 38.9048 8.19158C38.7083 6.75609 37.8963 5.68169 36.5437 5.06748C35.9969 4.81918 35.2621 4.62495 34.5576 4.54253C34.1878 4.49925 33.1072 4.49305 32.6944 4.53182ZM47.8318 4.54377C47.2608 4.62083 46.5588 4.85507 46.0781 5.12884C45.6024 5.39976 45.0458 5.86853 44.7927 6.21137L44.6923 6.34729H44.4902H44.2881L44.2802 5.58994L44.2723 4.8326L42.8262 4.8251L41.3801 4.81762V13.6175V22.4175H42.8329H44.2857L44.2954 16.3803C44.306 9.84632 44.2965 10.2483 44.4533 9.69405C44.5708 9.27896 44.7804 8.82591 45.0065 8.49839C45.1586 8.27811 45.5523 7.89563 45.7851 7.74202C46.1744 7.4851 46.6904 7.28415 47.1941 7.19324C47.7175 7.09875 48.5634 7.12703 49.0777 7.25617C50.7045 7.66476 51.5842 9.07218 51.5842 11.2664C51.5842 13.1176 50.9595 14.33 49.7303 14.8643C49.1174 15.1307 48.7651 15.1754 47.2756 15.1756L46.0965 15.1758V16.5048V17.8339L47.6168 17.8232C49.0423 17.8131 49.1591 17.8084 49.4922 17.7475C50.8084 17.5067 51.7874 17.0501 52.609 16.2938C53.2172 15.734 53.6664 15.0717 54.0007 14.2422C54.5164 12.9627 54.6506 11.1608 54.3558 9.47766C54.1963 8.56763 53.8214 7.61733 53.3428 6.90989C52.4559 5.59889 51.0793 4.7654 49.4359 4.54437C49.0479 4.49221 48.2162 4.49189 47.8318 4.54377ZM61.7883 4.55026C61.3702 4.60317 60.6589 4.7742 60.2607 4.91759C59.3847 5.23305 58.5697 5.74958 57.9313 6.39389C57.1136 7.21924 56.5896 8.1986 56.2892 9.46323C56.1335 10.1187 56.1077 10.3913 56.1094 11.3674C56.1108 12.2268 56.1154 12.3012 56.1929 12.7347C56.4578 14.2153 57.0277 15.3618 57.9716 16.3135C58.1077 16.4509 58.224 16.5533 58.5084 16.7864C59.0741 17.25 60.0918 17.7395 60.9241 17.9482C61.5265 18.0993 62.1132 18.1558 62.9007 18.1385C63.8039 18.1186 64.2682 18.0448 64.9439 17.8135C66.4809 17.2875 67.7185 16.1793 68.3807 14.7361C68.5227 14.4266 68.6999 13.9404 68.6999 13.8605C68.6999 13.826 68.4804 13.8198 67.2686 13.8199L65.8374 13.82L65.738 14.007C65.3699 14.6993 64.6152 15.2634 63.7743 15.475C63.0401 15.6596 62.2158 15.6441 61.4772 15.4317C60.4578 15.1385 59.6325 14.317 59.2862 13.2508C59.0624 12.5618 58.9865 11.9867 59.0091 11.151C59.0266 10.4996 59.0689 10.1856 59.207 9.67916C59.4812 8.67415 60.0021 7.96005 60.8113 7.47985C61.7039 6.9502 63.0767 6.84123 64.1317 7.21626C64.9843 7.51935 65.643 8.21129 65.9104 9.08456C65.9685 9.27432 66.0593 9.78092 66.0597 9.9175L66.0598 9.98224L63.4421 9.98963L60.8243 9.99698L60.8165 11.014L60.8087 12.031H64.8608H68.9129L68.8996 10.9419C68.8855 9.78628 68.8681 9.60083 68.711 8.92949C68.6169 8.52779 68.4927 8.17142 68.3187 7.80428C68.0111 7.1555 67.7135 6.72637 67.2335 6.23936C66.3017 5.29402 65.0659 4.71739 63.5978 4.5431C63.1578 4.49088 62.2287 4.49455 61.7883 4.55026ZM77.3615 4.54429C76.922 4.60283 76.4722 4.73176 76.1305 4.89708C75.6154 5.1463 75.0665 5.63859 74.6662 6.21025L74.5703 6.34729H74.3641H74.1579V5.58273V4.81817H72.7044H71.2509V11.3241V17.8301H72.7044H74.1579V14.2556C74.1579 11.9646 74.1691 10.5738 74.1891 10.3823C74.3752 8.59963 75.2695 7.5995 76.8668 7.38784C76.9961 7.37071 77.5838 7.35709 78.1942 7.35709H79.2896V5.92895V4.50081L78.4665 4.50378C77.9728 4.50557 77.5305 4.52178 77.3615 4.54429ZM85.3261 4.52005C84.4576 4.58996 83.4631 4.85946 82.8195 5.1993C82.1299 5.56346 81.5034 6.1198 81.1614 6.67161C80.9652 6.98831 80.7893 7.42711 80.696 7.83314C80.626 8.13763 80.609 8.89466 80.6643 9.24685C80.8467 10.4075 81.5176 11.2422 82.6738 11.7467C83.1778 11.9666 83.9521 12.1723 84.5993 12.2584C84.8371 12.2899 86.0098 12.405 86.8389 12.4781C87.8642 12.5684 88.3462 12.72 88.6486 13.0472C89.1164 13.5532 89.0322 14.5777 88.4821 15.0729C88.1032 15.4142 87.5909 15.5887 86.7351 15.6682C85.9037 15.7455 85.0325 15.6165 84.4362 15.3278C84.1962 15.2117 83.8702 14.9582 83.6948 14.7514C83.524 14.55 83.2968 14.1519 83.233 13.9424L83.1957 13.8198H81.6876C80.2711 13.8198 80.1795 13.8228 80.1795 13.8703C80.1795 13.9631 80.2686 14.3796 80.3446 14.642C80.4939 15.1575 80.936 15.9181 81.3448 16.3629C82.0669 17.1486 83.2653 17.7785 84.4588 17.9999C85.065 18.1124 85.3381 18.1331 86.216 18.1331C87.1264 18.1331 87.4037 18.1104 88.0177 17.9855C88.634 17.8602 89.4253 17.5526 89.9387 17.2388C90.3609 16.9807 90.9149 16.4568 91.2048 16.0413C91.8572 15.1065 92.0438 13.6457 91.6553 12.5154C91.2159 11.2373 90.0788 10.4586 88.233 10.172C88.0699 10.1466 87.3416 10.0683 86.6145 9.99788C85.8875 9.92748 85.1867 9.8488 85.0572 9.82304C84.4966 9.7115 84.1053 9.53629 83.8394 9.27769C83.6843 9.12686 83.6464 9.06892 83.5937 8.90314C83.4845 8.55915 83.5254 8.15506 83.7012 7.84081C83.7446 7.76329 83.8691 7.61825 83.9778 7.51845C84.4026 7.12873 84.9528 6.94249 85.7858 6.90643C86.5411 6.87377 87.0659 6.96408 87.5911 7.2171C87.9719 7.40057 88.2638 7.66464 88.4316 7.97739C88.5288 8.15849 88.5587 8.24577 88.6175 8.51835L88.6346 8.5977H90.0282H91.4218V8.53203C91.4218 8.20076 91.2692 7.54027 91.1005 7.14189C90.4844 5.68639 89.083 4.79189 87.0326 4.5453C86.6975 4.50499 85.6971 4.49019 85.3261 4.52005ZM8.23078 5.42592C7.97016 5.7602 7.43958 6.43858 7.05173 6.93341C6.66386 7.42826 6.24012 7.96946 6.11005 8.13607C5.98 8.30269 5.57819 8.81552 5.21713 9.2757C4.8561 9.73588 4.53677 10.1498 4.50755 10.1954C4.45994 10.2698 4.45404 10.3646 4.45081 11.1076L4.44722 11.9368L4.98774 12.6691C5.28502 13.0719 5.64374 13.5572 5.78491 13.7477C5.92607 13.9381 6.25314 14.3795 6.51171 14.7286C6.77032 15.0777 7.15523 15.597 7.36711 15.8827C7.57902 16.1683 7.8958 16.5967 8.07108 16.8347C8.24639 17.0728 8.48185 17.3909 8.59436 17.5416L8.79892 17.8157L10.6029 17.8231C12.0485 17.8291 12.4011 17.8234 12.378 17.7943C12.3621 17.7743 12.0133 17.3133 11.6029 16.7698C10.3692 15.136 9.39394 13.8467 8.815 13.0841C8.51386 12.6874 8.18596 12.2537 8.08635 12.1204C7.98674 11.9871 7.7751 11.709 7.61601 11.5024C7.45693 11.2958 7.3268 11.1108 7.3268 11.0914C7.3268 11.0719 7.40016 10.9637 7.4898 10.8508C7.68121 10.6099 8.0938 10.0872 9.01801 8.91506C9.38711 8.44695 10.0275 7.6355 10.4412 7.11185C11.7872 5.40801 12.2212 4.85291 12.2212 4.8354C12.2212 4.82593 11.43 4.81817 10.4629 4.81817H8.70465L8.23078 5.42592ZM101.967 5.54303C101.657 5.94121 101.334 6.35324 101.25 6.4586C101.166 6.56399 100.462 7.46167 99.686 8.45344L98.2754 10.2566L98.2747 11.0972L98.274 11.9377L98.7286 12.5542C98.9787 12.8932 99.3563 13.4043 99.5678 13.69C99.7794 13.9756 100.058 14.3521 100.186 14.5266C100.315 14.7012 100.455 14.8894 100.498 14.945C100.541 15.0005 100.719 15.2407 100.894 15.4787C101.246 15.958 101.265 15.9835 101.73 16.6053C101.909 16.8456 102.187 17.2194 102.346 17.4361L102.637 17.8301H104.432H106.228L106.16 17.7364C106.122 17.6848 105.865 17.3423 105.587 16.9753C105.309 16.6083 104.98 16.1734 104.856 16.0088C103.894 14.7342 103.634 14.3916 103.2 13.8198C102.928 13.4628 102.6 13.0295 102.47 12.8571C102.34 12.6846 102.169 12.4574 102.089 12.3522C101.146 11.1115 101.14 11.1033 101.181 11.04C101.202 11.0067 101.541 10.5713 101.934 10.0725C102.328 9.57362 102.742 9.04746 102.854 8.90323C102.967 8.75897 103.189 8.47868 103.346 8.28033C103.625 7.92909 105.395 5.68605 105.829 5.13346C105.948 4.98159 106.046 4.84849 106.046 4.83773C106.046 4.82697 105.255 4.81837 104.288 4.8186L102.531 4.81907L101.967 5.54303ZM106.758 4.8326C106.758 4.8457 107.297 5.97756 107.692 6.79449C107.769 6.95317 107.912 7.25178 108.01 7.45807C108.108 7.66435 108.229 7.91753 108.278 8.02067C108.327 8.12381 108.433 8.34453 108.514 8.51114C108.595 8.67776 108.719 8.93742 108.789 9.08817C108.859 9.23892 109.012 9.55536 109.128 9.79136C109.244 10.0274 109.338 10.2239 109.338 10.2281C109.338 10.2323 109.407 10.3768 109.49 10.5491C109.982 11.5655 110.105 11.8209 110.258 12.1464C110.433 12.5164 112.027 15.8333 112.24 16.2702C112.326 16.4476 112.352 16.5296 112.334 16.5731C112.321 16.6059 112.257 16.7431 112.193 16.878C112.047 17.1812 111.797 17.7089 111.592 18.1475C111.507 18.33 111.391 18.5766 111.334 18.6957C111.125 19.1342 110.393 20.6859 110.183 21.1336C110.064 21.3875 109.918 21.6991 109.857 21.826C109.796 21.953 109.709 22.138 109.662 22.2372L109.578 22.4175H111.131H112.683L112.84 22.0785C112.926 21.892 113.103 21.5188 113.232 21.249C113.509 20.6717 113.557 20.5685 113.744 20.1671C113.821 20.0005 114.018 19.585 114.18 19.2438C114.656 18.2453 114.937 17.6537 115.487 16.4885C115.773 15.8855 116.056 15.2883 116.116 15.1614C116.224 14.9369 116.304 14.7678 116.472 14.4112C116.69 13.9482 118.364 10.4166 118.544 10.0403C118.85 9.39913 119.572 7.87055 119.572 7.86233C119.572 7.85676 119.647 7.6986 119.739 7.51087C119.83 7.32316 120.082 6.79305 120.299 6.33287C120.516 5.87269 120.754 5.37041 120.827 5.21672C120.901 5.06303 120.97 4.91047 120.981 4.87772L121 4.81817H119.4H117.8L117.599 5.25815C117.408 5.67901 117.053 6.4455 116.87 6.83257C116.823 6.93286 116.784 7.01912 116.784 7.02432C116.784 7.02948 116.642 7.33692 116.469 7.70752C116.296 8.07811 116.051 8.60851 115.924 8.88621C115.797 9.1639 115.639 9.50146 115.574 9.63634C115.315 10.1703 114.648 11.6609 114.521 11.9877C114.346 12.4391 114.191 12.8986 114.143 13.1072L114.104 13.2739L113.895 13.2656L113.686 13.2572L113.66 13.1562C113.496 12.5329 113.202 11.8152 112.556 10.4586C112.42 10.173 112.296 9.90682 112.28 9.86715C112.264 9.82748 112.082 9.4315 111.875 8.98719C111.667 8.54288 111.474 8.12093 111.444 8.04952C111.415 7.97811 111.335 7.80284 111.266 7.66003C111.197 7.51721 111.038 7.17316 110.911 6.89547C110.784 6.61777 110.563 6.1374 110.42 5.82797C110.277 5.51854 110.116 5.16799 110.063 5.04898L109.965 4.8326L108.361 4.82512C107.479 4.82103 106.758 4.82437 106.758 4.8326Z" fill="white"/>
</svg>
