<svg width="73" height="23" viewBox="0 0 73 23" fill="none" xmlns="http://www.w3.org/2000/svg">
<path opacity="0.7" fill-rule="evenodd" clip-rule="evenodd" d="M7.5521 0.0354825C6.52928 0.112632 5.29206 0.378835 4.45466 0.701826C1.65938 1.78013 0.107004 4.29215 0.35389 7.33764C0.522574 9.41867 1.37487 10.8204 3.0587 11.7863C3.82235 12.2243 4.44601 12.4184 7.57532 13.1917C9.2357 13.6021 10.858 14.0155 11.1803 14.1104C12.3148 14.4444 13.1325 14.9555 13.4136 15.5062C13.5954 15.8621 13.6636 16.3876 13.5877 16.8467C13.4028 17.9656 12.6236 18.6911 11.2289 19.0428C10.2829 19.2815 8.97832 19.3621 8.01528 19.2414C5.89774 18.976 4.66103 17.9593 4.38227 16.2547L4.29614 15.7282H2.14807H0L0.0326539 16.3558C0.0866305 17.3936 0.426678 18.5016 0.979785 19.4422C1.33217 20.0414 2.29102 21.0392 2.89197 21.4321C4.0919 22.2167 5.55697 22.7022 7.41255 22.9303C8.15131 23.0211 10.1776 23.0238 10.8454 22.9349C12.4615 22.7196 13.8945 22.2429 15.0318 21.5423L15.3946 21.3188L15.4105 21.8984L15.4263 22.4781H17.5455H19.6647L19.6671 19.8981L19.6695 17.3181L20.5604 16.3976C21.3889 15.5416 21.4561 15.485 21.5206 15.5887C21.5587 15.6501 22.4337 17.219 23.4651 19.0753L25.3403 22.4502L27.8611 22.4647C29.2476 22.4727 30.3819 22.4666 30.3819 22.4512C30.3819 22.4358 29.0742 20.1999 27.4758 17.4826C25.8774 14.7652 24.5776 12.519 24.5872 12.4911C24.5968 12.4631 25.7853 11.143 27.2282 9.55752C28.6711 7.97196 29.9353 6.57797 30.0374 6.45982L30.2232 6.24488L27.6372 6.24784L25.0513 6.2508L22.372 9.32947L19.6927 12.4081L19.6784 6.48152L19.6642 0.55489H17.5434H15.4225V1.47533C15.4225 1.98157 15.4025 2.39577 15.378 2.39577C15.3536 2.39577 15.2343 2.29212 15.1129 2.16543C14.2694 1.28499 12.6943 0.514 11.1483 0.224815C10.0644 0.0220392 8.68974 -0.0503136 7.5521 0.0354825ZM9.6453 3.81693C10.3169 3.92632 10.6855 4.04029 11.1456 4.28061C12.0807 4.769 12.6905 5.6447 12.8443 6.71972L12.8841 6.99797L14.1533 7.01297L15.4225 7.02798V9.09094C15.4225 10.2255 15.4132 11.1539 15.4018 11.1539C15.3904 11.1539 15.1187 11.0286 14.798 10.8755C13.9898 10.4897 13.1479 10.225 11.264 9.76431C10.3737 9.54658 8.86769 9.17813 7.91726 8.94551C6.11918 8.50548 5.64109 8.33712 5.22714 7.99812C4.79214 7.64189 4.53923 7.04856 4.53923 6.38434C4.53923 5.054 5.51103 4.13864 7.25849 3.8229C7.83582 3.71858 9.02353 3.71557 9.6453 3.81693ZM33.8706 15.3376C32.8487 15.4537 31.9952 16.0264 31.5599 16.8882C30.92 18.155 30.9804 20.1188 31.6933 21.2229C32.2331 22.0592 32.9728 22.4624 34.066 22.5166C35.6456 22.5948 36.7293 21.8238 37.1583 20.3165L37.2416 20.0236H36.519C35.8685 20.0236 35.7962 20.0333 35.7951 20.1212C35.793 20.2901 35.574 20.7133 35.3885 20.9071C34.8505 21.469 33.8431 21.5125 33.2435 20.9995C32.6447 20.4873 32.3623 19.2497 32.5912 18.1418C32.748 17.3835 33.0722 16.9001 33.5959 16.6441C33.8711 16.5095 33.9456 16.4978 34.3913 16.5191C35.1351 16.5546 35.4975 16.8039 35.742 17.4484L35.8408 17.7085L36.5373 17.7241L37.2338 17.7397L37.1842 17.4743C37.0554 16.7851 36.4874 16.0148 35.8639 15.6837C35.315 15.3923 34.5536 15.2601 33.8706 15.3376ZM44.3087 17.1816C43.3176 17.31 42.5586 17.9289 42.2633 18.8495C42.0996 19.3595 42.1003 20.2907 42.2647 20.808C42.6012 21.8674 43.502 22.4757 44.7363 22.4774C45.5364 22.4785 46.1475 22.2316 46.6359 21.7097C47.1026 21.2111 47.295 20.6619 47.295 19.8283C47.295 18.7887 46.9345 18.0257 46.2277 17.5691C45.7166 17.239 44.9932 17.0929 44.3087 17.1816ZM59.714 17.1814C58.6509 17.3185 57.8984 17.9904 57.6241 19.0474C57.5339 19.3951 57.5521 20.3482 57.6556 20.6968C57.9232 21.5982 58.4975 22.1663 59.3797 22.4022C59.741 22.4987 60.5288 22.4978 60.8952 22.4003C61.7652 22.1688 62.3545 21.5765 62.6187 20.6681C62.7536 20.2045 62.7118 19.1194 62.5423 18.6848C62.1266 17.6188 60.9935 17.0165 59.714 17.1814ZM69.9636 17.1837C69.4929 17.2439 68.859 17.5481 68.5398 17.8671C68.0702 18.3364 67.8363 18.9886 67.8363 19.8283C67.8363 20.6719 68.0303 21.2171 68.5117 21.7257C69.0412 22.2852 69.6556 22.5062 70.5671 22.4649C71.4306 22.4258 72.0371 22.1361 72.4784 21.5519C73.0852 20.7488 73.1751 19.3512 72.6822 18.3857C72.2405 17.5203 71.1394 17.0336 69.9636 17.1837ZM37.6942 19.8283V22.3665H38.3361H38.978V21.5697V20.7729L39.2917 20.468C39.4642 20.3003 39.6157 20.1882 39.6283 20.2188C39.641 20.2495 39.9092 20.739 40.2243 21.3066L40.7974 22.3386L41.5906 22.3541L42.3838 22.3696L42.2225 22.1031C42.1338 21.9565 41.7175 21.252 41.2976 20.5375L40.5339 19.2383L41.277 18.4257C41.6857 17.9788 42.0785 17.5404 42.1497 17.4516L42.2794 17.2902H41.4962H40.7129L39.8892 18.2385C39.4362 18.7601 39.0459 19.1868 39.0218 19.1868C38.9977 19.1868 38.978 18.7601 38.978 18.2385V17.2902H38.3361H37.6942V19.8283ZM48.2997 18.7002C48.2997 20.598 48.207 21.279 47.9344 21.3836C47.8847 21.4026 47.7205 21.4182 47.5695 21.4182H47.295V21.8891C47.295 22.1529 47.3203 22.3756 47.3526 22.3956C47.3844 22.4152 47.5969 22.4453 47.8249 22.4625C48.8132 22.5372 49.303 22.1031 49.5046 20.9738C49.5506 20.7164 49.5804 20.1151 49.5816 19.4223L49.5836 18.291L50.3232 18.3066L51.0627 18.3222L51.0774 20.3443L51.0921 22.3665H51.7332H52.3745V19.8283V17.2902H50.3371H48.2997V18.7002ZM53.1001 19.8283V22.3665H53.742H54.384V21.5697V20.7729L54.6977 20.468C54.8702 20.3003 55.022 20.1882 55.0349 20.2188C55.0478 20.2495 55.3188 20.739 55.637 21.3066L56.2156 22.3386L57.0078 22.3541L57.7999 22.3696L57.6874 22.1868C57.6255 22.0862 57.208 21.3806 56.7596 20.6187L55.9444 19.2336L56.7411 18.3595C57.1792 17.8787 57.5722 17.4414 57.6143 17.3878C57.6865 17.2958 57.6456 17.2902 56.9075 17.2902H56.1242L55.3017 18.2385C54.8494 18.7601 54.4578 19.1868 54.4316 19.1868C54.4054 19.1868 54.384 18.7601 54.384 18.2385V17.2902H53.742H53.1001V19.8283ZM63.2033 19.8288V22.3753L64.836 22.3534C66.6928 22.3283 66.8323 22.302 67.2513 21.8987C67.5153 21.6446 67.6129 21.3858 67.6114 20.944C67.6098 20.4363 67.2638 19.9522 66.7912 19.7963C66.6906 19.7632 66.6082 19.7178 66.6082 19.6957C66.6082 19.6735 66.7189 19.6016 66.854 19.536C67.2263 19.3552 67.4084 19.0806 67.4353 18.6595C67.4725 18.0757 67.2038 17.7091 66.5418 17.4407C66.2685 17.3299 66.1272 17.3191 64.7244 17.3014L63.2033 17.2822V19.8288ZM65.9451 18.2792C66.1684 18.4111 66.2515 18.7186 66.1374 18.9915C66.0177 19.2779 65.7942 19.3542 65.075 19.3542H64.4871V18.7684V18.1827H65.1344C65.6477 18.1827 65.8155 18.2027 65.9451 18.2792ZM45.1447 18.3007C45.6656 18.4452 45.9553 18.9912 45.9553 19.8283C45.9553 20.4324 45.8382 20.81 45.5667 21.0814C45.1704 21.4774 44.4252 21.5151 43.9627 21.1625C43.3712 20.7116 43.2765 19.2831 43.7963 18.6528C44.1004 18.2842 44.6077 18.1517 45.1447 18.3007ZM60.6227 18.3248C61.0487 18.5027 61.2672 18.8351 61.3628 19.4509C61.4333 19.905 61.3615 20.4761 61.1923 20.8076C60.8824 21.4146 59.9432 21.6004 59.3748 21.1672C58.7519 20.6924 58.7144 19.0851 59.3132 18.5266C59.6067 18.2528 60.2229 18.1579 60.6227 18.3248ZM70.8941 18.325C71.4316 18.549 71.6605 19.0103 71.6539 19.8562C71.649 20.4781 71.5126 20.8691 71.207 21.1373C70.856 21.4452 70.2678 21.4945 69.7984 21.2552C69.3678 21.0356 69.1759 20.5851 69.1759 19.7937C69.1759 18.9885 69.4273 18.5019 69.9371 18.3202C70.2264 18.2172 70.6404 18.2192 70.8941 18.325ZM66.0554 20.2624C66.3746 20.4771 66.4292 20.9697 66.1664 21.2639L66.0037 21.4461L65.2733 21.4644L64.543 21.4828V20.8033V20.1237L65.2267 20.1443C65.7602 20.1604 65.9424 20.1864 66.0554 20.2624Z" fill="white"/>
</svg>
