<svg width="68" height="41" viewBox="0 0 68 41" fill="none" xmlns="http://www.w3.org/2000/svg">
<g opacity="0.7">
<path d="M33.7809 0L24.4182 9.63697L15.0457 0H33.7809Z" fill="#888888"/>
<path d="M45.7977 18.7353L34.9365 0H38.7071C47.1198 0 51.2528 4.11334 51.2528 10.822C51.2528 16.2281 47.257 18.1966 45.7977 18.7353Z" fill="#888888"/>
<path d="M14.7224 15.6306L20.9414 20.1357L14.7224 39.5174V15.6306Z" fill="#888888"/>
<path d="M15.6626 40.6438L33.7809 29.479L45.1122 39.4979C39.9607 41.2216 34.153 40.6438 34.153 40.6438H15.6626Z" fill="#888888"/>
<path d="M24.1635 10.0776L21.0981 19.646L14.7224 15.0234V0.362305L24.1635 10.0776Z" fill="#888888"/>
<path d="M33.1738 28.3918L21.5095 19.9496L24.5162 10.5967L33.1738 28.3918Z" fill="#888888"/>
<path d="M21.3625 20.4395L33.3793 29.1558L14.9084 40.5263L21.3625 20.4395Z" fill="#888888"/>
<path d="M45.0925 18.4905L24.8882 9.85251L34.4076 0.0588379L45.0925 18.4905Z" fill="#888888"/>
<path d="M45.21 19.0682L33.8983 28.7737L24.9763 10.4204L45.21 19.0682Z" fill="#888888"/>
<path d="M45.4255 19.5286L45.4745 39.1649L34.1824 29.1851L45.4255 19.5286Z" fill="#888888"/>
<path d="M52.9178 29.528C52.9178 34.8851 49.7152 37.7155 45.9643 39.1943L45.9153 19.1173V19.0781C45.9251 19.0781 45.9349 19.0879 45.9447 19.0879C47.8153 19.6951 52.9178 22.0456 52.9178 29.528Z" fill="#888888"/>
<path d="M45.9151 19.0781V19.1173L45.9445 19.0879C45.9347 19.0781 45.9249 19.0781 45.9151 19.0781ZM45.7976 18.7354C45.778 18.7451 45.7486 18.7549 45.729 18.7647L45.8465 18.8137L45.7976 18.7354Z" fill="#888888"/>
<path d="M45.8466 18.804L45.9152 18.9313V18.8333L45.8466 18.804ZM45.3275 18.8921C45.2982 18.9019 45.2786 18.9019 45.2786 18.9019C45.2786 18.9019 45.2981 18.9019 45.3373 18.9117L45.3275 18.8921Z" fill="#888888"/>
<path d="M0.00244812 20.361C0.00244812 18.1868 0.00244812 16.0224 0.00244812 13.8482C0.00244812 13.7209 -0.00734495 13.5838 0.0122424 13.4565C0.0220361 13.4075 0.0807978 13.3488 0.129766 13.339C0.227703 13.3194 0.325639 13.3292 0.423576 13.3292C1.6184 13.3292 2.80344 13.2998 3.99827 13.339C4.98743 13.3684 5.96679 13.5055 6.83843 14.0343C7.6513 14.5338 8.18016 15.2487 8.24872 16.2379C8.30748 17.0704 8.24872 17.5013 8.10181 17.942C7.808 18.8136 7.17141 19.3621 6.38792 19.7636C6.32916 19.793 6.2606 19.793 6.20184 19.8224C6.16267 19.842 6.14308 19.8909 6.1137 19.9301C6.14308 19.9497 6.17246 19.9595 6.20184 19.9791C6.49565 20.1064 6.79925 20.2239 7.08327 20.3708C7.90594 20.8017 8.47397 21.4775 8.74819 22.3687C9.0518 23.3481 9.01262 24.3177 8.59149 25.2579C8.18995 26.1589 7.45543 26.6877 6.55441 27.0207C6.1039 27.1872 5.63381 27.2852 5.14412 27.3341C3.53796 27.4908 1.92201 27.3635 0.315845 27.4027C0.0220352 27.4125 0.0220352 27.4027 0.0220352 27.1089C0.0220352 25.4244 0.0220352 23.7496 0.0220352 22.0651C0.00244782 21.4971 0.00244812 20.9291 0.00244812 20.361ZM0.697799 20.3121C0.697799 22.2512 0.697799 24.1904 0.697799 26.1295C0.697799 26.247 0.697799 26.3548 0.697799 26.4723C0.688005 26.5996 0.766355 26.6388 0.874085 26.6486C0.923054 26.6486 0.972022 26.6486 1.02099 26.6486C2.25499 26.6486 3.49879 26.6486 4.73279 26.6388C5.45752 26.629 6.13328 26.4331 6.76987 26.0903C7.36729 25.7671 7.76883 25.2872 7.99408 24.6507C8.14099 24.2589 8.13119 23.8574 8.1214 23.446C8.09202 22.4569 7.67089 21.6832 6.86781 21.1054C6.49565 20.8311 6.06473 20.694 5.63381 20.5667C5.14412 20.4198 4.64465 20.3023 4.14517 20.175C4.01785 20.1456 3.99827 20.077 3.99827 19.9693C3.99827 19.8616 4.03744 19.8028 4.15496 19.7734C4.69362 19.6167 5.24206 19.4796 5.76113 19.2739C6.76008 18.8822 7.39667 18.1477 7.5044 17.0704C7.61213 15.8853 7.11265 14.8864 5.84927 14.3967C5.32041 14.191 4.77197 14.0833 4.19414 14.0833C3.13642 14.0931 2.07871 14.0833 1.0112 14.0833C0.942641 14.0833 0.874085 14.0637 0.815323 14.0931C0.756561 14.1225 0.688006 14.191 0.678212 14.2498C0.658625 14.3575 0.668418 14.475 0.668418 14.5926C0.697799 16.5023 0.697799 18.4121 0.697799 20.3121Z" fill="white"/>
<path d="M24.144 27.4126C22.1559 27.4126 20.1677 27.4126 18.1796 27.4126C18.1013 27.4126 18.0131 27.4126 17.9348 27.4126C17.8173 27.4028 17.8075 27.3245 17.827 27.2364C17.876 27.0797 17.9348 26.9328 18.0033 26.7858C18.4734 25.689 18.9533 24.6019 19.4332 23.505C19.9033 22.4277 20.3538 21.3406 20.8239 20.2731C21.1373 19.5483 21.4801 18.8334 21.7935 18.1087C22.3125 16.904 22.812 15.6994 23.3213 14.4948C23.4094 14.2891 23.5172 14.0835 23.6053 13.8778C23.9089 13.1433 23.7424 13.3489 24.4672 13.3098C24.6434 13.3 24.6924 13.3979 24.7414 13.5252C25.2213 14.7005 25.6914 15.8855 26.1713 17.0607C26.5434 17.9715 26.945 18.8628 27.3269 19.7736C27.7578 20.8117 28.179 21.8596 28.6099 22.8978C28.982 23.789 29.364 24.6802 29.7361 25.5714C29.9712 26.1395 30.2062 26.6977 30.4413 27.2657C30.4511 27.2951 30.4021 27.3931 30.3727 27.4028C30.2454 27.4224 30.1083 27.4126 29.981 27.4126C28.0223 27.4126 26.0831 27.4126 24.144 27.4126ZM24.0558 26.6487V26.6389C25.5347 26.6389 27.0233 26.6389 28.5021 26.6389C28.7568 26.6389 29.0114 26.6096 29.2661 26.59C29.1877 26.3451 29.1094 26.1101 29.0212 25.8652C29.0016 25.8065 28.9722 25.7477 28.9429 25.689C28.4728 24.5823 27.9831 23.4756 27.5228 22.3591C27.0919 21.321 26.6707 20.2829 26.2496 19.2349C25.8774 18.3241 25.5151 17.4231 25.1429 16.5123C24.8687 15.8267 24.5847 15.1412 24.3007 14.4556C24.2811 14.4066 24.2615 14.3675 24.2321 14.3283C24.1831 14.3675 24.1244 14.4066 24.095 14.4654C23.6739 15.4546 23.2625 16.4535 22.8414 17.4525C22.195 18.9803 21.5486 20.5081 20.8925 22.0359C20.2559 23.5148 19.6193 25.0034 18.9729 26.4822C18.8946 26.6585 18.8946 26.6585 19.1002 26.6683C19.1492 26.6683 19.1982 26.6683 19.2471 26.6683C20.8631 26.6487 22.4595 26.6487 24.0558 26.6487Z" fill="white"/>
<path d="M58.9507 20.3514C58.9507 18.2164 58.9507 16.0813 58.9507 13.9463C58.9507 13.868 58.9507 13.7798 58.9507 13.7015C58.9605 13.3587 58.9703 13.3391 59.3131 13.3391C61.8692 13.3391 64.4352 13.3391 66.9913 13.3391C67.2655 13.3391 67.2655 13.3489 67.2655 13.6035C67.2655 13.6525 67.2655 13.7015 67.2655 13.7504C67.2655 14.1324 67.2753 14.0932 66.9228 14.0932C64.7094 14.0932 62.4862 14.0932 60.2729 14.0932C59.7146 14.0932 59.7146 14.0932 59.7146 14.671C59.7146 16.238 59.7146 17.805 59.7146 19.372C59.7146 19.4699 59.7048 19.5679 59.7244 19.6658C59.7342 19.7148 59.8028 19.7736 59.8419 19.7736C59.9693 19.7931 60.1064 19.7833 60.2337 19.7833C62.2708 19.7833 64.3079 19.7833 66.3449 19.7833C66.4723 19.7833 66.6094 19.7833 66.7367 19.7931C66.7759 19.7931 66.8248 19.8421 66.8346 19.8715C66.8542 19.9107 66.8444 19.9694 66.8444 20.0184C66.8346 20.5375 66.913 20.4787 66.4233 20.4787C64.3177 20.4787 62.212 20.4787 60.1162 20.4787C59.695 20.4787 59.7146 20.4297 59.7146 20.8606C59.7146 22.6725 59.7146 24.4843 59.7146 26.2961C59.7146 26.3647 59.7146 26.4234 59.7146 26.492C59.7146 26.6193 59.7832 26.6585 59.9007 26.6585C60.0182 26.6585 60.126 26.6585 60.2435 26.6585C62.5058 26.6585 64.778 26.6585 67.0403 26.6585C67.1578 26.6585 67.2655 26.6585 67.3831 26.6585C67.5398 26.6585 67.6279 26.7271 67.6279 26.8935C67.6279 27.0111 67.6475 27.1286 67.6181 27.2363C67.5985 27.3147 67.5006 27.3832 67.432 27.4126C67.3635 27.442 67.2753 27.4224 67.1872 27.4224C64.5919 27.4224 61.9966 27.4224 59.411 27.4224C58.892 27.4224 58.9409 27.3636 58.9409 26.9229C58.9507 24.7194 58.9507 22.5354 58.9507 20.3514Z" fill="white"/>
<path d="M47.3157 23.9652C47.3549 23.4461 47.2471 22.9467 46.9337 22.5353C46.5909 22.0848 46.16 21.7029 45.641 21.4384C44.9848 21.1153 44.2992 20.89 43.6137 20.6549C43.124 20.4885 42.6245 20.3513 42.1642 20.1359C41.2828 19.7343 40.4895 19.2055 40.0782 18.2751C39.8823 17.8246 39.7648 17.3643 39.7648 16.8746C39.7648 16.0813 39.9215 15.337 40.3916 14.6612C40.8225 14.054 41.3709 13.6231 42.0467 13.3587C42.8008 13.0551 43.5843 12.869 44.407 12.9375C45.6801 13.0453 46.8358 13.437 47.727 14.3968C47.9621 14.6514 47.9621 14.671 47.7074 14.9061C47.6487 14.9648 47.5899 15.0236 47.5213 15.0726C47.4136 15.1411 47.3255 15.2097 47.1982 15.053C47.0023 14.8179 46.777 14.5927 46.5322 14.4164C45.8662 13.9561 45.1219 13.7308 44.309 13.7112C43.3394 13.6819 42.458 13.9071 41.6647 14.4849C41.0967 14.8963 40.7833 15.4447 40.6266 16.1205C40.5189 16.571 40.5287 17.0117 40.6364 17.4622C40.7833 18.0694 41.1261 18.5395 41.6158 18.9117C42.0075 19.2055 42.4384 19.4209 42.8889 19.5874C43.6235 19.8617 44.3776 20.1065 45.1121 20.3905C45.6801 20.6158 46.2678 20.8312 46.7574 21.2034C47.5605 21.8204 48.109 22.5941 48.0894 23.6714C48.0796 24.2198 48.0894 24.7683 47.8935 25.2971C47.5997 26.0611 47.1002 26.6389 46.4342 27.0698C45.8368 27.4518 45.1611 27.6574 44.4461 27.7456C42.9477 27.9316 41.5962 27.5693 40.3622 26.7466C40.0586 26.5409 39.8039 26.2471 39.5297 25.9925C39.471 25.9337 39.4807 25.8848 39.5395 25.8358C39.6081 25.7672 39.6766 25.6987 39.755 25.6301C40.0096 25.4049 40.0292 25.3951 40.2642 25.6301C40.989 26.3451 41.841 26.7662 42.8498 26.9523C43.7704 27.1286 44.6518 27.0404 45.5038 26.6976C46.3853 26.3353 46.9827 25.6693 47.2569 24.7389C47.3255 24.4941 47.2961 24.2198 47.3157 23.9652Z" fill="white"/>
</g>
</svg>
