<svg width="85" height="85" viewBox="0 0 85 85" fill="none" xmlns="http://www.w3.org/2000/svg">
<mask id="path-1-outside-1_1841_233" maskUnits="userSpaceOnUse" x="0" y="0" width="85" height="85" fill="black">
<rect fill="white" width="85" height="85"/>
<path d="M83.9997 42.4466C83.993 31.8426 79.8996 21.6491 72.5705 13.9851L71.8071 13.2L71.0437 12.4366C63.3533 5.11023 53.143 1.01628 42.5209 1.00005C31.8988 0.983814 21.6761 5.04653 13.9633 12.3494L13.1999 13.1127L12.4146 13.8979C5.08665 21.6011 1 31.8259 1 42.4575C1 53.089 5.08665 63.3139 12.4146 71.0171L13.1999 71.7804L13.9633 72.5656C21.6693 79.9057 31.9042 84 42.5471 84C53.19 84 63.4249 79.9057 71.131 72.5656L71.8944 71.7804L72.6578 71.0171C79.9772 63.3096 84.0401 53.0753 83.9997 42.4466ZM68.4918 67.2222C67.9029 66.7642 67.314 66.3498 66.7251 65.9137C66.1362 65.4775 65.7436 65.1939 65.2419 64.8668C64.7402 64.5396 63.9768 64.1035 63.3443 63.7327C62.7118 63.3619 62.4064 63.1438 61.9266 62.9039C63.7752 56.612 64.7441 50.0946 64.8057 43.537H81.8404C81.6161 53.2239 77.7992 62.4817 71.131 69.5122C70.7384 69.1415 70.3021 68.8143 69.8877 68.4436C69.4733 68.0728 68.8844 67.6148 68.4918 67.2222ZM19.7215 64.8668C19.198 65.1939 18.7181 65.5865 18.2165 65.9355C17.7148 66.2844 17.0387 66.7642 16.4934 67.2222C15.9481 67.6802 15.5119 68.051 15.032 68.4872C14.5522 68.9234 14.225 69.1415 13.8324 69.5122C7.15622 62.4813 3.31816 53.2288 3.05755 43.537H20.1577C20.2193 50.0946 21.1882 56.612 23.0368 62.9039L21.5973 63.7327C20.9647 64.1471 20.3322 64.4524 19.7215 64.8668ZM15.032 16.4278L16.4716 17.6927C17.0387 18.1289 17.6276 18.5433 18.2165 18.9577L19.7215 20.0482C20.3322 20.4407 20.9647 20.7897 21.5973 21.1605C22.2298 21.5312 22.5351 21.7493 23.0368 22.011C21.1863 28.2951 20.2174 34.8056 20.1577 41.3561H3.05755C3.3235 31.6719 7.16118 22.4281 13.8324 15.4027L15.032 16.4278ZM65.1983 20.0482L66.6814 18.9795C67.2776 18.5578 67.8665 18.1217 68.4482 17.6709C68.928 17.3002 69.3861 16.864 69.8441 16.4714L71.0873 15.4027C77.7523 22.4266 81.5692 31.6764 81.7967 41.3561H64.7184C64.6942 34.8107 63.7619 28.3003 61.9484 22.011L63.3661 21.1823L65.1983 20.0482ZM59.7672 61.9661L58.1968 61.2464C57.477 60.9629 56.7573 60.723 56.0157 60.4831C55.2741 60.2432 54.9687 60.0905 54.4452 59.9378C53.9218 59.7852 52.8748 59.5235 52.0896 59.349C51.3044 59.1745 51.0863 59.0654 50.5628 58.9782C49.6904 58.8037 48.7961 58.6947 47.9018 58.5856C47.4656 58.5856 47.0294 58.433 46.5931 58.3894C45.6116 58.3894 44.6083 58.2585 43.605 58.2367V43.6243H62.6245C62.5317 49.8335 61.6074 56.0023 59.8763 61.9661H59.7672ZM37.0615 58.4984C36.1673 58.6075 35.273 58.7165 34.4006 58.891C33.8771 58.891 33.3754 59.1309 32.8519 59.2617C32.3285 59.3926 31.2815 59.6107 30.5181 59.8506C29.7547 60.0905 29.4494 60.1996 28.9259 60.3958C28.4024 60.5921 27.4645 60.8756 26.7447 61.1592C26.025 61.4427 25.676 61.639 25.1525 61.8789H24.9562C23.2545 55.8819 22.3668 49.6833 22.317 43.4498H41.3148V58.0622C40.3333 58.0622 39.3299 58.0622 38.3484 58.2149C37.9558 58.3457 37.4978 58.433 37.0615 58.4984ZM25.1525 23.0143L26.7666 23.7558C27.4645 24.0393 28.1843 24.2574 28.9477 24.5191C29.7111 24.7808 30.0165 24.9117 30.5617 25.0644C31.107 25.217 32.0885 25.4569 32.8738 25.6532L34.4442 26.024C35.3166 26.1985 36.1891 26.3075 37.0834 26.4166C37.5196 26.4166 37.9558 26.5692 38.4138 26.6128C39.3954 26.6128 40.3987 26.7219 41.3802 26.7437V41.3561H22.3388C22.3915 35.1228 23.2792 28.9246 24.978 22.927L25.1525 23.0143ZM43.5177 41.3561V26.7437C44.521 26.7437 45.5244 26.7437 46.5059 26.6128L47.8146 26.4166C48.7088 26.4166 49.6031 26.1985 50.4756 26.024L52.0024 25.6532C52.7876 25.4569 53.5946 25.3043 54.358 25.0644C55.1214 24.8245 55.4049 24.6936 55.9284 24.5191C56.4519 24.3446 57.3898 24.0393 58.1096 23.734L59.68 23.0361L59.8763 22.927C61.5841 28.9233 62.4791 35.1217 62.5373 41.3561H43.5177ZM58.7857 21.0296L57.2371 21.7275C56.5828 21.9892 55.9066 22.2073 55.2304 22.4472C54.5543 22.6871 54.2053 22.818 53.6818 22.9706C53.1584 23.1233 52.2423 23.3414 51.5007 23.5159L50.0175 23.8866C49.2105 24.0393 48.3599 24.1484 47.531 24.2574L46.266 24.4319C45.3499 24.4319 44.4338 24.5409 43.4959 24.5627V3.18938C50.0393 3.88729 55.7975 10.7137 59.2001 20.8333L58.7857 21.0296ZM41.3366 24.5627C40.4205 24.5627 39.5044 24.5627 38.5883 24.4319L37.3233 24.2574C36.4944 24.1484 35.6438 24.0393 34.815 23.8866L33.3318 23.5159C32.612 23.3414 31.8704 23.1887 31.1507 22.9706C30.4309 22.7526 30.1255 22.6217 29.602 22.4472C29.0786 22.2727 28.2497 21.9892 27.5954 21.7275L26.0686 21.0296L25.6324 20.8333C29.0568 10.7137 34.7932 3.88729 41.3366 3.18938V24.5627ZM26.0686 63.8199C26.5921 63.58 27.0937 63.3183 27.639 63.1002C28.1843 62.8821 28.9477 62.6204 29.602 62.4023C30.2564 62.1842 30.649 62.0097 31.1725 61.8571C31.6959 61.7044 32.612 61.4863 33.3536 61.3118C34.0952 61.1374 34.3569 61.0501 34.8586 60.9629C35.3603 60.8756 36.5163 60.7012 37.3451 60.5921C37.7813 60.5921 38.1957 60.4395 38.632 60.4176C39.548 60.4176 40.4641 60.3086 41.3802 60.265V81.6601C34.8368 80.9622 29.1004 74.1359 25.676 64.0162L26.0686 63.8199ZM43.5177 60.265C44.4556 60.265 45.3717 60.265 46.2878 60.4176C46.7022 60.4176 47.1384 60.5267 47.5746 60.5921C48.4035 60.7012 49.2323 60.7884 50.0393 60.9629C50.8464 61.1374 51.0427 61.2028 51.5661 61.3118C52.0896 61.4209 53.0057 61.639 53.7473 61.8571C54.4889 62.0752 54.816 62.2278 55.3395 62.4023C55.863 62.5768 56.6482 62.8385 57.3025 63.1002C57.9569 63.3619 58.3495 63.58 58.873 63.8199L59.2656 64.0162C55.863 74.1359 50.1266 80.9622 43.5613 81.6601L43.5177 60.265ZM69.4733 13.8324L68.3609 14.8357L67.0086 15.9916C66.4633 16.4278 65.918 16.8204 65.3728 17.2129L63.9332 18.347C63.3661 18.7178 62.7772 19.0449 62.1665 19.3939C61.5558 19.7428 61.4903 19.8083 61.1413 19.9827C59.2897 13.8358 55.7355 8.33871 50.89 4.12719C57.8535 5.60763 64.2796 8.96373 69.4733 13.8324ZM23.6693 19.8737L22.6878 19.2848C22.0989 18.9359 21.51 18.6087 20.9429 18.238C20.3758 17.8672 19.9832 17.5619 19.5034 17.2129C19.0235 16.864 18.3255 16.4278 17.8675 15.9916C17.4095 15.5554 16.9514 15.2283 16.5152 14.8357L15.4028 13.8324C20.5811 8.92045 27.0095 5.52546 33.9861 4.01814C29.1333 8.22332 25.5776 13.7227 23.7348 19.8737H23.6693ZM15.4028 71.0825L16.4934 70.0793L17.8675 68.9016C18.391 68.4872 18.9363 68.0946 19.4815 67.702C20.0268 67.3095 20.4412 67.0041 20.9429 66.677C21.4446 66.3498 22.0989 65.9791 22.6878 65.6301L23.7348 65.0195C25.5838 71.1737 29.1381 76.6786 33.9861 80.8968C27.0149 79.3748 20.5902 75.9818 15.4028 71.0825ZM61.2068 65.0195L62.2537 65.6301C62.8426 65.9791 63.4315 66.3062 63.9986 66.677L65.4382 67.702C65.9835 68.0946 66.5506 68.4872 67.0741 68.9016L68.4264 70.0793L69.5387 71.0825C64.3513 75.9818 57.9267 79.3748 50.9554 80.8968C55.7731 76.6647 59.3029 71.1626 61.1413 65.0195H61.2068Z"/>
</mask>
<path d="M83.9997 42.4466C83.993 31.8426 79.8996 21.6491 72.5705 13.9851L71.8071 13.2L71.0437 12.4366C63.3533 5.11023 53.143 1.01628 42.5209 1.00005C31.8988 0.983814 21.6761 5.04653 13.9633 12.3494L13.1999 13.1127L12.4146 13.8979C5.08665 21.6011 1 31.8259 1 42.4575C1 53.089 5.08665 63.3139 12.4146 71.0171L13.1999 71.7804L13.9633 72.5656C21.6693 79.9057 31.9042 84 42.5471 84C53.19 84 63.4249 79.9057 71.131 72.5656L71.8944 71.7804L72.6578 71.0171C79.9772 63.3096 84.0401 53.0753 83.9997 42.4466ZM68.4918 67.2222C67.9029 66.7642 67.314 66.3498 66.7251 65.9137C66.1362 65.4775 65.7436 65.1939 65.2419 64.8668C64.7402 64.5396 63.9768 64.1035 63.3443 63.7327C62.7118 63.3619 62.4064 63.1438 61.9266 62.9039C63.7752 56.612 64.7441 50.0946 64.8057 43.537H81.8404C81.6161 53.2239 77.7992 62.4817 71.131 69.5122C70.7384 69.1415 70.3021 68.8143 69.8877 68.4436C69.4733 68.0728 68.8844 67.6148 68.4918 67.2222ZM19.7215 64.8668C19.198 65.1939 18.7181 65.5865 18.2165 65.9355C17.7148 66.2844 17.0387 66.7642 16.4934 67.2222C15.9481 67.6802 15.5119 68.051 15.032 68.4872C14.5522 68.9234 14.225 69.1415 13.8324 69.5122C7.15622 62.4813 3.31816 53.2288 3.05755 43.537H20.1577C20.2193 50.0946 21.1882 56.612 23.0368 62.9039L21.5973 63.7327C20.9647 64.1471 20.3322 64.4524 19.7215 64.8668ZM15.032 16.4278L16.4716 17.6927C17.0387 18.1289 17.6276 18.5433 18.2165 18.9577L19.7215 20.0482C20.3322 20.4407 20.9647 20.7897 21.5973 21.1605C22.2298 21.5312 22.5351 21.7493 23.0368 22.011C21.1863 28.2951 20.2174 34.8056 20.1577 41.3561H3.05755C3.3235 31.6719 7.16118 22.4281 13.8324 15.4027L15.032 16.4278ZM65.1983 20.0482L66.6814 18.9795C67.2776 18.5578 67.8665 18.1217 68.4482 17.6709C68.928 17.3002 69.3861 16.864 69.8441 16.4714L71.0873 15.4027C77.7523 22.4266 81.5692 31.6764 81.7967 41.3561H64.7184C64.6942 34.8107 63.7619 28.3003 61.9484 22.011L63.3661 21.1823L65.1983 20.0482ZM59.7672 61.9661L58.1968 61.2464C57.477 60.9629 56.7573 60.723 56.0157 60.4831C55.2741 60.2432 54.9687 60.0905 54.4452 59.9378C53.9218 59.7852 52.8748 59.5235 52.0896 59.349C51.3044 59.1745 51.0863 59.0654 50.5628 58.9782C49.6904 58.8037 48.7961 58.6947 47.9018 58.5856C47.4656 58.5856 47.0294 58.433 46.5931 58.3894C45.6116 58.3894 44.6083 58.2585 43.605 58.2367V43.6243H62.6245C62.5317 49.8335 61.6074 56.0023 59.8763 61.9661H59.7672ZM37.0615 58.4984C36.1673 58.6075 35.273 58.7165 34.4006 58.891C33.8771 58.891 33.3754 59.1309 32.8519 59.2617C32.3285 59.3926 31.2815 59.6107 30.5181 59.8506C29.7547 60.0905 29.4494 60.1996 28.9259 60.3958C28.4024 60.5921 27.4645 60.8756 26.7447 61.1592C26.025 61.4427 25.676 61.639 25.1525 61.8789H24.9562C23.2545 55.8819 22.3668 49.6833 22.317 43.4498H41.3148V58.0622C40.3333 58.0622 39.3299 58.0622 38.3484 58.2149C37.9558 58.3457 37.4978 58.433 37.0615 58.4984ZM25.1525 23.0143L26.7666 23.7558C27.4645 24.0393 28.1843 24.2574 28.9477 24.5191C29.7111 24.7808 30.0165 24.9117 30.5617 25.0644C31.107 25.217 32.0885 25.4569 32.8738 25.6532L34.4442 26.024C35.3166 26.1985 36.1891 26.3075 37.0834 26.4166C37.5196 26.4166 37.9558 26.5692 38.4138 26.6128C39.3954 26.6128 40.3987 26.7219 41.3802 26.7437V41.3561H22.3388C22.3915 35.1228 23.2792 28.9246 24.978 22.927L25.1525 23.0143ZM43.5177 41.3561V26.7437C44.521 26.7437 45.5244 26.7437 46.5059 26.6128L47.8146 26.4166C48.7088 26.4166 49.6031 26.1985 50.4756 26.024L52.0024 25.6532C52.7876 25.4569 53.5946 25.3043 54.358 25.0644C55.1214 24.8245 55.4049 24.6936 55.9284 24.5191C56.4519 24.3446 57.3898 24.0393 58.1096 23.734L59.68 23.0361L59.8763 22.927C61.5841 28.9233 62.4791 35.1217 62.5373 41.3561H43.5177ZM58.7857 21.0296L57.2371 21.7275C56.5828 21.9892 55.9066 22.2073 55.2304 22.4472C54.5543 22.6871 54.2053 22.818 53.6818 22.9706C53.1584 23.1233 52.2423 23.3414 51.5007 23.5159L50.0175 23.8866C49.2105 24.0393 48.3599 24.1484 47.531 24.2574L46.266 24.4319C45.3499 24.4319 44.4338 24.5409 43.4959 24.5627V3.18938C50.0393 3.88729 55.7975 10.7137 59.2001 20.8333L58.7857 21.0296ZM41.3366 24.5627C40.4205 24.5627 39.5044 24.5627 38.5883 24.4319L37.3233 24.2574C36.4944 24.1484 35.6438 24.0393 34.815 23.8866L33.3318 23.5159C32.612 23.3414 31.8704 23.1887 31.1507 22.9706C30.4309 22.7526 30.1255 22.6217 29.602 22.4472C29.0786 22.2727 28.2497 21.9892 27.5954 21.7275L26.0686 21.0296L25.6324 20.8333C29.0568 10.7137 34.7932 3.88729 41.3366 3.18938V24.5627ZM26.0686 63.8199C26.5921 63.58 27.0937 63.3183 27.639 63.1002C28.1843 62.8821 28.9477 62.6204 29.602 62.4023C30.2564 62.1842 30.649 62.0097 31.1725 61.8571C31.6959 61.7044 32.612 61.4863 33.3536 61.3118C34.0952 61.1374 34.3569 61.0501 34.8586 60.9629C35.3603 60.8756 36.5163 60.7012 37.3451 60.5921C37.7813 60.5921 38.1957 60.4395 38.632 60.4176C39.548 60.4176 40.4641 60.3086 41.3802 60.265V81.6601C34.8368 80.9622 29.1004 74.1359 25.676 64.0162L26.0686 63.8199ZM43.5177 60.265C44.4556 60.265 45.3717 60.265 46.2878 60.4176C46.7022 60.4176 47.1384 60.5267 47.5746 60.5921C48.4035 60.7012 49.2323 60.7884 50.0393 60.9629C50.8464 61.1374 51.0427 61.2028 51.5661 61.3118C52.0896 61.4209 53.0057 61.639 53.7473 61.8571C54.4889 62.0752 54.816 62.2278 55.3395 62.4023C55.863 62.5768 56.6482 62.8385 57.3025 63.1002C57.9569 63.3619 58.3495 63.58 58.873 63.8199L59.2656 64.0162C55.863 74.1359 50.1266 80.9622 43.5613 81.6601L43.5177 60.265ZM69.4733 13.8324L68.3609 14.8357L67.0086 15.9916C66.4633 16.4278 65.918 16.8204 65.3728 17.2129L63.9332 18.347C63.3661 18.7178 62.7772 19.0449 62.1665 19.3939C61.5558 19.7428 61.4903 19.8083 61.1413 19.9827C59.2897 13.8358 55.7355 8.33871 50.89 4.12719C57.8535 5.60763 64.2796 8.96373 69.4733 13.8324ZM23.6693 19.8737L22.6878 19.2848C22.0989 18.9359 21.51 18.6087 20.9429 18.238C20.3758 17.8672 19.9832 17.5619 19.5034 17.2129C19.0235 16.864 18.3255 16.4278 17.8675 15.9916C17.4095 15.5554 16.9514 15.2283 16.5152 14.8357L15.4028 13.8324C20.5811 8.92045 27.0095 5.52546 33.9861 4.01814C29.1333 8.22332 25.5776 13.7227 23.7348 19.8737H23.6693ZM15.4028 71.0825L16.4934 70.0793L17.8675 68.9016C18.391 68.4872 18.9363 68.0946 19.4815 67.702C20.0268 67.3095 20.4412 67.0041 20.9429 66.677C21.4446 66.3498 22.0989 65.9791 22.6878 65.6301L23.7348 65.0195C25.5838 71.1737 29.1381 76.6786 33.9861 80.8968C27.0149 79.3748 20.5902 75.9818 15.4028 71.0825ZM61.2068 65.0195L62.2537 65.6301C62.8426 65.9791 63.4315 66.3062 63.9986 66.677L65.4382 67.702C65.9835 68.0946 66.5506 68.4872 67.0741 68.9016L68.4264 70.0793L69.5387 71.0825C64.3513 75.9818 57.9267 79.3748 50.9554 80.8968C55.7731 76.6647 59.3029 71.1626 61.1413 65.0195H61.2068Z" fill="white"/>
<path d="M83.9997 42.4466C83.993 31.8426 79.8996 21.6491 72.5705 13.9851L71.8071 13.2L71.0437 12.4366C63.3533 5.11023 53.143 1.01628 42.5209 1.00005C31.8988 0.983814 21.6761 5.04653 13.9633 12.3494L13.1999 13.1127L12.4146 13.8979C5.08665 21.6011 1 31.8259 1 42.4575C1 53.089 5.08665 63.3139 12.4146 71.0171L13.1999 71.7804L13.9633 72.5656C21.6693 79.9057 31.9042 84 42.5471 84C53.19 84 63.4249 79.9057 71.131 72.5656L71.8944 71.7804L72.6578 71.0171C79.9772 63.3096 84.0401 53.0753 83.9997 42.4466ZM68.4918 67.2222C67.9029 66.7642 67.314 66.3498 66.7251 65.9137C66.1362 65.4775 65.7436 65.1939 65.2419 64.8668C64.7402 64.5396 63.9768 64.1035 63.3443 63.7327C62.7118 63.3619 62.4064 63.1438 61.9266 62.9039C63.7752 56.612 64.7441 50.0946 64.8057 43.537H81.8404C81.6161 53.2239 77.7992 62.4817 71.131 69.5122C70.7384 69.1415 70.3021 68.8143 69.8877 68.4436C69.4733 68.0728 68.8844 67.6148 68.4918 67.2222ZM19.7215 64.8668C19.198 65.1939 18.7181 65.5865 18.2165 65.9355C17.7148 66.2844 17.0387 66.7642 16.4934 67.2222C15.9481 67.6802 15.5119 68.051 15.032 68.4872C14.5522 68.9234 14.225 69.1415 13.8324 69.5122C7.15622 62.4813 3.31816 53.2288 3.05755 43.537H20.1577C20.2193 50.0946 21.1882 56.612 23.0368 62.9039L21.5973 63.7327C20.9647 64.1471 20.3322 64.4524 19.7215 64.8668ZM15.032 16.4278L16.4716 17.6927C17.0387 18.1289 17.6276 18.5433 18.2165 18.9577L19.7215 20.0482C20.3322 20.4407 20.9647 20.7897 21.5973 21.1605C22.2298 21.5312 22.5351 21.7493 23.0368 22.011C21.1863 28.2951 20.2174 34.8056 20.1577 41.3561H3.05755C3.3235 31.6719 7.16118 22.4281 13.8324 15.4027L15.032 16.4278ZM65.1983 20.0482L66.6814 18.9795C67.2776 18.5578 67.8665 18.1217 68.4482 17.6709C68.928 17.3002 69.3861 16.864 69.8441 16.4714L71.0873 15.4027C77.7523 22.4266 81.5692 31.6764 81.7967 41.3561H64.7184C64.6942 34.8107 63.7619 28.3003 61.9484 22.011L63.3661 21.1823L65.1983 20.0482ZM59.7672 61.9661L58.1968 61.2464C57.477 60.9629 56.7573 60.723 56.0157 60.4831C55.2741 60.2432 54.9687 60.0905 54.4452 59.9378C53.9218 59.7852 52.8748 59.5235 52.0896 59.349C51.3044 59.1745 51.0863 59.0654 50.5628 58.9782C49.6904 58.8037 48.7961 58.6947 47.9018 58.5856C47.4656 58.5856 47.0294 58.433 46.5931 58.3894C45.6116 58.3894 44.6083 58.2585 43.605 58.2367V43.6243H62.6245C62.5317 49.8335 61.6074 56.0023 59.8763 61.9661H59.7672ZM37.0615 58.4984C36.1673 58.6075 35.273 58.7165 34.4006 58.891C33.8771 58.891 33.3754 59.1309 32.8519 59.2617C32.3285 59.3926 31.2815 59.6107 30.5181 59.8506C29.7547 60.0905 29.4494 60.1996 28.9259 60.3958C28.4024 60.5921 27.4645 60.8756 26.7447 61.1592C26.025 61.4427 25.676 61.639 25.1525 61.8789H24.9562C23.2545 55.8819 22.3668 49.6833 22.317 43.4498H41.3148V58.0622C40.3333 58.0622 39.3299 58.0622 38.3484 58.2149C37.9558 58.3457 37.4978 58.433 37.0615 58.4984ZM25.1525 23.0143L26.7666 23.7558C27.4645 24.0393 28.1843 24.2574 28.9477 24.5191C29.7111 24.7808 30.0165 24.9117 30.5617 25.0644C31.107 25.217 32.0885 25.4569 32.8738 25.6532L34.4442 26.024C35.3166 26.1985 36.1891 26.3075 37.0834 26.4166C37.5196 26.4166 37.9558 26.5692 38.4138 26.6128C39.3954 26.6128 40.3987 26.7219 41.3802 26.7437V41.3561H22.3388C22.3915 35.1228 23.2792 28.9246 24.978 22.927L25.1525 23.0143ZM43.5177 41.3561V26.7437C44.521 26.7437 45.5244 26.7437 46.5059 26.6128L47.8146 26.4166C48.7088 26.4166 49.6031 26.1985 50.4756 26.024L52.0024 25.6532C52.7876 25.4569 53.5946 25.3043 54.358 25.0644C55.1214 24.8245 55.4049 24.6936 55.9284 24.5191C56.4519 24.3446 57.3898 24.0393 58.1096 23.734L59.68 23.0361L59.8763 22.927C61.5841 28.9233 62.4791 35.1217 62.5373 41.3561H43.5177ZM58.7857 21.0296L57.2371 21.7275C56.5828 21.9892 55.9066 22.2073 55.2304 22.4472C54.5543 22.6871 54.2053 22.818 53.6818 22.9706C53.1584 23.1233 52.2423 23.3414 51.5007 23.5159L50.0175 23.8866C49.2105 24.0393 48.3599 24.1484 47.531 24.2574L46.266 24.4319C45.3499 24.4319 44.4338 24.5409 43.4959 24.5627V3.18938C50.0393 3.88729 55.7975 10.7137 59.2001 20.8333L58.7857 21.0296ZM41.3366 24.5627C40.4205 24.5627 39.5044 24.5627 38.5883 24.4319L37.3233 24.2574C36.4944 24.1484 35.6438 24.0393 34.815 23.8866L33.3318 23.5159C32.612 23.3414 31.8704 23.1887 31.1507 22.9706C30.4309 22.7526 30.1255 22.6217 29.602 22.4472C29.0786 22.2727 28.2497 21.9892 27.5954 21.7275L26.0686 21.0296L25.6324 20.8333C29.0568 10.7137 34.7932 3.88729 41.3366 3.18938V24.5627ZM26.0686 63.8199C26.5921 63.58 27.0937 63.3183 27.639 63.1002C28.1843 62.8821 28.9477 62.6204 29.602 62.4023C30.2564 62.1842 30.649 62.0097 31.1725 61.8571C31.6959 61.7044 32.612 61.4863 33.3536 61.3118C34.0952 61.1374 34.3569 61.0501 34.8586 60.9629C35.3603 60.8756 36.5163 60.7012 37.3451 60.5921C37.7813 60.5921 38.1957 60.4395 38.632 60.4176C39.548 60.4176 40.4641 60.3086 41.3802 60.265V81.6601C34.8368 80.9622 29.1004 74.1359 25.676 64.0162L26.0686 63.8199ZM43.5177 60.265C44.4556 60.265 45.3717 60.265 46.2878 60.4176C46.7022 60.4176 47.1384 60.5267 47.5746 60.5921C48.4035 60.7012 49.2323 60.7884 50.0393 60.9629C50.8464 61.1374 51.0427 61.2028 51.5661 61.3118C52.0896 61.4209 53.0057 61.639 53.7473 61.8571C54.4889 62.0752 54.816 62.2278 55.3395 62.4023C55.863 62.5768 56.6482 62.8385 57.3025 63.1002C57.9569 63.3619 58.3495 63.58 58.873 63.8199L59.2656 64.0162C55.863 74.1359 50.1266 80.9622 43.5613 81.6601L43.5177 60.265ZM69.4733 13.8324L68.3609 14.8357L67.0086 15.9916C66.4633 16.4278 65.918 16.8204 65.3728 17.2129L63.9332 18.347C63.3661 18.7178 62.7772 19.0449 62.1665 19.3939C61.5558 19.7428 61.4903 19.8083 61.1413 19.9827C59.2897 13.8358 55.7355 8.33871 50.89 4.12719C57.8535 5.60763 64.2796 8.96373 69.4733 13.8324ZM23.6693 19.8737L22.6878 19.2848C22.0989 18.9359 21.51 18.6087 20.9429 18.238C20.3758 17.8672 19.9832 17.5619 19.5034 17.2129C19.0235 16.864 18.3255 16.4278 17.8675 15.9916C17.4095 15.5554 16.9514 15.2283 16.5152 14.8357L15.4028 13.8324C20.5811 8.92045 27.0095 5.52546 33.9861 4.01814C29.1333 8.22332 25.5776 13.7227 23.7348 19.8737H23.6693ZM15.4028 71.0825L16.4934 70.0793L17.8675 68.9016C18.391 68.4872 18.9363 68.0946 19.4815 67.702C20.0268 67.3095 20.4412 67.0041 20.9429 66.677C21.4446 66.3498 22.0989 65.9791 22.6878 65.6301L23.7348 65.0195C25.5838 71.1737 29.1381 76.6786 33.9861 80.8968C27.0149 79.3748 20.5902 75.9818 15.4028 71.0825ZM61.2068 65.0195L62.2537 65.6301C62.8426 65.9791 63.4315 66.3062 63.9986 66.677L65.4382 67.702C65.9835 68.0946 66.5506 68.4872 67.0741 68.9016L68.4264 70.0793L69.5387 71.0825C64.3513 75.9818 57.9267 79.3748 50.9554 80.8968C55.7731 76.6647 59.3029 71.1626 61.1413 65.0195H61.2068Z" stroke="white" stroke-width="2" mask="url(#path-1-outside-1_1841_233)"/>
</svg>
