<svg width="139" height="20" viewBox="0 0 139 20" fill="none" xmlns="http://www.w3.org/2000/svg">
<path d="M3.65272 20H0V13.0566C0 12.4242 0.241807 11.988 0.636544 11.5875C1.02648 11.1934 1.53171 10.9437 2.08738 10.9437H5.7393V17.8871C5.7393 18.5187 5.4983 18.9557 5.10276 19.3554C4.71363 19.7503 4.2084 20 3.65272 20ZM0 3.54711V0H3.65272C4.2084 0 4.71363 0.249716 5.10276 0.64456C5.4983 1.04427 5.7393 1.48127 5.7393 2.11367V9.05708H2.08738C1.53171 9.05708 1.02648 8.80736 0.636544 8.41252C0.241807 8.01281 0 7.57662 0 6.94422V3.54711ZM11.4033 15.3211V17.8117H8.86998C8.51047 17.8117 8.16137 17.6926 7.86592 17.3934C7.73002 17.2633 7.62161 17.1066 7.54725 16.9329C7.48005 16.7558 7.4482 16.5671 7.45357 16.3775V11.3961H9.98773C10.3464 11.3961 10.6955 11.5153 10.991 11.8145C11.1503 11.975 11.2488 12.1226 11.3105 12.275C11.3721 12.4274 11.4041 12.6034 11.4041 12.8304V15.3211H11.4033Z" fill="white"/>
<path d="M14.9814 2.56629H18.7831V12.6798H18.932L23.6272 2.56629H28.9198V17.8874H25.1181V7.77385H25.0436L20.4974 17.8874H14.9814V2.56629ZM44.5707 2.56629V17.8874H40.5465V11.925H35.254V17.8874H31.2297V2.56629H35.2548V8.37787H40.5465V2.56629H44.5707ZM57.7628 17.8111H53.7386V16.3777H51.6512C50.6824 16.3777 49.7135 16.3023 49.0425 16.0761C48.2979 15.9245 47.7759 15.5475 47.3291 15.0951C46.8815 14.641 46.5836 13.9624 46.4339 13.133C46.285 12.302 46.1361 11.3964 46.1361 10.1891C46.1361 8.60407 46.285 7.39684 46.6581 6.49121C47.0304 5.58559 47.5525 4.90616 48.3716 4.52916C49.1923 4.15134 50.3092 4.00054 51.6512 4.00054H53.7386V2.56629H57.7628V4.00135H59.7757C61.1169 4.00135 62.2354 4.15215 63.0545 4.52997C63.8744 4.90698 64.3965 5.511 64.7688 6.49202C65.1419 7.47305 65.2908 8.60488 65.2908 10.1891C65.2908 11.3972 65.2164 12.3782 64.993 13.2084C64.8441 13.9632 64.4709 14.5673 64.0986 15.1705C63.651 15.6245 63.1298 16.0007 62.3843 16.1515C61.6389 16.3031 60.819 16.4539 59.7757 16.4539H57.7628V17.812V17.8111ZM52.3222 12.8306H53.6641V7.47143H52.3214C51.8001 7.47143 51.427 7.54764 51.0547 7.77385C50.756 7.92465 50.5326 8.22707 50.3837 8.60407C50.2822 9.1261 50.2323 9.65707 50.2348 10.1891C50.2348 10.9431 50.3092 11.3972 50.3837 11.8496C50.4582 12.2266 50.756 12.529 51.0547 12.6798C51.427 12.7552 51.7993 12.8306 52.3214 12.8306H52.3222ZM57.7628 12.8306H59.1047C59.626 12.8306 59.9991 12.7552 60.2978 12.6798C60.5956 12.529 60.8182 12.2266 60.9679 11.8496C61.1169 11.4718 61.1169 10.9439 61.1169 10.1891C61.1169 9.20809 60.9679 8.52867 60.6701 8.07545C60.3714 7.69845 59.8502 7.54764 59.0303 7.54764H57.6883L57.7628 12.8306ZM73.3401 18.0382C72.2224 18.0382 71.2535 17.9628 70.4336 17.8874C69.6681 17.7498 68.9348 17.4682 68.2718 17.0571C67.6016 16.6793 67.154 16.1515 66.8562 15.3213C66.483 14.5665 66.3341 13.6608 66.3341 12.4536V8.15166C66.3341 7.01902 66.483 6.038 66.8562 5.28317C67.2285 4.52916 67.6761 4.00054 68.2718 3.54813C68.8683 3.0941 69.6137 2.86871 70.4336 2.64169C71.2535 2.49089 72.2224 2.34009 73.3401 2.34009C74.4579 2.34009 75.4275 2.41549 76.2466 2.49089C77.0121 2.62842 77.7454 2.91002 78.4084 3.32112C79.0794 3.69893 79.5262 4.30214 79.8249 5.05697C80.1972 5.81179 80.3461 6.71742 80.3461 7.92465V12.2266C80.3461 13.3592 80.1972 14.3402 79.8249 15.0943C79.4517 15.8491 79.005 16.3777 78.4084 16.8301C77.7375 17.2833 77.0665 17.5849 76.2466 17.6603C75.2977 17.9117 74.3209 18.0387 73.3401 18.0382ZM73.3401 14.4156C74.0855 14.4156 74.6821 14.3402 75.0544 14.264C75.4275 14.1886 75.7253 13.887 75.8743 13.51C76.0232 13.1322 76.1721 12.6044 76.1721 11.8496V8.37787C76.1721 7.84925 76.0977 7.39684 76.0232 7.01902C75.9487 6.71742 75.7253 6.49121 75.5764 6.26501C75.4275 6.1134 75.1288 5.96259 74.7565 5.88719C74.3834 5.88719 73.9366 5.81179 73.4146 5.81179C72.6699 5.81179 72.0734 5.88719 71.7011 5.96259C71.328 6.03799 71.0301 6.34041 70.8804 6.71742C70.7315 7.09442 70.5826 7.62304 70.5826 8.37787V11.8496C70.5826 12.6036 70.657 13.1322 70.8804 13.51C71.0293 13.887 71.328 14.0378 71.7003 14.1886C71.9245 14.3402 72.5202 14.4156 73.3401 14.4156Z" fill="white"/>
<path d="M88.2963 9.34822L90.8121 2.94479H94.5825L89.1074 14.2469V14.2485C88.671 15.1314 88.2403 15.7833 87.8167 16.2835C87.3916 16.7862 86.988 17.1186 86.5364 17.3148C86.068 17.5175 85.3738 17.661 84.6708 17.661C84.2473 17.661 83.6604 17.6091 83.031 17.5459V15.026C83.3001 15.0666 83.6227 15.0958 83.9999 15.0958H84.0079C84.2257 15.0958 84.4394 15.0958 84.6172 15.0852C84.7077 15.0803 84.7973 15.0722 84.879 15.0585C84.9319 15.0495 84.9919 15.0366 85.052 15.0155C85.2769 14.9912 85.5996 14.8695 85.7445 14.5266C85.7706 14.4874 85.7931 14.4459 85.8118 14.4025C85.8374 14.3458 85.8622 14.2809 85.8855 14.2217C85.888 14.2135 85.891 14.2054 85.8943 14.1974C85.9399 14.0774 85.9872 13.9542 86.048 13.8301L86.1281 13.668L86.0528 13.5034L81.2295 2.94479H84.9399L87.4548 9.34822L87.5485 9.58578H88.2034L88.2963 9.34822ZM100.038 17.4348H96.7451V2.86938H103.975C104.851 2.86938 105.63 2.94316 106.327 3.15477L106.341 3.15883L106.353 3.16207C106.932 3.29179 107.385 3.61772 107.713 4.01662C108.072 4.45281 108.397 4.92225 108.528 5.58464C108.676 6.3346 108.819 7.13483 108.819 8.07694C108.819 9.18202 108.747 10.0682 108.674 10.8125C108.565 11.3855 108.312 11.92 107.937 12.3635C107.626 12.7413 107.182 13.0056 106.577 13.1418C105.923 13.2894 105.057 13.4353 104.049 13.4353H100.187L100.174 13.7985L100.038 17.4348ZM100.025 10.3406V10.7184H103.155C103.716 10.7184 104.12 10.6365 104.438 10.5563C104.666 10.4979 104.853 10.3755 104.991 10.1898C105.119 10.0163 105.19 9.80712 105.233 9.59308C105.278 9.40336 105.297 9.16661 105.307 8.92095C105.316 8.6688 105.316 8.37936 105.316 8.08181V8.05181C105.316 7.54427 105.316 7.13402 105.235 6.71972L105.232 6.71161L105.231 6.70188C105.18 6.50305 105.08 6.32059 104.94 6.17164C104.875 6.10074 104.807 6.0331 104.736 5.96895C104.692 5.92679 104.652 5.88868 104.611 5.84733L104.538 5.77436L104.438 5.74842C104.12 5.66734 103.716 5.58627 103.155 5.58627H100.025V10.3414V10.3406ZM111.924 16.7376L111.916 16.7327L111.907 16.7278C111.33 16.4035 110.931 15.879 110.656 15.1817C110.374 14.4682 110.161 13.6096 110.161 12.4543V8.15234C110.161 7.04565 110.308 6.13191 110.643 5.45249C110.986 4.75928 111.39 4.27931 111.929 3.86582C112.572 3.50584 113.198 3.22855 113.954 3.08991C114.734 2.9456 115.665 2.94398 116.794 2.94398C117.888 2.94398 118.838 3.01776 119.65 3.09235C120.363 3.22237 121.047 3.48547 121.665 3.86825L121.673 3.87393L121.682 3.87798C122.258 4.20229 122.657 4.72766 122.932 5.42411L122.938 5.43871L122.945 5.4533C123.281 6.13353 123.427 6.97187 123.427 8.15234V12.4543C123.427 13.5602 123.281 14.4739 122.945 15.1533C122.602 15.8473 122.198 16.3265 121.659 16.74C121.025 17.0951 120.409 17.3691 119.666 17.5102C119.283 17.5126 118.87 17.5451 118.445 17.5783L118.331 17.5864C117.847 17.6245 117.338 17.661 116.794 17.661C115.701 17.661 114.75 17.588 113.938 17.5135C113.225 17.3836 112.542 17.1205 111.924 16.7376ZM119.842 7.02132L119.841 7.01322L119.838 7.0043C119.788 6.81373 119.703 6.63426 119.588 6.47487C119.546 6.41428 119.503 6.3548 119.459 6.2965L119.45 6.28434C119.412 6.23466 119.375 6.18383 119.34 6.13191C119.198 5.91625 118.975 5.80436 118.787 5.74518C118.6 5.68863 118.405 5.66049 118.21 5.66167C118.099 5.66167 117.946 5.64951 117.75 5.63329L117.653 5.62518C116.795 5.54551 115.929 5.58561 115.082 5.74436C114.564 5.84976 114.186 6.25191 114.001 6.62486L113.994 6.63864L113.989 6.65323C113.825 7.06835 113.664 7.6448 113.664 8.45395V11.9257C113.664 12.674 113.732 13.2853 114 13.7547C114.19 14.2047 114.553 14.4204 114.862 14.6044L114.963 14.6644L115.051 14.7179H115.154C115.252 14.7179 115.375 14.7269 115.549 14.7398L115.753 14.7552C116.028 14.7739 116.372 14.7933 116.794 14.7933C117.563 14.7933 118.183 14.7155 118.581 14.6352C119.107 14.529 119.491 14.1147 119.674 13.651C119.838 13.2359 119.999 12.6594 119.999 11.8503V8.45314C119.999 7.88884 119.919 7.40806 119.842 7.02051V7.02132ZM138.575 2.94479L133.634 9.89387L133.473 10.1201L133.639 10.3422L139 17.5102H134.947L130.81 11.7051L130.699 11.5486H128.943V17.5102H125.663V2.94479H128.943V8.75555H130.706L130.817 8.59016L134.581 2.94479H138.575Z" fill="white"/>
</svg>
