<svg width="135" height="15" viewBox="0 0 135 15" fill="none" xmlns="http://www.w3.org/2000/svg">
<path d="M2.4159 10.4734L6.26593 0.266296C2.04923 1.24263 -0.425794 5.23671 0.490881 9.23079C1.49922 13.1361 5.71593 15.7101 9.7493 14.8225C12.041 14.29 13.8743 12.8698 14.9743 10.9172C10.391 12.6036 5.16592 12.6036 2.4159 10.4734Z" fill="#F6911E"/>
<path d="M11.9492 8.52065C13.2326 8.6094 14.5159 8.52065 15.7076 7.9881C15.7076 7.81059 15.7076 7.63307 15.7076 7.45556C15.7076 5.85792 15.1576 4.34905 14.2409 3.10645L11.9492 8.52065Z" fill="#F6911E"/>
<path d="M9.29129 9.14194L12.683 1.5088C12.3163 1.24253 12.0413 1.06501 11.6746 0.976257L8.09961 9.58573C9.74962 10.2958 12.8663 9.76324 15.6163 8.96442C15.708 8.87567 15.708 8.69815 15.708 8.52064C13.6913 9.05318 10.758 9.58573 9.29129 9.14194Z" fill="#F6911E"/>
<path d="M5.89943 9.76331L9.74946 0.177515C9.38279 0.0887574 9.01612 0.0887574 8.64945 0L4.52441 10.2071C6.8161 11.716 11.1245 11.4497 15.2495 10.2071C15.3412 10.0296 15.4328 9.85207 15.4328 9.5858C13.0495 10.5621 7.27444 11.0947 5.89943 9.76331Z" fill="#F6911E"/>
<path d="M71.5334 7.89949H73.1834V3.37287C73.1834 3.10659 73.0918 2.92908 73.0001 2.66281C73.0001 2.48529 72.8168 2.30778 72.7251 2.13026C72.6334 1.95275 72.4501 1.86399 72.1751 1.77523C71.9917 1.59772 71.8084 1.59772 71.5334 1.59772C71.1667 1.59772 70.8001 1.77523 70.5251 1.95275C70.2501 2.13026 70.0667 2.48529 69.8834 2.75156L68.325 6.47937L66.8584 2.92908C66.7667 2.75156 66.5834 2.57405 66.4917 2.39653C66.4 2.21902 66.2167 2.13026 66.125 1.95275C66.0334 1.86399 65.85 1.77523 65.6667 1.68647C65.3 1.59772 64.8417 1.59772 64.3833 1.68647C64.2 1.77523 64.0167 1.86399 63.925 2.0415C63.5583 2.30778 63.375 2.75156 63.375 3.19535V7.89949H65.025V3.37287L66.5834 6.65689C66.5834 6.8344 66.7667 7.01192 66.8584 7.18943C67.0417 7.36695 67.1334 7.54446 67.225 7.63322C67.4084 7.72198 67.5917 7.89949 67.775 7.98825C67.9584 8.07701 68.1417 8.07701 68.325 8.07701C68.5084 8.07701 68.7834 8.07701 68.9667 7.98825C69.1501 7.89949 69.2417 7.81074 69.3334 7.72198C69.5167 7.54446 69.6084 7.36695 69.7001 7.18943C69.7917 7.01192 69.8834 6.8344 69.9751 6.56813L71.5334 3.19535V7.89949Z" fill="white"/>
<path d="M83.2662 7.98825V6.30186H75.6578V5.5918H83.2662V3.99417H75.6578V3.28411H83.2662V1.59772H76.3912C76.0245 1.59772 75.7495 1.59772 75.4745 1.68647C75.1995 1.77523 74.9245 1.95275 74.7412 2.13026C74.5578 2.30778 74.3745 2.48529 74.1911 2.75156C74.0995 3.10659 74.0078 3.28411 74.0078 3.63914V5.85807C74.0078 6.2131 74.0995 6.47937 74.1911 6.74565C74.3745 7.01192 74.5578 7.18943 74.7412 7.36695C74.9245 7.54446 75.1995 7.72198 75.4745 7.81073C75.6578 7.89949 76.0245 7.98825 76.2995 7.98825H83.2662Z" fill="white"/>
<path d="M62.5494 7.98825V6.30186H54.941V5.5918H62.5494V3.99417H54.941V3.28411H62.5494V1.59772H55.6744C55.3077 1.59772 55.0327 1.59772 54.666 1.68647C54.4827 1.77523 54.2077 1.95275 53.9327 2.13026C53.7494 2.30778 53.566 2.48529 53.4743 2.75156C53.291 3.10659 53.291 3.28411 53.291 3.63914V5.85807C53.291 6.2131 53.291 6.47937 53.4743 6.74565C53.566 7.01192 53.7494 7.18943 53.9327 7.36695C54.2077 7.54446 54.4827 7.72198 54.666 7.81073C54.941 7.89949 55.216 7.98825 55.5827 7.98825H62.5494Z" fill="white"/>
<path d="M34.041 7.81073C34.316 7.89949 34.591 7.98825 34.9577 7.98825H41.8328V6.30186H34.316V5.5918H41.9244V3.99417H34.316V3.28411H41.9244V1.59772H34.9577C34.591 1.59772 34.316 1.59772 34.041 1.68647C33.766 1.77523 33.491 1.95275 33.3077 2.13026C33.0327 2.30778 32.941 2.48529 32.8494 2.75156C32.666 3.10659 32.666 3.28411 32.666 3.63914V5.85807C32.666 6.2131 32.666 6.47937 32.8494 6.74565C32.941 7.01192 33.1244 7.18943 33.3077 7.36695C33.5827 7.54446 33.8577 7.72198 34.041 7.81073Z" fill="white"/>
<path d="M31.7496 1.59772H30.0079V6.39062H27.9913V1.59772H26.1579V6.39062H24.2329V1.59772H22.4912V7.98825H31.7496V1.59772Z" fill="white"/>
<path d="M44.4917 3.28411H50.6334V3.99417H44.4917V3.28411ZM44.4917 5.5918H50.2667C50.5417 5.5918 50.8167 5.50304 51.0001 5.41428C51.5501 5.23677 52.0084 4.79298 52.1917 4.3492C52.3751 4.08292 52.3751 3.81665 52.3751 3.55038C52.3751 3.28411 52.3751 3.01784 52.1917 2.75156C52.1001 2.48529 51.9167 2.30778 51.7334 2.13026C51.4584 1.95275 51.1834 1.86399 51.0001 1.77523C50.6334 1.59772 50.4501 1.59772 50.0834 1.59772H42.75V7.98825H44.4917V5.5918Z" fill="white"/>
<path d="M106.367 1.77523C106.092 1.77523 105.817 1.95275 105.542 2.13026C105.359 2.30778 105.175 2.57405 105.084 2.84032C104.992 3.10659 104.9 3.37287 104.9 3.63914V5.94683C104.9 6.2131 104.992 6.56813 105.084 6.8344C105.175 7.01192 105.359 7.27819 105.542 7.45571C105.817 7.63322 106.092 7.72198 106.367 7.89949C106.55 7.98825 106.917 8.07701 107.192 8.07701H114.067V6.39062H106.55V5.5918H114.067V3.99417H106.55V3.28411H114.067V1.59772H107.192C106.917 1.59772 106.642 1.59772 106.367 1.77523Z" fill="white"/>
<path d="M102.333 6.39062H96.1918V5.5918H102.333V6.39062ZM103.342 4.61547C103.159 4.3492 102.883 4.17168 102.7 4.17168C102.425 3.99417 102.058 3.99417 101.875 3.99417H96.1001V1.59772H94.3584V7.89949H101.692C101.967 7.89949 102.242 7.89949 102.517 7.81073C102.792 7.72198 103.067 7.54446 103.25 7.36695C103.525 7.18943 103.617 7.01192 103.8 6.8344C103.984 6.56813 103.984 6.2131 103.984 6.03559C103.984 5.68056 103.984 5.50304 103.8 5.23677C103.709 4.9705 103.525 4.79298 103.342 4.61547Z" fill="white"/>
<path d="M84.1836 3.28411H88.0336V7.89949H89.6837V3.28411H93.5337V1.59772H84.1836V3.28411Z" fill="white"/>
<path d="M122.683 3.90541H116.725V3.28411H122.683V3.90541ZM122.683 6.30186H116.725V5.5918H122.683V6.30186ZM124.058 4.79298C124.242 4.3492 124.425 3.99417 124.425 3.55038C124.425 3.28411 124.333 2.92908 124.242 2.66281C124.058 2.48529 123.875 2.30778 123.692 2.13026C123.508 1.95275 123.233 1.77523 122.958 1.77523C122.683 1.68647 122.317 1.59772 122.042 1.59772H114.983V7.98825H122.317C122.683 7.98825 122.958 7.89949 123.142 7.81073C123.417 7.72198 123.692 7.54446 123.875 7.36695C124.058 7.18943 124.242 7.01192 124.333 6.74565C124.425 6.47937 124.517 6.2131 124.517 5.94683C124.517 5.76931 124.425 5.50304 124.333 5.32553C124.242 5.14801 124.15 4.9705 124.058 4.79298Z" fill="white"/>
<path d="M132.95 6.39062H127.175V3.28411H132.95V6.39062ZM134.142 2.21902C133.867 2.0415 133.684 1.86399 133.409 1.77523C133.134 1.68647 132.95 1.59772 132.584 1.59772H127.725C127.45 1.59772 127.175 1.68647 126.9 1.77523C126.625 1.77523 126.35 1.95275 126.167 2.13026C125.984 2.30778 125.8 2.48529 125.617 2.66281C125.434 2.92908 125.434 3.19535 125.434 3.46162V5.85807C125.434 6.2131 125.434 6.47937 125.617 6.65689C125.709 6.92316 125.8 7.18943 125.984 7.36695C126.167 7.54446 126.442 7.63322 126.717 7.72198C126.992 7.89949 127.267 7.89949 127.542 7.89949H132.584C132.859 7.89949 133.134 7.89949 133.409 7.72198C133.684 7.63322 133.867 7.54446 134.142 7.36695C134.325 7.18943 134.509 7.01192 134.509 6.74565C134.692 6.47937 134.692 6.2131 134.692 6.03559V3.63914C134.692 3.46162 134.692 3.10659 134.509 2.92908C134.417 2.66281 134.325 2.39653 134.142 2.21902Z" fill="white"/>
<path d="M42.8411 12.5147H39.8161V11.0058H42.8411V12.5147ZM43.6661 11.1833C43.6661 11.0945 43.6661 10.917 43.5745 10.8283C43.4828 10.7395 43.4828 10.562 43.2995 10.562C43.2078 10.4732 43.1161 10.3845 42.9328 10.3845C42.8411 10.2957 42.7495 10.2957 42.5661 10.2957H40.1828C39.9994 10.2957 39.9078 10.2957 39.7244 10.3845C39.6328 10.3845 39.4494 10.4732 39.4494 10.562C39.2661 10.562 39.2661 10.7395 39.1744 10.8283C39.0828 10.917 39.0828 11.0945 39.0828 11.1833V12.5147H38.8994V13.3135H44.0328V12.5147H43.6661V11.1833Z" fill="white"/>
<path d="M28.5408 10.207C28.4491 10.2958 28.2658 10.3845 28.1741 10.3845C28.0825 10.4733 27.9908 10.562 27.8991 10.7395C27.8991 10.8283 27.8075 11.0058 27.8991 11.0946V12.2484C27.8991 12.4259 27.8991 12.6034 27.9908 12.6922C28.0825 12.781 28.0825 12.9585 28.2658 12.9585C28.3575 13.136 28.4491 13.136 28.6325 13.2247C28.7241 13.3135 28.9075 13.3135 28.9991 13.3135H32.4825V12.4259H28.7241V12.0709H32.4825V11.2721H28.7241V10.9171H32.4825V10.0295H28.9991C28.8158 10.207 28.6325 10.207 28.5408 10.207Z" fill="white"/>
<path d="M113.058 12.6034H110.125V11.0057H113.058V12.6034ZM113.608 10.5619C113.517 10.3844 113.425 10.3844 113.242 10.2957C113.15 10.2069 113.058 10.2069 112.875 10.2069H110.491C110.4 10.2069 110.216 10.2069 110.033 10.2957C109.941 10.3844 109.85 10.3844 109.666 10.4732C109.575 10.5619 109.483 10.6507 109.391 10.7395C109.391 10.917 109.3 11.0057 109.3 11.0945V12.3371C109.3 12.4258 109.3 12.6034 109.391 12.7809C109.391 12.8696 109.483 12.9584 109.575 13.0471C109.758 13.1359 109.85 13.2247 109.941 13.3134C110.033 13.3134 110.216 13.3134 110.4 13.3134H112.875C113.058 13.3134 113.15 13.3134 113.242 13.3134C113.425 13.2247 113.517 13.1359 113.608 13.1359C113.7 13.0471 113.792 12.9584 113.883 12.7809C113.883 12.6921 113.883 12.6034 113.883 12.4258V11.272C113.883 11.0945 113.883 11.0057 113.883 10.917C113.792 10.7395 113.7 10.5619 113.608 10.5619Z" fill="white"/>
<path d="M38.4413 10.207H37.3413L36.333 11.1834C36.333 11.2721 36.333 11.2721 36.2413 11.2721C36.1496 11.3609 36.1496 11.3609 36.1496 11.4496C36.1496 11.4496 36.058 11.4496 36.058 11.5384V10.207H35.1413V11.4496C35.1413 11.4496 35.0496 11.4496 35.0496 11.3609C35.0496 11.2721 34.958 11.2721 34.958 11.2721C34.958 11.1834 34.958 11.1834 34.958 11.0946H34.8663L34.0413 10.1183H32.8496L34.3163 11.7159L32.8496 13.3136H33.9496L34.8663 12.3372C34.958 12.2485 34.958 12.2485 34.958 12.2485C35.0496 12.1597 35.0496 12.1597 35.0496 12.1597L35.1413 12.0709H35.233V13.3136H36.1496V11.9822V12.0709H36.2413C36.2413 12.0709 36.333 12.1597 36.333 12.2485C36.333 12.2485 36.333 12.3372 36.4246 12.426L37.3413 13.3136H38.3497L36.9746 11.8047L38.4413 10.207Z" fill="white"/>
<path d="M107.925 11.4495H104.9V11.0057H107.925V11.4495ZM108.475 10.4732C108.292 10.3844 108.2 10.2957 108.108 10.2957C107.925 10.2069 107.742 10.2069 107.65 10.2069H103.983V13.4022H104.808V12.2483H107.65C107.833 12.2483 108.017 12.2483 108.108 12.1596C108.292 12.0708 108.383 12.0708 108.475 11.8933C108.658 11.8045 108.658 11.7158 108.75 11.627C108.842 11.4495 108.842 11.3608 108.842 11.1832C108.842 11.0945 108.842 10.917 108.658 10.7395C108.658 10.6507 108.567 10.5619 108.475 10.4732Z" fill="white"/>
<path d="M123.326 12.6034H120.392V11.0057H123.326V12.6034ZM123.876 10.5619C123.692 10.3844 123.692 10.3844 123.509 10.2957C123.417 10.2069 123.326 10.2069 123.142 10.2069H120.759C120.576 10.2069 120.392 10.2069 120.301 10.2957C120.209 10.3844 120.026 10.3844 119.934 10.4732C119.842 10.5619 119.751 10.6507 119.659 10.7395C119.659 10.917 119.567 11.0057 119.567 11.0945V12.3371C119.567 12.4258 119.567 12.6034 119.659 12.7809C119.659 12.8696 119.751 12.9584 119.842 13.0471C120.026 13.1359 120.026 13.2247 120.209 13.3134C120.301 13.3134 120.392 13.3134 120.576 13.3134H123.142C123.326 13.3134 123.417 13.3134 123.509 13.3134C123.692 13.2247 123.784 13.1359 123.876 13.1359C123.967 13.0471 124.059 12.9584 124.059 12.7809C124.151 12.6921 124.151 12.6034 124.151 12.4258V11.272C124.151 11.0945 124.151 11.0057 124.059 10.917C124.059 10.7395 123.876 10.5619 123.876 10.5619Z" fill="white"/>
<path d="M114.342 13.4022H115.167V11.0057H118.192V13.4022H119.017V10.2069H114.342V13.4022Z" fill="white"/>
<path d="M128.55 11.4495H125.433V11.0057H128.55V11.4495ZM129.1 10.4732C128.917 10.3844 128.825 10.2957 128.733 10.2957C128.55 10.2069 128.367 10.2069 128.275 10.2069H124.608V13.4022H125.433V12.2483H128.275C128.458 12.2483 128.642 12.2483 128.733 12.1596C128.917 12.0708 129.008 12.0708 129.1 11.8933C129.283 11.8045 129.283 11.7158 129.375 11.627C129.467 11.4495 129.467 11.3608 129.467 11.1832C129.467 11.0945 129.467 10.917 129.283 10.7395C129.283 10.6507 129.192 10.5619 129.1 10.4732Z" fill="white"/>
<path d="M27.1664 10.4732C27.0747 10.3844 26.9831 10.3844 26.8914 10.2957C26.7997 10.2069 26.708 10.2069 26.6164 10.2069C26.433 10.2069 26.2497 10.2957 26.158 10.3844C25.9747 10.5619 25.883 10.6507 25.7914 10.8282L24.9664 12.6921L24.233 10.917C24.233 10.7395 24.233 10.7395 24.1414 10.6507C24.0497 10.5619 24.0497 10.4732 23.958 10.3844C23.8664 10.3844 23.7747 10.2957 23.683 10.2957C23.4997 10.2069 23.2247 10.2069 23.0413 10.2957C22.7663 10.3844 22.583 10.7395 22.583 11.0057V13.4022H23.408V11.0945L24.1414 12.6921C24.233 12.7809 24.233 12.8696 24.233 12.9584C24.3247 13.0471 24.4164 13.1359 24.4164 13.2247C24.508 13.3134 24.5997 13.3134 24.6914 13.4022C24.783 13.4909 24.8747 13.4909 24.9664 13.4909C25.1497 13.4909 25.1497 13.4909 25.333 13.4022C25.333 13.3134 25.4247 13.3134 25.5164 13.3134C25.5164 13.2247 25.608 13.1359 25.6997 13.0471C25.7914 12.9584 25.7914 12.8696 25.883 12.7809L26.708 11.0945V13.4022H27.3497V11.0945C27.3497 11.0057 27.3497 10.917 27.2581 10.7395C27.2581 10.6507 27.2581 10.5619 27.1664 10.4732Z" fill="white"/>
<path d="M129.834 11.0057H131.759V13.3134H132.584V11.0057H134.509V10.2069H129.834V11.0057Z" fill="white"/>
<path d="M63.6497 11.4495H60.6247V11.0057H63.6497V11.4495ZM64.1081 10.4732C64.0164 10.3844 63.9247 10.2957 63.7414 10.2957C63.6497 10.2069 63.4664 10.2069 63.3747 10.2069H59.708V13.4022H60.533V12.2483H63.3747C63.5581 12.2483 63.7414 12.2483 63.8331 12.1596C64.1081 12.0708 64.2914 11.8933 64.3831 11.627C64.4747 11.4495 64.4747 11.3608 64.4747 11.1832C64.4747 11.0945 64.3831 10.917 64.2914 10.7395C64.2914 10.6507 64.2914 10.5619 64.1081 10.4732Z" fill="white"/>
<path d="M68.7828 12.6034H65.8494V11.0057H68.7828V12.6034ZM69.3328 10.5619C69.1494 10.3844 69.1494 10.3844 68.9661 10.2957C68.8744 10.2069 68.7828 10.2069 68.5994 10.2069H66.2161C66.0328 10.2069 65.8494 10.2069 65.7578 10.2957C65.6661 10.3844 65.4827 10.3844 65.3911 10.4732C65.2994 10.5619 65.2077 10.6507 65.1161 10.7395C65.1161 10.917 65.0244 11.0057 65.0244 11.0945V12.3371C65.0244 12.4258 65.0244 12.6034 65.1161 12.7809C65.1161 12.8696 65.2077 12.9584 65.2994 13.0471C65.4827 13.1359 65.4827 13.2247 65.6661 13.3134C65.7578 13.3134 65.8494 13.3134 66.0328 13.3134H68.5994C68.7828 13.3134 68.8744 13.3134 68.9661 13.3134C69.1494 13.2247 69.2411 13.1359 69.3328 13.1359C69.4244 13.0471 69.5161 12.9584 69.5161 12.7809C69.6078 12.6921 69.6078 12.6034 69.6078 12.4258V11.272C69.6078 11.0945 69.6078 11.0057 69.5161 10.917C69.4244 10.7395 69.3328 10.5619 69.3328 10.5619Z" fill="white"/>
<path d="M90.5086 10.2958C90.4169 10.207 90.3252 10.207 90.2336 10.207C90.1419 10.1183 90.0502 10.1183 89.9585 10.1183C89.6835 10.1183 89.4085 10.207 89.2252 10.3846L87.0252 12.6035V10.207H86.2002V12.5147C86.2002 12.6035 86.2002 12.781 86.2919 12.8698C86.2919 12.9585 86.2919 13.0473 86.4752 13.136C86.4752 13.2248 86.6585 13.3136 86.6585 13.3136C86.8419 13.4023 86.9335 13.4023 87.0252 13.4023C87.2085 13.4023 87.3002 13.4023 87.4835 13.3136C87.5752 13.3136 87.6669 13.2248 87.7585 13.136L89.9585 11.0059V13.4023H90.7836V10.9171C90.7836 10.8283 90.7836 10.7396 90.6919 10.5621C90.6002 10.4733 90.5086 10.3846 90.5086 10.2958Z" fill="white"/>
<path d="M74.0081 12.5147H71.0747V11.0058H74.0081V12.5147ZM74.8331 11.1833C74.8331 11.0945 74.8331 10.917 74.7414 10.8283C74.7414 10.7395 74.6498 10.562 74.5581 10.562C74.3748 10.4732 74.2831 10.3845 74.0998 10.3845C74.0081 10.2957 73.9164 10.2957 73.7331 10.2957H71.3497C71.2581 10.2957 71.0747 10.2957 70.8914 10.3845C70.7997 10.3845 70.7081 10.4732 70.6164 10.562C70.4331 10.562 70.4331 10.7395 70.3414 10.8283C70.2497 10.917 70.2497 11.0945 70.2497 11.1833V12.5147H70.0664V13.3135H75.1998V12.5147H74.8331V11.1833Z" fill="white"/>
<path d="M84.917 10.2069H85.742V13.3134H84.917V10.2069Z" fill="white"/>
<path d="M48.3412 11.3608H45.2246V10.2069H44.4912V11.1832C44.4912 11.272 44.4912 11.4495 44.4912 11.627C44.5829 11.7158 44.6745 11.8933 44.7662 11.8933C44.8579 11.9821 45.0412 12.0708 45.1329 12.0708C45.2246 12.1596 45.4079 12.1596 45.5912 12.1596H48.4329V12.5146H44.6745V13.3134H48.2496C48.3412 13.3134 48.5246 13.3134 48.6162 13.3134C48.7079 13.2247 48.8912 13.1359 48.8912 13.0471C49.0746 12.9584 49.0746 12.8696 49.1662 12.7809C49.2579 12.6034 49.2579 12.5146 49.2579 12.3371V10.2069H48.3412V11.3608Z" fill="white"/>
<path d="M79.5081 11.3608H76.4831V10.2069H75.5664V13.3134H76.4831V12.1596H79.5081V13.3134H80.3331V10.2069H79.5081V11.3608Z" fill="white"/>
<path d="M53.475 11.3608H50.45V10.2069H49.625V13.3134H50.45V12.1596H53.475V13.3134H54.3917V10.2069H53.475V11.3608Z" fill="white"/>
<path d="M103.25 10.4732C103.066 10.3844 102.975 10.2957 102.883 10.2957C102.7 10.2069 102.516 10.2069 102.425 10.2069H98.9414V11.0945H102.7V11.4495H98.9414V12.2483H102.7V12.6034H98.9414V13.4909H102.425C102.516 13.4909 102.7 13.4909 102.883 13.4022C102.975 13.3134 103.066 13.3134 103.25 13.1359C103.341 13.0471 103.433 12.9584 103.433 12.8696C103.525 12.7809 103.616 12.6034 103.616 12.4258V11.1832C103.616 11.0945 103.616 10.917 103.525 10.7395C103.433 10.6507 103.341 10.5619 103.25 10.4732Z" fill="white"/>
<path d="M83.6335 12.6034H81.6169V12.1596H83.6335V12.6034ZM84.1835 11.627C84.0002 11.5383 84.0002 11.4495 83.8169 11.4495C83.6335 11.3608 83.5419 11.3608 83.3585 11.3608H81.5252V10.2069H80.7002V13.3134H83.1752C83.3585 13.3134 83.5419 13.3134 83.6335 13.3134C83.8169 13.2247 83.9085 13.1359 84.0002 13.1359C84.1835 13.0471 84.1835 12.9584 84.2752 12.7809C84.3669 12.6921 84.3669 12.6034 84.3669 12.4258C84.3669 12.2483 84.3669 12.0708 84.3669 11.9821C84.3669 11.8933 84.2752 11.8045 84.1835 11.627Z" fill="white"/>
<path d="M56.5912 11.7158L56.9578 11.0945L57.3245 11.7158H56.5912ZM57.7828 10.6507C57.6912 10.5619 57.5995 10.4732 57.5995 10.3844C57.5078 10.3844 57.4162 10.2957 57.3245 10.2069C57.1412 10.2069 57.1412 10.2069 56.9578 10.2069C56.8662 10.2069 56.7745 10.2069 56.6828 10.2069C56.5912 10.2957 56.4995 10.3844 56.4078 10.3844C56.4078 10.4732 56.3162 10.5619 56.2245 10.6507C56.2245 10.7395 56.1328 10.8282 56.0412 10.917L54.7578 13.3134H55.6745L56.1328 12.5146H57.7828L58.2412 13.3134H59.1579L57.8745 10.917C57.8745 10.917 57.7828 10.7395 57.7828 10.6507Z" fill="white"/>
<path d="M95.9172 11.7158L96.2839 11.0945L96.6505 11.7158H95.9172ZM97.0172 10.6507C96.9255 10.5619 96.9255 10.4732 96.8339 10.3844C96.7422 10.3844 96.7422 10.2957 96.5589 10.2069C96.4672 10.2069 96.3755 10.2069 96.2839 10.2069C96.1005 10.2069 96.1005 10.2069 95.9172 10.2069C95.9172 10.2957 95.7339 10.3844 95.7339 10.3844C95.6422 10.4732 95.5505 10.5619 95.5505 10.6507C95.4589 10.7395 95.3672 10.8282 95.3672 10.917L93.9922 13.3134H95.0005L95.3672 12.5146H97.0172L97.4755 13.3134H98.3922L97.1089 10.917C97.1089 10.917 97.1089 10.7395 97.0172 10.6507Z" fill="white"/>
<path d="M87.208 8.87573H89.7747V9.58579H87.208V8.87573Z" fill="white"/>
</svg>
