<svg width="118" height="29" viewBox="0 0 118 29" fill="none" xmlns="http://www.w3.org/2000/svg">
<path d="M0.000117429 4.59888H3.30547C5.11207 4.59888 6.86286 8.95086 7.53817 9.92246C8.2231 8.95086 9.97198 4.59888 11.7805 4.59888H15.0858L15.0551 13.1047H11.7497L11.7805 7.91L9.0581 12.9123H6.02594L3.30547 7.91V13.1047H0.000117429V4.59888Z" fill="white"/>
<path d="M16.9309 4.59888H20.2363C22.0448 4.59888 23.7937 8.95086 24.469 9.92246C25.1481 8.95086 26.8989 4.59888 28.7055 4.59888H32.0109V13.1047H28.7055V7.91L25.9851 12.9123H22.951L20.2305 7.91V13.1047H16.9309V4.59888Z" fill="white"/>
<path d="M2.01835 23.4536C1.37795 22.8723 0.867241 22.1625 0.519499 21.3705C0.171757 20.5786 -0.00521472 19.7222 0.000116986 18.8573V15.2961H15.0839V18.2301H3.48825C3.52673 18.9612 3.5806 19.902 4.02118 20.6139C4.52911 21.4335 5.30638 21.8895 6.4646 21.9972H15.0839V25.3026H6.4646C4.60029 25.3026 2.69365 24.0308 2.01835 23.4536Z" fill="white"/>
<path d="M24.4651 25.3026C20.2728 25.3026 16.9886 23.0515 16.9886 20.1791C16.9886 17.3066 20.2728 15.0556 24.4651 15.0556C28.6574 15.0556 31.9378 17.297 31.9378 20.1829C31.9378 23.0688 28.667 25.3026 24.4651 25.3026ZM24.4651 18.2224C21.8755 18.2224 20.1555 19.3999 20.1555 20.1791C20.1555 20.9583 21.8755 22.1338 24.4651 22.1338C27.0548 22.1338 28.7748 20.9525 28.7748 20.1829C28.7748 19.4133 27.0548 18.2224 24.4651 18.2224Z" fill="white"/>
<path d="M38.5367 4.62V7.25389H38.2288V5.21835L37.2842 6.63438H37.0918L36.149 5.21835V7.25389H35.8316V4.62H36.1029L37.1899 6.24574L38.2731 4.62H38.5367Z" fill="white"/>
<path d="M39.9662 5.40304C40.0929 5.39743 40.2193 5.41801 40.3377 5.46352C40.456 5.50902 40.5637 5.57846 40.654 5.66749C40.7443 5.75652 40.8153 5.86322 40.8624 5.98093C40.9096 6.09863 40.932 6.22481 40.9281 6.35155C40.9281 6.60669 40.8268 6.85137 40.6464 7.03178C40.466 7.21218 40.2213 7.31353 39.9662 7.31353C39.711 7.31353 39.4664 7.21218 39.286 7.03178C39.1055 6.85137 39.0042 6.60669 39.0042 6.35155C39.0006 6.22488 39.0232 6.09884 39.0705 5.98126C39.1177 5.86369 39.1887 5.7571 39.2789 5.66813C39.3692 5.57916 39.4768 5.50971 39.595 5.4641C39.7132 5.4185 39.8396 5.39772 39.9662 5.40304ZM39.9662 5.68971C39.8782 5.68528 39.7902 5.69938 39.708 5.73109C39.6258 5.76281 39.5512 5.81144 39.489 5.87383C39.4268 5.93623 39.3784 6.01099 39.3469 6.09329C39.3154 6.17558 39.3016 6.26357 39.3063 6.35155C39.3063 6.52709 39.376 6.69543 39.5001 6.81955C39.6242 6.94367 39.7926 7.0134 39.9681 7.0134C40.1436 7.0134 40.312 6.94367 40.4361 6.81955C40.5602 6.69543 40.6299 6.52709 40.6299 6.35155C40.6347 6.26323 40.6207 6.1749 40.589 6.09232C40.5573 6.00975 40.5086 5.93479 40.4459 5.87233C40.3833 5.80988 40.3082 5.76133 40.2255 5.72987C40.1429 5.6984 40.0545 5.68472 39.9662 5.68971Z" fill="white"/>
<path d="M42.2172 5.40304C42.4127 5.39809 42.6055 5.4488 42.7732 5.54927V5.84363C42.6222 5.73472 42.4399 5.67798 42.2538 5.68202C42.1617 5.67355 42.0688 5.68471 41.9814 5.71475C41.8939 5.74479 41.8138 5.79304 41.7463 5.85631C41.6789 5.91958 41.6256 5.99644 41.59 6.0818C41.5545 6.16717 41.5374 6.25911 41.54 6.35155C41.5372 6.44338 41.5539 6.53475 41.5889 6.61968C41.6239 6.70461 41.6765 6.78119 41.7431 6.8444C41.8098 6.90761 41.889 6.95603 41.9757 6.98647C42.0624 7.01692 42.1545 7.02872 42.2461 7.02109C42.4379 7.02115 42.6263 6.97072 42.7925 6.87487V7.17501C42.6091 7.26145 42.4083 7.30426 42.2057 7.30006C42.0794 7.30678 41.953 7.28721 41.8347 7.24259C41.7164 7.19797 41.6086 7.12926 41.5181 7.04083C41.4277 6.9524 41.3566 6.84616 41.3094 6.72884C41.2621 6.61152 41.2398 6.48567 41.2437 6.35925C41.2395 6.23108 41.262 6.10344 41.3097 5.98439C41.3574 5.86535 41.4292 5.75749 41.5207 5.66763C41.6122 5.57776 41.7213 5.50785 41.8412 5.46231C41.9611 5.41677 42.0891 5.39659 42.2172 5.40304Z" fill="white"/>
<path d="M43.233 7.25389V5.44922H43.539V6.20149H43.9045L44.4817 5.44922H44.8319L44.1354 6.34771L44.905 7.25389H44.551L43.8891 6.48431H43.539V7.25389H43.233Z" fill="white"/>
<path d="M45.9477 5.40304C46.0744 5.39743 46.2009 5.41801 46.3193 5.46352C46.4376 5.50902 46.5453 5.57846 46.6356 5.66749C46.7259 5.75652 46.7969 5.86322 46.844 5.98093C46.8912 6.09863 46.9136 6.22481 46.9097 6.35155C46.9097 6.60669 46.8084 6.85137 46.628 7.03178C46.4476 7.21218 46.2029 7.31353 45.9477 7.31353C45.6926 7.31353 45.4479 7.21218 45.2675 7.03178C45.0871 6.85137 44.9858 6.60669 44.9858 6.35155C44.9822 6.22488 45.0048 6.09884 45.0521 5.98126C45.0993 5.86369 45.1703 5.7571 45.2605 5.66813C45.3507 5.57916 45.4583 5.50971 45.5766 5.4641C45.6948 5.4185 45.8211 5.39772 45.9477 5.40304ZM45.9477 5.68971C45.8596 5.685 45.7714 5.69889 45.689 5.73048C45.6066 5.76207 45.5317 5.81066 45.4693 5.87308C45.4069 5.93551 45.3583 6.01037 45.3267 6.09281C45.2951 6.17524 45.2812 6.2634 45.2859 6.35155C45.295 6.52117 45.3689 6.68082 45.4922 6.79765C45.6155 6.91448 45.7789 6.9796 45.9487 6.9796C46.1186 6.9796 46.282 6.91448 46.4053 6.79765C46.5286 6.68082 46.6024 6.52117 46.6115 6.35155C46.6159 6.2633 46.6018 6.17511 46.57 6.09267C46.5382 6.01024 46.4894 5.9354 46.4268 5.87301C46.3643 5.81062 46.2893 5.76206 46.2067 5.73049C46.1242 5.69891 46.036 5.68502 45.9477 5.68971Z" fill="white"/>
<path d="M47.3445 7.25389V5.44922H48.3335C48.649 5.44922 48.8914 5.61853 48.8914 5.9379C48.8928 6.01967 48.8707 6.10012 48.8277 6.16969C48.7848 6.23926 48.7227 6.29504 48.649 6.33039C48.7367 6.3591 48.813 6.41509 48.8666 6.4902C48.9203 6.56531 48.9485 6.6556 48.9472 6.74789C48.9472 7.0461 48.7548 7.24812 48.37 7.24812L47.3445 7.25389ZM47.6447 6.21111H48.3046C48.4624 6.21111 48.5855 6.15146 48.5855 5.96676C48.5869 5.93059 48.5804 5.89453 48.5665 5.86113C48.5525 5.82773 48.5314 5.79778 48.5046 5.7734C48.4779 5.74902 48.4461 5.73079 48.4115 5.71999C48.377 5.70919 48.3405 5.70608 48.3046 5.71088H47.6447V6.21111ZM47.6447 6.98069H48.3219C48.5143 6.98069 48.6451 6.92489 48.6451 6.7248C48.6451 6.52471 48.4835 6.46122 48.3335 6.46122H47.6447V6.98069Z" fill="white"/>
<path d="M50.2593 5.40304C50.4554 5.39783 50.6489 5.44855 50.8173 5.54927V5.84363C50.6662 5.73497 50.4839 5.67826 50.2978 5.68202C49.9477 5.68202 49.5821 5.87441 49.5821 6.35155C49.5796 6.44347 49.5966 6.53488 49.6318 6.61981C49.667 6.70474 49.7197 6.7813 49.7866 6.84447C49.8534 6.90765 49.9327 6.95603 50.0195 6.98647C50.1063 7.0169 50.1985 7.0287 50.2901 7.02109C50.4819 7.02097 50.6703 6.97055 50.8365 6.87487V7.17501C50.6532 7.26145 50.4523 7.30426 50.2497 7.30006C50.1234 7.30678 49.9971 7.28721 49.8788 7.24259C49.7604 7.19797 49.6526 7.12926 49.5622 7.04083C49.4718 6.9524 49.4007 6.84616 49.3534 6.72884C49.3062 6.61152 49.2838 6.48567 49.2877 6.35925C49.2836 6.23125 49.306 6.10378 49.3536 5.98487C49.4012 5.86596 49.4728 5.7582 49.5641 5.66836C49.6554 5.57853 49.7643 5.50858 49.8839 5.46292C50.0036 5.41725 50.1314 5.39687 50.2593 5.40304Z" fill="white"/>
<path d="M51.2752 7.25389V5.44922H51.5772V6.20149H51.9409L52.5181 5.44922H52.8682L52.1833 6.34771L52.9529 7.25389H52.5989L51.937 6.48431H51.583V7.25389H51.2752Z" fill="white"/>
<path d="M53.2434 7.25389V5.44922H53.5435V6.76905L54.6498 5.44922H54.9057V7.25389H54.6055V5.93406L53.4993 7.25389H53.2434Z" fill="white"/>
<path d="M55.4675 7.25389V5.44922H55.7676V6.76905L56.8739 5.44922H57.1298V7.25389H56.8296V5.93406L55.7234 7.25389H55.4675ZM56.2948 5.17602C56.1067 5.18119 55.9219 5.12589 55.7676 5.01825V4.7412C55.9215 4.8506 56.106 4.90851 56.2948 4.90666C56.4809 4.9069 56.6625 4.84906 56.8142 4.7412V5.01248C56.6628 5.1206 56.4809 5.17786 56.2948 5.17602Z" fill="white"/>
<path d="M35.7604 11.7694V9.96282H36.0875L36.7455 10.9633L37.4054 9.96282H37.7325V11.7694H37.4458V10.4073L36.859 11.298H36.6339L36.0471 10.4073V11.7694H35.7604Z" fill="white"/>
<path d="M39.0638 9.91857C39.7603 9.91857 40.0162 10.4958 39.9027 10.9979H38.4655C38.504 11.3827 38.8503 11.5347 39.2101 11.5347C39.4173 11.5357 39.6215 11.4855 39.8046 11.3885V11.6828C39.6044 11.7746 39.3859 11.8194 39.1658 11.8137C38.6309 11.8137 38.1654 11.5097 38.1654 10.8652C38.1585 10.7431 38.1767 10.621 38.2188 10.5062C38.261 10.3915 38.3261 10.2865 38.4102 10.1979C38.4944 10.1092 38.5958 10.0387 38.7082 9.9907C38.8206 9.94266 38.9416 9.91811 39.0638 9.91857ZM39.0831 10.1956C39.0071 10.1901 38.9308 10.1997 38.8585 10.2239C38.7863 10.248 38.7195 10.2863 38.6621 10.3363C38.6047 10.3864 38.5577 10.4474 38.524 10.5157C38.4903 10.584 38.4704 10.6583 38.4655 10.7343H39.6353C39.6424 10.6606 39.633 10.5863 39.6075 10.5167C39.5821 10.4472 39.5414 10.3842 39.4884 10.3325C39.4354 10.2808 39.3715 10.2416 39.3013 10.2179C39.2312 10.1943 39.1566 10.1866 39.0831 10.1956Z" fill="white"/>
<path d="M42.5019 11.7694L41.8901 11.0133H41.5996V11.7694H41.2995V11.0133H41.009L40.3952 11.7694H40.0566L40.7762 10.8613L40.1393 9.96282H40.4741L41.0243 10.7324H41.2995V9.96282H41.5996V10.7324H41.8747L42.4231 9.96282H42.7578L42.1229 10.8613L42.8406 11.7694H42.5019Z" fill="white"/>
<path d="M42.9618 12.2581V11.4885H43.2023C43.4274 11.0903 43.5178 10.6266 43.5101 9.94935H44.8569V11.4885H45.1204V12.2581H44.828V11.7694H43.2542V12.2581H42.9618ZM43.5293 11.4885H44.5567V10.2341H43.8006C43.8067 10.6695 43.7174 11.1009 43.539 11.4981L43.5293 11.4885Z" fill="white"/>
<path d="M46.8097 9.96282H47.1291L46.2421 12.0407C46.0497 12.4755 45.8246 12.641 45.561 12.641C45.4961 12.6406 45.4315 12.6322 45.3686 12.616V12.3562C45.4199 12.3712 45.473 12.3789 45.5264 12.3793C45.7303 12.3793 45.8766 12.2312 45.9939 11.9387L46.0613 11.7733L45.2032 9.96282H45.5226L46.2036 11.4269L46.8097 9.96282Z" fill="white"/>
<path d="M47.4715 11.7694V9.96282H47.7717V10.7324H48.8164V9.96282H49.1184V11.7694H48.8164V10.9998H47.7717V11.7694H47.4715Z" fill="white"/>
<path d="M51.2829 11.5251C51.3308 11.5236 51.3782 11.5145 51.4233 11.4981V11.7425C51.3506 11.769 51.2737 11.7827 51.1963 11.7829C51.1248 11.7888 51.0533 11.7706 50.9934 11.7312C50.9334 11.6918 50.8883 11.6335 50.8654 11.5655C50.6678 11.7275 50.4185 11.8129 50.1631 11.806C49.8418 11.806 49.5263 11.6367 49.5263 11.2576C49.5263 10.7901 49.9553 10.6477 50.3421 10.6477C50.5102 10.6496 50.6778 10.6683 50.8423 10.7035V10.6401C50.8423 10.3688 50.6595 10.1879 50.3286 10.1879C50.1016 10.1881 49.8771 10.2346 49.6687 10.3245V10.0379C49.8904 9.96136 50.1229 9.92108 50.3575 9.91857C50.8404 9.91857 51.1444 10.1821 51.1444 10.6881V11.3942C51.1444 11.502 51.204 11.5251 51.2829 11.5251ZM50.2266 11.5462C50.3418 11.5464 50.4557 11.5231 50.5616 11.4778C50.6674 11.4324 50.7629 11.3661 50.8423 11.2827V10.9594C50.6915 10.9287 50.5382 10.9113 50.3844 10.9075C50.1208 10.9075 49.8341 10.9864 49.8341 11.2499C49.8341 11.4597 50.0265 11.5539 50.2266 11.5539V11.5462Z" fill="white"/>
<path d="M52.747 9.91857C52.8692 9.91869 52.9902 9.9436 53.1025 9.99178C53.2149 10.04 53.3163 10.1104 53.4006 10.1989C53.4849 10.2874 53.5505 10.392 53.5932 10.5065C53.636 10.6211 53.6551 10.7431 53.6493 10.8652C53.6553 10.9874 53.6364 11.1096 53.5938 11.2244C53.5512 11.3391 53.4857 11.444 53.4013 11.5327C53.317 11.6214 53.2155 11.692 53.103 11.7403C52.9905 11.7886 52.8694 11.8135 52.747 11.8137C52.6141 11.8165 52.4823 11.7897 52.3612 11.7351C52.24 11.6805 52.1326 11.5995 52.0467 11.4981V12.5967H51.7465V9.96282H52.0178V10.2649C52.1052 10.1557 52.2163 10.0678 52.3426 10.0078C52.4689 9.94784 52.6072 9.91732 52.747 9.91857ZM52.7124 10.1956C52.5703 10.1972 52.4317 10.24 52.3135 10.319C52.1953 10.3979 52.1026 10.5094 52.0467 10.6401V11.0922C52.1027 11.2226 52.1955 11.3339 52.3137 11.4125C52.4319 11.491 52.5704 11.5335 52.7124 11.5347C52.7994 11.5365 52.8858 11.5202 52.9662 11.4867C53.0466 11.4533 53.1191 11.4035 53.1792 11.3406C53.2392 11.2776 53.2856 11.2028 53.3152 11.121C53.3448 11.0391 53.357 10.952 53.3511 10.8652C53.3567 10.7784 53.3443 10.6914 53.3146 10.6097C53.2849 10.528 53.2385 10.4533 53.1785 10.3904C53.1185 10.3275 53.0461 10.2777 52.9658 10.2442C52.8856 10.2106 52.7993 10.1941 52.7124 10.1956Z" fill="white"/>
<path d="M54.9211 9.91857C55.1082 9.92122 55.2903 9.97915 55.4445 10.0851C55.5988 10.191 55.7182 10.3401 55.7879 10.5138C55.8576 10.6874 55.8743 10.8778 55.8361 11.0609C55.7978 11.2441 55.7062 11.4118 55.5729 11.5431C55.4395 11.6743 55.2703 11.7632 55.0866 11.7985C54.9028 11.8338 54.7128 11.8139 54.5403 11.7415C54.3678 11.669 54.2205 11.5471 54.1171 11.3912C54.0137 11.2353 53.9587 11.0523 53.9591 10.8652C53.9555 10.7386 53.9781 10.6126 54.0254 10.4951C54.0727 10.3776 54.1437 10.2712 54.2339 10.1824C54.3242 10.0935 54.4318 10.0243 54.55 9.97888C54.6682 9.9335 54.7946 9.91297 54.9211 9.91857ZM54.9211 10.2033C54.8329 10.1986 54.7448 10.2125 54.6623 10.2441C54.5799 10.2757 54.505 10.3243 54.4426 10.3867C54.3802 10.4491 54.3316 10.524 54.3 10.6064C54.2684 10.6888 54.2545 10.777 54.2592 10.8652C54.2592 11.0407 54.329 11.209 54.4531 11.3331C54.5772 11.4573 54.7455 11.527 54.9211 11.527C55.0966 11.527 55.2649 11.4573 55.3891 11.3331C55.5132 11.209 55.5829 11.0407 55.5829 10.8652C55.5876 10.777 55.5737 10.6888 55.5422 10.6064C55.5106 10.524 55.462 10.4491 55.3995 10.3867C55.3371 10.3243 55.2623 10.2757 55.1798 10.2441C55.0974 10.2125 55.0092 10.1986 54.9211 10.2033Z" fill="white"/>
<path d="M56.087 12.2581V11.4885H56.3275C56.5545 11.0903 56.6449 10.6266 56.6372 9.94935H57.984V11.4885H58.2476V12.2581H57.9532V11.7694H56.3814V12.2581H56.087ZM56.6642 11.4885H57.6896V10.2341H56.9335C56.9357 10.6707 56.8411 11.1024 56.6565 11.4981L56.6642 11.4885Z" fill="white"/>
<path d="M58.6497 11.7694V9.96282H58.9498V10.7324H59.9965V9.96282H60.2966V11.7694H59.9965V10.9998H58.9498V11.7694H58.6497Z" fill="white"/>
<path d="M60.8546 11.7694V9.96282H61.1547V10.5958H61.7126C62.1532 10.5958 62.411 10.8478 62.411 11.173C62.411 11.4981 62.1532 11.7598 61.7126 11.7598L60.8546 11.7694ZM61.1547 11.4981H61.6742C61.9377 11.4981 62.107 11.3962 62.107 11.1826C62.107 10.969 61.9377 10.8652 61.6742 10.8652H61.1547V11.4981ZM62.7612 11.7694V9.96282H63.0633V11.7694H62.7612Z" fill="white"/>
<path d="M63.6193 11.7694V9.96282H63.9213V11.2827L65.0257 9.96282H65.2796V11.7694H64.9795V10.4477L63.8732 11.7694H63.6193ZM64.4504 9.68385C64.2623 9.6897 64.0773 9.63434 63.9233 9.52608V9.2548C64.0779 9.36265 64.2619 9.42047 64.4504 9.42047C64.639 9.42047 64.8229 9.36265 64.9776 9.2548V9.52608C64.8237 9.6346 64.6386 9.68998 64.4504 9.68385Z" fill="white"/>
<path d="M37.0187 13.6145C37.2765 13.6129 37.5307 13.6744 37.7594 13.7934V14.1089C37.5537 13.9786 37.3141 13.9117 37.0706 13.9165C36.5261 13.9165 35.9567 14.2436 35.9528 14.9978C35.9528 15.7001 36.53 16.0406 37.0822 16.0406C37.3285 16.0488 37.5714 15.9816 37.7786 15.8482V16.1637C37.5401 16.2839 37.2761 16.3446 37.0091 16.3407C36.8257 16.3476 36.6429 16.3175 36.4715 16.2521C36.3001 16.1867 36.1437 16.0874 36.0116 15.9601C35.8794 15.8328 35.7743 15.6802 35.7025 15.5114C35.6308 15.3426 35.5938 15.1611 35.5938 14.9776C35.5938 14.7942 35.6308 14.6126 35.7025 14.4438C35.7743 14.275 35.8794 14.1224 36.0116 13.9951C36.1437 13.8679 36.3001 13.7686 36.4715 13.7032C36.6429 13.6378 36.8257 13.6076 37.0091 13.6145H37.0187Z" fill="white"/>
<path d="M39.8276 16.0579C39.8748 16.0563 39.9214 16.0479 39.9662 16.0329V16.2772C39.8941 16.304 39.8179 16.3177 39.7411 16.3176C39.6695 16.3239 39.5979 16.3059 39.5379 16.2664C39.4778 16.227 39.4328 16.1684 39.4101 16.1002C39.2113 16.2606 38.9613 16.344 38.706 16.335C38.3866 16.335 38.0692 16.1656 38.0692 15.7847C38.0692 15.3191 38.4982 15.1748 38.8868 15.1748C39.0551 15.1765 39.2228 15.1958 39.3871 15.2325V15.1806C39.3871 14.9093 39.1947 14.7285 38.8714 14.7285C38.6452 14.7281 38.4213 14.7739 38.2135 14.8631V14.5649C38.4347 14.4863 38.6675 14.4453 38.9022 14.4437C39.3832 14.4437 39.6891 14.7073 39.6891 15.2133V15.9213C39.691 16.029 39.7488 16.0579 39.8276 16.0579ZM38.7695 16.081C38.8849 16.0813 38.9992 16.0581 39.1054 16.0127C39.2116 15.9674 39.3074 15.901 39.3871 15.8174V15.4865C39.2358 15.4547 39.0818 15.4373 38.9272 15.4345C38.6637 15.4345 38.3789 15.5134 38.3789 15.777C38.3789 15.9867 38.5713 16.081 38.7695 16.081Z" fill="white"/>
<path d="M40.2682 16.335C40.1939 16.3346 40.1203 16.3209 40.0508 16.2946V16.0464C40.0889 16.0611 40.1293 16.0689 40.1701 16.0695C40.4914 16.0695 40.5953 15.4596 40.6299 14.488H41.9594V16.2965H41.6573V14.7669H40.9243C40.8704 15.6924 40.7434 16.335 40.2682 16.335Z" fill="white"/>
<path d="M43.3639 14.4437C43.5509 14.4464 43.7329 14.5042 43.8871 14.6101C44.0413 14.7159 44.1608 14.8649 44.2305 15.0385C44.3003 15.212 44.3171 15.4023 44.279 15.5854C44.2409 15.7685 44.1495 15.9362 44.0164 16.0675C43.8832 16.1988 43.7142 16.2878 43.5306 16.3234C43.3469 16.3589 43.1569 16.3393 42.9844 16.2672C42.8119 16.195 42.6645 16.0734 42.5609 15.9178C42.4572 15.7621 42.4019 15.5792 42.4019 15.3922C42.3981 15.2655 42.4204 15.1393 42.4676 15.0216C42.5148 14.9039 42.5857 14.7972 42.676 14.7081C42.7663 14.6191 42.874 14.5497 42.9924 14.5042C43.1107 14.4587 43.2372 14.4381 43.3639 14.4437ZM43.3639 14.7304C43.233 14.7304 43.105 14.7692 42.9962 14.8419C42.8873 14.9146 42.8025 15.018 42.7524 15.1389C42.7023 15.2599 42.6892 15.393 42.7148 15.5213C42.7403 15.6497 42.8033 15.7677 42.8959 15.8602C42.9884 15.9528 43.1064 16.0158 43.2348 16.0413C43.3631 16.0669 43.4962 16.0538 43.6172 16.0037C43.7381 15.9536 43.8415 15.8688 43.9142 15.7599C43.9869 15.6511 44.0257 15.5231 44.0257 15.3922C44.0304 15.3041 44.0165 15.2159 43.985 15.1335C43.9534 15.051 43.9048 14.9762 43.8423 14.9137C43.7799 14.8513 43.7051 14.8027 43.6226 14.7711C43.5402 14.7396 43.452 14.7257 43.3639 14.7304Z" fill="white"/>
<path d="M44.7607 16.2965V14.488H45.0627V15.2575H46.1094V14.488H46.4095V16.2965H46.1094V15.5269H45.0627V16.2965H44.7607Z" fill="white"/>
<path d="M48.7452 14.4437C48.9322 14.4464 49.1142 14.5042 49.2684 14.6101C49.4226 14.7159 49.5421 14.8649 49.6118 15.0385C49.6816 15.212 49.6984 15.4023 49.6603 15.5854C49.6222 15.7685 49.5308 15.9362 49.3977 16.0675C49.2645 16.1988 49.0955 16.2878 48.9119 16.3234C48.7282 16.3589 48.5382 16.3393 48.3657 16.2672C48.1932 16.195 48.0458 16.0734 47.9422 15.9178C47.8385 15.7621 47.7832 15.5792 47.7832 15.3922C47.7794 15.2655 47.8017 15.1393 47.8489 15.0216C47.8961 14.9039 47.967 14.7972 48.0573 14.7081C48.1476 14.6191 48.2553 14.5497 48.3737 14.5042C48.492 14.4587 48.6185 14.4381 48.7452 14.4437ZM48.7452 14.7304C48.6143 14.7304 48.4863 14.7692 48.3775 14.8419C48.2686 14.9146 48.1838 15.018 48.1337 15.1389C48.0836 15.2599 48.0705 15.393 48.0961 15.5213C48.1216 15.6497 48.1846 15.7677 48.2772 15.8602C48.3697 15.9528 48.4877 16.0158 48.6161 16.0413C48.7444 16.0669 48.8775 16.0538 48.9985 16.0037C49.1194 15.9536 49.2228 15.8688 49.2955 15.7599C49.3682 15.6511 49.407 15.5231 49.407 15.3922C49.4114 15.3041 49.3973 15.2161 49.3656 15.1338C49.3339 15.0515 49.2853 14.9768 49.223 14.9144C49.1606 14.8521 49.0859 14.8035 49.0036 14.7718C48.9213 14.7401 48.8333 14.726 48.7452 14.7304Z" fill="white"/>
<path d="M50.9847 16.335C50.4402 16.335 50.0477 15.9617 50.0477 15.2768C50.0477 14.6707 50.2805 14.2532 50.6056 14.0493C51.1251 13.7299 51.483 13.8665 51.7465 13.6087V13.9262C51.4868 14.1186 51.1963 14.032 50.7846 14.2725C50.5676 14.4191 50.4143 14.6426 50.3555 14.8978C50.4301 14.791 50.5299 14.7042 50.646 14.6451C50.7621 14.5861 50.891 14.5565 51.0212 14.5591C51.138 14.556 51.2542 14.5765 51.3628 14.6195C51.4714 14.6625 51.5702 14.7269 51.6533 14.8091C51.7363 14.8912 51.8019 14.9893 51.846 15.0975C51.8902 15.2056 51.9119 15.3216 51.9101 15.4384C51.9082 16.0098 51.5311 16.335 50.9847 16.335ZM50.9847 16.0483C51.1444 16.0483 51.2975 15.9848 51.4105 15.8719C51.5234 15.759 51.5869 15.6058 51.5869 15.4461C51.5869 15.2864 51.5234 15.1332 51.4105 15.0203C51.2975 14.9073 51.1444 14.8439 50.9847 14.8439C50.8217 14.8408 50.6642 14.9025 50.5466 15.0153C50.429 15.1282 50.361 15.2831 50.3575 15.4461C50.355 15.5276 50.3694 15.6087 50.3998 15.6844C50.4302 15.76 50.4759 15.8286 50.5341 15.8857C50.5923 15.9428 50.6617 15.9872 50.7379 16.0162C50.8141 16.0452 50.8955 16.0581 50.977 16.0541L50.9847 16.0483Z" fill="white"/>
<path d="M53.3511 14.4437C53.5855 14.4674 53.8027 14.5772 53.9606 14.7519C54.1186 14.9266 54.2061 15.1538 54.2061 15.3893C54.2061 15.6249 54.1186 15.852 53.9606 16.0267C53.8027 16.2015 53.5855 16.3113 53.3511 16.335C53.2185 16.3381 53.0869 16.3113 52.966 16.2567C52.8451 16.2021 52.7381 16.121 52.6527 16.0194V17.1238H52.3507V14.488H52.6219V14.7958C52.7088 14.6856 52.8195 14.5966 52.9459 14.5356C53.0722 14.4746 53.2108 14.4431 53.3511 14.4437ZM53.3184 14.7227C53.1761 14.7235 53.0373 14.7661 52.9189 14.8451C52.8006 14.9241 52.7081 15.036 52.6527 15.1671V15.6173C52.7081 15.7484 52.8006 15.8604 52.9189 15.9394C53.0373 16.0184 53.1761 16.0609 53.3184 16.0618C53.497 16.0618 53.6683 15.9908 53.7946 15.8645C53.9209 15.7382 53.9918 15.567 53.9918 15.3884C53.9918 15.2098 53.9209 15.0385 53.7946 14.9122C53.6683 14.7859 53.497 14.715 53.3184 14.715V14.7227Z" fill="white"/>
<path d="M56.2909 16.0579C56.3381 16.0561 56.3847 16.0477 56.4295 16.0329V16.2772C56.3574 16.304 56.2812 16.3177 56.2043 16.3176C56.1328 16.3239 56.0612 16.3059 56.0011 16.2664C55.9411 16.227 55.8961 16.1684 55.8734 16.1002C55.6744 16.2603 55.4245 16.3436 55.1693 16.335C54.8499 16.335 54.5324 16.1656 54.5324 15.7847C54.5324 15.3191 54.9615 15.1748 55.3501 15.1748C55.5184 15.1765 55.6861 15.1958 55.8503 15.2325V15.1806C55.8503 14.9093 55.6579 14.7285 55.3347 14.7285C55.1085 14.7281 54.8846 14.7739 54.6767 14.8631V14.5649C54.8979 14.4863 55.1308 14.4453 55.3655 14.4437C55.8465 14.4437 56.1505 14.7073 56.1505 15.2133V15.9213C56.1505 16.029 56.212 16.0579 56.2909 16.0579ZM55.2328 16.081C55.3485 16.0814 55.4631 16.0583 55.5696 16.013C55.6762 15.9677 55.7723 15.9011 55.8523 15.8174V15.4865C55.701 15.4548 55.547 15.4374 55.3924 15.4345C55.1289 15.4345 54.8441 15.5134 54.8441 15.777C54.8422 15.9867 55.0327 16.081 55.2328 16.081Z" fill="white"/>
<path d="M57.2933 16.335C57.0633 16.3379 56.8355 16.2906 56.6257 16.1964V15.9155C56.8221 16.0098 57.0369 16.0598 57.2548 16.0618C57.5415 16.0618 57.8051 16.0098 57.8051 15.777C57.8051 15.5442 57.5858 15.5173 57.4049 15.5173H57.0066V15.2383H57.401C57.605 15.2383 57.7628 15.1787 57.7628 15.0036C57.7628 14.8285 57.5492 14.7188 57.2664 14.7188C57.0539 14.7209 56.8444 14.7695 56.6526 14.8612V14.5784C56.8559 14.487 57.0762 14.4397 57.2991 14.4399C57.8051 14.4399 58.0687 14.6476 58.0687 14.9632C58.0731 15.0607 58.0415 15.1565 57.9797 15.2321C57.9179 15.3078 57.8304 15.3579 57.7339 15.373C57.8367 15.3931 57.9296 15.4478 57.9971 15.5279C58.0647 15.608 58.1028 15.7088 58.1052 15.8136C58.1052 16.1522 57.7935 16.335 57.2933 16.335Z" fill="white"/>
<path d="M59.3904 14.4437C59.5774 14.4464 59.7595 14.5042 59.9137 14.6101C60.0679 14.7159 60.1873 14.8649 60.2571 15.0385C60.3268 15.212 60.3437 15.4023 60.3056 15.5854C60.2675 15.7685 60.1761 15.9362 60.0429 16.0675C59.9097 16.1988 59.7407 16.2878 59.5571 16.3234C59.3735 16.3589 59.1835 16.3393 59.0109 16.2672C58.8384 16.195 58.691 16.0734 58.5874 15.9178C58.4838 15.7621 58.4285 15.5792 58.4284 15.3922C58.4246 15.2655 58.447 15.1393 58.4941 15.0216C58.5413 14.9039 58.6123 14.7972 58.7026 14.7081C58.7928 14.6191 58.9005 14.5497 59.0189 14.5042C59.1373 14.4587 59.2637 14.4381 59.3904 14.4437ZM59.3904 14.7304C59.2595 14.7304 59.1316 14.7692 59.0227 14.8419C58.9139 14.9146 58.8291 15.018 58.779 15.1389C58.7289 15.2599 58.7158 15.393 58.7413 15.5213C58.7668 15.6497 58.8299 15.7677 58.9224 15.8602C59.015 15.9528 59.1329 16.0158 59.2613 16.0413C59.3897 16.0669 59.5228 16.0538 59.6437 16.0037C59.7646 15.9536 59.868 15.8688 59.9407 15.7599C60.0134 15.6511 60.0523 15.5231 60.0523 15.3922C60.0567 15.3041 60.0426 15.2161 60.0109 15.1338C59.9792 15.0515 59.9306 14.9768 59.8682 14.9144C59.8059 14.8521 59.7311 14.8035 59.6488 14.7718C59.5665 14.7401 59.4785 14.726 59.3904 14.7304Z" fill="white"/>
<path d="M60.7872 16.2965V14.488H61.778C62.0936 14.488 62.3341 14.6573 62.3341 14.9786C62.3358 15.0604 62.314 15.141 62.2714 15.2109C62.2288 15.2808 62.1671 15.337 62.0936 15.373C62.1821 15.4018 62.2591 15.4583 62.3131 15.5342C62.3672 15.61 62.3954 15.7012 62.3937 15.7943C62.3937 16.0925 62.2013 16.2965 61.8165 16.2965H60.7872ZM61.0893 15.2537H61.7473C61.905 15.2537 62.0301 15.1921 62.0301 15.0074C62.0312 14.9712 62.0245 14.9351 62.0103 14.9017C61.9961 14.8683 61.9748 14.8384 61.9479 14.814C61.921 14.7897 61.8891 14.7715 61.8545 14.7607C61.8198 14.7499 61.7832 14.7468 61.7473 14.7515H61.0893V15.2537ZM61.0893 16.0233H61.7665C61.9589 16.0233 62.0897 15.9656 62.0897 15.7674C62.0897 15.5692 61.9281 15.5038 61.778 15.5038H61.0893V16.0233Z" fill="white"/>
<path d="M64.4581 16.0579C64.5052 16.0561 64.5519 16.0477 64.5966 16.0329V16.2772C64.5246 16.304 64.4484 16.3177 64.3715 16.3176C64.3 16.3239 64.2284 16.3059 64.1683 16.2664C64.1083 16.227 64.0633 16.1684 64.0406 16.1002C63.8418 16.2606 63.5918 16.344 63.3365 16.335C63.0171 16.335 62.6996 16.1656 62.6996 15.7847C62.6996 15.3191 63.1287 15.1748 63.5173 15.1748C63.6856 15.1765 63.8533 15.1958 64.0175 15.2325V15.1806C64.0175 14.9093 63.8251 14.7285 63.5019 14.7285C63.2757 14.7281 63.0518 14.7739 62.8439 14.8631V14.5649C63.0651 14.4863 63.2979 14.4453 63.5327 14.4437C64.0137 14.4437 64.3196 14.7073 64.3196 15.2133V15.9213C64.3177 16.029 64.3792 16.0579 64.4581 16.0579ZM63.3999 16.081C63.5154 16.0813 63.6297 16.0581 63.7359 16.0127C63.842 15.9674 63.9379 15.901 64.0175 15.8174V15.4865C63.8662 15.4547 63.7123 15.4373 63.5577 15.4345C63.2941 15.4345 63.0094 15.5134 63.0094 15.777C63.0094 15.9867 63.1999 16.081 63.3999 16.081Z" fill="white"/>
<path d="M64.9218 16.2965V14.488H65.2239V15.2575H66.2686V14.488H66.5706V16.2965H66.2686V15.5269H65.2239V16.2965H64.9218Z" fill="white"/>
<path d="M67.1286 16.2965V14.488H67.4287V15.8097L68.5369 14.488H68.7928V16.2965H68.4907V14.9747L67.3845 16.2965H67.1286Z" fill="white"/>
<path d="M69.1776 16.2965L69.7047 15.6327C69.5803 15.6027 69.4698 15.5313 69.3911 15.4303C69.3125 15.3294 69.2705 15.2047 69.2719 15.0767C69.2719 14.7592 69.5085 14.488 69.9491 14.488H70.838V16.2965H70.532V15.6635H70.0241L69.5316 16.2965H69.1776ZM69.9702 15.3922H70.532V14.7592H69.9702C69.7182 14.7592 69.5681 14.8766 69.5681 15.0767C69.5681 15.2768 69.7182 15.3922 69.9702 15.3922Z" fill="white"/>
<path d="M38.6117 18.1646V20.7985H38.048V19.1766L37.3515 20.2329H37.0244L36.328 19.1728V20.7985H35.7643V18.1646H36.2876L37.1899 19.5345L38.0903 18.1646H38.6117Z" fill="white"/>
<path d="M39.9662 18.94C40.4933 18.94 40.9647 19.2632 40.9647 19.902C40.9647 20.5407 40.4933 20.8639 39.9662 20.8639C39.439 20.8639 38.9696 20.5407 38.9696 19.902C38.9696 19.2632 39.4429 18.94 39.9662 18.94ZM39.9662 19.4056C39.8682 19.401 39.7711 19.4258 39.6874 19.4769C39.6037 19.5281 39.5372 19.6031 39.4966 19.6923C39.4559 19.7816 39.443 19.881 39.4594 19.9777C39.4758 20.0744 39.5208 20.1639 39.5886 20.2348C39.6564 20.3057 39.7439 20.3546 39.8397 20.3753C39.9356 20.3959 40.0355 20.3874 40.1264 20.3507C40.2174 20.3141 40.2953 20.251 40.3501 20.1696C40.4048 20.0883 40.434 19.9923 40.4337 19.8943C40.4384 19.8311 40.4296 19.7676 40.408 19.708C40.3863 19.6484 40.3523 19.5941 40.3081 19.5486C40.2639 19.5032 40.2106 19.4676 40.1517 19.4443C40.0927 19.421 40.0295 19.4104 39.9662 19.4133V19.4056Z" fill="white"/>
<path d="M41.9786 18.94C42.21 18.9398 42.4383 18.9924 42.6462 19.0939V19.523C42.4564 19.403 42.2377 19.3365 42.0133 19.3306C41.8959 19.3306 41.7612 19.3652 41.7612 19.4729C41.7612 19.775 42.7809 19.6249 42.7809 20.2868C42.7809 20.712 42.3961 20.8428 41.9613 20.8428C41.7108 20.8496 41.4629 20.7913 41.2418 20.6735V20.2483C41.4498 20.3733 41.6878 20.4398 41.9305 20.4407C42.1229 20.4407 42.2461 20.406 42.2461 20.306C42.2461 20.0155 41.2264 20.1444 41.2264 19.496C41.2302 19.0785 41.5996 18.94 41.9786 18.94Z" fill="white"/>
<path d="M44.018 18.9361C44.2119 18.9338 44.4034 18.9787 44.576 19.067V19.5268C44.4305 19.438 44.2635 19.3908 44.0931 19.3902C43.8083 19.3902 43.5332 19.5306 43.5332 19.8943C43.5326 19.9648 43.5468 20.0347 43.575 20.0993C43.6032 20.164 43.6447 20.222 43.6968 20.2696C43.7489 20.3171 43.8104 20.3532 43.8773 20.3754C43.9443 20.3975 44.0152 20.4054 44.0854 20.3984C44.2632 20.4 44.4384 20.3549 44.5933 20.2675V20.7312C44.4008 20.8118 44.194 20.8523 43.9853 20.8505C43.4928 20.8505 42.9983 20.5657 42.9983 19.9212C42.9983 19.2209 43.5178 18.9361 44.018 18.9361Z" fill="white"/>
<path d="M45.8477 18.94C46.3729 18.94 46.8443 19.2632 46.8443 19.902C46.8443 20.5407 46.3729 20.8639 45.8477 20.8639C45.3225 20.8639 44.8492 20.5407 44.8492 19.902C44.8492 19.2632 45.3167 18.94 45.8477 18.94ZM45.8477 19.4133C45.7497 19.4083 45.6524 19.4328 45.5685 19.4837C45.4845 19.5345 45.4178 19.6094 45.3768 19.6986C45.3359 19.7878 45.3226 19.8872 45.3388 19.9841C45.3549 20.0809 45.3998 20.1706 45.4675 20.2417C45.5352 20.3127 45.6227 20.3619 45.7186 20.3827C45.8145 20.4035 45.9145 20.3951 46.0055 20.3585C46.0966 20.3219 46.1746 20.2589 46.2295 20.1775C46.2844 20.0961 46.3136 20.0001 46.3133 19.902C46.3191 19.8383 46.3113 19.7741 46.2902 19.7138C46.2692 19.6534 46.2355 19.5982 46.1914 19.5519C46.1473 19.5057 46.0939 19.4693 46.0346 19.4454C45.9753 19.4215 45.9116 19.4106 45.8477 19.4133Z" fill="white"/>
<path d="M49.9361 18.9919L49.3589 20.7985H48.8067L48.4489 19.6211L48.091 20.7985H47.535L46.9578 18.9919H47.5138L47.8409 20.229L48.2026 18.9919H48.699L49.0569 20.229L49.3878 18.9919H49.9361Z" fill="white"/>
<path d="M51.2194 18.6918C51.1614 18.6895 51.1054 18.6703 51.0582 18.6365C51.0111 18.6027 50.9749 18.5558 50.9542 18.5016C50.9335 18.4474 50.9291 18.3883 50.9417 18.3317C50.9542 18.275 50.9831 18.2233 51.0248 18.1829C51.0664 18.1426 51.1191 18.1153 51.1761 18.1046C51.2331 18.0938 51.292 18.1001 51.3455 18.1225C51.399 18.1449 51.4447 18.1826 51.477 18.2308C51.5093 18.279 51.5268 18.3356 51.5272 18.3936C51.5303 18.4344 51.5243 18.4753 51.5098 18.5135C51.4953 18.5518 51.4725 18.5863 51.4431 18.6148C51.4138 18.6432 51.3785 18.6649 51.3398 18.6782C51.3012 18.6915 51.26 18.6961 51.2194 18.6918ZM50.9596 20.8082V18.9919H51.483V20.7985L50.9596 20.8082Z" fill="white"/>
<path d="M52.999 18.94C53.0978 18.9334 53.1969 18.9481 53.2896 18.983C53.3822 19.018 53.4663 19.0724 53.5361 19.1426C53.6059 19.2128 53.6599 19.2972 53.6944 19.39C53.7289 19.4828 53.743 19.582 53.7359 19.6807V20.7985H53.2126V19.7481C53.2179 19.7006 53.2126 19.6526 53.1971 19.6074C53.1816 19.5623 53.1563 19.5211 53.123 19.4869C53.0897 19.4527 53.0492 19.4262 53.0045 19.4095C52.9598 19.3928 52.9119 19.3862 52.8644 19.3902C52.7835 19.3937 52.7046 19.4165 52.6344 19.4566C52.5641 19.4968 52.5044 19.5532 52.4603 19.6211V20.7985H51.9389V18.9919H52.3891V19.2209C52.4634 19.1316 52.5568 19.06 52.6623 19.0114C52.7678 18.9628 52.8829 18.9384 52.999 18.94Z" fill="white"/>
<path d="M54.7941 18.3416V18.9919H55.3713V19.4325H54.7941V20.1405C54.7941 20.3329 54.8884 20.4099 55.0827 20.4099C55.1946 20.4122 55.3059 20.392 55.4098 20.3503V20.7716C55.2539 20.8255 55.0899 20.8522 54.9249 20.8505C54.5748 20.8505 54.2746 20.6889 54.2746 20.2406V19.4325H53.9687V18.9919H54.2746V18.4648L54.7941 18.3416Z" fill="white"/>
<path d="M56.5391 18.94C57.2875 18.94 57.528 19.5306 57.4087 20.0636H56.137C56.1967 20.3272 56.4756 20.4368 56.7719 20.4368C56.9598 20.4393 57.146 20.4019 57.3183 20.3272V20.7389C57.1071 20.8189 56.8823 20.8568 56.6565 20.8505C56.0793 20.8505 55.6098 20.5234 55.6098 19.8885C55.6046 19.7642 55.6248 19.6401 55.6694 19.5239C55.714 19.4077 55.7819 19.3018 55.869 19.2129C55.9561 19.124 56.0605 19.054 56.1758 19.007C56.291 18.9601 56.4147 18.9372 56.5391 18.94ZM56.5584 19.3383C56.5049 19.3343 56.4512 19.3413 56.4005 19.3587C56.3498 19.3762 56.3032 19.4037 56.2634 19.4397C56.2237 19.4756 56.1916 19.5193 56.1692 19.568C56.1469 19.6167 56.1346 19.6695 56.1332 19.723H56.9374C56.9434 19.6716 56.9378 19.6194 56.921 19.5703C56.9041 19.5213 56.8765 19.4767 56.8401 19.4398C56.8038 19.4028 56.7596 19.3745 56.7108 19.357C56.662 19.3394 56.6099 19.333 56.5584 19.3383Z" fill="white"/>
<path d="M58.9614 18.9554V19.4633C58.8352 19.4327 58.7026 19.4426 58.5824 19.4917C58.4623 19.5407 58.3606 19.6264 58.2918 19.7365V20.7985H57.7762V18.9919H58.2399V19.2632C58.3201 19.1503 58.4299 19.0618 58.5572 19.0075C58.6845 18.9532 58.8244 18.9351 58.9614 18.9554Z" fill="white"/>
<path d="M60.3043 18.94C60.4036 18.9325 60.5033 18.9466 60.5966 18.9811C60.69 19.0157 60.7748 19.07 60.8453 19.1403C60.9157 19.2106 60.9702 19.2952 61.005 19.3885C61.0398 19.4818 61.0541 19.5814 61.0469 19.6807V20.7985H60.5236V19.7481C60.529 19.7004 60.5236 19.6522 60.508 19.6069C60.4924 19.5616 60.4669 19.5203 60.4334 19.4861C60.3999 19.4518 60.3592 19.4254 60.3142 19.4089C60.2693 19.3923 60.2212 19.3859 60.1735 19.3902C60.0929 19.3937 60.0143 19.4165 59.9443 19.4567C59.8743 19.4968 59.815 19.5532 59.7714 19.6211V20.7985H59.248V18.9919H59.7002V19.2209C59.774 19.1325 59.8665 19.0615 59.9709 19.013C60.0753 18.9644 60.1891 18.9395 60.3043 18.94Z" fill="white"/>
<path d="M63.2018 20.4522C63.2351 20.4525 63.2682 20.4473 63.2999 20.4368V20.7793C63.2067 20.8131 63.1085 20.8306 63.0094 20.8312C62.9308 20.838 62.8518 20.8227 62.7814 20.787C62.7111 20.7513 62.6521 20.6967 62.6111 20.6292C62.4269 20.7767 62.1968 20.855 61.9608 20.8505C61.6222 20.8505 61.3278 20.6581 61.3278 20.2983C61.3278 19.8385 61.7607 19.6961 62.1224 19.6961C62.2667 19.6971 62.4105 19.7132 62.5515 19.7442V19.6807C62.5515 19.4999 62.4072 19.3767 62.1263 19.3767C61.9061 19.3808 61.6888 19.4265 61.4856 19.5114V19.0593C61.7118 18.985 61.9479 18.9448 62.1859 18.94C62.7285 18.94 63.0748 19.1612 63.0748 19.7557V20.3329C63.0735 20.3496 63.0759 20.3664 63.0819 20.382C63.088 20.3976 63.0974 20.4116 63.1096 20.4231C63.1218 20.4345 63.1364 20.4431 63.1524 20.4481C63.1683 20.4532 63.1852 20.4546 63.2018 20.4522ZM61.855 20.2598C61.855 20.3964 61.9781 20.483 62.1378 20.483C62.2869 20.4861 62.4317 20.4333 62.5438 20.3349V20.0501C62.4424 20.0245 62.3385 20.0103 62.234 20.0078C62.0513 20.0078 61.8627 20.0713 61.8627 20.256L61.855 20.2598Z" fill="white"/>
<path d="M64.183 18.3416V18.9919H64.7602V19.4325H64.183V20.1405C64.183 20.3329 64.2773 20.4099 64.4735 20.4099C64.5854 20.412 64.6966 20.3918 64.8006 20.3503V20.7716C64.6447 20.8255 64.4807 20.8522 64.3157 20.8505C63.9656 20.8505 63.6654 20.6889 63.6654 20.2406V19.4325H63.3557V18.9919H63.6616V18.4648L64.183 18.3416Z" fill="white"/>
<path d="M65.3643 18.6918C65.3064 18.6892 65.2506 18.6696 65.2037 18.6356C65.1568 18.6016 65.121 18.5545 65.1005 18.5003C65.0801 18.4461 65.076 18.3871 65.0888 18.3306C65.1015 18.2741 65.1305 18.2226 65.1723 18.1824C65.214 18.1422 65.2666 18.1151 65.3236 18.1045C65.3805 18.0939 65.4393 18.1003 65.4927 18.1227C65.5461 18.1452 65.5918 18.1828 65.624 18.231C65.6562 18.2791 65.6736 18.3357 65.6741 18.3936C65.6772 18.4345 65.6712 18.4757 65.6565 18.5141C65.6419 18.5524 65.6189 18.5871 65.5894 18.6156C65.5598 18.6441 65.5243 18.6657 65.4854 18.6789C65.4464 18.692 65.4051 18.6965 65.3643 18.6918ZM65.1046 20.8082V18.9919H65.6279V20.7985L65.1046 20.8082Z" fill="white"/>
<path d="M66.9747 18.94C67.5018 18.94 67.9732 19.2632 67.9732 19.902C67.9732 20.5407 67.5018 20.8639 66.9747 20.8639C66.4475 20.8639 65.978 20.5407 65.978 19.902C65.978 19.2632 66.4533 18.94 66.9747 18.94ZM66.9747 19.4056C66.8767 19.401 66.7796 19.4258 66.6959 19.4769C66.6122 19.5281 66.5457 19.6031 66.5051 19.6923C66.4644 19.7816 66.4515 19.881 66.4679 19.9777C66.4843 20.0744 66.5293 20.1639 66.5971 20.2348C66.6649 20.3057 66.7523 20.3546 66.8482 20.3753C66.9441 20.3959 67.044 20.3874 67.1349 20.3507C67.2259 20.3141 67.3038 20.251 67.3586 20.1696C67.4133 20.0883 67.4424 19.9923 67.4422 19.8943C67.4469 19.8311 67.4381 19.7676 67.4164 19.708C67.3948 19.6484 67.3608 19.5941 67.3166 19.5486C67.2724 19.5032 67.2191 19.4676 67.1601 19.4443C67.1012 19.421 67.038 19.4104 66.9747 19.4133V19.4056Z" fill="white"/>
<path d="M69.3796 18.94C69.4781 18.934 69.5767 18.9491 69.6689 18.9843C69.7611 19.0195 69.8447 19.074 69.9141 19.1441C69.9835 19.2143 70.0371 19.2984 70.0713 19.391C70.1056 19.4835 70.1197 19.5823 70.1126 19.6807V20.7985H69.5893V19.7481C69.5946 19.7006 69.5893 19.6526 69.5738 19.6074C69.5583 19.5623 69.533 19.5211 69.4997 19.4869C69.4664 19.4527 69.426 19.4262 69.3812 19.4095C69.3365 19.3928 69.2886 19.3862 69.2411 19.3902C69.1602 19.3937 69.0813 19.4165 69.0111 19.4566C68.9408 19.4968 68.8811 19.5532 68.837 19.6211V20.7985H68.3137V18.9919H68.7774V19.2209C68.8509 19.1326 68.9429 19.0616 69.0471 19.013C69.1512 18.9645 69.2647 18.9395 69.3796 18.94Z" fill="white"/>
<path d="M72.2771 20.4522C72.3098 20.4525 72.3423 20.4473 72.3733 20.4368V20.7793C72.2808 20.8131 72.1831 20.8307 72.0847 20.8312C72.006 20.8383 71.927 20.8231 71.8566 20.7873C71.7862 20.7516 71.7272 20.6968 71.6864 20.6292C71.5014 20.7767 71.2707 20.8549 71.0342 20.8505C70.6956 20.8505 70.4031 20.6581 70.4031 20.2983C70.4031 19.8385 70.836 19.6961 71.1958 19.6961C71.3401 19.6969 71.484 19.713 71.6249 19.7442V19.6807C71.6249 19.4999 71.4825 19.3767 71.1997 19.3767C70.9801 19.3807 70.7634 19.4264 70.5609 19.5114V19.0593C70.7871 18.9848 71.0231 18.9446 71.2612 18.94C71.8019 18.94 72.1482 19.1612 72.1482 19.7557V20.3329C72.1482 20.4253 72.2059 20.4522 72.2771 20.4522ZM70.9303 20.2598C70.9303 20.3964 71.0554 20.483 71.2131 20.483C71.3623 20.4865 71.5072 20.4336 71.6191 20.3349V20.0501C71.5184 20.0245 71.4151 20.0103 71.3112 20.0078C71.1246 20.0078 70.9361 20.0713 70.9361 20.256L70.9303 20.2598Z" fill="white"/>
<path d="M73.1525 18.0511V20.7985H72.6292V18.0511H73.1525Z" fill="white"/>
<path d="M36.5319 23.4536C37.2803 23.4536 37.5208 24.0442 37.4015 24.5791H36.1298C36.1894 24.8427 36.4684 24.9524 36.7647 24.9524C36.9525 24.9538 37.1385 24.9165 37.3111 24.8427V25.2525C37.1 25.3332 36.8752 25.3717 36.6493 25.366C36.0721 25.366 35.6026 25.0389 35.6026 24.404C35.5971 24.2795 35.6171 24.1552 35.6616 24.0388C35.7061 23.9224 35.7739 23.8163 35.8611 23.7272C35.9482 23.6381 36.0527 23.5678 36.1681 23.5208C36.2835 23.4737 36.4073 23.4508 36.5319 23.4536ZM36.5512 23.8538C36.4977 23.8499 36.444 23.8568 36.3933 23.8742C36.3426 23.8917 36.296 23.9192 36.2562 23.9552C36.2165 23.9912 36.1844 24.0348 36.162 24.0835C36.1396 24.1322 36.1274 24.185 36.126 24.2386H36.9302C36.9362 24.1871 36.9306 24.1349 36.9138 24.0859C36.8969 24.0368 36.8693 23.9922 36.8329 23.9553C36.7966 23.9184 36.7524 23.8901 36.7036 23.8725C36.6548 23.8549 36.6027 23.8485 36.5512 23.8538Z" fill="white"/>
<path d="M39.6583 22.684V25.3179H39.1985V25.0543C39.1241 25.1571 39.0254 25.2398 38.9113 25.2952C38.7972 25.3506 38.6711 25.3769 38.5444 25.3718C37.9672 25.3718 37.6613 24.9081 37.6613 24.4098C37.6613 23.9115 37.9691 23.4478 38.5444 23.4478C38.6551 23.444 38.7654 23.4639 38.8679 23.506C38.9704 23.5481 39.0628 23.6116 39.1389 23.6922V22.684H39.6583ZM38.6694 23.8999C38.5404 23.9111 38.4202 23.9703 38.3326 24.0657C38.245 24.1612 38.1965 24.286 38.1965 24.4156C38.1965 24.5451 38.245 24.6699 38.3326 24.7654C38.4202 24.8609 38.5404 24.92 38.6694 24.9312C38.7685 24.9317 38.8656 24.9034 38.949 24.8498C39.0323 24.7962 39.0983 24.7195 39.1389 24.6291V24.202C39.0991 24.1105 39.0335 24.0327 38.9501 23.978C38.8667 23.9233 38.7692 23.8942 38.6694 23.8942V23.8999Z" fill="white"/>
<path d="M41.8786 23.5075V25.3121H41.4226V25.0832C41.349 25.1714 41.2569 25.2425 41.1529 25.2914C41.0488 25.3402 40.9353 25.3657 40.8204 25.366C40.7214 25.3733 40.622 25.3591 40.5291 25.3242C40.4362 25.2894 40.352 25.2347 40.2822 25.1641C40.2125 25.0935 40.159 25.0085 40.1253 24.9152C40.0917 24.8218 40.0787 24.7222 40.0874 24.6234V23.5075H40.6107V24.556C40.6044 24.6035 40.6089 24.6518 40.6238 24.6973C40.6388 24.7428 40.6639 24.7843 40.6972 24.8188C40.7306 24.8532 40.7712 24.8796 40.8162 24.8961C40.8612 24.9126 40.9093 24.9186 40.957 24.9139C41.0378 24.91 41.1166 24.8872 41.1871 24.8475C41.2576 24.8077 41.3178 24.7521 41.363 24.6849V23.5075H41.8786Z" fill="white"/>
<path d="M43.2407 23.4536C43.4341 23.4521 43.6249 23.4977 43.7968 23.5863V24.0442C43.6519 23.956 43.4854 23.9094 43.3158 23.9096C43.0291 23.9096 42.754 24.0481 42.754 24.4136C42.7533 24.4844 42.7676 24.5544 42.7959 24.6192C42.8242 24.684 42.8659 24.7421 42.9182 24.7897C42.9705 24.8373 43.0323 24.8733 43.0995 24.8954C43.1667 24.9174 43.2377 24.925 43.3081 24.9177C43.4859 24.919 43.6609 24.8739 43.816 24.7869V25.2486C43.623 25.3298 43.4155 25.371 43.2061 25.3699C42.7136 25.3699 42.221 25.0832 42.221 24.4406C42.221 23.7441 42.7386 23.4536 43.2407 23.4536Z" fill="white"/>
<path d="M45.9073 24.9658C45.9405 24.9658 45.9735 24.9613 46.0055 24.9524V25.2948C45.9121 25.3277 45.814 25.3452 45.7149 25.3468C45.6361 25.3538 45.5568 25.3384 45.4864 25.3023C45.4159 25.2662 45.3571 25.2109 45.3167 25.1428C45.1329 25.2914 44.9027 25.3704 44.6664 25.366C44.3278 25.366 44.0334 25.1736 44.0334 24.8119C44.0334 24.354 44.4663 24.2097 44.828 24.2097C44.9724 24.2104 45.1163 24.2271 45.257 24.2597V24.1962C45.257 24.0154 45.1128 23.8903 44.8319 23.8903C44.6115 23.8941 44.3939 23.9405 44.1912 24.0269V23.5748C44.4151 23.4991 44.6494 23.4582 44.8857 23.4536C45.4283 23.4536 45.7727 23.6768 45.7727 24.2713V24.8485C45.7784 24.9408 45.8477 24.9658 45.9073 24.9658ZM44.5606 24.7734C44.5606 24.9081 44.6837 24.9947 44.8415 24.9947C44.991 24.9988 45.1365 24.9466 45.2494 24.8485V24.5656C45.1479 24.5407 45.044 24.5272 44.9396 24.5252C44.7568 24.5233 44.5683 24.5868 44.5683 24.7715L44.5606 24.7734Z" fill="white"/>
<path d="M46.8886 22.8552V23.5075H47.4657V23.9461H46.8886V24.6541C46.8886 24.8465 46.9828 24.9254 47.1791 24.9254C47.2909 24.9265 47.4019 24.9062 47.5062 24.8658V25.2871C47.35 25.3401 47.1862 25.3667 47.0213 25.366C46.6712 25.366 46.3691 25.2044 46.3691 24.7561V23.9461H46.0651V23.5075H46.3691V22.9803L46.8886 22.8552Z" fill="white"/>
<path d="M48.0699 23.2054C48.0119 23.2028 47.956 23.1832 47.9091 23.1491C47.8622 23.1149 47.8263 23.0678 47.8059 23.0135C47.7855 22.9592 47.7816 22.9001 47.7945 22.8435C47.8074 22.7869 47.8366 22.7354 47.8785 22.6953C47.9205 22.6552 47.9732 22.6283 48.0303 22.6179C48.0874 22.6075 48.1463 22.6141 48.1996 22.6369C48.253 22.6597 48.2985 22.6976 48.3305 22.746C48.3625 22.7944 48.3796 22.8511 48.3796 22.9091C48.3824 22.9499 48.3762 22.9908 48.3614 23.029C48.3467 23.0671 48.3237 23.1015 48.2941 23.1298C48.2646 23.1581 48.2292 23.1795 48.1904 23.1926C48.1517 23.2056 48.1105 23.21 48.0699 23.2054ZM47.8101 25.3218V23.5075H48.3335V25.3121L47.8101 25.3218Z" fill="white"/>
<path d="M49.6802 23.4536C50.2074 23.4536 50.6768 23.7768 50.6768 24.4156C50.6768 25.0543 50.2074 25.3775 49.6802 25.3775C49.1531 25.3775 48.6836 25.0543 48.6836 24.4156C48.6836 23.7768 49.1569 23.4536 49.6802 23.4536ZM49.6802 23.9211C49.5828 23.9169 49.4863 23.9419 49.4032 23.993C49.3201 24.0441 49.2542 24.1188 49.2139 24.2077C49.1737 24.2965 49.1609 24.3953 49.1773 24.4915C49.1937 24.5876 49.2385 24.6767 49.3059 24.7472C49.3734 24.8176 49.4603 24.8663 49.5557 24.887C49.651 24.9076 49.7503 24.8992 49.8408 24.863C49.9314 24.8267 50.009 24.7641 50.0637 24.6834C50.1184 24.6026 50.1477 24.5073 50.1477 24.4098C50.1539 24.3459 50.1462 24.2814 50.1252 24.2208C50.1042 24.1601 50.0704 24.1047 50.026 24.0583C49.9816 24.0119 49.9277 23.9756 49.8681 23.952C49.8084 23.9283 49.7443 23.9178 49.6802 23.9211Z" fill="white"/>
<path d="M52.0852 23.4536C52.1838 23.4476 52.2826 23.4627 52.375 23.498C52.4673 23.5333 52.551 23.588 52.6204 23.6584C52.6899 23.7287 52.7434 23.8131 52.7775 23.9059C52.8117 23.9987 52.8255 24.0977 52.8182 24.1962V25.3121H52.2949V24.2636C52.3002 24.216 52.2949 24.1677 52.2793 24.1224C52.2637 24.0771 52.2382 24.0358 52.2047 24.0016C52.1712 23.9673 52.1305 23.941 52.0855 23.9244C52.0405 23.9078 51.9924 23.9014 51.9447 23.9057C51.8644 23.9096 51.7862 23.9324 51.7163 23.9722C51.6465 24.0119 51.5869 24.0676 51.5426 24.1347V25.3121H51.0193V23.5075H51.483V23.7364C51.5563 23.6478 51.6484 23.5766 51.7524 23.5277C51.8565 23.4788 51.9702 23.4535 52.0852 23.4536Z" fill="white"/>
<path d="M54.2515 25.3121V23.9461H53.9399V23.5075H54.2515V23.3305C54.2515 22.7841 54.6209 22.6263 54.9634 22.6263C55.1141 22.6254 55.2639 22.6507 55.4059 22.7013V23.1419C55.3097 23.0919 55.2027 23.0661 55.0942 23.0669C54.9249 23.0669 54.771 23.1265 54.771 23.3535V23.5075H55.3232V23.9461H54.771V25.3121H54.2515Z" fill="white"/>
<path d="M57.3145 24.9658C57.3476 24.9656 57.3806 24.9611 57.4126 24.9524V25.2948C57.3192 25.3277 57.2211 25.3452 57.1221 25.3468C57.0432 25.3538 56.964 25.3384 56.8935 25.3023C56.823 25.2662 56.7642 25.2109 56.7238 25.1428C56.5395 25.2917 56.3085 25.3707 56.0716 25.366C55.733 25.366 55.4405 25.1736 55.4405 24.8119C55.4405 24.354 55.8734 24.2097 56.2351 24.2097C56.3789 24.2103 56.5222 24.227 56.6623 24.2597V24.1962C56.6623 24.0154 56.5199 23.8903 56.239 23.8903C56.0186 23.8938 55.801 23.9402 55.5983 24.0269V23.5748C55.8241 23.4985 56.0603 23.4576 56.2986 23.4536C56.8393 23.4536 57.1856 23.6768 57.1856 24.2713V24.8485C57.1856 24.9408 57.2471 24.9658 57.3145 24.9658ZM55.9677 24.7734C55.9677 24.9081 56.0908 24.9947 56.2486 24.9947C56.3975 24.9991 56.5426 24.9468 56.6546 24.8485V24.5656C56.5538 24.5407 56.4505 24.5272 56.3467 24.5252C56.162 24.5233 55.9754 24.5868 55.9754 24.7715L55.9677 24.7734Z" fill="white"/>
<path d="M57.9244 23.2054C57.8663 23.2031 57.8102 23.1839 57.763 23.15C57.7158 23.1161 57.6797 23.069 57.659 23.0147C57.6383 22.9604 57.6341 22.9013 57.6468 22.8446C57.6595 22.7879 57.6886 22.7362 57.7304 22.6959C57.7723 22.6556 57.8251 22.6285 57.8822 22.618C57.9394 22.6074 57.9983 22.6139 58.0518 22.6367C58.1053 22.6594 58.1509 22.6973 58.183 22.7458C58.215 22.7942 58.2322 22.851 58.2322 22.9091C58.235 22.9497 58.2288 22.9905 58.2141 23.0285C58.1995 23.0664 58.1767 23.1008 58.1473 23.129C58.118 23.1572 58.0828 23.1787 58.0443 23.1919C58.0058 23.2051 57.9649 23.2097 57.9244 23.2054ZM57.6646 25.3218V23.5075H58.186V25.3121L57.6646 25.3218Z" fill="white"/>
<path d="M59.831 23.469V23.9769C59.7047 23.9465 59.5719 23.9567 59.4517 24.0061C59.3315 24.0555 59.2299 24.1416 59.1615 24.252V25.3121H58.6382V23.5075H59.1018V23.7768C59.1832 23.6633 59.2944 23.5745 59.4231 23.5202C59.5517 23.4659 59.6929 23.4481 59.831 23.469Z" fill="white"/>
<path d="M93.2609 11.6118H92.552V13.543H93.2609V11.6118Z" fill="white"/>
<path d="M94.4832 11.6118H93.7742V13.543H94.4832V11.6118Z" fill="white"/>
<path d="M95.7055 11.6118H94.9965V13.543H95.7055V11.6118Z" fill="white"/>
<path d="M96.9522 11.6118H96.2433V13.543H96.9522V11.6118Z" fill="white"/>
<path d="M98.1745 11.6118H97.4167V13.543H98.1745V11.6118Z" fill="white"/>
<path d="M99.3968 11.6118H98.639V13.543H99.3968V11.6118Z" fill="white"/>
<path d="M100.595 11.6118H99.8857V13.543H100.595V11.6118Z" fill="white"/>
<path d="M101.817 11.6118H101.108V13.543H101.817V11.6118Z" fill="white"/>
<path d="M103.039 11.6118H102.33V13.543H103.039V11.6118Z" fill="white"/>
<path d="M104.286 11.6118H103.577V13.543H104.286V11.6118Z" fill="white"/>
<path d="M105.508 11.6118H104.75V13.543H105.508V11.6118Z" fill="white"/>
<path d="M106.731 11.6118H105.973V13.543H106.731V11.6118Z" fill="white"/>
<path d="M107.928 11.6118H107.219V13.543H107.928V11.6118Z" fill="white"/>
<path d="M109.151 11.6118H108.442V13.543H109.151V11.6118Z" fill="white"/>
<path d="M110.373 11.6118H109.664V13.543H110.373V11.6118Z" fill="white"/>
<path d="M111.62 11.6118H110.911V13.543H111.62V11.6118Z" fill="white"/>
<path d="M93.2609 13.763H92.552V14.5208H93.2609V13.763Z" fill="white"/>
<path d="M94.4832 13.763H93.7742V14.5208H94.4832V13.763Z" fill="white"/>
<path d="M95.7055 13.763H94.9965V14.5208H95.7055V13.763Z" fill="white"/>
<path d="M96.9522 13.763H96.2433V14.5208H96.9522V13.763Z" fill="white"/>
<path d="M97.4167 13.763H98.1745V14.5453H97.4167V13.763Z" fill="white"/>
<path d="M98.639 13.7874L99.3968 13.763V14.5453H98.639V13.7874Z" fill="white"/>
<path d="M100.595 13.763H99.8857V14.5208H100.595V13.763Z" fill="white"/>
<path d="M101.817 13.763H101.108V14.5208H101.817V13.763Z" fill="white"/>
<path d="M103.039 13.763H102.33V14.5208H103.039V13.763Z" fill="white"/>
<path d="M104.286 13.763H103.577V14.5208H104.286V13.763Z" fill="white"/>
<path d="M104.75 13.763L105.508 13.7874V14.5453H104.75V13.763Z" fill="white"/>
<path d="M105.973 13.7874L106.731 13.763V14.5453H105.973V13.7874Z" fill="white"/>
<path d="M107.928 13.763H107.219V14.5208H107.928V13.763Z" fill="white"/>
<path d="M109.151 13.763H108.442V14.5208H109.151V13.763Z" fill="white"/>
<path d="M110.373 13.763H109.664V14.5208H110.373V13.763Z" fill="white"/>
<path d="M111.62 13.763H110.911V14.5208H111.62V13.763Z" fill="white"/>
<path d="M94.9232 10.0961H94.2876V10.365H94.9232V10.0961Z" fill="white"/>
<path d="M95.9255 10.0961H95.2165V10.365H95.9255V10.0961Z" fill="white"/>
<path d="M96.9278 10.0961H96.2188V10.365H96.9278V10.0961Z" fill="white"/>
<path d="M97.8567 10.0961H97.2211V10.365H97.8567V10.0961Z" fill="white"/>
<path d="M102.795 10.0961H102.086V10.365H102.795V10.0961Z" fill="white"/>
<path d="M101.792 10.0961H101.084V10.365H101.792V10.0961Z" fill="white"/>
<path d="M100.79 10.0961H100.155V10.365H100.79V10.0961Z" fill="white"/>
<path d="M98.859 10.0961H98.15V10.365H98.859V10.0961Z" fill="white"/>
<path d="M99.8613 10.0961H99.1523V10.365H99.8613V10.0961Z" fill="white"/>
<path d="M108.662 10.0961H107.953V10.365H108.662V10.0961Z" fill="white"/>
<path d="M107.659 10.0961H106.951V10.365H107.659V10.0961Z" fill="white"/>
<path d="M106.657 10.0961H106.022V10.365H106.657V10.0961Z" fill="white"/>
<path d="M105.728 10.0961H105.019V10.365H105.728V10.0961Z" fill="white"/>
<path d="M104.726 10.0961H104.017V10.365H104.726V10.0961Z" fill="white"/>
<path d="M103.748 10.0961H103.088V10.365H103.748V10.0961Z" fill="white"/>
<path d="M94.9232 9.16718H94.2876V9.70499H94.9232V9.16718Z" fill="white"/>
<path d="M109.591 10.0961H108.955V10.365H109.591V10.0961Z" fill="white"/>
<path d="M95.9255 9.16718H95.2165V9.70499H95.9255V9.16718Z" fill="white"/>
<path d="M96.9278 9.16718H96.2188V9.70499H96.9278V9.16718Z" fill="white"/>
<path d="M97.8811 9.16718H97.2211V9.70499H97.8811V9.16718Z" fill="white"/>
<path d="M98.859 9.16718H98.15V9.70499H98.859V9.16718Z" fill="white"/>
<path d="M99.8613 9.16718H99.1523V9.70499H99.8613V9.16718Z" fill="white"/>
<path d="M100.79 9.16718H100.155V9.70499H100.79V9.16718Z" fill="white"/>
<path d="M101.792 9.16718H101.084V9.70499H101.792V9.16718Z" fill="white"/>
<path d="M106.657 9.16718H106.022V9.70499H106.657V9.16718Z" fill="white"/>
<path d="M105.728 9.16718H105.019V9.70499H105.728V9.16718Z" fill="white"/>
<path d="M104.726 9.16718H104.017V9.70499H104.726V9.16718Z" fill="white"/>
<path d="M103.748 9.16718H103.088V9.70499H103.748V9.16718Z" fill="white"/>
<path d="M102.795 9.16718H102.086V9.70499H102.795V9.16718Z" fill="white"/>
<path d="M109.591 9.16718H108.955V9.70499H109.591V9.16718Z" fill="white"/>
<path d="M108.662 9.16718H107.953V9.70499H108.662V9.16718Z" fill="white"/>
<path d="M107.659 9.16718H106.951V9.70499H107.659V9.16718Z" fill="white"/>
<path d="M94.9232 8.1649H94.2876V8.70271H94.9232V8.1649Z" fill="white"/>
<path d="M95.9255 8.1649H95.2165V8.70271H95.9255V8.1649Z" fill="white"/>
<path d="M96.9278 8.1649H96.2188V8.70271H96.9278V8.1649Z" fill="white"/>
<path d="M97.8811 8.1649H97.2211V8.70271H97.8811V8.1649Z" fill="white"/>
<path d="M98.859 8.1649H98.15V8.70271H98.859V8.1649Z" fill="white"/>
<path d="M99.8613 8.1649H99.1523V8.70271H99.8613V8.1649Z" fill="white"/>
<path d="M100.79 8.1649H100.155V8.70271H100.79V8.1649Z" fill="white"/>
<path d="M101.792 8.1649H101.084V8.70271H101.792V8.1649Z" fill="white"/>
<path d="M106.657 8.1649H106.022V8.70271H106.657V8.1649Z" fill="white"/>
<path d="M105.728 8.1649H105.019V8.70271H105.728V8.1649Z" fill="white"/>
<path d="M104.726 8.1649H104.017V8.70271H104.726V8.1649Z" fill="white"/>
<path d="M103.748 8.1649H103.088V8.70271H103.748V8.1649Z" fill="white"/>
<path d="M102.795 8.1649H102.086V8.70271H102.795V8.1649Z" fill="white"/>
<path d="M109.591 8.1649H108.955V8.70271H109.591V8.1649Z" fill="white"/>
<path d="M108.662 8.1649H107.953V8.70271H108.662V8.1649Z" fill="white"/>
<path d="M107.659 8.1649H106.951V8.70271H107.659V8.1649Z" fill="white"/>
<path d="M94.9232 7.21151H94.2876V7.74932H94.9232V7.21151Z" fill="white"/>
<path d="M95.9255 7.21151H95.2165V7.74932H95.9255V7.21151Z" fill="white"/>
<path d="M96.9278 7.21151H96.2188V7.74932H96.9278V7.21151Z" fill="white"/>
<path d="M97.8811 7.21151H97.2211V7.74932H97.8811V7.21151Z" fill="white"/>
<path d="M98.859 7.21151H98.15V7.74932H98.859V7.21151Z" fill="white"/>
<path d="M99.8613 7.21151H99.1523V7.74932H99.8613V7.21151Z" fill="white"/>
<path d="M100.79 7.21151H100.155V7.74932H100.79V7.21151Z" fill="white"/>
<path d="M101.792 7.21151H101.084V7.74932H101.792V7.21151Z" fill="white"/>
<path d="M106.657 7.21151H106.022V7.74932H106.657V7.21151Z" fill="white"/>
<path d="M105.728 7.21151H105.019V7.74932H105.728V7.21151Z" fill="white"/>
<path d="M104.726 7.21151H104.017V7.74932H104.726V7.21151Z" fill="white"/>
<path d="M103.748 7.21151H103.088V7.74932H103.748V7.21151Z" fill="white"/>
<path d="M102.795 7.21151H102.086V7.74932H102.795V7.21151Z" fill="white"/>
<path d="M109.591 7.21151H108.955V7.74932H109.591V7.21151Z" fill="white"/>
<path d="M108.662 7.21151H107.953V7.74932H108.662V7.21151Z" fill="white"/>
<path d="M107.659 7.21151H106.951V7.74932H107.659V7.21151Z" fill="white"/>
<path d="M94.9232 6.23368H94.2876V6.77149H94.9232V6.23368Z" fill="white"/>
<path d="M95.9255 6.23368H95.2165V6.77149H95.9255V6.23368Z" fill="white"/>
<path d="M96.9278 6.23368H96.2188V6.77149H96.9278V6.23368Z" fill="white"/>
<path d="M97.8811 6.23368H97.2211V6.77149H97.8811V6.23368Z" fill="white"/>
<path d="M98.859 6.23368H98.15V6.77149H98.859V6.23368Z" fill="white"/>
<path d="M99.8613 6.23368H99.1523V6.77149H99.8613V6.23368Z" fill="white"/>
<path d="M100.79 6.23368H100.155V6.77149H100.79V6.23368Z" fill="white"/>
<path d="M101.792 6.23368H101.084V6.77149H101.792V6.23368Z" fill="white"/>
<path d="M106.657 6.23368H106.022V6.77149H106.657V6.23368Z" fill="white"/>
<path d="M105.728 6.23368H105.019V6.77149H105.728V6.23368Z" fill="white"/>
<path d="M104.726 6.23368H104.017V6.77149H104.726V6.23368Z" fill="white"/>
<path d="M103.748 6.23368H103.088V6.77149H103.748V6.23368Z" fill="white"/>
<path d="M102.795 6.23368H102.086V6.77149H102.795V6.23368Z" fill="white"/>
<path d="M109.591 6.23368H108.955V6.77149H109.591V6.23368Z" fill="white"/>
<path d="M108.662 6.23368H107.953V6.77149H108.662V6.23368Z" fill="white"/>
<path d="M107.659 6.23368H106.951V6.77149H107.659V6.23368Z" fill="white"/>
<path d="M94.9232 5.2314H94.2876V5.76921H94.9232V5.2314Z" fill="white"/>
<path d="M95.9255 5.2314H95.2165V5.76921H95.9255V5.2314Z" fill="white"/>
<path d="M96.9278 5.2314H96.2188V5.76921H96.9278V5.2314Z" fill="white"/>
<path d="M97.8811 5.2314H97.2211V5.76921H97.8811V5.2314Z" fill="white"/>
<path d="M98.859 5.2314H98.15V5.76921H98.859V5.2314Z" fill="white"/>
<path d="M99.8613 5.2314H99.1523V5.76921H99.8613V5.2314Z" fill="white"/>
<path d="M100.79 5.2314H100.155V5.76921H100.79V5.2314Z" fill="white"/>
<path d="M101.792 5.2314H101.084V5.76921H101.792V5.2314Z" fill="white"/>
<path d="M106.657 5.2314H106.022V5.76921H106.657V5.2314Z" fill="white"/>
<path d="M105.728 5.2314H105.019V5.76921H105.728V5.2314Z" fill="white"/>
<path d="M104.726 5.2314H104.017V5.76921H104.726V5.2314Z" fill="white"/>
<path d="M103.748 5.2314H103.088V5.76921H103.748V5.2314Z" fill="white"/>
<path d="M102.795 5.2314H102.086V5.76921H102.795V5.2314Z" fill="white"/>
<path d="M109.591 5.2314H108.955V5.76921H109.591V5.2314Z" fill="white"/>
<path d="M108.662 5.2314H107.953V5.76921H108.662V5.2314Z" fill="white"/>
<path d="M107.659 5.2314H106.951V5.76921H107.659V5.2314Z" fill="white"/>
<path d="M116.753 14.7653V10.1206H116.46V10.3406H115.531V10.0961H114.064V10.3406H113.062V10.1206H112.842V10.585L112.084 11.0495H110.373V4.93805H110.617V3.47131H110.373V3.22685H107.195V2.98239H106.437V3.22685H102.33V1.7601H101.792V0.757818H103.015V0H101.548V1.80899H101.084V3.27574H96.9278V3.03128H96.1699V3.27574H93.5298L93.2853 3.5202V5.06028H93.5298V4.058H93.7498V4.81583H93.9943V4.058H94.2387V4.81583H94.5321V4.058H94.7032V4.81583H94.9965V4.058H95.1677V4.81583H95.461V4.058H95.7055V4.81583H95.9988V4.058H96.1699V4.81583H96.4633V4.058H96.6344V4.81583H96.9278V4.058H97.1722V4.81583H97.4656V4.058H97.6367V4.81583H97.93V4.058H98.1012V4.81583H98.3945V4.058H98.639V4.81583H98.9323V4.058H99.1034V4.81583H99.3968V4.058H99.5679V4.81583H99.8613V4.058H100.106V4.81583H100.399V4.058H100.57V4.81583H100.864V4.058H101.035V4.81583H101.328V4.058H101.572V4.81583H101.866V4.058H102.037V4.81583H102.33V4.058H102.501V4.81583H102.795V4.058H103.015V4.81583H103.308V4.058H103.479V4.81583H103.773V4.058H103.944V4.81583H104.237V4.058H104.482V4.81583H104.775V4.058H104.946V4.81583H105.239V4.058H105.435V4.81583H105.728V4.058H105.973V4.81583H106.266V4.058H106.437V4.81583H106.731V4.058H106.902V4.81583H107.195V4.058H107.415V4.81583H107.708V4.058H107.879V4.81583H108.148V4.058H108.344V4.81583H108.637V4.058H108.882V4.81583H109.175V4.058H109.346V4.81583H109.64V4.058H109.811V4.81583H110.104V4.058H110.349V4.98695H110.128V11.1473H109.591V10.6339H108.955V11.1473H108.662V10.6339H107.953V11.1473H107.659V10.6339H106.951V11.1473H106.657V10.6339H106.022V11.1473H105.728V10.6339H105.019V11.1473H104.726V10.6339H104.017V11.1473H103.724V10.6339H103.088V11.1473H102.795V10.6339H102.086V11.1473H101.792V10.6339H101.084V11.1473H100.79V10.6339H100.155V11.1473H99.8613V10.6339H99.1523V11.1473H98.859V10.6339H98.15V11.1473H97.8567V10.6339H97.2211V11.1473H96.9278V10.6339H96.2188V11.1473H95.9255V10.6339H95.2165V11.1473H94.9232V10.6339H94.2876V11.1473H93.7498V5.01139H93.5298L93.5053 11.1473H91.9897L91.2563 10.3895V10.145H91.0363V10.365H90.034V10.145H88.5673V10.3895H87.6383V10.1695H87.345V14.8142H85.6338V15.2786H117.902V14.8142L116.753 14.7653ZM93.9943 3.83799H93.7009V3.5202H93.9943V3.83799ZM94.5076 3.83799H94.2143V3.5202H94.5076V3.83799ZM94.9965 3.83799H94.7032V3.5202H94.9965V3.83799ZM95.461 3.83799H95.1677V3.5202H95.461V3.83799ZM95.9744 3.83799H95.681V3.5202H95.9744V3.83799ZM96.4633 3.83799H96.1699V3.5202H96.4633V3.83799ZM96.9278 3.83799H96.6344V3.5202H96.9278V3.83799ZM97.4411 3.83799H97.1478V3.5202H97.4411V3.83799ZM97.6367 3.83799V3.5202H97.93V3.83799H97.6367ZM98.3945 3.83799H98.1012V3.5202H98.3945V3.83799ZM98.9079 3.83799H98.6145V3.5202H98.9079V3.83799ZM99.1034 3.83799V3.5202H99.3968V3.83799H99.1034ZM99.5679 3.83799V3.5202H99.8613V3.83799H99.5679ZM100.375 3.83799H100.081V3.5202H100.375V3.83799ZM100.839 3.83799H100.546V3.5202H100.839V3.83799ZM101.328 3.83799H101.035V3.5202H101.328V3.83799ZM101.841 3.83799H101.548V3.5202H101.841V3.83799ZM101.328 3.05573V2.76237H102.037V3.05573H101.328ZM102.306 3.83799H102.012V3.5202H102.306V3.83799ZM102.501 3.83799V3.5202H102.795V3.83799H102.501ZM103.308 3.83799H103.015V3.5202H103.308V3.83799ZM103.773 3.83799H103.479V3.5202H103.773V3.83799ZM104.262 3.83799H103.968V3.5202H104.262V3.83799ZM104.775 3.83799H104.482V3.5202H104.775V3.83799ZM105.239 3.83799H104.946V3.5202H105.239V3.83799ZM105.728 3.83799H105.435V3.5202H105.728V3.83799ZM106.242 3.83799H105.948V3.5202H106.242V3.83799ZM106.706 3.83799H106.413V3.5202H106.706V3.83799ZM107.195 3.83799H106.902V3.5202H107.195V3.83799ZM107.708 3.83799H107.415V3.5202H107.708V3.83799ZM108.173 3.83799H107.879V3.5202H108.173V3.83799ZM108.662 3.83799H108.368V3.5202H108.662V3.83799ZM109.175 3.83799H108.882V3.5202H109.175V3.83799ZM109.64 3.83799H109.346V3.5202H109.64V3.83799ZM110.128 3.83799H109.835V3.5202H110.128V3.83799ZM90.5963 14.7653V11.3673H90.3518V14.7653H89.814V11.074H90.034V10.8539H88.5673V11.0984H88.8606V14.7897H88.3473V11.3917H88.1028V14.7897H87.6628V10.6339H91.0608V14.7897L90.5963 14.7653ZM112.06 14.7653H92.063V11.3673H112.06V14.7653ZM115.995 14.7653V11.3673H115.702V14.7653H115.238V11.074H115.531V10.8295H114.064V11.074H114.309V14.7653H113.844V11.3673H113.526V14.7653H113.062V10.6095H116.46V14.7653H115.995Z" fill="white"/>
<path d="M85.708 17.772H87.7859V20.3877H87.2725V18.2121H86.2458V20.3877H85.708V17.772Z" fill="white"/>
<path d="M88.3482 17.772H89.2038C89.5216 17.772 89.7416 17.7965 89.8393 17.8209C89.986 17.8698 90.1083 17.9432 90.206 18.0898C90.3038 18.2121 90.3527 18.3832 90.3527 18.6032C90.3527 18.7743 90.3283 18.8965 90.2549 19.0188C90.1816 19.141 90.1327 19.2143 90.0349 19.2877C89.9371 19.361 89.8638 19.3855 89.766 19.4099C89.6438 19.4344 89.4482 19.4588 89.2282 19.4588H88.886V20.4611H88.3482V17.772ZM88.8615 18.9699H89.1549C89.3749 18.9699 89.4971 18.9454 89.5705 18.921C89.6438 18.8965 89.6927 18.8477 89.7416 18.7988C89.7905 18.7499 89.7905 18.6765 89.7905 18.6032C89.7905 18.5054 89.766 18.4321 89.7171 18.3587C89.6682 18.2854 89.5949 18.261 89.4971 18.2365C89.4238 18.2365 89.3015 18.2121 89.106 18.2121H88.8615V18.9699Z" fill="white"/>
<path d="M92.8217 20.4122H92.2595L92.015 19.801H90.9639L90.7438 20.3877H90.1816L91.2083 17.772H91.7706L92.8217 20.4122ZM91.8684 19.361L91.5017 18.3832L91.135 19.361H91.8684Z" fill="white"/>
<path d="M94.1663 17.772C94.3618 17.772 94.5329 17.772 94.6307 17.7965C94.7285 17.8209 94.8263 17.8454 94.8996 17.8943C94.973 17.9432 95.0463 18.0165 95.0952 18.1143C95.1441 18.2121 95.1685 18.3098 95.1685 18.4321C95.1685 18.5543 95.1441 18.6765 95.0708 18.7743C94.9974 18.8721 94.9241 18.9454 94.8019 18.9943C94.973 19.0432 95.0952 19.1166 95.1685 19.2388C95.2419 19.361 95.2908 19.4832 95.2908 19.6299C95.2908 19.7521 95.2663 19.8744 95.2174 19.9722C95.1685 20.0944 95.0952 20.1677 94.9974 20.2411C94.8996 20.3144 94.7774 20.3388 94.6307 20.3633C94.5329 20.3633 94.3374 20.3877 93.9951 20.3877H93.0906V17.772H94.1663ZM93.6529 18.2121V18.8232H94.3863C94.4841 18.8232 94.5574 18.7743 94.6063 18.7254C94.6552 18.6765 94.6796 18.6032 94.6796 18.5299C94.6796 18.4565 94.6552 18.3832 94.6063 18.3343C94.5574 18.2854 94.4841 18.261 94.4107 18.2365H93.6529V18.2121ZM93.6529 19.2632V19.9722H94.1418C94.3374 19.9722 94.4596 19.9722 94.5085 19.9477C94.5818 19.9233 94.6552 19.8988 94.7041 19.8499C94.753 19.801 94.7774 19.7277 94.7774 19.6299C94.7774 19.5566 94.753 19.4832 94.7285 19.4344C94.7041 19.3855 94.6307 19.3366 94.5574 19.3121C94.4841 19.2877 94.3374 19.2632 94.0929 19.2632H93.6529Z" fill="white"/>
<path d="M95.7797 17.772H96.2686V19.5077L97.3442 17.772H97.882V20.3877H97.3931V18.6765L96.3419 20.3877H95.8041V17.772H95.7797Z" fill="white"/>
<path d="M98.9821 20.4122V18.2365H98.1998V17.7965H100.278V18.2365H99.4954V20.4122H98.9821Z" fill="white"/>
<path d="M100.644 20.4122V17.772H102.6V18.2121H101.182V18.7988H102.502V19.2388H101.182V19.9477H102.649V20.3877H100.644V20.4122Z" fill="white"/>
<path d="M103.26 17.772H105.094V20.3877H104.556V18.2121H103.773V19.3366C103.773 19.6544 103.773 19.8744 103.749 20.021C103.725 20.1433 103.676 20.2411 103.602 20.3144C103.529 20.3877 103.382 20.4122 103.211 20.4122C103.138 20.4122 103.04 20.4122 102.869 20.3877V19.9722H102.991C103.113 19.9722 103.187 19.9477 103.211 19.9233C103.236 19.8988 103.26 19.8255 103.26 19.7033V17.772Z" fill="white"/>
<path d="M106.194 17.772V18.8232H106.903C107.245 18.8232 107.489 18.8965 107.636 19.0677C107.783 19.2143 107.856 19.4099 107.856 19.6299C107.856 19.801 107.807 19.9722 107.709 20.0944C107.611 20.2166 107.514 20.3144 107.391 20.3388C107.269 20.3877 107.098 20.4122 106.878 20.4122H105.631V17.772H106.194ZM106.194 19.9722H106.707C106.878 19.9722 107 19.9722 107.049 19.9477C107.123 19.9233 107.171 19.8988 107.22 19.8255C107.269 19.7766 107.294 19.7033 107.294 19.6055C107.294 19.4832 107.245 19.3855 107.171 19.3366C107.074 19.2877 106.927 19.2632 106.731 19.2632H106.194V19.9722Z" fill="white"/>
<path d="M109.885 19.4344L110.398 19.6055C110.325 19.8988 110.178 20.0944 110.007 20.2411C109.812 20.3877 109.592 20.4611 109.298 20.4611C108.956 20.4611 108.663 20.3388 108.443 20.0944C108.223 19.8499 108.1 19.5321 108.1 19.1166C108.1 18.6765 108.223 18.3343 108.443 18.0898C108.663 17.8454 108.956 17.7231 109.323 17.7231C109.64 17.7231 109.909 17.8209 110.105 18.0165C110.227 18.1387 110.325 18.2854 110.374 18.5054L109.86 18.6276C109.836 18.481 109.763 18.3832 109.665 18.3098C109.567 18.2365 109.445 18.1876 109.298 18.1876C109.103 18.1876 108.956 18.2609 108.834 18.4076C108.712 18.5543 108.663 18.7743 108.663 19.0921C108.663 19.4343 108.712 19.6544 108.834 19.801C108.956 19.9477 109.103 20.021 109.298 20.021C109.445 20.021 109.567 19.9722 109.665 19.8988C109.763 19.7766 109.836 19.6299 109.885 19.4344Z" fill="white"/>
<path d="M111.352 20.4122V18.2365H110.569V17.7965H112.647V18.2365H111.865V20.4122H111.352Z" fill="white"/>
<path d="M114.041 17.772C114.236 17.772 114.407 17.772 114.505 17.7965C114.603 17.8209 114.701 17.8454 114.774 17.8943C114.847 17.9432 114.921 18.0165 114.97 18.1143C115.019 18.2121 115.043 18.3098 115.043 18.4321C115.043 18.5543 115.019 18.6765 114.945 18.7743C114.872 18.8721 114.799 18.9454 114.676 18.9943C114.847 19.0432 114.97 19.1166 115.043 19.2388C115.116 19.361 115.165 19.4832 115.165 19.6299C115.165 19.7521 115.141 19.8744 115.092 19.9722C115.043 20.0944 114.97 20.1677 114.872 20.2411C114.774 20.3144 114.652 20.3388 114.505 20.3633C114.407 20.3633 114.212 20.3877 113.87 20.3877H112.965V17.772H114.041ZM113.527 18.2121V18.8232H114.261C114.359 18.8232 114.432 18.7743 114.481 18.7254C114.53 18.6765 114.554 18.6032 114.554 18.5299C114.554 18.4565 114.53 18.3832 114.481 18.3343C114.432 18.2854 114.359 18.261 114.285 18.2365H113.527V18.2121ZM113.527 19.2632V19.9722H114.016C114.212 19.9722 114.334 19.9722 114.383 19.9477C114.456 19.9233 114.53 19.8988 114.579 19.8499C114.627 19.801 114.652 19.7277 114.652 19.6299C114.652 19.5566 114.627 19.4832 114.603 19.4344C114.579 19.3855 114.505 19.3366 114.432 19.3121C114.359 19.2877 114.212 19.2632 113.967 19.2632H113.527Z" fill="white"/>
<path d="M115.459 19.1166C115.459 18.8477 115.507 18.6276 115.581 18.4321C115.63 18.3098 115.727 18.1876 115.825 18.0654C115.923 17.9676 116.045 17.8698 116.167 17.8209C116.339 17.7476 116.51 17.7231 116.73 17.7231C117.121 17.7231 117.414 17.8454 117.659 18.0898C117.879 18.3343 118.001 18.6521 118.001 19.0921C118.001 19.5077 117.879 19.8499 117.659 20.0944C117.439 20.3388 117.121 20.4611 116.73 20.4611C116.339 20.4611 116.021 20.3388 115.801 20.0944C115.556 19.8499 115.459 19.5321 115.459 19.1166ZM115.996 19.0921C115.996 19.3855 116.07 19.6055 116.192 19.7766C116.339 19.9233 116.51 19.9966 116.705 19.9966C116.925 19.9966 117.096 19.9233 117.219 19.7766C117.365 19.6299 117.414 19.3855 117.414 19.0921C117.414 18.7988 117.341 18.5787 117.219 18.4076C117.096 18.2609 116.901 18.1876 116.705 18.1876C116.485 18.1876 116.314 18.2609 116.167 18.4076C116.07 18.5543 115.996 18.7988 115.996 19.0921Z" fill="white"/>
<path d="M88.7148 24.2013V21.5611H89.5705C89.8882 21.5611 90.1083 21.5856 90.206 21.61C90.3527 21.6589 90.4749 21.7323 90.5727 21.8789C90.6705 22.0012 90.7194 22.1723 90.7194 22.3923C90.7194 22.5634 90.695 22.6856 90.6216 22.8079C90.5483 22.9301 90.4994 23.0034 90.4016 23.0768C90.3038 23.1501 90.2305 23.1746 90.1327 23.199C90.0105 23.2235 89.8149 23.2479 89.5949 23.2479H89.2527V24.2013H88.7148ZM89.2527 22.759H89.546C89.766 22.759 89.8882 22.7345 89.9616 22.7101C90.0349 22.6856 90.0838 22.6368 90.1327 22.5879C90.1816 22.539 90.1816 22.4656 90.1816 22.3923C90.1816 22.2945 90.1571 22.2212 90.1083 22.1478C90.0594 22.0745 89.986 22.0501 89.8882 22.0256C89.8149 22.0256 89.6927 22.0012 89.4971 22.0012H89.2527V22.759Z" fill="white"/>
<path d="M91.0616 22.9057C91.0616 22.6368 91.1105 22.4167 91.1839 22.2212C91.2328 22.0989 91.3305 21.9767 91.4283 21.8545C91.5261 21.7567 91.6483 21.6589 91.7706 21.61C91.9417 21.5367 92.1128 21.5122 92.3328 21.5122C92.724 21.5122 93.0173 21.6345 93.2618 21.8789C93.4818 22.1234 93.604 22.4412 93.604 22.8812C93.604 23.2968 93.4818 23.639 93.2618 23.8835C93.0418 24.1279 92.724 24.2502 92.3328 24.2502C91.9417 24.2502 91.6239 24.1279 91.4039 23.8835C91.1839 23.639 91.0616 23.3212 91.0616 22.9057ZM91.5995 22.8812C91.5995 23.1746 91.6728 23.3946 91.795 23.5657C91.9417 23.7124 92.1128 23.7857 92.3084 23.7857C92.5284 23.7857 92.6995 23.7124 92.8217 23.5657C92.9684 23.419 93.0173 23.1746 93.0173 22.8812C93.0173 22.5879 92.944 22.3678 92.8217 22.1967C92.6995 22.0501 92.5039 21.9767 92.3084 21.9767C92.0884 21.9767 91.9173 22.0501 91.7706 22.1967C91.6728 22.3434 91.5995 22.5879 91.5995 22.8812Z" fill="white"/>
<path d="M95.7552 23.2235L96.2686 23.3946C96.1953 23.6879 96.0486 23.8835 95.8775 24.0302C95.6819 24.1768 95.4619 24.2502 95.1685 24.2502C94.8263 24.2502 94.533 24.1279 94.3129 23.8835C94.0929 23.639 93.9707 23.3212 93.9707 22.9057C93.9707 22.4656 94.0929 22.1234 94.3129 21.8789C94.533 21.6345 94.8263 21.5122 95.193 21.5122C95.5108 21.5122 95.7797 21.61 95.9753 21.8056C96.0975 21.9278 96.1953 22.0745 96.2442 22.2945L95.7308 22.4167C95.7063 22.2701 95.633 22.1723 95.5352 22.0989C95.4374 22.0256 95.3152 21.9767 95.1685 21.9767C94.973 21.9767 94.8263 22.0501 94.7041 22.1967C94.5818 22.3434 94.5329 22.5634 94.5329 22.8812C94.5329 23.2235 94.5818 23.4435 94.7041 23.5901C94.8263 23.7368 94.973 23.8102 95.1685 23.8102C95.3152 23.8102 95.4374 23.7613 95.5352 23.6879C95.633 23.5657 95.7063 23.419 95.7552 23.2235Z" fill="white"/>
<path d="M98.4443 23.2235L98.9576 23.3946C98.8843 23.6879 98.7376 23.8835 98.5665 24.0302C98.3709 24.1768 98.1509 24.2502 97.8576 24.2502C97.5153 24.2502 97.222 24.1279 97.002 23.8835C96.782 23.639 96.6597 23.3212 96.6597 22.9057C96.6597 22.4656 96.782 22.1234 97.002 21.8789C97.222 21.6345 97.5153 21.5122 97.882 21.5122C98.1998 21.5122 98.4687 21.61 98.6643 21.8056C98.7865 21.9278 98.8843 22.0745 98.9332 22.2945L98.4198 22.4167C98.3954 22.2701 98.3221 22.1723 98.2243 22.0989C98.1265 22.0256 98.0043 21.9767 97.8576 21.9767C97.662 21.9767 97.5153 22.0501 97.3931 22.1967C97.2709 22.3434 97.222 22.5634 97.222 22.8812C97.222 23.2235 97.2709 23.4435 97.3931 23.5901C97.5153 23.7368 97.662 23.8102 97.8576 23.8102C98.0043 23.8102 98.1265 23.7613 98.2243 23.6879C98.3465 23.5657 98.4198 23.419 98.4443 23.2235Z" fill="white"/>
<path d="M99.4954 21.5611H99.9844V23.2968L101.06 21.5611H101.598V24.2013H101.109V22.4901L100.058 24.2013H99.5199V21.5611H99.4954Z" fill="white"/>
<path d="M102.184 21.5611H102.673V23.2968L103.749 21.5611H104.287V24.2013H103.798V22.4901L102.747 24.2013H102.209V21.5611H102.184ZM103.529 20.9255H103.773C103.749 21.0967 103.7 21.2189 103.602 21.3167C103.505 21.4145 103.382 21.4634 103.211 21.4634C103.04 21.4634 102.918 21.4145 102.82 21.3167C102.722 21.2189 102.673 21.0967 102.649 20.9255H102.893C102.893 20.9989 102.942 21.0722 102.991 21.1211C103.04 21.17 103.113 21.1944 103.211 21.1944C103.309 21.1944 103.382 21.17 103.431 21.1211C103.505 21.0722 103.529 20.9989 103.529 20.9255Z" fill="white"/>
<path d="M106.536 23.2235L107.049 23.3946C106.976 23.6879 106.829 23.8835 106.658 24.0302C106.463 24.1768 106.242 24.2502 105.949 24.2502C105.607 24.2502 105.314 24.1279 105.094 23.8835C104.874 23.639 104.751 23.3212 104.751 22.9057C104.751 22.4656 104.874 22.1234 105.094 21.8789C105.314 21.6345 105.607 21.5122 105.974 21.5122C106.291 21.5122 106.56 21.61 106.756 21.8056C106.878 21.9278 106.976 22.0745 107.025 22.2945L106.511 22.4167C106.487 22.2701 106.414 22.1723 106.316 22.0989C106.218 22.0256 106.096 21.9767 105.949 21.9767C105.754 21.9767 105.607 22.0501 105.485 22.1967C105.362 22.3434 105.314 22.5634 105.314 22.8812C105.314 23.2235 105.362 23.4435 105.485 23.5901C105.607 23.7368 105.754 23.8102 105.949 23.8102C106.096 23.8102 106.218 23.7613 106.316 23.6879C106.414 23.5657 106.487 23.419 106.536 23.2235Z" fill="white"/>
<path d="M107.563 21.5611H108.1V22.6856C108.223 22.6856 108.296 22.6368 108.345 22.5879C108.394 22.539 108.443 22.3923 108.54 22.1723C108.638 21.8789 108.76 21.7078 108.883 21.6345C108.98 21.5611 109.176 21.5367 109.42 21.5367H109.494V21.9278H109.42C109.323 21.9278 109.225 21.9523 109.176 21.9767C109.127 22.0012 109.078 22.0501 109.054 22.0989C109.029 22.1478 108.98 22.2701 108.907 22.4412C108.883 22.539 108.834 22.6123 108.809 22.6612C108.76 22.7101 108.712 22.7834 108.614 22.8323C108.736 22.8568 108.834 22.9301 108.907 23.0279C108.98 23.1257 109.078 23.2723 109.152 23.4679L109.518 24.1768H108.883L108.565 23.4924C108.565 23.4924 108.54 23.4679 108.54 23.4435C108.54 23.4435 108.516 23.3946 108.467 23.3212C108.394 23.199 108.345 23.1012 108.296 23.0768C108.247 23.0523 108.174 23.0279 108.1 23.0279V24.2013H107.563V21.5611Z" fill="white"/>
<path d="M109.738 22.9057C109.738 22.6368 109.787 22.4167 109.86 22.2212C109.909 22.0989 110.007 21.9767 110.105 21.8545C110.203 21.7567 110.325 21.6589 110.447 21.61C110.618 21.5367 110.789 21.5122 111.009 21.5122C111.401 21.5122 111.694 21.6345 111.938 21.8789C112.158 22.1234 112.281 22.4412 112.281 22.8812C112.281 23.2968 112.158 23.639 111.938 23.8835C111.718 24.1279 111.401 24.2502 111.009 24.2502C110.618 24.2502 110.301 24.1279 110.08 23.8835C109.86 23.639 109.738 23.3212 109.738 22.9057ZM110.301 22.8812C110.301 23.1746 110.374 23.3946 110.496 23.5657C110.643 23.7124 110.814 23.7857 111.009 23.7857C111.229 23.7857 111.401 23.7124 111.523 23.5657C111.669 23.419 111.718 23.1746 111.718 22.8812C111.718 22.5879 111.645 22.3678 111.523 22.1967C111.401 22.0501 111.205 21.9767 111.009 21.9767C110.789 21.9767 110.618 22.0501 110.472 22.1967C110.374 22.3434 110.301 22.5879 110.301 22.8812Z" fill="white"/>
<path d="M112.77 21.5611H113.258V23.2968L114.334 21.5611H114.872V24.2013H114.383V22.4901L113.332 24.2013H112.794V21.5611H112.77ZM114.138 20.9255H114.383C114.359 21.0967 114.31 21.2189 114.212 21.3167C114.114 21.4145 113.992 21.4634 113.821 21.4634C113.65 21.4634 113.527 21.4145 113.43 21.3167C113.332 21.2189 113.283 21.0967 113.258 20.9255H113.503C113.503 20.9989 113.552 21.0722 113.601 21.1211C113.65 21.17 113.723 21.1944 113.821 21.1944C113.918 21.1944 113.992 21.17 114.041 21.1211C114.09 21.0722 114.114 20.9989 114.138 20.9255Z" fill="white"/>
<path d="M91.7217 27.6726V27.9904H91.2083V27.6726C90.7927 27.6481 90.4994 27.5504 90.3283 27.3548C90.1571 27.1592 90.0594 26.9148 90.0594 26.6459C90.0594 26.3525 90.1571 26.1081 90.3283 25.9125C90.4994 25.7169 90.7927 25.6191 91.2083 25.6191V25.3502H91.7217V25.6191C92.1373 25.6436 92.4306 25.7414 92.6017 25.9369C92.7729 26.1325 92.8706 26.377 92.8706 26.6703C92.8706 26.9637 92.7729 27.2081 92.6017 27.3792C92.4306 27.5504 92.1373 27.6726 91.7217 27.6726ZM91.2083 27.2326V26.0592C90.9883 26.0592 90.8172 26.1081 90.7194 26.2058C90.6216 26.3036 90.5727 26.4503 90.5727 26.6459C90.5727 27.037 90.7683 27.2326 91.2083 27.2326ZM91.7217 27.2326C91.8684 27.2326 91.9906 27.2081 92.0884 27.1592C92.1862 27.1103 92.2595 27.0614 92.3084 26.9637C92.3573 26.8903 92.3817 26.7681 92.3817 26.6214C92.3817 26.2303 92.1617 26.0592 91.7461 26.0592V27.2326H91.7217Z" fill="white"/>
<path d="M93.3351 27.9904V25.3747H95.2908V25.8147H93.8729V26.4014H95.193V26.8414H93.8729V27.5504H95.3397V27.9904H93.3351Z" fill="white"/>
<path d="M97.8576 25.3502V27.5259H98.0776V28.5282H97.6376V27.9659H95.9753V28.5282H95.5352V27.5259H95.7552C95.853 27.3059 95.9264 27.037 95.9753 26.7437C95.9997 26.4503 96.0241 26.0836 96.0241 25.6191V25.3502H97.8576ZM96.5619 25.7903C96.5619 26.597 96.4886 27.1592 96.3419 27.5259H97.3442V25.7903H96.5619Z" fill="white"/>
<path d="M98.5176 27.9904V25.3747H100.473V25.8147H99.0554V26.4014H100.375V26.8414H99.0554V27.5504H100.522V27.9904H98.5176Z" fill="white"/>
<path d="M101.011 25.3747H101.867C102.184 25.3747 102.405 25.3991 102.502 25.4236C102.649 25.4725 102.771 25.5458 102.869 25.6925C102.967 25.8147 103.016 25.9858 103.016 26.2058C103.016 26.377 102.991 26.4992 102.918 26.6214C102.845 26.7437 102.796 26.817 102.698 26.8903C102.6 26.9637 102.527 26.9881 102.429 27.0126C102.307 27.037 102.111 27.0614 101.891 27.0614H101.549V28.0637H101.011V25.3747ZM101.549 26.5481H101.842C102.062 26.5481 102.184 26.5236 102.258 26.4992C102.331 26.4747 102.38 26.4259 102.429 26.377C102.478 26.3281 102.478 26.2547 102.478 26.1814C102.478 26.0836 102.453 26.0103 102.405 25.9369C102.356 25.8636 102.282 25.8392 102.184 25.8147C102.111 25.8147 101.989 25.7903 101.793 25.7903H101.549V26.5481Z" fill="white"/>
<path d="M105.558 27.9904H104.971L104.751 27.4037H103.7L103.48 27.9904H102.918L103.945 25.3747H104.507L105.558 27.9904ZM104.58 26.9392L104.213 25.9614L103.847 26.9392H104.58Z" fill="white"/>
<path d="M105.9 25.3502H106.438V27.5259H107.465V25.3502H108.003V27.5259H108.223V28.5282H107.783V27.9659H105.925V25.3502H105.9Z" fill="white"/>
<path d="M108.638 25.3502H109.127V27.0859L110.203 25.3502H110.741V27.9659H110.252V26.2547L109.2 27.9659H108.638V25.3502Z" fill="white"/>
<path d="M111.327 25.3502H111.816V27.0859L112.892 25.3502H113.43V27.9659H112.941V26.2547L111.889 27.9659H111.327V25.3502Z" fill="white"/>
</svg>
