<svg width="136" height="33" viewBox="0 0 136 33" fill="none" xmlns="http://www.w3.org/2000/svg">
<path d="M50.1777 18.0741C49.3373 18.9585 47.6359 19.5576 45.8965 19.5576C43.8514 19.5576 42.1896 18.9389 40.9102 17.6986C39.628 16.4612 39 14.8251 39 12.7777C39 10.8077 39.616 9.192 40.8136 7.9138C42.0111 6.63629 43.6898 6 45.8407 6C47.5604 6 48.9224 6.44997 49.9103 7.33235L48.8588 9.04084C47.9619 8.45714 46.912 8.1502 45.8407 8.15847C45.2579 8.13967 44.6775 8.24191 44.1365 8.45869C43.5976 8.6747 43.11 9.00092 42.7054 9.41629C41.8841 10.2621 41.4832 11.3709 41.4832 12.7777C41.4832 14.1487 41.8939 15.2575 42.7633 16.1216C43.632 16.9864 44.7498 17.3998 46.1082 17.3998C47.2528 17.4078 48.368 17.038 49.2794 16.348L50.1777 18.0741ZM55.3368 19.353H53.2742V6.2053H55.6241V15.5584L62.6362 6.206H64.7003V19.3523H62.3505V10.0181L55.3368 19.3523V19.353ZM79.3556 18.0741C78.5158 18.9585 76.8145 19.5576 75.0743 19.5576C73.0307 19.5576 71.3688 18.9389 70.0888 17.6986C68.8066 16.4612 68.1757 14.8251 68.1757 12.7777C68.1757 10.8077 68.7925 9.192 69.9921 7.9138C71.1917 6.63629 72.8684 6 75.0193 6C76.7383 6 78.1002 6.44997 79.0888 7.33235L78.0367 9.04084C77.14 8.4572 76.0903 8.15025 75.0193 8.15847C74.4364 8.13963 73.8561 8.24187 73.3151 8.45869C72.7762 8.67486 72.2887 9.00106 71.884 9.41629C71.0626 10.2621 70.6512 11.3709 70.6512 12.7777C70.6512 14.1487 71.0626 15.2575 71.9313 16.1216C72.7999 16.9864 73.9177 17.3998 75.2761 17.3998C76.4208 17.408 77.536 17.0381 78.4474 16.348L79.3556 18.0741ZM80.7881 8.36658V6.2053H91.8141V8.36588H87.4771V19.3516H85.1272V8.36658H80.7881ZM94.6219 19.353V6.2053H102.36V8.36658H96.9718V11.6331H101.787V13.7937H96.9718V17.1917H102.551V19.353H94.6219ZM106.373 19.353V6.2053H108.744L113.31 12.346L117.668 6.206H119.884V19.3523H117.553V9.84869L113.329 15.6899H112.985L108.725 9.90493V19.353H106.373ZM129.262 9.15404L127.294 13.8295H131.211L129.262 9.15404ZM122.632 19.3523L128.288 6.16733H130.342L136 19.3523H133.496L132.1 15.9908H126.387L124.992 19.3523H122.632ZM40.882 26.4014V27.8357C41.1149 27.8526 41.2955 27.8582 41.4254 27.8582C42.0605 27.8582 42.3893 27.5819 42.3893 27.101C42.3893 26.6201 42.0661 26.3684 41.4585 26.3684C41.2659 26.3693 41.0735 26.3803 40.882 26.4014ZM40.4043 24.4004H42.637V24.8434H40.882V25.9486C41.0828 25.9264 41.2847 25.9154 41.4868 25.9156C42.3618 25.9156 42.867 26.3494 42.867 27.0567C42.867 27.8554 42.3053 28.2941 41.352 28.2941H40.4043V24.4011V24.4004ZM46.5083 28.2807V24.8427H45.0772L45.0102 25.5753C44.7794 28.0347 44.248 28.3637 43.6292 28.2807V27.8083C43.7703 27.8251 43.8656 27.8083 44.0229 27.6206C44.1189 27.4954 44.1909 27.3555 44.2367 27.2057C44.4273 26.5448 44.5381 25.8635 44.5656 25.1773L44.622 24.4004H46.9839V28.2695L46.5083 28.2807ZM49.7783 25.0058L49.0713 26.6651H50.4769L49.7797 25.0065L49.7783 25.0058ZM47.8921 28.2807L49.5793 24.3786H49.9928L51.6794 28.2807H51.1678L50.6597 27.1038H48.8624L48.3592 28.2807H47.8921ZM52.6003 28.2807V24.4011H54.7991V24.8434H53.078V28.2815H52.6003V28.2807ZM56.1505 27.449C56.2884 27.5928 56.4549 27.7063 56.6394 27.7824C56.8238 27.8586 57.0221 27.8956 57.2217 27.8912C57.4234 27.8983 57.6243 27.8625 57.811 27.7862C57.9978 27.71 58.1661 27.595 58.3049 27.449C58.5871 27.1488 58.7382 26.7522 58.7262 26.3437C58.7326 26.1398 58.6976 25.9367 58.6231 25.7466C58.5486 25.5565 58.4363 25.3834 58.2929 25.2378C58.152 25.0972 57.9846 24.9857 57.8002 24.9099C57.6159 24.8342 57.4183 24.7955 57.2189 24.7963C56.8164 24.7964 56.4303 24.9551 56.1448 25.2378C56.0032 25.3846 55.8922 25.5579 55.8183 25.7478C55.7444 25.9376 55.7091 26.1402 55.7144 26.3437C55.7079 26.755 55.8646 27.1522 56.1505 27.449ZM55.7793 24.92C55.9674 24.7309 56.1925 24.5822 56.4406 24.4833C56.6887 24.3844 56.9546 24.3373 57.2217 24.3449C57.4885 24.3395 57.7537 24.3873 58.0016 24.4856C58.2496 24.5839 58.4753 24.7306 58.6655 24.9172C58.8538 25.1025 59.0017 25.3247 59.0997 25.5697C59.1977 25.8147 59.2437 26.0773 59.2349 26.3409C59.2453 26.6049 59.2007 26.8681 59.1039 27.1139C59.0071 27.3598 58.8602 27.5831 58.6725 27.7696C58.2815 28.1321 57.7671 28.3334 57.233 28.3328C56.6989 28.3334 56.1844 28.1321 55.7934 27.7696C55.4277 27.3837 55.2237 26.8731 55.2232 26.3423C55.2232 25.8129 55.4265 25.3025 55.7934 24.9151L55.7793 24.92ZM59.6132 24.8434V24.4004H62.855V24.8434H61.474V28.2815H60.9935V24.8434H59.6132ZM64.2064 26.5125V27.8308C64.3806 27.8469 64.5832 27.8526 64.8168 27.8526C65.4067 27.8526 65.7391 27.6093 65.7391 27.1425C65.7391 26.7389 65.4123 26.5125 64.8443 26.5125H64.2064ZM64.2064 24.8539V26.1089H64.8386C64.9326 26.1195 65.0278 26.1108 65.1182 26.0832C65.2086 26.0556 65.2924 26.0098 65.3643 25.9486C65.4357 25.888 65.4933 25.8131 65.5336 25.7288C65.5739 25.6445 65.5958 25.5526 65.5979 25.4593C65.5979 25.0444 65.334 24.8377 64.7998 24.8377C64.6869 24.8377 64.4872 24.8377 64.2064 24.8539ZM63.7286 24.418C64.0893 24.4064 64.4502 24.3989 64.8111 24.3955C65.6939 24.3955 66.0792 24.771 66.0792 25.3545C66.0855 25.557 66.022 25.756 65.8992 25.9191C65.7754 26.0827 65.5999 26.2 65.401 26.2523C65.6318 26.2713 65.8463 26.3775 65.9987 26.549C66.1512 26.7199 66.2309 26.9428 66.2196 27.1699C66.2196 27.9243 65.6572 28.2976 64.7885 28.2976C64.3863 28.2976 64.0377 28.2976 63.7286 28.2751V24.4173V24.418ZM68.0635 27.449C68.2016 27.5928 68.3682 27.7065 68.5527 27.7827C68.7373 27.859 68.9357 27.8962 69.1354 27.8919C69.3371 27.8989 69.5379 27.863 69.7245 27.7866C69.9112 27.7103 70.0794 27.5952 70.2179 27.449C70.5002 27.1488 70.6519 26.7522 70.6399 26.3437C70.6461 26.1399 70.6109 25.937 70.5365 25.7471C70.462 25.5571 70.3498 25.3842 70.2066 25.2385C70.069 25.0941 69.9026 24.9799 69.7182 24.9033C69.5337 24.8267 69.3352 24.7892 69.1354 24.7934C68.935 24.7869 68.7354 24.8226 68.5498 24.8984C68.3642 24.9741 68.1968 25.0881 68.0586 25.2329C67.9164 25.3791 67.805 25.5523 67.7311 25.7421C67.6572 25.9319 67.6221 26.1346 67.6281 26.3381C67.6189 26.7487 67.7756 27.1467 68.0635 27.4434V27.449ZM67.6902 24.9151C68.0785 24.5479 68.5925 24.3419 69.1278 24.3387C69.6631 24.3356 70.1796 24.5356 70.5722 24.8982C70.9405 25.2877 71.1459 25.7996 71.1459 26.3311C71.1459 26.8633 70.9405 27.3752 70.5722 27.764C70.3815 27.9465 70.1562 28.0893 69.9096 28.1842C69.6629 28.2791 69.3997 28.3241 69.1354 28.3166C68.737 28.3093 68.3492 28.1877 68.0184 27.9665C67.6894 27.7467 67.4319 27.4362 67.2774 27.0728C67.1252 26.7103 67.0832 26.3113 67.1566 25.9252C67.23 25.5391 67.4155 25.183 67.6902 24.901V24.9151ZM72.7273 24.8427V26.3402C72.9404 26.3578 73.1316 26.3684 73.289 26.3684C73.8711 26.3684 74.2197 26.0759 74.2197 25.5865C74.2197 25.0972 73.9219 24.8321 73.3115 24.8321H72.716L72.7273 24.8427ZM72.716 28.2702H72.2347V24.3892H73.2671C73.4679 24.3699 73.6706 24.3902 73.8635 24.4491C74.0564 24.508 74.2357 24.6042 74.3912 24.7323C74.5035 24.8471 74.5918 24.9829 74.6512 25.1319C74.7106 25.2808 74.7399 25.44 74.7374 25.6003C74.7348 25.7606 74.7005 25.9188 74.6363 26.0658C74.5722 26.2128 74.4796 26.3457 74.3637 26.4569C74.2215 26.583 74.0554 26.6792 73.8751 26.74C73.6948 26.8008 73.5041 26.8248 73.3144 26.8106C73.0956 26.8106 72.8987 26.8106 72.7244 26.7888L72.716 28.2702ZM76.2619 28.2807H75.8378V24.4011H76.3184V27.5045L78.7141 24.4011H79.1361V28.2807H78.6577V25.1773L76.2619 28.2807ZM80.0097 24.8434V24.4004H83.2515V24.8434H81.8713V28.2815H81.39V24.8434H80.0097ZM84.1266 28.2807V24.4011H86.3536V24.8434H84.6043V26.0949H86.185V26.5399H84.6043V27.8364H86.4094V28.2815H84.1266V28.2807ZM90.0231 28.2807V24.8427H88.5913L88.5243 25.5753C88.2935 28.0354 87.7622 28.3637 87.1433 28.2807V27.8083C87.2837 27.8251 87.3797 27.8083 87.537 27.6206C87.633 27.4961 87.705 27.3555 87.7509 27.2057C87.94 26.5448 88.0501 25.8642 88.0769 25.1773L88.1333 24.4011H90.498V28.2702L90.0231 28.2807ZM92.3899 26.291V27.8308L92.893 27.8469C93.5514 27.8469 93.9254 27.5706 93.9254 27.0173C93.9254 26.5251 93.5571 26.2552 92.91 26.2552C92.7361 26.2567 92.5625 26.2678 92.3899 26.2882V26.291ZM92.3899 24.3976V25.8375C92.6291 25.8214 92.8147 25.8094 92.9523 25.8094C93.9452 25.8094 94.4399 26.2552 94.4399 27.0068C94.4399 27.8223 93.8549 28.2892 92.8458 28.2892H91.9206V24.3892L92.3899 24.3976ZM98.1799 28.2807V26.523H96.0093V28.2807H95.5315V24.4011H96.0093V26.0815H98.1799V24.4011H98.6611V28.2807H98.1799ZM103.172 24.3899H103.649V28.2589H103.172V24.3899ZM100.551 26.2805V27.8202L101.023 27.8364C101.695 27.8364 102.027 27.5601 102.027 27.0068C102.027 26.5146 101.679 26.2446 101.04 26.2446C100.876 26.2468 100.713 26.2578 100.551 26.2777V26.2805ZM100.551 24.3871V25.827C100.787 25.8101 100.962 25.7989 101.074 25.7989C102.044 25.7989 102.533 26.2446 102.533 26.9962C102.533 27.8118 101.954 28.2786 100.967 28.2786H100.07V24.3899L100.551 24.3871ZM106.143 23.5138C106.187 23.6328 106.27 23.7333 106.379 23.7986C106.489 23.8647 106.618 23.892 106.745 23.8759C107.077 23.8759 107.271 23.7515 107.327 23.5138H107.777C107.726 23.9308 107.294 24.2071 106.745 24.2071C106.197 24.2071 105.758 23.9308 105.69 23.5138H106.143ZM105.482 28.2807H105.061V24.3899H105.539V27.4933L107.934 24.3899H108.359V28.2589H107.879V25.1773L105.482 28.2807ZM113.252 25.1942V27.3829C114.115 27.3829 114.627 26.999 114.627 26.2777C114.627 25.5563 114.121 25.1724 113.247 25.1724L113.252 25.1942ZM112.765 27.3829V25.1942C111.922 25.1942 111.396 25.6034 111.396 26.2995C111.396 26.9955 111.922 27.4054 112.76 27.4054L112.765 27.3829ZM112.76 28.3475V27.8364C112.272 27.8612 111.791 27.7188 111.396 27.4328C111.23 27.2974 111.098 27.1252 111.01 26.93C110.922 26.7347 110.881 26.5217 110.89 26.3079C110.879 26.0946 110.919 25.8818 111.007 25.6871C111.095 25.4924 111.229 25.3215 111.396 25.1886C111.792 24.8991 112.275 24.7536 112.765 24.7766V24.3786H113.247V24.7766C113.74 24.7538 114.227 24.8991 114.627 25.1886C114.795 25.3214 114.929 25.4922 115.018 25.6868C115.107 25.8814 115.148 26.0943 115.138 26.3079C115.147 26.5228 115.105 26.7367 115.015 26.9322C114.925 27.1277 114.79 27.2992 114.621 27.4328C114.228 27.7184 113.749 27.8608 113.263 27.8364H113.247V28.3475H112.76ZM116.82 27.449C116.959 27.592 117.125 27.7051 117.309 27.7811C117.494 27.8572 117.692 27.8947 117.891 27.8912C118.093 27.8983 118.294 27.8625 118.48 27.7862C118.667 27.71 118.835 27.595 118.974 27.449C119.256 27.1508 119.408 26.7533 119.396 26.3437C119.402 26.1399 119.367 25.937 119.292 25.7471C119.218 25.5571 119.106 25.3842 118.962 25.2385C118.677 24.9553 118.291 24.7963 117.888 24.7963C117.486 24.7963 117.1 24.9553 116.814 25.2385C116.673 25.3854 116.563 25.5587 116.489 25.7484C116.416 25.9381 116.381 26.1405 116.387 26.3437C116.379 26.7548 116.534 27.1523 116.82 27.449ZM116.449 24.9207C116.837 24.554 117.35 24.3484 117.885 24.3456C118.421 24.3428 118.938 24.5424 119.328 24.9038C119.579 25.133 119.768 25.4206 119.876 25.7398C119.984 26.0591 120.01 26.4005 119.951 26.7323C119.891 27.0641 119.749 27.3757 119.537 27.6381C119.211 28.0362 118.748 28.2991 118.239 28.3758C117.729 28.4525 117.209 28.3374 116.78 28.0529C116.497 27.8649 116.266 27.6092 116.108 27.3091C115.95 27.011 115.871 26.6779 115.878 26.3409C115.87 26.079 115.916 25.8183 116.013 25.5746C116.11 25.3302 116.255 25.1078 116.44 24.9207H116.449ZM123.653 28.2815V26.5237H121.482V28.2815H121.005V24.4004H121.482V26.0808H123.653V24.4004H124.134V28.2815H123.653ZM126.558 25.5366C126.531 26.0458 126.45 26.5508 126.317 27.0433C126.253 27.3246 126.142 27.5917 125.987 27.8364H128.003V24.8434H126.598L126.558 25.5366ZM125.034 29V27.8364H125.473C125.65 27.5585 125.779 27.2531 125.855 26.9329C126.012 26.3599 126.101 25.7707 126.12 25.178L126.159 24.4011H128.482V27.8364H129.019V29H128.566V28.2815H125.498V29H125.034Z" fill="white"/>
<path d="M5.85922 21C6.97048 21 7.80829 20.7624 8.57395 19.989L15.4667 12.8069C16.0903 12.213 16.9102 11.8869 17.759 11.8949H32C30.7142 7.6871 27.9139 4.16207 24.188 2.05966C20.4692 -0.0419841 16.1005 -0.559278 12.0165 0.618447C7.93163 1.79626 4.44542 4.57728 2.2869 8.3771C0.126819 12.1857 -0.534938 16.7034 0.437905 21H5.85864H5.85922Z" fill="white"/>
<path d="M27.1439 13C26.0303 13 25.1925 13.2257 24.4269 13.9629L17.5343 20.8054C16.9104 21.3705 16.0906 21.6805 15.242 21.6722H1C2.28695 25.6798 5.08717 29.0364 8.81245 31.0388C12.5309 33.0402 16.8992 33.5326 20.9826 32.4108C25.0651 31.2891 28.5519 28.641 30.7104 25.022C32.8712 21.3951 33.5345 17.0927 32.564 13H27.1445H27.1439Z" fill="white"/>
</svg>
