<svg width="174" height="25" viewBox="0 0 174 25" fill="none" xmlns="http://www.w3.org/2000/svg">
<path fill-rule="evenodd" clip-rule="evenodd" d="M7.78082 0H0L8.94042 12.4127L0 24.868H7.78082L16.7244 12.4127L7.78082 0Z" fill="white"/>
<path d="M17.6673 5.56305H21.4026L24.2748 10.1935L27.2468 5.56305H30.7724L26.081 12.4812L31.1825 20.059H27.3473L24.1512 15.0432L20.889 20.059H17.2772L22.3887 12.4621L17.6673 5.56305Z" fill="white"/>
<path d="M35.3716 7.95767L34.798 11.1891L34.8411 11.2287C35.2411 10.8365 35.6643 10.5524 36.1143 10.3844C36.5643 10.212 37.0773 10.1305 37.6502 10.1305C38.3636 10.1305 38.9927 10.259 39.5394 10.5159C40.0855 10.7735 40.5492 11.1163 40.9256 11.548C41.3019 11.9797 41.589 12.4874 41.7881 13.0785C41.9884 13.6659 42.0883 14.2885 42.0883 14.9512C42.0883 15.6868 41.9416 16.3625 41.6552 16.9863C41.3693 17.6163 40.9786 18.1629 40.4956 18.6218C40.0056 19.0832 39.4427 19.4328 38.803 19.6829C38.157 19.9343 37.4767 20.0529 36.7503 20.0393C36.0506 20.0393 35.3841 19.9473 34.7481 19.7632C34.1146 19.5816 33.5517 19.3006 33.0586 18.9251C32.565 18.5428 32.1724 18.0752 31.8791 17.5138C31.5857 16.9536 31.4322 16.3001 31.4191 15.5552H34.3318C34.3986 16.205 34.6445 16.7226 35.0714 17.1043C35.4914 17.4909 36.0313 17.6855 36.6878 17.6855C37.0711 17.6855 37.4174 17.6089 37.7208 17.4545C38.0303 17.2988 38.2906 17.0981 38.5034 16.8473C38.7131 16.5972 38.8766 16.3069 38.9933 15.9771C39.1132 15.6442 39.1699 15.3039 39.1699 14.9549C39.1699 14.5923 39.1132 14.2465 39.0027 13.9234C38.8966 13.6029 38.7299 13.32 38.5134 13.076C38.2931 12.8314 38.0366 12.6406 37.7301 12.509C37.4305 12.3732 37.0842 12.3108 36.6872 12.3108C36.1673 12.3108 35.7442 12.3966 35.4178 12.5813C35.0845 12.766 34.7781 13.0501 34.4916 13.4454H31.8691L33.2852 5.58346H41.3094V7.95828L35.3716 7.95767Z" fill="white"/>
<path d="M51.4556 5.56305C52.0548 5.56305 52.6252 5.63284 53.1682 5.78478C53.7043 5.9324 54.1774 6.1566 54.5812 6.46665C54.9844 6.77053 55.3046 7.16211 55.5442 7.64078C55.7808 8.12192 55.9043 8.68953 55.9043 9.34238C55.9043 10.262 55.6647 11.0637 55.1847 11.7357C54.7042 12.4127 53.9977 12.8438 53.0521 13.0352V13.0785C53.5321 13.147 53.9284 13.2699 54.2448 13.4515C54.5581 13.6356 54.8177 13.8666 55.0181 14.1507C55.2147 14.441 55.3576 14.764 55.4475 15.1401C55.5373 15.5095 55.5941 15.9116 55.6241 16.3433C55.6372 16.5873 55.6509 16.8844 55.664 17.237C55.6772 17.5903 55.7034 17.943 55.7471 18.3031C55.7833 18.6619 55.8531 19.0016 55.9436 19.3148C56.0304 19.6378 56.1502 19.8818 56.3 20.0603H54.7535C54.6705 19.9219 54.6068 19.757 54.5569 19.5624C54.5101 19.3679 54.477 19.1628 54.457 18.9528C54.437 18.7447 54.4171 18.5372 54.404 18.3327C54.3902 18.1277 54.3771 17.9566 54.3603 17.8046C54.3334 17.2938 54.2935 16.7824 54.2305 16.2747C54.1668 15.7701 54.037 15.3186 53.8373 14.919C53.6407 14.5169 53.3542 14.2007 52.9779 13.9561C52.604 13.7085 52.0879 13.6028 51.4319 13.6294H46.1532V20.0596H44.7471V5.56367L51.4556 5.56305ZM51.3489 12.4423C51.7721 12.4423 52.1784 12.3793 52.5585 12.2508C52.9417 12.1224 53.2781 11.934 53.5645 11.6931C53.851 11.4522 54.0782 11.1521 54.2511 10.8124C54.4177 10.4702 54.5013 10.0743 54.5013 9.62587C54.5013 8.73277 54.2442 8.0299 53.7249 7.5154C53.2082 7.00091 52.4187 6.74644 51.3489 6.74644H46.1538V12.4417L51.3489 12.4423Z" fill="white"/>
<path d="M68.1264 5.56305V6.74706H59.4132V11.9667H67.5735V13.1544H59.4132V18.8719H68.2294V20.059H58.0127V5.56305H68.1264Z" fill="white"/>
<path d="M80.6018 5.56305V6.74706H75.494V20.059H74.0972V6.74706H69.0095V5.56305H80.6018Z" fill="white"/>
<path d="M85.7664 5.56305L91.5045 20.059H90.0116L88.2254 15.5478H81.5605L79.798 20.059H78.3219L84.2067 5.56305H85.7664ZM87.756 14.3619L84.9244 6.93235L81.9949 14.3619H87.756Z" fill="white"/>
<path d="M94.3367 5.55688H92.9368V20.059H94.3367V5.55688Z" fill="white"/>
<path d="M98.7891 5.56305V18.8719H106.992V20.059H97.3886V5.56305H98.7891Z" fill="white"/>
<path d="M115.262 20.6081C114.115 20.6081 113.089 20.4061 112.189 19.9855C111.303 19.5723 110.553 19.0152 109.957 18.3012C109.363 17.5971 108.916 16.7645 108.615 15.822C108.312 14.8801 108.164 13.8734 108.164 12.8135C108.164 11.7314 108.327 10.7228 108.648 9.77102C108.976 8.81924 109.444 7.98666 110.051 7.28503C110.661 6.57289 111.409 6.01269 112.284 5.60814C113.164 5.20235 114.165 4.99853 115.275 4.99853C116.117 4.99853 116.899 5.11835 117.618 5.35491C118.334 5.59393 118.968 5.93734 119.517 6.37772C120.062 6.82427 120.513 7.35605 120.859 7.97307C121.213 8.5938 121.448 9.2942 121.578 10.0551L121.625 10.3269H120.735L120.7 10.1336C120.585 9.4869 120.372 8.90694 120.067 8.37763C119.757 7.85202 119.377 7.40732 118.911 7.03674C118.447 6.66306 117.912 6.37648 117.3 6.17328C116.694 5.97069 116.016 5.87187 115.274 5.87187C114.277 5.87187 113.401 6.05346 112.637 6.41539C111.865 6.78103 111.217 7.27576 110.687 7.89772C110.153 8.52401 109.745 9.25529 109.467 10.1008C109.188 10.9458 109.049 11.8531 109.049 12.8141C109.049 13.7813 109.185 14.6911 109.453 15.5404C109.714 16.3828 110.108 17.1203 110.635 17.741C111.155 18.3587 111.812 18.8528 112.592 19.2215C113.369 19.5803 114.278 19.7669 115.328 19.7669C116.112 19.7669 116.836 19.6335 117.512 19.3666C118.198 19.0992 118.796 18.7274 119.295 18.2574C119.798 17.7886 120.189 17.2265 120.481 16.5706C120.766 15.9147 120.91 15.2081 120.91 14.4404V13.9215H115.233V13.0531H121.799V20.2857H120.909L120.916 17.5199C120.487 18.3364 119.881 19.0096 119.109 19.5322C118.038 20.2523 116.753 20.6081 115.272 20.6081C115.271 20.6081 115.267 20.6081 115.262 20.6081Z" fill="white"/>
<path d="M123.227 20.2913H122.992V5.33579H129.234C130.8 5.33765 131.981 5.63349 132.763 6.29498C133.542 6.95092 133.925 7.96508 133.959 9.27879C133.961 9.32512 133.961 9.37082 133.961 9.41714C133.961 10.3757 133.678 11.1984 133.116 11.8562C132.69 12.3565 132.129 12.7369 131.447 12.9982C131.719 13.0766 131.963 13.173 132.18 13.2891C132.595 13.5152 132.924 13.8178 133.149 14.197C133.369 14.5639 133.519 14.9944 133.592 15.4836C133.657 15.9585 133.691 16.4823 133.691 17.0789C133.691 17.2667 133.704 17.5236 133.715 17.8269C133.728 18.1283 133.75 18.426 133.774 18.7182C133.805 19.0115 133.836 19.2746 133.875 19.5155C133.91 19.7434 133.967 19.8886 133.998 19.9238L134.27 20.2931H133.208L133.145 20.1622C133.055 19.9806 132.997 19.7644 132.95 19.4939C132.91 19.2407 132.876 18.9627 132.858 18.6724C132.84 18.3859 132.82 18.0993 132.815 17.8041C132.808 17.5082 132.803 17.2494 132.803 17.0135C132.803 16.4298 132.762 15.911 132.673 15.4595C132.59 15.0278 132.427 14.6769 132.187 14.3916C131.945 14.113 131.59 13.887 131.123 13.7289C130.649 13.5726 129.996 13.4868 129.166 13.4868H123.884V20.2925H123.227V20.2913ZM129.129 12.6239C129.657 12.6239 130.156 12.5572 130.64 12.4232C131.109 12.2997 131.525 12.0989 131.879 11.8185C132.237 11.5431 132.519 11.2015 132.741 10.7704C132.952 10.3572 133.062 9.8532 133.062 9.24544C133.047 8.26031 132.755 7.53891 132.194 7.0065C131.646 6.49386 130.701 6.21099 129.338 6.21222L123.884 6.21099V12.6245L129.129 12.6239Z" fill="white"/>
<path d="M138.643 19.9849C137.773 19.5699 137.039 19.006 136.451 18.2895C135.867 17.573 135.42 16.7429 135.117 15.7942C134.817 14.8542 134.661 13.8561 134.661 12.8055C134.661 11.753 134.817 10.7525 135.117 9.81366C135.42 8.86373 135.867 8.03486 136.451 7.31964C137.038 6.60133 137.773 6.03248 138.641 5.61743C139.52 5.19126 140.524 4.98003 141.644 4.98003C142.77 4.98003 143.773 5.19126 144.648 5.61743C145.517 6.03248 146.254 6.60194 146.842 7.31964C147.428 8.03486 147.874 8.86373 148.178 9.81181C148.478 10.7525 148.629 11.753 148.629 12.8055C148.629 13.8549 148.479 14.8517 148.178 15.7942C147.875 16.7429 147.428 17.573 146.842 18.2895C146.255 19.006 145.517 19.5699 144.648 19.9849C143.772 20.4049 142.77 20.6094 141.644 20.6094C140.525 20.6094 139.522 20.4049 138.643 19.9849ZM137.209 17.8244C137.727 18.434 138.358 18.9121 139.106 19.2592C139.848 19.6001 140.69 19.7718 141.644 19.7718C142.602 19.7718 143.445 19.6008 144.189 19.2611C144.937 18.9121 145.566 18.434 146.084 17.8263C146.596 17.2167 147.003 16.4854 147.287 15.6343C147.573 14.7721 147.723 13.8413 147.736 12.8234C147.723 11.8062 147.573 10.8711 147.287 10.0144C147.003 9.16267 146.597 8.42768 146.084 7.81622C145.566 7.21032 144.937 6.73535 144.189 6.38639C143.445 6.04236 142.602 5.87066 141.644 5.87066C140.69 5.87066 139.848 6.04236 139.107 6.38639C138.356 6.73535 137.727 7.20723 137.209 7.81622C136.693 8.42768 136.29 9.16267 136.002 10.0144C135.72 10.8692 135.571 11.8062 135.558 12.8179C135.571 13.8407 135.72 14.7714 136.002 15.633C136.29 16.486 136.693 17.2167 137.209 17.8244Z" fill="white"/>
<path d="M161.109 5.32899V14.6522C161.109 16.6324 160.642 18.14 159.667 19.1326C158.698 20.1245 157.292 20.6094 155.505 20.6094C155.502 20.6094 155.498 20.6094 155.496 20.6094C153.702 20.6112 152.297 20.1264 151.327 19.1326C150.348 18.14 149.885 16.6324 149.885 14.6522V5.32899H150.774V14.6522C150.776 16.3656 151.169 17.6255 151.922 18.4742C152.671 19.3123 153.841 19.7508 155.496 19.7533C157.15 19.7508 158.318 19.3123 159.067 18.4742C159.819 17.6243 160.219 16.3649 160.219 14.6522V5.32899H161.109Z" fill="white"/>
<path d="M162.664 20.2913H162.427V5.34196H168.604C170.047 5.34196 171.202 5.68475 172.04 6.39627C172.876 7.11211 173.296 8.17569 173.294 9.53387C173.294 10.1991 173.168 10.7976 172.923 11.3263C172.676 11.85 172.333 12.2929 171.892 12.6492C171.457 13.0001 170.937 13.265 170.345 13.4398C169.753 13.6195 169.099 13.7035 168.398 13.7035H163.318V20.2919H163.083L162.664 20.2913ZM168.599 12.8216C169.15 12.8216 169.659 12.7499 170.126 12.6011C170.593 12.4547 170.989 12.2416 171.329 11.9569C171.663 11.6771 171.923 11.3324 172.117 10.9304C172.306 10.5314 172.403 10.0663 172.403 9.52646C172.4 8.42027 172.089 7.61425 171.48 7.059C170.88 6.50806 169.932 6.21222 168.599 6.21222L163.317 6.21098V12.8222L168.599 12.8216Z" fill="white"/>
</svg>
