<svg width="113" height="20" viewBox="0 0 113 20" fill="none" xmlns="http://www.w3.org/2000/svg">
<path d="M76.5669 14.7471H86.7373V12.4959H80.0341C80.9587 8.80162 86.6217 7.99349 86.6217 3.89512C86.6217 1.70162 85.1193 0.0853588 81.9411 0.0853588C79.9763 0.0853588 78.2427 0.662595 77.087 1.23983L77.7804 3.31788C78.8206 2.79837 80.0341 2.33658 81.5366 2.33658C82.6923 2.33658 83.7902 2.85609 83.7902 4.18373C83.7902 7.18536 77.1448 7.41625 76.5669 14.7471ZM87.0263 11.1683H93.5561V14.7471H96.1565V11.1683H98.3524V8.97479H96.1565V0.0853588H94.2495L87.0263 9.43658V11.1683ZM89.9734 9.09024L93.6717 4.12601C93.6717 4.53008 93.5561 5.79999 93.5561 6.95447V9.03252H91.8225C91.3024 9.03252 90.3201 9.09024 89.9734 9.09024Z" fill="white"/>
<path d="M2.71596 12.5537V7.99349H3.8139C4.79627 7.99349 5.60528 8.10894 6.18314 8.45528C6.761 8.80162 7.10772 9.37886 7.10772 10.3024C7.10772 11.861 6.18314 12.5537 3.98726 12.5537H2.71596ZM3.92947 14.7472C8.26345 14.7472 9.82368 12.8423 9.82368 10.187C9.82368 8.39756 9.07246 7.18536 7.74337 6.49268C6.70322 5.91544 5.37413 5.74227 3.75611 5.74227H2.71596V2.27886H8.55238L9.24582 0.143082H0V14.7472H3.92947ZM11.6151 14.7472H14.1577L17.4515 10.0138C18.0871 9.14796 18.5494 8.28211 18.8384 7.82032H18.8961C18.8384 8.45528 18.7806 9.26341 18.7806 10.0715V14.6894H21.381V4.29918H18.8384L15.5445 9.03252C14.9667 9.89837 14.4466 10.7642 14.1577 11.226H14.0999C14.1577 10.5911 14.2154 9.78292 14.2154 8.97479V4.3569H11.6151V14.7472ZM25.8305 14.7472H28.4887V6.49268H31.6091L32.3026 4.29918H22.6523V6.49268H25.8305V14.7472ZM35.8275 20V14.7472C36.3476 14.9203 36.8677 14.978 37.4456 14.978C40.7394 14.978 42.8775 12.7268 42.8775 9.4943C42.8775 6.14634 40.9127 4.01056 37.1566 4.01056C35.712 4.01056 34.3251 4.29918 33.1694 4.64552V20H35.8275ZM35.8275 12.4959V6.37723C36.232 6.26178 36.5788 6.20406 37.0411 6.20406C38.948 6.20406 40.1615 7.24308 40.1615 9.4943C40.1615 11.5146 39.1792 12.7845 37.2144 12.7845C36.6943 12.7845 36.2898 12.6691 35.8275 12.4959ZM44.4377 14.7472H46.9803L50.2741 10.0138C50.9098 9.14796 51.3721 8.28211 51.661 7.82032H51.7188C51.661 8.45528 51.6032 9.26341 51.6032 10.0715V14.6894H54.2036V4.29918H51.661L48.3672 9.03252C47.7893 9.89837 47.2692 10.7642 46.9803 11.226H46.9225C46.9803 10.5911 47.0381 9.78292 47.0381 8.97479V4.3569H44.4377V14.7472ZM56.2839 14.7472H58.9421V10.4179H60.5023C60.7912 10.4179 61.0802 10.7065 61.4269 11.3992L62.756 14.7472H65.5875L63.6806 10.7642C63.3338 10.0715 62.9871 9.66747 62.4671 9.4943V9.43658C63.3338 8.91707 63.4494 7.41625 63.9695 6.66585C64.1429 6.43495 64.374 6.31951 64.7207 6.31951C64.8941 6.31951 65.1252 6.31951 65.2986 6.43495V4.18373C65.0097 4.06829 64.4896 4.01056 64.2006 4.01056C63.2761 4.01056 62.6982 4.3569 62.2937 4.93414C61.4269 6.20406 61.4269 8.39756 60.1556 8.39756H58.9421V4.29918H56.2839V14.7472ZM71.4817 14.978C72.9264 14.978 74.2555 14.5163 75.0645 13.939L74.3133 12.1496C73.562 12.5537 72.8686 12.8423 71.8862 12.8423C70.0948 12.8423 68.9391 11.6878 68.9391 9.55203C68.9391 7.64715 70.0948 6.14634 72.0596 6.14634C73.0997 6.14634 73.851 6.43495 74.6022 6.95447V4.70325C74.0243 4.3569 73.0997 4.01056 71.7707 4.01056C68.6502 4.01056 66.2232 6.31951 66.2232 9.60975C66.2232 12.6114 68.0723 14.978 71.4817 14.978Z" fill="white"/>
<path fill-rule="evenodd" clip-rule="evenodd" d="M100.925 6.03089C100.925 2.70897 103.637 0 106.963 0C110.288 0 113 2.70897 113 6.03089C113 9.35281 110.288 12.0618 106.963 12.0618C103.621 12.0618 100.993 9.34016 100.925 6.04912L100.925 6.04001V6.03089ZM102.714 6.0218C102.767 8.38341 104.644 10.2748 106.963 10.2748C109.3 10.2748 111.211 8.36589 111.211 6.03089C111.211 3.69589 109.3 1.78698 106.963 1.78698C104.628 1.78698 102.719 3.69094 102.714 6.0218Z" fill="white"/>
<path d="M110.199 6.03089H107.367V3.20243H106.616V6.7813H110.199V6.03089Z" fill="white"/>
</svg>
