<svg width="180" height="40" viewBox="0 0 180 40" fill="none" xmlns="http://www.w3.org/2000/svg">
<path opacity="0.7" fill-rule="evenodd" clip-rule="evenodd" d="M0.047619 16.6226L0.0952381 33.2451L0.511111 34.1647C1.05608 35.37 2.31164 36.5273 3.63157 37.0411C4.57407 37.4079 5.0843 37.4612 8.64903 37.5661C13.1762 37.6993 13.8307 37.8554 15.6589 39.2376L16.6674 40L17.2503 39.4882C17.8586 38.9541 19.2891 38.1704 20.1995 37.8727C20.4914 37.7771 22.5159 37.6414 24.6984 37.5711C28.2305 37.4573 28.7818 37.3988 29.7145 37.0384C31.0885 36.5078 32.2684 35.3344 32.8302 33.9402L33.2522 32.8924L33.3023 16.4462L33.3524 0H16.6762H0L0.047619 16.6226ZM32.6349 16.7235C32.6349 34.5155 32.6767 33.7949 31.5656 35.143C31.2658 35.5067 30.5277 36.0363 29.8681 36.361L28.7012 36.9354L24.7157 37.054C22.4183 37.1222 20.4314 37.2642 20.0247 37.3892C19.103 37.6725 17.8656 38.3183 17.2032 38.8619L16.6746 39.2958L15.8178 38.6668C15.3467 38.321 14.4339 37.8399 13.7892 37.5975C12.7182 37.1949 12.2758 37.1462 8.64903 37.0309C4.15414 36.8878 3.52998 36.7497 2.23616 35.6109C1.80247 35.2291 1.26226 34.5406 1.03598 34.081L0.624339 33.2451L0.575838 16.8871L0.527337 0.529101H16.5811H32.6349V16.7235ZM41.9298 0.640564C41.8617 0.708642 41.8042 1.32645 41.8021 2.01358C41.7977 3.44462 41.3243 4.73633 40.7492 4.88677C40.4451 4.96631 40.3951 5.12645 40.3951 6.01711V7.05467H41.0123C41.5806 7.05467 41.6296 7.0127 41.6296 6.52557V5.99647H43.2169H44.8042V6.52557C44.8042 7.0127 44.8533 7.05467 45.4215 7.05467H46.0388V5.99647C46.0388 5.06138 45.9984 4.93827 45.6915 4.93827C45.3675 4.93827 45.3409 4.79259 45.2947 2.77778L45.2451 0.617284L43.6494 0.567019C42.7716 0.53933 41.9977 0.572487 41.9298 0.640564ZM47.097 3.26279V5.99647H48.9489H50.8007V5.46737V4.93827H49.478H48.1552V4.33016V3.72222L49.0811 3.66878C49.9448 3.61905 50.0108 3.58289 50.0628 3.13051C50.1178 2.65273 50.1039 2.6455 49.1369 2.6455C48.1637 2.6455 48.1552 2.64092 48.1552 2.1164V1.5873H49.3898H50.6243V1.0582V0.529101H48.8607H47.097V3.26279ZM52.0353 3.2739V6.01887L52.6085 5.96349L53.1817 5.90829L53.2312 3.7478L53.2808 1.5873H54.2399H55.1989L55.2485 3.7478L55.2981 5.90829H55.8272H56.3563L56.4049 3.21869L56.4536 0.529101H54.2444H52.0353V3.2739ZM59.4083 1.36684C59.2063 1.82769 58.6949 2.98871 58.2718 3.94691C57.8489 4.90511 57.5026 5.75838 57.5026 5.84286C57.5026 6.16631 58.5478 5.99771 58.7372 5.64374C58.8956 5.3478 59.1065 5.29101 60.0457 5.29101C61.0169 5.29101 61.1774 5.33774 61.2575 5.64374C61.3247 5.90053 61.4981 5.99647 61.8952 5.99647C62.2093 5.99647 62.4409 5.90441 62.4409 5.77972C62.4409 5.30688 60.2272 0.529101 60.0083 0.529101C59.8802 0.529101 59.6102 0.906173 59.4083 1.36684ZM63.5765 0.758025C63.5282 0.883951 63.5109 2.09436 63.5379 3.44762L63.5873 5.90829L64.1605 5.96349L64.7337 6.01887V5.03757V4.05644H65.4309C66.3526 4.05644 66.9963 3.74462 67.3042 3.14903C67.7928 2.20423 67.4935 1.23633 66.5785 0.802116C65.8527 0.457672 63.7039 0.426102 63.5765 0.758025ZM68.3787 0.646737C68.3139 0.711287 68.261 0.949383 68.261 1.17584C68.261 1.55203 68.3367 1.5873 69.1429 1.5873H70.0247V3.803V6.01887L70.5979 5.96349L71.1711 5.90829L71.2206 3.7478L71.2702 1.5873H72.0584C72.8166 1.5873 72.8466 1.5672 72.8466 1.0582V0.529101H70.6714C69.475 0.529101 68.4432 0.582011 68.3787 0.646737ZM74.8794 1.10229C74.7464 1.41764 74.2346 2.58466 73.742 3.69577C73.2496 4.80688 72.8466 5.77901 72.8466 5.85626C72.8466 6.16984 73.8963 5.98924 74.0811 5.64374C74.2395 5.3478 74.4504 5.29101 75.3896 5.29101C76.3608 5.29101 76.5213 5.33774 76.6014 5.64374C76.6686 5.90053 76.842 5.99647 77.2392 5.99647C77.5577 5.99647 77.7852 5.90476 77.7857 5.77601C77.7878 5.28748 75.5894 0.529101 75.3617 0.529101C75.2294 0.529101 75.0125 0.786949 74.8794 1.10229ZM78.8825 3.21869L78.9312 5.90829L79.5044 5.96349L80.0776 6.01887L80.0829 4.64074L80.0882 3.26279L80.7443 4.01499C81.1051 4.42875 81.4889 4.76614 81.5972 4.76455C81.7055 4.76314 82.0825 4.39171 82.4349 3.93933L83.0758 3.11675V4.55661V5.99647H83.6049H84.134V3.26279C84.134 1.18783 84.081 0.531746 83.9136 0.539683C83.7924 0.545503 83.2118 1.17513 82.6236 1.9388L81.554 3.32734L80.5072 1.93527C78.933 -0.158201 78.8229 -0.0712521 78.8825 3.21869ZM85.7213 3.25661V5.99647H87.5732H89.425V5.46737V4.93827H88.1905H86.9559V4.33069C86.9559 3.73086 86.9667 3.7224 87.7936 3.66931C88.5608 3.62011 88.6362 3.5746 88.6871 3.13051C88.7416 2.65785 88.7201 2.6455 87.8494 2.6455C86.9743 2.6455 86.9559 2.63474 86.9559 2.1164V1.5873H88.2021H89.4485L89.3926 1.10229L89.3369 0.617284L87.5291 0.567019L85.7213 0.516755V3.25661ZM90.6596 3.26279V6.01887L91.2328 5.96349C91.806 5.90829 91.806 5.90829 91.8585 4.806L91.9109 3.7037H92.9524H93.9938L94.0462 4.806C94.0988 5.90829 94.0988 5.90829 94.672 5.96349L95.2451 6.01887V3.26279V0.506702L94.672 0.562081C94.1053 0.616578 94.0982 0.628748 94.0459 1.63139L93.9929 2.6455H92.9524H91.9118L91.8589 1.63139C91.8065 0.628748 91.7995 0.616578 91.2328 0.562081L90.6596 0.506702V3.26279ZM96.3033 1.05291C96.3033 1.56808 96.3316 1.5873 97.0915 1.5873H97.8797L97.9293 3.7478L97.9788 5.90829H98.5079H99.037L99.0866 3.7478L99.1361 1.5873H100.024C100.889 1.5873 100.911 1.5746 100.856 1.10229L100.801 0.617284L98.552 0.567901L96.3033 0.518519V1.05291ZM44.0988 3.26279V4.93827H43.1386H42.1785L42.5041 4.18871C42.6831 3.77654 42.8843 3.02257 42.9515 2.51323C43.0672 1.63668 43.1011 1.5873 43.5862 1.5873H44.0988V3.26279ZM66.1146 1.74145C66.248 1.82593 66.3242 2.11041 66.291 2.40018C66.2381 2.86296 66.1637 2.91499 65.4832 2.9642L64.7337 3.01852V2.30282C64.7337 1.61252 64.754 1.58748 65.3069 1.58995C65.6222 1.59153 65.9857 1.65961 66.1146 1.74145ZM60.1042 4.20123C59.8187 4.23228 59.5485 4.22099 59.5035 4.17619C59.4587 4.13122 59.5543 3.78836 59.7159 3.41411L60.0097 2.73369L60.3166 3.43915L60.6235 4.14462L60.1042 4.20123ZM75.4482 4.20123C75.1626 4.23228 74.8924 4.22099 74.8474 4.17619C74.8026 4.13122 74.8982 3.78836 75.0598 3.41411L75.3536 2.73369L75.6605 3.43915L75.9674 4.14462L75.4482 4.20123ZM15.2818 4.61041C14.8229 4.85238 14.4236 4.93792 14.0772 4.86878C13.7076 4.79471 13.5813 4.82787 13.6367 4.98395C13.6794 5.10441 13.9041 5.18712 14.1358 5.16772L14.5573 5.1328L14.1605 5.32698C13.9423 5.43386 13.7637 5.57919 13.7637 5.65009C13.7637 5.81182 14.4136 5.99083 15.0118 5.994L15.4665 5.99647L15.2063 7.06102L14.9464 8.1254L13.9123 8.01958C13.027 7.9291 12.8095 7.9679 12.4009 8.28924C11.9501 8.64374 11.9111 8.64744 11.6974 8.35503C11.5728 8.18483 11.4709 7.90194 11.4709 7.72645C11.4709 7.30899 11.2037 7.32187 10.7654 7.76014C10.5714 7.95414 10.4127 8.03421 10.4127 7.93792C10.4127 7.8418 10.5665 7.66702 10.7543 7.54974C11.0783 7.34744 11.081 7.31058 10.8046 6.84268C10.6443 6.57125 10.427 6.34921 10.3217 6.34921C10.2166 6.34921 10.0362 6.25485 9.92063 6.13933C9.63898 5.85767 9.1388 5.79594 9.23421 6.05467C9.27619 6.16825 9.37989 6.24797 9.46473 6.23192C9.54956 6.21587 9.63651 6.44515 9.65802 6.74145C9.67937 7.03757 9.81041 7.40794 9.94921 7.5642C10.088 7.72046 10.2995 8.17937 10.419 8.58395C10.6169 9.25309 10.6025 9.36279 10.2601 9.79824C9.75926 10.4349 9.78095 10.7584 10.3245 10.7584C10.8369 10.7584 10.9383 11.2451 10.4568 11.394C10.2871 11.4466 9.88166 11.6056 9.55591 11.7474C9.02504 11.9787 8.97249 12.0644 9.04974 12.5723C9.09718 12.8841 9.05996 13.2843 8.96737 13.4614C8.82363 13.7358 8.84621 13.7589 9.12064 13.618C9.64832 13.3473 11.1575 13.1977 11.0136 13.4303C10.9265 13.5713 11.0907 13.5972 11.5776 13.5194C12.1942 13.4208 12.2194 13.4305 11.8236 13.6138C11.4053 13.8074 11.4016 13.8212 11.7519 13.884C11.955 13.9205 12.455 13.8353 12.8631 13.6947C13.3762 13.5178 13.5841 13.5016 13.5374 13.642C13.5002 13.7534 13.3771 13.8547 13.264 13.8668C13.1508 13.879 13.0384 13.9049 13.0141 13.9245C12.9503 13.9758 12.3093 14.1108 12 14.1379C11.8545 14.1506 11.2989 14.1012 10.7654 14.0282C8.5716 13.7273 8.55044 13.7305 8.2328 14.3966C7.82557 15.2508 7.85996 15.3432 8.51552 15.1552C9.70212 14.815 10.7866 14.9504 11.6628 15.5483C12.1118 15.8548 12.5661 16.2446 12.6723 16.4146C12.8416 16.6857 12.7624 16.7483 12.0261 16.9249C11.2529 17.1104 11.1254 17.091 10.403 16.6781C9.97178 16.4316 9.5 16.2291 9.3545 16.228C9.20899 16.227 9.42734 16.3929 9.83951 16.597C10.6995 17.0228 10.7757 17.2072 10.142 17.3282C9.89612 17.3753 9.73704 17.3718 9.78818 17.3205C9.96931 17.1393 9.09541 16.8081 8.87725 16.9751C8.76014 17.0647 8.58836 17.0908 8.49524 17.0333C8.40212 16.9758 8.0873 17.1674 7.79559 17.4591C7.50388 17.7508 7.17196 17.9894 7.05802 17.9894C6.69383 17.9894 7.54198 16.8638 8.15309 16.5362C8.47125 16.3654 8.61164 16.2257 8.46508 16.2257C7.99824 16.2257 7.42346 16.7527 6.86437 17.6933C6.56578 18.1956 6.36667 18.4672 6.42205 18.2965C6.54374 17.9219 6.25996 17.1076 6.00794 17.1076C5.90847 17.1076 5.82716 17.2266 5.82716 17.3721C5.82716 17.5176 5.71781 17.6367 5.58413 17.6367C5.29083 17.6367 5.03069 17.94 4.86772 18.4718C4.77407 18.7771 4.88854 19.0118 5.37513 19.5129C6.10229 20.2617 6.09806 20.245 5.70123 20.8116C5.31958 21.3564 5.30741 22.8298 5.67866 23.5252L5.95062 24.0346L6.06649 23.3104C6.2321 22.2746 6.49153 21.7935 7.0679 21.4529L7.57302 21.1545L7.68518 21.7526C7.76984 22.2034 7.68518 22.5721 7.34145 23.2506C6.75944 24.3989 6.75238 25.2118 7.3187 25.8847C7.62945 26.2541 7.69806 26.4536 7.5612 26.5905C7.42416 26.7275 7.47725 27.0026 7.74903 27.5637C7.97143 28.0233 8.07778 28.4758 8.00688 28.6607C7.8612 29.0402 8.35115 29.4533 8.94727 29.4533C9.48342 29.4533 9.47143 29.054 8.91358 28.3226C8.3843 27.6287 8.29894 26.7028 8.78131 26.8894C8.95097 26.955 9.29012 27.0492 9.53492 27.0988C9.91834 27.1762 9.97972 27.2829 9.97972 27.87C9.97972 28.8083 10.5919 29.4533 11.4822 29.4533C12.4513 29.4533 12.9697 28.96 12.946 28.06C12.9309 27.4808 12.9887 27.3369 13.2367 27.3369C13.6483 27.3369 13.8215 28.2095 13.4843 28.5854C13.158 28.949 13.1654 29.4377 13.4991 29.5658C13.975 29.7485 13.7769 29.9824 13.1464 29.9824C12.8069 29.9824 12.5291 30.0617 12.5291 30.1587C12.5291 30.2557 12.4185 30.3351 12.2834 30.3351C12.1483 30.3351 11.9878 30.4653 11.9268 30.6243C11.8293 30.8783 11.9316 30.9 12.7621 30.8025C13.2825 30.7413 13.7619 30.7448 13.8275 30.8104C13.9589 30.942 15.1744 31.3864 15.4139 31.3907C15.497 31.3921 15.5194 31.2742 15.4635 31.1287C15.3474 30.8261 15.5885 30.8062 16.7178 31.0245C17.4951 31.175 17.7009 30.9919 17.2557 30.5467C17.0912 30.3822 17.1108 30.3351 17.3439 30.3351C17.8258 30.3351 17.6887 29.9991 17.1587 29.8811C16.1903 29.6656 16.0564 29.6016 16.0564 29.3533C16.0564 29.0616 16.2302 29.0386 16.7977 29.2552C17.8303 29.6492 18.8998 29.8069 19.2541 29.6173C19.542 29.4631 19.6603 29.4889 19.8545 29.748C20.0677 30.0323 20.0451 30.1088 19.6637 30.3938C19.2497 30.7034 19.0286 31.3628 19.4199 31.121C19.7139 30.9393 22.4876 30.8734 22.7598 31.0414C22.9176 31.139 23.0822 31.0878 23.2298 30.8956C23.4295 30.6356 23.479 30.6317 23.6369 30.8642C23.7873 31.0855 23.8347 31.0623 23.9279 30.7219C23.9959 30.4735 24.1333 30.3511 24.2806 30.4078C24.4185 30.4607 24.522 30.3875 24.522 30.237C24.522 29.8688 23.7111 29.6004 23.0012 29.7335C22.6384 29.8016 22.4056 29.7744 22.4056 29.664C22.4056 29.5642 22.4653 29.4563 22.5379 29.4238C22.6106 29.3915 23.0471 28.9519 23.5079 28.4467C24.0698 27.8309 24.3457 27.373 24.3457 27.0564C24.3457 26.7956 24.5125 26.4399 24.7189 26.261L25.0919 25.9374L24.5425 25.1078C24.2402 24.6515 23.9929 24.2104 23.9929 24.1277C23.9929 24.0448 23.8012 23.9042 23.567 23.8152C23.3106 23.7176 23.0496 23.3998 22.9106 23.0157C22.7332 22.5249 22.6034 22.3981 22.3471 22.4651C22.0203 22.5504 21.1711 21.8887 21.1711 21.5487C21.1711 21.4605 21.5265 21.3397 21.9607 21.2801C22.3951 21.2206 23.2259 20.9716 23.8072 20.727C24.3885 20.4824 25.0115 20.2822 25.1915 20.2822C25.6201 20.2822 26.2857 21 26.2857 21.4624C26.2857 21.6626 26.4086 21.9284 26.5589 22.0531C26.7406 22.2037 26.8145 22.5093 26.7794 22.964C26.7344 23.5467 26.7975 23.6917 27.2046 23.9418C27.8709 24.3511 27.9998 24.1101 27.6467 23.1157C27.4802 22.6467 27.3439 22.1012 27.3439 21.9035C27.3439 21.7056 27.1563 21.3194 26.9272 21.0453C26.6979 20.7711 26.3391 20.2095 26.1298 19.7972C25.8025 19.152 25.6712 19.0476 25.1882 19.0476H24.6268L25.3157 18.3422C25.6945 17.9541 26.0936 17.6367 26.2026 17.6367C26.4727 17.6367 27.1675 18.3968 27.1675 18.6924C27.1675 18.824 27.303 19.0813 27.4684 19.264C27.7139 19.5354 27.7302 19.6589 27.5566 19.9369C27.2767 20.385 27.2882 20.554 27.621 20.8869C28.0693 21.3353 28.4021 21.2279 28.4021 20.6349C28.4021 20.3344 28.3164 20.1249 28.2037 20.1499C28.0945 20.1742 27.9653 20.0838 27.9162 19.949C27.8617 19.7989 27.9044 19.7517 28.0265 19.8272C28.1587 19.9088 28.2257 19.761 28.2257 19.388C28.2257 18.9903 28.04 18.6203 27.5914 18.1236C27.2423 17.7374 26.8444 17.1524 26.7071 16.8236C26.5697 16.4947 26.3697 16.2257 26.2626 16.2257C26.1554 16.2257 25.7945 16.4656 25.4607 16.7587C24.7767 17.3593 24.6115 17.3344 24.4663 16.6083C24.4106 16.3296 24.0806 15.7291 23.733 15.2737C23.2189 14.6002 22.0529 12.1213 22.0529 11.7018C22.0529 11.4928 23.149 11.8208 23.5776 12.1578C23.8901 12.4037 24.1259 12.4619 24.4011 12.3608C24.8797 12.1854 25.036 11.3035 24.6287 11.0757C24.1716 10.8199 23.2873 9.40229 23.2548 8.87319C23.2187 8.28677 22.8175 7.75556 22.4224 7.77125C22.2393 7.77866 22.2797 7.83827 22.5379 7.94197C22.9564 8.11023 23.052 8.37231 22.7603 8.55256C22.6605 8.61429 22.6309 8.54356 22.691 8.3866C22.7601 8.2067 22.6954 8.11287 22.5023 8.11287C22.3407 8.11287 22.257 8.19136 22.3162 8.2873C22.378 8.38713 22.3074 8.41693 22.1513 8.35697C22.0012 8.29929 21.9146 8.19383 21.9587 8.1224C22.003 8.05097 21.7947 7.81199 21.4959 7.59118C21.1166 7.31058 20.9152 7.25079 20.8275 7.39259C20.7557 7.50882 20.5628 7.54233 20.3767 7.4709C20.1219 7.37302 20.076 7.40988 20.1649 7.64127C20.2866 7.95873 19.912 8.04145 18.7298 7.95855C18.4056 7.9358 17.9492 8.0425 17.7157 8.19541L17.291 8.47372L17.2884 7.36737C17.2868 6.75891 17.2116 6.14409 17.1212 6.00106C17.0309 5.8582 17.0213 5.69947 17.1002 5.64832C17.179 5.59735 17.2982 5.37989 17.3653 5.16526C17.4683 4.83527 17.3866 4.73298 16.8384 4.50388C16.0476 4.17337 16.1198 4.16843 15.2818 4.61041ZM8.47266 4.90459C8.47266 5.1769 8.9545 5.70423 9.24197 5.74656C9.64409 5.80547 9.60247 5.59612 9.12275 5.14533C8.69683 4.74533 8.47266 4.66226 8.47266 4.90459ZM15.4287 5.02081C15.2406 5.16332 14.9674 5.28113 14.8219 5.28272C14.6742 5.28448 14.7522 5.1776 14.9982 5.04109C15.5912 4.71217 15.8533 4.69982 15.4287 5.02081ZM16.5379 6.3933C16.4956 6.51464 16.6279 6.71146 16.8319 6.83104C17.1919 7.0418 17.1898 7.04656 16.7619 6.99065C16.469 6.95238 16.3021 6.80547 16.2645 6.55291C16.2337 6.34391 16.2998 6.17284 16.4116 6.17284C16.5235 6.17284 16.5802 6.27213 16.5379 6.3933ZM10.1561 6.93704C10.1605 7.05026 10.257 7.12399 10.3702 7.10088C10.4889 7.07672 10.5325 7.17337 10.4728 7.32875C10.3136 7.74356 9.9739 7.52381 9.95397 6.99295C9.94409 6.73245 9.98377 6.56702 10.0422 6.6254C10.1004 6.6836 10.1517 6.82399 10.1561 6.93704ZM16.2145 7.39224C16.3626 7.48607 16.4129 7.67249 16.3407 7.86049C16.2711 8.04198 16.3157 8.23298 16.4473 8.31658C16.5905 8.40741 16.6007 8.4612 16.4748 8.46296C16.2169 8.46649 15.9559 8.12646 15.8339 7.62787C15.7298 7.20247 15.8233 7.14462 16.2145 7.39224ZM17.112 7.53968C17.1071 7.78113 16.7827 8.19259 16.6792 8.08889C16.5402 7.94991 16.7616 7.40741 16.9571 7.40741C17.0437 7.40741 17.1134 7.46684 17.112 7.53968ZM16.5806 15.5762C18.006 17.5681 18.4732 18.1062 18.6499 17.9594C18.8677 17.7787 18.9302 17.8337 18.8342 18.1217C18.8099 18.1944 18.7335 18.2351 18.6642 18.212C18.5949 18.1889 18.5864 18.3079 18.6451 18.4765C18.7404 18.7497 18.7226 18.7543 18.4806 18.5185C18.3314 18.373 16.8007 16.3095 15.0792 13.933C11.6261 9.16631 11.5503 9.06966 11.733 9.67354C11.8568 10.0824 11.854 10.0832 11.5189 9.74815C11.3323 9.56155 11.1226 9.26049 11.0531 9.07936C10.93 8.75873 10.9363 8.75873 11.2869 9.07601C11.7478 9.49312 11.752 9.27178 11.2945 8.69012C11.1005 8.44339 10.9418 8.15503 10.9418 8.04921C10.9418 7.84956 13.391 11.1189 16.5806 15.5762ZM13.7637 8.28924C14.0861 8.49753 13.8076 8.49753 13.3228 8.28924C13.0901 8.18924 13.0601 8.13439 13.2346 8.12804C13.3801 8.12257 13.6182 8.19524 13.7637 8.28924ZM18.0847 8.46561C17.7936 8.65838 17.4762 8.81605 17.3792 8.81605C17.2822 8.81605 17.4409 8.65838 17.7319 8.46561C18.0229 8.27284 18.3404 8.11517 18.4374 8.11517C18.5344 8.11517 18.3757 8.27284 18.0847 8.46561ZM20.1603 8.22857C20.0409 8.2769 19.8028 8.27989 19.6312 8.2351C19.4596 8.1903 19.5573 8.15079 19.8483 8.14727C20.1393 8.14374 20.2797 8.18025 20.1603 8.22857ZM18.6713 8.79506C18.4457 9.07337 18.2277 9.27143 18.1868 9.23527C18.1122 9.16931 18.8785 8.28924 19.0106 8.28924C19.0496 8.28924 18.8968 8.51693 18.6713 8.79506ZM20.8183 8.60829C20.8183 8.81058 20.3016 9.46967 20.2949 9.27601C20.2917 9.18818 20.1305 9.26014 19.9365 9.43563C19.7425 9.61111 19.5855 9.8418 19.5877 9.94797C19.5898 10.0541 19.7448 9.94268 19.9319 9.70018C20.261 9.27355 20.2711 9.2716 20.2441 9.64392C20.2286 9.85538 20.173 10.0171 20.1203 10.0032C19.8765 9.9388 19.231 10.4489 19.231 10.7058C19.231 10.864 19.1799 10.9423 19.1175 10.8799C18.9145 10.6769 19.5989 9.18466 20.0623 8.82028C20.5358 8.44779 20.8183 8.36861 20.8183 8.60829ZM22.3891 8.97936C22.749 9.31552 22.8621 9.52169 22.7164 9.57601C22.5725 9.62981 22.6185 9.70864 22.8466 9.79912C23.303 9.98025 24.6884 11.4492 24.5079 11.5608C24.4321 11.6076 24.3169 11.56 24.2519 11.4547C24.1868 11.3496 24.0106 11.3108 23.86 11.3684C23.5598 11.4836 22.4056 11.1587 22.4056 10.9591C22.4056 10.8333 21.4709 10.2293 21.2762 10.2293C21.0623 10.2293 21.1845 10.7423 21.6901 11.9686C21.9757 12.661 22.1721 13.2275 22.1266 13.2275C22.0811 13.2275 22.1545 13.4457 22.2896 13.7125C22.4249 13.9794 22.5134 14.3362 22.4862 14.5055C22.4593 14.6748 22.5132 14.8605 22.6063 14.918C22.7106 14.9824 22.6986 15.1152 22.5753 15.2637C22.4653 15.3963 22.425 15.5854 22.4859 15.6838C22.5467 15.7822 22.4691 16.1086 22.3138 16.4093C22.0831 16.8554 21.9841 16.9173 21.7774 16.7457C21.5836 16.5848 21.5238 16.5843 21.5238 16.7437C21.5238 16.8582 21.4444 16.903 21.3474 16.843C21.2504 16.7831 21.1711 16.545 21.1711 16.3139C21.1711 16.0829 21.0905 15.8439 20.9919 15.7831C20.8933 15.722 20.8548 15.6039 20.9065 15.5203C20.9582 15.4367 20.9309 15.3252 20.8459 15.2727C20.7608 15.2201 20.7127 15.5409 20.739 15.9854C20.7651 16.43 20.7337 16.7254 20.6688 16.642C20.6041 16.5586 20.3312 16.2455 20.0626 15.9466C19.7224 15.5677 19.6534 15.4026 19.8358 15.4026C19.9795 15.4026 20.0598 15.4633 20.0141 15.5376C19.9683 15.6116 20.0072 15.7196 20.1007 15.7774C20.1952 15.8358 20.2406 15.7252 20.2026 15.5287C20.1653 15.3342 20.197 15.1363 20.2732 15.0892C20.3915 15.0162 20.4009 14.1067 20.2847 13.9771C20.263 13.9527 20.2284 13.3974 20.2079 12.7425C20.1608 11.2407 20.0086 10.8372 19.6072 11.1506C19.357 11.3462 19.348 11.3388 19.5381 11.0949C19.6586 10.9404 19.7162 10.7732 19.6661 10.7231C19.6162 10.6732 19.6891 10.5377 19.8284 10.4222C20.0243 10.2596 20.1111 10.26 20.2125 10.4243C20.2919 10.5526 20.2693 10.5905 20.1556 10.5203C19.9363 10.3847 19.9705 10.8578 20.1949 11.0619C20.2778 11.1374 20.2921 11.1056 20.2265 10.991C20.1608 10.8765 20.1891 10.7321 20.2892 10.6702C20.3894 10.6083 20.4236 10.4802 20.3651 10.3857C20.3067 10.2912 20.3649 10.0831 20.4945 9.9231C20.6915 9.68007 20.6912 9.65591 20.4921 9.77584C20.2998 9.89153 20.2921 9.84815 20.452 9.54921C20.6857 9.11252 21.2824 8.75732 21.5275 8.90882C21.6224 8.96755 21.7002 8.89171 21.7002 8.74056C21.7002 8.36772 21.7549 8.38677 22.3891 8.97936ZM14.1164 8.99471C14.7981 9.3679 14.752 9.44621 14.0157 9.16631C13.7536 9.06667 13.2524 8.94003 12.9019 8.88501C12.0235 8.74691 11.9813 8.64056 12.8083 8.64938C13.1882 8.65344 13.7769 8.80882 14.1164 8.99471ZM19.536 8.92487C19.4774 8.98342 19.3252 8.98977 19.1981 8.9388C19.0573 8.88254 19.0991 8.84074 19.3046 8.83227C19.4905 8.82469 19.5945 8.86631 19.536 8.92487ZM18.7822 9.60406C18.1961 10.1899 18.2286 10.5771 18.8185 10.0395C19.2832 9.61623 19.2381 9.86455 18.746 10.4386C18.6058 10.6023 18.5453 10.824 18.6116 10.9314C18.678 11.0388 18.63 11.2499 18.5049 11.4005C18.3797 11.5513 18.2522 11.8406 18.2212 12.0436C18.1547 12.4795 18.0395 12.624 17.8831 12.4675C17.8208 12.4051 17.8702 12.2332 17.9929 12.0854C18.261 11.7623 17.994 11.7257 17.6397 12.037C17.5016 12.1584 17.5451 12.0674 17.7367 11.8349L18.0847 11.4125L17.6995 11.6145C17.1436 11.9062 17.1065 11.8723 17.3885 11.3316C17.5277 11.0647 17.642 10.7705 17.6427 10.6776C17.6439 10.4765 18.8915 9.17108 19.0824 9.17108C19.1554 9.17108 19.0203 9.36596 18.7822 9.60406ZM21.7002 9.7127C21.7002 9.94991 22.0346 10.2891 22.53 10.5541C23.1222 10.8711 23.1229 10.8058 22.5346 10.1411C21.9797 9.51446 21.7002 9.3709 21.7002 9.7127ZM11.0372 10.2411C11.2053 10.5131 11.0709 10.5827 10.6106 10.4624C10.3081 10.3832 10.2658 10.3192 10.4418 10.2076C10.7566 10.0079 10.8981 10.0159 11.0372 10.2411ZM76.7474 11.7351L75.1393 13.4173V11.8233V10.2293H74.6102H74.0811V12.963C74.0811 14.4665 74.1515 15.6966 74.2374 15.6966C74.3235 15.6966 75.0774 14.9783 75.9129 14.1004L77.4321 12.5039V14.0122V15.5203H78.0494H78.6667V12.7866C78.6667 11.2831 78.5966 10.0529 78.5111 10.0529C78.4256 10.0529 77.6319 10.8099 76.7474 11.7351ZM89.025 11.6804L87.5025 13.3157L87.4938 11.7725L87.485 10.2293H86.8677H86.2504V12.963C86.2504 14.9259 86.3083 15.6966 86.4559 15.6966C86.569 15.6966 87.3587 14.9626 88.2111 14.0653L89.7607 12.4339L89.7693 13.9771L89.7778 15.5203H90.3996H91.0215L90.9728 12.8451C90.942 11.1476 90.8554 10.1473 90.736 10.1076C90.6324 10.0732 89.8624 10.781 89.025 11.6804ZM92.4233 12.7866V15.5203H93.0406H93.6578L93.6584 14.2416L93.6587 12.963L94.3607 13.7566L95.0626 14.5503L95.766 13.7566L96.4691 12.963L96.4744 14.2416L96.4797 15.5203H97.097H97.7143V12.8852C97.7143 11.391 97.6409 10.2048 97.545 10.1453C97.4517 10.0878 96.8845 10.6586 96.2845 11.4136C95.6845 12.1688 95.1333 12.7866 95.06 12.7866C94.9866 12.7866 94.4354 12.1716 93.8354 11.4198C93.2353 10.6679 92.6721 10.0529 92.5838 10.0529C92.4942 10.0529 92.4233 11.2614 92.4233 12.7866ZM99.9406 12.6887C99.298 14.1466 98.7725 15.3801 98.7725 15.4298C98.7725 15.6596 99.9779 15.4979 100.071 15.2557C100.147 15.058 100.463 14.9912 101.324 14.9912C102.231 14.9912 102.476 15.0476 102.476 15.2557C102.476 15.4406 102.662 15.5203 103.093 15.5203C103.433 15.5203 103.711 15.454 103.711 15.373C103.711 15.0469 101.474 10.1598 101.298 10.1011C101.194 10.0663 100.583 11.2307 99.9406 12.6887ZM127.079 10.3178C125.132 11.0063 124.615 13.3621 126.089 14.8356C127.133 15.8797 128.718 15.9739 129.808 15.0566C130.442 14.5231 130.475 14.2774 129.958 13.9545C129.632 13.7504 129.546 13.7529 129.385 13.9714C128.443 15.2487 126.462 14.5093 126.462 12.8802C126.462 11.4674 128.029 10.754 129.167 11.649C129.534 11.9381 129.699 11.9723 129.984 11.8192C130.684 11.4446 130.226 10.7504 128.987 10.3085C128.145 10.0079 127.953 10.009 127.079 10.3178ZM143.971 10.266C143.83 10.4409 142.339 13.7233 141.684 15.2998C141.62 15.4517 141.784 15.5203 142.209 15.5203C142.595 15.5203 142.865 15.4212 142.928 15.2557C143.075 14.8716 145.127 14.8831 145.41 15.2697C145.539 15.4469 145.811 15.527 146.158 15.4901L146.703 15.4321L145.58 12.8866C144.963 11.4864 144.389 10.2728 144.306 10.1894C144.222 10.1051 144.073 10.1388 143.971 10.266ZM17.0538 10.6626C16.9963 10.8123 16.8675 10.9347 16.7674 10.9347C16.509 10.9347 16.5413 10.4508 16.806 10.3563C17.1056 10.2494 17.178 10.3388 17.0538 10.6626ZM40.9242 12.8748V15.5203H41.4533H41.9824V13.4039V11.2875H43.0406H44.0988V13.4039V15.5203H44.716H45.3333V12.8748V10.2293H43.1287H40.9242V12.8748ZM46.7443 12.8566V15.5203H47.3616H47.9788V14.6384V13.7566L48.6402 13.7559C50.4764 13.7541 51.4062 11.9072 50.1601 10.7365C49.7783 10.3776 49.5009 10.3085 48.2293 10.2552L46.7443 10.1931V12.8566ZM51.8589 12.8748V15.5203H53.7224H55.5861L55.5302 15.0353C55.4757 14.5616 55.4448 14.549 54.1958 14.4984L52.9171 14.4466V13.837V13.2275H53.8871C54.8042 13.2275 54.8571 13.2035 54.8571 12.7866C54.8571 12.3697 54.8042 12.3457 53.8871 12.3457C52.927 12.3457 52.9171 12.3404 52.9171 11.8166V11.2875H54.1517H55.3862V10.7584V10.2293H53.6226H51.8589V12.8748ZM57.8203 11.6843C57.7344 13.2612 57.3524 14.2658 56.782 14.415C56.494 14.4903 56.4444 14.6683 56.4444 15.6291V16.7548H56.9735C57.4607 16.7548 57.5026 16.7058 57.5026 16.1376V15.5203H59.1781H60.8536V16.1376C60.8536 16.7058 60.8956 16.7548 61.3827 16.7548H61.9118V15.6085C61.9118 14.5797 61.8757 14.4621 61.5591 14.4621C61.2259 14.4621 61.2063 14.3444 61.2063 12.3457V10.2293H59.5529H57.8996L57.8203 11.6843ZM62.97 12.8748V15.5203H63.5873H64.2046V13.4039V11.2875H65.2628H66.321V13.4039V15.5203H66.9383H67.5556V12.8748V10.2293H65.2628H62.97V12.8748ZM68.9665 12.8566V15.5203H69.5838H70.2011V14.6384C70.2011 13.7741 70.2116 13.7566 70.7358 13.7566C72.6245 13.7566 73.6259 11.9049 72.3737 10.7282C72.0021 10.379 71.7139 10.3081 70.4515 10.2552L68.9665 10.1931V12.8566ZM80.0776 12.8748V15.5203H80.6949H81.3122V14.3739V13.2275H82.4585H83.6049V14.3739V15.5203H84.2222H84.8395V12.8748V10.2293H84.2222H83.6049V11.1993V12.1693H82.4585H81.3122V11.1993V10.2293H80.6949H80.0776V12.8748ZM103.711 10.7584C103.711 11.2757 103.73 11.2875 104.593 11.2875H105.474V13.4039V15.5203H106.004H106.533V13.4039V11.2875H107.414C108.277 11.2875 108.296 11.2757 108.296 10.7584V10.2293H106.004H103.711V10.7584ZM109.354 12.8748V15.5203H111.218H113.082L113.026 15.0353C112.971 14.5616 112.94 14.549 111.691 14.4984L110.413 14.4466V13.837V13.2275H111.383C112.3 13.2275 112.353 13.2035 112.353 12.7866C112.353 12.3697 112.3 12.3457 111.383 12.3457C110.423 12.3457 110.413 12.3404 110.413 11.8166V11.2875H111.647H112.882V10.7584V10.2293H111.118H109.354V12.8748ZM115.045 12.0303C114.875 13.7487 114.841 13.8531 114.301 14.3042C113.898 14.6399 113.751 14.8975 113.793 15.1928C113.862 15.6808 114.308 15.6783 114.998 15.1857C115.613 14.7474 115.902 14.0742 116.117 12.5765L116.303 11.2875H116.885H117.467V13.4039V15.5203H118.085H118.702V12.8748V10.2293H116.963H115.223L115.045 12.0303ZM120.113 12.8748V15.5203H121.708C123.16 15.5203 123.342 15.4818 123.729 15.0945C124.97 13.8541 124.176 12.2198 122.242 12.034L121.347 11.9481V11.0887V10.2293H120.73H120.113V12.8748ZM131.224 10.7584C131.224 11.2757 131.244 11.2875 132.106 11.2875H132.988V13.4039V15.5203H133.517H134.046V13.4039V11.2875H134.928C135.79 11.2875 135.81 11.2757 135.81 10.7584V10.2293H133.517H131.224V10.7584ZM136.868 12.8748V15.5203H138.463C139.922 15.5203 140.095 15.4832 140.491 15.0873C141.023 14.5552 141.067 13.633 140.589 13.0249C140.369 12.746 140.284 12.4335 140.344 12.1226C140.592 10.8249 139.862 10.2293 138.023 10.2293H136.868V12.8748ZM15.7048 10.6139C16.4085 10.6236 16.6325 10.8113 16.1578 10.9935C15.821 11.1228 14.6455 10.7884 14.6455 10.5633C14.6455 10.4651 14.7254 10.4342 14.8229 10.4945C14.9205 10.5548 15.3173 10.6085 15.7048 10.6139ZM17.8263 10.7467C17.5497 11.2635 17.6058 11.3254 17.9965 10.9347C18.3868 10.5444 18.4347 10.4056 18.179 10.4056C18.0855 10.4056 17.9268 10.5591 17.8263 10.7467ZM18.1728 11.1111C18.033 11.1975 17.9771 11.3268 18.0487 11.3984C18.1201 11.47 18.2713 11.436 18.3845 11.3228C18.651 11.0563 18.5023 10.9076 18.1728 11.1111ZM20.018 12.6416C20.0071 13.3034 20.0414 13.9242 20.0945 14.0212C20.2822 14.3638 20.2589 14.6406 20.0533 14.5097C19.9406 14.4379 19.769 14.3781 19.672 14.3765C19.488 14.3737 19.4005 12.5651 19.5697 12.2575C19.6229 12.1605 19.6778 11.9423 19.6914 11.7725C19.7291 11.3007 19.7492 11.26 19.8991 11.3526C19.9755 11.3998 20.0291 11.9799 20.018 12.6416ZM49.4593 11.6843C49.757 12.1598 49.3809 12.6005 48.6224 12.6649L47.9788 12.7198V11.9929V11.2661L48.6224 11.321C48.9973 11.3529 49.3466 11.5044 49.4593 11.6843ZM60.1481 12.8748V14.4621H59.1917H58.2351L58.5104 13.9104C58.6617 13.6069 58.8206 12.9917 58.8635 12.5436C58.976 11.3656 59.0228 11.2875 59.6136 11.2875H60.1481V12.8748ZM71.6815 11.6843C71.9792 12.1598 71.6032 12.6005 70.8446 12.6649L70.2011 12.7198V11.9929V11.2661L70.8446 11.321C71.2196 11.3529 71.5688 11.5044 71.6815 11.6843ZM139.233 11.5744C139.392 11.988 139.021 12.3457 138.434 12.3457C137.987 12.3457 137.926 12.2818 137.926 11.8166C137.926 11.3326 137.977 11.2875 138.524 11.2875C138.914 11.2875 139.161 11.3875 139.233 11.5744ZM12.7589 12.1561C13.0205 12.2556 13.2346 12.3919 13.2346 12.4589C13.2346 12.5259 13.1845 12.5307 13.1231 12.4695C13.0619 12.4081 12.678 12.5536 12.2698 12.7928C11.4663 13.2637 11.015 13.3825 11.5693 12.9772C11.9005 12.7351 11.8974 12.724 11.4707 12.6291C11.2282 12.5751 10.6132 12.5487 10.1039 12.5705C9.1127 12.6131 8.81587 12.2963 9.57496 12.0063C10.0698 11.8171 12.1213 11.9138 12.7589 12.1561ZM18.4697 12.5552C18.4134 12.6958 18.3716 12.654 18.3631 12.4485C18.3556 12.2626 18.3972 12.1586 18.4557 12.2171C18.5143 12.2757 18.5206 12.4279 18.4697 12.5552ZM19.74 12.2134C19.7291 12.2377 19.7058 12.7007 19.6885 13.2422C19.6663 13.9397 19.7228 14.227 19.8822 14.227C20.0145 14.227 20.0481 14.1481 19.964 14.0358C19.8852 13.9307 19.831 13.4677 19.8439 13.0071C19.8637 12.2961 19.8277 12.021 19.74 12.2134ZM101.696 13.3598L101.929 13.933H101.321C100.625 13.933 100.606 13.8735 101.002 12.9404C101.189 12.5011 101.323 12.3519 101.378 12.522C101.425 12.6675 101.568 13.0446 101.696 13.3598ZM144.512 13.1393L144.783 13.933H144.176C143.843 13.933 143.57 13.8949 143.57 13.8483C143.57 13.7101 144.132 12.3457 144.19 12.3457C144.218 12.3457 144.364 12.7028 144.512 13.1393ZM13.4109 12.9584C13.4109 13.0044 13.1728 13.1653 12.8818 13.3157C12.5908 13.4661 12.3527 13.5233 12.3527 13.4425C12.3527 13.3617 12.5709 13.2093 12.8377 13.1039C13.1046 12.9986 13.3425 12.9039 13.3668 12.8935C13.3912 12.8832 13.4109 12.9123 13.4109 12.9584ZM18.0654 13.1257C18.0125 13.2637 17.8409 13.4259 17.6841 13.4861C17.4499 13.5758 17.4571 13.531 17.725 13.2351C18.1092 12.8106 18.1972 12.7824 18.0654 13.1257ZM122.899 13.2628C123.223 13.5868 123.151 14.2519 122.77 14.4559C122.582 14.5563 122.186 14.6384 121.888 14.6384C121.365 14.6384 121.347 14.6129 121.347 13.8448V13.0511H122.018C122.386 13.0511 122.783 13.1464 122.899 13.2628ZM139.811 13.6924C140.01 14.2086 139.614 14.5471 138.746 14.6041L137.926 14.6578V14.0309V13.4039H138.813C139.472 13.4039 139.729 13.4781 139.811 13.6924ZM18.5256 14.0762C18.5256 14.155 18.2675 14.4023 17.9524 14.6259L17.3792 15.0323L17.9083 14.4928C18.4974 13.8919 18.5256 13.8728 18.5256 14.0762ZM9.70723 14.4261C9.70723 14.5032 9.42293 14.5855 9.07548 14.6088C8.67531 14.6358 8.48519 14.5845 8.55679 14.4686C8.68836 14.2557 9.70723 14.218 9.70723 14.4261ZM11.4635 14.6533C11.954 14.7586 12.3095 14.9185 12.2536 15.009C12.1977 15.0993 12.061 15.1171 11.9501 15.0485C11.839 14.9799 11.3483 14.8266 10.86 14.7079C9.75167 14.4386 10.2515 14.3935 11.4635 14.6533ZM13.5873 14.5547C13.5873 14.6937 12.6702 15.0146 12.5672 14.9116C12.5182 14.8626 12.6679 14.7464 12.9004 14.6534C13.3972 14.4547 13.5873 14.4273 13.5873 14.5547ZM18.818 14.7577C18.7524 14.8233 18.878 15.0679 19.0972 15.3012C19.3162 15.5347 19.4162 15.7097 19.3192 15.6903C18.9266 15.6115 18.8471 15.7123 19.0714 16.0053C19.2012 16.1751 19.2381 16.255 19.1533 16.1832C19.0684 16.1113 18.888 16.1446 18.7524 16.2571C18.6166 16.3697 18.5196 16.3889 18.5365 16.2996C18.5534 16.2106 18.5519 16.0979 18.533 16.0494C18.4072 15.7268 18.4048 15.3575 18.5289 15.4342C18.6106 15.4847 18.724 15.4508 18.7808 15.3589C18.8376 15.267 18.8021 15.1413 18.7019 15.0794C18.5233 14.969 18.6192 14.6384 18.83 14.6384C18.8889 14.6384 18.8834 14.6921 18.818 14.7577ZM20.2014 14.8573C20.2808 14.7855 20.2862 14.8296 20.2136 14.9557C20.1118 15.1321 20.0243 15.1372 19.8326 14.9781C19.6958 14.8645 19.5838 14.7319 19.5838 14.6834C19.5838 14.6349 19.6903 14.6836 19.8205 14.7917C19.9506 14.8996 20.122 14.9293 20.2014 14.8573ZM18.715 15.5928C18.5559 15.7845 18.561 15.872 18.7374 15.9737C18.8635 16.0464 18.9076 16.0409 18.8358 15.9616C18.7638 15.8822 18.7935 15.7108 18.9014 15.5806C19.0095 15.4504 19.0582 15.3439 19.0097 15.3439C18.9612 15.3439 18.8286 15.4559 18.715 15.5928ZM14.2243 15.9252C13.8758 16.0414 13.6732 16.025 13.5277 15.8688C13.367 15.6961 13.4083 15.6693 13.7196 15.7443C13.9377 15.797 14.1164 15.7705 14.1164 15.6857C14.1164 15.6009 14.2513 15.5831 14.416 15.6464C14.6587 15.7395 14.6222 15.7926 14.2243 15.9252ZM16.7187 17.0332C16.5772 17.1746 15.527 16.7217 15.6257 16.5619C15.6795 16.4748 15.9647 16.528 16.2593 16.6802C16.5538 16.8326 16.7605 16.9914 16.7187 17.0332ZM19.3476 17.1575C19.5845 17.3055 19.5534 17.825 19.3081 17.8178C19.2173 17.8152 19.1429 17.7273 19.1429 17.6224C19.1429 17.5176 18.9857 17.3169 18.7935 17.1764C18.4453 16.9219 18.4453 16.9212 18.7935 16.9753C18.9857 17.0051 19.2349 17.0871 19.3476 17.1575ZM20.1102 17.2183C20.1116 17.1337 20.2471 17.1734 20.4113 17.3065C20.5855 17.4478 20.6573 17.4612 20.5838 17.3388C20.5011 17.2007 20.5951 17.131 20.8586 17.1353C21.6959 17.1487 22.0866 17.2944 21.9862 17.5559C21.9321 17.6974 21.9843 17.8194 22.1025 17.827C22.2557 17.8369 22.2593 17.8647 22.1146 17.924C21.9684 17.9838 21.9908 18.2081 22.1947 18.727L22.4774 19.4471L23.8526 19.3411C24.6949 19.276 25.2275 19.3012 25.2275 19.4058C25.2275 19.4998 25.082 19.5767 24.9042 19.5767C24.7263 19.5767 24.5212 19.6363 24.448 19.709C24.375 19.7817 23.9055 19.843 23.4046 19.8451C22.7626 19.848 22.5076 19.9152 22.5404 20.0732C22.5757 20.2423 22.5026 20.252 22.2425 20.1129C22.0393 20.0042 21.8571 19.9947 21.7984 20.0896C21.6233 20.3728 21.2007 20.1914 20.7878 19.6559C20.5612 19.3621 20.5157 19.2383 20.6831 19.3714C20.846 19.5011 21.058 19.5584 21.1541 19.4989C21.2549 19.4367 21.2995 19.5444 21.2593 19.7531C21.2203 19.9554 21.2645 20.069 21.3596 20.0102C21.4531 19.9524 21.4921 19.8444 21.4462 19.7704C21.4005 19.6961 21.475 19.6354 21.612 19.6354C21.749 19.6354 21.8307 19.6847 21.7935 19.7446C21.7564 19.8048 21.8864 19.8538 22.0825 19.8538C22.433 19.8538 22.4326 19.8489 22.0638 19.5501C21.8577 19.3831 21.5302 19.2771 21.3362 19.3143C21.1062 19.3587 21.0007 19.2974 21.0332 19.1383C21.0605 19.0042 21.0035 18.8797 20.9065 18.8617C20.8095 18.8437 20.5462 18.7591 20.3213 18.6735C19.9776 18.5429 19.9279 18.5672 20.0086 18.827C20.0616 18.9968 20.0284 19.2549 19.9349 19.4004C19.7929 19.6215 19.6903 19.5781 19.3088 19.1358C18.6303 18.3485 18.9868 18.946 20.2035 20.6349C21.3668 22.2497 22.0527 23.2998 21.7586 23.0159C21.658 22.9189 20.9249 21.9496 20.1291 20.8619C18.869 19.1393 18.7076 18.8374 18.8778 18.5194C18.9852 18.3187 19.1827 18.1769 19.3169 18.2042C19.451 18.2316 19.5624 18.1901 19.5645 18.1122C19.5665 18.0342 19.7145 17.8358 19.8929 17.6713C20.0716 17.5067 20.1314 17.4277 20.0257 17.4954C19.9104 17.5695 19.8222 17.4649 19.8048 17.2332C19.7818 16.9282 19.8106 16.9025 19.9416 17.1099C20.0328 17.2541 20.1086 17.3028 20.1102 17.2183ZM8.38236 17.4162C8.34991 17.5861 8.31728 17.7494 8.30988 17.7794C8.30229 17.8093 8.21305 17.7824 8.11129 17.7196C7.98501 17.6414 7.99171 17.5266 8.13298 17.3564C8.40353 17.0305 8.45397 17.0425 8.38236 17.4162ZM13.3963 17.3467C13.3559 17.3813 13.045 17.4607 12.7055 17.5229C12.2713 17.6026 12.1667 17.5848 12.3527 17.4628C12.5919 17.306 13.5711 17.1972 13.3963 17.3467ZM25.5802 17.6367C25.5802 17.7337 25.4564 17.8131 25.3053 17.8131C25.1541 17.8131 25.0794 17.7337 25.1393 17.6367C25.1993 17.5397 25.3229 17.4603 25.4143 17.4603C25.5056 17.4603 25.5802 17.5397 25.5802 17.6367ZM10.3196 17.9453C9.82751 19.106 9.72187 19.6695 9.71499 21.1735C9.70723 22.8536 9.70547 22.8601 9.10864 23.4386C8.77954 23.7577 8.46102 24.2644 8.40106 24.5646C8.31922 24.9739 8.24145 25.0598 8.0903 24.9086C7.93898 24.7573 7.9836 24.4587 8.26878 23.7134C8.74356 22.4728 8.74427 22.0681 8.27337 20.9735C7.91005 20.1287 7.90758 20.0746 8.19788 19.3145C8.5478 18.3982 9.36772 17.6367 10.0042 17.6367C10.3616 17.6367 10.4243 17.6982 10.3196 17.9453ZM10.8132 18.6298C10.0448 20.0046 10.0584 23.0718 10.8317 22.8402C10.9407 22.8076 11.2541 22.7314 11.5282 22.6713C11.9543 22.5774 11.9926 22.5982 11.7928 22.8143C11.6642 22.9533 11.4995 23.031 11.4268 22.9869C11.3541 22.9429 11.2945 22.991 11.2945 23.0936C11.2945 23.1963 11.1751 23.2804 11.0293 23.2804C10.8834 23.2804 10.4681 23.4392 10.106 23.6332C9.74409 23.8272 9.35679 23.9859 9.24533 23.9859C9.13404 23.9859 9.003 24.1247 8.95414 24.2945C8.90529 24.4644 8.80317 24.755 8.72734 24.9407C8.62628 25.1877 8.64797 25.242 8.80847 25.1427C8.97301 25.0411 8.96984 25.1 8.79594 25.3783C8.5157 25.8272 8.21093 25.8727 8.37795 25.4409C8.44356 25.2711 8.54127 24.8942 8.59471 24.6032C8.65079 24.2986 8.95908 23.8423 9.32134 23.5279C9.94268 22.9882 9.95185 22.9603 10.0679 21.2351C10.1926 19.3841 10.2716 19.0695 10.8062 18.2981C11.3189 17.558 11.3224 17.7189 10.8132 18.6298ZM13.8238 19.1358L13.712 20.4586H14.2668C14.5721 20.4586 14.8219 20.5379 14.8219 20.6349C14.8219 20.7319 14.5441 20.8113 14.2046 20.8113H13.5873L13.5892 19.9735C13.5912 19.1104 13.7614 17.8131 13.8727 17.8131C13.9072 17.8131 13.8852 18.4083 13.8238 19.1358ZM17.2206 18.0794C17.1991 18.2259 17.0871 18.4402 16.9718 18.5556C16.6914 18.836 16.6924 19.464 16.973 19.2907C17.0891 19.219 17.0212 19.3929 16.822 19.6771C16.3638 20.3312 16.3681 20.8071 16.8354 21.1977L17.2028 21.5049L16.8249 21.5109C16.6169 21.5141 16.3993 21.3926 16.3411 21.2411C16.2829 21.0894 16.1623 21.0104 16.0732 21.0654C15.984 21.1206 15.9339 21.0661 15.9619 20.9444C16.0584 20.5245 16.4868 19.5767 16.5801 19.5767C16.6316 19.5767 16.6638 19.3189 16.6517 19.0035C16.6395 18.6884 16.751 18.2915 16.8995 18.1217C17.2291 17.7446 17.2707 17.7392 17.2206 18.0794ZM6.25908 18.6469C6.36384 18.9198 6.19683 19.4004 5.99753 19.4004C5.91781 19.4004 5.68783 19.1907 5.48624 18.9346C5.21305 18.5869 5.16878 18.4099 5.31217 18.2369C5.46296 18.0552 5.57672 18.0503 5.8388 18.2139C6.02258 18.3287 6.21182 18.5236 6.25908 18.6469ZM13.4109 19.1376C13.4109 19.8074 13.3358 20.0968 13.1429 20.1709C12.9956 20.2275 12.7178 20.54 12.5259 20.8653C12.3339 21.1907 11.9586 21.5663 11.6915 21.7C11.4247 21.8335 11.0693 22.1049 10.9016 22.303C10.6085 22.6496 10.5974 22.6097 10.6106 21.2522C10.6206 20.2056 10.6645 19.9552 10.7806 20.2822C10.9097 20.6464 10.9238 20.6074 10.8616 20.0578C10.8115 19.6141 10.8492 19.4314 10.9751 19.5092C11.0825 19.5755 11.1303 19.5249 11.0859 19.3919C11.0157 19.1811 11.5603 18.4557 11.7083 18.5626C11.742 18.5869 11.9159 18.4877 12.0949 18.3422C12.2762 18.1949 12.3623 18.1744 12.2892 18.2961C12.2002 18.4443 12.2457 18.4808 12.4307 18.4099C12.5808 18.3522 12.6667 18.2457 12.6217 18.1728C12.5765 18.1 12.7358 18.0778 12.9753 18.1236C13.373 18.1996 13.4109 18.288 13.4109 19.1376ZM23.7624 18.6474C23.7176 18.819 23.6781 18.7213 23.6746 18.4303C23.6711 18.1393 23.7076 17.9989 23.7559 18.1183C23.8042 18.2377 23.8072 18.4758 23.7624 18.6474ZM7.73474 18.6074C7.62416 18.8504 7.50035 19.0159 7.45979 18.9753C7.37725 18.8929 7.73492 18.1658 7.85785 18.1658C7.90088 18.1658 7.8455 18.3645 7.73474 18.6074ZM27.9935 19.0808C27.9372 19.2213 27.8954 19.1795 27.8869 18.9741C27.8794 18.7882 27.921 18.6841 27.9795 18.7427C28.0381 18.8012 28.0444 18.9534 27.9935 19.0808ZM18.539 20.4769C18.3473 20.672 18.2215 20.6993 18.134 20.5651C18.0589 20.4497 18.1667 20.3268 18.3986 20.2635C18.7674 20.1626 18.7607 20.1485 18.2829 20.0183C17.8626 19.9037 17.8249 19.8526 18.0624 19.7196C18.2201 19.6314 18.3554 19.3845 18.3628 19.1711C18.3716 18.9183 18.4531 19.0289 18.5966 19.4885C18.7855 20.0933 18.7772 20.2344 18.539 20.4769ZM25.9303 19.8076C25.9317 19.8861 25.8536 19.9012 25.7566 19.8413C25.6596 19.7813 25.5815 19.5981 25.5829 19.434C25.5854 19.1771 25.6093 19.1723 25.7566 19.4004C25.8506 19.5459 25.9287 19.7291 25.9303 19.8076ZM14.7534 19.9243C15.2358 19.8728 15.9513 19.9183 15.8654 19.9951C15.825 20.031 15.4319 20.1127 14.9921 20.1765C14.2497 20.2841 14.1901 20.2637 14.1621 19.8928C14.1416 19.6201 14.178 19.5672 14.2764 19.7265C14.3556 19.8548 14.5704 19.9439 14.7534 19.9243ZM43.5275 21.4086L41.9862 23.0159L41.9843 21.4727L41.9824 19.9295H41.4533H40.9242V22.6631C40.9242 24.191 40.9951 25.3968 41.0848 25.3968C41.1734 25.3968 41.9257 24.6628 42.757 23.7654L44.2684 22.134L44.2718 23.6772L44.2751 25.2205H44.8924H45.5097V22.4868C45.5097 20.4046 45.4571 19.7589 45.2892 19.7772C45.1681 19.7905 44.3751 20.5247 43.5275 21.4086ZM52.5115 21.379L50.9921 23.0159L50.9847 21.4727L50.9771 19.9295H50.3598H49.7425V22.6631C49.7425 24.5365 49.8037 25.3968 49.9369 25.3968C50.0437 25.3968 50.8339 24.6628 51.6928 23.7654L53.2543 22.134L53.2621 23.6772L53.2698 25.2205H53.8917H54.5136L54.4649 22.5453C54.4333 20.8079 54.3487 19.8478 54.2235 19.8062C54.1175 19.7711 53.3471 20.4788 52.5115 21.379ZM69.3166 20.1499C68.342 20.6439 67.8404 21.4674 67.8404 22.5735C67.8404 24.1702 69.0063 25.2938 70.6644 25.2952C73.6443 25.2977 74.6035 21.319 71.9169 20.0995C70.936 19.6541 70.2691 19.667 69.3166 20.1499ZM81.6822 20.1356C81.5935 20.3617 81.1256 21.4284 80.6427 22.506C79.3847 25.3123 79.4016 25.2205 80.142 25.2205C80.6044 25.2205 80.7875 25.1319 80.8713 24.8677C80.9663 24.5683 81.1381 24.515 82.0079 24.515C82.8504 24.515 83.0762 24.5802 83.2765 24.882C83.4543 25.1499 83.6667 25.2333 84.0617 25.1907L84.6032 25.1323L83.4423 22.5014C82.8039 21.0543 82.1831 19.8376 82.0626 19.7975C81.942 19.7573 81.7709 19.9095 81.6822 20.1356ZM94.4975 21.4086L92.9562 23.0159L92.9543 21.4727L92.9524 19.9295H92.4233H91.8942V22.6631C91.8942 24.1734 91.9654 25.3968 92.0534 25.3968C92.1411 25.3968 92.9326 24.6231 93.8123 23.6772L95.412 21.9577L95.4167 23.5891L95.4215 25.2205H95.9506H96.4797V22.4868C96.4797 20.4046 96.4272 19.7589 96.2593 19.7772C96.1381 19.7905 95.3451 20.5247 94.4975 21.4086ZM99.4781 19.9511C98.4369 20.3665 97.7143 21.4413 97.7143 22.575C97.7143 23.8951 98.5053 24.8801 99.8554 25.2409C100.562 25.4296 100.784 25.4175 101.482 25.151C102.874 24.6194 103.554 23.4104 103.281 21.954C102.985 20.3753 101.015 19.3383 99.4781 19.9511ZM118.235 19.9457C117.514 20.1545 116.634 21.1653 116.486 21.954C116.213 23.4104 116.894 24.6194 118.286 25.151C118.983 25.4175 119.205 25.4296 119.912 25.2409C121.398 24.8437 122.139 23.7982 122.013 22.2776C121.86 20.4337 120.164 19.3868 118.235 19.9457ZM128.929 20.1499C127.954 20.6439 127.452 21.4674 127.452 22.5735C127.452 24.1702 128.618 25.2938 130.276 25.2952C133.256 25.2977 134.216 21.319 131.529 20.0995C130.548 19.6541 129.881 19.667 128.929 20.1499ZM143.334 20.3141C143.197 20.636 142.678 21.8275 142.181 22.9619C141.684 24.0961 141.277 25.0683 141.277 25.1224C141.277 25.1764 141.549 25.2205 141.882 25.2205C142.333 25.2205 142.516 25.1302 142.6 24.8677C142.695 24.5683 142.866 24.515 143.736 24.515C144.579 24.515 144.805 24.5802 145.005 24.882C145.183 25.1499 145.395 25.2333 145.79 25.1907L146.332 25.1323L145.171 22.5014C144.532 21.0543 143.914 19.8386 143.797 19.7996C143.68 19.7605 143.472 19.9921 143.334 20.3141ZM148.015 20.0379C147.215 20.4453 147.018 20.8612 147.442 21.2451C147.758 21.5312 147.803 21.527 148.296 21.1621C148.873 20.7356 149.344 20.7467 149.625 21.1933C149.899 21.6273 149.469 22.0459 148.751 22.0459C148.233 22.0459 148.155 22.1035 148.155 22.4868C148.155 22.8822 148.227 22.9277 148.848 22.9277C149.499 22.9277 150.095 23.2693 150.095 23.6416C150.095 23.7295 149.901 23.9289 149.663 24.0847C149.171 24.4067 148.62 24.3048 148.053 23.7866C147.692 23.4571 147.68 23.4571 147.377 23.7921C146.938 24.2771 147.251 24.7626 148.247 25.143C148.918 25.3993 149.161 25.4155 149.739 25.2423C150.994 24.8665 151.537 23.6169 150.827 22.7402C150.553 22.4023 150.535 22.2705 150.714 21.9257C151.419 20.5683 149.546 19.2586 148.015 20.0379ZM160.438 21.3772L158.92 23.0159L158.917 21.4727L158.914 19.9295H158.296H157.679V22.6631C157.679 24.2691 157.748 25.3968 157.846 25.3968C157.938 25.3968 158.73 24.6628 159.605 23.7654L161.197 22.134L161.202 23.6772L161.206 25.2205H161.828H162.45L162.401 22.5453C162.369 20.7623 162.287 19.8483 162.154 19.8044C162.046 19.7683 161.273 20.476 160.438 21.3772ZM171.655 21.3832L170.025 23.0134V21.4714V19.9295H169.496H168.966V22.6631C168.966 24.2067 169.037 25.3968 169.129 25.3968C169.218 25.3968 170.011 24.6238 170.892 23.679L172.494 21.9612V23.5908V25.2205H173.023H173.552V22.4868C173.552 20.9832 173.492 19.7531 173.419 19.7531C173.345 19.7531 172.551 20.4866 171.655 21.3832ZM23.4051 20.194C23.4051 20.2979 23.2728 20.3829 23.1111 20.3829C22.9494 20.3829 22.8171 20.2979 22.8171 20.194C22.8171 20.0901 22.9494 20.0051 23.1111 20.0051C23.2728 20.0051 23.4051 20.0901 23.4051 20.194ZM55.9153 22.575V25.2205H56.5326H57.1499V24.0741V22.9277H58.2963H59.4427V24.0741V25.2205H59.9718H60.5009V22.575V19.9295H59.9718C59.448 19.9295 59.4427 19.9393 59.4427 20.8995V21.8695H58.2963H57.1499V20.8995V19.9295H56.5326H55.9153V22.575ZM62.0882 22.575V25.2205H62.6173H63.1464V24.0741V22.9277H64.2928H65.4392V24.0741V25.2205H66.0564H66.6737V22.575V19.9295H66.0564H65.4392V20.8995V21.8695H64.2928H63.1464V20.8995C63.1464 19.9393 63.1411 19.9295 62.6173 19.9295H62.0882V22.575ZM74.6102 22.575V25.2205H76.2111C77.7453 25.2205 77.8335 25.1989 78.3275 24.7049C78.9781 24.0543 79.0166 23.2616 78.4259 22.6709C78.1503 22.3952 78.0598 22.1739 78.1587 22.0176C78.4469 21.5631 78.3189 20.8002 77.881 20.3624C77.4931 19.9744 77.3005 19.9295 76.0291 19.9295H74.6102V22.575ZM85.545 22.575V25.2205H87.5732H89.6014V25.8377C89.6014 26.406 89.6434 26.455 90.1305 26.455H90.6596V25.3086C90.6596 24.2799 90.6235 24.1623 90.3069 24.1623C89.9737 24.1623 89.9541 24.0446 89.9541 22.0459V19.9295H89.425H88.8959V22.0459V24.1623H87.8377H86.7795V22.0459V19.9295H86.1623H85.545V22.575ZM104.593 22.575V25.2205H105.122H105.651V24.0741V22.9277H106.797H107.944V24.0741V25.2205H108.561H109.178V22.575V19.9295H108.561H107.944V20.8995V21.8695H106.797H105.651V20.8995C105.651 19.9393 105.645 19.9295 105.122 19.9295H104.593V22.575ZM110.589 22.575V25.2205H111.206H111.824V24.0741V22.9277H112.97H114.116V24.0741V25.2205H114.645H115.175V22.575V19.9295H114.645C114.122 19.9295 114.116 19.9393 114.116 20.8995V21.8695H112.97H111.824V20.8995V19.9295H111.206H110.589V22.575ZM123.287 22.575V25.2205H123.905H124.522V23.1125V21.0044L125.624 20.952C126.681 20.9016 126.729 20.8794 126.782 20.4145L126.838 19.9295H125.063H123.287V22.575ZM137.044 22.575V25.2205H137.661H138.279V24.3614V23.5023L139.141 23.3878C140.653 23.1873 141.408 22.1568 140.916 20.9677C140.6 20.2056 139.925 19.9295 138.376 19.9295H137.044V22.575ZM152.388 22.575V25.2205H153.965C155.371 25.2205 155.596 25.1748 156.029 24.8025C156.655 24.2642 156.697 23.3076 156.122 22.6958C155.819 22.3732 155.764 22.1847 155.881 21.8693C156.102 21.2707 155.933 20.6744 155.429 20.2781C155.079 20.0025 154.714 19.9295 153.687 19.9295H152.388V22.575ZM163.355 20.4145C163.406 20.8586 163.481 20.9041 164.249 20.9533L165.086 21.0071V23.1138V25.2205H165.616H166.145V23.1041V20.9877H167.026C167.889 20.9877 167.908 20.9758 167.908 20.4586V19.9295H165.604H163.299L163.355 20.4145ZM175.631 20.4406C175.164 20.8575 175.059 21.0829 175.059 21.6658C175.059 22.1206 175.197 22.5667 175.44 22.8947L175.82 23.4095L175.211 24.315L174.601 25.2205L175.267 25.2201C175.864 25.2199 175.985 25.1381 176.434 24.4265C176.802 23.8446 177.049 23.6332 177.36 23.6332C177.746 23.6332 177.785 23.7058 177.785 24.4268C177.785 25.2162 177.788 25.2205 178.402 25.2205H179.019V22.575V19.9295H177.611C176.307 19.9295 176.161 19.9672 175.631 20.4406ZM27.9612 20.4586C28.0212 20.5556 27.9861 20.6349 27.8834 20.6349C27.7808 20.6349 27.6966 20.5556 27.6966 20.4586C27.6966 20.3616 27.7316 20.2822 27.7744 20.2822C27.8173 20.2822 27.9012 20.3616 27.9612 20.4586ZM15.5714 20.5753C15.4503 20.6243 15.2519 20.6243 15.1305 20.5753C15.0093 20.5265 15.1085 20.4864 15.351 20.4864C15.5935 20.4864 15.6928 20.5265 15.5714 20.5753ZM15.4392 20.9877C15.4991 21.0847 15.464 21.164 15.3614 21.164C15.2587 21.164 15.1746 21.0847 15.1746 20.9877C15.1746 20.8907 15.2095 20.8113 15.2524 20.8113C15.2952 20.8113 15.3792 20.8907 15.4392 20.9877ZM71.4391 21.0776C73.2656 22.0222 72.0347 24.7965 70.0762 24.1501C68.7441 23.7106 68.6122 21.7533 69.8677 21.0575C70.4233 20.7496 70.8143 20.7545 71.4391 21.0776ZM76.8743 20.9661C77.0041 21.0485 77.0834 21.3051 77.0506 21.5367C77.0039 21.8674 76.8682 21.9695 76.418 22.0129C75.8682 22.066 75.8448 22.0425 75.8448 21.4397C75.8448 20.9048 75.9039 20.8116 76.2416 20.8139C76.46 20.8155 76.7446 20.8839 76.8743 20.9661ZM101.727 21.4383C102.274 22.06 102.262 23.0991 101.701 23.7517C101.367 24.1402 101.128 24.2425 100.555 24.2425C99.5485 24.2425 98.9007 23.5944 98.9007 22.5873C98.9007 21.0018 100.699 20.2705 101.727 21.4383ZM120.326 21.3224C121.694 22.5443 120.492 24.724 118.765 24.154C118.02 23.9081 117.644 23.3783 117.644 22.575C117.644 21.0247 119.187 20.3041 120.326 21.3224ZM131.051 21.0776C132.878 22.0222 131.647 24.7965 129.688 24.1501C128.356 23.7106 128.224 21.7533 129.48 21.0575C130.035 20.7496 130.426 20.7545 131.051 21.0776ZM154.603 21.0654C155.075 21.4162 154.743 21.9392 154.002 22.0129C153.472 22.0656 153.446 22.0388 153.446 21.4397C153.446 20.9009 153.504 20.8113 153.853 20.8113C154.077 20.8113 154.415 20.9257 154.603 21.0654ZM14.9982 21.1829C14.9982 21.2903 14.8792 21.3325 14.7337 21.2765C14.5882 21.2208 14.4691 21.252 14.4691 21.3459C14.4691 21.4399 14.3898 21.5168 14.2928 21.5168C14.1958 21.5168 14.1164 21.3977 14.1164 21.2522C14.1164 21.0877 14.2829 20.9877 14.5573 20.9877C14.7998 20.9877 14.9982 21.0755 14.9982 21.1829ZM139.835 21.4824C139.917 22.0616 139.564 22.3986 138.874 22.3986C138.296 22.3986 138.279 22.3783 138.279 21.6831V20.9674L139.028 21.0217C139.657 21.067 139.787 21.1413 139.835 21.4824ZM177.785 21.7919V22.5963L177.127 22.5414C176.595 22.4972 176.437 22.3959 176.303 22.0123C176.081 21.3767 176.417 20.9877 177.189 20.9877C177.779 20.9877 177.785 20.9959 177.785 21.7919ZM13.7265 21.4108C13.6014 21.5466 13.4713 21.6312 13.4374 21.5989C13.3328 21.4995 13.5979 21.164 13.781 21.164C13.8762 21.164 13.8517 21.2751 13.7265 21.4108ZM17.3647 21.8002C17.5182 21.8591 17.6437 22.0178 17.6437 22.1529C17.6437 22.5224 17.1536 22.4481 16.9383 22.0459C16.7422 21.6794 16.8653 21.6085 17.3647 21.8002ZM21.2781 22.8233C21.3404 23.0263 21.5478 23.3414 21.7393 23.5238C21.9683 23.7418 22.0215 23.8963 21.8947 23.9746C21.7677 24.0531 21.9109 24.4815 22.3143 25.2303C22.6511 25.8554 22.9286 26.5012 22.9307 26.6654C22.9362 27.072 22.2626 27.5132 21.6365 27.5132H21.1222L21.2132 25.9169C21.3265 23.9296 21.1861 23.7153 19.8834 23.8882C19.1443 23.9861 18.9132 23.94 18.3714 23.5857C17.2183 22.8317 17.1586 22.846 17.2552 23.8522L17.3409 24.7444L16.5665 24.625C16.1404 24.5593 15.5141 24.4631 15.1746 24.4111L14.5573 24.3168L15.0423 24.6951C15.6044 25.1337 15.678 25.5732 15.1891 25.5732C15.003 25.5732 14.731 25.619 14.5848 25.6751C14.419 25.7388 14.2042 25.6021 14.0139 25.3116L13.709 24.846L14.6298 23.9136C15.5266 23.0055 15.5887 22.9753 16.9942 22.7663C17.788 22.6481 18.8739 22.3721 19.4074 22.1527C20.3765 21.7543 20.3778 21.7543 20.7713 22.1042C20.9878 22.2968 21.2159 22.6205 21.2781 22.8233ZM82.4284 22.8836L82.7203 23.6332H82.1044C81.4118 23.6332 81.3776 23.5347 81.7554 22.6303C82.0612 21.8984 82.0422 21.8914 82.4284 22.8836ZM144.157 22.8836L144.449 23.6332H143.833C143.494 23.6332 143.217 23.5635 143.217 23.4783C143.217 23.2608 143.756 21.994 143.816 22.0709C143.843 22.1056 143.996 22.4713 144.157 22.8836ZM77.5078 23.2048C77.8238 23.521 77.821 23.5099 77.6778 23.8832C77.6004 24.085 77.3319 24.1623 76.7078 24.1623H75.8448V23.545C75.8448 22.9443 75.8633 22.9277 76.5377 22.9277C76.9324 22.9277 77.3497 23.0469 77.5078 23.2048ZM155.264 23.3005C155.613 23.858 155.285 24.1623 154.333 24.1623H153.446V23.5353V22.9083L154.266 22.9621C154.783 22.9961 155.151 23.121 155.264 23.3005ZM27.1675 23.379C27.1675 23.5302 27.0869 23.6041 26.9884 23.5432C26.8898 23.4822 26.8547 23.3586 26.9106 23.2683C27.0617 23.0236 27.1675 23.0691 27.1675 23.379ZM13.124 23.5009C13.0517 23.6222 12.8314 23.9427 12.6344 24.2132L12.2762 24.7053L12.7725 25.1011L13.269 25.4968L11.9531 25.7307C10.7362 25.9469 9.79012 25.897 9.21499 25.5859C8.74039 25.3295 9.65079 24.567 10.8968 24.1776C11.552 23.9728 12.2866 23.6901 12.5291 23.5492C13.0771 23.2307 13.2956 23.2129 13.124 23.5009ZM23.009 24.1623L23.1257 24.6032L22.8601 24.1623C22.7141 23.9198 22.5942 23.6023 22.5936 23.4568C22.5928 23.2217 22.6093 23.2217 22.7423 23.4568C22.8247 23.6023 22.9446 23.9198 23.009 24.1623ZM23.6841 24.719C23.6072 25.0127 23.6413 25.0653 23.8328 24.9496C24.0439 24.8224 24.0451 24.8444 23.8407 25.0965C23.7085 25.2596 23.5298 25.3494 23.4439 25.2963C23.2235 25.1601 23.2485 24.515 23.4742 24.515C23.5769 24.515 23.6044 24.4233 23.5353 24.3113C23.4612 24.1917 23.4864 24.1554 23.5965 24.2233C23.6993 24.2869 23.7388 24.5101 23.6841 24.719ZM19.649 24.9118C19.7074 25.1302 19.7564 25.5568 19.7577 25.8603C19.7591 26.1637 19.8792 26.5106 20.0247 26.6314C20.4707 27.0016 20.3257 27.8936 19.8023 27.9989C19.6266 28.0342 19.6245 27.9723 19.7926 27.7034C19.9573 27.4395 19.9578 27.2594 19.7952 26.9025C19.6138 26.5041 19.5354 26.4684 19.2168 26.6392C19.0139 26.7476 18.8092 26.7975 18.7617 26.7499C18.7143 26.7025 18.8317 26.6139 19.0229 26.5533C19.3598 26.4464 19.7339 25.3118 19.5069 25.0848C19.4522 25.0302 19.4049 25.0977 19.4021 25.2351C19.3982 25.4162 19.3476 25.4009 19.2189 25.1797C19.072 24.9277 18.8504 24.888 17.9455 24.9517L16.8501 25.0286L17.9083 24.791C19.3991 24.4563 19.5293 24.4653 19.649 24.9118ZM15.2628 25.9686C14.791 26.2471 14.4691 26.2873 14.4691 26.0679C14.4691 25.969 14.5882 25.9339 14.7337 25.9898C14.8792 26.0455 14.9982 26.0143 14.9982 25.9205C14.9982 25.8265 15.137 25.752 15.3069 25.7548C15.5771 25.7596 15.5716 25.7862 15.2628 25.9686ZM11.5591 26.1023C11.4991 26.1993 11.3556 26.2774 11.24 26.276C11.1138 26.2742 11.1356 26.2049 11.2945 26.1023C11.6333 25.8832 11.6944 25.8832 11.5591 26.1023ZM8.18677 26.7116C8.09488 26.9513 7.59083 27.2418 7.59083 27.0552C7.59083 27.0034 7.67425 26.8051 7.77601 26.6148C7.97972 26.2342 8.33757 26.3185 8.18677 26.7116ZM8.53686 28.3896C8.43986 28.4868 8.12663 28.0319 8.12257 27.7882C8.12116 27.6968 8.23245 27.7762 8.37002 27.9642C8.50758 28.1524 8.58272 28.3439 8.53686 28.3896ZM41.0481 29.5645C40.9799 29.6326 40.9242 30.8656 40.9242 32.3046C40.9242 34.803 40.94 34.9206 41.2769 34.9206C41.6122 34.9206 41.6296 34.803 41.6296 32.5397V30.1587H42.9653C44.1423 30.1587 44.294 30.122 44.242 29.8501C44.1922 29.5898 43.9473 29.5335 42.6774 29.491C41.8496 29.4633 41.1162 29.4963 41.0481 29.5645ZM46.5681 29.6513C43.7928 30.758 44.5168 34.9206 47.4847 34.9206C48.9016 34.9206 49.9009 34.1899 50.2511 32.8981C50.8337 30.7487 48.648 28.822 46.5681 29.6513ZM51.8002 29.5709C51.7354 29.6355 51.6825 30.8656 51.6825 32.3046C51.6825 34.803 51.6984 34.9206 52.0353 34.9206C52.3519 34.9206 52.388 34.803 52.388 33.7743V32.6279H53.3342C54.0153 32.6279 54.4069 32.5284 54.7316 32.273C55.7272 31.4899 55.4196 29.9788 54.1954 29.6388C53.4536 29.4328 51.9799 29.391 51.8002 29.5709ZM57.9286 29.6942C56.7663 30.2212 56.0907 31.7305 56.4623 32.9705C56.5767 33.3524 56.9376 33.9238 57.264 34.2404C57.7808 34.7411 58.0009 34.8247 58.9589 34.8838C59.8917 34.9411 60.1515 34.8885 60.6593 34.5393C62.3092 33.4044 62.2975 31.1656 60.6354 29.9245C60.0492 29.4869 58.6487 29.3677 57.9286 29.6942ZM64.125 29.6737C64.0873 29.7951 64.0189 30.5356 63.9728 31.3196C63.8797 32.9081 63.4028 34.1069 62.8016 34.2642C62.5042 34.342 62.4409 34.5009 62.4409 35.1686C62.4409 35.8612 62.4921 35.9788 62.7937 35.9788C63.0681 35.9788 63.1464 35.8612 63.1464 35.4497V34.9206H65.0864H67.0265V35.4497C67.0265 35.8612 67.1048 35.9788 67.3792 35.9788C67.6808 35.9788 67.7319 35.8612 67.7319 35.1686C67.7319 34.5069 67.6674 34.3416 67.3792 34.2663C67.0487 34.1799 67.0265 34.0257 67.0265 31.8136V29.4533H65.6101C64.6309 29.4533 64.1723 29.5213 64.125 29.6737ZM69.875 32.0183C69.2783 33.4354 68.7901 34.6683 68.7901 34.7578C68.7901 35.1309 69.3305 34.8815 69.5838 34.3915C69.8503 33.8762 69.8912 33.8624 71.1584 33.8624C72.4453 33.8624 72.4614 33.8681 72.6437 34.3915C72.7679 34.7476 72.9466 34.9206 73.1901 34.9206C73.3892 34.9206 73.5518 34.9007 73.5517 34.8765C73.5503 34.6273 71.264 29.543 71.134 29.4996C71.0381 29.4677 70.4716 30.6011 69.875 32.0183ZM77.6085 32.1723C77.6085 34.7868 77.6254 34.9206 77.955 34.9206C78.2735 34.9206 78.3056 34.7753 78.3519 33.1257L78.4021 31.3309L79.1573 32.3321C79.5728 32.8827 79.9896 33.3333 80.0836 33.3333C80.1778 33.3333 80.6116 32.8483 81.048 32.2557L81.8413 31.1781V33.0494C81.8413 34.803 81.8635 34.9206 82.194 34.9206C82.5316 34.9206 82.5467 34.803 82.5467 32.1869C82.5467 30.6834 82.482 29.4533 82.4032 29.4533C82.3242 29.4533 81.7637 30.1333 81.1575 30.9644L80.0556 32.4755L78.9979 31.0085C78.416 30.2016 77.8654 29.515 77.7742 29.4827C77.6753 29.4476 77.6085 30.5328 77.6085 32.1723ZM85.3658 29.7799C84.4429 30.2704 83.9575 31.094 83.9584 32.169C83.9596 33.834 85.0443 34.9187 86.7093 34.9199C88.2705 34.9212 89.4242 33.7712 89.4247 32.2136C89.4256 30.1526 87.1885 28.8113 85.3658 29.7799ZM92.1437 29.7039C91.0049 30.1998 90.346 31.6316 90.679 32.8868C91.0234 34.1857 92.0236 34.9206 93.4466 34.9206C94.6864 34.9206 96.1441 33.8847 95.339 33.5757C95.1682 33.51 94.8928 33.6125 94.6629 33.827C94.1289 34.3256 93.4395 34.4633 92.7002 34.2192C91.839 33.9351 91.3651 33.2134 91.3651 32.1862C91.3651 31.4795 91.4531 31.27 91.9647 30.7584C92.4698 30.2533 92.6899 30.1587 93.3621 30.1587C93.955 30.1587 94.294 30.2716 94.6822 30.5982C95.1062 30.955 95.2409 30.9937 95.3989 30.8032C95.5464 30.6254 95.498 30.4795 95.1989 30.1991C94.4046 29.455 93.1735 29.2556 92.1437 29.7039ZM96.9501 29.5709C96.8854 29.6355 96.8324 30.8656 96.8324 32.3046C96.8324 34.803 96.8483 34.9206 97.1852 34.9206C97.5092 34.9206 97.5381 34.8021 97.5407 33.4656L97.5434 32.0106L98.8786 33.4656C99.8668 34.5427 100.328 34.9206 100.654 34.9206C101.054 34.9206 100.981 34.7961 99.845 33.5376C99.158 32.7769 98.5961 32.0799 98.5961 31.9887C98.5961 31.8977 99.0723 31.352 99.6543 30.776C100.236 30.2 100.713 29.6668 100.713 29.591C100.713 29.1508 99.9423 29.6134 98.8208 30.7275L97.5379 32.0018V30.7275C97.5379 29.7832 97.4771 29.4533 97.3028 29.4533C97.1734 29.4533 97.0146 29.5062 96.9501 29.5709ZM102.3 32.1869V34.9206H103.724C105.064 34.9206 105.18 34.8898 105.664 34.4051C106.326 33.7432 106.354 32.9623 105.738 32.346C105.388 31.9961 105.333 31.8346 105.473 31.572C105.715 31.1205 105.687 30.4862 105.41 30.1215C105.075 29.6801 104.345 29.4533 103.258 29.4533H102.3V32.1869ZM107.497 29.6691C107.446 29.8023 107.426 31.0185 107.453 32.3718L107.503 34.8325H109.028C110.759 34.8325 111.207 34.5984 111.395 33.5951C111.626 32.3642 110.715 31.5697 109.072 31.5697H108.314L108.261 30.5573C108.219 29.758 108.143 29.5325 107.899 29.4861C107.729 29.4536 107.548 29.5362 107.497 29.6691ZM112.529 32.1741C112.529 34.8148 112.543 34.9206 112.886 34.9206C113.232 34.9206 113.242 34.8305 113.195 32.2333C113.152 29.8367 113.113 29.5395 112.838 29.4866C112.554 29.4323 112.529 29.6533 112.529 32.1741ZM48.6587 30.4101C49.2663 30.7243 49.5661 31.3645 49.5661 32.3478C49.5661 33.2778 49.1019 33.9317 48.24 34.2162C45.9933 34.9578 44.4813 31.7988 46.4298 30.434C46.9205 30.0903 48.0176 30.0785 48.6587 30.4101ZM54.337 30.5205C55.0474 31.2309 54.3936 32.0988 53.148 32.0988H52.388V31.1287V30.1587H53.1817C53.7467 30.1587 54.0795 30.263 54.337 30.5205ZM60.2862 30.434C61.3235 31.1605 61.4675 32.7691 60.5785 33.6972C59.9903 34.3109 59.2882 34.4843 58.476 34.2162C57.5905 33.924 57.1487 33.281 57.1561 32.2954C57.1635 31.3519 57.4554 30.7351 58.0511 30.4049C58.6284 30.0848 59.8099 30.1004 60.2862 30.434ZM66.321 32.1869V34.2152H65.0649C64.0504 34.2152 63.8455 34.1707 64 33.9847C64.288 33.6376 64.7337 31.7734 64.7337 30.9153V30.1587H65.5273H66.321V32.1869ZM88.0222 30.6437C89.106 31.6122 88.8584 33.5053 87.5679 34.1176C86.8554 34.4557 86.5781 34.4594 85.8155 34.1409C85.0896 33.8376 84.6631 33.0785 84.6631 32.0899C84.6631 31.4928 84.7735 31.2476 85.2628 30.7584C85.7704 30.2508 85.9866 30.1587 86.6709 30.1587C87.3037 30.1587 87.5974 30.264 88.0222 30.6437ZM104.734 30.3704C104.85 30.4868 104.945 30.7487 104.945 30.9524C104.945 31.5143 104.6 31.746 103.764 31.746H103.005V30.9524V30.1587H103.764C104.181 30.1587 104.617 30.254 104.734 30.3704ZM71.6702 32.0547L72.1164 33.157H71.1469C70.2217 33.157 70.1831 33.1388 70.3028 32.7601C70.5296 32.0436 71.0903 30.8129 71.1578 30.8832C71.1942 30.9213 71.4249 31.4485 71.6702 32.0547ZM110.491 32.6672C111.121 33.5667 110.596 34.2152 109.239 34.2152H108.296V33.2451V32.2751H109.256C110.048 32.2751 110.264 32.3437 110.491 32.6672ZM105.33 32.8924C105.48 33.2222 105.48 33.4444 105.33 33.7743C105.148 34.1735 105.029 34.2152 104.067 34.2152H103.005V33.3333V32.4515H104.067C105.029 32.4515 105.148 32.4931 105.33 32.8924Z" fill="white"/>
</svg>
