<svg width="124" height="23" viewBox="0 0 124 23" fill="none" xmlns="http://www.w3.org/2000/svg">
<path fill-rule="evenodd" clip-rule="evenodd" d="M4.06278 3.58353L8.10126 7.85288L12.1148 3.58353H16.1782V18.8827C14.8151 17.7405 13.8373 16.2046 13.3783 14.485C13.2034 13.8899 13.1036 13.2753 13.0813 12.6553V6.8637L8.10126 12.2006L0 3.58353H4.06278ZM21.5295 17.6881C20.7499 17.6899 19.9797 17.5174 19.2751 17.1833V20.5636C20.0088 20.7695 20.7676 20.8721 21.5295 20.8683C25.0726 20.8683 28.1195 18.6062 29.3581 15.4294H25.84C25.3547 16.1242 24.7098 16.692 23.9597 17.0851C23.2096 17.4781 22.3761 17.685 21.5295 17.6881ZM21.5295 3.55786C20.7676 3.55599 20.0091 3.65874 19.2751 3.86324V7.24542C19.9785 6.90743 20.7493 6.7335 21.5295 6.73668C23.9575 6.73668 25.9892 8.38861 26.6548 10.6506H19.2751V13.8268H29.8043C29.9028 13.2988 29.9526 12.7628 29.9528 12.2256C29.9528 7.42114 26.187 3.55983 21.5295 3.55983V3.55786Z" fill="white"/>
<path d="M36.2456 11.2581V3.76126H37.9303L40.4082 6.88743L42.7613 3.76126H44.3968V11.2581H42.5385V6.68406L40.3833 9.47919H40.334L38.1038 6.68406V11.2581H36.2456Z" fill="white"/>
<path d="M48.2619 7.49749C48.2619 8.13259 48.459 8.64068 48.8316 9.04741C49.0087 9.24557 49.2267 9.40277 49.4706 9.50812C49.7144 9.61346 49.9782 9.66444 50.2436 9.65751C50.8383 9.65751 51.3094 9.45414 51.6807 9.07308C52.0526 8.66635 52.2504 8.15826 52.2504 7.5225C52.2504 6.91306 52.0533 6.3793 51.6807 5.99758C51.3094 5.59151 50.814 5.38814 50.2436 5.38814C49.9803 5.38206 49.7185 5.43087 49.475 5.53147C49.2314 5.63208 49.0114 5.78229 48.8289 5.97257C48.4603 6.35364 48.2619 6.86172 48.2619 7.49749ZM47.3702 10.3183C46.627 9.58116 46.2801 8.64068 46.2801 7.49749C46.2801 6.3543 46.6513 5.41315 47.3702 4.67604C48.1134 3.93958 49.055 3.5572 50.2436 3.5572C51.4323 3.5572 52.3996 3.93892 53.1178 4.67604C53.8609 5.41315 54.2079 6.35364 54.2079 7.49749C54.2079 8.64134 53.8366 9.58116 53.1178 10.3183C52.3746 11.0554 51.433 11.4371 50.2436 11.4371C49.0543 11.4371 48.1134 11.0554 47.3702 10.3183Z" fill="white"/>
<path d="M61.6423 8.74273L62.5077 10.1413C62.2107 10.573 61.7895 10.8777 61.2941 11.1068C60.7621 11.3349 60.1878 11.4471 59.6093 11.4358C58.42 11.4358 57.454 11.0798 56.7352 10.3433C56.017 9.63122 55.6451 8.66573 55.6451 7.49687C55.6451 6.37803 55.992 5.46388 56.7109 4.70109C57.4297 3.93831 58.3207 3.55988 59.4358 3.55988C60.7244 3.55988 61.7153 3.88895 62.3842 4.5767L61.5168 6.10161C61.2803 5.86339 60.9983 5.67534 60.6876 5.5487C60.3769 5.42205 60.0439 5.35941 59.7085 5.3645C59.4462 5.36344 59.1864 5.41456 58.944 5.51488C58.7016 5.6152 58.4815 5.76274 58.2964 5.94893C58.0942 6.15227 57.9351 6.39443 57.8286 6.66088C57.7222 6.92733 57.6705 7.21257 57.6768 7.4995C57.6768 8.13461 57.8739 8.66836 58.2964 9.04943C58.7176 9.45616 59.2131 9.63385 59.7828 9.63385C60.4767 9.65755 61.0956 9.35151 61.6423 8.74273Z" fill="white"/>
<path d="M71.1793 3.76126L68.3795 7.31983L71.5263 11.2601H69.095L66.196 7.47317L68.8243 3.76257L71.1793 3.76126ZM64.2668 11.2601V3.76126H66.125V11.2601H64.2668Z" fill="white"/>
<path d="M73.9792 7.49749C73.9792 8.13259 74.1764 8.64068 74.5489 9.04741C74.726 9.2456 74.9441 9.40282 75.1879 9.50818C75.4317 9.61353 75.6955 9.66448 75.961 9.65751C76.5524 9.65751 77.0261 9.45414 77.3981 9.07308C77.7693 8.66635 77.9677 8.15826 77.9677 7.5225C77.9677 6.91306 77.7706 6.3793 77.3981 5.99758C77.0261 5.59151 76.5307 5.38814 75.961 5.38814C75.6981 5.38238 75.4368 5.43135 75.1938 5.53195C74.9507 5.63255 74.7311 5.78259 74.5489 5.97257C74.177 6.35364 73.9792 6.86172 73.9792 7.49749ZM73.0593 10.3183C72.3155 9.58116 71.9692 8.64068 71.9692 7.49749C71.9692 6.3543 72.3405 5.41315 73.0593 4.67604C73.8025 3.93958 74.7434 3.5572 75.9328 3.5572C77.1221 3.5572 78.0887 3.93892 78.8068 4.67604C79.55 5.41315 79.8969 6.35364 79.8969 7.49749C79.8969 8.64134 79.525 9.58116 78.8068 10.3183C78.0637 11.0554 77.1221 11.4371 75.9328 11.4371C74.7717 11.4365 73.8058 11.0554 73.0626 10.3183H73.0593Z" fill="white"/>
<path d="M84.8553 8.05631H83.6909V9.73391C84.4341 9.78459 84.831 9.81026 84.9295 9.81026C85.3505 9.81026 85.6727 9.73391 85.8961 9.58122C86.0042 9.51488 86.0931 9.42135 86.154 9.30994C86.2149 9.19852 86.2456 9.07309 86.243 8.94612C86.2174 8.36432 85.7719 8.05631 84.8553 8.05631ZM84.8553 5.20985C84.3349 5.20985 83.9353 5.20985 83.6909 5.23552V6.88745H84.9032C85.2252 6.88745 85.4946 6.81111 85.6957 6.65842C85.9191 6.50639 86.0177 6.30302 86.0177 6.02331C86.0203 5.48956 85.626 5.20985 84.8553 5.20985ZM81.8083 11.2601V3.76128C81.9319 3.76128 82.1796 3.76128 82.5265 3.73627C82.8735 3.71126 83.2447 3.71061 83.6167 3.6856C83.9886 3.6856 84.3349 3.65993 84.6818 3.65993C86.887 3.65993 88.0021 4.31807 88.0021 5.61658C88.0021 6.04898 87.8779 6.43004 87.6078 6.73542C87.3569 7.02424 87.017 7.22109 86.6419 7.29484V7.31985C87.6827 7.57455 88.2025 8.15898 88.2025 9.04813C88.2025 10.548 87.0381 11.3102 84.7344 11.3102C84.4124 11.3102 83.892 11.2845 83.1981 11.2595L81.8083 11.2601Z" fill="white"/>
<path d="M95.7564 8.74273L96.6231 10.1413C96.3261 10.573 95.9049 10.8777 95.4095 11.1068C94.8776 11.3349 94.3033 11.4471 93.7247 11.4358C92.5354 11.4358 91.5695 11.0798 90.8506 10.3433C90.1324 9.63122 89.7605 8.66573 89.7605 7.49687C89.7605 6.37803 90.1074 5.46388 90.8263 4.70109C91.5452 3.93831 92.4362 3.55988 93.5512 3.55988C94.8398 3.55988 95.8307 3.88895 96.4996 4.5767L95.6322 6.10161C95.3957 5.86339 95.1137 5.67534 94.803 5.5487C94.4923 5.42205 94.1593 5.35941 93.8239 5.3645C93.5617 5.36344 93.3018 5.41456 93.0594 5.51488C92.817 5.6152 92.5969 5.76274 92.4119 5.94893C92.2096 6.15227 92.0505 6.39443 91.9441 6.66088C91.8376 6.92733 91.7859 7.21257 91.7922 7.4995C91.7922 8.13461 91.9893 8.66836 92.4119 9.04943C92.833 9.45616 93.3318 9.63385 93.8982 9.63385C94.5671 9.65755 95.211 9.35151 95.7564 8.74273Z" fill="white"/>
<path d="M105.295 3.76126L102.495 7.31983L105.641 11.2601H103.214L100.315 7.47317L102.943 3.76257L105.295 3.76126ZM98.3577 11.2601V3.76126H100.213V11.2601H98.3577Z" fill="white"/>
<path d="M108.838 11.2581H106.979V3.76126H108.838V8.51369L112.256 3.76126H114.115V11.2581H112.256V6.50636L108.838 11.2581Z" fill="white"/>
<path d="M117.534 0H119.242C119.233 0.300149 119.301 0.597566 119.439 0.864139C119.563 1.09317 119.786 1.22019 120.083 1.22019C120.331 1.22019 120.529 1.09317 120.675 0.864139C120.813 0.597566 120.881 0.300149 120.872 0H122.58C122.58 0.762785 122.357 1.37288 121.936 1.8553C121.515 2.33772 120.895 2.59242 120.103 2.59242C119.236 2.59242 118.592 2.36404 118.17 1.88097C117.732 1.39789 117.534 0.787795 117.534 0ZM118.302 11.2601H116.444V3.76128H118.302V8.51371L121.719 3.76128H123.576V11.2601H121.719V6.50638L118.302 11.2601Z" fill="white"/>
<path d="M37.4842 17.9422H40.0613C40.0113 17.3835 39.8136 16.9261 39.4416 16.6213C39.0697 16.3166 38.6242 16.1606 38.0788 16.1606C37.4349 16.1606 36.8895 16.364 36.4933 16.7964L36.2456 16.364C36.4771 16.13 36.7558 15.9481 37.063 15.8303C37.3867 15.7021 37.7308 15.6335 38.0788 15.6276C38.847 15.6276 39.4666 15.8559 39.9621 16.339C40.4575 16.8221 40.6803 17.4578 40.6803 18.2476C40.6803 18.9847 40.4575 19.6198 39.987 20.1029C39.7697 20.3483 39.5019 20.5435 39.2019 20.6751C38.902 20.8067 38.5771 20.8715 38.2497 20.865C37.3832 20.865 36.739 20.6617 36.3172 20.2549L36.5899 19.8232C36.9618 20.1523 37.5098 20.3313 38.2004 20.3313C38.6944 20.3371 39.1723 20.1556 39.5382 19.8232C39.8852 19.4671 40.083 19.0334 40.1329 18.451H37.4842V17.9422Z" fill="white"/>
<path d="M46.0573 15.7316L43.6261 18.1456L46.2544 20.7637H45.4876L42.9355 18.1707L45.3141 15.7309L46.0573 15.7316ZM42.0438 20.7637V15.7316H42.6135V20.7637H42.0438Z" fill="white"/>
<path d="M50.9132 19.6185L51.1859 20.0509C50.9727 20.3133 50.7011 20.522 50.3928 20.6604C50.0657 20.8033 49.7114 20.8732 49.3546 20.865C48.5865 20.865 47.9668 20.6367 47.4714 20.1536C46.976 19.6705 46.7532 19.0348 46.7532 18.245C46.7532 17.5079 46.976 16.8728 47.4464 16.3897C47.6634 16.1447 47.9309 15.9496 48.2303 15.8181C48.5298 15.6865 48.8542 15.6215 49.1811 15.6276C50.0235 15.6276 50.6675 15.8303 51.0867 16.2627L50.814 16.7227C50.4198 16.3666 49.8941 16.1633 49.2534 16.1633C48.9984 16.1626 48.746 16.2141 48.5116 16.3147C48.2773 16.4153 48.0659 16.5629 47.8906 16.7484C47.5162 17.1464 47.3118 17.6752 47.3209 18.222C47.3209 18.8577 47.5181 19.3408 47.8906 19.7219C48.2849 20.1029 48.758 20.2806 49.3526 20.2806C50.0216 20.3063 50.517 20.0792 50.9132 19.6185Z" fill="white"/>
<path d="M56.1411 20.7636V16.2653H53.0193V20.7636H52.4496V15.7315H56.7108V20.7636H56.1411Z" fill="white"/>
<path d="M59.2373 16.7484C58.8661 17.1295 58.6676 17.6376 58.6676 18.2477C58.6676 18.8578 58.8411 19.3402 59.2124 19.7469C59.3947 19.9369 59.6143 20.0869 59.8575 20.1875C60.1007 20.2881 60.3621 20.3371 60.6251 20.3313C61.1948 20.3313 61.6902 20.128 62.0372 19.7469C62.4084 19.3658 62.5819 18.8578 62.5819 18.2477C62.5819 17.6376 62.4084 17.1545 62.0372 16.7484C61.8551 16.5583 61.6355 16.4081 61.3925 16.3074C61.1494 16.2067 60.8881 16.1576 60.6251 16.1633C60.0797 16.189 59.6092 16.3667 59.2373 16.7484ZM58.7912 20.128C58.3207 19.6455 58.073 19.0091 58.073 18.2477C58.073 17.4862 58.3207 16.8498 58.7912 16.3667C59.2616 15.8836 59.8813 15.6302 60.6494 15.6302C61.4175 15.6302 62.0122 15.8843 62.5076 16.3667C62.9788 16.8498 63.2265 17.4855 63.2265 18.2477C63.2265 19.0098 62.9788 19.6455 62.5076 20.128C62.0365 20.6104 61.4175 20.8651 60.6494 20.8651C59.9062 20.8651 59.2873 20.611 58.7912 20.128Z" fill="white"/>
<path d="M66.8431 16.1889C66.5158 16.1892 66.1932 16.2677 65.9022 16.4179C65.6045 16.57 65.3568 16.747 65.2083 16.9767V19.8725C65.6617 20.1787 66.1979 20.3383 66.7446 20.3299C67.336 20.3299 67.8097 20.1266 68.1567 19.7455C68.5279 19.3388 68.7014 18.8307 68.7014 18.2206C68.7014 17.6105 68.5279 17.1281 68.2059 16.747C67.859 16.3666 67.4135 16.1889 66.8431 16.1889ZM64.6136 23V15.7315H65.1833V16.3896C65.397 16.151 65.6588 15.9605 65.9515 15.8309C66.2683 15.6812 66.6144 15.6037 66.9647 15.6038C67.6586 15.6038 68.2283 15.8328 68.6245 16.3153C69.0457 16.7727 69.2441 17.4084 69.2441 18.1456C69.2441 18.9353 69.0207 19.5685 68.5503 20.0765C68.0798 20.5846 67.4851 20.8393 66.717 20.8393C66.0481 20.8393 65.5277 20.6866 65.1557 20.4069V22.9737H64.611L64.6136 23Z" fill="white"/>
<path d="M69.7423 16.3159V15.7315H74.2268V16.3159H72.2694V20.7636H71.6997V16.3159H69.7423Z" fill="white"/>
<path d="M78.9835 20.7636V18.476H75.7874V20.7636H75.2177V15.7315H75.7874V17.9422H78.9835V15.7315H79.5532V20.7636H78.9835Z" fill="white"/>
<path d="M85.7476 20.7636V15.7315H86.3173V20.7636H85.7476ZM82.6034 17.9679H81.8602V20.2299H82.6034C83.1238 20.2299 83.495 20.1279 83.7204 19.9502C83.9458 19.7725 84.0424 19.4671 84.0424 19.1117C84.0378 18.3489 83.5424 17.9679 82.6034 17.9679ZM81.2629 15.7315H81.8326V17.4341H82.675C83.9636 17.4341 84.6075 17.9935 84.6075 19.086C84.6075 19.5691 84.459 19.9759 84.137 20.3062C83.8151 20.611 83.3189 20.7887 82.6008 20.7887H81.2629V15.7315Z" fill="white"/>
<path d="M88.7946 13.1141H89.315C89.3139 13.3769 89.4109 13.6307 89.587 13.8255C89.7883 14.0137 90.0557 14.1143 90.3309 14.1053C90.4592 14.1073 90.5867 14.0836 90.7057 14.0356C90.8248 13.9875 90.933 13.9161 91.0241 13.8255C91.2042 13.6331 91.3021 13.3778 91.2968 13.1141H91.8172C91.8218 13.3035 91.7867 13.4919 91.7141 13.6669C91.6416 13.8419 91.5332 13.9998 91.396 14.1303C91.1233 14.41 90.7521 14.537 90.3309 14.537C89.8597 14.537 89.4885 14.41 89.2138 14.1303C89.077 13.9996 88.9689 13.8417 88.8967 13.6667C88.8245 13.4916 88.7897 13.3034 88.7946 13.1141ZM88.6211 20.7637H88.0514V15.7315H88.6211V19.9252L91.8914 15.7315H92.4598V20.7637H91.8901V16.57L88.6211 20.7637Z" fill="white"/>
<path d="M96.7474 15.7315H97.3178V20.2299H100.415V15.7315H100.984V20.2299H101.802V22.0595H101.257V20.7887H96.7474V15.7315Z" fill="white"/>
<path d="M104.923 16.1889C104.403 16.1889 103.957 16.3416 103.635 16.672C103.313 16.9767 103.139 17.4091 103.09 17.9172H106.633C106.633 17.3835 106.46 16.9767 106.162 16.672C105.864 16.3416 105.444 16.1889 104.923 16.1889ZM106.732 19.6962L106.905 20.1536C106.46 20.6367 105.865 20.865 105.097 20.865C104.329 20.865 103.685 20.6367 103.214 20.1536C102.742 19.6705 102.495 19.0347 102.495 18.245C102.495 17.4822 102.718 16.8471 103.164 16.364C103.61 15.8809 104.205 15.6276 104.998 15.6276C105.642 15.6276 106.162 15.8303 106.583 16.2627C107.004 16.6694 107.228 17.2281 107.228 17.9146C107.234 18.0686 107.225 18.2228 107.203 18.3753H103.164C103.189 18.9854 103.387 19.4678 103.734 19.7982C104.106 20.1542 104.576 20.3069 105.171 20.3069C105.815 20.3065 106.335 20.1029 106.732 19.6962Z" fill="white"/>
<path d="M112.331 20.7636V18.476H109.135V20.7636H108.566V15.7315H109.135V17.9422H112.331V15.7315H112.901V20.7636H112.331Z" fill="white"/>
<path d="M113.892 16.3159V15.7315H118.377V16.3159H116.419V20.7636H115.849V16.3159H113.892Z" fill="white"/>
<path d="M121.572 16.1889C121.245 16.1893 120.922 16.2678 120.63 16.4179C120.333 16.57 120.086 16.747 119.937 16.9767V19.8725C120.39 20.1786 120.926 20.3383 121.473 20.3299C122.064 20.3299 122.538 20.1266 122.885 19.7455C123.257 19.3388 123.43 18.8307 123.43 18.2206C123.43 17.6105 123.257 17.1281 122.935 16.747C122.613 16.3659 122.167 16.1889 121.572 16.1889ZM119.367 23V15.7315H119.937V16.3896C120.15 16.151 120.412 15.9605 120.705 15.8309C121.022 15.6801 121.369 15.6019 121.721 15.6018C122.414 15.6018 122.984 15.8309 123.38 16.3133C123.802 16.7707 124 17.4065 124 18.1436C124 18.9333 123.777 19.5665 123.306 20.0746C122.835 20.5826 122.241 20.8373 121.473 20.8373C120.804 20.8373 120.284 20.6847 119.912 20.4049V22.9717H119.367V23Z" fill="white"/>
</svg>
