<svg width="354" height="26" viewBox="0 0 354 26" fill="none" xmlns="http://www.w3.org/2000/svg">
<path d="M191.921 21.4151C193.298 21.4151 194.273 21.1698 195 20.6415V18.2453C194.254 18.7547 193.355 19.0755 192.093 19.0755C189.97 19.0755 189.09 17.4528 189.09 14.8868C189.09 12.1886 190.161 10.8113 192.112 10.8113C193.26 10.8113 194.388 11.2075 194.981 11.5849V9.09429C194.35 8.75467 193.26 8.50938 191.768 8.50938C187.962 8.50938 185.992 11.2075 185.992 14.9811C186.011 19.1132 187.943 21.4151 191.921 21.4151ZM173.311 20.3207V17.9245C172.393 18.5472 170.825 19.0943 169.391 19.0943C167.21 19.0943 166.388 18.0755 166.254 16H173.445V14.4528C173.445 10.132 171.514 8.50938 168.549 8.50938C164.915 8.50938 163.194 11.2452 163.194 15C163.194 19.3207 165.355 21.4151 169.142 21.4151C171.035 21.4151 172.432 20.9056 173.311 20.3207ZM146.019 8.7358V13.6415H142.041V8.7358H139.057V21.1698H142.041V15.9811H146.019V21.1698H149.003V8.7358H146.019ZM162.448 18.8302H161.128V8.7358H152.445V9.79241C152.445 12.8302 152.254 16.7547 151.202 18.8302H150.246V24H153V21.1698H159.675V24H162.429V18.8302H162.448ZM182.817 21.1698H186.202L181.421 14.4717L185.628 8.7358H182.626L178.418 14.4717V8.7358H175.434V21.1698H178.418V15.0566L182.817 21.1698ZM168.473 10.8113C169.945 10.8113 170.404 12.0188 170.404 13.5849V13.8302H166.254C166.331 11.849 167.057 10.8113 168.473 10.8113ZM158.145 18.8302H153.937C154.759 16.9622 154.989 13.566 154.989 11.4151V11.0377H158.145V18.8302Z" fill="white"/>
<path d="M136.571 21.1699H133.53V6.32076H132.172C129.686 6.32076 128.385 7.54718 128.385 9.37738C128.385 11.4529 129.284 12.4151 131.139 13.6415L132.669 14.6604L128.27 21.1699H125L128.959 15.3585C126.683 13.7548 125.402 12.1887 125.402 9.54719C125.402 6.24529 127.735 4 132.153 4H136.552V21.1699H136.571Z" fill="white"/>
<path d="M9.36003 1H10.0359C12.3822 1.0514 14.6902 2.00235 16.3479 3.68579C15.7358 4.31547 15.111 4.91945 14.5117 5.54913C13.5808 4.70099 12.4587 4.04561 11.2345 3.81429C9.42379 3.42878 7.4728 3.77574 5.95536 4.81665C4.29765 5.90895 3.17551 7.75945 2.93323 9.73845C2.66545 11.6918 3.21377 13.7479 4.47618 15.2642C5.68758 16.7421 7.53655 17.6673 9.44929 17.7316C11.2345 17.8344 13.0962 17.2818 14.3969 16.0224C15.417 15.1357 15.8888 13.7864 16.0419 12.4756C13.9251 12.4756 11.8083 12.4885 9.69157 12.4756V9.8284H18.6049C19.064 12.6684 18.4009 15.8682 16.2586 17.8986C14.8305 19.3379 12.854 20.186 10.8392 20.3531C8.88822 20.5459 6.87347 20.1732 5.13926 19.2222C3.06075 18.1042 1.40304 16.2152 0.586944 13.992C-0.178151 11.9488 -0.190903 9.63564 0.523186 7.57954C1.17352 5.70334 2.42317 4.04561 4.02987 2.88905C5.57281 1.74534 7.44729 1.11566 9.36003 1Z" fill="white"/>
<path d="M60.4942 1.66763H63.223V20.0184C62.3176 20.0184 61.3995 20.0312 60.4942 20.0055C60.5069 13.9015 60.4942 7.78455 60.4942 1.66763Z" fill="white"/>
<path d="M24.6749 8.02886C26.3581 7.70759 28.1816 8.06741 29.5715 9.08261C30.834 9.98216 31.7138 11.3957 31.9816 12.9378C32.3259 14.7241 31.8923 16.6774 30.7447 18.0909C29.5078 19.6716 27.4803 20.5197 25.5038 20.3912C23.6931 20.2884 21.9333 19.376 20.8622 17.8853C19.6508 16.2404 19.3575 13.9787 20.0206 12.0511C20.6837 9.98216 22.5582 8.40153 24.6749 8.02886ZM25.0575 10.4705C24.3689 10.6504 23.7313 11.0488 23.2722 11.6142C22.0353 13.1049 22.1119 15.5337 23.4763 16.9215C24.2541 17.7183 25.4273 18.0909 26.5112 17.8725C27.5185 17.6926 28.3984 17.0115 28.883 16.1119C29.7246 14.5827 29.4823 12.4752 28.1944 11.2801C27.3655 10.509 26.1541 10.1878 25.0575 10.4705Z" fill="white"/>
<path d="M38.1916 8.02877C40.1171 7.6561 42.2211 8.19583 43.662 9.558C46.0083 11.6784 46.2633 15.6492 44.2613 18.0908C43.0499 19.6329 41.0862 20.4811 39.1479 20.3911C37.299 20.3397 35.4755 19.4145 34.3789 17.8852C33.142 16.2018 32.8742 13.8887 33.5755 11.9225C34.2768 9.91782 36.1131 8.38859 38.1916 8.02877ZM38.5741 10.4704C37.8855 10.6503 37.248 11.0487 36.7889 11.6013C35.5648 13.0662 35.6158 15.4565 36.9292 16.8572C37.707 17.6925 38.9184 18.1037 40.0406 17.8724C41.0352 17.6796 41.9278 17.0114 42.4123 16.1118C43.2412 14.5698 42.9989 12.4622 41.6983 11.2671C40.8694 10.4961 39.658 10.1877 38.5741 10.4704Z" fill="white"/>
<path d="M49.6552 8.77422C51.1216 7.84897 53.0726 7.59195 54.6538 8.3887C55.1511 8.60716 55.5592 8.97983 55.9545 9.3525C55.9672 9.00553 55.9545 8.64571 55.9672 8.28589C56.8216 8.29874 57.6759 8.28589 58.543 8.29874V19.6331C58.5303 21.3422 58.0967 23.1541 56.8726 24.4007C55.5337 25.7757 53.4806 26.1998 51.6317 25.917C49.6552 25.6215 47.9337 24.1693 47.1686 22.3317C47.9337 21.959 48.7371 21.6635 49.5277 21.3165C49.974 22.3703 50.8793 23.2698 52.0142 23.4754C53.1491 23.681 54.4625 23.3983 55.2021 22.4474C55.9927 21.4707 55.9927 20.1342 55.9545 18.9391C55.3679 19.5174 54.6921 20.0314 53.8759 20.2242C52.1035 20.7254 50.1525 20.1085 48.7881 18.9006C47.4109 17.6926 46.5948 15.8292 46.6713 13.9787C46.7096 11.8841 47.8827 9.86653 49.6552 8.77422ZM52.2948 10.4191C51.5169 10.5476 50.7901 10.9845 50.2928 11.5885C49.0941 13.0278 49.0941 15.3281 50.3055 16.7416C50.9941 17.5769 52.1035 18.0396 53.1746 17.9239C54.182 17.8211 55.1129 17.1786 55.6102 16.2919C56.4518 14.7883 56.3115 12.7451 55.1766 11.4343C54.4753 10.6247 53.3531 10.2263 52.2948 10.4191Z" fill="white"/>
<path d="M66.5 9.4295C68.0302 7.99023 70.3893 7.5019 72.353 8.26009C74.2148 8.96688 75.4007 10.7531 76 12.5908C73.2329 13.7473 70.4785 14.891 67.7114 16.0476C68.094 16.7801 68.6806 17.4483 69.4712 17.7182C70.5806 18.1166 71.9067 17.9752 72.8376 17.2299C73.2074 16.9472 73.5007 16.5745 73.7812 16.2147C74.4826 16.6901 75.1839 17.1528 75.8852 17.6282C74.8906 19.1318 73.2201 20.1855 71.4222 20.3526C69.4329 20.5968 67.3161 19.8257 66.0282 18.2579C63.9114 15.7906 64.1155 11.6527 66.5 9.4295ZM67.8644 11.8069C67.4309 12.4366 67.2524 13.2076 67.2651 13.9658C69.1141 13.1948 70.9631 12.4237 72.8121 11.6398C72.5061 10.9202 71.7665 10.4833 71.0141 10.3676C69.8027 10.1491 68.5403 10.8045 67.8644 11.8069Z" fill="white"/>
<path d="M240.334 12.5C240.334 10.1989 242.199 8.333 244.501 8.333C246.802 8.333 248.668 10.1989 248.668 12.5C248.668 14.8011 246.802 16.667 244.501 16.667C242.199 16.667 240.334 14.8011 240.334 12.5ZM238.082 12.5C238.082 16.045 240.955 18.9186 244.501 18.9186C248.046 18.9186 250.919 16.045 250.919 12.5C250.919 8.955 248.046 6.0814 244.501 6.0814C240.955 6.0814 238.082 8.955 238.082 12.5ZM249.673 5.8269C249.673 6.12357 249.761 6.41362 249.926 6.66036C250.091 6.9071 250.325 7.09945 250.599 7.21309C250.873 7.32673 251.175 7.35656 251.466 7.29879C251.757 7.24103 252.024 7.09828 252.234 6.88858C252.444 6.67889 252.587 6.41167 252.645 6.12072C252.703 5.82978 252.673 5.52816 252.56 5.25403C252.446 4.97989 252.254 4.74555 252.007 4.58063C251.761 4.41571 251.471 4.32762 251.174 4.3275C250.776 4.32769 250.394 4.4857 250.113 4.76683C249.832 5.04797 249.674 5.42924 249.673 5.8269ZM239.45 22.6747C238.232 22.6192 237.569 22.4162 237.129 22.2447C236.545 22.0175 236.129 21.7469 235.691 21.3097C235.253 20.8725 234.982 20.4565 234.756 19.8729C234.584 19.4329 234.381 18.7703 234.326 17.5516C234.265 16.234 234.253 15.8382 234.253 12.5001C234.253 9.162 234.266 8.7673 234.326 7.4486C234.381 6.2299 234.586 5.5686 234.756 5.1273C234.983 4.5437 235.254 4.1273 235.691 3.6895C236.128 3.2517 236.544 2.9807 237.129 2.7545C237.569 2.5829 238.232 2.3799 239.45 2.3245C240.768 2.2639 241.164 2.2518 244.501 2.2518C247.837 2.2518 248.233 2.2649 249.552 2.3245C250.771 2.38 251.432 2.5845 251.874 2.7545C252.457 2.9807 252.874 3.2523 253.311 3.6895C253.749 4.1267 254.019 4.5437 254.246 5.1273C254.418 5.5673 254.621 6.2299 254.677 7.4486C254.737 8.7673 254.749 9.162 254.749 12.5001C254.749 15.8382 254.737 16.2329 254.677 17.5516C254.621 18.7703 254.417 19.4327 254.246 19.8729C254.019 20.4565 253.749 20.8729 253.311 21.3097C252.874 21.7465 252.457 22.0175 251.874 22.2447C251.434 22.4163 250.771 22.6193 249.552 22.6747C248.235 22.7353 247.839 22.7474 244.501 22.7474C241.162 22.7474 240.768 22.7353 239.45 22.6747ZM239.347 0.0757C238.016 0.1363 237.107 0.3473 236.313 0.6563C235.49 0.9754 234.794 1.4035 234.098 2.0981C233.402 2.7927 232.975 3.49 232.656 4.3124C232.347 5.107 232.136 6.0158 232.076 7.3465C232.014 8.6793 232 9.1054 232 12.5C232 15.8946 232.014 16.3207 232.076 17.6535C232.136 18.9843 232.347 19.893 232.656 20.6876C232.975 21.5095 233.403 22.2076 234.098 22.9019C234.794 23.5962 235.49 24.0237 236.313 24.3437C237.108 24.6527 238.016 24.8637 239.347 24.9243C240.68 24.9849 241.106 25 244.501 25C247.895 25 248.321 24.9859 249.654 24.9243C250.985 24.8637 251.894 24.6527 252.688 24.3437C253.51 24.0237 254.207 23.5965 254.903 22.9019C255.599 22.2073 256.025 21.5095 256.345 20.6876C256.654 19.893 256.866 18.9842 256.925 17.6535C256.986 16.3197 257 15.8946 257 12.5C257 9.1054 256.986 8.6793 256.925 7.3465C256.865 6.0157 256.654 5.1065 256.345 4.3124C256.025 3.4905 255.597 2.7938 254.903 2.0981C254.208 1.4024 253.51 0.9754 252.689 0.6563C251.894 0.3473 250.985 0.1353 249.655 0.0757C248.322 0.0151 247.896 0 244.502 0C241.107 0 240.68 0.0141 239.347 0.0757Z" fill="white"/>
<path d="M240.334 12.5C240.334 10.1989 242.199 8.333 244.501 8.333C246.802 8.333 248.668 10.1989 248.668 12.5C248.668 14.8011 246.802 16.667 244.501 16.667C242.199 16.667 240.334 14.8011 240.334 12.5ZM238.082 12.5C238.082 16.045 240.955 18.9186 244.501 18.9186C248.046 18.9186 250.919 16.045 250.919 12.5C250.919 8.955 248.046 6.0814 244.501 6.0814C240.955 6.0814 238.082 8.955 238.082 12.5ZM249.673 5.8269C249.673 6.12357 249.761 6.41362 249.926 6.66036C250.091 6.9071 250.325 7.09945 250.599 7.21309C250.873 7.32673 251.175 7.35656 251.466 7.29879C251.757 7.24103 252.024 7.09828 252.234 6.88858C252.444 6.67889 252.587 6.41167 252.645 6.12072C252.703 5.82978 252.673 5.52816 252.56 5.25403C252.446 4.97989 252.254 4.74555 252.007 4.58063C251.761 4.41571 251.471 4.32762 251.174 4.3275C250.776 4.32769 250.394 4.4857 250.113 4.76683C249.832 5.04797 249.674 5.42924 249.673 5.8269ZM239.45 22.6747C238.232 22.6192 237.569 22.4162 237.129 22.2447C236.545 22.0175 236.129 21.7469 235.691 21.3097C235.253 20.8725 234.982 20.4565 234.756 19.8729C234.584 19.4329 234.381 18.7703 234.326 17.5516C234.265 16.234 234.253 15.8382 234.253 12.5001C234.253 9.162 234.266 8.7673 234.326 7.4486C234.381 6.2299 234.586 5.5686 234.756 5.1273C234.983 4.5437 235.254 4.1273 235.691 3.6895C236.128 3.2517 236.544 2.9807 237.129 2.7545C237.569 2.5829 238.232 2.3799 239.45 2.3245C240.768 2.2639 241.164 2.2518 244.501 2.2518C247.837 2.2518 248.233 2.2649 249.552 2.3245C250.771 2.38 251.432 2.5845 251.874 2.7545C252.457 2.9807 252.874 3.2523 253.311 3.6895C253.749 4.1267 254.019 4.5437 254.246 5.1273C254.418 5.5673 254.621 6.2299 254.677 7.4486C254.737 8.7673 254.749 9.162 254.749 12.5001C254.749 15.8382 254.737 16.2329 254.677 17.5516C254.621 18.7703 254.417 19.4327 254.246 19.8729C254.019 20.4565 253.749 20.8729 253.311 21.3097C252.874 21.7465 252.457 22.0175 251.874 22.2447C251.434 22.4163 250.771 22.6193 249.552 22.6747C248.235 22.7353 247.839 22.7474 244.501 22.7474C241.162 22.7474 240.768 22.7353 239.45 22.6747ZM239.347 0.0757C238.016 0.1363 237.107 0.3473 236.313 0.6563C235.49 0.9754 234.794 1.4035 234.098 2.0981C233.402 2.7927 232.975 3.49 232.656 4.3124C232.347 5.107 232.136 6.0158 232.076 7.3465C232.014 8.6793 232 9.1054 232 12.5C232 15.8946 232.014 16.3207 232.076 17.6535C232.136 18.9843 232.347 19.893 232.656 20.6876C232.975 21.5095 233.403 22.2076 234.098 22.9019C234.794 23.5962 235.49 24.0237 236.313 24.3437C237.108 24.6527 238.016 24.8637 239.347 24.9243C240.68 24.9849 241.106 25 244.501 25C247.895 25 248.321 24.9859 249.654 24.9243C250.985 24.8637 251.894 24.6527 252.688 24.3437C253.51 24.0237 254.207 23.5965 254.903 22.9019C255.599 22.2073 256.025 21.5095 256.345 20.6876C256.654 19.893 256.866 18.9842 256.925 17.6535C256.986 16.3197 257 15.8946 257 12.5C257 9.1054 256.986 8.6793 256.925 7.3465C256.865 6.0157 256.654 5.1065 256.345 4.3124C256.025 3.4905 255.597 2.7938 254.903 2.0981C254.208 1.4024 253.51 0.9754 252.689 0.6563C251.894 0.3473 250.985 0.1353 249.655 0.0757C248.322 0.0151 247.896 0 244.502 0C241.107 0 240.68 0.0141 239.347 0.0757Z" fill="white"/>
<path d="M352.522 9.10003H349.066V6.50004C349.066 5.15844 349.187 4.31344 351.314 4.31344H352.562C353.356 4.31344 354 3.73104 354 3.01344V1.38325C354 0.703347 353.423 0.122249 352.673 0.0767486C351.804 0.0234487 350.934 -0.00125129 350.063 4.87093e-05C346.161 4.87093e-05 343.314 2.15414 343.314 6.10874V9.10003H340.438C339.644 9.10003 339 9.68243 339 10.4V13C339 13.7176 339.644 14.3 340.438 14.3L343.314 14.2987V24.7C343.314 25.4176 343.958 26 344.752 26H347.628C348.422 26 349.066 25.4176 349.066 24.7V14.2961L352.192 14.2948C352.923 14.2948 353.537 13.7995 353.62 13.143L353.95 10.5482C354.049 9.77733 353.382 9.10003 352.522 9.10003Z" fill="white"/>
</svg>
