<svg width="417" height="29" viewBox="0 0 417 29" fill="none" xmlns="http://www.w3.org/2000/svg">
<path d="M230 9H232.204L232.168 13.9455L232.113 18.9091L230 19.0182V22.6364H242.308V19.0182L240.012 18.9091V9.09091L242.308 8.98182V5H230V9Z" fill="white"/>
<path d="M243.226 12.8L244.016 12.8545L244.788 12.9091V18.9091L244.016 18.9636L243.226 19.0182V22.6364H252.779V19.0182L251.916 18.9636L251.034 18.9091L250.979 16.9091C250.924 15.2909 250.979 14.8 251.236 14.3091C251.952 12.9818 254.065 12.5091 255.038 13.4727C255.645 14.0727 255.755 14.6182 255.681 17L255.626 18.9091L253.789 19.0182V22.6364H263.25V20.9091C263.25 19.1091 263.415 18.8 263.874 19.6727C264.903 21.6364 268.026 23 271.48 23C274.162 23 276.366 22.2727 277.523 21.0182C278.075 20.4182 278.864 18.8545 278.864 18.3273C278.864 17.9455 278.791 17.9273 276.384 17.8727L273.923 17.8182L273.629 18.5455C273.298 19.4364 272.563 19.9091 271.516 19.9091C270.469 19.9091 269.588 19.3455 269.275 18.4909C268.945 17.5455 268.963 14.3273 269.312 13.6545C269.955 12.4 271.608 11.9818 272.729 12.7636C273.188 13.0909 273.372 13.4182 273.574 14.2182C273.721 14.8 273.904 15.2727 273.996 15.2727C274.786 15.2364 277.964 14.9636 278.368 14.8909C278.864 14.7818 278.883 14.7455 278.773 14.1273C278.607 13.2909 277.928 11.9636 277.303 11.3091C276.072 10.0182 274.125 9.32727 271.7 9.29091C267.732 9.23636 264.352 11 263.323 13.6364C262.938 14.6182 262.846 16.8364 263.121 18.2182L263.287 19H261.817L261.743 15.8545C261.688 12.7636 261.67 12.6727 261.137 11.6182C260.66 10.6909 260.439 10.4727 259.502 10.0182C258.602 9.56364 258.18 9.45455 256.747 9.4C255.571 9.34545 254.781 9.41818 254.12 9.6C253.036 9.92727 251.603 10.8182 251.309 11.3636C250.942 12.0364 250.758 11.7273 250.758 10.4545V9.18182H243.226V12.8Z" fill="white"/>
<path d="M280.04 18.6364C279.397 18.8909 278.681 19.8909 278.681 20.5273C278.681 21.3636 279.379 22.3091 280.187 22.5818C281.932 23.1455 283.53 21.5091 282.832 19.8545C282.373 18.7636 281.106 18.2 280.04 18.6364Z" fill="white"/>
<path fill-rule="evenodd" clip-rule="evenodd" d="M368.819 5C368.506 5.65114 368.238 6.22493 367.955 6.79141C366.65 9.39283 365.357 11.9995 364.026 14.5868C363.698 15.2222 363.688 15.7542 364.019 16.3991C365.525 19.3308 366.987 22.2844 368.462 25.2308C368.574 25.4555 368.67 25.6896 368.811 26H336V5H368.819ZM365.087 7.28682H338.297V23.6823H365.057C364.897 23.3353 364.778 23.0568 364.642 22.7866C363.574 20.6425 362.522 18.49 361.423 16.362C361.105 15.7454 361.108 15.2259 361.428 14.6208C362.116 13.3237 362.754 12.0005 363.408 10.6857C363.955 9.58514 364.496 8.48354 365.087 7.28682Z" fill="white"/>
<path fill-rule="evenodd" clip-rule="evenodd" d="M346.857 21.037L344.203 17.4197H343.685V21.037H340.757V9.65512H345.337C346.599 9.65512 347.616 9.96031 348.388 10.5712C349.159 11.1826 349.561 12.1259 349.593 13.401C349.593 15.4166 348.843 16.6588 347.343 17.1307L350.466 21.0375H346.858L346.857 21.037ZM343.685 14.9437H345.384C345.956 14.9437 346.36 14.7273 346.597 14.293C346.834 13.8593 346.834 13.4245 346.597 12.9908C346.361 12.557 345.956 12.3402 345.384 12.3402H343.685V14.9447L343.685 14.9437ZM359.742 13.1261C359.732 13.4376 359.628 13.7762 359.427 14.1399C359.231 14.5 358.929 14.7918 358.561 14.9761C359.263 15.3293 359.731 15.8017 359.967 16.3917C360.206 16.9817 360.276 17.5498 360.178 18.0954C359.865 20.0577 358.506 21.0375 356.1 21.0375H351.423V9.6546H356.02C357.141 9.6546 358.05 9.96815 358.746 10.5952C359.442 11.2213 359.775 12.0648 359.743 13.1272L359.742 13.1261ZM354.337 14.1075H356.02C356.463 14.1075 356.779 13.9382 356.969 13.6006C357.157 13.2625 357.16 12.9265 356.976 12.5879C356.794 12.2487 356.476 12.081 356.022 12.081H354.339V14.1075H354.337ZM354.337 18.5129H356.02C356.571 18.5129 356.957 18.318 357.179 17.9255C357.4 17.5357 357.398 17.1458 357.172 16.7602C356.943 16.3734 356.56 16.1811 356.021 16.1811H354.338V18.5134L354.337 18.5129Z" fill="white"/>
<path d="M372.941 19.2074L371.006 16.5684H370.628V19.2074H368.493V10.9067H371.833C372.753 10.9067 373.495 11.1293 374.057 11.5746C374.62 12.0203 374.913 12.7086 374.936 13.6388C374.936 15.1083 374.389 16.015 373.295 16.3588L375.573 19.2079L372.941 19.2074ZM370.627 14.7634H371.867C372.284 14.7634 372.579 14.6045 372.751 14.2889C372.925 13.9722 372.925 13.6555 372.751 13.3388C372.578 13.0221 372.283 12.8643 371.867 12.8643H370.628L370.627 14.7634ZM378.015 10.9067V16.4288C378.015 16.6797 378.098 16.8913 378.264 17.068C378.429 17.2436 378.627 17.3502 378.86 17.3904C379.091 17.4296 379.327 17.4296 379.562 17.3904C379.799 17.3507 379.999 17.2441 380.164 17.068C380.329 16.8913 380.413 16.6792 380.413 16.4288V10.9062H382.548V16.4288C382.548 16.8511 382.472 17.2362 382.318 17.5838C382.179 17.9134 381.967 18.208 381.699 18.446C381.43 18.6791 381.13 18.8743 380.807 19.0261C380.478 19.1854 380.122 19.2828 379.757 19.3135C379.391 19.3449 379.023 19.3449 378.653 19.3135C378.286 19.2828 377.928 19.1854 377.597 19.0261C377.276 18.8752 376.978 18.6799 376.712 18.446C376.456 18.2203 376.254 17.9318 376.104 17.5838C375.955 17.2368 375.88 16.8511 375.88 16.4288V10.9062H378.016L378.015 10.9067ZM383.269 17.8241L384.602 16.5804C384.76 16.7764 384.958 16.941 385.198 17.0732C385.438 17.2054 385.677 17.2927 385.912 17.3308C386.149 17.37 386.373 17.3794 386.584 17.3596C386.797 17.3402 386.974 17.276 387.116 17.1662C387.257 17.0575 387.331 16.9154 387.34 16.744C387.348 16.5245 387.209 16.3458 386.926 16.2047C386.644 16.0636 386.306 15.9658 385.911 15.912C385.18 15.7939 384.568 15.5112 384.077 15.0612C383.585 14.6118 383.339 14.0161 383.339 13.273C383.339 12.4995 383.636 11.8918 384.23 11.4492C384.824 11.0076 385.534 10.7876 386.36 10.7876C387.533 10.7876 388.485 11.2291 389.217 12.1118L387.836 13.1674C387.567 12.8793 387.224 12.6703 386.844 12.5633C386.467 12.4577 386.138 12.4656 385.858 12.5868C385.579 12.7081 385.435 12.9255 385.427 13.238C385.451 13.5964 385.821 13.8546 386.536 14.0114C386.875 14.073 387.17 14.1399 387.421 14.21C387.674 14.281 387.937 14.3876 388.212 14.5329C388.487 14.6777 388.709 14.8454 388.88 15.0367C389.048 15.2285 389.185 15.4788 389.286 15.7876C389.388 16.096 389.431 16.4461 389.416 16.8365C389.396 17.3356 389.202 17.8123 388.867 18.1847C388.533 18.5707 388.107 18.8672 387.628 19.047C387.145 19.2309 386.639 19.324 386.112 19.324C385.6 19.324 385.092 19.1933 384.589 18.9357C384.086 18.6775 383.647 18.307 383.27 17.8226L383.269 17.8241ZM396.262 13.4381C396.254 13.6654 396.178 13.9121 396.032 14.1776C395.889 14.4403 395.669 14.6531 395.401 14.7874C395.912 15.045 396.254 15.3894 396.426 15.8195C396.6 16.2496 396.651 16.664 396.58 17.0622C396.352 18.4931 395.361 19.2079 393.606 19.2079H390.195V10.9067H393.547C394.365 10.9067 395.028 11.1356 395.535 11.5923C396.043 12.0491 396.286 12.6647 396.262 13.4392V13.4381ZM392.32 14.154H393.548C393.871 14.154 394.101 14.0302 394.239 13.7846C394.376 13.5379 394.378 13.2923 394.245 13.0456C394.112 12.7985 393.88 12.6762 393.549 12.6762H392.321V14.154H392.32ZM392.32 17.3669H393.548C393.949 17.3669 394.23 17.2247 394.392 16.9384C394.553 16.6541 394.552 16.3698 394.387 16.0886C394.22 15.8065 393.941 15.6664 393.548 15.6664H392.321V17.3669H392.32ZM401.372 10.9062L404.358 19.2079H402.093L401.549 17.543H399.319L398.799 19.2085H396.533L399.448 10.9072H401.372V10.9062ZM399.791 15.6774H401.043L400.464 13.251H400.405L399.791 15.6779L399.791 15.6774ZM404.252 17.8241L405.585 16.5804C405.743 16.7764 405.941 16.941 406.181 17.0732C406.422 17.2054 406.66 17.2927 406.897 17.3308C407.132 17.37 407.357 17.3794 407.568 17.3596C407.781 17.3402 407.958 17.276 408.1 17.1662C408.241 17.0575 408.315 16.9154 408.324 16.744C408.332 16.5245 408.193 16.3458 407.91 16.2047C407.628 16.0636 407.29 15.9658 406.895 15.912C406.164 15.7939 405.552 15.5112 405.061 15.0612C404.569 14.6118 404.323 14.0161 404.323 13.273C404.323 12.4995 404.619 11.8918 405.213 11.4492C405.807 11.0076 406.517 10.7876 407.343 10.7876C408.516 10.7876 409.468 11.2291 410.2 12.1118L408.819 13.1674C408.55 12.8794 408.207 12.6704 407.827 12.5633C407.449 12.4577 407.121 12.4656 406.841 12.5868C406.562 12.7081 406.418 12.9255 406.41 13.238C406.434 13.5964 406.804 13.8546 407.519 14.0114C407.858 14.073 408.153 14.1399 408.404 14.21C408.657 14.281 408.92 14.3876 409.195 14.5329C409.47 14.6777 409.692 14.8454 409.863 15.0367C410.031 15.2285 410.168 15.4788 410.269 15.7876C410.371 16.096 410.414 16.4461 410.399 16.8365C410.379 17.3356 410.185 17.8123 409.85 18.1847C409.508 18.5767 409.094 18.8641 408.611 19.047C408.127 19.2309 407.621 19.324 407.094 19.324C406.583 19.324 406.074 19.1933 405.571 18.9357C405.069 18.6775 404.631 18.307 404.253 17.8226L404.252 17.8241ZM413.317 12.8753V14.1661H416.704V15.9831H413.317V17.2258H417V19.2079H411.181V10.9067H416.999V12.8769L413.316 12.8758L413.317 12.8753Z" fill="white"/>
<path d="M156.205 11.4783C153.591 11.4783 151.703 9.39769 151.703 6.83962C151.703 4.28156 153.563 2.08449 156.284 2.08449C157.49 2.08449 158.347 2.3601 159.093 2.81426V5.06179H161.342V1.7856L160.91 1.45565C159.672 0.504626 157.784 0 156.205 0C152.349 0 149.215 3.06657 149.215 6.83962C149.215 10.6127 152.349 13.6792 156.205 13.6792C158.613 13.6792 160.426 12.6972 161.763 10.9892L159.977 9.65388C159.069 10.8145 157.697 11.4783 156.205 11.4783ZM141.393 9.97607H141.341L137.958 0.322184H133.796V2.52313H136.137L140.167 13.5279H142.309V13.524L146.51 2.52313H148.696V0.322184H144.792L141.393 9.97607Z" fill="white"/>
<path d="M162.219 26.5535L162.138 23.4591V15.9098H157.375V18.0706H159.732V23.1885C159.732 25.395 157.947 26.9536 156.15 26.9536C154.353 26.9536 153.414 25.776 153.414 23.5696V15.9098H148.965V18.0706H151.008V23.9507C151.008 26.9422 152.781 29 155.948 29C157.766 29 159.152 28.0511 159.978 26.5763H160.015L160.341 28.6342H164V26.5496H162.219V26.5535ZM131 28.7028H133.349V26.481H131V28.7028ZM140.083 18.4135H140.055L139.906 15.9098H135.707V17.88H137.943V26.5496H135.707V28.6342H146.079V26.5878H140.309V21.3555C140.571 19.4615 142.07 17.8419 144.121 17.8419H144.157L144.117 19.7778H146.402V15.8679H144.601C142.529 15.8679 140.994 16.9273 140.083 18.4135Z" fill="white"/>
<path fill-rule="evenodd" clip-rule="evenodd" d="M63.6809 10.6316H66.5231V20.1053H63.6809V10.6316ZM71.3192 15.0175V20.1053H68.477V10.6316H71.3192V11.9474C72.3278 11.2803 72.3384 10.4561 74.7829 10.4561C77.8863 10.4561 78.0692 13.2685 78.0692 15.3684V20.1053H75.227V14.8421C75.227 13.9445 74.5147 12.9123 73.4508 12.9123C72.4357 12.9123 71.3192 13.9882 71.3192 15.0175ZM65.2795 8.87717H64.8355C63.6732 8.87717 62.9837 6.9877 63.9845 6.10687C65.156 5.07627 66.7894 5.93458 66.7894 7.29831C66.7894 8.12318 66.116 8.87717 65.2795 8.87717ZM60.75 4.31579V21.6842C60.75 22.3848 61.3729 23 62.0822 23H79.6678C80.377 23 81 22.3848 81 21.6842V4.31579C81 3.61527 80.377 3 79.6678 3H62.0822C61.3729 3 60.75 3.61527 60.75 4.31579Z" fill="white"/>
<path fill-rule="evenodd" clip-rule="evenodd" d="M52.7566 18C51.9573 18 51.348 17.8296 50.8259 17.3631C49.8243 16.4684 49.8206 14.2249 50.8371 13.3849C51.9231 12.4876 53.3258 12.5274 54.3054 13.4879C55.7681 14.9223 54.9176 18 52.7566 18ZM54.8882 11.4211C54.1288 10.9189 53.5224 10.2807 52.046 10.2807C47.1553 10.2807 45.8783 16.2474 48.4694 18.901C48.8985 19.3404 49.2908 19.6771 49.8823 19.9616C51.141 20.5671 52.6407 20.6795 53.9138 20.0201C54.4423 19.7465 54.6527 19.4135 55.0658 19.1403C55.0658 20.4495 54.577 20.193 57.908 20.193V5.80706C54.3727 5.80706 54.8834 5.52381 54.888 6.94723L54.8882 11.4211Z" fill="white"/>
<path fill-rule="evenodd" clip-rule="evenodd" d="M27 20.193H29.931V15.6316C29.9448 15.6472 29.9658 15.6513 29.9716 15.6793L30.1259 15.8777C30.2155 15.9999 30.2575 16.0592 30.3503 16.1824L33.2172 20.193H36.8587C36.7568 19.8163 34.3421 16.7037 34.0038 16.2583C33.6552 15.7995 33.3598 15.4023 33.0395 14.9298L33.9054 13.8553C34.2854 13.4613 36.6014 10.8382 36.681 10.5439C35.7932 10.5439 34.9026 10.5509 34.0151 10.5426C33.8624 10.5411 33.5339 10.5276 33.3985 10.5476C33.0704 10.596 33.1301 10.6243 32.9593 10.8155L29.931 14.4035V5.80705H27V20.193Z" fill="white"/>
<path fill-rule="evenodd" clip-rule="evenodd" d="M18.3849 11.772C18.3849 10.2657 18.8991 10.5439 15.6316 10.5439C15.4269 10.5439 15.3651 10.6049 15.3651 10.8071V20.193H18.3849V15.0176C18.3849 12.7656 22.1151 12.1235 22.1151 15.0176V20.193H25.1349V14.2281C25.1349 13.1974 24.8002 12.1037 24.3109 11.5331C23.1567 10.1875 21.0548 10.0468 19.568 10.8352C18.9464 11.1647 18.8475 11.466 18.3849 11.772Z" fill="white"/>
<path fill-rule="evenodd" clip-rule="evenodd" d="M41.5659 12.4737C42.1483 12.4737 42.6465 12.6971 42.9691 13.0177C43.2824 13.3292 43.4734 13.8524 43.5198 14.4035H39.5231C39.5231 13.3063 40.4427 12.4737 41.5659 12.4737ZM36.5922 15.0175C36.5922 16.6653 36.8784 17.8487 37.9879 18.99C40.2428 21.3094 44.5129 20.6861 45.9178 18.614C45.6013 18.1472 44.4599 17.7275 44.1415 17.2982C43.3371 17.8303 42.9928 18.2632 41.6546 18.2632C40.5133 18.2632 39.5231 17.4496 39.5231 16.3333H46.2731V15.4562C46.2731 8.0096 36.5922 9.24989 36.5922 15.0175Z" fill="white"/>
<path fill-rule="evenodd" clip-rule="evenodd" d="M0 20.193H8.70396V17.4737C8.70396 17.2716 8.64211 17.2105 8.43751 17.2105H2.93089V5.80705H0V20.193Z" fill="white"/>
<path fill-rule="evenodd" clip-rule="evenodd" d="M10.569 10.8071V20.193H13.4999V10.5439H10.8355C10.6309 10.5439 10.569 10.6049 10.569 10.8071Z" fill="white"/>
<path fill-rule="evenodd" clip-rule="evenodd" d="M10.3915 7.21057C10.3915 9.01699 12.4407 9.4333 13.3478 8.46362C14.4195 7.31806 13.6196 5.72732 12.2223 5.57451C11.2809 5.47157 10.3915 6.29824 10.3915 7.21057Z" fill="white"/>
</svg>
