<svg width="110" height="23" viewBox="0 0 110 23" fill="none" xmlns="http://www.w3.org/2000/svg">
<g opacity="0.7">
<path fill-rule="evenodd" clip-rule="evenodd" d="M6.58542 1.03088C5.69352 1.09803 4.61467 1.32971 3.88446 1.61082C1.44697 2.5493 0.0933077 4.73558 0.308592 7.38616C0.455684 9.19734 1.19888 10.4173 2.66718 11.258C3.33309 11.6392 3.87692 11.8081 6.60567 12.4812C8.05352 12.8383 9.46813 13.1981 9.74922 13.2807C10.7385 13.5714 11.4515 14.0162 11.6967 14.4955C11.8551 14.8053 11.9146 15.2626 11.8485 15.6622C11.6872 16.636 11.0078 17.2674 9.79161 17.5735C8.96664 17.7812 7.82908 17.8514 6.98932 17.7463C5.14283 17.5154 4.06441 16.6305 3.82133 15.147L3.74623 14.6887H1.87311H0L0.0284741 15.2349C0.0755417 16.1381 0.372063 17.1025 0.854371 17.9211C1.16165 18.4426 1.99777 19.3111 2.52179 19.653C3.56813 20.3358 4.84567 20.7584 6.46374 20.9569C7.10793 21.0359 8.87489 21.0383 9.45718 20.9609C10.8664 20.7735 12.116 20.3586 13.1077 19.7488L13.4241 19.5544L13.4379 20.0588L13.4517 20.5633H15.2997H17.1476L17.1497 18.3179L17.1518 16.0724L17.9287 15.2713C18.6511 14.5263 18.7097 14.477 18.7659 14.5673C18.7991 14.6207 19.5622 15.9862 20.4615 17.6017L22.0967 20.5391L24.2948 20.5517C25.5039 20.5586 26.493 20.5533 26.493 20.5399C26.493 20.5265 25.3526 18.5806 23.9589 16.2156C22.5651 13.8506 21.4316 11.8957 21.44 11.8714C21.4484 11.847 22.4847 10.6981 23.7429 9.31818C25.0012 7.93823 26.1035 6.725 26.1926 6.62217L26.3546 6.4351L24.0996 6.43767L21.8447 6.44025L19.5083 9.1197L17.172 11.7992L17.1596 6.64105L17.1472 1.48294H15.2978H13.4484V2.28402C13.4484 2.72462 13.431 3.08511 13.4096 3.08511C13.3883 3.08511 13.2843 2.9949 13.1784 2.88464C12.4429 2.11837 11.0694 1.44735 9.72128 1.19566C8.77613 1.01918 7.57744 0.956211 6.58542 1.03088ZM8.41069 4.32198C8.99628 4.41719 9.31777 4.51638 9.71899 4.72554C10.5343 5.1506 11.0661 5.91274 11.2002 6.84836L11.2349 7.09053L12.3417 7.10359L13.4484 7.11665V8.9121C13.4484 9.89957 13.4403 10.7076 13.4304 10.7076C13.4204 10.7076 13.1834 10.5985 12.9038 10.4653C12.1991 10.1295 11.4649 9.89909 9.82223 9.49816C9.04588 9.30867 7.73261 8.98799 6.90384 8.78553C5.33591 8.40256 4.91902 8.25604 4.55806 7.961C4.17874 7.65095 3.9582 7.13457 3.9582 6.55648C3.9582 5.39864 4.80561 4.60197 6.3294 4.32718C6.83283 4.23639 7.86851 4.23377 8.41069 4.32198Z" fill="white"/>
<path fill-rule="evenodd" clip-rule="evenodd" d="M37 6.00335C37 8.40746 38.4684 10.8837 40.7142 12.0064L40.8726 11.7618C38.2813 10.1063 37.7342 7.88924 37.7342 6.00335C37.7342 4.11747 38.2813 1.90037 40.8726 0.244625L40.7142 0C38.4684 1.12304 37 3.59892 37 6.00335ZM53.5877 1.35321C53.5877 1.05097 53.703 0.935736 53.9334 0.935736H54.8115V0.64798H51.8891V0.935736H52.9111C53.1416 0.935736 53.2568 1.05097 53.2568 1.35321V9.90455L46.7784 0.64798H45.0508V0.935736H45.929C46.1594 0.935736 46.2745 1.05097 46.2745 1.35321V10.0198C46.2745 10.322 46.1594 10.4373 45.929 10.4373H45.0508V10.7253H47.9733V10.4373H46.9512C46.7208 10.4373 46.6056 10.322 46.6056 10.0198V1.49709L53.0695 10.7253H53.5877V1.35321ZM67.7082 0.935736H68.5863C68.8167 0.935736 68.932 1.05097 68.932 1.35321V10.0198C68.932 10.322 68.8167 10.4373 68.5863 10.4373H67.7082V10.7253H72.603C75.1223 10.7253 76.1301 9.47292 76.1301 7.9324C76.1301 6.34876 75.0792 5.62904 73.7833 5.39858C75.1078 5.02423 75.5543 4.14615 75.5543 3.19596C75.5543 1.61232 74.4744 0.64798 71.8543 0.64798H67.7082V0.935736ZM71.869 0.935722C74.0285 0.935722 74.8344 1.75619 74.8344 3.19595C74.8344 4.31899 74.3307 5.29782 72.1281 5.29782H69.5656V0.935722H71.869ZM75.4103 7.93228C75.4103 9.22784 74.8058 10.4371 72.6463 10.4371H69.911C69.6805 10.4371 69.5656 10.3219 69.5656 10.0197V5.58579H72.3872C74.6619 5.58579 75.4103 6.49252 75.4103 7.93228ZM79.1086 5.3268V0.935736H81.9737C84.1904 0.935736 84.4496 1.03648 84.5072 3.71419H84.8384V0.64798H77.2514V0.935736H78.1298C78.3599 0.935736 78.4752 1.05097 78.4752 1.35321V10.0198C78.4752 10.322 78.3599 10.4373 78.1298 10.4373H77.2514V10.7253H84.8384V7.65881H84.5072C84.4496 10.3365 84.1904 10.4373 81.9737 10.4373H80.8075C79.2239 10.4373 79.1086 10.322 79.1086 9.89039V5.61456H81.2968C82.031 5.61456 82.4343 5.78741 82.4343 6.67998V7.14058H82.7652V3.80078H82.4343V4.26138C82.4343 5.15395 82.031 5.3268 81.2968 5.3268H79.1086ZM86.1059 10.7253H93.6639V7.08297H93.3327C93.2606 10.4086 93.2464 10.4373 90.1799 10.4373C87.9773 10.4373 87.9628 10.3796 87.9628 9.77516V1.35321C87.9628 1.05097 88.078 0.935736 88.3085 0.935736H89.4743V0.64798H86.1059V0.935736H86.984C87.2141 0.935736 87.3293 1.05097 87.3293 1.35321V10.0198C87.3293 10.322 87.2141 10.4373 86.984 10.4373H86.1059V10.7253ZM62.566 12.5914C62.7675 12.0587 62.9548 11.929 63.1994 11.929H63.8618V11.6412H61.0258V11.929H61.8894C62.2351 11.929 62.3645 12.0587 62.2061 12.4907L59.0533 21.1138L56.0589 12.4907C55.9295 12.1308 56.0157 11.929 56.3756 11.929H57.2827V11.6412H54.1154V11.929H54.7778C55.1232 11.929 55.2671 12.1594 55.4544 12.7066L58.6358 21.7186H59.1254L62.566 12.5914ZM64.0668 11.6412V11.929H64.9453C65.1754 11.929 65.2906 12.0442 65.2906 12.3464V21.013C65.2906 21.3156 65.1754 21.4305 64.9453 21.4305H64.0668V21.7186H67.1479V21.4305H66.2695C66.0393 21.4305 65.9241 21.3156 65.9241 21.013V12.3464C65.9241 12.0442 66.0393 11.929 66.2695 11.929H67.1479V11.6412H64.0668ZM75.9622 19.1561C75.9622 17.6877 75.012 16.9535 72.1759 16.248C69.8726 15.6576 69.1239 15.0818 69.1239 13.9015C69.1239 12.361 70.3763 11.7851 71.6432 11.7851C73.2845 11.7851 74.6521 12.7353 75.1559 14.6788H75.5878V11.6413H75.2566L75.1414 13.5416C74.4072 12.2171 73.0971 11.4974 71.5856 11.4974C69.9443 11.4974 68.5767 12.3755 68.5767 14.0454C68.5767 15.4417 69.6131 16.2911 71.9168 16.8383C74.58 17.4573 75.4005 18.0762 75.4005 19.3576C75.4005 20.826 74.2057 21.5747 72.622 21.5747C70.6209 21.5747 69.0086 20.351 68.6919 18.6811H68.3031V21.7186H68.6343L68.764 19.9335C69.5269 21.0707 70.9521 21.8625 72.622 21.8625C74.4361 21.8625 75.9622 20.9413 75.9622 19.1561ZM77.1781 11.6412V11.929H78.0565C78.2867 11.929 78.4019 12.0442 78.4019 12.3464V21.013C78.4019 21.3156 78.2867 21.4305 78.0565 21.4305H77.1781V21.7186H80.2592V21.4305H79.3807C79.1506 21.4305 79.0354 21.3156 79.0354 21.013V12.3464C79.0354 12.0442 79.1506 11.929 79.3807 11.929H80.2592V11.6412H77.1781ZM90.758 16.6799C90.758 13.5558 88.9008 11.4974 86.0933 11.4974C83.2863 11.4974 81.429 13.5558 81.429 16.6799C81.429 19.8038 83.2863 21.8625 86.0933 21.8625C88.9008 21.8625 90.758 19.8038 90.758 16.6799ZM82.1776 16.6799C82.1776 13.6134 83.6174 11.7851 86.0933 11.7851C88.5695 11.7851 90.0379 13.6134 90.0379 16.6799C90.0379 19.7465 88.5985 21.5747 86.1223 21.5747C83.646 21.5747 82.1776 19.7465 82.1776 16.6799ZM100.457 12.3464C100.457 12.0442 100.572 11.929 100.803 11.929H101.681V11.6412H98.7587V11.929H99.7806C100.011 11.929 100.126 12.0442 100.126 12.3464V20.8981L93.6479 11.6412H91.9204V11.929H92.7984C93.0289 11.929 93.1438 12.0442 93.1438 12.3464V21.013C93.1438 21.3156 93.0289 21.4305 92.7984 21.4305H91.9204V21.7186H94.8427V21.4305H93.8207C93.5903 21.4305 93.475 21.3156 93.475 21.013V12.4907L99.939 21.7186H100.457V12.3464ZM105.944 10.9933L105.785 11.2383C108.377 12.8937 108.924 15.1108 108.924 16.9967C108.924 18.8825 108.377 21.0996 105.785 22.7551L105.944 23C108.19 21.877 109.658 19.4008 109.658 16.9967C109.658 14.5925 108.19 12.1163 105.944 10.9933Z" fill="white"/>
<path fill-rule="evenodd" clip-rule="evenodd" d="M37 6.00335C37 8.40746 38.4684 10.8837 40.7142 12.0064L40.8726 11.7618C38.2813 10.1063 37.7342 7.88924 37.7342 6.00335C37.7342 4.11747 38.2813 1.90037 40.8726 0.244625L40.7142 0C38.4684 1.12304 37 3.59892 37 6.00335ZM53.5877 1.35321C53.5877 1.05097 53.703 0.935736 53.9334 0.935736H54.8115V0.64798H51.8891V0.935736H52.9111C53.1416 0.935736 53.2568 1.05097 53.2568 1.35321V9.90455L46.7784 0.64798H45.0508V0.935736H45.929C46.1594 0.935736 46.2745 1.05097 46.2745 1.35321V10.0198C46.2745 10.322 46.1594 10.4373 45.929 10.4373H45.0508V10.7253H47.9733V10.4373H46.9512C46.7208 10.4373 46.6056 10.322 46.6056 10.0198V1.49709L53.0695 10.7253H53.5877V1.35321ZM67.7082 0.935736H68.5863C68.8167 0.935736 68.932 1.05097 68.932 1.35321V10.0198C68.932 10.322 68.8167 10.4373 68.5863 10.4373H67.7082V10.7253H72.603C75.1223 10.7253 76.1301 9.47292 76.1301 7.9324C76.1301 6.34876 75.0792 5.62904 73.7833 5.39858C75.1078 5.02423 75.5543 4.14615 75.5543 3.19596C75.5543 1.61232 74.4744 0.64798 71.8543 0.64798H67.7082V0.935736ZM71.869 0.935722C74.0285 0.935722 74.8344 1.75619 74.8344 3.19595C74.8344 4.31899 74.3307 5.29782 72.1281 5.29782H69.5656V0.935722H71.869ZM75.4103 7.93228C75.4103 9.22784 74.8058 10.4371 72.6463 10.4371H69.911C69.6805 10.4371 69.5656 10.3219 69.5656 10.0197V5.58579H72.3872C74.6619 5.58579 75.4103 6.49252 75.4103 7.93228ZM79.1086 5.3268V0.935736H81.9737C84.1904 0.935736 84.4496 1.03648 84.5072 3.71419H84.8384V0.64798H77.2514V0.935736H78.1298C78.3599 0.935736 78.4752 1.05097 78.4752 1.35321V10.0198C78.4752 10.322 78.3599 10.4373 78.1298 10.4373H77.2514V10.7253H84.8384V7.65881H84.5072C84.4496 10.3365 84.1904 10.4373 81.9737 10.4373H80.8075C79.2239 10.4373 79.1086 10.322 79.1086 9.89039V5.61456H81.2968C82.031 5.61456 82.4343 5.78741 82.4343 6.67998V7.14058H82.7652V3.80078H82.4343V4.26138C82.4343 5.15395 82.031 5.3268 81.2968 5.3268H79.1086ZM86.1059 10.7253H93.6639V7.08297H93.3327C93.2606 10.4086 93.2464 10.4373 90.1799 10.4373C87.9773 10.4373 87.9628 10.3796 87.9628 9.77516V1.35321C87.9628 1.05097 88.078 0.935736 88.3085 0.935736H89.4743V0.64798H86.1059V0.935736H86.984C87.2141 0.935736 87.3293 1.05097 87.3293 1.35321V10.0198C87.3293 10.322 87.2141 10.4373 86.984 10.4373H86.1059V10.7253ZM62.566 12.5914C62.7675 12.0587 62.9548 11.929 63.1994 11.929H63.8618V11.6412H61.0258V11.929H61.8894C62.2351 11.929 62.3645 12.0587 62.2061 12.4907L59.0533 21.1138L56.0589 12.4907C55.9295 12.1308 56.0157 11.929 56.3756 11.929H57.2827V11.6412H54.1154V11.929H54.7778C55.1232 11.929 55.2671 12.1594 55.4544 12.7066L58.6358 21.7186H59.1254L62.566 12.5914ZM64.0668 11.6412V11.929H64.9453C65.1754 11.929 65.2906 12.0442 65.2906 12.3464V21.013C65.2906 21.3156 65.1754 21.4305 64.9453 21.4305H64.0668V21.7186H67.1479V21.4305H66.2695C66.0393 21.4305 65.9241 21.3156 65.9241 21.013V12.3464C65.9241 12.0442 66.0393 11.929 66.2695 11.929H67.1479V11.6412H64.0668ZM75.9622 19.1561C75.9622 17.6877 75.012 16.9535 72.1759 16.248C69.8726 15.6576 69.1239 15.0818 69.1239 13.9015C69.1239 12.361 70.3763 11.7851 71.6432 11.7851C73.2845 11.7851 74.6521 12.7353 75.1559 14.6788H75.5878V11.6413H75.2566L75.1414 13.5416C74.4072 12.2171 73.0971 11.4974 71.5856 11.4974C69.9443 11.4974 68.5767 12.3755 68.5767 14.0454C68.5767 15.4417 69.6131 16.2911 71.9168 16.8383C74.58 17.4573 75.4005 18.0762 75.4005 19.3576C75.4005 20.826 74.2057 21.5747 72.622 21.5747C70.6209 21.5747 69.0086 20.351 68.6919 18.6811H68.3031V21.7186H68.6343L68.764 19.9335C69.5269 21.0707 70.9521 21.8625 72.622 21.8625C74.4361 21.8625 75.9622 20.9413 75.9622 19.1561ZM77.1781 11.6412V11.929H78.0565C78.2867 11.929 78.4019 12.0442 78.4019 12.3464V21.013C78.4019 21.3156 78.2867 21.4305 78.0565 21.4305H77.1781V21.7186H80.2592V21.4305H79.3807C79.1506 21.4305 79.0354 21.3156 79.0354 21.013V12.3464C79.0354 12.0442 79.1506 11.929 79.3807 11.929H80.2592V11.6412H77.1781ZM90.758 16.6799C90.758 13.5558 88.9008 11.4974 86.0933 11.4974C83.2863 11.4974 81.429 13.5558 81.429 16.6799C81.429 19.8038 83.2863 21.8625 86.0933 21.8625C88.9008 21.8625 90.758 19.8038 90.758 16.6799ZM82.1776 16.6799C82.1776 13.6134 83.6174 11.7851 86.0933 11.7851C88.5695 11.7851 90.0379 13.6134 90.0379 16.6799C90.0379 19.7465 88.5985 21.5747 86.1223 21.5747C83.646 21.5747 82.1776 19.7465 82.1776 16.6799ZM100.457 12.3464C100.457 12.0442 100.572 11.929 100.803 11.929H101.681V11.6412H98.7587V11.929H99.7806C100.011 11.929 100.126 12.0442 100.126 12.3464V20.8981L93.6479 11.6412H91.9204V11.929H92.7984C93.0289 11.929 93.1438 12.0442 93.1438 12.3464V21.013C93.1438 21.3156 93.0289 21.4305 92.7984 21.4305H91.9204V21.7186H94.8427V21.4305H93.8207C93.5903 21.4305 93.475 21.3156 93.475 21.013V12.4907L99.939 21.7186H100.457V12.3464ZM105.944 10.9933L105.785 11.2383C108.377 12.8937 108.924 15.1108 108.924 16.9967C108.924 18.8825 108.377 21.0996 105.785 22.7551L105.944 23C108.19 21.877 109.658 19.4008 109.658 16.9967C109.658 14.5925 108.19 12.1163 105.944 10.9933Z" fill="white"/>
<mask id="mask0_3168_1674" style="mask-type:alpha" maskUnits="userSpaceOnUse" x="56" y="0" width="11" height="11">
<path fill-rule="evenodd" clip-rule="evenodd" d="M66.4521 5.40583C66.4521 8.24585 64.1497 10.5479 61.31 10.5479C58.47 10.5479 56.168 8.24585 56.168 5.40583C56.168 2.56614 58.47 0.263763 61.31 0.263763C64.1497 0.263763 66.4521 2.56614 66.4521 5.40583Z" fill="white"/>
<path fill-rule="evenodd" clip-rule="evenodd" d="M66.4521 5.40583C66.4521 8.24585 64.1497 10.5479 61.31 10.5479C58.47 10.5479 56.168 8.24585 56.168 5.40583C56.168 2.56614 58.47 0.263763 61.31 0.263763C64.1497 0.263763 66.4521 2.56614 66.4521 5.40583Z" stroke="white"/>
</mask>
<g mask="url(#mask0_3168_1674)">
<path fill-rule="evenodd" clip-rule="evenodd" d="M65.9211 5.40577C65.9211 7.95178 63.8571 10.0158 61.3111 10.0158V11.0799C64.4448 11.0799 66.9849 8.53948 66.9849 5.40577H65.9211ZM61.3108 10.0158C58.7648 10.0158 56.7005 7.95178 56.7005 5.40577H55.6367C55.6367 8.53948 58.1771 11.0799 61.3108 11.0799V10.0158ZM56.7005 5.40574C56.7005 2.85973 58.7648 0.79573 61.3108 0.79573V-0.268372C58.1771 -0.268372 55.6367 2.27204 55.6367 5.40574H56.7005ZM61.3111 0.795645C63.8571 0.795645 65.9211 2.85965 65.9211 5.40566H66.9849C66.9849 2.27195 64.4448 -0.268457 61.3111 -0.268457V0.795645Z" fill="white"/>
<path fill-rule="evenodd" clip-rule="evenodd" d="M65.9211 5.40577C65.9211 7.95178 63.8571 10.0158 61.3111 10.0158V11.0799C64.4448 11.0799 66.9849 8.53948 66.9849 5.40577H65.9211ZM61.3108 10.0158C58.7648 10.0158 56.7005 7.95178 56.7005 5.40577H55.6367C55.6367 8.53948 58.1771 11.0799 61.3108 11.0799V10.0158ZM56.7005 5.40574C56.7005 2.85973 58.7648 0.79573 61.3108 0.79573V-0.268372C58.1771 -0.268372 55.6367 2.27204 55.6367 5.40574H56.7005ZM61.3111 0.795645C63.8571 0.795645 65.9211 2.85965 65.9211 5.40566H66.9849C66.9849 2.27195 64.4448 -0.268457 61.3111 -0.268457V0.795645Z" fill="white"/>
</g>
</g>
</svg>
