<svg width="287" height="21" viewBox="0 0 287 21" fill="none" xmlns="http://www.w3.org/2000/svg">
<path d="M236.852 3.23438L231.969 5.1543L229.355 3.23438H236.852Z" fill="#C64A5F"/>
<path d="M236.928 3.23438L234.935 7.32513L231.969 5.1543L236.851 3.23438H236.928Z" fill="#004F87"/>
<path d="M241.09 5.61629H242.684C242.642 5.90526 242.492 6.16762 242.265 6.35067C242.037 6.53371 241.748 6.62388 241.457 6.60304C241.128 6.6031 240.808 6.49402 240.548 6.29292L240.266 6.81448C240.61 7.06839 241.029 7.19945 241.457 7.18662C242.586 7.18662 243.311 6.45925 243.311 5.3541C243.327 5.11424 243.292 4.87377 243.208 4.64835C243.124 4.42293 242.994 4.21762 242.826 4.0458C242.658 3.87398 242.455 3.7395 242.231 3.65112C242.008 3.56274 241.768 3.52244 241.527 3.53286C241.087 3.51871 240.656 3.65607 240.305 3.92191L240.551 4.38709C240.789 4.20592 241.081 4.10699 241.38 4.10517C242.049 4.10517 242.538 4.4322 242.656 5.02707H241.078L241.09 5.61629ZM244.344 7.13024H244.968V5.30335L246.416 7.13024H247.206L245.656 5.23569L247.113 3.58078H246.368L244.956 5.27234V3.58078H244.333L244.344 7.13024ZM250.316 6.32111C250.073 6.50579 249.775 6.6049 249.469 6.60304C249.305 6.60998 249.141 6.58245 248.987 6.52219C248.834 6.46194 248.695 6.37031 248.58 6.2532C248.464 6.13609 248.374 5.99609 248.316 5.84221C248.258 5.68833 248.232 5.52398 248.242 5.35974C248.242 4.59008 248.741 4.11362 249.399 4.11362C249.684 4.10545 249.964 4.1895 250.197 4.35326L250.48 3.89372C250.176 3.64523 249.791 3.51682 249.399 3.53286C248.227 3.53286 247.584 4.34198 247.584 5.35974C247.57 5.60329 247.608 5.84703 247.695 6.07498C247.782 6.30293 247.916 6.50993 248.089 6.68243C248.261 6.85493 248.469 6.98902 248.697 7.07591C248.925 7.1628 249.169 7.20053 249.413 7.18662C249.826 7.20018 250.229 7.05718 250.542 6.78629L250.316 6.32111ZM250.991 7.13024H251.617L251.987 6.22525H253.502L253.869 7.13024H254.533L253.037 3.58078H252.503L250.991 7.13024ZM252.746 4.38145L253.263 5.64167H252.221L252.746 4.38145ZM255.992 7.13024V5.8362C256.147 5.85311 256.347 5.85311 256.452 5.85311C257.298 5.85311 257.75 5.30617 257.75 4.70285C257.75 4.09953 257.423 3.57515 256.378 3.57515H255.371V7.13024H255.992ZM256.438 4.16155C256.864 4.16155 257.092 4.34198 257.092 4.7254C257.092 5.10882 256.81 5.28926 256.432 5.28926C256.291 5.28926 256.15 5.28926 255.992 5.26389V4.17001H256.438" fill="white"/>
<path d="M236.852 11.8672L231.969 13.7843L229.355 11.8672H236.852Z" fill="#0054A5"/>
<path d="M236.928 11.8669L234.935 15.9577L231.969 13.784L236.851 11.8669H236.928Z" fill="#0090D0"/>
<path d="M241.273 15.7581V14.4809C241.426 14.4809 241.629 14.4809 241.733 14.4809C242.58 14.4809 243.032 13.934 243.032 13.3335C243.032 12.733 242.701 12.2058 241.66 12.2058H240.652V15.7581H241.273ZM241.719 12.7894C242.145 12.7894 242.374 12.9726 242.374 13.3532C242.374 13.7338 242.092 13.9171 241.714 13.9171C241.566 13.9159 241.419 13.9065 241.273 13.8889V12.7978H241.719V12.7894ZM243.765 13.996C243.755 14.2399 243.796 14.4833 243.885 14.7106C243.975 14.9379 244.11 15.1441 244.284 15.3162C244.457 15.4883 244.664 15.6225 244.892 15.7102C245.12 15.7979 245.364 15.8373 245.608 15.8257C245.852 15.8343 246.095 15.7929 246.322 15.7042C246.549 15.6155 246.755 15.4813 246.929 15.3099C247.102 15.1385 247.238 14.9335 247.329 14.7076C247.42 14.4816 247.463 14.2394 247.457 13.996C247.466 13.752 247.425 13.5088 247.335 13.2818C247.245 13.0548 247.109 12.8489 246.935 12.6774C246.761 12.5058 246.553 12.3723 246.325 12.2852C246.096 12.1982 245.852 12.1596 245.608 12.172C245.365 12.1634 245.123 12.2046 244.897 12.293C244.671 12.3815 244.465 12.5152 244.292 12.6861C244.12 12.857 243.984 13.0613 243.893 13.2866C243.803 13.5119 243.759 13.7533 243.765 13.996ZM244.426 13.996C244.437 13.7639 244.517 13.5403 244.655 13.3529C244.792 13.1656 244.982 13.0227 245.2 12.9421C245.418 12.8614 245.656 12.8465 245.882 12.8993C246.109 12.952 246.315 13.07 246.475 13.2387C246.635 13.4073 246.742 13.6192 246.782 13.8481C246.823 14.0769 246.796 14.3126 246.703 14.5259C246.611 14.7393 246.458 14.9209 246.263 15.0482C246.069 15.1755 245.841 15.2429 245.608 15.2421C245.448 15.2404 245.29 15.2065 245.143 15.1424C244.996 15.0784 244.863 14.9854 244.753 14.8692C244.643 14.753 244.557 14.6158 244.501 14.4658C244.444 14.3158 244.419 14.156 244.426 13.996ZM250.94 14.9574C250.698 15.1442 250.399 15.2436 250.093 15.2393C249.928 15.2467 249.764 15.2194 249.61 15.1592C249.456 15.0989 249.317 15.007 249.201 14.8895C249.085 14.772 248.996 14.6315 248.938 14.477C248.88 14.3226 248.855 14.1578 248.865 13.9932C248.865 13.2264 249.359 12.7499 250.02 12.7499C250.306 12.7417 250.587 12.8257 250.821 12.9895L251.103 12.5272C250.799 12.2815 250.416 12.1543 250.025 12.1691C248.854 12.1691 248.211 12.9783 248.211 13.9932C248.196 14.237 248.234 14.481 248.321 14.7093C248.407 14.9376 248.541 15.145 248.714 15.3178C248.887 15.4906 249.094 15.6249 249.323 15.712C249.551 15.799 249.795 15.8368 250.039 15.8229C250.453 15.8364 250.856 15.6935 251.168 15.4226L250.94 14.9574ZM252.537 14.2554H254.132C254.09 14.5436 253.942 14.8055 253.715 14.9885C253.488 15.1716 253.201 15.2622 252.91 15.2421C252.579 15.2432 252.257 15.1341 251.995 14.932L251.713 15.4536C252.057 15.7081 252.476 15.8392 252.904 15.8257C254.033 15.8257 254.756 15.1012 254.756 13.9932C254.772 13.7535 254.737 13.5131 254.654 13.2876C254.571 13.0622 254.441 12.8569 254.273 12.685C254.105 12.5131 253.902 12.3786 253.678 12.2902C253.455 12.2018 253.215 12.1615 252.975 12.172C252.535 12.1571 252.105 12.2945 251.755 12.561L251.998 13.0262C252.236 12.8447 252.526 12.7457 252.825 12.7443C253.497 12.7443 253.979 13.0741 254.104 13.6633H252.523L252.537 14.2554ZM255.794 15.7665H256.415V13.9424L257.866 15.7581H258.653L257.104 13.8691L258.563 12.2171H257.815L256.404 13.9086V12.2171H255.783L255.794 15.7665ZM261.763 14.9574C261.521 15.1432 261.223 15.2425 260.917 15.2393C260.752 15.2463 260.588 15.2187 260.434 15.1583C260.281 15.0978 260.142 15.006 260.026 14.8885C259.91 14.7711 259.82 14.6308 259.762 14.4765C259.704 14.3223 259.679 14.1577 259.689 13.9932C259.675 13.8338 259.695 13.6734 259.747 13.5221C259.799 13.3709 259.882 13.2322 259.991 13.115C260.1 12.9979 260.233 12.9049 260.38 12.842C260.527 12.7791 260.686 12.7477 260.846 12.7499C261.131 12.7413 261.412 12.8254 261.645 12.9895L261.927 12.5272C261.622 12.282 261.238 12.1549 260.846 12.1691C259.675 12.1691 259.034 12.9783 259.034 13.9932C259.019 14.2371 259.057 14.4813 259.143 14.7098C259.23 14.9383 259.364 15.1459 259.537 15.3188C259.71 15.4917 259.917 15.626 260.146 15.7129C260.375 15.7998 260.619 15.8373 260.863 15.8229C261.277 15.8373 261.68 15.6942 261.992 15.4226L261.763 14.9574ZM263.471 15.7665L265.328 13.2545V15.7665H265.952V12.2171H265.407L263.547 14.7375V12.2171H262.923V15.7581L263.471 15.7665ZM267.236 15.7665H267.863V13.2292L268.991 14.7854H269.085L270.214 13.2151V15.7721H270.829V12.2171H270.242L269.087 13.8748L267.877 12.2171H267.236V15.7665ZM272.105 15.7665C272.311 15.7665 272.615 15.7891 273.025 15.7891C273.897 15.7891 274.393 15.3662 274.393 14.636C274.393 13.9819 273.945 13.5675 273.202 13.5675C273.043 13.5683 272.884 13.5786 272.725 13.5985V12.7978H274.176V12.2171H272.105V15.7665ZM273.152 14.1511C273.586 14.1511 273.775 14.3766 273.775 14.6783C273.775 14.9799 273.583 15.2055 273.121 15.2055C272.991 15.2055 272.869 15.2055 272.725 15.1857V14.1793C272.867 14.1601 273.009 14.1507 273.152 14.1511ZM275.06 15.7665H275.689L276.061 14.8615H277.571L277.944 15.7665H278.607L277.106 12.2171H276.561L275.06 15.7665ZM276.818 13.0205L277.337 14.2808H276.299L276.818 13.0205ZM281.686 15.7665H282.302V12.2171H281.686V13.6633H280.066V12.2171H279.44V15.7581H280.066V14.2469H281.686V15.7665ZM283.589 15.7665H284.212V13.9424L285.66 15.7665H286.451L284.901 13.8776L286.371 12.2171H285.624L284.212 13.9086V12.2171H283.589V15.7665Z" fill="white"/>
<path d="M223.473 17.7709H223.276V9.61479L222.031 8.59139V0.328125H222.232V8.49836L223.473 9.52175V17.7709Z" fill="white"/>
<path d="M190.941 2.45312C190.983 2.95777 191.418 3.29891 192.132 3.29891C192.787 3.29891 193.275 2.95777 193.295 2.45312H192.609C192.584 2.70968 192.4 2.79708 192.132 2.79708C191.864 2.79708 191.675 2.6843 191.627 2.45312H190.941ZM190.924 7.6293L193.109 4.67189V7.62648H193.842V3.46242H193.199L191.012 6.42547V3.46242H190.281V7.62648L190.924 7.6293ZM186.205 7.6293L188.392 4.67189V7.62648H189.123V3.46242H188.483L186.295 6.42547V3.46242H185.564V7.62648L186.205 7.6293ZM181.56 7.6293H182.293V5.4782L183.987 7.62648H184.918L183.095 5.40208L184.811 3.46242H183.927L182.285 5.43591V3.46242H181.551L181.56 7.6293ZM180.555 6.68203C180.27 6.89844 179.922 7.01533 179.564 7.0147C179.371 7.0225 179.178 6.98979 178.998 6.91868C178.818 6.84756 178.655 6.73962 178.52 6.60179C178.384 6.46396 178.279 6.29931 178.211 6.11842C178.143 5.93753 178.114 5.74441 178.125 5.5515C178.125 4.64933 178.709 4.0883 179.482 4.0883C179.818 4.0795 180.147 4.17831 180.422 4.37023L180.752 3.82893C180.393 3.54082 179.942 3.39167 179.482 3.40886C178.108 3.40886 177.349 4.35895 177.349 5.55432C177.332 5.84072 177.377 6.12734 177.479 6.3954C177.581 6.66345 177.739 6.90688 177.942 7.10973C178.145 7.31257 178.389 7.47025 178.657 7.57243C178.926 7.6746 179.212 7.71896 179.499 7.7026C179.988 7.72191 180.466 7.55343 180.834 7.23178L180.555 6.68203ZM173.603 2.45312C173.646 2.95777 174.08 3.29891 174.794 3.29891C175.449 3.29891 175.923 2.95777 175.957 2.45312H175.271C175.249 2.70968 175.062 2.79708 174.794 2.79708C174.526 2.79708 174.337 2.6843 174.289 2.45312H173.603ZM173.586 7.6293L175.771 4.67189V7.62648H176.505V3.46242H175.861L173.677 6.42547V3.46242H172.943V7.62648L173.586 7.6293ZM168.87 7.6293L171.055 4.67189V7.62648H171.786V3.46242H171.142L168.963 6.42547V3.46242H168.232V7.62648L168.87 7.6293ZM167.219 6.68203C166.936 6.89842 166.588 7.01534 166.231 7.0147C166.038 7.02287 165.845 6.99054 165.665 6.91977C165.485 6.84901 165.322 6.74138 165.186 6.60382C165.05 6.46626 164.945 6.30181 164.876 6.12106C164.808 5.9403 164.778 5.74725 164.789 5.55432C164.789 4.65215 165.373 4.09112 166.147 4.09112C166.483 4.0829 166.813 4.18162 167.089 4.37305L167.417 3.83175C167.058 3.54318 166.607 3.39398 166.147 3.41168C164.772 3.41168 164.016 4.36177 164.016 5.55714C163.999 5.84365 164.043 6.13047 164.145 6.39873C164.247 6.66699 164.405 6.91061 164.608 7.11355C164.812 7.31649 165.055 7.47416 165.324 7.57617C165.592 7.67818 165.88 7.72223 166.166 7.70542C166.655 7.72487 167.131 7.55633 167.499 7.2346L167.219 6.68203ZM163.319 6.68203C163.035 6.89842 162.688 7.01534 162.331 7.0147C162.138 7.02287 161.945 6.99054 161.765 6.91977C161.585 6.84901 161.422 6.74138 161.286 6.60382C161.15 6.46626 161.044 6.30181 160.976 6.12106C160.908 5.9403 160.878 5.74725 160.889 5.55432C160.889 4.65215 161.473 4.09112 162.246 4.09112C162.582 4.08231 162.911 4.18112 163.186 4.37305L163.516 3.83175C163.157 3.54364 162.706 3.39449 162.246 3.41168C160.872 3.41168 160.115 4.36177 160.115 5.55714C160.099 5.8434 160.143 6.12997 160.245 6.39802C160.347 6.66607 160.504 6.90955 160.707 7.11244C160.91 7.31534 161.153 7.47307 161.422 7.57527C161.69 7.67746 161.977 7.72182 162.263 7.70542C162.755 7.7216 163.234 7.54794 163.601 7.22051L163.319 6.68203ZM156.012 5.55432C155.982 5.35381 155.995 5.14919 156.052 4.95442C156.108 4.75965 156.206 4.57931 156.338 4.42572C156.471 4.27212 156.635 4.14888 156.819 4.0644C157.004 3.97991 157.204 3.93618 157.407 3.93618C157.61 3.93618 157.811 3.97991 157.995 4.0644C158.18 4.14888 158.344 4.27212 158.476 4.42572C158.609 4.57931 158.707 4.75965 158.763 4.95442C158.819 5.14919 158.833 5.35381 158.803 5.55432C158.803 6.37755 158.281 7.01752 157.392 7.01752C157.205 7.01354 157.02 6.97235 156.849 6.89635C156.678 6.82035 156.523 6.71107 156.395 6.57487C156.266 6.43867 156.166 6.27829 156.1 6.10307C156.035 5.92786 156.005 5.74131 156.012 5.55432ZM155.236 5.55432C155.226 5.83909 155.275 6.12284 155.38 6.38775C155.485 6.65267 155.643 6.89302 155.846 7.09371C156.048 7.29439 156.29 7.45108 156.556 7.55393C156.822 7.65677 157.107 7.70355 157.392 7.69133C157.678 7.7029 157.964 7.6559 158.231 7.55323C158.499 7.45055 158.742 7.29436 158.947 7.09424C159.152 6.89412 159.314 6.6543 159.422 6.38949C159.531 6.12468 159.584 5.84047 159.579 5.55432C159.592 5.2653 159.544 4.97683 159.438 4.70753C159.332 4.43824 159.171 4.19409 158.965 3.99086C158.759 3.78763 158.512 3.62983 158.241 3.52764C157.97 3.42545 157.681 3.38114 157.392 3.39758C157.106 3.38897 156.822 3.43889 156.556 3.54427C156.29 3.64965 156.049 3.80825 155.847 4.0103C155.645 4.21235 155.486 4.45358 155.381 4.71912C155.276 4.98467 155.227 5.2689 155.236 5.55432ZM153.158 4.14469C153.658 4.14469 153.926 4.35895 153.926 4.79312C153.926 5.22729 153.587 5.46692 153.153 5.46692C152.979 5.46626 152.806 5.45591 152.633 5.43591V4.14469C152.831 4.14469 153.009 4.13059 153.158 4.13059V4.14469ZM152.633 7.62366V6.11817C152.811 6.13509 153.051 6.13509 153.175 6.13509C154.172 6.13509 154.699 5.49229 154.699 4.78466C154.699 4.07702 154.313 3.44833 153.088 3.44833H151.902V7.62648L152.633 7.62366Z" fill="white"/>
<path d="M155.363 13.5968C155.363 12.3 154.494 11.4542 153.269 11.4542C152.751 11.436 152.243 11.5985 151.832 11.9137L152.114 12.4607C152.396 12.2508 152.739 12.1381 153.091 12.1393C153.878 12.1393 154.448 12.5255 154.592 13.2219H152.735V13.907H154.609C154.56 14.246 154.385 14.5539 154.117 14.7689C153.85 14.9838 153.512 15.0899 153.17 15.0657C152.782 15.0653 152.405 14.9375 152.097 14.702L151.781 15.3166C152.19 15.6152 152.687 15.7681 153.192 15.7508C154.527 15.7508 155.371 14.905 155.371 13.5968H155.363ZM159.582 15.6831L157.751 13.4474L159.466 11.5078H158.586L156.94 13.4813V11.5078H156.21V15.6718H156.94V13.5264L158.634 15.6718L159.582 15.6831ZM160.686 13.6025C160.686 12.6975 161.267 12.1393 162.043 12.1393C162.379 12.1315 162.708 12.2302 162.983 12.4212L163.316 11.8771C162.96 11.5863 162.509 11.4359 162.049 11.4542C160.672 11.4542 159.915 12.4071 159.915 13.6025C159.898 13.889 159.943 14.1758 160.045 14.4441C160.147 14.7123 160.305 14.9559 160.508 15.1589C160.711 15.3618 160.955 15.5195 161.223 15.6215C161.492 15.7235 161.779 15.7676 162.066 15.7508C162.555 15.7686 163.032 15.6003 163.401 15.2799L163.119 14.733C162.834 14.9494 162.486 15.0663 162.128 15.0657C161.935 15.0739 161.742 15.0415 161.562 14.9706C161.381 14.8996 161.218 14.7917 161.083 14.6537C160.947 14.5158 160.842 14.351 160.774 14.1699C160.706 13.9888 160.677 13.7955 160.689 13.6025H160.686ZM166.703 15.6831H167.437V11.519H164.112V15.6831H164.846V12.2041H166.703V15.6831ZM171.848 13.6025C171.848 14.4229 171.326 15.0657 170.437 15.0657C170.249 15.0632 170.063 15.0231 169.89 14.9477C169.718 14.8724 169.562 14.7634 169.433 14.627C169.303 14.4907 169.202 14.3298 169.135 14.1538C169.069 13.9779 169.038 13.7904 169.046 13.6025C169.015 13.402 169.029 13.1974 169.085 13.0026C169.142 12.8078 169.24 12.6275 169.372 12.4739C169.505 12.3203 169.669 12.197 169.853 12.1126C170.038 12.0281 170.238 11.9843 170.441 11.9843C170.644 11.9843 170.845 12.0281 171.029 12.1126C171.214 12.197 171.378 12.3203 171.51 12.4739C171.643 12.6275 171.74 12.8078 171.797 13.0026C171.853 13.1974 171.867 13.402 171.837 13.6025H171.848ZM172.613 13.6025C172.624 13.3153 172.575 13.0289 172.469 12.7617C172.363 12.4944 172.203 12.252 171.998 12.05C171.794 11.8479 171.549 11.6906 171.28 11.5881C171.012 11.4855 170.724 11.4399 170.437 11.4542C170.151 11.4445 169.866 11.4933 169.6 11.5976C169.334 11.7019 169.092 11.8595 168.889 12.0607C168.686 12.2619 168.526 12.5025 168.419 12.7677C168.313 13.0328 168.262 13.3169 168.269 13.6025C168.258 13.8892 168.306 14.1751 168.411 14.4422C168.516 14.7093 168.675 14.9516 168.879 15.1536C169.083 15.3557 169.327 15.5132 169.595 15.616C169.863 15.7188 170.15 15.7647 170.437 15.7508C170.723 15.7608 171.009 15.7123 171.275 15.6083C171.542 15.5042 171.785 15.3467 171.989 15.1456C172.193 14.9444 172.353 14.7038 172.46 14.4384C172.568 14.173 172.62 13.8886 172.613 13.6025ZM175.483 12.8413C175.483 13.3036 175.142 13.5123 174.707 13.5123C174.541 13.5123 174.363 13.5123 174.191 13.4841V12.2041C174.388 12.2041 174.566 12.2041 174.713 12.2041C175.215 12.2041 175.483 12.4184 175.483 12.8526V12.8413ZM176.257 12.8526C176.257 12.1675 175.87 11.5134 174.642 11.5134H173.457V15.6775H174.191V14.1804C174.368 14.1973 174.606 14.1973 174.733 14.1973C175.726 14.1973 176.257 13.5546 176.257 12.8469V12.8526ZM178.67 12.2041H180.022V11.519H176.595V12.2041H177.947V15.6831H178.681L178.67 12.2041ZM183.296 15.6831H184.024V11.519H183.296V13.2106H181.39V11.519H180.657V15.6831H181.39V13.907H183.296V15.6831ZM187.125 14.2735C187.125 14.7612 186.843 15.0065 186.304 15.0065C186.16 15.0065 186.042 15.0065 185.912 14.9896V13.625C186.078 13.6081 186.194 13.5968 186.315 13.5968C186.829 13.5968 187.125 13.828 187.125 14.2735ZM187.902 14.2566C187.902 13.4418 187.405 12.9118 186.375 12.9118C186.22 12.9115 186.065 12.9219 185.912 12.9428V11.519H185.178V15.6831C185.424 15.6831 185.822 15.6831 186.214 15.6831C187.281 15.6831 187.907 15.1192 187.907 14.2481L187.902 14.2566ZM188.449 15.6577H189.174V11.519H188.449V15.6577ZM193.343 10.4844H192.669C192.646 10.7381 192.462 10.8283 192.194 10.8283C191.926 10.8283 191.734 10.7156 191.686 10.4844H191.003C191.043 10.989 191.477 11.3302 192.194 11.3302C192.849 11.3302 193.337 10.9918 193.354 10.4844H193.343ZM193.171 15.6577H193.902V11.519H193.258L191.074 14.4821V11.519H190.34V15.6831H190.975L193.162 12.7285L193.171 15.6577Z" fill="white"/>
<path d="M200.055 16.4296H200.738V15.0031H200.174V11.5213H199.443V15.0031H197.614V11.5213H196.883V15.6881H200.058L200.055 16.4296ZM201.466 15.6881H203.936V15.0031H202.197V13.9261H203.699V13.241H202.197V12.2063H203.877V11.5213H201.466V15.6881ZM207.529 15.6881H208.254V11.5213H207.529V13.2128H205.624V11.5213H204.89V15.6881H205.624V13.9092H207.529V15.6881ZM210.978 12.2063H212.33V11.5213H208.892V12.2063H210.244V15.6881H210.978V12.2063ZM214.991 12.8435C214.991 13.3059 214.652 13.5145 214.218 13.5145C214.048 13.5145 213.871 13.5145 213.698 13.4863V12.2063C213.896 12.2063 214.074 12.2063 214.223 12.2063C214.723 12.2063 214.991 12.4206 214.991 12.8548V12.8435ZM215.764 12.8548C215.764 12.1697 215.378 11.5156 214.15 11.5156H212.965V15.6825H213.698V14.1827C213.876 14.1996 214.116 14.1996 214.24 14.1996C215.234 14.1996 215.764 13.5568 215.764 12.8491" fill="white"/>
<path d="M129.649 0.00281987L127.665 0.741468L127.312 0L129.649 0.00281987Z" fill="#1B75BB"/>
<path d="M127.312 0L127.668 0.741468L125.969 1.37017L127.312 0Z" fill="#EC1C24"/>
<path d="M135.664 0.175781L137.293 2.45375L131.18 1.90117L135.664 0.175781Z" fill="#1B75BB"/>
<path d="M145.693 0.00390625L143.266 0.959637L141.965 0.00390625H145.693Z" fill="#1B75BB"/>
<path d="M125.967 3.85547L124.031 6.17009L121.609 5.91071L125.967 3.85547Z" fill="#1B75BB"/>
<path d="M124.031 6.16671L121.609 9.01981V5.91016L124.031 6.16671Z" fill="#EC1C24"/>
<path d="M145.73 0.00390625L144.742 2.03941L143.266 0.959637L145.693 0.00390625H145.73Z" fill="#EC1C24"/>
<path d="M116.829 10.8711L116.629 13.1885L113.008 15.1479L116.829 10.8711Z" fill="#1B75BB"/>
<path d="M116.63 13.1836L116.359 15.8055L113 15.1514L116.63 13.1836Z" fill="#EC1C24"/>
<path d="M138.581 4.55469L142.008 8.71311L136.301 8.10978L138.581 4.55469Z" fill="#1B75BB"/>
<path d="M142.008 8.7127L133.688 12.1776L136.301 8.10938L142.008 8.7127Z" fill="#EC1C24"/>
<path d="M129.623 13.6739L121.582 17.0401V11.8555L129.623 13.6739Z" fill="#EC1C24"/>
<path d="M139.461 15.1953L137.11 19.9993L135.859 16.6839L139.461 15.1953Z" fill="#1B75BB"/>
<path d="M135.861 16.6836L137.111 19.9991L131.043 18.767L135.861 16.6836Z" fill="#EC1C24"/>
<path d="M127.176 6.60943L131.903 4.76562L133.201 7.22403L127.176 6.60943Z" fill="#1B75BB"/>
<path d="M127.176 6.61328L133.201 7.22788L127.924 9.35361L127.176 6.61328Z" fill="#EC1C24"/>
<g clip-path="url(#clip0_2245_319)">
<path d="M50.0062 6.89283C50.1777 7.04001 50.374 7.15502 50.5858 7.23239C50.7995 7.30947 51.0251 7.3478 51.252 7.34558C51.5056 7.34814 51.7573 7.30166 51.9935 7.20863C52.2321 7.10826 52.4407 6.94718 52.599 6.74116C52.7812 6.5057 52.8951 6.22403 52.9281 5.92735H52.0373C52.0003 6.09864 51.9009 6.24972 51.7587 6.35067C51.6082 6.4491 51.4314 6.49886 51.252 6.49328C51.1309 6.49727 51.0104 6.4737 50.8995 6.42432C50.7887 6.37494 50.6903 6.30101 50.6117 6.20805C50.4535 6.01042 50.3672 5.76416 50.3672 5.51025C50.3672 5.25635 50.4535 5.01009 50.6117 4.81246C50.6933 4.72343 50.7931 4.65334 50.9043 4.60702C51.0154 4.5607 51.1352 4.53926 51.2554 4.5442C51.6531 4.5442 51.9115 4.71511 52.0305 5.05467H52.9214C52.8865 4.78604 52.7811 4.53163 52.6163 4.31759C52.4514 4.10355 52.233 3.93759 51.9834 3.83678C51.7514 3.74741 51.5049 3.70213 51.2565 3.70322C51.027 3.70095 50.7989 3.73926 50.5825 3.81641C50.3711 3.8933 50.1754 4.00837 50.005 4.15597C49.8247 4.31324 49.6835 4.51096 49.5928 4.73323C49.4864 4.9862 49.4336 5.25876 49.4377 5.53346C49.4336 5.80561 49.4864 6.07558 49.5928 6.32577C49.6853 6.54439 49.8268 6.73847 50.0062 6.89283Z" fill="white"/>
<path d="M56.0084 7.72813H56.7577V6.51929H56.4038V3.73828H53.957L53.6885 6.06541C53.6833 6.18993 53.6487 6.3114 53.5874 6.41969C53.553 6.45551 53.5109 6.48306 53.4644 6.5003C53.418 6.51754 53.3682 6.52403 53.3189 6.51929H53.1875V7.72813H53.8941V7.31047H56.0106L56.0084 7.72813ZM55.4815 6.53966H54.4379C54.53 6.46496 54.5839 6.31329 54.6007 6.09597L54.7625 4.53965H55.4815V6.53966Z" fill="white"/>
<path d="M59.6381 6.45817H58.3057V5.87638H59.4909V5.06031H58.3057V4.54983H59.592V3.73828H57.3789V7.31047H59.6381V6.45817Z" fill="white"/>
<path d="M60.777 7.30255C60.8704 7.28363 60.9587 7.245 61.0361 7.1892C61.1136 7.13341 61.1784 7.06171 61.2264 6.97883C61.3422 6.738 61.4068 6.47547 61.4162 6.20803L61.5533 4.57021H62.3206V7.31047H63.2418V3.73828H60.7478L60.4995 6.17747C60.4793 6.37441 60.4378 6.50231 60.376 6.56004C60.3142 6.61777 60.1839 6.63814 59.9884 6.62117L59.9727 7.2901C60.2374 7.34673 60.5106 7.35096 60.777 7.30255Z" fill="white"/>
<path d="M65.1881 3.70312L63.5625 7.18363V7.31154H64.5298L64.732 6.86784H66.0587L66.2665 7.31154H67.2237V7.18363L65.6138 3.70312H65.1881ZM65.0308 6.08685L65.3959 5.22436L65.7655 6.08685H65.0308Z" fill="white"/>
<path d="M69.5724 7.31047H70.4992V3.73828H69.5724V5.02975H68.4737V3.73828H67.5469V7.31047H68.4737V5.88205H69.5724V7.31047Z" fill="white"/>
<path d="M72.8857 7.37657C73.1282 7.38581 73.3701 7.34466 73.5962 7.25567C73.8224 7.16668 74.0279 7.03176 74.2 6.85931C74.3703 6.6833 74.5032 6.47423 74.5907 6.24481C74.6782 6.01538 74.7184 5.77042 74.7089 5.52483C74.7132 5.24718 74.6604 4.97164 74.5539 4.71554C74.4632 4.49191 74.3229 4.29214 74.1439 4.1315C73.9733 3.98411 73.7777 3.86906 73.5664 3.79194C73.3537 3.71206 73.1284 3.67142 72.9014 3.67196C72.5952 3.66914 72.2925 3.73812 72.0173 3.87343C71.7378 4.01595 71.5041 4.23533 71.3432 4.50615C71.1596 4.81314 71.0664 5.16648 71.0747 5.52483C71.0703 5.80158 71.1211 6.0764 71.2241 6.33298C71.3126 6.55669 71.4514 6.75664 71.6297 6.91703C71.799 7.06612 71.995 7.18136 72.2071 7.2566C72.4245 7.3367 72.6542 7.37732 72.8857 7.37657ZM72.2622 4.80836C72.4335 4.64189 72.6634 4.55071 72.9014 4.55482C73.0163 4.55404 73.1301 4.57647 73.2363 4.6208C73.3424 4.66512 73.4386 4.73044 73.5193 4.81288C73.6898 5.01027 73.7837 5.26314 73.7837 5.52483C73.7837 5.78653 73.6898 6.03939 73.5193 6.23678C73.3515 6.40133 73.1265 6.49341 72.8924 6.49341C72.6582 6.49341 72.4333 6.40133 72.2655 6.23678C72.096 6.03804 72.0027 5.78464 72.0027 5.52257C72.0027 5.26049 72.096 5.0071 72.2655 4.80836H72.2622Z" fill="white"/>
<path d="M79.3299 6.20291C79.3318 6.04475 79.2931 5.88878 79.2175 5.75016C79.1424 5.61539 79.0284 5.50683 78.8906 5.43889C78.9796 5.3625 79.0517 5.26811 79.1023 5.16185C79.1528 5.05558 79.1806 4.9398 79.1838 4.82202C79.1898 4.67537 79.1652 4.52909 79.1116 4.39261C79.058 4.25613 78.9766 4.1325 78.8726 4.02971C78.7646 3.9279 78.6376 3.84875 78.4989 3.79686C78.3602 3.74498 78.2127 3.72141 78.0649 3.7275H76.5V7.29403H78.2065C78.3579 7.30326 78.5096 7.28088 78.6521 7.22829C78.7946 7.1757 78.9247 7.09405 79.0344 6.98843C79.1337 6.88432 79.211 6.76106 79.2618 6.62607C79.3125 6.49108 79.3357 6.34714 79.3299 6.20291ZM77.4201 4.53453H77.9919C78.0312 4.53256 78.0704 4.54017 78.1062 4.55672C78.142 4.57327 78.1733 4.59827 78.1975 4.6296C78.2478 4.69364 78.2723 4.77451 78.266 4.85598C78.2643 4.92932 78.2373 4.99979 78.1896 5.05519C78.1647 5.08268 78.134 5.10425 78.0998 5.11834C78.0656 5.13244 78.0288 5.1387 77.9919 5.13669H77.4201V4.53453ZM78.1346 6.47908H77.4201V5.88712H78.1289C78.1687 5.88572 78.2083 5.89345 78.2447 5.90973C78.2811 5.926 78.3133 5.95039 78.339 5.98106C78.3654 6.01196 78.3851 6.04803 78.3969 6.087C78.4086 6.12596 78.4123 6.16697 78.4075 6.20743C78.3929 6.3874 78.3019 6.47795 78.1402 6.47795L78.1346 6.47908Z" fill="white"/>
<path d="M83.6196 5.99344C83.8361 5.73289 83.9554 5.40428 83.9568 5.06447C83.9582 4.72466 83.8417 4.39503 83.6274 4.13264C83.5106 3.99874 83.3652 3.89317 83.2022 3.82379C83.0392 3.75441 82.8627 3.72302 82.686 3.73196H81.1211V7.30415H82.0479V6.38055H82.686C82.8604 6.38997 83.0346 6.36011 83.1961 6.29315C83.3576 6.22619 83.5023 6.1238 83.6196 5.99344ZM82.9646 5.41392C82.9354 5.46177 82.8944 5.50119 82.8455 5.52836C82.7967 5.55553 82.7418 5.56952 82.686 5.56899H82.0322V4.54351H82.686C82.7421 4.54182 82.7976 4.5548 82.8473 4.58118C82.8969 4.60756 82.9388 4.64645 82.9691 4.69405C83.0383 4.79925 83.074 4.92326 83.0713 5.04946C83.0739 5.17913 83.0366 5.30642 82.9646 5.41392Z" fill="white"/>
<path d="M87.7415 4.71554C87.6503 4.4922 87.5101 4.29254 87.3314 4.1315C87.1609 3.9841 86.9653 3.86906 86.754 3.79194C86.5409 3.71195 86.3152 3.67131 86.0878 3.67196C85.782 3.66915 85.4797 3.73813 85.2048 3.87343C84.9253 4.01595 84.6916 4.23533 84.5308 4.50614C84.3466 4.81292 84.2534 5.1664 84.2623 5.52483C84.2579 5.80158 84.3087 6.0764 84.4117 6.33298C84.4998 6.55661 84.6382 6.75656 84.8161 6.91703C84.9857 7.06587 85.1816 7.18108 85.3936 7.25659C85.6124 7.33464 85.8433 7.37296 86.0755 7.36977C86.3179 7.37906 86.5596 7.33792 86.7856 7.24893C87.0115 7.15993 87.2168 7.02499 87.3887 6.85251C87.5589 6.67641 87.6919 6.46734 87.7795 6.23796C87.8672 6.00858 87.9078 5.76367 87.8987 5.51804C87.9014 5.24251 87.8479 4.96937 87.7415 4.71554ZM86.7034 6.23677C86.5357 6.40133 86.3108 6.4934 86.0766 6.4934C85.8424 6.4934 85.6175 6.40133 85.4497 6.23677C85.2802 6.03803 85.1869 5.78464 85.1869 5.52256C85.1869 5.26049 85.2802 5.00709 85.4497 4.80835C85.5342 4.72576 85.6341 4.66083 85.7436 4.61731C85.8531 4.5738 85.9701 4.55256 86.0878 4.55481C86.2027 4.55384 86.3167 4.57619 86.4228 4.62053C86.529 4.66486 86.6252 4.73028 86.7057 4.81288C86.8767 5.01005 86.9709 5.263 86.9709 5.52483C86.9709 5.78666 86.8767 6.0396 86.7057 6.23677H86.7034Z" fill="white"/>
<path d="M90.886 5.92849C90.8491 6.09979 90.7497 6.25086 90.6074 6.35181C90.4574 6.45035 90.2809 6.50013 90.1019 6.49443C89.9806 6.49842 89.8599 6.47486 89.7489 6.42548C89.6379 6.37611 89.5393 6.30218 89.4604 6.20919C89.3026 6.01138 89.2166 5.7652 89.2166 5.5114C89.2166 5.2576 89.3026 5.01141 89.4604 4.81359C89.542 4.72451 89.6418 4.65437 89.753 4.60805C89.8641 4.56173 89.984 4.54033 90.1041 4.54534C90.5018 4.54534 90.7602 4.71625 90.8782 5.05582H91.7702C91.7347 4.78689 91.629 4.53228 91.4638 4.31808C91.2986 4.10387 91.0798 3.93777 90.8299 3.83679C90.5983 3.74733 90.3522 3.70204 90.1041 3.70323C89.8746 3.70086 89.6465 3.73917 89.4301 3.81642C89.2184 3.8933 89.0224 4.00836 88.8516 4.15598C88.6715 4.31353 88.5304 4.51117 88.4393 4.73324C88.3338 4.98646 88.2814 5.25889 88.2854 5.53347C88.2814 5.80549 88.3338 6.07534 88.4393 6.32578C88.531 6.54652 88.6721 6.74291 88.8516 6.89963C89.2018 7.19302 89.6431 7.35325 90.0985 7.35238C90.3521 7.35495 90.6038 7.30846 90.84 7.21543C91.0784 7.1148 91.287 6.95377 91.4455 6.74797C91.6277 6.5125 91.7416 6.23083 91.7746 5.93415L90.886 5.92849Z" fill="white"/>
<path d="M94.454 6.3518C94.3039 6.45034 94.1275 6.50012 93.9484 6.49441C93.8271 6.49841 93.7065 6.47484 93.5954 6.42547C93.4844 6.37609 93.3858 6.30217 93.307 6.20918C93.1492 6.01137 93.0631 5.76518 93.0631 5.51138C93.0631 5.25758 93.1492 5.01139 93.307 4.81358C93.3885 4.72449 93.4884 4.65435 93.5995 4.60803C93.7107 4.56171 93.8305 4.54031 93.9507 4.54532C94.3484 4.54532 94.6068 4.71624 94.7247 5.0558H95.6167C95.5818 4.78668 95.4763 4.5318 95.311 4.31751C95.1457 4.10321 94.9266 3.93725 94.6764 3.83677C94.4448 3.74731 94.1987 3.70202 93.9507 3.70321C93.7212 3.70108 93.4931 3.73938 93.2766 3.8164C93.0654 3.89357 92.8698 4.00861 92.6992 4.15596C92.5192 4.31351 92.378 4.51116 92.2869 4.73322C92.1815 4.98644 92.1291 5.25888 92.133 5.53345C92.129 5.80547 92.1815 6.07533 92.2869 6.32577C92.3786 6.5465 92.5197 6.74289 92.6992 6.89962C93.0494 7.19301 93.4907 7.35324 93.9462 7.35237C94.1998 7.35493 94.4515 7.30845 94.6876 7.21542C94.9261 7.11478 95.1347 6.95375 95.2932 6.74795C95.4749 6.51222 95.5887 6.23068 95.6223 5.93414H94.7303C94.6927 6.10301 94.5942 6.25182 94.454 6.3518Z" fill="white"/>
<path d="M99.2315 7.30956V3.72266H98.9428L97.0937 5.48271V3.73737H96.168V7.31974H96.441L98.3047 5.468V7.30956H99.2315Z" fill="white"/>
<path d="M102.763 3.72266L100.915 5.48271V3.73737H99.9883V7.31974H100.262L102.126 5.468V7.30956H103.053V3.72266H102.763Z" fill="white"/>
<path d="M51.6523 14.2367L49.8604 12.2695H49.4414V16.8264H50.621V14.7302L51.5804 15.7432H51.7163L52.6757 14.7302V16.8264H53.8553V12.2695H53.4362L51.6523 14.2367Z" fill="white"/>
<path d="M56.3299 12.2355L54.2617 16.6634V16.8252H55.4975L55.7547 16.2593H57.4398L57.705 16.8252H58.9227V16.6634L56.8736 12.2344L56.3299 12.2355ZM56.1311 15.2689L56.595 14.171L57.0657 15.2689H56.1311Z" fill="white"/>
<path d="M62.282 12.6236C61.9154 12.3951 61.4907 12.2791 61.0598 12.2897H59.3398V16.8274H61.0598C61.3952 16.8328 61.7279 16.7665 62.036 16.6327C62.3084 16.5161 62.5502 16.3375 62.7426 16.1109C62.9219 15.893 63.0605 15.6441 63.1516 15.3763C63.2437 15.1059 63.2882 14.8213 63.283 14.5354C63.2861 14.1622 63.2034 13.7934 63.0415 13.4578C62.8705 13.1138 62.6075 12.8249 62.282 12.6236ZM61.8271 15.399C61.7352 15.5175 61.6164 15.612 61.4808 15.6746C61.3451 15.7372 61.1965 15.7662 61.0474 15.7589H60.5194V13.3537H61.0485C61.1968 13.347 61.3445 13.376 61.4795 13.4382C61.6145 13.5003 61.7328 13.594 61.8248 13.7114C62.0118 13.9494 62.1111 14.2454 62.1057 14.5489C62.1121 14.8561 62.0137 15.1561 61.8271 15.399Z" fill="white"/>
<path d="M65.1991 15.005H66.7067V13.9671H65.1991V13.3174H66.8359V12.2852H64.0195V16.8296H66.8943V15.7464H65.1991V15.005Z" fill="white"/>
<path d="M70.824 13.2461H71.3452V12.2852H69.122V13.2461H69.6444V15.8698H69.0703V16.8307H71.3969V15.8698H70.824V13.2461Z" fill="white"/>
<path d="M74.9112 14.5056L72.5588 12.2656H72.1914V16.8293H73.371V14.4864L75.7425 16.8429H76.0896V12.2849H74.9112V14.5056Z" fill="white"/>
<path d="M82.2133 13.8852C82.2192 13.4667 82.066 13.0618 81.7852 12.7534C81.4999 12.4342 81.1015 12.2742 80.5899 12.2734H78.6094V16.8179H79.789V15.3974H80.4068L81.1809 16.819H82.429V16.6504L81.546 15.2095C81.9848 14.9062 82.2073 14.4647 82.2133 13.8852ZM80.9438 14.261C80.9019 14.3166 80.8471 14.361 80.7842 14.3903C80.7214 14.4197 80.6524 14.4332 80.5832 14.4297H79.7654V13.3068H80.5832C80.6519 13.3027 80.7207 13.3149 80.7839 13.3425C80.8471 13.37 80.903 13.4121 80.9472 13.4653C81.0333 13.5779 81.0778 13.7171 81.073 13.8592C81.0766 14.004 81.031 14.1458 80.9438 14.261Z" fill="white"/>
<path d="M85.5359 15.3045C85.5403 15.3827 85.5249 15.4607 85.4911 15.5312C85.4573 15.6017 85.4062 15.6623 85.3426 15.7074C85.2081 15.7999 85.0482 15.8474 84.8854 15.8433C84.7183 15.8485 84.5537 15.801 84.4147 15.7074C84.3517 15.6619 84.3012 15.6011 84.2678 15.5307C84.2344 15.4602 84.2192 15.3824 84.2237 15.3045V12.2812H83.0441V15.326C83.035 15.5462 83.0793 15.7654 83.173 15.9646C83.2668 16.1637 83.4072 16.3369 83.5823 16.4692C83.9566 16.7507 84.414 16.897 84.8809 16.8846C85.345 16.8968 85.7996 16.7504 86.1706 16.4692C86.3446 16.3362 86.4841 16.1627 86.5772 15.9637C86.6703 15.7646 86.7142 15.5459 86.7053 15.326V12.2812H85.5381L85.5359 15.3045Z" fill="white"/>
<path d="M90.7424 14.5259C90.6251 14.4198 90.4895 14.3361 90.3424 14.2791C90.1868 14.2137 90.0249 14.1644 89.8594 14.132C89.6734 14.099 89.486 14.0755 89.2977 14.0618C89.1171 14.05 88.9398 14.0079 88.773 13.9373C88.7193 13.9099 88.6749 13.8669 88.6456 13.8138C88.6164 13.7608 88.6036 13.7001 88.609 13.6396C88.609 13.3623 88.8123 13.2231 89.2213 13.2231C89.3728 13.2185 89.5226 13.2578 89.6527 13.3363C89.7088 13.371 89.7549 13.4198 89.7866 13.478C89.8183 13.5361 89.8345 13.6016 89.8335 13.6679H90.9356C90.9459 13.3738 90.8585 13.0846 90.6873 12.8462C90.5241 12.6195 90.3006 12.4441 90.0425 12.3402C89.775 12.2323 89.4892 12.1781 89.201 12.1806C88.755 12.1669 88.3172 12.304 87.9574 12.57C87.7904 12.6975 87.6567 12.8641 87.568 13.0555C87.4794 13.2468 87.4383 13.457 87.4485 13.6679C87.444 13.8764 87.4915 14.0827 87.5867 14.2678C87.6756 14.4349 87.8071 14.5751 87.9675 14.6741C88.1301 14.7742 88.306 14.8504 88.4899 14.9005C88.6887 14.9536 88.8924 14.9862 89.0977 14.9979C89.1842 14.9979 89.2449 15.0058 89.2786 15.0103L89.4561 15.0329C89.52 15.0391 89.5828 15.0543 89.6425 15.0782C89.6904 15.1016 89.7369 15.1277 89.7818 15.1563C89.8317 15.187 89.8709 15.2325 89.8942 15.2865C89.9188 15.3448 89.9311 15.4076 89.9301 15.471C89.9282 15.5378 89.9074 15.6026 89.8702 15.6579C89.833 15.7133 89.7809 15.7568 89.7201 15.7834C89.5725 15.8621 89.4073 15.9011 89.2404 15.8966C89.0651 15.9007 88.8919 15.8582 88.7382 15.7732C88.6747 15.7423 88.621 15.6942 88.5833 15.6341C88.5456 15.5741 88.5253 15.5047 88.5248 15.4336H87.4013C87.3866 15.6493 87.4279 15.865 87.5211 16.0597C87.6142 16.2544 87.7561 16.4213 87.9327 16.544C88.3205 16.8109 88.7822 16.9472 89.2516 16.9334C89.7133 16.9441 90.1665 16.8078 90.5469 16.544C90.7202 16.4278 90.8614 16.269 90.9571 16.0827C91.0528 15.8964 91.0999 15.6886 91.094 15.4789C91.0979 15.2855 91.0639 15.0932 90.994 14.913C90.9383 14.7674 90.8525 14.6355 90.7424 14.5259Z" fill="white"/>
<path d="M94.9287 14.5259C94.8114 14.4198 94.6759 14.3362 94.5288 14.2791C94.3731 14.2137 94.2113 14.1644 94.0457 14.132C93.8598 14.099 93.6723 14.0756 93.484 14.0618C93.3035 14.0499 93.1262 14.0078 92.9594 13.9373C92.9057 13.9098 92.8615 13.8668 92.8322 13.8137C92.803 13.7607 92.7902 13.7001 92.7954 13.6396C92.7954 13.3623 92.9987 13.2231 93.4076 13.2231C93.5592 13.2185 93.7089 13.2578 93.839 13.3363C93.8951 13.371 93.9413 13.4199 93.973 13.478C94.0047 13.5361 94.0209 13.6016 94.0199 13.6679H95.1231C95.1339 13.3737 95.0465 13.0844 94.8748 12.8462C94.712 12.6191 94.4883 12.4436 94.23 12.3402C93.9629 12.2325 93.6774 12.1782 93.3897 12.1807C92.9436 12.1667 92.5057 12.3038 92.1461 12.57C91.9787 12.6973 91.8447 12.8638 91.7558 13.0552C91.6669 13.2465 91.6258 13.4569 91.636 13.6679C91.6311 13.8766 91.679 14.083 91.7753 14.2678C91.8638 14.4348 91.9949 14.5751 92.155 14.6742C92.3177 14.774 92.4936 14.8502 92.6774 14.9005C92.8766 14.9537 93.0806 14.9863 93.2863 14.9979C93.3717 14.9979 93.4324 15.0058 93.4661 15.0103L93.6435 15.033C93.7075 15.039 93.7703 15.0543 93.83 15.0782C93.8779 15.1016 93.9244 15.1277 93.9693 15.1563C94.0192 15.1871 94.0584 15.2325 94.0817 15.2865C94.1063 15.3448 94.1186 15.4076 94.1176 15.471C94.1157 15.5378 94.0949 15.6026 94.0577 15.658C94.0205 15.7133 93.9684 15.7568 93.9076 15.7834C93.76 15.8622 93.5948 15.9011 93.4279 15.8966C93.2526 15.9007 93.0794 15.8582 92.9257 15.7732C92.8622 15.7423 92.8085 15.6942 92.7708 15.6342C92.7331 15.5741 92.7128 15.5047 92.7123 15.4336H91.5888C91.5741 15.6493 91.6154 15.865 91.7086 16.0597C91.8017 16.2544 91.9436 16.4213 92.1202 16.544C92.508 16.8109 92.9697 16.9472 93.4391 16.9334C93.9008 16.9442 94.3541 16.808 94.7344 16.544C94.908 16.428 95.0493 16.2693 95.145 16.0829C95.2408 15.8966 95.2877 15.6887 95.2815 15.4789C95.2854 15.2855 95.2514 15.0932 95.1815 14.913C95.1255 14.7673 95.0393 14.6354 94.9287 14.5259Z" fill="white"/>
<path d="M97.574 13.2461H98.0952V12.2852H95.872V13.2461H96.3944V15.8698H95.8203V16.8307H98.1469V15.8698H97.574V13.2461Z" fill="white"/>
<path d="M100.448 12.2355L98.3789 16.6634V16.8252H99.6146L99.8719 16.2593H101.557L101.822 16.8252H103.04V16.6634L100.991 12.2344L100.448 12.2355ZM100.249 15.2689L100.713 14.171L101.184 15.2689H100.249Z" fill="white"/>
</g>
<path d="M9.44531 4.55569C13.8187 4.81263 17.1249 10.9983 22.0937 15.5462C23.9373 17.2327 29.8958 10.7923 28.8589 9.8687C26.0582 7.3933 20.1345 2.80469 14.6411 2.80469C12.8211 2.80469 11.0462 3.30724 9.4498 4.55569" fill="url(#paint0_linear_2245_319)"/>
<path d="M3.58203 6.59312C9.36532 6.59086 13.6343 16.3057 22.1823 19.3901L25.0043 12.1959C25.0043 12.1959 16.6472 4.5184 9.26759 4.51953C7.2331 4.51953 5.27276 5.10245 3.58203 6.59086" fill="url(#paint1_linear_2245_319)"/>
<path d="M20.8241 11.4851C17.9033 11.8247 14.9993 10.2649 12.1211 8.68372C18.5088 15.7013 26.2872 18.7834 32.6603 12.9396C36.126 7.76916 37.8471 1.59141 40.7859 1.24506C39.685 0.36899 38.6514 0 37.6527 0C32.3233 0 28.1038 10.6305 20.8241 11.4885" fill="url(#paint2_linear_2245_319)"/>
<path d="M2.39193 6.02643C1.64623 6.26306 0.946322 6.62675 0.322619 7.10171C0.199604 7.19222 0.105322 7.31678 0.051237 7.46025C-0.00284753 7.60373 -0.0144088 7.75994 0.0179545 7.90991C0.0503177 8.05988 0.125214 8.19715 0.233544 8.30504C0.341873 8.41293 0.478972 8.4868 0.628182 8.51768C6.59909 9.88272 11.8622 21.1686 22.6121 19.9032C27.3012 19.3497 30.3636 16.3672 32.6576 12.9422C26.2845 18.786 20.2047 13.8001 12.1184 8.68633C9.86483 7.4492 7.63149 6.20187 5.42962 5.84986C5.06115 5.80216 4.69007 5.77797 4.31858 5.77742C3.66827 5.77448 3.02044 5.85821 2.39193 6.02643Z" fill="url(#paint3_linear_2245_319)"/>
<defs>
<linearGradient id="paint0_linear_2245_319" x1="25.6448" y1="0.520571" x2="9.28812" y2="18.7349" gradientUnits="userSpaceOnUse">
<stop stop-color="#ECECEC"/>
<stop offset="1" stop-color="#C6C6C5"/>
</linearGradient>
<linearGradient id="paint1_linear_2245_319" x1="20.842" y1="2.60214" x2="5.53308" y2="22.2885" gradientUnits="userSpaceOnUse">
<stop stop-color="#04BAEE"/>
<stop offset="1" stop-color="#0080C8"/>
</linearGradient>
<linearGradient id="paint2_linear_2245_319" x1="34.005" y1="-3.46805" x2="12.8469" y2="22.1534" gradientUnits="userSpaceOnUse">
<stop stop-color="#009EE2"/>
<stop offset="1" stop-color="#005CA8"/>
</linearGradient>
<linearGradient id="paint3_linear_2245_319" x1="31.8218" y1="25.6837" x2="-1.78677" y2="-6.75033" gradientUnits="userSpaceOnUse">
<stop stop-color="#E74E0F"/>
<stop offset="1" stop-color="#A71815"/>
</linearGradient>
<clipPath id="clip0_2245_319">
<rect width="69.1928" height="16.9302" fill="white" transform="translate(33.8633)"/>
</clipPath>
</defs>
</svg>
