<svg width="158" height="37" viewBox="0 0 158 37" fill="none" xmlns="http://www.w3.org/2000/svg">
<path fill-rule="evenodd" clip-rule="evenodd" d="M0 18.5V37H59.1728H118.346V18.5V0H59.1728H0V18.5ZM121.042 18.5V37H139.418H157.794V18.5V0H139.418H121.042V18.5ZM35.5674 8.45229C38.0567 8.97946 40.181 10.8038 41.111 13.213C41.568 14.397 41.6126 14.7632 41.659 17.7094C41.7134 21.1706 41.6377 22.2685 41.2628 23.4585C40.7949 24.9437 39.805 26.374 38.6034 27.3007C37.9295 27.8205 36.8562 28.3568 36.0078 28.5975C35.3345 28.7885 35.1155 28.8128 34.0552 28.814C33.0682 28.815 32.7422 28.7844 32.177 28.6375C29.3023 27.8903 27.0495 25.4272 26.5476 22.4826C26.3718 21.4519 26.3733 15.5687 26.5496 14.615C27.1148 11.5559 29.4526 9.11038 32.4372 8.456C33.3288 8.26049 34.6544 8.25891 35.5674 8.45229ZM54.0135 8.41442C54.4992 8.47664 55.07 8.56732 55.2819 8.61594C56.2432 8.83652 57.6318 9.35744 57.6318 9.49738C57.6318 9.65597 56.8356 12.852 56.7804 12.9154C56.7476 12.9528 56.3924 12.8712 55.9909 12.7339C55.0765 12.4213 53.4408 12.1037 52.4295 12.0422C51.2676 11.9716 50.5453 12.2192 49.7575 12.9579C49.3208 13.3675 48.9245 14.031 48.7773 14.599C48.7305 14.7798 48.6445 15.7448 48.5863 16.7436C48.4793 18.5768 48.5168 20.4012 48.6939 21.9722C48.8386 23.2558 49.5104 24.2496 50.6109 24.8076C51.1859 25.0991 51.1982 25.1014 52.1191 25.0958C53.1756 25.0894 54.4837 24.8411 55.8563 24.3862C56.2993 24.2394 56.6783 24.1363 56.6985 24.157C56.7187 24.1777 56.9332 24.9956 57.1754 25.9746L57.6156 27.7546L57.4119 27.862C57.0239 28.0666 55.5861 28.4674 54.6655 28.6275C53.4766 28.8342 51.6239 28.9089 50.7676 28.7847C48.7887 28.4976 47.1452 27.6271 46.0663 26.2944C45.2411 25.275 44.6257 23.7993 44.4598 22.4415C44.3529 21.5667 44.3554 15.4484 44.463 14.6548C44.696 12.9362 45.4359 11.4589 46.6435 10.3017C47.7409 9.25008 49.0507 8.63254 50.7746 8.35394C51.2589 8.27567 53.2155 8.31219 54.0135 8.41442ZM69.9562 8.42833C71.0101 8.56677 72.5114 8.97384 73.1031 9.28155L73.4773 9.47611L73.0588 11.1617C72.8287 12.0887 72.6166 12.8735 72.5875 12.9056C72.5584 12.9378 72.2065 12.8569 71.8056 12.7261C70.8335 12.4086 69.1839 12.0971 68.1874 12.0428C67.4856 12.0044 67.3121 12.0216 66.8776 12.1721C65.8724 12.5204 65.27 13.0683 64.8176 14.0458C64.5626 14.5967 64.54 14.7122 64.4442 15.9534C64.2563 18.3858 64.3784 22.0068 64.6764 22.8449C64.9479 23.6084 65.6031 24.4013 66.2366 24.7328C66.8589 25.0586 67.4033 25.1658 68.1857 25.1166C69.078 25.0604 70.5639 24.7473 71.653 24.3859C72.0971 24.2386 72.4831 24.1436 72.5106 24.1749C72.5539 24.2241 73.4267 27.6576 73.4267 27.7787C73.4267 27.8453 71.7976 28.3621 71.1647 28.4962C68.5857 29.0429 66.1248 28.944 64.4849 28.2278C63.6531 27.8647 63.0599 27.4671 62.4221 26.8455C61.3227 25.774 60.7638 24.7367 60.3534 23.0064C60.1962 22.3437 60.1129 16.0406 60.246 14.8825C60.4025 13.521 60.927 12.1575 61.6869 11.1371C62.6509 9.84263 64.2855 8.81375 65.8749 8.50075C66.1933 8.43814 66.5232 8.37172 66.6079 8.35322C67.0039 8.26689 69.0829 8.31354 69.9562 8.42833ZM153.436 8.68876C153.474 8.75121 152.76 9.60332 150.747 11.8985C150.442 12.2464 149.176 13.705 147.934 15.14C146.692 16.5749 145.523 17.918 145.337 18.1245L144.998 18.5H142.375C140.867 18.5 139.763 18.47 139.778 18.4294C139.799 18.3722 141.981 15.8361 143.63 13.9541C143.82 13.7366 144.546 12.9006 145.243 12.0962C145.939 11.2917 146.904 10.1799 147.385 9.62553L148.261 8.61752H150.827C152.267 8.61752 153.412 8.64875 153.436 8.68876ZM131.675 10.7546C131.675 12.6453 131.664 12.8162 131.54 12.8564C130.632 13.1511 130.057 13.8688 130.057 14.7079V14.9423H127.707H125.357V14.7573C125.357 14.0165 126.061 12.2822 126.728 11.3809C127.61 10.1877 129.063 9.21498 130.442 8.89423C130.76 8.82023 131.055 8.74837 131.097 8.73445C131.139 8.72046 131.287 8.70623 131.424 8.70283L131.675 8.69658V10.7546ZM134.333 8.93487C135.735 9.24462 137.098 10.0533 137.803 10.9927C138.616 12.0768 138.877 13.0455 138.822 14.7718C138.789 15.8026 138.758 16.0178 138.536 16.7212C138.143 17.9679 137.547 18.9997 136.665 19.9591C136.442 20.2017 134.578 21.9102 132.522 23.7557L128.786 27.1113L127.071 27.1144L125.357 27.1175V25.2665V23.4155L128.574 20.73C130.343 19.253 132.022 17.8256 132.306 17.5581C133.81 16.139 134.182 14.3178 133.165 13.3504C132.916 13.1129 132.51 12.8868 132.334 12.8868C132.229 12.8868 132.214 12.63 132.214 10.78V8.67318L132.888 8.71888C133.259 8.74402 133.909 8.84126 134.333 8.93487ZM19.6773 8.96918C21.187 9.26558 22.7069 10.3025 23.5562 11.6155C24.6354 13.2837 24.7806 15.587 23.9278 17.5072C23.2612 19.0084 22.0805 20.1836 20.6103 20.8096C19.6586 21.2148 19.3028 21.2646 17.355 21.2659L15.5637 21.2671V24.7853V28.3034H13.4834H11.4031V18.5791V8.8547H15.2487C18.2856 8.8547 19.2169 8.87874 19.6773 8.96918ZM80.5151 14.4442V20.0338L81.8092 17.9031C82.5211 16.7312 83.5654 15.0075 84.1299 14.0726C85.3706 12.018 85.9324 11.092 86.696 9.84295L87.276 8.89423L89.0578 8.87304L90.8395 8.85178V18.5776V28.3034H88.7597H86.68L86.6602 22.792L86.6404 17.2805L84.7233 20.44C83.6688 22.1776 82.1631 24.6577 81.3772 25.9514L79.9483 28.3034H78.1514H76.3545V18.5791V8.8547H78.4348H80.5151V14.4442ZM106.788 18.5791V28.3034H104.708H102.628V24.7853V21.2671H101.833H101.038L100.899 21.5636C100.822 21.7267 100.333 22.8562 99.8124 24.0737C99.2914 25.2912 98.674 26.7321 98.4406 27.2756L98.0161 28.2639L95.7376 28.2848C94.4845 28.2964 93.4591 28.287 93.4591 28.264C93.4591 28.241 94.2443 26.4917 95.2039 24.3765C96.7092 21.0587 96.9323 20.5189 96.829 20.4443C95.2835 19.3285 94.5947 18.4707 94.0783 17.0185C92.9821 13.9364 94.3589 10.6694 97.3045 9.36298C98.3833 8.88451 98.5634 8.86822 102.878 8.86118L106.788 8.8547V18.5791ZM153.325 18.5407V27.3571L151.072 27.3361L148.818 27.3152L148.798 21.1039L148.779 14.8926L151.02 12.3085C152.253 10.8873 153.276 9.72436 153.293 9.72436C153.311 9.72436 153.325 13.6917 153.325 18.5407ZM33.115 12.1698C31.8307 12.5911 30.939 13.6805 30.7484 15.0609C30.7064 15.3653 30.6312 16.2958 30.5815 17.1287C30.4902 18.6577 30.5583 20.7143 30.746 22.0972C30.9075 23.2856 31.6589 24.33 32.7254 24.8484C33.2063 25.0821 33.305 25.1012 34.0167 25.0971C34.635 25.0937 34.8701 25.0575 35.2077 24.914C35.804 24.6603 36.3198 24.2472 36.674 23.7397C37.2098 22.9719 37.2894 22.6348 37.4261 20.5556C37.5313 18.9548 37.5347 18.457 37.4504 16.9583C37.334 14.8911 37.2856 14.58 36.9812 13.9415C36.277 12.4643 34.5832 11.688 33.115 12.1698ZM15.5637 14.9423V17.3932H17.1573C18.6065 17.3932 18.7807 17.3785 19.0773 17.2311C20.7535 16.3985 20.7631 13.5503 19.0926 12.6961C18.7016 12.4961 18.6565 12.4915 17.1281 12.4915H15.5637V14.9423ZM99.1942 12.6409C98.7206 12.8616 98.3431 13.2432 98.1047 13.742C97.9157 14.1375 97.89 14.2811 97.8898 14.9423C97.8895 15.8049 98.025 16.2042 98.502 16.746C99.0292 17.3449 99.2183 17.3932 101.034 17.3932H102.628V14.9423V12.4915L101.068 12.4932C99.7174 12.4947 99.4652 12.5146 99.1942 12.6409ZM148.24 21.109V23.1645H143.964H139.688V21.109V19.0534H143.964H148.24V21.109ZM138.725 24.9038V27.078L134.115 27.0984C131.058 27.1119 129.513 27.0921 129.53 27.0395C129.544 26.9958 130.631 25.9991 131.945 24.8242L134.333 22.6884L136.529 22.709L138.725 22.7297V24.9038Z" fill="white"/>
</svg>
