<svg width="137" height="31" viewBox="0 0 137 31" fill="none" xmlns="http://www.w3.org/2000/svg">
<path fill-rule="evenodd" clip-rule="evenodd" d="M35.1405 20.0089H38.3092C39.5456 20.0089 40.0157 20.4239 40.0157 21.4405C40.0157 22.4193 39.5453 22.8339 38.3092 22.8339H35.1405V20.0089ZM30.2316 30.2909H35.1408V26.1099H40.399C43.8804 26.1099 45.1339 24.1147 45.1339 21.5351C45.1339 18.5407 43.845 16.8463 40.3636 16.8463H30.2316V30.2909ZM46.7528 16.8463H59.9653V20.122H51.662V21.9298H59.3743V25.2069H51.662V27.0145H59.9653V30.2909H46.7528V16.8463ZM66.9293 20.0089H70.0977C71.3338 20.0089 71.8042 20.4239 71.8042 21.4405C71.8042 22.4193 71.3338 22.8339 70.0977 22.8339H66.9293V20.0089ZM62.0201 30.2909H66.9293V26.1099H72.1866C75.6689 26.1099 76.9226 24.1147 76.9226 21.5351C76.9226 18.5407 75.6337 16.8463 72.1516 16.8463H62.0201V30.2909ZM81.6743 24.5853C79.2723 24.1892 78.2807 22.6829 78.2807 20.8003C78.2807 17.3162 81.4318 16.3755 85.4696 16.3755C91.0049 16.3755 93.2859 17.9378 93.4602 20.7816H87.7499C87.7499 20.2354 87.4538 19.8958 87.002 19.7077C86.5666 19.5011 86.0099 19.4259 85.4696 19.4259C84.0074 19.4259 83.503 19.8208 83.503 20.3862C83.503 20.7622 83.659 21.0079 84.1465 21.0828L90.013 22.024C92.4855 22.4193 94.0176 23.6622 94.0176 25.9401C94.0176 29.2176 91.5454 30.7617 86.0266 30.7617C82.2491 30.7617 78.123 30.197 78.1059 26.2424H84.0247C84.0414 26.6938 84.1988 26.995 84.5474 27.2023C84.912 27.3909 85.452 27.4853 86.2177 27.4853C87.7494 27.4853 88.1679 27.033 88.1679 26.3926C88.1679 25.9972 87.9411 25.6021 87.281 25.4896L81.6743 24.5853ZM95.6185 16.8463H100.527V30.2909H95.6185V16.8463ZM118.721 25.0561C118.407 26.8262 117.85 28.2573 116.631 29.2362C115.43 30.2155 113.55 30.7617 110.556 30.7617C107.579 30.7617 102.06 30.5352 102.06 23.5689C102.06 16.6013 107.579 16.3753 110.556 16.3753C113.515 16.3753 118.076 16.7891 118.721 22.1188H113.185C113.045 21.1575 112.453 19.7643 110.556 19.7643C108.553 19.7643 107.282 20.8376 107.282 23.5687C107.282 26.2991 108.519 27.3717 110.312 27.3717C111.861 27.3717 112.784 26.6751 113.185 25.0558L118.721 25.0561ZM125.144 23.5692C125.144 20.8378 126.415 19.7648 128.418 19.7648C130.419 19.7648 131.691 20.838 131.691 23.5692C131.691 26.2996 130.419 27.3721 128.418 27.3721C126.415 27.3719 125.144 26.2994 125.144 23.5692ZM119.921 23.5692C119.921 30.5352 125.44 30.7619 128.417 30.7619C131.394 30.7619 136.913 30.5354 136.913 23.5692C136.913 16.6015 131.394 16.3755 128.417 16.3755C125.44 16.3755 119.921 16.6013 119.921 23.5692ZM22.8137 16.9795C23.1307 10.5292 17.413 3.26519 9.61812 2.36731L9.63144 2.27917C17.316 2.27917 23.207 9.20031 23.207 14.6605C23.1996 15.7971 23.1074 16.5013 22.9428 17.0126L22.8137 16.9795ZM22.3481 17.7995C21.8368 18.4072 21.1938 19.0192 20.4404 19.6001C19.0545 11.8454 13.1973 5.06442 9.0562 3.0852L8.9675 3.14535C13.1321 6.47058 18.0993 12.9288 20.0309 19.9043C19.0457 20.6085 17.9813 21.2015 16.8584 21.6718C12.9285 17.3118 9.26475 8.90302 8.08407 3.56711L7.96398 3.60227C7.99062 8.7818 11.7705 17.5746 16.38 21.865C15.3228 22.272 14.2237 22.5675 13.1017 22.7462C8.68309 21.0433 5.53794 15.5889 5.53794 10.0015C5.53794 6.35398 6.68105 4.0976 6.9022 3.63582L6.80803 3.5995C6.54051 3.99326 4.86592 6.24848 4.86592 10.1863C4.86592 16.502 8.06743 21.3294 12.3179 22.8497C10.7979 23.0123 9.26114 22.9421 7.76352 22.6417L7.73189 22.7379C8.18656 22.9008 9.72918 23.5308 12.0825 23.5308C17.4051 23.5308 21.0033 20.3133 22.4517 17.8677L22.3481 17.7995Z" fill="white"/>
<path fill-rule="evenodd" clip-rule="evenodd" d="M11.5503 0C7.51527 0 2.78399 2.83315 2.78399 5.42291C2.78399 6.42466 3.72592 7.27095 5.67541 7.27095C10.201 7.27095 14.4055 4.24602 14.4055 1.89385C14.4055 0.656116 13.1837 0 11.5503 0ZM13.1611 1.82075C13.1611 3.80344 9.24764 6.22709 5.97622 6.22709C4.53087 6.22709 3.74994 5.67369 3.74994 4.76055C3.74994 2.7494 7.70788 0.366926 10.7765 0.366926C12.7771 0.366926 13.1611 1.35735 13.1611 1.82075Z" fill="white"/>
<path fill-rule="evenodd" clip-rule="evenodd" d="M1.17636 6.62199C1.06293 6.81286 0.608726 7.67812 0.608726 8.56466C0.608726 10.2089 2.31637 11.7354 5.45724 11.7354C11.4995 11.7354 18.4804 7.40836 18.4804 3.39184C18.4804 1.5889 16.7261 0.608661 15.5081 0.405996L15.4853 0.476327C15.8641 0.592929 17.2519 1.22059 17.2519 2.82664C17.2519 6.02695 11.0884 10.3875 4.94882 10.3875C2.5984 10.3875 1.11762 9.25872 1.11762 7.61449C1.11762 7.09441 1.22891 6.75178 1.2584 6.65253L1.17636 6.62199Z" fill="white"/>
<path fill-rule="evenodd" clip-rule="evenodd" d="M20.9723 3.69215C21.1381 3.81454 22.1333 4.6215 22.1333 6.1475C22.1333 11.3506 13.7536 16.467 6.34545 16.467C1.92759 16.467 -0.0863422 14.3448 0.00283302 12.4604H0.0820206C0.255139 13.4391 1.68955 15.1902 5.55619 15.1902C12.9737 15.1902 21.2555 9.89611 21.2555 5.25772C21.2555 4.46209 21.0334 3.9663 20.9079 3.74582L20.9723 3.69215Z" fill="white"/>
<path fill-rule="evenodd" clip-rule="evenodd" d="M23.7724 8.54986C23.8071 8.66068 23.9876 9.15878 23.9876 9.9389C23.9876 15.7269 15.5074 20.682 8.13202 20.682C4.33601 20.682 2.3537 18.8881 1.93517 18.1595L2.00271 18.1109C3.05307 19.0047 5.12194 19.6837 7.53633 19.6837C14.0502 19.6837 23.7698 14.8623 23.683 8.57091L23.7724 8.54986Z" fill="white"/>
</svg>
