<svg width="144" height="28" viewBox="0 0 144 28" fill="none" xmlns="http://www.w3.org/2000/svg">
<path d="M109.115 3.4339C109.174 4.14041 109.783 4.618 110.783 4.618C111.699 4.618 112.383 4.14041 112.411 3.4339H111.45C111.415 3.79307 111.158 3.91543 110.783 3.91543C110.407 3.91543 110.143 3.75755 110.075 3.4339H109.115ZM109.091 10.6806L112.15 6.54018V10.6766H113.177V4.84692H112.276L109.214 8.9952V4.84692H108.191V10.6766L109.091 10.6806ZM102.485 10.6806L105.547 6.54018V10.6766H106.571V4.84692H105.674L102.611 8.9952V4.84692H101.588V10.6766L102.485 10.6806ZM95.9811 10.6806H97.0084V7.66902L99.3792 10.6766H100.683L98.1306 7.56245L100.533 4.84692H99.2962L96.9966 7.60981V4.84692H95.9693L95.9811 10.6806ZM94.5745 9.35438C94.1758 9.65736 93.6885 9.82101 93.1875 9.82013C92.9169 9.83105 92.647 9.78525 92.3952 9.68569C92.1434 9.58613 91.9152 9.43501 91.7254 9.24205C91.5356 9.04909 91.3883 8.81857 91.2931 8.56532C91.1978 8.31208 91.1567 8.04172 91.1724 7.77164C91.1724 6.5086 91.9903 5.72315 93.073 5.72315C93.5425 5.71083 94.0037 5.84916 94.3887 6.11785L94.851 5.36003C94.3485 4.95667 93.7172 4.74787 93.073 4.77193C91.1487 4.77193 90.0858 6.10206 90.0858 7.77559C90.0629 8.17655 90.125 8.57782 90.2682 8.9531C90.4114 9.32838 90.6324 9.66918 90.9167 9.95316C91.201 10.2371 91.5422 10.4579 91.9179 10.6009C92.2936 10.744 92.6953 10.8061 93.0967 10.7832C93.7811 10.8102 94.4499 10.5744 94.9656 10.124L94.5745 9.35438ZM84.8424 3.4339C84.9017 4.14041 85.5102 4.618 86.5099 4.618C87.4266 4.618 88.0904 4.14041 88.1378 3.4339H87.1776C87.146 3.79307 86.8852 3.91543 86.5099 3.91543C86.1345 3.91543 85.8698 3.75755 85.8026 3.4339H84.8424ZM84.8187 10.6806L87.877 6.54018V10.6766H88.9043V4.84692H88.0035L84.9452 8.9952V4.84692H83.9178V10.6766L84.8187 10.6806ZM78.2161 10.6806L81.2744 6.54018V10.6766H82.2978V4.84692H81.3969L78.3465 8.9952V4.84692H77.3231V10.6766L78.2161 10.6806ZM75.9046 9.35438C75.5074 9.65733 75.0214 9.82103 74.5216 9.82013C74.2511 9.83157 73.9811 9.7863 73.7291 9.68723C73.4771 9.58815 73.2486 9.43747 73.0584 9.24489C72.8682 9.0523 72.7205 8.82207 72.6248 8.56902C72.529 8.31596 72.4874 8.04569 72.5025 7.77559C72.5025 6.51255 73.3205 5.7271 74.4031 5.7271C74.8738 5.71559 75.3359 5.85381 75.7228 6.1218L76.1812 5.36398C75.679 4.95999 75.0474 4.7511 74.4031 4.77588C72.4788 4.77588 71.4199 6.10601 71.4199 7.77953C71.3963 8.18065 71.4581 8.5822 71.601 8.95777C71.744 9.33333 71.965 9.6744 72.2494 9.95852C72.5338 10.2426 72.8753 10.4634 73.2512 10.6062C73.6272 10.749 74.0292 10.8107 74.4308 10.7871C75.114 10.8144 75.7817 10.5784 76.2958 10.128L75.9046 9.35438ZM70.4439 9.35438C70.0467 9.65733 69.5607 9.82103 69.061 9.82013C68.7904 9.83157 68.5204 9.7863 68.2684 9.68723C68.0164 9.58815 67.7879 9.43747 67.5978 9.24489C67.4076 9.0523 67.2598 8.82207 67.1641 8.56902C67.0684 8.31596 67.0267 8.04569 67.0418 7.77559C67.0418 6.51255 67.8598 5.7271 68.9424 5.7271C69.412 5.71477 69.8731 5.85311 70.2582 6.1218L70.7205 5.36398C70.218 4.96062 69.5866 4.75182 68.9424 4.77588C67.0181 4.77588 65.9592 6.10601 65.9592 7.77953C65.9357 8.1803 65.9973 8.58149 66.1401 8.95677C66.2828 9.33205 66.5034 9.67291 66.7874 9.95697C67.0714 10.241 67.4123 10.4618 67.7878 10.6049C68.1633 10.748 68.5649 10.8101 68.9661 10.7871C69.6546 10.8098 70.3253 10.5667 70.839 10.1083L70.4439 9.35438ZM60.214 7.77559C60.172 7.49487 60.1911 7.2084 60.27 6.93572C60.3489 6.66304 60.4857 6.41057 60.6712 6.19554C60.8566 5.9805 61.0864 5.80796 61.3447 5.68969C61.603 5.57141 61.8838 5.51018 62.1679 5.51018C62.4521 5.51018 62.7329 5.57141 62.9912 5.68969C63.2495 5.80796 63.4792 5.9805 63.6647 6.19554C63.8502 6.41057 63.987 6.66304 64.0659 6.93572C64.1448 7.2084 64.1639 7.49487 64.1218 7.77559C64.1218 8.92811 63.3909 9.82407 62.1462 9.82407C61.884 9.8185 61.6255 9.76084 61.3859 9.65444C61.1462 9.54804 60.9301 9.39504 60.7503 9.20436C60.5704 9.01369 60.4304 8.78915 60.3383 8.54385C60.2462 8.29854 60.204 8.03738 60.214 7.77559ZM59.1274 7.77559C59.1134 8.17426 59.1821 8.57152 59.3292 8.9424C59.4763 9.31328 59.6985 9.64977 59.982 9.93074C60.2655 10.2117 60.6041 10.4311 60.9766 10.575C61.349 10.719 61.7472 10.7845 62.1462 10.7674C62.547 10.7836 62.9469 10.7178 63.3213 10.5741C63.6957 10.4303 64.0368 10.2117 64.3235 9.93148C64.6103 9.65131 64.8367 9.31556 64.9889 8.94483C65.1411 8.57409 65.2158 8.17621 65.2084 7.77559C65.2262 7.37096 65.1589 6.9671 65.0107 6.59008C64.8626 6.21307 64.637 5.87126 64.3484 5.58674C64.0599 5.30221 63.7148 5.08129 63.3355 4.93822C62.9561 4.79516 62.551 4.73313 62.1462 4.75614C61.7462 4.74409 61.3479 4.81398 60.9759 4.96151C60.6039 5.10904 60.2661 5.33108 59.9833 5.61395C59.7005 5.89683 59.4787 6.23455 59.3315 6.60631C59.1843 6.97807 59.1148 7.376 59.1274 7.77559ZM56.2193 5.80209C56.9186 5.80209 57.294 6.10206 57.294 6.7099C57.294 7.31774 56.8199 7.65323 56.2114 7.65323C55.9684 7.6523 55.7257 7.63781 55.4843 7.60981V5.80209C55.7609 5.80209 56.0098 5.78236 56.2193 5.78236V5.80209ZM55.4843 10.6727V8.56498C55.7333 8.58867 56.0691 8.58867 56.243 8.58867C57.6378 8.58867 58.3767 7.68875 58.3767 6.69806C58.3767 5.70736 57.8353 4.82719 56.1205 4.82719H54.4609V10.6766L55.4843 10.6727Z" fill="white"/>
<path d="M59.3091 19.0363C59.3091 17.2207 58.0921 16.0366 56.3772 16.0366C55.6524 16.0111 54.9413 16.2386 54.366 16.68L54.7612 17.4457C55.1562 17.1519 55.6359 16.994 56.1283 16.9957C57.2307 16.9957 58.0289 17.5364 58.2304 18.5114H55.6305V19.4705H58.2541C58.1854 19.9451 57.9395 20.3762 57.5657 20.6771C57.1918 20.9781 56.7179 21.1265 56.239 21.0927C55.6961 21.0921 55.1685 20.9132 54.7375 20.5835L54.2949 21.444C54.8667 21.862 55.5624 22.0761 56.2706 22.0518C58.1395 22.0518 59.321 20.8677 59.321 19.0363H59.3091ZM65.2163 21.9571L62.6519 18.8271L65.0543 16.1116H63.8215L61.5179 18.8745V16.1116H60.4945V21.9413H61.5179V18.9376L63.8887 21.9413L65.2163 21.9571ZM66.7612 19.0442C66.7612 17.7772 67.5752 16.9957 68.6618 16.9957C69.1312 16.9848 69.5919 17.123 69.9776 17.3904L70.4439 16.6286C69.9447 16.2216 69.3136 16.011 68.6697 16.0366C66.7415 16.0366 65.6825 17.3707 65.6825 19.0442C65.659 19.4453 65.7207 19.8469 65.8637 20.2224C66.0067 20.598 66.2276 20.9391 66.5121 21.2232C66.7965 21.5073 67.1379 21.728 67.5139 21.8708C67.8899 22.0137 68.2919 22.0753 68.6934 22.0518C69.3776 22.0768 70.0457 21.8412 70.5624 21.3927L70.1673 20.6269C69.7686 20.9299 69.2813 21.0936 68.7804 21.0927C68.5096 21.1042 68.2394 21.0588 67.9873 20.9595C67.7352 20.8602 67.5068 20.7091 67.3169 20.516C67.1269 20.3229 66.9797 20.0921 66.8846 19.8386C66.7896 19.585 66.7489 19.3144 66.7652 19.0442H66.7612ZM75.1854 21.9571H76.2127V16.1274H71.5581V21.9571H72.5855V17.0865H75.1854V21.9571ZM82.3886 19.0442C82.3886 20.1928 81.6576 21.0927 80.413 21.0927C80.1494 21.0892 79.8892 21.033 79.6477 20.9276C79.4062 20.8221 79.1883 20.6694 79.0068 20.4785C78.8253 20.2876 78.6838 20.0624 78.5908 19.8161C78.4977 19.5697 78.4549 19.3073 78.465 19.0442C78.423 18.7635 78.442 18.477 78.5209 18.2043C78.5998 17.9317 78.7367 17.6792 78.9221 17.4642C79.1076 17.2491 79.3373 17.0766 79.5956 16.9583C79.8539 16.84 80.1347 16.7788 80.4189 16.7788C80.703 16.7788 80.9838 16.84 81.2421 16.9583C81.5005 17.0766 81.7302 17.2491 81.9156 17.4642C82.1011 17.6792 82.238 17.9317 82.3169 18.2043C82.3958 18.477 82.4148 18.7635 82.3728 19.0442H82.3886ZM83.4594 19.0442C83.4747 18.6421 83.4061 18.2412 83.2579 17.867C83.1098 17.4929 82.8853 17.1536 82.5988 16.8707C82.3123 16.5878 81.97 16.3676 81.5937 16.224C81.2174 16.0804 80.8153 16.0166 80.413 16.0366C80.0128 16.023 79.6141 16.0913 79.2413 16.2373C78.8686 16.3834 78.5296 16.604 78.2454 16.8857C77.9612 17.1674 77.7376 17.5042 77.5885 17.8754C77.4394 18.2466 77.3679 18.6444 77.3784 19.0442C77.362 19.4456 77.4295 19.8459 77.5765 20.2198C77.7235 20.5937 77.9469 20.9329 78.2323 21.2158C78.5178 21.4988 78.8591 21.7192 79.2345 21.8631C79.61 22.0071 80.0113 22.0713 80.413 22.0518C80.8138 22.0659 81.2133 21.998 81.587 21.8523C81.9606 21.7066 82.3005 21.4862 82.5858 21.2045C82.8711 20.9229 83.0957 20.586 83.2459 20.2145C83.3962 19.843 83.4688 19.4447 83.4594 19.0442ZM87.4779 17.9785C87.4779 18.6258 86.9998 18.9179 86.3913 18.9179C86.1581 18.9179 85.9092 18.9179 85.6682 18.8784V17.0865C85.9448 17.0865 86.1937 17.0865 86.3992 17.0865C87.1025 17.0865 87.4779 17.3865 87.4779 17.9943V17.9785ZM88.5605 17.9943C88.5605 17.0352 88.0192 16.1195 86.3004 16.1195H84.6408V21.9492H85.6682V19.8533C85.9171 19.877 86.249 19.877 86.4268 19.877C87.8177 19.877 88.5605 18.9771 88.5605 17.9864V17.9943ZM91.9389 17.0865H93.8316V16.1274H89.0347V17.0865H90.9274V21.9571H91.9547L91.9389 17.0865ZM98.4151 21.9571H99.4345V16.1274H98.4151V18.4956H95.7479V16.1274H94.7206V21.9571H95.7479V19.4705H98.4151V21.9571ZM103.777 19.9836C103.777 20.6664 103.382 21.0098 102.627 21.0098C102.426 21.0098 102.26 21.0098 102.078 20.9861V19.0758C102.311 19.0521 102.473 19.0363 102.643 19.0363C103.362 19.0363 103.777 19.36 103.777 19.9836ZM104.864 19.9599C104.864 18.8192 104.168 18.0772 102.726 18.0772C102.509 18.0768 102.293 18.0914 102.078 18.1206V16.1274H101.051V21.9571C101.394 21.9571 101.951 21.9571 102.501 21.9571C103.994 21.9571 104.871 21.1677 104.871 19.9481L104.864 19.9599ZM105.63 21.9215H106.646V16.1274H105.63V21.9215ZM112.482 14.6788H111.537C111.506 15.0341 111.249 15.1604 110.873 15.1604C110.498 15.1604 110.229 15.0025 110.162 14.6788H109.206C109.261 15.3853 109.87 15.8629 110.873 15.8629C111.79 15.8629 112.474 15.3893 112.497 14.6788H112.482ZM112.241 21.9215H113.264V16.1274H112.363L109.305 20.2757V16.1274H108.277V21.9571H109.167L112.229 17.8206L112.241 21.9215Z" fill="white"/>
<path d="M121.878 22.9991H122.834V21.0019H122.044V16.1274H121.02V21.0019H118.46V16.1274H117.437V21.961H121.882L121.878 22.9991ZM123.853 21.961H127.311V21.0019H124.877V19.4942H126.979V18.5351H124.877V17.0865H127.228V16.1274H123.853V21.961ZM132.341 21.961H133.356V16.1274H132.341V18.4956H129.674V16.1274H128.646V21.961H129.674V19.4705H132.341V21.961ZM137.169 17.0865H139.062V16.1274H134.249V17.0865H136.142V21.961H137.169V17.0865ZM142.788 17.9785C142.788 18.6258 142.314 18.9179 141.705 18.9179C141.468 18.9179 141.219 18.9179 140.978 18.8784V17.0865C141.255 17.0865 141.504 17.0865 141.713 17.0865C142.413 17.0865 142.788 17.3865 142.788 17.9943V17.9785ZM143.871 17.9943C143.871 17.0352 143.329 16.1195 141.611 16.1195H139.951V21.9531H140.978V19.8534C141.227 19.877 141.563 19.877 141.737 19.877C143.128 19.877 143.871 18.9771 143.871 17.9864" fill="white"/>
<path d="M23.3127 0.00394783L20.5349 1.03806L20.041 0L23.3127 0.00394783Z" fill="white"/>
<path d="M20.0371 0L20.5349 1.03806L18.1562 1.91824L20.0371 0Z" fill="white"/>
<path d="M31.7327 0.244751L34.0126 3.43392L25.4541 2.66031L31.7327 0.244751Z" fill="white"/>
<path d="M45.7724 0.00390625L42.3743 1.34193L40.5527 0.00390625H45.7724Z" fill="white"/>
<path d="M18.1565 5.39563L15.4459 8.6361L12.0557 8.27298L18.1565 5.39563Z" fill="white"/>
<path d="M15.4459 8.63212L12.0557 12.6265V8.27295L15.4459 8.63212Z" fill="white"/>
<path d="M45.8235 0.00390625L44.4405 2.85363L42.374 1.34193L45.7721 0.00390625H45.8235Z" fill="white"/>
<path d="M5.36177 15.2156L5.08123 18.4601L0.0117188 21.2032L5.36177 15.2156Z" fill="white"/>
<path d="M5.08136 18.4601L4.70204 22.1308L0 21.2151L5.08136 18.4601Z" fill="white"/>
<path d="M35.8108 6.37445L40.6077 12.1963L32.6182 11.3516L35.8108 6.37445Z" fill="white"/>
<path d="M40.6074 12.1962L28.959 17.047L32.6179 11.3515L40.6074 12.1962Z" fill="white"/>
<path d="M23.2689 19.1429L12.0117 23.8556V16.5971L23.2689 19.1429Z" fill="white"/>
<path d="M37.0477 21.2744L33.7563 28L32.0059 23.3584L37.0477 21.2744Z" fill="white"/>
<path d="M32.0056 23.3583L33.756 28L25.2607 26.2752L32.0056 23.3583Z" fill="white"/>
<path d="M19.8477 9.25571L26.4661 6.67438L28.2837 10.1162L19.8477 9.25571Z" fill="white"/>
<path d="M19.8477 9.25574L28.2837 10.1162L20.8947 13.0922L19.8477 9.25574Z" fill="white"/>
</svg>
