<svg width="243" height="28" viewBox="0 0 243 28" fill="none" xmlns="http://www.w3.org/2000/svg">
<path d="M173.391 4.52722L166.555 7.21512L162.896 4.52722H173.391Z" fill="white"/>
<path d="M173.497 4.52722L170.707 10.2543L166.555 7.21512L173.39 4.52722H173.497Z" fill="white"/>
<path d="M179.326 7.86237H181.558C181.499 8.26692 181.289 8.63423 180.97 8.89049C180.652 9.14676 180.248 9.27299 179.839 9.24381C179.379 9.2439 178.931 9.09118 178.567 8.80965L178.172 9.53984C178.654 9.89531 179.241 10.0788 179.839 10.0608C181.42 10.0608 182.435 9.04252 182.435 7.4953C182.457 7.15949 182.408 6.82283 182.291 6.50724C182.174 6.19166 181.992 5.90423 181.756 5.66368C181.521 5.42313 181.237 5.23485 180.924 5.11112C180.611 4.98738 180.275 4.93097 179.938 4.94555C179.322 4.92574 178.718 5.11804 178.227 5.49023L178.571 6.14148C178.905 5.88784 179.313 5.74934 179.733 5.74678C180.669 5.74678 181.353 6.20463 181.519 7.03745H179.31L179.326 7.86237ZM183.881 9.9819H184.755V7.42425L186.782 9.9819H187.888L185.719 7.32953L187.758 5.01264H186.715L184.739 7.38084V5.01264H183.866L183.881 9.9819ZM192.242 8.84912C191.902 9.10766 191.485 9.24643 191.057 9.24381C190.827 9.25354 190.597 9.21499 190.382 9.13063C190.168 9.04628 189.973 8.918 189.811 8.75404C189.65 8.59008 189.524 8.39408 189.442 8.17865C189.361 7.96322 189.325 7.73313 189.338 7.50319C189.338 6.42566 190.038 5.75863 190.958 5.75863C191.357 5.74718 191.75 5.86485 192.076 6.09412L192.472 5.45076C192.046 5.10287 191.508 4.92309 190.958 4.94555C189.318 4.94555 188.418 6.07833 188.418 7.50319C188.398 7.84416 188.451 8.1854 188.573 8.50453C188.695 8.82366 188.882 9.11347 189.124 9.35497C189.366 9.59646 189.656 9.78419 189.976 9.90584C190.295 10.0275 190.637 10.0803 190.978 10.0608C191.557 10.0798 192.121 9.87962 192.559 9.50037L192.242 8.84912ZM193.187 9.9819H194.064L194.582 8.71492H196.703L197.217 9.9819H198.146L196.051 5.01264H195.305L193.187 9.9819ZM195.644 6.13359L196.368 7.89789H194.91L195.644 6.13359ZM200.188 9.9819V8.17023C200.406 8.19392 200.686 8.19391 200.833 8.19391C202.018 8.19391 202.65 7.4282 202.65 6.58355C202.65 5.73889 202.192 5.00475 200.73 5.00475H199.319V9.9819H200.188ZM200.813 5.82572C201.409 5.82572 201.729 6.07833 201.729 6.61512C201.729 7.15191 201.334 7.40452 200.805 7.40452C200.607 7.40452 200.41 7.40452 200.188 7.369V5.83756H200.813" fill="white"/>
<path d="M190.986 10.2228C190.623 10.244 190.259 10.1882 189.919 10.0591C189.579 9.92994 189.27 9.73042 189.013 9.4736C188.755 9.21678 188.555 8.90847 188.425 8.5689C188.295 8.22934 188.239 7.8662 188.26 7.50332C188.237 7.14177 188.291 6.77949 188.418 6.44032C188.546 6.10114 188.744 5.79277 188.999 5.53549C189.254 5.27821 189.561 5.07786 189.9 4.94763C190.238 4.8174 190.6 4.76024 190.962 4.77991C191.553 4.75817 192.13 4.95337 192.586 5.32854L192.689 5.41932L192.136 6.32712L191.994 6.22845C191.691 6.01933 191.33 5.91278 190.962 5.92453C190.097 5.92453 189.512 6.55605 189.512 7.50332C189.499 7.71181 189.529 7.92081 189.602 8.11666C189.675 8.3125 189.788 8.49077 189.935 8.6398C190.082 8.78883 190.258 8.90527 190.453 8.98149C190.648 9.05771 190.856 9.092 191.065 9.08211C191.454 9.08214 191.831 8.95454 192.14 8.71899L192.298 8.59664L192.776 9.52813L192.697 9.61101C192.227 10.0276 191.614 10.2467 190.986 10.2228ZM190.962 5.09172C190.644 5.07106 190.324 5.11897 190.026 5.2322C189.727 5.34543 189.456 5.52134 189.231 5.74807C189.007 5.9748 188.833 6.24705 188.723 6.54645C188.613 6.84585 188.568 7.16542 188.592 7.48359C188.591 7.92287 188.712 8.35378 188.94 8.72954C189.167 9.10529 189.494 9.41151 189.884 9.61493C190.273 9.81834 190.712 9.91118 191.15 9.88335C191.589 9.85552 192.012 9.70809 192.373 9.45708L192.179 9.06238C191.846 9.27236 191.459 9.38325 191.065 9.38209C190.813 9.39177 190.562 9.34887 190.328 9.25612C190.093 9.16337 189.881 9.02281 189.704 8.84342C189.527 8.66402 189.389 8.44974 189.3 8.21424C189.21 7.97874 189.171 7.72721 189.184 7.47569C189.184 6.3508 189.915 5.56536 190.962 5.56536C191.337 5.55796 191.707 5.65206 192.033 5.8377L192.262 5.443C191.882 5.17678 191.427 5.03853 190.962 5.0483V5.09172ZM179.855 10.1794C179.218 10.1976 178.593 10.0016 178.081 9.62285L177.982 9.53997L178.512 8.56506L178.666 8.68742C179.006 8.9473 179.423 9.08623 179.851 9.08211C180.187 9.10919 180.521 9.01884 180.797 8.82657C181.074 8.6343 181.274 8.35207 181.365 8.02827H179.172V6.88365H181.333C181.124 6.27186 180.563 5.92453 179.753 5.92453C179.37 5.92225 178.997 6.04414 178.69 6.27187L178.532 6.39027L178.042 5.45089L178.14 5.36406C178.66 4.96483 179.303 4.75835 179.958 4.77991C180.316 4.76728 180.673 4.82931 181.005 4.96205C181.338 5.09479 181.639 5.29532 181.889 5.55084C182.14 5.80636 182.334 6.11126 182.46 6.44608C182.586 6.7809 182.641 7.13829 182.621 7.49543C182.621 9.15316 181.539 10.2228 179.855 10.2228V10.1794ZM178.397 9.49655C178.836 9.76469 179.342 9.90167 179.855 9.89125C181.333 9.89125 182.285 8.94792 182.285 7.49148C182.305 7.17873 182.259 6.86532 182.149 6.5717C182.039 6.27807 181.869 6.01083 181.649 5.78738C181.429 5.56393 181.165 5.3893 180.872 5.27488C180.58 5.16045 180.267 5.1088 179.954 5.12329C179.423 5.11048 178.901 5.25914 178.457 5.54957L178.646 5.91269C178.979 5.71168 179.36 5.60523 179.749 5.60483C180.788 5.60483 181.519 6.13767 181.697 7.02969L181.736 7.22703H179.5V7.69673H181.764L181.732 7.89013C181.668 8.33332 181.438 8.73588 181.089 9.01753C180.741 9.29918 180.299 9.43922 179.851 9.40971C179.421 9.41052 179 9.28716 178.638 9.05449L178.397 9.49655ZM200.355 10.1439H199.169V4.85885H199.335H199.96H200.75C202.631 4.85885 202.832 6.08636 202.832 6.61525C202.832 7.47175 202.216 8.39139 200.856 8.39139C200.742 8.39139 200.552 8.39139 200.374 8.39139L200.355 10.1439ZM199.485 9.81625H200.023V8.00459H200.204C200.414 8.02433 200.687 8.02432 200.837 8.02432C201.975 8.02432 202.484 7.30203 202.484 6.57973C202.484 5.92848 202.18 5.15487 200.73 5.15487H199.94H199.477L199.485 9.81625ZM198.395 10.1439H197.107L196.593 8.87687H194.692L194.175 10.1439H192.934L195.171 4.84306H196.158L198.395 10.1439ZM197.328 9.81625H197.897L195.941 5.17461H195.392L193.416 9.81625H193.934L194.471 8.56506H196.814L197.328 9.81625ZM188.24 10.1439H186.703L184.921 7.89802V10.1439H183.736V4.85885H184.921V6.91917L186.64 4.85885H188.129L185.936 7.3336L188.24 10.1439ZM186.865 9.81625H187.545L185.506 7.32571L187.402 5.19039H186.802L184.956 7.4007L186.865 9.81625ZM184.052 9.81625H184.593V5.19039H184.052V9.81625ZM196.621 8.0638H194.673L195.649 5.69561L196.621 8.0638ZM195.167 7.73225H196.127L195.649 6.54815L195.167 7.73225ZM200.809 7.56253C200.598 7.56064 200.387 7.54746 200.177 7.52306H200.027V5.67982H200.189H200.817C201.757 5.67982 201.896 6.26792 201.896 6.61525C201.896 7.21125 201.501 7.58226 200.809 7.58226V7.56253ZM200.359 7.23098C200.536 7.23098 200.683 7.25072 200.809 7.25072C201.09 7.25072 201.568 7.16783 201.568 6.61525C201.568 6.35475 201.489 6.00742 200.817 6.00742H200.359V7.23098Z" fill="white"/>
<path d="M173.391 16.6129L166.555 19.2969L162.896 16.6129H173.391Z" fill="white"/>
<path d="M173.497 16.6129L170.707 22.34L166.555 19.2969L173.39 16.6129H173.497Z" fill="white"/>
<path d="M179.582 22.0637V20.2757C179.796 20.2757 180.08 20.2757 180.226 20.2757C181.412 20.2757 182.044 19.51 182.044 18.6693C182.044 17.8286 181.582 17.0905 180.123 17.0905H178.713V22.0637H179.582ZM180.206 17.9076C180.803 17.9076 181.123 18.1641 181.123 18.697C181.123 19.2298 180.728 19.4864 180.199 19.4864C179.993 19.4847 179.787 19.4716 179.582 19.4469V17.9194H180.206V17.9076ZM183.071 19.5969C183.057 19.9384 183.114 20.2791 183.239 20.5973C183.364 20.9155 183.554 21.2043 183.797 21.4452C184.039 21.6861 184.33 21.874 184.649 21.9968C184.968 22.1196 185.31 22.1746 185.651 22.1585C185.992 22.1704 186.332 22.1125 186.65 21.9883C186.968 21.8641 187.257 21.6763 187.5 21.4363C187.742 21.1964 187.933 20.9094 188.06 20.593C188.187 20.2767 188.248 19.9377 188.239 19.5969C188.252 19.2553 188.194 18.9148 188.068 18.597C187.942 18.2791 187.752 17.9909 187.508 17.7507C187.265 17.5106 186.974 17.3236 186.654 17.2018C186.335 17.08 185.993 17.0259 185.651 17.0432C185.311 17.0312 184.972 17.0889 184.656 17.2127C184.339 17.3365 184.05 17.5238 183.809 17.763C183.567 18.0022 183.377 18.2883 183.25 18.6037C183.123 18.9191 183.062 19.2571 183.071 19.5969ZM183.996 19.5969C184.012 19.2719 184.123 18.9589 184.316 18.6966C184.509 18.4343 184.774 18.2343 185.08 18.1214C185.385 18.0084 185.717 17.9876 186.035 18.0614C186.352 18.1352 186.64 18.3004 186.864 18.5366C187.089 18.7727 187.238 19.0694 187.295 19.3897C187.352 19.7101 187.313 20.0401 187.184 20.3388C187.055 20.6375 186.841 20.8917 186.568 21.0699C186.296 21.2482 185.977 21.3426 185.651 21.3414C185.427 21.339 185.205 21.2915 184.999 21.2018C184.794 21.1121 184.608 20.9821 184.454 20.8194C184.299 20.6566 184.179 20.4646 184.101 20.2546C184.022 20.0445 183.986 19.8209 183.996 19.5969ZM193.115 20.9428C192.776 21.2043 192.358 21.3434 191.93 21.3375C191.699 21.3479 191.469 21.3097 191.254 21.2253C191.038 21.1409 190.844 21.0123 190.681 20.8478C190.519 20.6832 190.394 20.4865 190.313 20.2703C190.232 20.0541 190.197 19.8233 190.211 19.5929C190.211 18.5193 190.903 17.8523 191.827 17.8523C192.228 17.8409 192.621 17.9585 192.949 18.1878L193.345 17.5405C192.919 17.1966 192.382 17.0185 191.835 17.0392C190.195 17.0392 189.294 18.172 189.294 19.5929C189.274 19.9342 189.327 20.2759 189.448 20.5955C189.57 20.9151 189.758 21.2054 190 21.4473C190.241 21.6893 190.532 21.8774 190.851 21.9992C191.171 22.1211 191.513 22.174 191.855 22.1545C192.434 22.1735 192.998 21.9733 193.435 21.594L193.115 20.9428ZM195.352 19.96H197.584C197.526 20.3635 197.318 20.7302 197 20.9864C196.683 21.2426 196.28 21.3695 195.873 21.3414C195.41 21.343 194.96 21.1902 194.593 20.9073L194.198 21.6375C194.679 21.9938 195.267 22.1773 195.865 22.1585C197.446 22.1585 198.457 21.1441 198.457 19.5929C198.48 19.2573 198.431 18.9207 198.315 18.6051C198.198 18.2896 198.017 18.0021 197.781 17.7615C197.546 17.5208 197.263 17.3325 196.949 17.2087C196.636 17.085 196.301 17.0285 195.964 17.0432C195.349 17.0223 194.746 17.2148 194.257 17.5879L194.597 18.2391C194.93 17.985 195.336 17.8464 195.755 17.8444C196.695 17.8444 197.371 18.3062 197.545 19.1311H195.332L195.352 19.96ZM199.912 22.0756H200.781V19.5219L202.812 22.0637H203.914L201.745 19.4193L203.788 17.1063H202.741L200.765 19.4745V17.1063H199.896L199.912 22.0756ZM208.269 20.9428C207.929 21.2029 207.511 21.3419 207.083 21.3375C206.852 21.3473 206.622 21.3086 206.407 21.224C206.193 21.1394 205.998 21.0108 205.836 20.8464C205.674 20.682 205.548 20.4855 205.467 20.2696C205.386 20.0537 205.351 19.8232 205.364 19.5929C205.345 19.3698 205.373 19.1452 205.446 18.9334C205.519 18.7217 205.635 18.5275 205.788 18.3635C205.94 18.1995 206.126 18.0693 206.332 17.9812C206.538 17.8932 206.76 17.8493 206.984 17.8523C207.384 17.8403 207.776 17.958 208.103 18.1878L208.498 17.5405C208.07 17.1972 207.533 17.0193 206.984 17.0392C205.345 17.0392 204.448 18.172 204.448 19.5929C204.427 19.9344 204.479 20.2763 204.6 20.5962C204.722 20.9161 204.909 21.2067 205.151 21.4487C205.393 21.6908 205.684 21.8789 206.004 22.0005C206.324 22.1222 206.666 22.1747 207.008 22.1545C207.587 22.1747 208.152 21.9743 208.589 21.594L208.269 20.9428ZM210.659 22.0756L213.259 18.5588V22.0756H214.132V17.1063H213.37L210.766 20.6349V17.1063H209.893V22.0637L210.659 22.0756ZM215.93 22.0756H216.807V18.5233L218.388 20.702H218.518L220.099 18.5036V22.0835H220.96V17.1063H220.138L218.522 19.4271L216.827 17.1063H215.93V22.0756ZM222.746 22.0756C223.035 22.0756 223.461 22.1071 224.034 22.1071C225.255 22.1071 225.951 21.5151 225.951 20.4928C225.951 19.5771 225.322 18.9969 224.283 18.9969C224.06 18.998 223.837 19.0125 223.615 19.0403V17.9194H225.646V17.1063H222.746V22.0756ZM224.212 19.814C224.821 19.814 225.085 20.1297 225.085 20.552C225.085 20.9744 224.817 21.2901 224.169 21.2901C223.987 21.2901 223.817 21.2901 223.615 21.2625V19.8534C223.813 19.8266 224.012 19.8134 224.212 19.814ZM226.883 22.0756H227.764L228.286 20.8086H230.4L230.921 22.0756H231.85L229.748 17.1063H228.985L226.883 22.0756ZM229.345 18.2312L230.072 19.9955H228.618L229.345 18.2312ZM236.161 22.0756H237.022V17.1063H236.161V19.1311H233.893V17.1063H233.016V22.0637H233.893V19.9481H236.161V22.0756ZM238.824 22.0756H239.697V19.5219L241.724 22.0756H242.831L240.661 19.4311L242.72 17.1063H241.673L239.697 19.4745V17.1063H238.824V22.0756Z" fill="white"/>
<path d="M154.666 24.8779H154.389V13.4593L152.646 12.0266V0.457947H152.927V11.8963L154.666 13.3291V24.8779Z" fill="white"/>
<path d="M109.115 3.4339C109.174 4.14041 109.782 4.618 110.782 4.618C111.699 4.618 112.382 4.14041 112.41 3.4339H111.45C111.414 3.79307 111.158 3.91543 110.782 3.91543C110.407 3.91543 110.142 3.75755 110.075 3.4339H109.115ZM109.091 10.6806L112.149 6.54018V10.6766H113.177V4.84692H112.276L109.213 8.9952V4.84692H108.19V10.6766L109.091 10.6806ZM102.484 10.6806L105.547 6.54018V10.6766H106.57V4.84692H105.673L102.611 8.9952V4.84692H101.588V10.6766L102.484 10.6806ZM95.9806 10.6806H97.008V7.66902L99.3787 10.6766H100.683L98.1301 7.56245L100.533 4.84692H99.2957L96.9961 7.60981V4.84692H95.9688L95.9806 10.6806ZM94.574 9.35438C94.1753 9.65736 93.688 9.82101 93.1871 9.82013C92.9165 9.83105 92.6466 9.78525 92.3947 9.68569C92.1429 9.58613 91.9148 9.43501 91.7249 9.24205C91.5351 9.04909 91.3879 8.81857 91.2926 8.56532C91.1973 8.31208 91.1562 8.04172 91.1719 7.77164C91.1719 6.5086 91.9898 5.72315 93.0725 5.72315C93.542 5.71083 94.0032 5.84916 94.3883 6.11785L94.8505 5.36003C94.348 4.95667 93.7167 4.74787 93.0725 4.77193C91.1482 4.77193 90.0853 6.10206 90.0853 7.77559C90.0624 8.17655 90.1245 8.57782 90.2677 8.9531C90.4109 9.32838 90.6319 9.66918 90.9162 9.95316C91.2005 10.2371 91.5417 10.4579 91.9174 10.6009C92.2931 10.744 92.6948 10.8061 93.0962 10.7832C93.7806 10.8102 94.4494 10.5744 94.9651 10.124L94.574 9.35438ZM84.8419 3.4339C84.9012 4.14041 85.5097 4.618 86.5094 4.618C87.4261 4.618 88.0899 4.14041 88.1373 3.4339H87.1771C87.1455 3.79307 86.8848 3.91543 86.5094 3.91543C86.134 3.91543 85.8693 3.75755 85.8021 3.4339H84.8419ZM84.8182 10.6806L87.8765 6.54018V10.6766H88.9039V4.84692H88.003L84.9447 8.9952V4.84692H83.9173V10.6766L84.8182 10.6806ZM78.2156 10.6806L81.2739 6.54018V10.6766H82.2973V4.84692H81.3964L78.346 8.9952V4.84692H77.3226V10.6766L78.2156 10.6806ZM75.9041 9.35438C75.5069 9.65733 75.0209 9.82103 74.5212 9.82013C74.2506 9.83157 73.9806 9.7863 73.7286 9.68723C73.4766 9.58815 73.2481 9.43747 73.058 9.24489C72.8678 9.0523 72.72 8.82207 72.6243 8.56902C72.5286 8.31596 72.4869 8.04569 72.502 7.77559C72.502 6.51255 73.32 5.7271 74.4026 5.7271C74.8733 5.71559 75.3354 5.85381 75.7223 6.1218L76.1807 5.36398C75.6785 4.95999 75.0469 4.7511 74.4026 4.77588C72.4783 4.77588 71.4194 6.10601 71.4194 7.77953C71.3958 8.18065 71.4576 8.5822 71.6005 8.95777C71.7435 9.33333 71.9645 9.6744 72.2489 9.95852C72.5333 10.2426 72.8748 10.4634 73.2508 10.6062C73.6267 10.749 74.0287 10.8107 74.4303 10.7871C75.1135 10.8144 75.7812 10.5784 76.2953 10.128L75.9041 9.35438ZM70.4434 9.35438C70.0463 9.65733 69.5602 9.82103 69.0605 9.82013C68.7899 9.83157 68.5199 9.7863 68.2679 9.68723C68.0159 9.58815 67.7875 9.43747 67.5973 9.24489C67.4071 9.0523 67.2594 8.82207 67.1636 8.56902C67.0679 8.31596 67.0262 8.04569 67.0414 7.77559C67.0414 6.51255 67.8593 5.7271 68.9419 5.7271C69.4115 5.71477 69.8726 5.85311 70.2577 6.1218L70.72 5.36398C70.2175 4.96062 69.5862 4.75182 68.9419 4.77588C67.0177 4.77588 65.9587 6.10601 65.9587 7.77953C65.9352 8.1803 65.9968 8.58149 66.1396 8.95677C66.2823 9.33205 66.5029 9.67291 66.7869 9.95697C67.0709 10.241 67.4119 10.4618 67.7874 10.6049C68.1629 10.748 68.5644 10.8101 68.9656 10.7871C69.6541 10.8098 70.3248 10.5667 70.8386 10.1083L70.4434 9.35438ZM60.2135 7.77559C60.1715 7.49487 60.1906 7.2084 60.2695 6.93572C60.3484 6.66304 60.4852 6.41057 60.6707 6.19554C60.8562 5.9805 61.0859 5.80796 61.3442 5.68969C61.6025 5.57141 61.8833 5.51018 62.1674 5.51018C62.4516 5.51018 62.7324 5.57141 62.9907 5.68969C63.249 5.80796 63.4787 5.9805 63.6642 6.19554C63.8497 6.41057 63.9865 6.66304 64.0654 6.93572C64.1443 7.2084 64.1634 7.49487 64.1214 7.77559C64.1214 8.92811 63.3904 9.82407 62.1457 9.82407C61.8835 9.8185 61.625 9.76084 61.3854 9.65444C61.1457 9.54804 60.9296 9.39504 60.7498 9.20436C60.5699 9.01369 60.4299 8.78915 60.3378 8.54385C60.2458 8.29854 60.2035 8.03738 60.2135 7.77559ZM59.1269 7.77559C59.1129 8.17426 59.1816 8.57152 59.3287 8.9424C59.4758 9.31328 59.698 9.64977 59.9815 9.93074C60.265 10.2117 60.6036 10.4311 60.9761 10.575C61.3485 10.719 61.7467 10.7845 62.1457 10.7674C62.5465 10.7836 62.9464 10.7178 63.3208 10.5741C63.6952 10.4303 64.0363 10.2117 64.3231 9.93148C64.6098 9.65131 64.8362 9.31556 64.9884 8.94483C65.1406 8.57409 65.2153 8.17621 65.208 7.77559C65.2257 7.37096 65.1584 6.9671 65.0103 6.59008C64.8621 6.21307 64.6365 5.87126 64.3479 5.58674C64.0594 5.30221 63.7143 5.08129 63.335 4.93822C62.9557 4.79516 62.5505 4.73313 62.1457 4.75614C61.7457 4.74409 61.3474 4.81398 60.9754 4.96151C60.6035 5.10904 60.2657 5.33108 59.9828 5.61395C59.7 5.89683 59.4782 6.23455 59.331 6.60631C59.1838 6.97807 59.1143 7.376 59.1269 7.77559ZM56.2188 5.80209C56.9182 5.80209 57.2935 6.10206 57.2935 6.7099C57.2935 7.31774 56.8194 7.65323 56.2109 7.65323C55.9679 7.6523 55.7252 7.63781 55.4838 7.60981V5.80209C55.7604 5.80209 56.0094 5.78236 56.2188 5.78236V5.80209ZM55.4838 10.6727V8.56498C55.7328 8.58867 56.0686 8.58867 56.2425 8.58867C57.6373 8.58867 58.3762 7.68875 58.3762 6.69806C58.3762 5.70736 57.8349 4.82719 56.12 4.82719H54.4604V10.6766L55.4838 10.6727Z" fill="white"/>
<path d="M59.3091 19.0363C59.3091 17.2207 58.0921 16.0366 56.3772 16.0366C55.6524 16.0111 54.9413 16.2386 54.366 16.68L54.7612 17.4457C55.1562 17.1519 55.6359 16.994 56.1283 16.9957C57.2307 16.9957 58.0289 17.5364 58.2304 18.5114H55.6305V19.4705H58.2541C58.1854 19.9451 57.9395 20.3762 57.5657 20.6771C57.1918 20.9781 56.7179 21.1265 56.239 21.0927C55.6961 21.0921 55.1685 20.9132 54.7375 20.5835L54.2949 21.444C54.8667 21.862 55.5624 22.0761 56.2706 22.0518C58.1395 22.0518 59.321 20.8677 59.321 19.0363H59.3091ZM65.2163 21.9571L62.6519 18.8271L65.0543 16.1116H63.8215L61.5179 18.8745V16.1116H60.4945V21.9413H61.5179V18.9376L63.8887 21.9413L65.2163 21.9571ZM66.7612 19.0442C66.7612 17.7772 67.5752 16.9957 68.6618 16.9957C69.1312 16.9848 69.5919 17.123 69.9776 17.3904L70.4439 16.6286C69.9447 16.2216 69.3136 16.011 68.6697 16.0366C66.7415 16.0366 65.6825 17.3707 65.6825 19.0442C65.659 19.4453 65.7207 19.8469 65.8637 20.2224C66.0067 20.598 66.2276 20.9391 66.5121 21.2232C66.7965 21.5073 67.1379 21.728 67.5139 21.8708C67.8899 22.0137 68.2919 22.0753 68.6934 22.0518C69.3776 22.0768 70.0457 21.8412 70.5624 21.3927L70.1673 20.6269C69.7686 20.9299 69.2813 21.0936 68.7804 21.0927C68.5096 21.1042 68.2394 21.0588 67.9873 20.9595C67.7352 20.8602 67.5068 20.7091 67.3169 20.516C67.1269 20.3229 66.9797 20.0921 66.8846 19.8386C66.7896 19.585 66.7489 19.3144 66.7652 19.0442H66.7612ZM75.1854 21.9571H76.2127V16.1274H71.5581V21.9571H72.5855V17.0865H75.1854V21.9571ZM82.3886 19.0442C82.3886 20.1928 81.6576 21.0927 80.413 21.0927C80.1494 21.0892 79.8892 21.033 79.6477 20.9276C79.4062 20.8221 79.1883 20.6694 79.0068 20.4785C78.8253 20.2876 78.6838 20.0624 78.5908 19.8161C78.4977 19.5697 78.4549 19.3073 78.465 19.0442C78.423 18.7635 78.442 18.477 78.5209 18.2043C78.5998 17.9317 78.7367 17.6792 78.9221 17.4642C79.1076 17.2491 79.3373 17.0766 79.5956 16.9583C79.8539 16.84 80.1347 16.7788 80.4189 16.7788C80.703 16.7788 80.9838 16.84 81.2421 16.9583C81.5005 17.0766 81.7302 17.2491 81.9156 17.4642C82.1011 17.6792 82.238 17.9317 82.3169 18.2043C82.3958 18.477 82.4148 18.7635 82.3728 19.0442H82.3886ZM83.4594 19.0442C83.4747 18.6421 83.4061 18.2412 83.2579 17.867C83.1098 17.4929 82.8853 17.1536 82.5988 16.8707C82.3123 16.5878 81.97 16.3676 81.5937 16.224C81.2174 16.0804 80.8153 16.0166 80.413 16.0366C80.0128 16.023 79.6141 16.0913 79.2413 16.2373C78.8686 16.3834 78.5296 16.604 78.2454 16.8857C77.9612 17.1674 77.7376 17.5042 77.5885 17.8754C77.4394 18.2466 77.3679 18.6444 77.3784 19.0442C77.362 19.4456 77.4295 19.8459 77.5765 20.2198C77.7235 20.5937 77.9469 20.9329 78.2323 21.2158C78.5178 21.4988 78.8591 21.7192 79.2345 21.8631C79.61 22.0071 80.0113 22.0713 80.413 22.0518C80.8138 22.0659 81.2133 21.998 81.587 21.8523C81.9606 21.7066 82.3005 21.4862 82.5858 21.2045C82.8711 20.9229 83.0957 20.586 83.2459 20.2145C83.3962 19.843 83.4688 19.4447 83.4594 19.0442ZM87.4779 17.9785C87.4779 18.6258 86.9998 18.9179 86.3913 18.9179C86.1581 18.9179 85.9092 18.9179 85.6682 18.8784V17.0865C85.9448 17.0865 86.1937 17.0865 86.3992 17.0865C87.1025 17.0865 87.4779 17.3865 87.4779 17.9943V17.9785ZM88.5605 17.9943C88.5605 17.0352 88.0192 16.1195 86.3004 16.1195H84.6408V21.9492H85.6682V19.8533C85.9171 19.877 86.249 19.877 86.4268 19.877C87.8177 19.877 88.5605 18.9771 88.5605 17.9864V17.9943ZM91.9389 17.0865H93.8316V16.1274H89.0347V17.0865H90.9274V21.9571H91.9547L91.9389 17.0865ZM98.4151 21.9571H99.4345V16.1274H98.4151V18.4956H95.7479V16.1274H94.7206V21.9571H95.7479V19.4705H98.4151V21.9571ZM103.777 19.9836C103.777 20.6664 103.382 21.0098 102.627 21.0098C102.426 21.0098 102.26 21.0098 102.078 20.9861V19.0758C102.311 19.0521 102.473 19.0363 102.643 19.0363C103.362 19.0363 103.777 19.36 103.777 19.9836ZM104.864 19.9599C104.864 18.8192 104.168 18.0772 102.726 18.0772C102.509 18.0768 102.293 18.0914 102.078 18.1206V16.1274H101.051V21.9571C101.394 21.9571 101.951 21.9571 102.501 21.9571C103.994 21.9571 104.871 21.1677 104.871 19.9481L104.864 19.9599ZM105.63 21.9215H106.646V16.1274H105.63V21.9215ZM112.482 14.6788H111.537C111.506 15.0341 111.249 15.1604 110.873 15.1604C110.498 15.1604 110.229 15.0025 110.162 14.6788H109.206C109.261 15.3853 109.87 15.8629 110.873 15.8629C111.79 15.8629 112.474 15.3893 112.497 14.6788H112.482ZM112.241 21.9215H113.264V16.1274H112.363L109.305 20.2757V16.1274H108.277V21.9571H109.167L112.229 17.8206L112.241 21.9215Z" fill="white"/>
<path d="M121.878 22.9991H122.834V21.0019H122.044V16.1274H121.02V21.0019H118.46V16.1274H117.437V21.961H121.882L121.878 22.9991ZM123.853 21.961H127.311V21.0019H124.877V19.4942H126.979V18.5351H124.877V17.0865H127.228V16.1274H123.853V21.961ZM132.341 21.961H133.356V16.1274H132.341V18.4956H129.674V16.1274H128.646V21.961H129.674V19.4705H132.341V21.961ZM137.169 17.0865H139.062V16.1274H134.249V17.0865H136.142V21.961H137.169V17.0865ZM142.788 17.9785C142.788 18.6258 142.314 18.9179 141.705 18.9179C141.468 18.9179 141.219 18.9179 140.978 18.8784V17.0865C141.255 17.0865 141.504 17.0865 141.713 17.0865C142.413 17.0865 142.788 17.3865 142.788 17.9943V17.9785ZM143.871 17.9943C143.871 17.0352 143.329 16.1195 141.611 16.1195H139.951V21.9531H140.978V19.8534C141.227 19.877 141.563 19.877 141.737 19.877C143.128 19.877 143.871 18.9771 143.871 17.9864" fill="white"/>
<path d="M23.3127 0.00394783L20.5349 1.03806L20.041 0L23.3127 0.00394783Z" fill="white"/>
<path d="M20.0371 0L20.5349 1.03806L18.1562 1.91824L20.0371 0Z" fill="white"/>
<path d="M31.7332 0.244751L34.0131 3.43392L25.4546 2.66031L31.7332 0.244751Z" fill="white"/>
<path d="M45.7719 0.00390625L42.3738 1.34193L40.5522 0.00390625H45.7719Z" fill="white"/>
<path d="M18.1565 5.39563L15.4459 8.6361L12.0557 8.27298L18.1565 5.39563Z" fill="white"/>
<path d="M15.4459 8.63212L12.0557 12.6265V8.27295L15.4459 8.63212Z" fill="white"/>
<path d="M45.823 0.00390625L44.4401 2.85363L42.3735 1.34193L45.7716 0.00390625H45.823Z" fill="white"/>
<path d="M5.36177 15.2156L5.08123 18.4601L0.0117188 21.2032L5.36177 15.2156Z" fill="white"/>
<path d="M5.08136 18.4601L4.70204 22.1308L0 21.2151L5.08136 18.4601Z" fill="white"/>
<path d="M35.8108 6.37445L40.6077 12.1963L32.6182 11.3516L35.8108 6.37445Z" fill="white"/>
<path d="M40.6074 12.1962L28.959 17.047L32.6179 11.3515L40.6074 12.1962Z" fill="white"/>
<path d="M23.2694 19.1429L12.0122 23.8556V16.5971L23.2694 19.1429Z" fill="white"/>
<path d="M37.0472 21.2744L33.7558 28L32.0054 23.3584L37.0472 21.2744Z" fill="white"/>
<path d="M32.0056 23.3583L33.756 28L25.2607 26.2752L32.0056 23.3583Z" fill="white"/>
<path d="M19.8472 9.25571L26.4656 6.67438L28.2832 10.1162L19.8472 9.25571Z" fill="white"/>
<path d="M19.8472 9.25574L28.2832 10.1162L20.8943 13.0922L19.8472 9.25574Z" fill="white"/>
</svg>
