<svg width="99" height="28" viewBox="0 0 99 28" fill="none" xmlns="http://www.w3.org/2000/svg">
<path d="M39.7161 13.8266C39.534 13.158 39.1728 11.8624 37.2736 11.8624C36.1699 11.8624 34.5016 12.6563 34.5016 15.7804C34.5016 17.7642 35.3354 19.6026 37.2736 19.6026C38.5491 19.6026 39.4438 18.8283 39.7161 17.4715H42.0086C41.5543 19.882 39.9911 21.5575 37.2317 21.5575C34.3063 21.5575 32.2119 19.5575 32.2119 15.7486C32.2119 11.8757 34.4275 9.9115 37.2604 9.9115C40.5539 9.9115 41.8834 12.1967 42.0086 13.8266H39.7161Z" fill="white"/>
<path d="M44.8147 16.1775L47.5098 13.0661H50.1348L47.2698 16.2352L50.2118 21.2687H47.6471L45.7031 17.7456L44.8147 18.6781V21.2687H42.6755V13.0661H44.8147V16.1775Z" fill="white"/>
<path d="M58.0377 17.1512C58.0377 20.1079 56.065 21.4837 53.881 21.4837C51.7005 21.4837 49.7117 20.1281 49.7117 17.1702C49.7117 14.2101 51.7005 12.8527 53.881 12.8527C56.065 12.8527 58.0377 14.1939 58.0377 17.1512ZM51.9112 17.1512C51.9112 18.202 52.2282 19.6644 53.881 19.6644C55.5344 19.6644 55.8376 18.2182 55.8376 17.1702C55.8376 16.116 55.5344 14.6691 53.881 14.6691C52.2282 14.6691 51.9112 16.0998 51.9112 17.1512Z" fill="white"/>
<path d="M66.076 13.0654V21.2686H63.9368V14.7917H61.6477V17.3212C61.6477 20.4586 60.7082 21.4482 59.2053 21.4482C58.8314 21.4482 58.2204 21.3875 57.904 21.2686V19.6647C57.9482 19.6964 58.2204 19.7259 58.5368 19.7259C59.1795 19.7259 59.512 19.4072 59.512 16.9095V13.0654H66.076Z" fill="white"/>
<path d="M69.3077 16.1775L72.0028 13.0661H74.6278L71.7598 16.2352L74.7048 21.2687H72.14L70.1995 17.7456L69.3077 18.6781V21.2687H67.1685V13.0661H69.3077V16.1775Z" fill="white"/>
<path d="M82.5305 17.1512C82.5305 20.1079 80.5613 21.4837 78.3773 21.4837C76.1933 21.4837 74.208 20.1281 74.208 17.1702C74.208 14.2101 76.1933 12.8527 78.3773 12.8527C80.5613 12.8527 82.5305 14.1939 82.5305 17.1512ZM76.4081 17.1512C76.4081 18.202 76.7245 19.6644 78.3773 19.6644C80.0232 19.6644 80.3373 18.2182 80.3373 17.1702C80.3373 16.116 80.0232 14.6691 78.3773 14.6691C76.7245 14.6691 76.4081 16.0998 76.4081 17.1512Z" fill="white"/>
<path d="M83.2239 13.066H86.9073C88.7295 13.066 90.0624 13.8154 90.0624 15.1849C90.0624 16.1295 89.3945 16.7369 88.5434 16.9522C89.3779 17.1526 90.3048 17.6884 90.3048 19.0296C90.3048 20.5492 89.1608 21.2698 87.3128 21.2698H83.2239V13.066ZM85.359 16.387H86.7534C87.4632 16.387 87.9657 16.1012 87.9657 15.458C87.9657 14.7888 87.4822 14.5452 86.7695 14.5452H85.359V16.387ZM85.359 19.7911H86.932C87.7222 19.7911 88.2115 19.5469 88.2115 18.7363C88.2115 18.0198 87.6964 17.6884 86.9073 17.6884H85.359V19.7911Z" fill="white"/>
<path d="M98.8668 17.1512C98.8668 20.1079 96.9004 21.4837 94.7136 21.4837C92.5325 21.4837 90.5408 20.1281 90.5408 17.1702C90.5408 14.2101 92.5325 12.8527 94.7136 12.8527C96.9004 12.8527 98.8668 14.1939 98.8668 17.1512ZM92.7409 17.1512C92.7409 18.202 93.0631 19.6644 94.7136 19.6644C96.3664 19.6644 96.6673 18.2182 96.6673 17.1702C96.6673 16.116 96.3664 14.6691 94.7136 14.6691C93.0631 14.6691 92.7409 16.0998 92.7409 17.1512Z" fill="white"/>
<path fill-rule="evenodd" clip-rule="evenodd" d="M6.39768 0.0176896C4.09345 0.223975 2.05468 1.52722 0.902634 3.53027C0.481636 4.26227 0.183035 5.1375 0.0438662 6.04736C0.00310963 6.31378 0 6.87737 0 14.0064C0 21.268 0.00244692 21.6944 0.0458543 21.9718C0.294676 23.562 0.94831 24.8702 2.03903 25.9609C3.12926 27.0512 4.43856 27.7054 6.02809 27.9541C6.30551 27.9976 6.73189 28 13.9933 28C21.2548 28 21.6812 27.9976 21.9586 27.9541C23.5481 27.7054 24.8574 27.0512 25.9476 25.9609C27.0311 24.8775 27.6645 23.6174 27.9403 21.9973C27.9834 21.7436 27.9862 21.1623 27.9929 10.8648L28 0L17.2498 0.0042822C11.3372 0.00665271 6.45376 0.0126682 6.39768 0.0176896ZM10.4886 6.9194C11.5544 7.03324 12.3641 7.32537 13.1189 7.86845C13.3367 8.02518 13.6991 8.36495 13.8748 8.57715L13.9803 8.7046L13.9804 7.85708L13.9806 7.00956H15.2678H16.555V10.5037C16.555 12.5337 16.5645 13.9943 16.5776 13.9894C16.5901 13.9847 17.3148 13.1981 18.188 12.2412L19.7758 10.5016H21.4407C22.3564 10.5016 23.1056 10.5068 23.1056 10.5131C23.1056 10.5195 22.2514 11.4607 21.2075 12.6046L19.3095 14.6846L19.5226 15.0337C20.0049 15.824 23.1056 20.9596 23.1056 20.9683C23.1056 20.9735 22.4311 20.9777 21.6069 20.9777H20.1081L18.8134 18.8493C18.1013 17.6787 17.509 16.715 17.4972 16.7077C17.4854 16.7004 17.2685 16.921 17.0153 17.1978L16.555 17.7012V19.3394V20.9777H15.2678H13.9806V20.4022V19.8267L13.8468 19.9409C13.6499 20.1088 13.2528 20.3678 12.9684 20.5138C12.028 20.9965 10.9612 21.2028 9.77099 21.1323C8.71848 21.0699 7.95864 20.8799 7.20058 20.4896C6.7793 20.2727 6.46811 20.0427 6.10339 19.6785C5.66057 19.2363 5.34767 18.7582 5.1107 18.1617C4.9656 17.7964 4.80463 17.0672 4.80463 16.7751V16.6696L6.18526 16.6761L7.56591 16.6828L7.6019 16.8612C7.74379 17.5648 8.28421 18.1432 9.03304 18.3929C9.42809 18.5247 9.72228 18.5665 10.2465 18.5656C10.5513 18.5651 10.7867 18.5508 10.9477 18.5232C11.9548 18.3504 12.5765 17.9149 12.7407 17.2672C12.8346 16.8966 12.8146 16.5807 12.6788 16.2891C12.5787 16.0743 12.4595 15.9319 12.2608 15.7902C11.8238 15.4783 11.2527 15.3176 9.95337 15.1408C8.59346 14.9557 7.89316 14.7786 7.18615 14.441C6.31958 14.0272 5.77456 13.5085 5.37933 12.7216C5.24268 12.4495 5.10892 12.0644 5.04199 11.7506C4.97245 11.4245 4.97887 10.6811 5.05417 10.3407C5.24704 9.46838 5.67102 8.70681 6.29583 8.11024C6.99381 7.44382 7.91554 7.03107 8.97205 6.91181C9.29667 6.87515 10.1126 6.87926 10.4886 6.9194ZM9.1887 9.34163C8.723 9.43502 8.36799 9.61612 8.06404 9.91534C7.67941 10.294 7.53869 10.7075 7.6372 11.1694C7.75827 11.737 8.21689 12.111 9.06664 12.335C9.45738 12.438 9.77726 12.4966 10.6096 12.6176C11.5899 12.76 11.8733 12.8096 12.2921 12.9122C12.9253 13.0671 13.3906 13.2575 13.7703 13.5172L13.9806 13.6609V12.4126V11.1643H13.2311H12.4817L12.4274 10.9854C12.3536 10.7425 12.1456 10.3448 11.991 10.1512C11.6429 9.71515 11.1255 9.44267 10.4573 9.34344C10.1315 9.29506 9.42585 9.29404 9.1887 9.34163Z" fill="white"/>
</svg>
