<svg width="128" height="28" viewBox="0 0 128 28" fill="none" xmlns="http://www.w3.org/2000/svg">
<path fill-rule="evenodd" clip-rule="evenodd" d="M33.3071 20.2145V8.84443H43.0925V20.2145H40.7022V11.0177H35.6967V20.2145H33.3071ZM50.0842 13.6625H48.7277C47.5975 13.6625 47.0321 14.0431 47.0321 14.7875C47.0321 15.5171 47.5817 15.8816 48.6798 15.8816C49.1645 15.8816 49.6322 15.8519 50.0842 15.7758V13.6625ZM52.2967 11.9298V20.2139H50.0842V17.3396C49.6555 17.4133 49.2017 17.5102 48.6533 17.5251L46.8222 20.2139H44.3355L46.5228 17.2325C45.3756 16.7765 44.7717 15.9886 44.7717 14.7572C44.7717 13.0697 46.079 11.9298 48.6634 11.9298H52.2967ZM67.2495 12.6291C67.9271 13.2523 68.2662 14.1037 68.2662 15.2133V20.2139H65.9901V15.6081C65.9901 14.3469 65.2797 13.678 64.2296 13.678C63.0824 13.678 62.2919 14.4534 62.2919 15.6693V20.2145H60.0151V15.6241C60.0151 14.3927 59.3205 13.678 58.2388 13.678C57.125 13.678 56.3176 14.4534 56.3176 15.6848V20.2145H54.0408V11.9298H56.269V13.1155C56.7695 12.2492 57.8027 11.6872 58.9492 11.7021C60.0473 11.7021 61.0646 12.204 61.533 13.1613C62.1791 12.2492 63.3736 11.7021 64.6815 11.7021C65.7317 11.7021 66.587 12.0048 67.2495 12.6291ZM86.0941 17.7665C86.546 17.3104 86.7723 16.7485 86.7723 16.0802C86.7723 15.4107 86.546 14.8488 86.0941 14.3921C85.6421 13.9366 85.0603 13.7083 84.3342 13.7083C83.6238 13.7083 83.042 13.9366 82.5907 14.3921C82.1381 14.8488 81.9118 15.4107 81.9118 16.0802C81.9118 16.7485 82.1387 17.311 82.5907 17.7671C83.0426 18.2232 83.6238 18.4509 84.3342 18.4509C85.0603 18.4509 85.6421 18.2226 86.0941 17.7665ZM87.8382 12.9787C88.6614 13.8147 89.0655 14.8488 89.0655 16.0647C89.0655 17.2807 88.6457 18.3141 87.8218 19.1507C86.9986 19.9862 85.9655 20.4113 84.7212 20.4113C83.6402 20.4113 82.6417 19.9665 81.9603 19.1793V23.6192H79.6835V11.9298H81.9439V13.0168C82.6669 12.1677 83.6238 11.7176 84.7376 11.7176C85.9812 11.7176 87.0144 12.1427 87.8382 12.9787ZM94.6042 18.436C95.2982 18.436 95.8637 18.2077 96.3314 17.7516C96.8003 17.2807 97.0424 16.7182 97.0424 16.0647C97.0424 15.4107 96.8003 14.8488 96.332 14.3927C95.8637 13.9366 95.2982 13.7089 94.6042 13.7089C93.9096 13.7089 93.3284 13.9366 92.8601 14.3927C92.3924 14.8488 92.1661 15.4113 92.1661 16.0647C92.1661 16.7182 92.3924 17.2807 92.8601 17.7516C93.3284 18.2077 93.9096 18.436 94.6042 18.436ZM91.213 12.9787C92.1018 12.1273 93.232 11.7021 94.6042 11.7021C95.9765 11.7021 97.1067 12.1273 97.9955 12.9787C98.883 13.8147 99.3192 14.8488 99.3192 16.0647C99.3192 17.2956 98.883 18.3296 97.9955 19.1656C97.1067 20.001 95.9765 20.4274 94.6042 20.4274C93.232 20.4274 92.1018 20.001 91.213 19.1656C90.3249 18.3296 89.8893 17.2962 89.8893 16.0647C89.8893 14.8488 90.3249 13.8147 91.213 12.9787ZM105.73 11.9298H108.007V20.2145H105.73V17.4258C105.063 17.7843 104.342 17.9645 103.776 17.9645C102.727 17.9645 101.951 17.782 101.257 17.3414C100.563 16.8704 100.176 15.9886 100.176 14.7114V11.9298H102.436V14.5598C102.436 15.5326 102.969 16.019 104.035 16.019C104.632 16.019 105.142 15.9405 105.73 15.7187L105.73 11.9298ZM115.532 20.2145L112.028 16.3888V20.2145H109.751V11.9174H112.028V15.2043L115.225 11.9298H118.099L114.176 15.7668L118.326 20.2145H115.532Z" fill="white"/>
<path fill-rule="evenodd" clip-rule="evenodd" d="M124.325 14.3773C123.857 13.9058 123.275 13.6781 122.565 13.6781C121.839 13.6781 121.257 13.9058 120.788 14.3773C120.336 14.8488 120.11 15.4107 120.11 16.0642C120.11 16.7332 120.336 17.2957 120.805 17.7672C121.273 18.2381 121.854 18.4658 122.565 18.4658C123.275 18.4658 123.857 18.2381 124.325 17.7672C124.793 17.2957 125.036 16.7332 125.036 16.0642C125.036 15.4107 124.793 14.8488 124.325 14.3773ZM125.003 11.9299H127.167V20.214H125.003V19.1199C124.247 19.9833 123.308 20.412 122.193 20.412C120.934 20.412 119.885 20.0017 119.061 19.1657C118.237 18.3297 117.834 17.2808 117.834 16.0345C117.834 14.7876 118.254 13.7542 119.077 12.9485C119.901 12.1279 120.95 11.7176 122.193 11.7176C123.291 11.7176 124.26 12.1874 125.003 13.0163V11.9299ZM74.5652 9.84761C74.5652 9.13349 75.1628 8.60132 75.9375 8.60132C76.6964 8.60132 77.2782 9.16382 77.2782 9.84761C77.2782 10.5927 76.6964 11.1397 75.9375 11.1397C75.1628 11.1397 74.5652 10.5927 74.5652 9.84761ZM71.7558 15.2288H76.2287C76.0188 14.149 75.1949 13.4961 74.0326 13.4961C72.8854 13.4961 72.03 14.1496 71.7558 15.2288ZM72.4177 8.60132C73.1766 8.60132 73.7742 9.16382 73.7742 9.84761C73.7742 10.5927 73.193 11.1397 72.4177 11.1397C71.6424 11.1397 71.0612 10.5927 71.0612 9.84761C71.0612 9.16382 71.6588 8.60132 72.4177 8.60132ZM78.3599 16.8247H71.7558C72.0786 17.9949 72.9346 18.5877 74.3232 18.5877C75.2756 18.5877 76.3365 18.2518 77.1408 17.6512L78.0573 19.0087C76.946 19.988 75.6797 20.3965 74.2261 20.3965C72.6755 20.3965 71.4968 19.9714 70.6735 19.1354C69.8503 18.2993 69.4463 17.2653 69.4463 16.0648C69.4463 14.8031 69.8661 13.7696 70.7221 12.9491C71.5781 12.1279 72.6761 11.7171 74.0326 11.7171C75.3084 11.7171 76.3737 12.097 77.1969 12.842C78.0207 13.5871 78.4405 14.5902 78.4405 15.8817C78.4405 16.1707 78.409 16.4906 78.3599 16.8247Z" fill="white"/>
<path fill-rule="evenodd" clip-rule="evenodd" d="M14.8413 0C6.65761 0 0 6.28023 0 14C0 21.7198 6.65761 28 14.8413 28C23.0243 28 29.6825 21.7198 29.6825 14C29.6825 6.28023 23.0243 0 14.8413 0Z" fill="white"/>
<path fill-rule="evenodd" clip-rule="evenodd" d="M22.3312 3.95856C21.1985 6.6991 18.6198 7.26932 14.8844 7.26932C14.4835 7.26932 14.0864 7.26338 13.7032 7.25803C13.3325 7.25327 12.9821 7.24792 12.6385 7.24792C12.3335 7.24792 12.0258 7.25148 11.7227 7.26397C12.2458 6.05216 13.081 5.22864 14.2698 4.72917C15.927 4.03348 18.0815 4.02634 19.9826 4.02099C20.8108 4.01802 21.6038 4.01504 22.3312 3.95856Z" fill="black"/>
<path fill-rule="evenodd" clip-rule="evenodd" d="M23.4949 4.83762C21.8195 8.28039 18.0854 8.62526 14.8845 8.62526C14.1817 8.62526 13.5085 8.6092 12.8851 8.60564L12.0789 11.5799C16.2076 8.40466 21.6676 11.5525 21.0839 16.3438C20.6906 19.5708 18.2518 21.681 15.6718 22.2875C12.8612 22.9487 9.7473 21.9593 8.35111 19.2574C8.20298 18.972 7.94517 18.4 7.84684 18.0944L10.8107 17.3761C10.863 17.5372 10.9519 17.693 11.0452 17.8351C13.0295 20.8539 17.0504 19.3442 17.5042 16.2124C17.9663 13.0265 13.2274 11.3295 11.0679 15.053L8.43936 13.9963L8.39397 13.9773L9.66158 9.17705C9.73974 8.83575 10.0032 7.8826 10.0486 7.72622C11.4814 2.7565 16.1162 2.67801 19.8339 2.66493C18.2966 2.0614 16.611 1.72723 14.8417 1.72723C7.65585 1.72723 1.83154 7.22139 1.83154 13.9999C1.83154 20.7784 7.65585 26.2726 14.8417 26.2726C22.0275 26.2726 27.8518 20.7784 27.8518 13.9999C27.8518 10.3562 26.1676 7.08523 23.4949 4.83762Z" fill="black"/>
</svg>
