<svg width="109" height="25" viewBox="0 0 109 25" fill="none" xmlns="http://www.w3.org/2000/svg">
<path d="M27.7805 16.2563H30.2868C31.262 16.2563 31.6334 16.5908 31.6334 17.4187C31.6334 18.2465 31.262 18.5527 30.2868 18.5527H27.7805V16.2563ZM23.8965 24.6085H27.7805V21.2064H31.9368C34.6925 21.2064 35.6819 19.5847 35.6819 17.4896C35.6819 15.0571 34.6642 13.6792 31.9113 13.6792H23.8965V24.6085Z" fill="white"/>
<path d="M36.9639 13.6855H47.414V16.3477H40.8479V17.8163H46.9462V20.4784H40.8479V21.947H47.414V24.6092H36.9639V13.6855Z" fill="white"/>
<path d="M52.9222 16.2563H55.4284C56.4037 16.2563 56.7751 16.5908 56.7751 17.4187C56.7751 18.2465 56.4037 18.5527 55.4284 18.5527H52.9222V16.2563ZM49.0381 24.6085H52.9222V21.2064H57.0784C59.8313 21.2064 60.8236 19.5847 60.8236 17.4896C60.8236 15.0571 59.8058 13.6792 57.0529 13.6792H49.0381V24.6085Z" fill="white"/>
<path d="M64.5694 19.9727C62.6699 19.6524 61.8846 18.4276 61.8846 16.8967C61.8846 14.0616 64.3766 13.3018 67.5718 13.3018C71.9492 13.3018 73.7523 14.5719 73.8912 16.8825H69.3891C69.3959 16.6929 69.3421 16.506 69.2356 16.349C69.1291 16.192 68.9753 16.073 68.7966 16.0093C68.4148 15.8449 68.0015 15.7665 67.586 15.7796C66.4293 15.7796 66.0295 16.1028 66.0295 16.5621C66.0215 16.6337 66.0288 16.7062 66.0508 16.7749C66.0728 16.8435 66.1092 16.9066 66.1574 16.9602C66.2056 17.0138 66.2646 17.0565 66.3305 17.0856C66.3964 17.1148 66.4678 17.1296 66.5398 17.1291L71.1781 17.8946C73.1343 18.215 74.3448 19.2243 74.3448 21.0756C74.3448 23.7377 72.3914 24.9937 68.0254 24.9937C65.0401 24.9937 61.7882 24.5344 61.7627 21.3081H66.4434C66.4345 21.4634 66.4684 21.6183 66.5413 21.7558C66.6143 21.8933 66.7236 22.0081 66.8573 22.0877C67.2735 22.2672 67.7262 22.3459 68.1785 22.3173C69.3891 22.3173 69.7208 21.9488 69.7208 21.43C69.7217 21.2403 69.6488 21.0577 69.5177 20.9207C69.3865 20.7837 69.2072 20.703 69.0177 20.6957L64.5694 19.9727Z" fill="white"/>
<path d="M79.4897 13.6855H75.6084V24.6092H79.4897V13.6855Z" fill="white"/>
<path d="M93.8783 20.3561C93.6316 21.7935 93.1922 22.9558 92.2283 23.7582C91.2644 24.5605 89.7901 24.9999 87.4086 24.9999C85.0272 24.9999 80.6895 24.8157 80.6895 19.154C80.6895 13.4923 85.0668 13.291 87.4228 13.291C89.7788 13.291 93.3765 13.6284 93.8783 17.9576H89.5009C89.3903 17.1779 88.9339 16.0439 87.4228 16.0439C85.838 16.0439 84.8344 16.9171 84.8344 19.1341C84.8344 21.3512 85.8125 22.2244 87.23 22.2244C88.4548 22.2244 89.1834 21.6574 89.4981 20.3447L93.8783 20.3561Z" fill="white"/>
<path d="M98.9579 19.1455C98.9579 16.9284 99.9644 16.0581 101.546 16.0581C103.128 16.0581 104.135 16.9284 104.135 19.1455C104.135 21.3625 103.128 22.2357 101.546 22.2357C99.9644 22.2357 98.9579 21.3654 98.9579 19.1455ZM94.8271 19.1455C94.8271 24.8157 99.1932 24.9914 101.546 24.9914C103.899 24.9914 108.265 24.8072 108.265 19.1455C108.265 13.4838 103.902 13.291 101.546 13.291C99.1904 13.291 94.8271 13.4753 94.8271 19.1341" fill="white"/>
<path d="M18.0303 13.7925C18.2827 8.55323 13.7607 2.6534 7.59439 1.92195V1.85107C13.6728 1.85107 18.3309 7.47306 18.3309 11.91C18.3538 12.5537 18.2832 13.1974 18.1211 13.8208L18.0303 13.7925ZM17.6618 14.4587C17.213 14.9991 16.7073 15.4895 16.1535 15.9216C15.0592 9.62206 10.4266 4.11348 7.1521 2.50598L7.08122 2.55418C10.3756 5.25602 14.3022 10.4924 15.8303 16.1626C15.0505 16.7335 14.2088 17.2148 13.3213 17.5972C10.2027 14.0561 7.31654 7.22357 6.3838 2.88872L6.28741 2.91707C6.30726 7.12434 9.29827 14.2574 12.9442 17.7531C12.1079 18.0851 11.2381 18.3255 10.3501 18.4704C6.85725 17.0869 4.36805 12.6556 4.36805 8.11662C4.36805 5.15395 5.27243 3.31965 5.4482 2.94542L5.37165 2.91423C5.16185 3.2346 3.83789 5.06607 3.83789 8.26688C3.83789 13.3984 6.3696 17.3193 9.73202 18.5526C8.52955 18.6861 7.31356 18.6297 6.12863 18.3853L6.10313 18.4619C7.19844 18.8954 8.36699 19.1139 9.54493 19.1054C11.1917 19.109 12.8116 18.6877 14.2479 17.8821C15.6842 17.0766 16.8884 15.914 17.744 14.5069L17.6618 14.4587Z" fill="white"/>
<path d="M9.12322 0C5.93091 0 2.19141 2.30209 2.19141 4.40573C2.19141 5.2194 2.93705 5.90833 4.47651 5.90833C8.05723 5.90833 11.3828 3.45031 11.3828 1.53945C11.3828 0.532997 10.416 0 9.11471 0H9.12322ZM10.3877 1.47992C10.3877 3.09025 7.29458 5.0578 4.71748 5.0578C3.58345 5.0578 2.9569 4.60986 2.9569 3.86706C2.9569 2.23405 6.07549 0.297683 8.51367 0.297683C10.0957 0.297683 10.399 1.10285 10.399 1.47992" fill="white"/>
<path d="M0.917658 5.37791C0.648845 5.86282 0.495566 6.40322 0.469727 6.95706C0.469727 8.29239 1.81924 9.53415 4.30277 9.53415C9.08274 9.53415 14.6026 6.01864 14.6026 2.75545C14.6026 1.28971 13.2163 0.487378 12.2523 0.328613L12.2354 0.385316C12.6387 0.517947 12.9904 0.773556 13.2411 1.11627C13.4918 1.45898 13.6288 1.87158 13.633 2.29617C13.633 4.89595 8.75669 8.43698 3.90018 8.43698C2.0432 8.43698 0.872287 7.52124 0.872287 6.18591C0.870428 5.92106 0.90769 5.65739 0.98286 5.40343L0.917658 5.37791Z" fill="white"/>
<path d="M16.5734 2.99902C16.8649 3.24027 17.0987 3.54373 17.2577 3.88714C17.4166 4.23055 17.4967 4.6052 17.4919 4.98359C17.4919 9.21071 10.8663 13.367 5.01752 13.367C1.52469 13.367 -0.0686156 11.6432 0.00226172 10.1123H0.0646254C0.20071 10.9061 1.33475 12.3293 4.39382 12.3293C10.2596 12.3293 16.8087 8.02848 16.8087 4.26064C16.8199 3.83401 16.7223 3.41156 16.5252 3.03305L16.5734 2.99902Z" fill="white"/>
<path d="M18.7871 6.9458C18.9059 7.31186 18.9634 7.69503 18.9572 8.07983C18.9572 12.7804 12.2522 16.8062 6.4176 16.8062C3.41807 16.8062 1.85026 15.349 1.51855 14.7593L1.57244 14.7168C2.40312 15.4454 4.03895 15.9954 5.94697 15.9954C11.0983 15.9954 18.7871 12.0801 18.7049 6.96848L18.7871 6.9458Z" fill="white"/>
</svg>
