<svg width="158" height="29" viewBox="0 0 158 29" fill="none" xmlns="http://www.w3.org/2000/svg">
<path fill-rule="evenodd" clip-rule="evenodd" d="M150.364 14.2117H148.003V4.74792H150.364V10.747L154.71 4.74792H157.072V14.2117H154.71V8.21261L150.364 14.2117ZM149.388 0H151.561C151.561 0.449127 151.656 0.802013 151.813 1.09074C151.97 1.37946 152.254 1.53986 152.632 1.53986C152.947 1.53986 153.199 1.37946 153.387 1.09074C153.545 0.802013 153.639 0.449127 153.639 0H155.812C155.812 0.962415 155.529 1.73235 154.993 2.34188C154.458 2.95141 153.671 3.27221 152.663 3.27221C151.561 3.27221 150.742 2.98349 150.207 2.37396C149.64 1.76443 149.388 0.994496 149.388 0ZM24.4993 4.87611C25.4126 4.61947 26.3887 4.49115 27.3649 4.49115C33.285 4.49115 38.0715 9.36738 38.0715 15.4306C38.0715 16.1043 38.0085 16.778 37.8826 17.4517H24.4993V13.4416H33.8834C33.0331 10.5864 30.451 8.50121 27.3649 8.50121C26.3258 8.50121 25.3811 8.72577 24.4993 9.14282V4.87611ZM24.4993 21.6855C25.3811 22.1026 26.3573 22.3271 27.3649 22.3271C29.6007 22.3271 31.6161 21.2043 32.8442 19.472H37.3158C35.7413 23.482 31.868 26.3372 27.3649 26.3372C26.3573 26.3372 25.4126 26.2089 24.4993 25.9522V21.6855ZM10.2972 9.9135L5.16435 4.52397H0L10.2972 15.3993L16.6267 8.66236V15.3993V15.9767C16.6582 16.7787 16.7842 17.5487 17.0046 18.2865C17.6029 20.5001 18.8625 22.4249 20.5629 23.8364V23.6119V23.5798V15.4313V15.3672V6.96209V4.52397H15.3986L10.2972 9.9135ZM46.0697 4.74871V14.2125H48.4315V8.43797L51.2656 11.9668H51.3285L54.0682 8.43797V14.2125H56.4299V4.74871H54.3516L51.36 8.69461L48.211 4.74871H46.0697ZM60.2088 13.0246C59.2641 12.0942 58.8232 10.9072 58.8232 9.46362C58.8232 8.02 59.2956 6.83302 60.2088 5.90269C61.1535 4.97235 62.3501 4.49115 63.8616 4.49115C65.3731 4.49115 66.6013 4.97235 67.5145 5.90269C68.4592 6.83302 68.9 8.02 68.9 9.46362C68.9 10.9072 68.4277 12.0942 67.5145 13.0246C66.5698 13.9549 65.3731 14.4361 63.8616 14.4361C62.3501 14.4361 61.1535 13.9549 60.2088 13.0246ZM61.3424 9.46362C61.3424 10.2656 61.5944 10.9072 62.0667 11.4205C62.5391 11.9338 63.1374 12.1905 63.8616 12.1905C64.6174 12.1905 65.2157 11.9338 65.688 11.4526C66.1604 10.9393 66.4123 10.2977 66.4123 9.4957C66.4123 8.72577 66.1604 8.05208 65.688 7.57087C65.2157 7.05759 64.5859 6.80094 63.8616 6.80094C63.1374 6.80094 62.5391 7.05759 62.0667 7.53879C61.5944 8.02 61.3424 8.66161 61.3424 9.46362ZM79.4489 12.8L78.3468 11.0356C77.654 11.8055 76.8668 12.1905 75.985 12.1584C75.2608 12.1584 74.631 11.9338 74.0956 11.4205C73.5603 10.9393 73.3084 10.2656 73.3084 9.46362C73.3084 8.66161 73.5918 8.02 74.0956 7.50671C74.5995 7.02551 75.1978 6.76886 75.8906 6.76886C76.8038 6.76886 77.5595 7.08967 78.1893 7.6992L79.2915 5.77437C78.4413 4.90819 77.1816 4.49115 75.5442 4.49115C74.1271 4.49115 72.9935 4.97235 72.0803 5.93477C71.1671 6.89718 70.7262 8.05208 70.7262 9.46362C70.7262 10.9393 71.1986 12.1584 72.1118 13.0566C73.025 13.987 74.2531 14.4361 75.7646 14.4361C76.5519 14.4361 77.2446 14.3078 77.9059 14.0191C78.5357 13.7303 79.0711 13.3454 79.4489 12.8ZM81.6845 14.2125V4.74871H84.0462V14.2125H81.6845ZM90.4702 4.74871L86.9118 9.23998L90.9111 14.2125H87.825L84.1407 9.43246L87.4786 4.74871H90.4702ZM91.4781 9.46362C91.4781 10.9072 91.9189 12.0942 92.8636 13.0246C93.8083 13.9549 95.0364 14.4361 96.5165 14.4361C98.028 14.4361 99.2246 13.9549 100.169 13.0246C101.083 12.0942 101.555 10.9072 101.555 9.46362C101.555 8.02 101.114 6.83302 100.169 5.90269C99.2561 4.97235 98.028 4.49115 96.5165 4.49115C95.005 4.49115 93.8083 4.97235 92.8636 5.90269C91.9504 6.83302 91.4781 8.02 91.4781 9.46362ZM94.753 11.4205C94.2807 10.9072 94.0288 10.2656 94.0288 9.46362C94.0288 8.66161 94.2807 8.02 94.753 7.53879C95.2254 7.05759 95.8237 6.80094 96.548 6.80094C97.2722 6.80094 97.902 7.05759 98.3744 7.57087C98.8467 8.05208 99.0987 8.72577 99.0987 9.4957C99.0987 10.2977 98.8467 10.9393 98.3744 11.4526C97.902 11.9338 97.3037 12.1905 96.548 12.1905C95.8237 12.1905 95.2254 11.9338 94.753 11.4205ZM103.979 14.2112V4.74741C104.137 4.74741 104.452 4.74741 104.893 4.71533C105.117 4.69902 105.349 4.691 105.585 4.68285C105.814 4.67496 106.046 4.66694 106.278 4.65117C106.518 4.65117 106.75 4.64287 106.979 4.63471C107.199 4.62683 107.416 4.61909 107.632 4.61909C110.435 4.61909 111.852 5.45318 111.852 7.08929C111.852 7.63465 111.694 8.11586 111.348 8.50083C111.002 8.88579 110.592 9.11036 110.12 9.2066V9.23868C111.443 9.55949 112.104 10.2973 112.104 11.4202C112.104 13.3129 110.624 14.2753 107.695 14.2753C107.4 14.2753 106.975 14.2587 106.43 14.2374L106.43 14.2374L106.43 14.2374C106.218 14.2291 105.989 14.2201 105.743 14.2112H103.979ZM107.853 6.576C107.191 6.576 106.688 6.576 106.373 6.60808V8.69331H107.916C108.325 8.69331 108.671 8.59707 108.923 8.40459C109.207 8.2121 109.333 7.95546 109.333 7.60257C109.333 6.92888 108.829 6.576 107.853 6.576ZM107.853 10.169H106.373V12.2863C107.317 12.3505 107.821 12.3826 107.947 12.3826C108.482 12.3826 108.892 12.2863 109.175 12.0938C109.459 11.9014 109.616 11.6447 109.616 11.2918C109.585 10.554 109.018 10.169 107.853 10.169ZM122.811 12.8L121.709 11.0356C121.016 11.8055 120.197 12.1905 119.347 12.1584C118.623 12.1584 117.993 11.9338 117.457 11.4205C116.922 10.9393 116.67 10.2656 116.67 9.46362C116.67 8.66161 116.954 8.02 117.457 7.50671C117.961 7.02551 118.56 6.76886 119.252 6.76886C120.166 6.76886 120.921 7.08967 121.551 7.6992L122.653 5.77437C121.803 4.90819 120.544 4.49115 118.906 4.49115C117.489 4.49115 116.355 4.97235 115.442 5.93477C114.529 6.89718 114.088 8.05208 114.088 9.46362C114.088 10.9393 114.56 12.1584 115.474 13.0566C116.387 13.987 117.615 14.4361 119.126 14.4361C119.914 14.4361 120.606 14.3078 121.268 14.0191C121.898 13.7303 122.433 13.3454 122.811 12.8ZM125.015 14.2125V4.74871H127.377V14.2125H125.015ZM133.833 4.74871L130.274 9.23998L134.273 14.2125H131.187L127.503 9.43246L130.841 4.74871H133.833ZM135.974 14.2125H138.335L142.681 8.2134V14.2125H145.043V4.74871H142.681L138.335 10.7478V4.74871H135.974V14.2125ZM47.6442 22.6489V23.2584V23.2905H51.0136C50.9507 24.0283 50.6987 24.5737 50.2579 25.0228C49.7855 25.4399 49.2187 25.6644 48.5574 25.6644C47.6757 25.6644 46.9829 25.4399 46.5106 25.0228L46.1642 25.5682C46.6995 26.0815 47.5182 26.3381 48.6204 26.3381C49.5021 26.3381 50.2264 26.0173 50.8247 25.3757C51.423 24.7662 51.7064 23.9642 51.7064 23.0338C51.7064 22.0393 51.423 21.2373 50.7932 20.6278C50.1634 20.0183 49.3762 19.7295 48.4 19.7295C47.9591 19.7295 47.5497 19.8258 47.1089 19.9862C46.6995 20.1466 46.3531 20.3711 46.0697 20.6599L46.3846 21.2052C46.8885 20.6599 47.5812 20.4032 48.4 20.4032C49.0927 20.4032 49.6596 20.5957 50.1319 20.9807C50.6043 21.3656 50.8562 21.9431 50.9192 22.6489H47.6442ZM53.4386 26.2094V19.8575H54.1629V26.2094H53.4386ZM58.54 19.8575L55.454 22.9051L58.7919 26.2094H57.8157L54.5723 22.9372L57.5953 19.8575H58.54ZM65.0583 25.3115L64.712 24.7662C64.2081 25.3436 63.5783 25.6324 62.7281 25.6003C61.9723 25.6003 61.374 25.3757 60.8702 24.8945C60.3978 24.4133 60.1459 23.8038 60.1459 23.0017C60.1459 22.2639 60.3978 21.6544 60.8702 21.1411C61.3425 20.6599 61.9408 20.4032 62.6021 20.4032C63.4209 20.4032 64.0822 20.6599 64.586 21.109L64.9324 20.5315C64.3971 19.9862 63.5783 19.7295 62.5077 19.7295C61.6259 19.7295 60.9017 20.0503 60.3034 20.6919C59.705 21.3015 59.4216 22.1035 59.4216 23.0338C59.4216 24.0283 59.705 24.8303 60.3348 25.4399C60.9646 26.0494 61.7519 26.3381 62.7281 26.3381C63.1689 26.3381 63.6413 26.274 64.0507 26.0815C64.46 25.889 64.8064 25.6324 65.0583 25.3115ZM71.3565 26.2094V20.5312H67.3887V26.2094H66.6645V19.8575H72.0807V26.2094H71.3565ZM73.8122 23.0338C73.8122 23.9962 74.1271 24.7983 74.7255 25.4078C75.3553 26.0173 76.1425 26.3381 77.0872 26.3381C78.0634 26.3381 78.8507 26.0173 79.449 25.4078C80.0473 24.7983 80.3622 23.9962 80.3622 23.0338C80.3622 22.0714 80.0473 21.2694 79.449 20.6599C78.8192 20.0503 78.0634 19.7295 77.0872 19.7295C76.111 19.7295 75.3238 20.0503 74.7255 20.6599C74.1271 21.2694 73.8122 22.0714 73.8122 23.0338ZM74.568 23.0338C74.568 22.2639 74.8199 21.6223 75.2923 21.1411C75.7646 20.6599 76.3629 20.4353 77.0557 20.4032C77.78 20.4032 78.3783 20.6599 78.8506 21.1411C79.323 21.6544 79.5434 22.2639 79.5434 23.0338C79.5434 23.8038 79.323 24.4454 78.8506 24.9266C78.4098 25.4078 77.78 25.6644 77.0557 25.6644C76.3314 25.6644 75.7331 25.4078 75.2608 24.9266C74.7884 24.4133 74.568 23.8038 74.568 23.0338ZM82.1258 29V19.8571H82.8501V20.6912C83.102 20.4025 83.4169 20.1779 83.8263 19.9854C84.2356 19.7929 84.6765 19.6967 85.1173 19.6967C85.9991 19.6967 86.7233 19.9854 87.2272 20.595C87.7625 21.1724 88.0144 21.9744 88.0144 22.9048C88.0144 23.8992 87.731 24.7013 87.1327 25.3429C86.5344 25.9845 85.7786 26.3053 84.8024 26.3053C83.9522 26.3053 83.2909 26.1128 82.8186 25.7599V29H82.1258ZM84.9599 20.4346C84.5505 20.4346 84.1412 20.5308 83.7633 20.7233C83.3854 20.9158 83.0705 21.1403 82.8816 21.4291V25.0862C83.4484 25.4712 84.1097 25.6637 84.8339 25.6637C85.5897 25.6637 86.188 25.407 86.6289 24.9258C87.1012 24.4125 87.3216 23.7709 87.3216 23.001C87.3216 22.2311 87.1012 21.6215 86.6918 21.1403C86.251 20.6591 85.6842 20.4346 84.9599 20.4346ZM88.6441 19.8575V20.5953H91.1319V26.2094H91.8561V20.5953H94.3438V19.8575H88.6441ZM100.39 26.2094V23.3222H96.328V26.2094H95.6037V19.8575H96.328V22.6485H100.39V19.8575H101.114V26.2094H100.39ZM103.287 19.8575V26.2094V26.2415H104.987C105.901 26.2415 106.53 26.0169 106.94 25.632C107.349 25.2149 107.538 24.7016 107.538 24.0921C107.538 22.7126 106.719 22.0069 105.082 22.0069H104.011V19.8575H103.287ZM104.043 22.6806H104.987C106.184 22.6806 106.814 23.1618 106.814 24.1242C106.814 24.5733 106.688 24.9583 106.404 25.1828C106.121 25.4074 105.649 25.5357 104.987 25.5357H104.043V22.6806ZM108.987 19.8575V26.2094H109.711V19.8575H108.987ZM112.64 26.2102H111.916V19.8583H112.64V25.1516L116.797 19.8583H117.521V26.2102H116.797V20.9169L112.64 26.2102ZM112.86 16.554H113.522C113.522 16.9069 113.648 17.1956 113.868 17.4522C114.12 17.6768 114.403 17.8051 114.813 17.8051C115.159 17.8051 115.474 17.6768 115.694 17.4522C115.915 17.2277 116.041 16.9069 116.041 16.554H116.702C116.702 17.0673 116.513 17.5164 116.167 17.8372C115.82 18.1901 115.348 18.3505 114.813 18.3505C114.214 18.3505 113.742 18.1901 113.396 17.8372C113.049 17.5164 112.86 17.0673 112.86 16.554ZM122.968 19.8575V26.2094V26.2415H128.699V27.8455H129.392V25.5357H128.353V19.8575H127.629V25.5357H123.692V19.8575H122.968ZM135.659 24.8624L135.879 25.4399C135.312 26.0494 134.557 26.3381 133.58 26.3381C132.604 26.3381 131.785 26.0494 131.187 25.4399C130.589 24.8303 130.274 24.0283 130.274 23.0338C130.274 22.0714 130.557 21.2694 131.124 20.6599C131.691 20.0503 132.447 19.7295 133.454 19.7295C134.273 19.7295 134.934 19.9862 135.47 20.5315C136.005 21.0448 136.288 21.7506 136.288 22.6168C136.288 22.8413 136.288 23.0338 136.257 23.1942H131.124C131.156 23.9642 131.408 24.5737 131.848 24.9907C132.321 25.4399 132.919 25.6324 133.675 25.6324C134.494 25.6324 135.155 25.3757 135.659 24.8624ZM133.36 20.4353C132.699 20.4353 132.132 20.6278 131.722 21.0448C131.313 21.4298 131.093 21.9752 131.03 22.6168H135.533C135.533 21.9431 135.312 21.4298 134.934 21.0448C134.556 20.6278 134.021 20.4353 133.36 20.4353ZM142.775 23.3222V26.2094H143.5V19.8575H142.775V22.6485H138.713V19.8575H137.989V26.2094H138.713V23.3222H142.775ZM144.76 20.5953V19.8575H150.459V20.5953H147.971V26.2094H147.247V20.5953H144.76ZM151.719 19.8571V29H152.412V25.7599C152.884 26.1128 153.546 26.3053 154.396 26.3053C155.372 26.3053 156.128 25.9845 156.726 25.3429C157.324 24.7013 157.608 23.8992 157.608 22.9048C157.608 21.9744 157.356 21.1724 156.82 20.595C156.317 19.9854 155.592 19.6967 154.711 19.6967C154.27 19.6967 153.829 19.7929 153.42 19.9854C153.01 20.1779 152.695 20.4025 152.443 20.6912V19.8571H151.719ZM153.325 20.7233C153.703 20.5308 154.112 20.4346 154.522 20.4346C155.277 20.4346 155.844 20.6591 156.254 21.1403C156.663 21.6215 156.883 22.2311 156.883 23.001C156.883 23.7709 156.663 24.4125 156.191 24.9258C155.75 25.407 155.152 25.6637 154.396 25.6637C153.671 25.6637 153.01 25.4712 152.443 25.0862V21.4291C152.632 21.1403 152.947 20.9158 153.325 20.7233Z" fill="white"/>
</svg>
