<svg width="140" height="29" viewBox="0 0 140 29" fill="none" xmlns="http://www.w3.org/2000/svg">
<path d="M62.8398 14.4337C62.8398 19.6139 59.6901 22.0711 55.7475 22.0711H53.3467V18.9497H55.5713C57.9501 18.9497 59.5359 17.6658 59.5359 14.4116C59.5359 11.2017 58.0382 9.60776 55.5052 9.60776C53.0604 9.60776 51.3203 11.1131 51.3203 14.3452V27.362H48.0165V6.907H51.2983V8.67799H51.7608C52.8621 7.19478 54.47 6.53066 56.166 6.53066C59.8002 6.53066 62.8398 9.18715 62.8398 14.4337ZM41.2546 13.0833L39.074 12.862C37.356 12.707 36.4529 12.2421 36.4529 11.2238C36.4529 10.0284 37.6203 9.34211 39.2722 9.34211C40.9902 9.34211 42.0915 10.1612 42.1796 11.3123H45.3293C45.1972 8.34593 42.9285 6.53066 39.2943 6.53066C35.638 6.53066 33.1711 8.47875 33.1711 11.3345C33.1711 13.7253 34.6688 15.2749 38.0828 15.607L40.3074 15.8284C41.651 15.9612 42.5541 16.2268 42.5541 17.5329C42.5541 18.7062 41.7171 19.5475 39.4925 19.5475C37.4441 19.5475 36.4309 18.6177 36.0785 17.3559H32.6645C32.9949 20.2116 35.3957 22.4253 39.4925 22.4253C43.347 22.4253 45.8359 20.3887 45.8359 17.3559C45.8139 14.7215 44.0739 13.349 41.2546 13.0833ZM75.5487 17.378C75.0421 18.5734 73.8086 19.4589 72.0466 19.4589C69.6458 19.4589 67.8617 17.8871 67.8617 14.5001C67.8617 11.2681 69.5136 9.47493 72.0906 9.47493C74.3813 9.47493 75.6808 10.8475 75.813 12.9284H69.9101V15.3192H79.0508V13.7475C79.0508 9.38638 76.1654 6.5528 72.0686 6.5528C68.2581 6.5528 64.6019 9.16501 64.6019 14.5001C64.6019 19.8352 68.2581 22.4475 72.0686 22.4475C75.5487 22.4475 78.0596 20.278 78.8305 17.378H75.5487ZM23.7661 6.53066C20.1759 6.53066 17.4888 8.41234 17.1584 11.3123H20.6825C20.9248 10.2497 21.8939 9.4528 23.7441 9.4528C26.1229 9.4528 26.8938 10.7146 26.8938 12.2421V17.4223C25.5502 18.9719 23.9864 19.6803 22.4225 19.6803C20.7926 19.6803 19.6693 18.8833 19.6693 17.4887C19.6693 16.1383 20.5503 15.2971 22.2243 15.2971H24.8454V12.9284H22.1142C18.3698 12.9284 16.2553 14.81 16.2553 17.71C16.2553 20.4108 18.2817 22.4475 21.6296 22.4475C23.5018 22.4475 25.1537 21.6948 26.3872 20.7871H26.8497V22.0711H30.1315V11.9543C30.2196 8.2131 27.6867 6.53066 23.7661 6.53066ZM1.49805 22.0711H4.77989V1.32837H1.49805V22.0711ZM15.2862 6.907H11.2775L6.4979 13.2383V15.2085L11.4096 22.0711H15.4844L9.71366 14.2123L15.2862 6.907ZM134.027 6.907L131.34 12.9062C130.679 14.3452 130.062 15.762 129.864 16.7139H129.402C129.203 15.762 128.565 14.3894 127.904 12.9505L125.217 6.907H121.583L127.904 20.5215L124.776 27.3841H128.278L137.661 6.907H134.027ZM120.856 6.907H116.847L112.067 13.2162V15.1864L116.979 22.049H121.054L115.305 14.1902L120.856 6.907ZM100.284 13.0833L98.1031 12.862C96.385 12.707 95.482 12.2421 95.482 11.2238C95.482 10.0284 96.6494 9.34211 98.3013 9.34211C100.019 9.34211 101.121 10.1612 101.209 11.3123H104.358C104.226 8.34593 101.958 6.53066 98.3233 6.53066C94.667 6.53066 92.2001 8.47875 92.2001 11.3345C92.2001 13.7253 93.6979 15.2749 97.1119 15.607L99.3365 15.8284C100.68 15.9612 101.583 16.2268 101.583 17.5329C101.583 18.7062 100.746 19.5475 98.5215 19.5475C96.4731 19.5475 95.46 18.6177 95.1076 17.3559H91.6936C92.0239 20.2116 94.4248 22.4253 98.5215 22.4253C102.376 22.4253 104.865 20.3887 104.865 17.3559C104.865 14.7215 103.103 13.349 100.284 13.0833ZM107.068 22.0711H110.349V1.32837H107.068V22.0711ZM85.3942 8.67799H84.9316V6.907H81.6498V22.0711H84.9316V14.1459C84.9316 11.4452 86.1651 9.87341 88.632 9.87341H90.7024V6.53066H89.491C87.2223 6.53066 86.2532 7.39402 85.3942 8.67799Z" fill="white"/>
</svg>
