<svg width="79" height="45" viewBox="0 0 79 45" fill="none" xmlns="http://www.w3.org/2000/svg">
<path fill-rule="evenodd" clip-rule="evenodd" d="M0 6.48809C0 9.08632 1.58701 11.7625 4.01416 12.9758L4.18531 12.7115C1.38472 10.9224 0.793487 8.52625 0.793487 6.48809C0.793487 4.44993 1.38472 2.05382 4.18531 0.264377L4.01416 0C1.58701 1.21372 0 3.88951 0 6.48809ZM17.9272 1.46246C17.9272 1.13581 18.0517 1.01127 18.3008 1.01127H19.2498V0.70028H16.0914V1.01127H17.196C17.445 1.01127 17.5696 1.13581 17.5696 1.46246V10.7043L10.568 0.70028H8.70098V1.01127H9.65006C9.899 1.01127 10.0235 1.13581 10.0235 1.46246V10.8288C10.0235 11.1555 9.899 11.28 9.65006 11.28H8.70098V11.5913H11.8594V11.28H10.7548C10.5058 11.28 10.3813 11.1555 10.3813 10.8288V1.61795L17.3671 11.5913H17.9272V1.46246ZM33.1877 1.01127H34.1367C34.3858 1.01127 34.5103 1.13581 34.5103 1.46246V10.8288C34.5103 11.1555 34.3858 11.28 34.1367 11.28H33.1877V11.5913H38.4778C41.2005 11.5913 42.2897 10.2378 42.2897 8.57289C42.2897 6.86137 41.1539 6.08354 39.7534 5.83447C41.1849 5.42989 41.6674 4.48091 41.6674 3.454C41.6674 1.74249 40.5003 0.70028 37.6686 0.70028H33.1877V1.01127ZM37.6842 1.01123C40.0181 1.01123 40.8891 1.89795 40.8891 3.45396C40.8891 4.66768 40.3447 5.72555 37.9643 5.72555H35.1949V1.01123H37.6842ZM41.5115 8.57285C41.5115 9.97301 40.8582 11.28 38.5243 11.28H35.5682C35.3191 11.28 35.1949 11.1554 35.1949 10.8288V6.03689H38.2443C40.7027 6.03689 41.5115 7.01683 41.5115 8.57285ZM45.5085 5.7569V1.01127H48.6049C51.0007 1.01127 51.2807 1.12015 51.343 4.01407H51.701V0.70028H43.5013V1.01127H44.4507C44.6994 1.01127 44.8239 1.13581 44.8239 1.46246V10.8288C44.8239 11.1555 44.6994 11.28 44.4507 11.28H43.5013V11.5913H51.701V8.2772H51.343C51.2807 11.1711 51.0007 11.28 48.6049 11.28H47.3446C45.6331 11.28 45.5085 11.1555 45.5085 10.689V6.06789H47.8734C48.6668 6.06789 49.1027 6.25469 49.1027 7.21933V7.71713H49.4603V4.10765H49.1027V4.60545C49.1027 5.57009 48.6668 5.7569 47.8734 5.7569H45.5085ZM53.0708 11.5913H61.2391V7.65486H60.8812C60.8032 11.249 60.7879 11.28 57.4738 11.28C55.0933 11.28 55.0777 11.2177 55.0777 10.5644V1.46246C55.0777 1.13581 55.2022 1.01127 55.4513 1.01127H56.7113V0.70028H53.0708V1.01127H54.0198C54.2685 1.01127 54.3931 1.13581 54.3931 1.46246V10.8288C54.3931 11.1555 54.2685 11.28 54.0198 11.28H53.0708V11.5913ZM27.6302 13.6081C27.8479 13.0324 28.0504 12.8922 28.3148 12.8922H29.0307V12.5812H25.9656V12.8922H26.899C27.2726 12.8922 27.4124 13.0324 27.2413 13.4992L23.8339 22.8186L20.5977 13.4992C20.4578 13.1103 20.5511 12.8922 20.94 12.8922H21.9203V12.5812H18.4972V12.8922H19.2132C19.5864 12.8922 19.7419 13.1413 19.9444 13.7327L23.3827 23.4723H23.9118L27.6302 13.6081ZM29.2523 12.5812V12.8922H30.2016C30.4503 12.8922 30.5749 13.0167 30.5749 13.3434V22.7097C30.5749 23.0367 30.4503 23.1609 30.2016 23.1609H29.2523V23.4723H32.5821V23.1609H31.6327C31.384 23.1609 31.2595 23.0367 31.2595 22.7097V13.3434C31.2595 13.0167 31.384 12.8922 31.6327 12.8922H32.5821V12.5812H29.2523ZM42.1082 20.7029C42.1082 19.1159 41.0813 18.3224 38.0162 17.5599C35.5268 16.9219 34.7177 16.2996 34.7177 15.024C34.7177 13.3591 36.0713 12.7367 37.4405 12.7367C39.2142 12.7367 40.6923 13.7636 41.2368 15.8641H41.7036V12.5812H41.3456L41.2211 14.635C40.4276 13.2036 39.0118 12.4257 37.3782 12.4257C35.6044 12.4257 34.1263 13.3747 34.1263 15.1795C34.1263 16.6885 35.2465 17.6065 37.7362 18.1979C40.6144 18.8669 41.5011 19.5358 41.5011 20.9207C41.5011 22.5077 40.2098 23.3168 38.4983 23.3168C36.3356 23.3168 34.5932 21.9942 34.2509 20.1895H33.8306V23.4723H34.1886L34.3288 21.543C35.1532 22.772 36.6936 23.6278 38.4983 23.6278C40.4589 23.6278 42.1082 22.6322 42.1082 20.7029ZM43.4223 12.5812V12.8922H44.3716C44.6203 12.8922 44.7449 13.0167 44.7449 13.3434V22.7097C44.7449 23.0367 44.6203 23.1609 44.3716 23.1609H43.4223V23.4723H46.7521V23.1609H45.8027C45.554 23.1609 45.4295 23.0367 45.4295 22.7097V13.3434C45.4295 13.0167 45.554 12.8922 45.8027 12.8922H46.7521V12.5812H43.4223ZM58.0986 18.0268C58.0986 14.6503 56.0914 12.4257 53.0573 12.4257C50.0235 12.4257 48.0163 14.6503 48.0163 18.0268C48.0163 21.4028 50.0235 23.6278 53.0573 23.6278C56.0914 23.6278 58.0986 21.4028 58.0986 18.0268ZM48.8256 18.0267C48.8256 14.7126 50.3816 12.7367 53.0574 12.7367C55.7336 12.7367 57.3205 14.7126 57.3205 18.0267C57.3205 21.3409 55.7649 23.3168 53.0887 23.3168C50.4126 23.3168 48.8256 21.3409 48.8256 18.0267ZM68.5812 13.3434C68.5812 13.0167 68.7057 12.8922 68.9548 12.8922H69.9038V12.5812H66.7455V12.8922H67.85C68.099 12.8922 68.2236 13.0167 68.2236 13.3434V22.5856L61.222 12.5812H59.355V12.8922H60.304C60.5531 12.8922 60.6773 13.0167 60.6773 13.3434V22.7097C60.6773 23.0367 60.5531 23.1609 60.304 23.1609H59.355V23.4723H62.5133V23.1609H61.4088C61.1598 23.1609 61.0352 23.0367 61.0352 22.7097V13.4992L68.0211 23.4723H68.5812V13.3434ZM74.5109 11.8809L74.3398 12.1457C77.1401 13.9347 77.7315 16.3309 77.7315 18.369C77.7315 20.4072 77.1401 22.8033 74.3398 24.5924L74.5109 24.8571C76.938 23.6434 78.525 20.9673 78.525 18.369C78.525 15.7708 76.938 13.0946 74.5109 11.8809Z" fill="white"/>
<path fill-rule="evenodd" clip-rule="evenodd" d="M26.2508 31.9198C26.2508 30.504 25.3961 29.571 24.1041 29.571C22.8125 29.571 21.9578 30.504 21.9578 31.9198C21.9578 33.3357 22.8125 34.2686 24.1041 34.2686C25.3961 34.2686 26.2508 33.3357 26.2508 31.9198ZM22.4078 31.9199C22.4078 30.5368 23.0277 29.7341 24.104 29.7341C25.1808 29.7341 25.807 30.5368 25.807 31.9199C25.807 33.303 25.1939 34.1057 24.1172 34.1057C23.0405 34.1057 22.4078 33.303 22.4078 31.9199ZM27.0582 29.7995H27.4496C27.5538 29.7995 27.6125 29.8582 27.6125 30.0016V33.8381C27.6125 33.9815 27.5538 34.0402 27.4496 34.0402H27.0582V34.2035H28.6434V34.0402H28.1801C28.0694 34.0402 28.0107 33.9815 28.0107 33.8381V32.507H28.9109C30.2748 32.507 30.8747 31.9135 30.8747 31.0716C30.8747 30.1454 30.2353 29.6362 28.9568 29.6362H27.0582V29.7995ZM28.8781 29.7995C30.1246 29.7995 30.4441 30.367 30.4441 31.0783C30.4441 31.7765 30.1114 32.344 28.8781 32.344H28.0106V29.7995H28.8781ZM32.426 31.7437V29.7995H33.6593C34.6574 29.7995 34.7816 29.8582 34.8207 31.0456H35.0097V29.6362H31.4735V29.7995H31.8649C31.9695 29.7995 32.0282 29.8582 32.0282 30.0016V33.8381C32.0282 33.9815 31.9695 34.0402 31.8649 34.0402H31.4735V34.2035H35.0097V32.7813H34.8207C34.7816 33.9687 34.6574 34.0402 33.6593 34.0402H33.1569C32.4847 34.0402 32.426 33.9815 32.426 33.7858V31.9003H33.3526C33.6853 31.9003 33.8614 31.985 33.8614 32.3767V32.592H34.0443V31.052H33.8614V31.2673C33.8614 31.659 33.6853 31.7437 33.3526 31.7437H32.426ZM39.7978 30.0016C39.7978 29.8582 39.8565 29.7995 39.9675 29.7995H40.3525V29.6362H38.989V29.7995H39.4391C39.5434 29.7995 39.6021 29.8582 39.6021 30.0016V33.6879L36.7704 29.6362H35.8702V29.7995H36.2616C36.3658 29.7995 36.4246 29.8582 36.4246 30.0016V33.8381C36.4246 33.9815 36.3658 34.0402 36.2616 34.0402H35.8702V34.2035H37.2401V34.0402H36.79C36.6793 34.0402 36.6203 33.9815 36.6203 33.8381V30.1059L39.4846 34.2035H39.7978V30.0016ZM21.814 35.002V35.165H22.2054C22.31 35.165 22.3687 35.2237 22.3687 35.3674V39.2039C22.3687 39.3473 22.31 39.4061 22.2054 39.4061H21.814V39.569H23.3276V39.4061H22.9362C22.8252 39.4061 22.7665 39.3473 22.7665 39.2039V35.3674C22.7665 35.2237 22.8252 35.165 22.9362 35.165H23.3276V35.002H21.814ZM27.9209 35.3674C27.9209 35.2237 27.9796 35.165 28.0907 35.165H28.4757V35.002H27.1118V35.165H27.5619C27.6665 35.165 27.7252 35.2237 27.7252 35.3674V39.0538L24.8936 35.002H23.993V35.165H24.3847C24.489 35.165 24.5477 35.2237 24.5477 35.3674V39.2039C24.5477 39.3473 24.489 39.4061 24.3847 39.4061H23.993V39.569H25.3633V39.4061H24.9131C24.8021 39.4061 24.7434 39.3473 24.7434 39.2039V35.4717L27.6078 39.569H27.9209V35.3674ZM33.0375 35.3674C33.0375 35.2237 33.0962 35.165 33.2072 35.165H33.5922V35.002H32.2283V35.165H32.6788C32.783 35.165 32.8418 35.2237 32.8418 35.3674V39.0538L30.0101 35.002H29.1099V35.165H29.5013C29.6055 35.165 29.6642 35.2237 29.6642 35.3674V39.2039C29.6642 39.3473 29.6055 39.4061 29.5013 39.4061H29.1099V39.569H30.4798V39.4061H30.0297C29.9187 39.4061 29.8599 39.3473 29.8599 39.2039V35.4717L32.7243 39.569H33.0375V35.3674ZM38.6629 37.2857C38.6629 35.8696 37.8083 34.9366 36.5163 34.9366C35.2243 34.9366 34.3696 35.8696 34.3696 37.2857C34.3696 38.7016 35.2243 39.6345 36.5163 39.6345C37.8083 39.6345 38.6629 38.7016 38.6629 37.2857ZM34.8198 37.2857C34.8198 35.9023 35.4397 35.0999 36.5164 35.0999C37.5931 35.0999 38.2194 35.9023 38.2194 37.2857C38.2194 38.6688 37.6059 39.4712 36.5295 39.4712C35.4528 39.4712 34.8198 38.6688 34.8198 37.2857ZM42.7344 35.4717C42.8194 35.2305 42.9041 35.165 43.0215 35.165H43.3218V35.002H41.9971V35.165H42.3821C42.5387 35.165 42.5974 35.2237 42.5255 35.4262L41.1488 39.2299L39.844 35.4262C39.7853 35.2564 39.8244 35.165 39.9874 35.165H40.3856V35.002H38.8459V35.165H39.1459C39.3024 35.165 39.3679 35.2696 39.4526 35.5173L40.8684 39.569H41.2075L42.7344 35.4717ZM43.2307 39.0862C43.1328 39.3409 43.0545 39.4061 42.898 39.4061H42.6368V39.569H43.9548V39.4061H43.5893C43.4328 39.4061 43.3676 39.3605 43.4459 39.1452L43.8437 38.023H45.762V37.9966L46.1733 39.1189C46.2384 39.3146 46.1929 39.4061 45.9776 39.4061H45.6122V39.569H47.1714V39.4061H46.9302C46.7213 39.4061 46.6562 39.3018 46.5647 39.0275L45.0834 35.002H44.7312L43.2307 39.0862ZM43.9026 37.8533L44.8032 35.3216L45.7166 37.8533H43.9026ZM49.7952 39.4061H49.3383C49.2273 39.4061 49.1686 39.3473 49.1686 39.2039V35.165H49.5536C50.5325 35.165 50.6431 35.2237 50.689 36.4242H50.8716V35.002H47.0678V36.4242H47.2503C47.2962 35.2237 47.4069 35.165 48.3922 35.165H48.7708V39.2039C48.7708 39.3473 48.7121 39.4061 48.6011 39.4061H48.1442V39.569H49.7952V39.4061ZM51.3788 35.002V35.165H51.7702C51.8748 35.165 51.9335 35.2237 51.9335 35.3674V39.2039C51.9335 39.3473 51.8748 39.4061 51.7702 39.4061H51.3788V39.569H52.8924V39.4061H52.501C52.39 39.4061 52.3313 39.3473 52.3313 39.2039V35.3674C52.3313 35.2237 52.39 35.165 52.501 35.165H52.8924V35.002H51.3788ZM57.9946 37.2857C57.9946 35.8696 57.1399 34.9366 55.8479 34.9366C54.5563 34.9366 53.7016 35.8696 53.7016 37.2857C53.7016 38.7016 54.5563 39.6345 55.8479 39.6345C57.1399 39.6345 57.9946 38.7016 57.9946 37.2857ZM54.1516 37.2857C54.1516 35.9023 54.7715 35.0999 55.8478 35.0999C56.9246 35.0999 57.5508 35.9023 57.5508 37.2857C57.5508 38.6688 56.9377 39.4712 55.861 39.4712C54.7846 39.4712 54.1516 38.6688 54.1516 37.2857ZM62.7296 35.3674C62.7296 35.2237 62.7883 35.165 62.8993 35.165H63.2843V35.002H61.9208V35.165H62.3709C62.4752 35.165 62.5339 35.2237 62.5339 35.3674V39.0538L59.7022 35.002H58.802V35.165H59.1934C59.2976 35.165 59.3564 35.2237 59.3564 35.3674V39.2039C59.3564 39.3473 59.2976 39.4061 59.1934 39.4061H58.802V39.569H60.1719V39.4061H59.7218C59.6108 39.4061 59.5521 39.3473 59.5521 39.2039V35.4717L62.4164 39.569H62.7296V35.3674ZM67.5983 38.3817C67.5983 37.6836 67.1155 37.3509 65.8694 37.0377C64.8773 36.7833 64.5251 36.5289 64.5251 36.0133C64.5251 35.3543 65.0602 35.0999 65.6146 35.0999C66.3522 35.0999 66.9653 35.5305 67.1874 36.3983H67.4154V35.0021H67.2265L67.1742 35.8176C66.8415 35.2501 66.2608 34.9366 65.5886 34.9366C64.8122 34.9366 64.1792 35.3543 64.1792 36.1176C64.1792 36.7833 64.6948 37.1552 65.7128 37.4032C66.8611 37.6771 67.2393 37.9447 67.2393 38.5123C67.2393 39.1517 66.7241 39.4712 66.0388 39.4712C65.1517 39.4712 64.434 38.9168 64.2771 38.16H64.0686V39.5691H64.2575L64.3162 38.7863C64.6688 39.2887 65.3015 39.6345 66.0519 39.6345C66.8934 39.6345 67.5983 39.204 67.5983 38.3817ZM35.2411 43.6496H35.0582C35.0582 44.2954 34.9212 44.5825 34.4515 44.5825C33.8513 44.5825 33.6815 43.9495 33.0553 43.9495C32.703 43.9495 32.3312 44.178 32.2138 44.5434C32.1874 42.723 35.0582 43.0425 35.0582 41.4442C35.0582 40.635 34.3601 40.3023 33.6491 40.3023C32.6639 40.3023 32.1483 40.9286 32.1483 41.405C32.1483 41.7118 32.3116 41.8683 32.5137 41.8683C32.703 41.8683 32.8137 41.7377 32.8137 41.5876C32.8137 41.4246 32.6962 41.3072 32.5397 41.3072C32.481 41.3072 32.4223 41.32 32.3767 41.3591C32.3767 40.9154 32.8855 40.4785 33.6032 40.4785C34.2035 40.4785 34.6277 40.8112 34.6277 41.457C34.6277 42.9383 32.0309 42.638 32.0309 44.5758V44.9348H32.292C32.292 44.4584 32.6116 44.1975 32.9902 44.1975C33.5317 44.1975 33.7794 44.9999 34.4647 44.9999C34.9671 44.9999 35.2411 44.6608 35.2411 43.6496ZM36.2235 45C36.4128 45 36.5431 44.8826 36.5431 44.6933C36.5431 44.4976 36.4128 44.3869 36.2235 44.3869C36.041 44.3869 35.9104 44.4976 35.9104 44.6933C35.9104 44.8826 36.041 45 36.2235 45ZM40.5186 42.6511C40.5186 41.2221 39.8272 40.3023 38.7637 40.3023C37.6937 40.3023 37.002 41.2221 37.002 42.6511C37.002 44.0801 37.6937 44.9999 38.7637 44.9999C39.8272 44.9999 40.5186 44.0801 40.5186 42.6511ZM37.4389 42.6512C37.4389 41.2745 37.9217 40.4654 38.7636 40.4654C39.5987 40.4654 40.0816 41.2809 40.0816 42.6512C40.0816 44.0279 39.5987 44.837 38.7636 44.837C37.9217 44.837 37.4389 44.0343 37.4389 42.6512Z" fill="white"/>
<mask id="mask0_1963_556" style="mask-type:alpha" maskUnits="userSpaceOnUse" x="20" y="0" width="12" height="12">
<path fill-rule="evenodd" clip-rule="evenodd" d="M31.8299 5.84229C31.8299 8.91163 29.3416 11.3996 26.2726 11.3996C23.2033 11.3996 20.7153 8.91163 20.7153 5.84229C20.7153 2.77331 23.2033 0.285034 26.2726 0.285034C29.3416 0.285034 31.8299 2.77331 31.8299 5.84229Z" fill="white"/>
</mask>
<g mask="url(#mask0_1963_556)">
<path fill-rule="evenodd" clip-rule="evenodd" d="M31.2545 5.84234C31.2545 8.59392 29.0239 10.8246 26.2723 10.8246V11.9746C29.659 11.9746 32.4042 9.22907 32.4042 5.84234H31.2545ZM26.2724 10.8246C23.5208 10.8246 21.2898 8.59392 21.2898 5.84234H20.1401C20.1401 9.22907 22.8857 11.9746 26.2724 11.9746V10.8246ZM21.2898 5.84235C21.2898 3.09077 23.5209 0.860106 26.2724 0.860106V-0.289917C22.8857 -0.289917 20.1402 2.45562 20.1402 5.84235H21.2898ZM26.2723 0.860124C29.0239 0.860124 31.2545 3.09078 31.2545 5.84237H32.4042C32.4042 2.45564 29.659 -0.2899 26.2723 -0.2899V0.860124Z" fill="white"/>
</g>
</svg>
