<svg width="239" height="29" viewBox="0 0 239 29" fill="none" xmlns="http://www.w3.org/2000/svg">
<path fill-rule="evenodd" clip-rule="evenodd" d="M113.077 27.9702C112.331 27.9747 111.592 27.8435 110.892 27.583L110.922 23.5736C111.489 23.7808 112.091 23.872 112.693 23.8417C114.523 23.8417 115.349 22.4715 116.146 20.5055L108 0.655318H112.781L118.448 14.8936L123.909 0.685105H128.247L120.16 20.4638C118.153 25.4681 116.677 27.9702 113.077 27.9702ZM132.321 14.2085C132.321 16.5617 133.206 17.5745 135.095 17.5745C136.152 17.631 137.199 17.3382 138.076 16.7404V8.10213H142.651V27.583H138.076V20.0766C136.829 20.8012 135.412 21.1717 133.973 21.1489C129.959 21.1489 127.746 18.9149 127.746 14.1787V8.10213H132.321V14.2085ZM161.245 22.5191V26.2425C159.888 27.1957 157.733 27.9702 154.841 28C149.026 28 145.72 24.7234 145.72 17.9319C145.72 12.034 148.377 7.74468 153.926 7.74468C158.501 7.74468 161.452 10.2766 161.452 17.0681V19.5106H150.443C150.62 22.7574 151.889 24.3362 155.224 24.3362C157.36 24.3068 159.445 23.6776 161.245 22.5191ZM156.789 15.6979C156.789 13.2553 156.11 11.3489 153.837 11.3489C151.653 11.3489 150.531 12.9872 150.413 16.0851H156.789V15.6979ZM164.02 16.9311V16.1149C164.02 6.73191 166.617 1.57872 175.324 0.893617C177.951 0.685106 179.043 0.417021 179.84 0V3.70553C179.073 4.15234 177.951 4.50979 175.649 4.65872C170.336 5.04596 168.359 6.68425 167.739 11.8077C168.772 9.54383 170.838 8.29276 173.612 8.29276C177.685 8.29276 180.991 11.6289 180.991 18.1821C180.991 24.3779 177.42 27.9523 172.432 27.9523C167.444 27.9523 164.02 24.5864 164.02 16.9311ZM172.579 12.0043C170.041 12.0043 168.742 13.9404 168.742 18.2C168.742 22.3404 170.041 24.3064 172.402 24.3064C174.941 24.3064 176.328 22.5489 176.328 18.2C176.328 13.7915 175.029 12.0043 172.579 12.0043ZM194.716 15.7872V8.10213H199.291V27.583H194.716V19.4511H188.606V27.583H184.031V8.10213H188.606V15.7872H194.716ZM203.128 27.5532V8.10213H207.584V20.1362L214.639 8.10213H218.594V27.5532H214.137V15.5191L207.083 27.5532H203.128ZM238.9 27.583H233.735L226.976 17.9915V27.583H222.401V8.10213H226.976V17.0979L233.41 8.10213H238.015L231.58 17.0979L238.9 27.583ZM16.0666 25.0061H11.8625V4.23976H9.98807C6.56053 4.23976 4.73965 5.96586 4.73965 8.51517C4.73965 11.4097 5.9982 12.764 8.56886 14.4901L10.6843 15.9241L4.55221 25.0061H0L5.5162 16.8801C2.35644 14.6495 0.562331 12.4719 0.562331 8.78073C0.562331 4.13354 3.80243 1 9.9613 1H16.0666V25.0061ZM97.3636 24.2891C96.3461 25.0061 94.9804 25.3513 93.0792 25.3513C87.5362 25.3513 84.8585 22.1487 84.8852 16.349C84.8852 11.0645 87.6166 7.29363 92.9185 7.29363C94.9537 7.29363 96.5068 7.63885 97.3636 8.11684V11.5956C96.139 10.9052 94.7557 10.5394 93.347 10.5334C90.6424 10.5334 89.1429 12.4454 89.1429 16.2162C89.1429 19.8012 90.3747 22.085 93.3202 22.085C94.759 22.1314 96.1752 21.7221 97.3636 20.9165V24.2891ZM67.1852 20.4917V23.8111C65.9802 24.6608 64.0254 25.3513 61.3744 25.3778C56.0992 25.3778 53.1001 22.4568 53.1001 16.4021C53.1001 11.1442 55.4834 7.32018 60.5443 7.32018C64.6949 7.32018 67.3726 9.57739 67.3726 15.632V17.8096H57.3846C57.5452 20.7041 58.6967 22.1115 61.7225 22.1115C63.6598 22.0853 65.5514 21.5244 67.1852 20.4917ZM29.2412 14.4901V7.61229L33.4185 7.63885V25.0061H29.268V17.7565H23.725V25.0061H19.5745V7.63885H23.6982V14.4901H29.2412ZM50.2349 21.7398H52.0826V29H48.2534V25.0167H38.9615V29H35.1323V21.7769H36.4176C37.8904 18.8824 38.1582 13.3854 38.1582 9.13657V7.63885H50.2349V21.7398ZM85.0995 25.0061H80.4134L74.2813 16.4552V25.0061H70.1307V7.63885H74.2813V15.632L80.1188 7.61229H84.2961L78.4586 15.632L85.0995 25.0061ZM63.1418 14.4105C63.1418 12.2329 62.5259 10.5334 60.464 10.5334C58.4825 10.5334 57.4649 11.9939 57.3578 14.7557H63.1418V14.4105ZM40.2469 21.7398H46.0844H46.1112V10.852H41.7196V11.3832C41.7196 14.3839 41.3983 19.1108 40.2469 21.7398Z" fill="white"/>
</svg>
