<svg width="128" height="28" viewBox="0 0 128 28" fill="none" xmlns="http://www.w3.org/2000/svg">
<path d="M0.00460977 14.0053C0.00460977 9.91132 0.00460977 5.83578 0.00460977 1.74181C0.00460977 1.50207 -0.0138304 1.24389 0.0230522 1.00416C0.0414935 0.911951 0.152141 0.801307 0.244348 0.782865C0.428761 0.745983 0.613174 0.764423 0.797587 0.764423C3.04743 0.764423 5.27883 0.7091 7.52867 0.782865C9.39124 0.838189 11.2354 1.09636 12.8767 2.09219C14.4073 3.0327 15.4031 4.37892 15.5322 6.24149C15.6429 7.80901 15.5322 8.62043 15.2556 9.45029C14.7023 11.0916 13.5037 12.1243 12.0284 12.8804C11.9177 12.9357 11.7886 12.9357 11.678 12.991C11.6042 13.0279 11.5673 13.1201 11.512 13.1939C11.5673 13.2308 11.6226 13.2492 11.678 13.2861C12.2312 13.5258 12.8029 13.7471 13.3377 14.0237C14.8868 14.8352 15.9564 16.1076 16.4727 17.7858C17.0444 19.6299 16.9706 21.4556 16.1777 23.226C15.4216 24.9226 14.0385 25.9184 12.3419 26.5454C11.4936 26.8589 10.6084 27.0433 9.68631 27.1355C6.66193 27.4306 3.61911 27.1908 0.594732 27.2646C0.0414919 27.283 0.0414919 27.2646 0.0414919 26.7114C0.0414919 23.5395 0.0414919 20.386 0.0414919 17.2141C0.00460921 16.1445 0.00460977 15.0749 0.00460977 14.0053ZM1.31394 13.9131C1.31394 17.5645 1.31394 21.2158 1.31394 24.8672C1.31394 25.0885 1.31394 25.2914 1.31394 25.5127C1.2955 25.7524 1.44303 25.8262 1.64589 25.8446C1.7381 25.8446 1.8303 25.8446 1.92251 25.8446C4.24612 25.8446 6.58816 25.8446 8.91177 25.8262C10.2764 25.8077 11.5489 25.4389 12.7476 24.7935C13.8725 24.1849 14.6286 23.2813 15.0527 22.0826C15.3293 21.3449 15.3109 20.5888 15.2925 19.8143C15.2371 17.9517 14.4442 16.4949 12.932 15.4068C12.2312 14.8905 11.4198 14.6323 10.6084 14.3926C9.68631 14.1159 8.7458 13.8946 7.80529 13.6549C7.56555 13.5996 7.52867 13.4705 7.52867 13.2676C7.52867 13.0648 7.60244 12.9541 7.82373 12.8988C8.83801 12.6038 9.87072 12.3456 10.8481 11.9583C12.7291 11.2207 13.9278 9.83755 14.1307 7.80901C14.3335 5.57761 13.393 3.69659 11.0141 2.77453C10.0182 2.38726 8.98554 2.1844 7.8975 2.1844C5.90583 2.20284 3.91417 2.1844 1.90407 2.1844C1.77498 2.1844 1.64589 2.14752 1.53524 2.20284C1.42459 2.25817 1.2955 2.38726 1.27706 2.49791C1.24018 2.70076 1.25862 2.92206 1.25862 3.14335C1.31394 6.73941 1.31394 10.3355 1.31394 13.9131Z" fill="white"/>
<path d="M45.4624 27.283C41.7188 27.283 37.9752 27.283 34.2316 27.283C34.0841 27.283 33.9181 27.283 33.7706 27.283C33.5493 27.2645 33.5308 27.117 33.5677 26.951C33.6599 26.656 33.7706 26.3794 33.8997 26.1027C34.7848 24.0373 35.6885 21.9903 36.5921 19.9249C37.4773 17.8963 38.3256 15.8494 39.2108 13.8393C39.8009 12.4746 40.4463 11.1284 41.0365 9.76372C42.0138 7.49544 42.9543 5.22715 43.9133 2.95887C44.0793 2.5716 44.2821 2.18434 44.4481 1.79707C45.0198 0.413969 44.7063 0.801233 46.0709 0.727468C46.4029 0.709027 46.4951 0.893442 46.5873 1.13318C47.4909 3.34614 48.3761 5.57754 49.2797 7.7905C49.9805 9.50554 50.7366 11.1837 51.4558 12.8987C52.2672 14.8535 53.0602 16.8267 53.8716 18.7815C54.5724 20.4597 55.2916 22.1378 55.9924 23.816C56.435 24.8856 56.8776 25.9368 57.3201 27.0064C57.3386 27.0617 57.2464 27.2461 57.191 27.2645C56.9513 27.3014 56.6931 27.283 56.4534 27.283C52.7651 27.283 49.1138 27.283 45.4624 27.283ZM45.2964 25.8445V25.8261C48.081 25.8261 50.8841 25.8261 53.6688 25.8261C54.1482 25.8261 54.6277 25.7708 55.1072 25.7339C54.9597 25.2729 54.8121 24.8303 54.6461 24.3692C54.6093 24.2586 54.5539 24.1479 54.4986 24.0373C53.6134 21.9534 52.6914 19.8696 51.8246 17.7673C51.0132 15.8125 50.2202 13.8577 49.4273 11.8845C48.7265 10.1694 48.0442 8.47283 47.3434 6.75778C46.827 5.46689 46.2922 4.176 45.7574 2.8851C45.7205 2.7929 45.6837 2.71913 45.6283 2.64536C45.5361 2.71913 45.4255 2.7929 45.3702 2.90355C44.5772 4.76612 43.8026 6.64714 43.0097 8.52815C41.7925 11.405 40.5754 14.2818 39.3399 17.1587C38.1412 19.9433 36.9425 22.7464 35.7254 25.5311C35.5778 25.863 35.5778 25.863 35.9651 25.8814C36.0573 25.8814 36.1495 25.8814 36.2417 25.8814C39.2845 25.8446 42.2905 25.8445 45.2964 25.8445Z" fill="white"/>
<path d="M111.003 13.9868C111.003 9.96661 111.003 5.9464 111.003 1.9262C111.003 1.77867 111.003 1.61269 111.003 1.46516C111.022 0.819716 111.04 0.782837 111.686 0.782837C116.499 0.782837 121.33 0.782837 126.144 0.782837C126.66 0.782837 126.66 0.801275 126.66 1.28075C126.66 1.37296 126.66 1.46516 126.66 1.55737C126.66 2.27658 126.678 2.20282 126.014 2.20282C121.847 2.20282 117.661 2.20282 113.493 2.20282C112.442 2.20282 112.442 2.20281 112.442 3.29085C112.442 6.24146 112.442 9.19208 112.442 12.1427C112.442 12.3271 112.423 12.5115 112.46 12.6959C112.478 12.7881 112.608 12.8988 112.681 12.8988C112.921 12.9357 113.179 12.9172 113.419 12.9172C117.255 12.9172 121.091 12.9172 124.926 12.9172C125.166 12.9172 125.424 12.9172 125.664 12.9357C125.738 12.9357 125.83 13.0279 125.848 13.0832C125.885 13.157 125.867 13.2676 125.867 13.3598C125.848 14.3372 125.996 14.2266 125.074 14.2266C121.109 14.2266 117.144 14.2266 113.198 14.2266C112.405 14.2266 112.442 14.1344 112.442 14.9458C112.442 18.3574 112.442 21.7691 112.442 25.1807C112.442 25.3098 112.442 25.4204 112.442 25.5495C112.442 25.7893 112.571 25.863 112.792 25.863C113.013 25.863 113.216 25.863 113.437 25.863C117.697 25.863 121.976 25.863 126.236 25.863C126.457 25.863 126.66 25.863 126.881 25.863C127.176 25.863 127.342 25.9921 127.342 26.3056C127.342 26.5269 127.379 26.7482 127.324 26.9511C127.287 27.0986 127.102 27.2277 126.973 27.283C126.844 27.3383 126.678 27.3015 126.512 27.3015C121.625 27.3015 116.738 27.3015 111.87 27.3015C110.893 27.3015 110.985 27.1908 110.985 26.361C111.003 22.2117 111.003 18.0992 111.003 13.9868Z" fill="white"/>
<path d="M89.0946 20.7917C89.1683 19.8143 88.9655 18.8738 88.3754 18.0992C87.7299 17.2509 86.9185 16.5317 85.9411 16.0338C84.7055 15.4252 83.4146 15.0011 82.1237 14.5585C81.2017 14.245 80.2612 13.9868 79.3944 13.5811C77.7347 12.825 76.241 11.8292 75.4664 10.0772C75.0976 9.22895 74.8763 8.36221 74.8763 7.44014C74.8763 5.94639 75.1714 4.54486 76.0565 3.27241C76.868 2.12905 77.9007 1.31762 79.1731 0.819708C80.5931 0.248027 82.0684 -0.102356 83.6175 0.026733C86.0149 0.229588 88.1909 0.967239 89.8691 2.77449C90.3117 3.25396 90.3117 3.29085 89.8322 3.73344C89.7216 3.84409 89.6109 3.95473 89.4818 4.04694C89.279 4.17603 89.113 4.30512 88.8733 4.01006C88.5044 3.56747 88.0803 3.14332 87.6193 2.81137C86.3652 1.94463 84.9637 1.52048 83.4331 1.4836C81.6074 1.42827 79.9477 1.85242 78.4539 2.94046C77.3843 3.715 76.7942 4.74771 76.4991 6.02016C76.2963 6.86846 76.3147 7.69832 76.5176 8.54662C76.7942 9.68998 77.4396 10.5752 78.3617 11.2759C79.0994 11.8292 79.9108 12.2349 80.7591 12.5484C82.1422 13.0647 83.5622 13.5258 84.9453 14.0606C86.0149 14.4847 87.1213 14.8904 88.0434 15.5912C89.5556 16.753 90.5883 18.2099 90.5514 20.2384C90.533 21.2711 90.5514 22.3039 90.1826 23.2997C89.6294 24.7381 88.6889 25.8261 87.4348 26.6376C86.3099 27.3568 85.0375 27.744 83.6913 27.91C80.8697 28.2604 78.3248 27.5781 76.0012 26.029C75.4295 25.6417 74.9501 25.0885 74.4337 24.609C74.3231 24.4984 74.3415 24.4062 74.4522 24.314C74.5812 24.1849 74.7103 24.0558 74.8579 23.9267C75.3373 23.5025 75.3742 23.4841 75.8168 23.9267C77.1815 25.2729 78.7859 26.0659 80.6853 26.4163C82.4188 26.7482 84.0785 26.5822 85.6829 25.9368C87.3426 25.2545 88.4676 24.0004 88.9839 22.2485C89.113 21.7875 89.0577 21.2711 89.0946 20.7917Z" fill="white"/>
</svg>
