<svg width="204" height="29" viewBox="0 0 204 29" fill="none" xmlns="http://www.w3.org/2000/svg">
<path d="M9.19273 2.88431H10.6898V15.3601H9.19273V9.81729H1.79637V15.3601H0.299271V2.88431H1.79637V8.39149H9.19273V2.88431Z" fill="white"/>
<path d="M15.1205 2.88431H23.5328V4.31012H16.6176V8.35584H22.9981V9.78165H16.6176V13.9343H23.6397V15.3601H15.1205V2.88431Z" fill="white"/>
<path d="M28.8282 15.3601H27.3311V2.88431H32.2145C33.0343 2.88431 33.7769 2.99719 34.4423 3.22294C35.1077 3.43681 35.678 3.84079 36.1533 4.43487C36.6404 5.01708 36.884 5.75969 36.884 6.6627C36.884 7.73205 36.5751 8.56377 35.9572 9.15786C35.3394 9.75194 34.5374 10.1381 33.5512 10.3163L37.7751 15.3601H35.9038L31.8224 10.4411H28.8282V15.3601ZM28.8282 4.31012V9.01528H32.2858C33.165 9.01528 33.8957 8.83705 34.4779 8.4806C35.072 8.11227 35.3691 7.5063 35.3691 6.6627C35.3691 5.80721 35.072 5.20125 34.4779 4.84479C33.8957 4.48834 33.165 4.31012 32.2858 4.31012H28.8282Z" fill="white"/>
<path d="M40.3322 11.4926C40.059 10.7322 39.9223 9.94205 39.9223 9.12221C39.9223 8.30237 40.059 7.51224 40.3322 6.75181C40.6174 5.99138 41.0214 5.30818 41.5442 4.70221C42.067 4.08436 42.7502 3.59127 43.5938 3.22294C44.4374 2.85461 45.3879 2.67044 46.4454 2.67044C47.5029 2.67044 48.4534 2.85461 49.297 3.22294C50.1406 3.59127 50.8238 4.08436 51.3466 4.70221C51.8694 5.30818 52.2674 5.99138 52.5407 6.75181C52.8259 7.51224 52.9684 8.30237 52.9684 9.12221C52.9684 9.94205 52.8259 10.7322 52.5407 11.4926C52.2674 12.253 51.8694 12.9422 51.3466 13.56C50.8238 14.166 50.1406 14.6531 49.297 15.0215C48.4534 15.3898 47.5029 15.574 46.4454 15.574C45.3879 15.574 44.4374 15.3898 43.5938 15.0215C42.7502 14.6531 42.067 14.166 41.5442 13.56C41.0214 12.9422 40.6174 12.253 40.3322 11.4926ZM51.1327 10.9936C51.3466 10.3995 51.4535 9.77571 51.4535 9.12221C51.4535 8.46872 51.3466 7.84493 51.1327 7.25084C50.9307 6.65676 50.6278 6.12208 50.2238 5.64681C49.8317 5.17154 49.3089 4.79727 48.6554 4.52399C48.0019 4.23883 47.2652 4.09625 46.4454 4.09625C45.6255 4.09625 44.8889 4.23883 44.2354 4.52399C43.5819 4.79727 43.0532 5.17154 42.6492 5.64681C42.2571 6.12208 41.9541 6.65676 41.7402 7.25084C41.5382 7.84493 41.4372 8.46872 41.4372 9.12221C41.4372 9.77571 41.5382 10.3995 41.7402 10.9936C41.9541 11.5877 42.2571 12.1223 42.6492 12.5976C43.0532 13.0729 43.5819 13.4531 44.2354 13.7383C44.8889 14.0115 45.6255 14.1482 46.4454 14.1482C47.2652 14.1482 48.0019 14.0115 48.6554 13.7383C49.3089 13.4531 49.8317 13.0729 50.2238 12.5976C50.6278 12.1223 50.9307 11.5877 51.1327 10.9936Z" fill="white"/>
<path d="M59.5141 17.3206H56.1812V0.923828H59.5141V2.34963H57.6783V15.8948H59.5141V17.3206Z" fill="white"/>
<path d="M62.814 2.88431H64.3111V15.3601H62.814V2.88431Z" fill="white"/>
<path d="M70.2385 15.3601H68.7414V2.88431H70.1316L77.6349 12.8471V2.88431H79.132V15.3601H77.7418L70.2385 5.37947V15.3601Z" fill="white"/>
<path d="M85.7549 17.3206H82.422V15.8948H84.2578V2.34963H82.422V0.923828H85.7549V17.3206Z" fill="white"/>
<path d="M101.388 2.88431H102.671V15.3601H101.174V5.7181L96.7007 12.4194H95.7739L91.3005 5.7181V15.3601H89.8034V2.88431H91.0866L96.2373 10.5837L101.388 2.88431Z" fill="white"/>
<path d="M107.22 15.3601H105.599L111.035 2.88431H112.692L118.11 15.3601H116.506L115.223 12.3481H108.504L107.22 15.3601ZM111.658 4.89826L109.092 10.9579H114.635L112.05 4.89826C112.027 4.83885 111.961 4.67845 111.854 4.41705C111.747 4.69033 111.682 4.85073 111.658 4.89826Z" fill="white"/>
<path d="M122.544 15.3601H121.047V2.88431H125.931C126.75 2.88431 127.493 2.99719 128.158 3.22294C128.824 3.43681 129.394 3.84079 129.869 4.43487C130.357 5.01708 130.6 5.75969 130.6 6.6627C130.6 7.73205 130.291 8.56377 129.673 9.15786C129.055 9.75194 128.253 10.1381 127.267 10.3163L131.491 15.3601H129.62L125.538 10.4411H122.544V15.3601ZM122.544 4.31012V9.01528H126.002C126.881 9.01528 127.612 8.83705 128.194 8.4806C128.788 8.11227 129.085 7.5063 129.085 6.6627C129.085 5.80721 128.788 5.20125 128.194 4.84479C127.612 4.48834 126.881 4.31012 126.002 4.31012H122.544Z" fill="white"/>
<path d="M136.095 15.3601H134.598V2.88431H136.095V8.28455H138.929L142.689 2.88431H144.4L140.159 8.96181L144.775 15.3601H143.064L138.982 9.71036H136.095V15.3601Z" fill="white"/>
<path d="M147.609 2.88431H156.021V4.31012H149.106V8.35584H155.487V9.78165H149.106V13.9343H156.128V15.3601H147.609V2.88431Z" fill="white"/>
<path d="M158.429 2.88431H168.695V4.31012H164.311V15.3601H162.814V4.31012H158.429V2.88431Z" fill="white"/>
<path d="M171.734 2.88431H173.231V15.3601H171.734V2.88431Z" fill="white"/>
<path d="M179.159 15.3601H177.662V2.88431H179.052L186.555 12.8471V2.88431H188.052V15.3601H186.662L179.159 5.37947V15.3601Z" fill="white"/>
<path d="M191.663 9.12221C191.663 7.75581 191.99 6.57358 192.643 5.57552C193.297 4.56557 194.117 3.82891 195.103 3.36552C196.089 2.90213 197.152 2.67044 198.293 2.67044C199.671 2.67044 200.919 2.94966 202.036 3.5081V5.0052C201.073 4.39923 199.897 4.09625 198.507 4.09625C197.83 4.09625 197.182 4.19724 196.564 4.39923C195.946 4.58934 195.376 4.88044 194.853 5.27254C194.342 5.65275 193.933 6.17555 193.624 6.84092C193.327 7.5063 193.178 8.26673 193.178 9.12221C193.178 10.0252 193.333 10.8154 193.641 11.4926C193.95 12.158 194.366 12.6808 194.889 13.061C195.412 13.4293 195.976 13.7026 196.582 13.8808C197.2 14.0591 197.853 14.1482 198.543 14.1482C199.434 14.1482 200.2 13.9937 200.842 13.6848V8.73011H202.339V14.7363C201.127 15.2948 199.826 15.574 198.436 15.574C197.545 15.574 196.707 15.4552 195.923 15.2175C195.139 14.9799 194.42 14.6175 193.766 14.1304C193.125 13.6313 192.614 12.9541 192.233 12.0986C191.853 11.2431 191.663 10.251 191.663 9.12221Z" fill="white"/>
<path d="M1.59698 28.9238H0V21.067H1.59698V21.7502H0.717359V28.2406H1.59698V28.9238Z" fill="white"/>
<path d="M3.40879 22.0064H5.37298C6.39209 22.0064 7.17207 22.2826 7.71294 22.8348C8.2595 23.3814 8.53278 24.1016 8.53278 24.9954C8.53278 25.8893 8.2595 26.6123 7.71294 27.1646C7.17207 27.7112 6.39209 27.9844 5.37298 27.9844H3.40879V22.0064ZM7.18346 26.6949C7.59907 26.2907 7.80688 25.7242 7.80688 24.9954C7.80688 24.2667 7.59907 23.7002 7.18346 23.296C6.77354 22.8918 6.17005 22.6896 5.37298 22.6896H4.12615V27.3012H5.37298C6.17005 27.3012 6.77354 27.0991 7.18346 26.6949Z" fill="white"/>
<path d="M10.4994 22.0064H11.2167V27.9844H10.4994V22.0064Z" fill="white"/>
<path d="M13.1773 24.9954C13.1773 24.3407 13.3339 23.7742 13.647 23.296C13.9602 22.812 14.353 22.4591 14.8255 22.237C15.2981 22.015 15.8076 21.904 16.3542 21.904C17.0146 21.904 17.6124 22.0378 18.1476 22.3053V23.0227C17.6864 22.7323 17.1228 22.5872 16.4567 22.5872C16.1322 22.5872 15.8219 22.6356 15.5258 22.7323C15.2298 22.8234 14.9565 22.9629 14.706 23.1508C14.4612 23.333 14.2647 23.5835 14.1167 23.9023C13.9744 24.2211 13.9032 24.5855 13.9032 24.9954C13.9032 25.4281 13.9772 25.8067 14.1253 26.1313C14.2733 26.4501 14.4726 26.7006 14.7231 26.8828C14.9736 27.0593 15.244 27.1902 15.5344 27.2756C15.8304 27.361 16.1435 27.4037 16.4738 27.4037C16.9008 27.4037 17.268 27.3297 17.5754 27.1817V24.8076H18.2928V27.6855C17.7121 27.9531 17.0886 28.0869 16.4225 28.0869C15.9955 28.0869 15.5941 28.03 15.2184 27.9161C14.8426 27.8022 14.4982 27.6286 14.185 27.3952C13.8776 27.1561 13.6328 26.8315 13.4506 26.4216C13.2684 26.0117 13.1773 25.5363 13.1773 24.9954Z" fill="white"/>
<path d="M20.3772 22.0064H21.0946V27.9844H20.3772V22.0064Z" fill="white"/>
<path d="M22.7819 22.0064H27.7009V22.6896H25.6001V27.9844H24.8827V22.6896H22.7819V22.0064Z" fill="white"/>
<path d="M28.755 27.9844H27.9779L30.5826 22.0064H31.3768L33.973 27.9844H33.2044L32.5895 26.5412H29.3699L28.755 27.9844ZM30.8815 22.9715L29.6517 25.8751H32.3077L31.0694 22.9715C31.058 22.943 31.0267 22.8661 30.9754 22.7409C30.9242 22.8718 30.8929 22.9487 30.8815 22.9715Z" fill="white"/>
<path d="M35.6109 22.0064H36.3283V27.3012H39.6418V27.9844H35.6109V22.0064Z" fill="white"/>
<path d="M43.8053 27.9844H43.0282L45.6329 22.0064H46.4271L49.0232 27.9844H48.2546L47.6398 26.5412H44.4202L43.8053 27.9844ZM45.9318 22.9715L44.702 25.8751H47.3579L46.1196 22.9715C46.1082 22.943 46.0769 22.8661 46.0257 22.7409C45.9745 22.8718 45.9431 22.9487 45.9318 22.9715Z" fill="white"/>
<path d="M50.6612 22.0064H52.6254C53.6445 22.0064 54.4245 22.2826 54.9653 22.8348C55.5119 23.3814 55.7852 24.1016 55.7852 24.9954C55.7852 25.8893 55.5119 26.6123 54.9653 27.1646C54.4245 27.7112 53.6445 27.9844 52.6254 27.9844H50.6612V22.0064ZM54.4358 26.6949C54.8515 26.2907 55.0593 25.7242 55.0593 24.9954C55.0593 24.2667 54.8515 23.7002 54.4358 23.296C54.0259 22.8918 53.4224 22.6896 52.6254 22.6896H51.3785V27.3012H52.6254C53.4224 27.3012 54.0259 27.0991 54.4358 26.6949Z" fill="white"/>
<path d="M57.7518 22.0064H59.716C60.7351 22.0064 61.515 22.2826 62.0559 22.8348C62.6025 23.3814 62.8757 24.1016 62.8757 24.9954C62.8757 25.8893 62.6025 26.6123 62.0559 27.1646C61.515 27.7112 60.7351 27.9844 59.716 27.9844H57.7518V22.0064ZM61.5264 26.6949C61.942 26.2907 62.1498 25.7242 62.1498 24.9954C62.1498 24.2667 61.942 23.7002 61.5264 23.296C61.1165 22.8918 60.513 22.6896 59.716 22.6896H58.4691V27.3012H59.716C60.513 27.3012 61.1165 27.0991 61.5264 26.6949Z" fill="white"/>
<path d="M64.8423 22.0064H65.5597V27.9844H64.8423V22.0064Z" fill="white"/>
<path d="M67.5117 25.0381C67.5117 24.3777 67.6683 23.8055 67.9815 23.3216C68.2946 22.832 68.6846 22.4733 69.1514 22.2456C69.6183 22.0178 70.1193 21.904 70.6545 21.904C71.2693 21.904 71.8301 22.0378 72.3368 22.3053V23.0227C71.9042 22.7323 71.3832 22.5872 70.774 22.5872C70.0908 22.5872 69.4987 22.7978 68.9977 23.2191C68.4967 23.6347 68.2433 24.2411 68.2377 25.0381C68.2377 25.5448 68.3657 25.9832 68.6219 26.3533C68.8838 26.7234 69.2027 26.9909 69.5784 27.1561C69.9599 27.3212 70.367 27.4037 70.7996 27.4037C71.443 27.4037 71.9696 27.2585 72.3795 26.9682V27.6855C71.8615 27.9531 71.2836 28.0869 70.6459 28.0869C70.2645 28.0869 69.8887 28.0214 69.5186 27.8905C69.1486 27.7539 68.8127 27.5631 68.5109 27.3183C68.2092 27.0678 67.9672 26.7461 67.785 26.3533C67.6028 25.9548 67.5117 25.5164 67.5117 25.0381Z" fill="white"/>
<path d="M73.612 22.0064H78.5311V22.6896H76.4302V27.9844H75.7129V22.6896H73.612V22.0064Z" fill="white"/>
<path d="M80.2178 22.0064H80.9352V27.9844H80.2178V22.0064Z" fill="white"/>
<path d="M83.0837 26.1313C82.9527 25.7669 82.8873 25.3883 82.8873 24.9954C82.8873 24.6026 82.9527 24.224 83.0837 23.8596C83.2203 23.4952 83.4139 23.1679 83.6644 22.8775C83.9149 22.5815 84.2423 22.3452 84.6465 22.1687C85.0507 21.9922 85.5062 21.904 86.0129 21.904C86.5196 21.904 86.9751 21.9922 87.3793 22.1687C87.7835 22.3452 88.1109 22.5815 88.3614 22.8775C88.6119 23.1679 88.8026 23.4952 88.9336 23.8596C89.0702 24.224 89.1385 24.6026 89.1385 24.9954C89.1385 25.3883 89.0702 25.7669 88.9336 26.1313C88.8026 26.4956 88.6119 26.8258 88.3614 27.1219C88.1109 27.4123 87.7835 27.6457 87.3793 27.8222C86.9751 27.9987 86.5196 28.0869 86.0129 28.0869C85.5062 28.0869 85.0507 27.9987 84.6465 27.8222C84.2423 27.6457 83.9149 27.4123 83.6644 27.1219C83.4139 26.8258 83.2203 26.4956 83.0837 26.1313ZM88.2589 25.8921C88.3614 25.6075 88.4126 25.3086 88.4126 24.9954C88.4126 24.6823 88.3614 24.3834 88.2589 24.0987C88.1621 23.8141 88.0169 23.5579 87.8234 23.3301C87.6355 23.1024 87.385 22.9231 87.0719 22.7921C86.7587 22.6555 86.4057 22.5872 86.0129 22.5872C85.62 22.5872 85.2671 22.6555 84.9539 22.7921C84.6408 22.9231 84.3874 23.1024 84.1939 23.3301C84.006 23.5579 83.8608 23.8141 83.7583 24.0987C83.6615 24.3834 83.6132 24.6823 83.6132 24.9954C83.6132 25.3086 83.6615 25.6075 83.7583 25.8921C83.8608 26.1768 84.006 26.433 84.1939 26.6607C84.3874 26.8885 84.6408 27.0707 84.9539 27.2073C85.2671 27.3382 85.62 27.4037 86.0129 27.4037C86.4057 27.4037 86.7587 27.3382 87.0719 27.2073C87.385 27.0707 87.6355 26.8885 87.8234 26.6607C88.0169 26.433 88.1621 26.1768 88.2589 25.8921Z" fill="white"/>
<path d="M91.8138 27.9844H91.0964V22.0064H91.7626L95.3579 26.7803V22.0064H96.0753V27.9844H95.4091L91.8138 23.202V27.9844Z" fill="white"/>
<path d="M99.4793 28.9238H97.8823V28.2406H98.762V21.7502H97.8823V21.067H99.4793V28.9238Z" fill="white"/>
<path d="M110.113 22.0064H110.728V27.9844H110.011V23.3643L107.867 26.5753H107.423L105.279 23.3643V27.9844H104.562V22.0064H105.177L107.645 25.6957L110.113 22.0064Z" fill="white"/>
<path d="M113.138 27.9844H112.361L114.966 22.0064H115.76L118.356 27.9844H117.588L116.973 26.5412H113.753L113.138 27.9844ZM115.265 22.9715L114.035 25.8751H116.691L115.453 22.9715C115.441 22.943 115.41 22.8661 115.359 22.7409C115.308 22.8718 115.276 22.9487 115.265 22.9715Z" fill="white"/>
<path d="M120.712 27.9844H119.994V22.0064H122.334C122.727 22.0064 123.083 22.0605 123.402 22.1687C123.721 22.2712 123.994 22.4648 124.222 22.7494C124.455 23.0284 124.572 23.3842 124.572 23.8169C124.572 24.3293 124.424 24.7278 124.128 25.0125C123.832 25.2972 123.447 25.4822 122.975 25.5676L124.999 27.9844H124.102L122.146 25.6274H120.712V27.9844ZM120.712 22.6896V24.9442H122.368C122.79 24.9442 123.14 24.8588 123.419 24.688C123.703 24.5115 123.846 24.2211 123.846 23.8169C123.846 23.407 123.703 23.1166 123.419 22.9458C123.14 22.775 122.79 22.6896 122.368 22.6896H120.712Z" fill="white"/>
<path d="M127.435 27.9844H126.718V22.0064H127.435V24.5941H128.793L130.595 22.0064H131.415L129.382 24.9186L131.594 27.9844H130.774L128.819 25.2773H127.435V27.9844Z" fill="white"/>
<path d="M133.183 22.0064H137.214V22.6896H133.9V24.6282H136.958V25.3114H133.9V27.3012H137.265V27.9844H133.183V22.0064Z" fill="white"/>
<path d="M138.598 22.0064H143.517V22.6896H141.417V27.9844H140.699V22.6896H138.598V22.0064Z" fill="white"/>
<path d="M145.204 22.0064H145.922V27.9844H145.204V22.0064Z" fill="white"/>
<path d="M148.992 27.9844H148.275V22.0064H148.941L152.536 26.7803V22.0064H153.254V27.9844H152.588L148.992 23.202V27.9844Z" fill="white"/>
<path d="M155.215 24.9954C155.215 24.3407 155.371 23.7742 155.684 23.296C155.997 22.812 156.39 22.4591 156.863 22.237C157.335 22.015 157.845 21.904 158.391 21.904C159.052 21.904 159.65 22.0378 160.185 22.3053V23.0227C159.724 22.7323 159.16 22.5872 158.494 22.5872C158.169 22.5872 157.859 22.6356 157.563 22.7323C157.267 22.8234 156.994 22.9629 156.743 23.1508C156.498 23.333 156.302 23.5835 156.154 23.9023C156.012 24.2211 155.94 24.5855 155.94 24.9954C155.94 25.4281 156.014 25.8067 156.162 26.1313C156.311 26.4501 156.51 26.7006 156.76 26.8828C157.011 27.0593 157.281 27.1902 157.572 27.2756C157.868 27.361 158.181 27.4037 158.511 27.4037C158.938 27.4037 159.305 27.3297 159.613 27.1817V24.8076H160.33V27.6855C159.749 27.9531 159.126 28.0869 158.46 28.0869C158.033 28.0869 157.631 28.03 157.256 27.9161C156.88 27.8022 156.535 27.6286 156.222 27.3952C155.915 27.1561 155.67 26.8315 155.488 26.4216C155.306 26.0117 155.215 25.5363 155.215 24.9954Z" fill="white"/>
<path d="M165.111 27.9844H164.334L166.939 22.0064H167.733L170.329 27.9844H169.56L168.946 26.5412H165.726L165.111 27.9844ZM167.238 22.9715L166.008 25.8751H168.664L167.425 22.9715C167.414 22.943 167.383 22.8661 167.332 22.7409C167.28 22.8718 167.249 22.9487 167.238 22.9715Z" fill="white"/>
<path d="M171.341 24.9954C171.341 24.3407 171.497 23.7742 171.81 23.296C172.123 22.812 172.516 22.4591 172.989 22.237C173.461 22.015 173.971 21.904 174.518 21.904C175.178 21.904 175.776 22.0378 176.311 22.3053V23.0227C175.85 22.7323 175.286 22.5872 174.62 22.5872C174.295 22.5872 173.985 22.6356 173.689 22.7323C173.393 22.8234 173.12 22.9629 172.869 23.1508C172.624 23.333 172.428 23.5835 172.28 23.9023C172.138 24.2211 172.067 24.5855 172.067 24.9954C172.067 25.4281 172.141 25.8067 172.289 26.1313C172.437 26.4501 172.636 26.7006 172.886 26.8828C173.137 27.0593 173.407 27.1902 173.698 27.2756C173.994 27.361 174.307 27.4037 174.637 27.4037C175.064 27.4037 175.431 27.3297 175.739 27.1817V24.8076H176.456V27.6855C175.875 27.9531 175.252 28.0869 174.586 28.0869C174.159 28.0869 173.757 28.03 173.382 27.9161C173.006 27.8022 172.661 27.6286 172.348 27.3952C172.041 27.1561 171.796 26.8315 171.614 26.4216C171.432 26.0117 171.341 25.5363 171.341 24.9954Z" fill="white"/>
<path d="M178.541 22.0064H182.571V22.6896H179.258V24.6282H182.315V25.3114H179.258V27.3012H182.623V27.9844H178.541V22.0064Z" fill="white"/>
<path d="M185.339 27.9844H184.622V22.0064H185.288L188.883 26.7803V22.0064H189.601V27.9844H188.935L185.339 23.202V27.9844Z" fill="white"/>
<path d="M191.553 25.0381C191.553 24.3777 191.71 23.8055 192.023 23.3216C192.336 22.832 192.726 22.4733 193.193 22.2456C193.66 22.0178 194.161 21.904 194.696 21.904C195.311 21.904 195.871 22.0378 196.378 22.3053V23.0227C195.945 22.7323 195.424 22.5872 194.815 22.5872C194.132 22.5872 193.54 22.7978 193.039 23.2191C192.538 23.6347 192.285 24.2411 192.279 25.0381C192.279 25.5448 192.407 25.9832 192.663 26.3533C192.925 26.7234 193.244 26.9909 193.62 27.1561C194.001 27.3212 194.408 27.4037 194.841 27.4037C195.484 27.4037 196.011 27.2585 196.421 26.9682V27.6855C195.903 27.9531 195.325 28.0869 194.687 28.0869C194.306 28.0869 193.93 28.0214 193.56 27.8905C193.19 27.7539 192.854 27.5631 192.552 27.3183C192.25 27.0678 192.008 26.7461 191.826 26.3533C191.644 25.9548 191.553 25.5164 191.553 25.0381Z" fill="white"/>
<path d="M200.694 27.9844H199.976V25.7213L197.628 22.0064H198.422L200.335 25.0808L202.248 22.0064H203.042L200.694 25.7213V27.9844Z" fill="white"/>
</svg>
