<svg width="68" height="41" viewBox="0 0 68 41" fill="none" xmlns="http://www.w3.org/2000/svg">
<path d="M33.7812 0L24.4184 9.63697L15.0459 0H33.7812Z" fill="#F06691"/>
<path d="M45.7977 18.7353L34.9365 0H38.7071C47.1198 0 51.2528 4.11334 51.2528 10.822C51.2528 16.2281 47.257 18.1966 45.7977 18.7353Z" fill="#EB1068"/>
<path d="M14.7227 15.6309L20.9416 20.1359L14.7227 39.5176V15.6309Z" fill="#EB1068"/>
<path d="M15.6631 40.6438L33.7814 29.479L45.1126 39.4979C39.9612 41.2216 34.1535 40.6438 34.1535 40.6438H15.6631Z" fill="#8E1848"/>
<path d="M24.1638 10.0776L21.0983 19.646L14.7227 15.0234V0.362305L24.1638 10.0776Z" fill="#EB1068"/>
<path d="M33.174 28.3918L21.5098 19.9496L24.5164 10.5967L33.174 28.3918Z" fill="#ED1983"/>
<path d="M21.3632 20.4395L33.38 29.1558L14.9092 40.5263L21.3632 20.4395Z" fill="#CD1C69"/>
<path d="M45.093 18.4903L24.8887 9.85226L34.4081 0.0585938L45.093 18.4903Z" fill="url(#paint0_linear_2410_523)"/>
<path d="M45.2103 19.0682L33.8986 28.7737L24.9766 10.4204L45.2103 19.0682Z" fill="#EB1068"/>
<path d="M45.4257 19.5288L45.4747 39.1651L34.1826 29.1854L45.4257 19.5288Z" fill="#C81E5A"/>
<path d="M52.9175 29.528C52.9175 34.8851 49.715 37.7155 45.964 39.1943L45.915 19.1173V19.0781C45.9248 19.0781 45.9346 19.0879 45.9444 19.0879C47.815 19.6951 52.9175 22.0456 52.9175 29.528Z" fill="#9C2D59"/>
<path d="M45.9156 19.0781V19.1173L45.945 19.0879C45.9352 19.0781 45.9254 19.0781 45.9156 19.0781ZM45.798 18.7354C45.7785 18.7451 45.7491 18.7549 45.7295 18.7647L45.847 18.8137L45.798 18.7354Z" fill="url(#paint1_linear_2410_523)"/>
<path d="M45.8473 18.8037L45.9159 18.931V18.8331L45.8473 18.8037ZM45.3283 18.8919C45.2989 18.9017 45.2793 18.9016 45.2793 18.9016C45.2793 18.9016 45.2989 18.9016 45.3381 18.9114L45.3283 18.8919Z" fill="url(#paint2_linear_2410_523)"/>
<path d="M0.00244812 20.3613C0.00244812 18.1871 0.00244812 16.0227 0.00244812 13.8485C0.00244812 13.7212 -0.00734495 13.5841 0.0122424 13.4567C0.0220361 13.4078 0.0807978 13.349 0.129766 13.3392C0.227703 13.3196 0.325639 13.3294 0.423576 13.3294C1.6184 13.3294 2.80344 13.3 3.99827 13.3392C4.98743 13.3686 5.96679 13.5057 6.83843 14.0346C7.6513 14.534 8.18016 15.249 8.24872 16.2381C8.30748 17.0706 8.24872 17.5015 8.10181 17.9422C7.808 18.8139 7.17141 19.3623 6.38792 19.7639C6.32916 19.7932 6.2606 19.7932 6.20184 19.8226C6.16267 19.8422 6.14308 19.8912 6.1137 19.9304C6.14308 19.9499 6.17246 19.9597 6.20184 19.9793C6.49565 20.1066 6.79925 20.2242 7.08327 20.3711C7.90594 20.802 8.47397 21.4778 8.74819 22.369C9.0518 23.3483 9.01262 24.3179 8.59149 25.2581C8.18995 26.1591 7.45543 26.688 6.55441 27.021C6.1039 27.1875 5.63381 27.2854 5.14412 27.3344C3.53796 27.4911 1.92201 27.3637 0.315845 27.4029C0.0220352 27.4127 0.0220352 27.4029 0.0220352 27.1091C0.0220352 25.4246 0.0220352 23.7499 0.0220352 22.0654C0.00244782 21.4973 0.00244812 20.9293 0.00244812 20.3613ZM0.697799 20.3123C0.697799 22.2515 0.697799 24.1906 0.697799 26.1297C0.697799 26.2473 0.697799 26.355 0.697799 26.4725C0.688005 26.5998 0.766355 26.639 0.874085 26.6488C0.923054 26.6488 0.972022 26.6488 1.02099 26.6488C2.25499 26.6488 3.49879 26.6488 4.73279 26.639C5.45752 26.6292 6.13328 26.4334 6.76987 26.0906C7.36729 25.7674 7.76883 25.2875 7.99408 24.6509C8.14099 24.2592 8.13119 23.8576 8.1214 23.4463C8.09202 22.4571 7.67089 21.6834 6.86781 21.1056C6.49565 20.8314 6.06473 20.6943 5.63381 20.5669C5.14412 20.42 4.64465 20.3025 4.14517 20.1752C4.01785 20.1458 3.99827 20.0773 3.99827 19.9695C3.99827 19.8618 4.03744 19.803 4.15496 19.7737C4.69362 19.617 5.24206 19.4798 5.76113 19.2742C6.76008 18.8824 7.39667 18.1479 7.5044 17.0706C7.61213 15.8856 7.11265 14.8866 5.84927 14.3969C5.32041 14.1913 4.77197 14.0835 4.19414 14.0835C3.13642 14.0933 2.07871 14.0835 1.0112 14.0835C0.942641 14.0835 0.874085 14.0639 0.815323 14.0933C0.756561 14.1227 0.688006 14.1913 0.678212 14.25C0.658625 14.3578 0.668418 14.4753 0.668418 14.5928C0.697799 16.5026 0.697799 18.4123 0.697799 20.3123Z" fill="white"/>
<path d="M24.1442 27.4126C22.1561 27.4126 20.168 27.4126 18.1799 27.4126C18.1015 27.4126 18.0134 27.4126 17.935 27.4126C17.8175 27.4028 17.8077 27.3245 17.8273 27.2364C17.8763 27.0797 17.935 26.9328 18.0036 26.7858C18.4737 25.689 18.9536 24.6019 19.4335 23.505C19.9036 22.4277 20.3541 21.3406 20.8242 20.2731C21.1376 19.5483 21.4803 18.8334 21.7937 18.1087C22.3128 16.904 22.8123 15.6994 23.3215 14.4948C23.4097 14.2891 23.5174 14.0835 23.6056 13.8778C23.9092 13.1433 23.7427 13.3489 24.4674 13.3098C24.6437 13.3 24.6927 13.3979 24.7416 13.5252C25.2215 14.7005 25.6916 15.8855 26.1715 17.0607C26.5437 17.9715 26.9452 18.8628 27.3272 19.7736C27.7581 20.8117 28.1792 21.8596 28.6101 22.8978C28.9823 23.789 29.3642 24.6802 29.7364 25.5714C29.9714 26.1395 30.2065 26.6977 30.4415 27.2657C30.4513 27.2951 30.4024 27.3931 30.373 27.4028C30.2457 27.4224 30.1086 27.4126 29.9812 27.4126C28.0225 27.4126 26.0834 27.4126 24.1442 27.4126ZM24.0561 26.6487V26.6389C25.5349 26.6389 27.0235 26.6389 28.5024 26.6389C28.757 26.6389 29.0117 26.6096 29.2663 26.59C29.1879 26.3451 29.1096 26.1101 29.0215 25.8652C29.0019 25.8065 28.9725 25.7477 28.9431 25.689C28.473 24.5823 27.9833 23.4756 27.523 22.3591C27.0921 21.321 26.671 20.2829 26.2498 19.2349C25.8777 18.3241 25.5153 17.4231 25.1432 16.5123C24.8689 15.8267 24.5849 15.1412 24.3009 14.4556C24.2813 14.4066 24.2617 14.3675 24.2324 14.3283C24.1834 14.3675 24.1246 14.4066 24.0952 14.4654C23.6741 15.4546 23.2628 16.4535 22.8417 17.4525C22.1953 18.9803 21.5489 20.5081 20.8927 22.0359C20.2561 23.5148 19.6195 25.0034 18.9732 26.4822C18.8948 26.6585 18.8948 26.6585 19.1005 26.6683C19.1494 26.6683 19.1984 26.6683 19.2474 26.6683C20.8633 26.6487 22.4597 26.6487 24.0561 26.6487Z" fill="white"/>
<path d="M58.9505 20.3511C58.9505 18.2161 58.9505 16.0811 58.9505 13.9461C58.9505 13.8677 58.9505 13.7796 58.9505 13.7012C58.9603 13.3585 58.9701 13.3389 59.3128 13.3389C61.869 13.3389 64.4349 13.3389 66.9911 13.3389C67.2653 13.3389 67.2653 13.3487 67.2653 13.6033C67.2653 13.6523 67.2653 13.7012 67.2653 13.7502C67.2653 14.1322 67.2751 14.093 66.9225 14.093C64.7092 14.093 62.486 14.093 60.2726 14.093C59.7144 14.093 59.7144 14.093 59.7144 14.6708C59.7144 16.2378 59.7144 17.8048 59.7144 19.3718C59.7144 19.4697 59.7046 19.5676 59.7242 19.6656C59.734 19.7145 59.8025 19.7733 59.8417 19.7733C59.969 19.7929 60.1061 19.7831 60.2335 19.7831C62.2705 19.7831 64.3076 19.7831 66.3447 19.7831C66.472 19.7831 66.6091 19.7831 66.7364 19.7929C66.7756 19.7929 66.8246 19.8419 66.8344 19.8712C66.854 19.9104 66.8442 19.9692 66.8442 20.0181C66.8344 20.5372 66.9127 20.4784 66.4231 20.4784C64.3174 20.4784 62.2118 20.4784 60.1159 20.4784C59.6948 20.4784 59.7144 20.4295 59.7144 20.8604C59.7144 22.6722 59.7144 24.4841 59.7144 26.2959C59.7144 26.3644 59.7144 26.4232 59.7144 26.4918C59.7144 26.6191 59.7829 26.6583 59.9005 26.6583C60.018 26.6583 60.1257 26.6583 60.2432 26.6583C62.5056 26.6583 64.7777 26.6583 67.0401 26.6583C67.1576 26.6583 67.2653 26.6583 67.3828 26.6583C67.5395 26.6583 67.6277 26.7268 67.6277 26.8933C67.6277 27.0108 67.6473 27.1283 67.6179 27.2361C67.5983 27.3144 67.5004 27.383 67.4318 27.4124C67.3632 27.4417 67.2751 27.4222 67.187 27.4222C64.5916 27.4222 61.9963 27.4222 59.4108 27.4222C58.8917 27.4222 58.9407 27.3634 58.9407 26.9227C58.9505 24.7191 58.9505 22.5351 58.9505 20.3511Z" fill="white"/>
<path d="M47.3157 23.9652C47.3549 23.4461 47.2471 22.9467 46.9337 22.5353C46.5909 22.0848 46.16 21.7029 45.641 21.4384C44.9848 21.1153 44.2992 20.89 43.6137 20.6549C43.124 20.4885 42.6245 20.3513 42.1642 20.1359C41.2828 19.7343 40.4895 19.2055 40.0782 18.2751C39.8823 17.8246 39.7648 17.3643 39.7648 16.8746C39.7648 16.0813 39.9215 15.337 40.3916 14.6612C40.8225 14.054 41.3709 13.6231 42.0467 13.3587C42.8008 13.0551 43.5843 12.869 44.407 12.9375C45.6801 13.0453 46.8358 13.437 47.727 14.3968C47.9621 14.6514 47.9621 14.671 47.7074 14.9061C47.6487 14.9648 47.5899 15.0236 47.5213 15.0726C47.4136 15.1411 47.3255 15.2097 47.1982 15.053C47.0023 14.8179 46.777 14.5927 46.5322 14.4164C45.8662 13.9561 45.1219 13.7308 44.309 13.7112C43.3394 13.6819 42.458 13.9071 41.6647 14.4849C41.0967 14.8963 40.7833 15.4447 40.6266 16.1205C40.5189 16.571 40.5287 17.0117 40.6364 17.4622C40.7833 18.0694 41.1261 18.5395 41.6158 18.9117C42.0075 19.2055 42.4384 19.4209 42.8889 19.5874C43.6235 19.8617 44.3776 20.1065 45.1121 20.3905C45.6801 20.6158 46.2678 20.8312 46.7574 21.2034C47.5605 21.8204 48.109 22.5941 48.0894 23.6714C48.0796 24.2198 48.0894 24.7683 47.8935 25.2971C47.5997 26.0611 47.1002 26.6389 46.4342 27.0698C45.8368 27.4518 45.1611 27.6574 44.4461 27.7456C42.9477 27.9316 41.5962 27.5693 40.3622 26.7466C40.0586 26.5409 39.8039 26.2471 39.5297 25.9925C39.471 25.9337 39.4807 25.8848 39.5395 25.8358C39.6081 25.7672 39.6766 25.6987 39.755 25.6301C40.0096 25.4049 40.0292 25.3951 40.2642 25.6301C40.989 26.3451 41.841 26.7662 42.8498 26.9523C43.7704 27.1286 44.6518 27.0404 45.5038 26.6976C46.3853 26.3353 46.9827 25.6693 47.2569 24.7389C47.3255 24.4941 47.2961 24.2198 47.3157 23.9652Z" fill="white"/>
<defs>
<linearGradient id="paint0_linear_2410_523" x1="28.0393" y1="4.13569" x2="45.8855" y2="13.2433" gradientUnits="userSpaceOnUse">
<stop stop-color="#EE3768"/>
<stop offset="1" stop-color="#EE3768"/>
</linearGradient>
<linearGradient id="paint1_linear_2410_523" x1="45.7295" y1="18.9234" x2="45.9499" y2="18.9234" gradientUnits="userSpaceOnUse">
<stop stop-color="#F06691"/>
<stop offset="1" stop-color="#EB1068"/>
</linearGradient>
<linearGradient id="paint2_linear_2410_523" x1="45.2793" y1="18.8718" x2="45.9178" y2="18.8718" gradientUnits="userSpaceOnUse">
<stop stop-color="#F06691"/>
<stop offset="1" stop-color="#EB1068"/>
</linearGradient>
</defs>
</svg>
