<svg width="53" height="23" viewBox="0 0 53 23" fill="none" xmlns="http://www.w3.org/2000/svg">
<path d="M46.7067 0.00115938C50.291 0.0476405 52.7483 2.49564 52.9831 6.21413C53.03 7.05079 52.9831 7.88745 52.7952 8.70862C52.0127 11.9933 49.3832 13.8835 46.0024 13.6046C42.8408 13.3412 40.4617 10.8313 40.2895 7.5311C40.1956 5.48593 40.5086 3.53372 41.9643 1.93787C43.232 0.558932 44.8442 -0.029828 46.7067 0.00115938ZM42.1208 6.81839C42.1051 7.45363 42.1521 8.02689 42.2773 8.60016C42.7468 10.6608 44.4059 12.0553 46.4563 12.1017C48.7101 12.1482 50.3223 10.9552 50.917 8.80158C51.2927 7.42264 51.277 6.02821 50.8701 4.66476C50.2753 2.68157 48.5536 1.44207 46.5659 1.50405C44.4372 1.56602 42.7938 2.88299 42.3242 4.92815C42.1677 5.5634 42.0895 6.21413 42.1208 6.81839Z" fill="white"/>
<path d="M18.7684 0.00126873C22.3683 -0.0297187 24.9665 2.52674 25.1386 6.26072C25.1856 7.26781 25.1073 8.25941 24.81 9.23551C23.9491 12.1173 21.4918 13.7752 18.3145 13.6202C15.4502 13.4653 13.1494 11.4201 12.586 8.5228C12.3199 7.14386 12.3825 5.78042 12.7581 4.44796C13.5251 1.69008 15.7946 0.0167624 18.7684 0.00126873ZM14.2764 6.92695C14.2451 7.43824 14.3077 8.01151 14.4329 8.58478C14.8555 10.5215 16.4676 11.9779 18.3145 12.1018C20.5683 12.2413 22.29 11.1877 22.9787 9.15804C23.5265 7.51571 23.4952 5.84239 22.8691 4.23105C22.1805 2.46477 20.4431 1.3957 18.5962 1.51965C16.5302 1.65909 15.0746 2.82112 14.5424 4.72685C14.3546 5.40857 14.2607 6.12128 14.2764 6.92695Z" fill="white"/>
<path d="M5.32352 0.0169856C6.21567 0.00149186 7.18608 0.156429 8.09388 0.605746C9.29906 1.21 9.94078 2.21709 10.1599 3.50307C10.2069 3.81294 10.1599 4.01436 9.78426 3.96788C9.72166 3.96788 9.6434 3.96788 9.58079 3.98337C8.84516 4.1693 8.34431 4.04535 8.2504 3.16221C8.23474 2.91431 8.01562 2.66641 7.8278 2.4495C6.81044 1.27198 3.78966 1.21 2.70969 2.35653C1.88015 3.22418 2.09927 4.44818 3.19489 4.95947C4.29051 5.47077 5.49569 5.61021 6.63827 5.92008C7.35825 6.1215 8.09388 6.30743 8.75125 6.67928C11.0207 7.96525 11.2242 10.9091 9.1895 12.5359C7.26434 14.0698 3.41401 14.0078 1.52016 12.4274C0.659312 11.6992 0.205413 10.7541 0.017592 9.66956C-0.0450149 9.29771 0.0488954 9.09629 0.471492 9.12728C0.565402 9.14277 0.659312 9.12728 0.753223 9.09629C1.36364 8.92586 1.72363 9.03432 1.83319 9.76252C1.97406 10.6147 2.55317 11.2034 3.35141 11.5598C4.82267 12.226 6.30958 12.257 7.76519 11.5443C8.46952 11.2034 8.86081 10.5837 8.86081 9.809C8.86081 9.00333 8.39126 8.47654 7.67128 8.13568C6.63827 7.67087 5.51134 7.50044 4.43138 7.20606C3.63314 6.98915 2.8349 6.80323 2.13057 6.3694C-0.0763182 5.05244 -0.0606666 2.04666 2.16188 0.729696C3.02272 0.233897 3.94617 0.0169856 5.32352 0.0169856Z" fill="white"/>
<path d="M37.8948 6.77176C37.8948 8.77044 37.8791 10.7846 37.9104 12.7833C37.9104 13.2481 37.8322 13.434 37.3156 13.4186C36.1418 13.3876 36.1418 13.4186 36.1418 12.241C36.1418 10.7536 36.1105 9.26624 36.1574 7.76335C36.1731 7.26755 36.0009 7.19009 35.5627 7.19009C33.6531 7.20558 31.7436 7.22107 29.8498 7.19009C29.3802 7.19009 29.255 7.31403 29.2707 7.76335C29.302 9.46766 29.2707 11.1565 29.2863 12.8608C29.2863 13.2946 29.1768 13.4031 28.7385 13.4031C27.4707 13.4031 27.4707 13.4186 27.4707 12.1945C27.4707 8.47606 27.4864 4.74208 27.4551 1.02359C27.4551 0.326377 27.6585 0.109465 28.3159 0.217921C28.4098 0.233414 28.5037 0.233414 28.5976 0.217921C29.1298 0.140452 29.3176 0.310883 29.302 0.88415C29.255 2.30957 29.302 3.7195 29.2707 5.14492C29.2707 5.53226 29.3646 5.65621 29.7715 5.65621C31.728 5.64072 33.6844 5.62522 35.6253 5.65621C36.0948 5.65621 36.1574 5.47028 36.1574 5.08294C36.1418 3.65752 36.1731 2.2476 36.1418 0.822175C36.1261 0.34187 36.2513 0.186933 36.7522 0.202427C37.9104 0.233414 37.9104 0.202427 37.9104 1.31797C37.8948 3.13074 37.8948 4.9435 37.8948 6.77176Z" fill="white"/>
<path d="M23.7769 19.2133C23.7769 21.8782 21.9456 23.3811 19.3005 22.8543C19.0657 22.8078 18.8466 22.8233 18.6118 22.8698C16.0762 23.4121 14.0571 21.7078 14.1824 19.1513C14.3076 16.4709 16.0762 15.1075 18.7214 15.6343C18.9405 15.6807 19.1283 15.6498 19.3318 15.6033C21.9143 15.0765 23.7769 16.5949 23.7769 19.2133ZM17.8136 19.0739C17.7979 20.2359 18.064 20.9486 18.5961 21.4909C18.8779 21.7853 19.097 21.8162 19.41 21.5064C20.49 20.4528 20.4743 18.0203 19.3944 16.9667C19.1283 16.7033 18.9248 16.6878 18.6431 16.9512C17.9544 17.5865 17.8292 18.3921 17.8136 19.0739ZM20.1613 16.3315C21.57 18.2527 21.6013 20.1894 20.177 22.1106C21.7421 22.1571 22.7282 21.119 22.7751 19.4457C22.8221 17.4625 21.9143 16.3625 20.1613 16.3315ZM17.8449 22.1261C16.4206 20.2514 16.4519 18.3766 17.6883 16.4554C16.7179 16.285 16.0449 16.6878 15.6536 17.416C15.0275 18.5781 14.9806 19.8331 15.6536 21.0106C16.0919 21.8162 16.8431 22.1881 17.8449 22.1261Z" fill="white"/>
<path d="M36.5958 17.2302C36.001 18.9345 35.3906 20.6388 34.7958 22.3432C34.6863 22.684 34.561 22.8854 34.1384 22.8854C33.7158 22.8854 33.6376 22.653 33.5437 22.3586C32.9489 20.6234 32.3698 18.9036 31.6498 17.1838C31.6498 18.2373 31.6498 19.2754 31.6498 20.329C31.6498 21.0107 31.6342 21.6769 31.6655 22.3586C31.6811 22.746 31.5716 22.8699 31.1646 22.8854C30.6951 22.9009 30.6951 22.684 30.6951 22.3432C30.7107 20.267 30.7107 18.2063 30.6951 16.1302C30.6951 15.7428 30.7733 15.6189 31.1959 15.6034C31.8846 15.5569 32.2602 15.7119 32.4794 16.471C32.9802 18.2063 33.6063 19.8951 34.248 21.7544C34.921 19.8177 35.5471 18.0359 36.1575 16.2541C36.3453 15.6964 36.9714 15.4175 37.5192 15.6189C37.7696 15.7119 37.6914 15.9288 37.6914 16.0837C37.6914 18.1754 37.6914 20.267 37.707 22.3741C37.707 22.7615 37.6131 22.8854 37.2062 22.8854C36.7992 22.8854 36.7523 22.715 36.7679 22.3896C36.7836 20.7783 36.7679 19.1824 36.7679 17.5711C36.7679 17.4626 36.7679 17.3542 36.7679 17.2457C36.674 17.2302 36.6427 17.2302 36.5958 17.2302Z" fill="white"/>
<path d="M7.8905 22.7924C7.06096 23.0248 6.5288 22.8389 6.16881 22.0952C5.85578 21.4754 5.41753 20.9176 4.99493 20.3599C4.50973 19.7246 3.36716 19.4147 2.63152 19.6626C2.36545 19.7556 2.4437 19.9415 2.4437 20.112C2.42805 20.8866 2.42805 21.6458 2.4437 22.4205C2.45936 22.7924 2.33414 22.8853 1.97415 22.8853C1.61416 22.8853 1.42634 22.8234 1.44199 22.405C1.45765 20.3134 1.45765 18.2062 1.45765 16.1146C1.45765 15.8357 1.44199 15.6033 1.83329 15.6188C3.05412 15.6498 4.29061 15.5878 5.49579 15.6963C6.66967 15.7892 7.28009 16.4709 7.34269 17.5245C7.4053 18.4541 6.82619 19.1668 5.77752 19.4922C5.68361 19.5232 5.60535 19.5232 5.41753 19.5697C6.56011 20.4218 7.09226 21.6768 7.8905 22.7924ZM3.83671 18.7795C4.228 18.7795 4.63494 18.8105 5.02624 18.7795C5.82447 18.702 6.30968 18.2062 6.27837 17.5555C6.24707 16.9203 5.77752 16.4864 4.97928 16.44C4.44712 16.409 3.89931 16.4245 3.3515 16.4245C2.39675 16.4245 2.39675 16.4245 2.39675 17.3851C2.42805 18.8105 2.42805 18.8105 3.83671 18.7795Z" fill="white"/>
<path d="M47.6615 22.994C45.9398 22.9785 44.8911 22.2813 44.625 20.9953C44.5781 20.7629 44.4685 20.4995 44.8442 20.4995C45.0946 20.4995 45.4702 20.2516 45.5485 20.7784C45.7676 22.1419 47.9589 22.4672 48.9449 21.77C49.6962 21.2432 49.6023 20.2981 48.7258 19.9573C48.0684 19.7094 47.3797 19.5699 46.7067 19.3685C45.3607 18.9812 44.7502 18.3304 44.8442 17.3543C44.9381 16.3317 45.658 15.6965 46.9884 15.5106C48.4754 15.2937 49.7431 15.9444 50.0875 17.0909C50.1501 17.2769 50.3849 17.6022 50.0092 17.6487C49.7588 17.6952 49.3675 17.9741 49.164 17.4008C48.804 16.3627 47.0667 15.9754 46.1902 16.6881C45.5641 17.1994 45.6893 17.9896 46.4876 18.2685C47.2858 18.5473 48.1154 18.7023 48.9136 18.9657C49.884 19.2755 50.3849 19.9263 50.4005 20.7784C50.4162 21.6771 49.8527 22.4363 48.9293 22.7926C48.491 22.9321 48.0528 23.025 47.6615 22.994Z" fill="white"/>
</svg>
