<svg width="98" height="14" viewBox="0 0 98 14" fill="none" xmlns="http://www.w3.org/2000/svg">
<g opacity="0.7">
<path d="M16.8834 0.00436401C13.901 0.00436401 11.5905 0.939392 11.5678 0.953075C11.4634 0.994125 11.3953 1.11728 11.4089 1.22674L11.6949 3.14697C11.704 3.19258 11.7267 3.22907 11.763 3.25188C11.7993 3.27468 11.8447 3.27468 11.8901 3.26556C11.9037 3.261 13.0567 2.91435 14.246 2.7091C16.1299 2.38527 17.2057 2.46737 17.7413 2.97821C18.0364 3.25644 18.1544 3.6715 18.0863 4.20515L18.0364 4.57004C18.0364 4.57004 15.7304 4.8802 14.2142 5.15842C12.6935 5.44121 11.7539 5.76961 11.0185 6.24853C9.45696 7.27022 9.07112 9.26799 9.37072 10.6956C9.634 11.9454 10.728 13.4368 14.4594 13.4368H14.7499C20.465 13.4368 21.2094 12.4562 21.4636 10.3809L21.8041 7.62599L22.2535 3.98166C22.3897 2.85506 22.1854 1.99757 21.618 1.36358C20.81 0.446792 19.2575 0.00436401 16.8834 0.00436401ZM17.7277 7.05129C17.7277 7.05129 17.5915 8.13227 17.5915 8.14595L17.2511 10.8781L17.2057 10.8917C17.1785 10.9009 16.5747 11.0924 15.5715 11.0924H15.5624C15.172 11.0924 14.364 11.0924 13.8511 10.5816C13.556 10.2851 13.4062 9.87005 13.4062 9.3364C13.4062 8.2463 14.0554 7.56213 15.3809 7.31583C16.7064 7.06953 17.7413 6.95094 17.7413 6.95094L17.7277 7.05129Z" fill="white"/>
<path d="M68.6418 0.00912279L68.2242 0C65.1919 0 63.1401 0.875734 62.1142 2.59984C61.2925 3.97729 60.8976 8.62963 60.8931 8.67524C60.8204 9.57834 60.8931 10.2534 61.12 10.8691C61.9734 13.1451 64.9377 13.4553 66.6309 13.437C69.6814 13.4234 71.7377 12.5613 72.7455 10.8828C73.0542 10.3629 73.5126 8.9261 73.9303 5.00354L73.9484 4.86215C74.0392 4.04571 73.9893 3.35698 73.8032 2.75947C73.1223 0.583823 70.621 0.0684173 68.6418 0.00912279ZM69.3409 8.50648L69.3318 8.5749C69.2728 9.08118 69.1276 9.81096 68.6373 10.3081C68.2968 10.6502 67.8021 10.8463 67.1665 10.8874C66.6037 10.9239 66.1542 10.8463 65.8002 10.6411C65.3417 10.3811 65.0194 9.83376 64.9695 9.2545C64.9422 8.88961 65.2691 6.60906 65.4461 5.38668L65.5278 4.8211C65.6004 4.29201 65.8138 3.55311 66.4357 3.05595C66.8306 2.73667 67.3345 2.55879 67.8656 2.55422C68.3876 2.5451 68.8007 2.64545 69.123 2.8507C69.6587 3.19734 69.7994 3.79941 69.8176 4.2464C69.8312 4.50638 69.6678 5.98418 69.3409 8.50648Z" fill="white"/>
<path d="M60.4796 0.104926L58.6684 0.109486C57.1432 0.109486 56.5349 0.989785 56.199 1.40029L51.6007 7.13363L51.7278 6.79611L52.5358 0.278248C52.5448 0.232637 52.5312 0.191586 52.4994 0.159658C52.4722 0.12773 52.4314 0.109486 52.3814 0.109486H48.6047C48.5003 0.109486 48.405 0.196147 48.3868 0.296492L46.8117 12.9901C46.8071 13.0357 46.8162 13.0768 46.8434 13.1041C46.8707 13.1315 46.907 13.1406 46.9524 13.1406H48.927C50.4522 13.1406 51.1331 12.1418 51.3737 11.827L55.8631 5.96142L55.7178 6.32175L54.8962 12.9719C54.8917 13.0175 54.9053 13.0631 54.9325 13.0905C54.9643 13.1224 55.0006 13.1406 55.0551 13.1406H58.8273C58.9317 13.1406 59.0316 13.0494 59.0452 12.9491L60.6158 0.24632C60.6203 0.200708 60.6112 0.164219 60.584 0.136853C60.5659 0.109486 60.525 0.100364 60.4796 0.104926Z" fill="white"/>
<path d="M87.6573 0.00422253L83.8079 0.478577C83.7034 0.487699 83.599 0.592605 83.5809 0.69751L83.0362 5.14002L83.0089 5.32246H79.3275L79.9675 0.145617C79.9721 0.100006 79.9584 0.0589563 79.9357 0.0361508C79.9085 0.00878418 79.8677 -0.000338569 79.8268 0.00422253L75.9774 0.478577C75.8684 0.487699 75.764 0.592605 75.7504 0.69751L74.2343 12.9669C74.2297 13.0125 74.2433 13.0581 74.2706 13.0855C74.2978 13.1174 74.3387 13.1356 74.3841 13.1356H78.1654C78.2698 13.1356 78.3697 13.0444 78.3833 12.9441L78.9916 8.03176L78.9961 7.99527H82.6821L82.0647 12.9623C82.0602 13.0079 82.0738 13.0535 82.101 13.0809C82.1283 13.1128 82.1691 13.1311 82.2191 13.1311H83.1633C84.9064 13.1311 86.1865 12.9258 86.4589 10.9007L87.798 0.141055C87.8025 0.0954445 87.7934 0.0543949 87.7662 0.0315894C87.7435 0.00878391 87.7027 -0.000338569 87.6573 0.00422253Z" fill="white"/>
<path d="M46.9566 2.89596L47.2789 0.264207C47.2835 0.218596 47.2744 0.177546 47.2426 0.145618C47.2154 0.109129 47.17 0.0954459 47.1246 0.0954459H32.8029C32.5896 0.0954459 32.3444 0.191229 32.122 0.419284L28.1137 5.34071H27.5418L28.1818 0.168424C28.1864 0.122813 28.1773 0.0817631 28.1501 0.0589576C28.1228 0.031591 28.082 0.0224683 28.0411 0.0270294L24.1917 0.501383C24.0828 0.510506 23.9829 0.615411 23.9693 0.724877L22.4486 12.976C22.4441 13.0216 22.4577 13.0672 22.4849 13.0991C22.5122 13.1311 22.553 13.1493 22.603 13.1493H26.3842C26.4886 13.1493 26.5885 13.0581 26.5976 12.9577L27.2104 8.01351H27.8051L30.5468 12.9623C30.6013 13.0626 30.7466 13.1493 30.8601 13.1493H34.9591C35.0227 13.1493 35.0907 13.1128 35.0363 12.9988L31.3095 6.70904L34.4235 3.09209H38.9174L37.6918 12.9714C37.6873 13.017 37.7009 13.0627 37.7281 13.0946C37.7554 13.1265 37.8007 13.1447 37.8461 13.1447H41.6274C41.7318 13.1447 41.8317 13.0535 41.8408 12.9532L43.0437 3.09209H46.7388C46.8432 3.09209 46.943 3.00543 46.9566 2.89596Z" fill="white"/>
<path d="M8.9305 0.0958395L5.31715 0.0912781C5.00848 0.132328 4.79059 0.232673 4.65894 0.392313C4.65894 0.392313 0.246664 5.77901 0.146798 5.90672C-0.0892502 6.18951 0.0151556 6.49055 0.078707 6.60457L3.58765 12.8123C3.68298 12.9947 3.93718 13.1452 4.15507 13.1452H7.28271C7.5006 13.1452 7.61408 12.9993 7.50514 12.8214L3.98257 6.61826L9.07576 0.37863C9.21648 0.223552 9.15293 0.0958395 8.9305 0.0958395Z" fill="white"/>
<path d="M97.5077 6.63194L93.9987 0.41968C93.9034 0.237235 93.6491 0.0912781 93.4313 0.0912781H90.299C90.0812 0.0912781 89.9722 0.237235 90.0766 0.415119L93.5947 6.61826L88.506 12.8579C88.3653 13.013 88.4333 13.1407 88.6558 13.1407H92.2692C92.5778 13.1042 92.7957 12.9993 92.9228 12.8396C92.9228 12.8396 97.3397 7.45294 97.435 7.32979C97.6756 7.04244 97.5712 6.74597 97.5077 6.63194Z" fill="white"/>
</g>
</svg>
