<svg width="80" height="35" viewBox="0 0 80 35" fill="none" xmlns="http://www.w3.org/2000/svg">
<g opacity="0.7">
<path fill-rule="evenodd" clip-rule="evenodd" d="M36.0976 0H2.92684C1.31038 0 0 1.30587 0 2.91667V32.0833C0 33.6941 1.31038 35 2.92684 35H36.0976C37.714 35 39.0244 33.6941 39.0244 32.0833V2.91667C39.0244 1.30587 37.714 0 36.0976 0ZM8.79016 8.1666H11.9355V27.2221H8.79016V8.1666ZM22.8157 27.576C24.9477 27.576 26.6889 26.9772 28.0391 25.7795C29.388 24.5635 30.0657 22.9393 30.0723 20.9066V8.1666H26.9269V20.7159C26.9009 21.8777 26.551 22.8032 25.8771 23.4928C25.2033 24.1825 24.1828 24.5273 22.8157 24.5273C21.429 24.5219 20.3988 24.1771 19.725 23.4928C19.0511 22.8082 18.7142 21.8827 18.7142 20.7159V8.1666H15.5688V20.9066C15.5702 22.9393 16.2446 24.5635 17.5923 25.7795C18.9425 26.9772 20.6836 27.576 22.8157 27.576Z" fill="white"/>
<path d="M45.1941 26.9499C44.9076 27.2351 44.5427 27.4293 44.1455 27.5079C43.7483 27.5865 43.3367 27.5461 42.9625 27.3917C42.5884 27.2373 42.2686 26.9759 42.0434 26.6405C41.8183 26.3051 41.6979 25.9107 41.6975 25.5072C41.6917 25.2374 41.7407 24.9693 41.8416 24.719C41.9425 24.4687 42.0932 24.2412 42.2846 24.0505C42.476 23.8597 42.7042 23.7096 42.9554 23.609C43.2066 23.5085 43.4757 23.4597 43.7463 23.4655C44.1517 23.4649 44.5481 23.5843 44.8853 23.8085C45.2225 24.0327 45.4853 24.3517 45.6404 24.7249C45.7954 25.0981 45.8358 25.5088 45.7564 25.905C45.6769 26.3011 45.4812 26.6648 45.1941 26.9499Z" fill="white"/>
<path d="M60.0234 27.2223L55.9805 20.2806H52.2731V27.2223H49.1317V8.16675H56.7805C57.5898 8.15069 58.3936 8.30206 59.1412 8.61131C59.8888 8.92056 60.5639 9.38096 61.1239 9.96342C61.7078 10.5219 62.1694 11.1947 62.4797 11.9396C62.79 12.6845 62.9422 13.4854 62.9268 14.2918C62.93 15.4924 62.5546 16.6636 61.8536 17.6401C61.1831 18.6228 60.2312 19.3817 59.1219 19.8179L63.4653 27.2223H60.0234ZM52.2653 11.1068V17.4768H56.7805C57.1813 17.483 57.5789 17.4037 57.9465 17.244C58.314 17.0844 58.6429 16.8481 58.9112 16.5512C59.4912 15.943 59.8055 15.1305 59.7853 14.2918C59.8049 13.4531 59.4906 12.6408 58.9112 12.0323C58.6427 11.7357 58.3137 11.4996 57.9462 11.34C57.5787 11.1804 57.1813 11.1009 56.7805 11.1068H52.2653Z" fill="white"/>
<path d="M77.9824 25.7794C76.6361 26.9772 74.8969 27.576 72.7649 27.576C70.6329 27.576 68.8937 26.9772 67.5473 25.7794C66.201 24.5635 65.5272 22.9392 65.5259 20.9066V8.1666H68.6673V20.716C68.6673 21.8827 69.0042 22.8083 69.678 23.4927C70.3519 24.1772 71.3808 24.522 72.7649 24.5272C74.1307 24.5272 75.1506 24.1823 75.8244 23.4927C76.4982 22.8031 76.8442 21.8775 76.8624 20.716V8.1666H80V20.9066C80 22.9392 79.3275 24.5635 77.9824 25.7794Z" fill="white"/>
</g>
</svg>
